M48
;GenerationSoftware,Autodesk,EAGLE,9.6.1*%
;CreationDate,2020-05-01T14:06:09Z*%
FMAT,2
ICI,OFF
METRIC,TZ,000.000
T2C0.350
T1C1.000
%
G90
M71
T1
X39370Y40640
X58425Y24429
X55885Y26969
X55885Y24429
X53345Y26969
X53345Y24429
X50805Y26969
X50805Y24429
X48265Y26969
X48265Y24429
X45725Y26969
X45725Y24429
X43185Y26969
X43185Y24429
X62230Y30480
X62230Y33020
X62230Y35560
X62230Y38100
X62230Y40640
X62230Y43180
X62230Y45720
X62230Y48260
X39370Y30480
X39370Y48260
X39370Y45720
X39370Y43180
X58425Y26969
X39370Y38100
X39370Y35560
X39370Y33020
T2
X52578Y30988
X55626Y49606
X57912Y49606
X47600Y35027
X49932Y32385
X46152Y36474
X51816Y30226
X50800Y36068
X46152Y35027
X49784Y28956
X47498Y32385
X48768Y28956
X54102Y34290
X46152Y38075
X50805Y28956
X55372Y33274
X54610Y32258
X54864Y35179
X53340Y28956
X60198Y51562
X56896Y54864
X44704Y54864
X41402Y51562
M30