<svg version="1.1" xmlns="http://www.w3.org/2000/svg" xmlns:xlink="http://www.w3.org/1999/xlink" stroke-linecap="round" stroke-linejoin="round" stroke-width="0" fill-rule="evenodd" width="87.058mm" height="54.475mm" viewBox="6281 12375 87058 54475" id="WxyxRyXvqTmc5PZhfEwY"><defs><circle cx="0" cy="0" r="875" id="WxyxRyXvqTmc5PZhfEwY_pad-1"/><circle cx="0" cy="0" r="762" id="WxyxRyXvqTmc5PZhfEwY_pad-2"/><circle cx="0" cy="0" r="500" id="WxyxRyXvqTmc5PZhfEwY_pad-3"/><circle cx="0" cy="0" r="450" id="WxyxRyXvqTmc5PZhfEwY_pad-4"/><circle cx="0" cy="0" r="375" id="WxyxRyXvqTmc5PZhfEwY_pad-5"/><circle cx="0" cy="0" r="325" id="WxyxRyXvqTmc5PZhfEwY_pad-6"/><circle cx="0" cy="0" r="305" id="WxyxRyXvqTmc5PZhfEwY_pad-7"/><circle cx="0" cy="0" r="275" id="WxyxRyXvqTmc5PZhfEwY_pad-8"/><circle cx="0" cy="0" r="210" id="WxyxRyXvqTmc5PZhfEwY_pad-9"/><circle cx="0" cy="0" r="175" id="WxyxRyXvqTmc5PZhfEwY_pad-10"/></defs><g transform="translate(0,79225) scale(1,-1)" fill="currentColor" stroke="currentColor"><use xlink:href="#WxyxRyXvqTmc5PZhfEwY_pad-1" x="85530" y="50800"/><use xlink:href="#WxyxRyXvqTmc5PZhfEwY_pad-1" x="13530" y="50800"/><use xlink:href="#WxyxRyXvqTmc5PZhfEwY_pad-2" x="22280" y="65420"/><use xlink:href="#WxyxRyXvqTmc5PZhfEwY_pad-3" x="73660" y="39370"/><use xlink:href="#WxyxRyXvqTmc5PZhfEwY_pad-3" x="76200" y="39370"/><use xlink:href="#WxyxRyXvqTmc5PZhfEwY_pad-3" x="78740" y="39370"/><use xlink:href="#WxyxRyXvqTmc5PZhfEwY_pad-3" x="78740" y="19050"/><use xlink:href="#WxyxRyXvqTmc5PZhfEwY_pad-3" x="76200" y="19050"/><use xlink:href="#WxyxRyXvqTmc5PZhfEwY_pad-3" x="73660" y="19050"/><use xlink:href="#WxyxRyXvqTmc5PZhfEwY_pad-3" x="71120" y="19050"/><use xlink:href="#WxyxRyXvqTmc5PZhfEwY_pad-3" x="68580" y="19050"/><use xlink:href="#WxyxRyXvqTmc5PZhfEwY_pad-3" x="66040" y="19050"/><use xlink:href="#WxyxRyXvqTmc5PZhfEwY_pad-3" x="63500" y="19050"/><use xlink:href="#WxyxRyXvqTmc5PZhfEwY_pad-3" x="60960" y="19050"/><use xlink:href="#WxyxRyXvqTmc5PZhfEwY_pad-3" x="58420" y="19050"/><use xlink:href="#WxyxRyXvqTmc5PZhfEwY_pad-3" x="55880" y="19050"/><use xlink:href="#WxyxRyXvqTmc5PZhfEwY_pad-3" x="53340" y="19050"/><use xlink:href="#WxyxRyXvqTmc5PZhfEwY_pad-3" x="50800" y="19050"/><use xlink:href="#WxyxRyXvqTmc5PZhfEwY_pad-3" x="48260" y="19050"/><use xlink:href="#WxyxRyXvqTmc5PZhfEwY_pad-3" x="45720" y="19050"/><use xlink:href="#WxyxRyXvqTmc5PZhfEwY_pad-3" x="43180" y="19050"/><use xlink:href="#WxyxRyXvqTmc5PZhfEwY_pad-3" x="43180" y="39370"/><use xlink:href="#WxyxRyXvqTmc5PZhfEwY_pad-3" x="45720" y="39370"/><use xlink:href="#WxyxRyXvqTmc5PZhfEwY_pad-3" x="48260" y="39370"/><use xlink:href="#WxyxRyXvqTmc5PZhfEwY_pad-3" x="50800" y="39370"/><use xlink:href="#WxyxRyXvqTmc5PZhfEwY_pad-3" x="53340" y="39370"/><use xlink:href="#WxyxRyXvqTmc5PZhfEwY_pad-3" x="55880" y="39370"/><use xlink:href="#WxyxRyXvqTmc5PZhfEwY_pad-3" x="58420" y="39370"/><use xlink:href="#WxyxRyXvqTmc5PZhfEwY_pad-3" x="60960" y="39370"/><use xlink:href="#WxyxRyXvqTmc5PZhfEwY_pad-3" x="63500" y="39370"/><use xlink:href="#WxyxRyXvqTmc5PZhfEwY_pad-3" x="66040" y="39370"/><use xlink:href="#WxyxRyXvqTmc5PZhfEwY_pad-3" x="68580" y="39370"/><use xlink:href="#WxyxRyXvqTmc5PZhfEwY_pad-3" x="59690" y="46990"/><use xlink:href="#WxyxRyXvqTmc5PZhfEwY_pad-3" x="62230" y="46990"/><use xlink:href="#WxyxRyXvqTmc5PZhfEwY_pad-3" x="64770" y="46990"/><use xlink:href="#WxyxRyXvqTmc5PZhfEwY_pad-3" x="71120" y="39370"/><use xlink:href="#WxyxRyXvqTmc5PZhfEwY_pad-3" x="34290" y="26670"/><use xlink:href="#WxyxRyXvqTmc5PZhfEwY_pad-3" x="31750" y="26670"/><use xlink:href="#WxyxRyXvqTmc5PZhfEwY_pad-3" x="67310" y="46990"/><use xlink:href="#WxyxRyXvqTmc5PZhfEwY_pad-3" x="69850" y="46990"/><use xlink:href="#WxyxRyXvqTmc5PZhfEwY_pad-3" x="72390" y="46990"/><use xlink:href="#WxyxRyXvqTmc5PZhfEwY_pad-3" x="34290" y="40640"/><use xlink:href="#WxyxRyXvqTmc5PZhfEwY_pad-3" x="31750" y="40640"/><use xlink:href="#WxyxRyXvqTmc5PZhfEwY_pad-3" x="29210" y="40640"/><use xlink:href="#WxyxRyXvqTmc5PZhfEwY_pad-3" x="26670" y="40640"/><use xlink:href="#WxyxRyXvqTmc5PZhfEwY_pad-3" x="36830" y="26670"/><use xlink:href="#WxyxRyXvqTmc5PZhfEwY_pad-3" x="22280" y="58420"/><use xlink:href="#WxyxRyXvqTmc5PZhfEwY_pad-3" x="76780" y="58420"/><use xlink:href="#WxyxRyXvqTmc5PZhfEwY_pad-3" x="19050" y="26670"/><use xlink:href="#WxyxRyXvqTmc5PZhfEwY_pad-3" x="21590" y="26670"/><use xlink:href="#WxyxRyXvqTmc5PZhfEwY_pad-3" x="24130" y="26670"/><use xlink:href="#WxyxRyXvqTmc5PZhfEwY_pad-3" x="26670" y="26670"/><use xlink:href="#WxyxRyXvqTmc5PZhfEwY_pad-3" x="29210" y="26670"/><use xlink:href="#WxyxRyXvqTmc5PZhfEwY_pad-4" x="6731" y="49935"/><use xlink:href="#WxyxRyXvqTmc5PZhfEwY_pad-4" x="6731" y="52935"/><use xlink:href="#WxyxRyXvqTmc5PZhfEwY_pad-5" x="43735" y="14605"/><use xlink:href="#WxyxRyXvqTmc5PZhfEwY_pad-5" x="25700" y="31750"/><use xlink:href="#WxyxRyXvqTmc5PZhfEwY_pad-5" x="90551" y="54340"/><use xlink:href="#WxyxRyXvqTmc5PZhfEwY_pad-5" x="90551" y="52340"/><use xlink:href="#WxyxRyXvqTmc5PZhfEwY_pad-5" x="21700" y="31750"/><use xlink:href="#WxyxRyXvqTmc5PZhfEwY_pad-5" x="86995" y="52340"/><use xlink:href="#WxyxRyXvqTmc5PZhfEwY_pad-5" x="86995" y="54340"/><use xlink:href="#WxyxRyXvqTmc5PZhfEwY_pad-5" x="36100" y="31750"/><use xlink:href="#WxyxRyXvqTmc5PZhfEwY_pad-5" x="34100" y="31750"/><use xlink:href="#WxyxRyXvqTmc5PZhfEwY_pad-5" x="23700" y="31750"/><use xlink:href="#WxyxRyXvqTmc5PZhfEwY_pad-5" x="27700" y="31750"/><use xlink:href="#WxyxRyXvqTmc5PZhfEwY_pad-5" x="19700" y="31750"/><use xlink:href="#WxyxRyXvqTmc5PZhfEwY_pad-5" x="41735" y="14605"/><use xlink:href="#WxyxRyXvqTmc5PZhfEwY_pad-5" x="33735" y="14605"/><use xlink:href="#WxyxRyXvqTmc5PZhfEwY_pad-5" x="37735" y="14605"/><use xlink:href="#WxyxRyXvqTmc5PZhfEwY_pad-5" x="53975" y="55675"/><use xlink:href="#WxyxRyXvqTmc5PZhfEwY_pad-5" x="56475" y="55675"/><use xlink:href="#WxyxRyXvqTmc5PZhfEwY_pad-5" x="92964" y="54340"/><use xlink:href="#WxyxRyXvqTmc5PZhfEwY_pad-5" x="15240" y="24400"/><use xlink:href="#WxyxRyXvqTmc5PZhfEwY_pad-5" x="15240" y="26400"/><use xlink:href="#WxyxRyXvqTmc5PZhfEwY_pad-5" x="32100" y="38100"/><use xlink:href="#WxyxRyXvqTmc5PZhfEwY_pad-5" x="34100" y="38100"/><use xlink:href="#WxyxRyXvqTmc5PZhfEwY_pad-5" x="36100" y="38100"/><use xlink:href="#WxyxRyXvqTmc5PZhfEwY_pad-5" x="21700" y="38100"/><use xlink:href="#WxyxRyXvqTmc5PZhfEwY_pad-5" x="23700" y="38100"/><use xlink:href="#WxyxRyXvqTmc5PZhfEwY_pad-5" x="25700" y="38100"/><use xlink:href="#WxyxRyXvqTmc5PZhfEwY_pad-5" x="19700" y="38100"/><use xlink:href="#WxyxRyXvqTmc5PZhfEwY_pad-5" x="65135" y="14605"/><use xlink:href="#WxyxRyXvqTmc5PZhfEwY_pad-5" x="63135" y="14605"/><use xlink:href="#WxyxRyXvqTmc5PZhfEwY_pad-5" x="56475" y="52275"/><use xlink:href="#WxyxRyXvqTmc5PZhfEwY_pad-5" x="90170" y="30845"/><use xlink:href="#WxyxRyXvqTmc5PZhfEwY_pad-5" x="90170" y="26845"/><use xlink:href="#WxyxRyXvqTmc5PZhfEwY_pad-5" x="90170" y="28845"/><use xlink:href="#WxyxRyXvqTmc5PZhfEwY_pad-5" x="90170" y="32845"/><use xlink:href="#WxyxRyXvqTmc5PZhfEwY_pad-5" x="39735" y="14605"/><use xlink:href="#WxyxRyXvqTmc5PZhfEwY_pad-5" x="35735" y="14605"/><use xlink:href="#WxyxRyXvqTmc5PZhfEwY_pad-5" x="53975" y="52275"/><use xlink:href="#WxyxRyXvqTmc5PZhfEwY_pad-5" x="51475" y="52275"/><use xlink:href="#WxyxRyXvqTmc5PZhfEwY_pad-5" x="51475" y="55675"/><use xlink:href="#WxyxRyXvqTmc5PZhfEwY_pad-5" x="49530" y="49530"/><use xlink:href="#WxyxRyXvqTmc5PZhfEwY_pad-5" x="51530" y="49530"/><use xlink:href="#WxyxRyXvqTmc5PZhfEwY_pad-5" x="47530" y="49530"/><use xlink:href="#WxyxRyXvqTmc5PZhfEwY_pad-5" x="92964" y="52340"/><use xlink:href="#WxyxRyXvqTmc5PZhfEwY_pad-6" x="78486" y="12700"/><use xlink:href="#WxyxRyXvqTmc5PZhfEwY_pad-6" x="73406" y="12700"/><use xlink:href="#WxyxRyXvqTmc5PZhfEwY_pad-6" x="75946" y="12700"/><use xlink:href="#WxyxRyXvqTmc5PZhfEwY_pad-7" x="64770" y="62357"/><use xlink:href="#WxyxRyXvqTmc5PZhfEwY_pad-7" x="62230" y="64897"/><use xlink:href="#WxyxRyXvqTmc5PZhfEwY_pad-7" x="59690" y="62357"/><use xlink:href="#WxyxRyXvqTmc5PZhfEwY_pad-8" x="42545" y="34925"/><use xlink:href="#WxyxRyXvqTmc5PZhfEwY_pad-8" x="41275" y="33655"/><use xlink:href="#WxyxRyXvqTmc5PZhfEwY_pad-8" x="41275" y="36195"/><use xlink:href="#WxyxRyXvqTmc5PZhfEwY_pad-8" x="49530" y="29835"/><use xlink:href="#WxyxRyXvqTmc5PZhfEwY_pad-8" x="49530" y="28585"/><use xlink:href="#WxyxRyXvqTmc5PZhfEwY_pad-9" x="57475" y="54975"/><use xlink:href="#WxyxRyXvqTmc5PZhfEwY_pad-9" x="57475" y="52975"/><use xlink:href="#WxyxRyXvqTmc5PZhfEwY_pad-9" x="50475" y="54975"/><use xlink:href="#WxyxRyXvqTmc5PZhfEwY_pad-9" x="50475" y="52975"/><use xlink:href="#WxyxRyXvqTmc5PZhfEwY_pad-10" x="52578" y="60960"/><use xlink:href="#WxyxRyXvqTmc5PZhfEwY_pad-10" x="59055" y="65405"/><use xlink:href="#WxyxRyXvqTmc5PZhfEwY_pad-10" x="63500" y="66040"/><use xlink:href="#WxyxRyXvqTmc5PZhfEwY_pad-10" x="31750" y="64135"/><use xlink:href="#WxyxRyXvqTmc5PZhfEwY_pad-10" x="39910" y="41910"/><use xlink:href="#WxyxRyXvqTmc5PZhfEwY_pad-10" x="55880" y="32385"/><use xlink:href="#WxyxRyXvqTmc5PZhfEwY_pad-10" x="52578" y="58420"/><use xlink:href="#WxyxRyXvqTmc5PZhfEwY_pad-10" x="58420" y="58420"/><use xlink:href="#WxyxRyXvqTmc5PZhfEwY_pad-10" x="62230" y="58420"/><use xlink:href="#WxyxRyXvqTmc5PZhfEwY_pad-10" x="62230" y="60960"/><use xlink:href="#WxyxRyXvqTmc5PZhfEwY_pad-10" x="66040" y="58420"/><use xlink:href="#WxyxRyXvqTmc5PZhfEwY_pad-10" x="58420" y="33655"/><use xlink:href="#WxyxRyXvqTmc5PZhfEwY_pad-10" x="66040" y="60960"/><use xlink:href="#WxyxRyXvqTmc5PZhfEwY_pad-10" x="66040" y="66040"/><use xlink:href="#WxyxRyXvqTmc5PZhfEwY_pad-10" x="31750" y="62230"/><use xlink:href="#WxyxRyXvqTmc5PZhfEwY_pad-10" x="10160" y="48819"/><use xlink:href="#WxyxRyXvqTmc5PZhfEwY_pad-10" x="10160" y="50241"/><use xlink:href="#WxyxRyXvqTmc5PZhfEwY_pad-10" x="60960" y="63500"/><use xlink:href="#WxyxRyXvqTmc5PZhfEwY_pad-10" x="66040" y="63500"/><use xlink:href="#WxyxRyXvqTmc5PZhfEwY_pad-10" x="47625" y="57785"/><use xlink:href="#WxyxRyXvqTmc5PZhfEwY_pad-10" x="47625" y="66675"/><use xlink:href="#WxyxRyXvqTmc5PZhfEwY_pad-10" x="38100" y="64135"/><use xlink:href="#WxyxRyXvqTmc5PZhfEwY_pad-10" x="38100" y="58420"/><use xlink:href="#WxyxRyXvqTmc5PZhfEwY_pad-10" x="31750" y="60325"/><use xlink:href="#WxyxRyXvqTmc5PZhfEwY_pad-10" x="52197" y="13970"/><use xlink:href="#WxyxRyXvqTmc5PZhfEwY_pad-10" x="22860" y="62230"/><use xlink:href="#WxyxRyXvqTmc5PZhfEwY_pad-10" x="51435" y="23495"/><use xlink:href="#WxyxRyXvqTmc5PZhfEwY_pad-10" x="48935" y="64135"/><use xlink:href="#WxyxRyXvqTmc5PZhfEwY_pad-10" x="24130" y="59690"/><use xlink:href="#WxyxRyXvqTmc5PZhfEwY_pad-10" x="54610" y="35560"/><use xlink:href="#WxyxRyXvqTmc5PZhfEwY_pad-10" x="40265" y="20320"/><use xlink:href="#WxyxRyXvqTmc5PZhfEwY_pad-10" x="52705" y="26035"/><use xlink:href="#WxyxRyXvqTmc5PZhfEwY_pad-10" x="53340" y="31115"/><use xlink:href="#WxyxRyXvqTmc5PZhfEwY_pad-10" x="67310" y="29210"/><use xlink:href="#WxyxRyXvqTmc5PZhfEwY_pad-10" x="53340" y="33655"/><use xlink:href="#WxyxRyXvqTmc5PZhfEwY_pad-10" x="62992" y="30734"/><use xlink:href="#WxyxRyXvqTmc5PZhfEwY_pad-10" x="24130" y="64770"/></g></svg>