<svg version="1.1" xmlns="http://www.w3.org/2000/svg" xmlns:xlink="http://www.w3.org/1999/xlink" stroke-linecap="round" stroke-linejoin="round" stroke-width="0" fill-rule="evenodd" width="89mm" height="57mm" viewBox="5030.1 10870.2 89000 57000" id="nQ_A6vY2g-p57kGH2GgG"><g transform="translate(0,78740.4) scale(1,-1)" fill="currentColor" stroke="currentColor"><path d="M 5030.1 20171.9 5033.4 20139.2 5039.9 20107 5046.5 20075.1 5056.3 20043.9 5068.9 20014.8 5081.1 19985.4 5096.4 19957.6 5114.2 19931.6 5132.2 19905.3 5152.4 19881.2 5174.8 19858.8 5197 19836.9 5221.5 19816.6 5248 19798.8 5274.4 19781.3 5302.3 19766.1 5331.9 19753.9 5361.5 19741.3 5392.5 19731.5 5424.9 19725.1 5456.9 19718.7 5490.4 19715.3 6565.6 19715.3 7098.7 19660.2 7613.8 19555.4 8128.6 19450.5 8625.2 19296.2 9098.4 19097.4 9571.8 18898.3 10021.4 18654.9 10442.5 18372.2 10863.2 18089.7 11255.4 17767.8 11613.3 17412.2 11971.1 17056.5 12295.1 16666.9 12579.2 16248.7 12863.7 15830.1 13108.7 15383.2 13308.7 14913 13509 14442.7 13664.4 13949.1 13769.6 13437.5 13875.2 12925.5 13930.3 12395.7 13930.3 11327 13933.8 11294.3 13940.7 11262.2 13947 11230.2 13956.7 11199.2 13969.3 11169.9 13981.8 11140.6 13997.2 11112.4 14014.9 11086.5 14032.7 11060.3 14053 11035.9 14075.2 11013.5 14097.6 10991.4 14122.2 10971.5 14148.4 10953.5 14174.6 10936 14203 10920.8 14232.6 10908.8 14262.3 10896 14293.3 10886.4 14325.3 10879.8 14357.7 10873.6 14390.6 10870.2 84669.4 10870.2 84702.8 10873.6 84735.2 10879.8 84767.6 10886.4 84798.6 10896 84828.2 10908.8 84857.8 10920.8 84886.1 10936 84912.3 10953.5 84938.8 10971.8 84963.3 10991.4 84985.7 11013.8 85008 11035.9 85028.4 11060.3 85045.9 11086.9 85063.5 11112.7 85079 11140.6 85091.4 11169.9 85103.8 11199.5 85113.8 11230.2 85120.4 11262.6 85126.6 11294.3 85130 11327.3 85130 12395.7 85185.5 12925.5 85290.9 13437.5 85396.3 13949.4 85552 14443.1 85951.7 15383.6 86196.9 15830.4 86481.2 16249 86765.7 16667.2 87089.6 17056.9 87447.5 17412.2 87805.1 17768.1 88197.2 18089.7 88618.5 18372.6 89039.2 18654.9 89488.7 18898.3 89962.1 19097.4 90435.1 19296.2 90932.2 19450.5 91446.9 19555.4 91962.3 19660.2 92495.3 19715.3 93570.1 19715.3 93603.6 19718.7 93635.9 19725.1 93668 19731.5 93699 19741.3 93728.6 19753.9 93758.3 19766.1 93786.2 19781.3 93812.7 19799.2 93838.9 19816.9 93863.3 19836.9 93885.7 19859.1 93908.1 19881.5 93928.1 19906 93946 19932 93963.6 19958 93979.1 19986.1 93991.1 20015.5 94003.9 20044.6 94013.9 20075.8 94020.1 20107.7 94026.6 20139.9 94030.1 20172.6 94030.1 58568.2 94026.6 58601.3 94020.1 58633.5 94013.9 58665.4 94003.9 58696.2 93991.1 58725.7 93979.1 58755.1 93963.6 58782.9 93946 58809.2 93928.1 58835.2 93908.1 58859.3 93885.7 58881.7 93863.3 58904 93838.9 58923.9 93812.7 58941.7 93786.2 58959.3 93758.3 58974.4 93728.6 58986.6 93699 58999.2 93668 59009 93635.9 59015.4 93603.6 59021.8 93570.1 59025.2 92495.3 59025.2 91962.3 59080.2 91446.9 59185.1 90932.2 59289.6 90435.1 59444.3 89962.1 59643.1 89488.7 59841.9 89039.2 60085.6 88618.5 60368 88197.2 60650.8 87805.1 60972.7 87447.5 61328.3 87089.6 61683.6 86765.7 62073.5 86481.2 62491.9 86196.9 62910.1 85951.7 63356.9 85552 64297.4 85396.3 64791.5 85290.9 65303.1 85185.5 65815 85130 66344.9 85130 67413 85126.6 67446.3 85120.4 67478.3 85113.8 67510.2 85103.8 67541 85091.4 67570.4 85079 67599.9 85063.5 67627.6 85045.9 67654.2 85028.4 67680.2 85008 67704.3 84985.7 67726.5 84963.3 67748.9 84938.8 67768.9 84912.3 67786.5 84886.1 67804 84857.8 67819.4 84828.2 67831.6 84798.6 67844 84767.6 67853.8 84735.2 67860.4 84702.8 67866.7 84669.4 67870.2 14390.9 67870.2 14357.7 67866.7 14325.7 67860.4 14293.3 67853.8 14262.3 67844 14232.6 67831.6 14203 67819.4 14174.9 67804 14148.4 67786.5 14122.2 67768.9 14097.6 67748.9 14053 67704.3 14032.7 67680.2 14014.9 67654.2 13997.2 67627.6 13981.8 67599.9 13969.3 67570.4 13956.7 67541 13947 67510.2 13940.7 67478.3 13933.8 67446.3 13930.3 67413 13930.3 66344.9 13875.2 65815 13769.6 65303.1 13664.4 64791.5 13509 64297.4 13308.7 63827.2 13108.7 63356.9 12863.7 62910.1 12579.2 62491.9 12295.1 62073.5 11971.1 61683.6 11613.3 61328.3 11255.4 60972.7 10863.2 60650.8 10442.5 60368 10021.4 60085.6 9571.8 59841.9 9098.4 59643.1 8625.2 59444.3 8128.6 59289.6 7613.8 59185.1 7098.7 59080.2 6565.6 59025.2 5490.4 59025.2 5456.9 59021.8 5424.9 59015.4 5392.5 59009 5361.5 58999.2 5331.9 58986.6 5302.3 58974.4 5274.4 58959.3 5248 58941.7 5221.5 58923.9 5197 58904 5174.8 58881.7 5152.4 58859.3 5132.2 58835.2 5114.2 58809.2 5096.4 58782.9 5081.1 58755.1 5068.9 58725.7 5056.3 58696.2 5046.5 58665.4 5039.9 58633.5 5033.4 58601.3 5030.1 58568.2 5030.1 20171.9 M 87834.7 39266.7 87845.8 39165.8 87865.4 39067.8 87885.4 38970.3 87914.7 38876.1 87952.6 38786.3 87990.8 38696.6 88037.3 38611.5 88091.1 38531.5 88144.8 38451.8 88206.8 38377.4 88274.3 38309.5 88342.2 38241.3 88416.6 38180.1 88496.2 38126.4 88576.1 38072.3 88661.6 38026 88751.5 37987.9 88841.4 37949.8 88935.5 37920.6 89033 37900.2 89130.8 37880.4 89232.1 37870.1 89639.3 37870.1 89739.9 37880.4 89837.7 37900.2 89935.2 37920.6 90029.3 37949.8 90119.2 37987.9 90208.8 38026 90294.2 38072.3 90373.8 38126.4 90453.7 38180.1 90528.1 38241.3 90596 38309.5 90663.5 38377.4 90725.2 38451.8 90778.9 38531.5 90833 38611.5 90879.5 38696.6 90917.4 38786.3 90955.7 38876.1 90984.9 38970.3 91005.3 39067.8 91024.9 39165.8 91035.2 39266.7 91035.2 39473.8 91024.9 39574.7 91005.3 39672.4 90984.9 39769.9 90955.7 39864.1 90917.4 39953.9 90879.5 40043.6 90833 40128.7 90778.9 40208.6 90725.2 40288.4 90663.5 40362.8 90596 40430.7 90528.1 40498.4 90453.7 40559.5 90373.8 40613.8 90294.2 40667.9 90208.8 40714.2 90119.2 40752.3 90029.3 40790.3 89935.2 40819.6 89837.7 40839.9 89739.9 40859.7 89639.3 40870.1 89232.1 40870.1 89130.8 40859.7 89033 40839.9 88935.5 40819.6 88841.4 40790.3 88751.5 40752.3 88661.6 40714.2 88576.1 40667.9 88496.2 40613.8 88416.6 40559.5 88342.2 40498.4 88274.3 40430.7 88206.8 40362.8 88144.8 40288.4 88091.1 40208.6 88037.3 40128.7 87990.8 40043.6 87952.6 39953.9 87914.7 39864.1 87885.4 39769.9 87865.4 39672.4 87845.8 39574.7 87834.7 39473.8 87834.7 39266.7 M 83209 59281.2 83219.4 59180.6 83239.7 59082.8 83259.7 58985.1 83288.9 58891.2 83326.8 58801.6 83365.1 58712.2 83410.9 58626.8 83465.3 58546.9 83519.1 58466.8 83580.4 58392.4 83648.6 58325 83716.8 58257.5 83790.9 58195.5 83870.5 58141.7 83950.4 58088 84035.2 58041 84125.8 58003.2 84215 57965.3 84309.7 57935.7 84407.2 57915.7 84504.4 57895.8 84605.7 57885.4 84812.4 57885.4 84913.7 57895.8 85010.8 57915.7 85108.3 57935.7 85203 57965.3 85292.3 58003.2 85382.9 58041 85467.6 58088 85547.5 58141.7 85627.1 58195.5 85701.2 58257.5 85769.4 58325 85837.6 58392.4 85898.9 58466.8 85952.7 58546.9 86007.1 58626.8 86052.9 58712.2 86091.2 58801.6 86129.1 58891.2 86158.4 58985.1 86178.3 59082.8 86198.7 59180.6 86209 59281.2 86209 59487.7 86198.7 59589 86178.3 59687 86158.4 59784.2 86129.1 59879.3 86091.2 59968.8 86052.9 60058.2 86007.1 60143.9 85952.7 60223.6 85898.9 60303.7 85837.6 60378.1 85769.4 60445.5 85701.2 60513 85627.1 60575 85547.5 60628.7 85467.6 60682.5 85382.9 60729.5 85292.3 60767.2 85203 60805.1 85108.3 60834.9 85010.8 60854.7 84913.7 60874.7 84812.4 60885.1 84605.7 60885.1 84504.4 60874.7 84407.2 60854.7 84309.7 60834.9 84215 60805.1 84125.8 60767.2 84035.2 60729.5 83950.4 60682.5 83870.5 60628.7 83790.9 60575 83716.8 60513 83648.6 60445.5 83580.4 60378.1 83519.1 60303.7 83465.3 60223.6 83410.9 60143.9 83365.1 60058.2 83326.8 59968.8 83288.9 59879.3 83259.7 59784.2 83239.7 59687 83219.4 59589 83209 59487.7 83209 59281.2 M 83209 19252.4 83219.4 19151.2 83239.7 19053.1 83259.7 18956 83288.9 18861.8 83326.8 18772 83365.1 18681.9 83410.9 18597.2 83465.3 18517.1 83519.1 18437.3 83580.4 18362.9 83648.6 18294.7 83716.8 18227.2 83790.9 18165.7 83870.5 18111.4 83950.4 18057.7 84035.2 18010.7 84125.8 17972.9 84215 17935 84309.7 17905.2 84407.2 17885.4 84504.4 17865.4 84605.7 17855.1 84812.4 17855.1 84913.7 17865.4 85010.8 17885.4 85108.3 17905.2 85203 17935 85292.3 17972.9 85382.9 18010.7 85467.6 18057.7 85547.5 18111.4 85627.1 18165.7 85701.2 18227.2 85769.4 18294.7 85837.6 18362.9 85898.9 18437.3 85952.7 18517.1 86007.1 18597.2 86052.9 18681.9 86091.2 18772 86129.1 18861.8 86158.4 18956 86178.3 19053.1 86198.7 19151.2 86209 19252.4 86209 19459 86198.7 19560.3 86178.3 19657.4 86158.4 19755.1 86129.1 19849.6 86091.2 19939 86052.9 20028.8 86007.1 20114.2 85952.7 20194 85898.9 20273.4 85837.6 20347.8 85769.4 20416 85701.2 20483.4 85627.1 20544.7 85547.5 20598.4 85467.6 20652.2 85382.9 20699.2 85292.3 20736.9 85203 20774.8 85108.3 20804.6 85010.8 20824.4 84913.7 20844.4 84812.4 20854.8 84605.7 20854.8 84504.4 20844.4 84407.2 20824.4 84309.7 20804.6 84215 20774.8 84125.8 20736.9 84035.2 20699.2 83950.4 20652.2 83870.5 20598.4 83790.9 20544.7 83716.8 20483.4 83648.6 20416 83580.4 20347.8 83519.1 20273.4 83465.3 20194 83410.9 20114.2 83365.1 20028.8 83326.8 19939 83288.9 19849.6 83259.7 19755.1 83239.7 19657.4 83219.4 19560.3 83209 19459 83209 19252.4 M 69733.9 61579.4 69744.5 61478.1 69764.5 61380.3 69784.2 61282.8 69814.1 61188.8 69851.7 61098.8 69889.6 61008.9 69936.4 60923.5 69990.2 60843.6 70044.3 60764 70105.9 60689.6 70173.8 60621.7 70241.7 60554.2 70316.1 60492.2 70395.7 60438.4 70475.6 60384.7 70560.3 60338.2 70649.9 60299.9 70739.8 60262 70833.9 60232.7 70932.1 60213.1 71029.6 60193.1 71130.8 60182.1 71337.6 60182.1 71438.5 60193.1 71536.7 60213.1 71633.8 60232.7 71728.2 60262 71817.8 60299.9 71907.4 60338.2 71992.8 60384.7 72072.7 60438.4 72123.7 60472.9 72172.6 60510.8 72218.8 60551.1 72219.5 60552.1 73018.8 61252.1 73022.6 61254.9 73047.4 61276.6 73071.5 61299 73095.2 61322.4 73163.5 61389.9 73224.1 61464.4 73277.8 61544.3 73332.3 61624.2 73378.4 61709.6 73416.3 61799.2 73454.2 61889.5 73483.8 61983.2 73503.8 62081 73523.8 62178.5 73534.1 62279.8 73534.1 62486.5 73523.8 62587.8 73503.8 62685.3 73483.8 62782.8 73454.2 62877.2 73416.3 62966.8 73378.4 63056.2 73332.3 63141.8 73277.8 63221.5 73224.1 63300.9 73163.5 63375.4 73095.2 63443.2 73027 63510.9 72952.6 63572.6 72873 63626.3 72793.5 63680.4 72708 63726.8 72618.4 63764.8 72528.9 63802.9 72434.5 63832.2 72337.3 63852.5 72238.8 63872.3 72138.2 63882.6 71931.5 63882.6 71829.9 63872.3 71732.4 63852.5 71634.2 63832.2 71540.1 63802.9 71450.2 63764.8 71360.6 63726.8 71275.9 63680.4 71196 63626.3 71143.9 63591 71093.6 63552.4 71046.4 63510.9 71047.1 63511.1 70246.5 62810.5 70246.1 62810.4 70221.3 62788.7 70197.2 62766.3 70173.8 62742.8 70105.9 62675 70044.3 62600.6 69990.2 62521.1 69936.4 62441.4 69889.6 62355.8 69851.7 62266.4 69814.1 62176.8 69784.2 62082.4 69764.5 61984.9 69744.5 61887.4 69733.9 61786.1 69733.9 61579.4 M 12851 59281 12861.3 59180.6 12881.1 59082.6 12901.1 58984.9 12930.7 58891.2 12968.8 58801.5 13006.5 58712.1 13053.6 58626.6 13107.3 58546.7 13161.6 58466.6 13223.1 58392.2 13290.6 58324.8 13358.8 58257.3 13433.2 58195.3 13512.4 58141.6 13592.4 58087.8 13677.8 58040.8 13767.2 58003.1 13857 57965 13951.2 57935.4 14049.2 57915.4 14147 57895.6 14247.6 57885.2 14455.2 57885.2 14556.5 57895.6 14653.6 57915.4 14751.3 57935.4 14845 57965 14935.3 58003.1 15024.8 58040.8 15110.5 58087.8 15190.2 58141.6 15269.6 58195.3 15344 58257.3 15412.2 58324.8 15479.6 58392.2 15540.9 58466.6 15594.7 58546.7 15648.4 58626.6 15695.4 58712.1 15733.2 58801.5 15771.2 58891.2 15800.9 58984.9 15820.8 59082.6 15840.6 59180.6 15851 59281 15851 59487.7 15840.6 59589.2 15820.8 59687 15800.9 59784.2 15771.2 59879.3 15733.2 59969 15695.4 60058.4 15648.4 60143.9 15594.7 60223.8 15540.9 60303.9 15479.6 60378.3 15412.2 60445.6 15344 60513.2 15269.6 60575.2 15190.2 60628.9 15110.5 60682.7 15024.8 60729.7 14935.3 60767.4 14845 60805.5 14751.3 60835.1 14653.6 60855.1 14556.5 60874.9 14455.2 60885.2 14247.6 60885.2 14147 60874.9 14049.2 60855.1 13951.2 60835.1 13857 60805.5 13767.2 60767.4 13677.8 60729.7 13592.4 60682.7 13512.4 60628.9 13433.2 60575.2 13358.8 60513.2 13290.6 60445.6 13223.1 60378.3 13161.6 60303.9 13107.3 60223.8 13053.6 60143.9 13006.5 60058.4 12968.8 59969 12930.7 59879.3 12901.1 59784.2 12881.1 59687 12861.3 59589.2 12851 59487.7 12851 59281 M 12851 19252.3 12861.3 19151 12881.1 19053.1 12901.1 18956 12930.7 18861.6 12968.8 18772 13006.5 18681.8 13053.6 18597 13107.3 18516.9 13161.6 18437.2 13223.1 18362.7 13290.6 18294.5 13358.8 18227 13433.2 18165.5 13512.4 18111.2 13592.4 18057.5 13677.8 18010.5 13767.2 17972.8 13857 17934.7 13951.2 17905.1 14049.2 17885.1 14147 17865.3 14247.6 17854.9 14455.2 17854.9 14556.5 17865.3 14653.6 17885.1 14751.3 17905.1 14845 17934.7 14935.3 17972.8 15024.8 18010.5 15110.5 18057.5 15190.2 18111.2 15269.6 18165.5 15344 18227 15412.2 18294.5 15479.6 18362.7 15540.9 18437.2 15594.7 18516.9 15648.4 18597 15695.4 18681.8 15733.2 18772 15771.2 18861.6 15800.9 18956 15820.8 19053.1 15840.6 19151 15851 19252.3 15851 19459.1 15840.6 19560.4 15820.8 19657.6 15800.9 19755.2 15771.2 19849.8 15733.2 19939.2 15695.4 20028.8 15648.4 20114.4 15594.7 20194.2 15540.9 20273.6 15479.6 20348 15412.2 20416.2 15344 20483.5 15269.6 20544.9 15190.2 20598.6 15110.5 20652.4 15024.8 20699.4 14935.3 20737.1 14845 20775.2 14751.3 20804.8 14653.6 20824.8 14556.5 20844.6 14455.2 20854.9 14247.6 20854.9 14147 20844.6 14049.2 20824.8 13951.2 20804.8 13857 20775.2 13767.2 20737.1 13677.8 20699.4 13592.4 20652.4 13512.4 20598.6 13433.2 20544.9 13358.8 20483.5 13290.6 20416.2 13223.1 20348 13161.6 20273.6 13107.3 20194.2 13053.6 20114.4 13006.5 20028.8 12968.8 19939.2 12930.7 19849.8 12901.1 19755.2 12881.1 19657.6 12861.3 19560.4 12851 19459.1 12851 19252.3 M 25525.8 16253.8 25536.5 16152.5 25576.1 15957.5 25605.9 15863.1 25643.7 15773.6 25681.6 15684.3 25727.9 15598.6 25782.2 15519 25835.9 15439.4 25896.9 15365 25965.1 15297.1 26033.3 15229.6 26107.4 15167.6 26187.1 15113.8 26266.9 15060.1 26352.2 15013.6 26441.9 14975.3 26531.5 14937.5 26625.9 14908.2 26723 14887.8 26821.2 14867.9 26922.1 14857.5 27128.9 14857.5 27230.3 14867.9 27327.8 14887.8 27426 14908.2 27520 14937.5 27610 14975.3 27699.5 15013.6 27784.3 15060.1 27864.2 15113.8 27916.2 15149.3 27966.5 15187.9 28013.7 15229.6 28013 15229.3 28813.7 15929.6 28814 15930 28838.8 15951.7 28862.9 15974.1 28886.4 15997.5 28954.2 16065.4 29015.9 16139.8 29070 16219 29123.7 16299 29170.6 16384.4 29208.5 16474 29246 16563.5 29276 16657.9 29295.6 16755.4 29315.6 16852.9 29326.3 16954.2 29326.3 17160.9 29315.6 17262.2 29295.6 17360 29276 17457.5 29246 17551.6 29208.5 17641.5 29170.6 17731.4 29123.7 17816.9 29070 17896.8 29015.9 17976.4 28954.2 18050.8 28886.4 18118.7 28818.5 18186.2 28744.1 18248.2 28664.5 18301.9 28584.6 18355.7 28499.8 18402.2 28410.3 18440.4 28320.3 18478.3 28226.3 18507.6 28128.1 18527.2 28030.6 18547.2 27929.3 18558.2 27722.6 18558.2 27621.7 18547.2 27523.5 18527.2 27426.3 18507.6 27331.9 18478.3 27242.4 18440.4 27152.6 18402.2 27067.4 18355.7 26987.6 18301.9 26936.4 18267.5 26887.5 18229.6 26841.4 18189.3 26840.7 18188.2 26041.2 17488.2 26037.6 17485.4 26012.8 17463.7 25988.7 17441.3 25965.1 17417.9 25896.9 17350.4 25835.9 17276 25782.2 17196.1 25727.9 17116.1 25681.6 17030.7 25643.7 16941.1 25605.9 16850.9 25576.1 16757.2 25556.3 16659.3 25536.5 16561.8 25525.8 16460.5 25525.8 16253.8 M 25525.7 62279.5 25536.4 62178.2 25556.2 62080.7 25576 61982.8 25605.8 61889.1 25643.5 61798.9 25681.4 61709.3 25727.7 61623.9 25782 61543.9 25835.7 61464 25896.7 61389.6 25964.9 61322.1 25988.5 61298.6 26012.6 61276.3 26037.4 61254.6 26041.1 61251.8 26840.5 60551.8 26841.2 60550.7 26887.4 60510.4 26936.3 60472.5 26987.4 60438.1 27067.2 60384.3 27152.5 60337.8 27242.2 60299.6 27331.8 60261.7 27426.2 60232.4 27523.3 60212.8 27621.5 60192.8 27722.4 60181.7 27929.2 60181.7 28030.4 60192.8 28127.9 60212.8 28226.1 60232.4 28320.2 60261.7 28410.1 60299.6 28499.7 60337.8 28584.4 60384.3 28664.3 60438.1 28743.9 60491.8 28818.3 60553.8 28886.2 60621.3 28954.1 60689.2 29015.7 60763.6 29069.8 60843.2 29123.6 60923.1 29170.4 61008.6 29208.3 61098.5 29245.9 61188.4 29275.8 61282.5 29295.5 61380 29315.5 61477.8 29326.1 61579.1 29326.1 61785.8 29315.5 61887.1 29295.5 61984.6 29275.8 62082.1 29245.9 62176.5 29208.3 62266 29170.4 62355.4 29123.6 62441 29069.8 62520.8 29015.7 62600.2 28954.1 62674.6 28862.8 62765.9 28838.7 62788.3 28813.9 62810 28813.5 62810.2 28012.9 63510.7 28013.6 63510.6 27966.4 63552.1 27916.1 63590.7 27864 63626 27784.1 63680.1 27699.4 63726.4 27609.8 63764.5 27519.9 63802.5 27425.8 63831.8 27327.6 63852.2 27230.1 63872 27128.7 63882.3 26922 63882.3 26821 63872 26722.8 63852.2 26625.7 63831.8 26531.3 63802.5 26441.7 63764.5 26352 63726.4 26266.7 63680.1 26187 63626 26107.2 63572.2 26033.1 63510.6 25964.9 63442.9 25896.7 63375 25835.7 63300.6 25782 63221.2 25727.7 63141.4 25681.4 63055.8 25643.5 62966.4 25605.8 62876.8 25576 62782.5 25556.2 62685 25536.4 62587.5 25525.7 62486.2 25525.7 62279.5 M 8024.9 39266.7 8035.6 39165.8 8055.4 39067.8 8075.4 38970.3 8104.7 38876.1 8142.7 38786.3 8180.8 38696.6 8227.5 38611.5 8281.2 38531.5 8335 38451.8 8396.7 38377.4 8464.3 38309.5 8532.2 38241.3 8606.6 38180.1 8686.4 38126.4 8766.1 38072.3 8851.7 38026 8941.5 37987.9 9031.2 37949.8 9125.5 37920.6 9223.1 37900.2 9320.6 37880.4 9421.9 37870.1 9829.3 37870.1 9929.9 37880.4 10027.7 37900.2 10125.2 37920.6 10219.3 37949.8 10309.2 37987.9 10398.8 38026 10484.2 38072.3 10563.8 38126.4 10643.7 38180.1 10718.1 38241.3 10786 38309.5 10853.5 38377.4 10915.2 38451.8 10968.9 38531.5 11023 38611.5 11069.5 38696.6 11107.4 38786.3 11145.7 38876.1 11175 38970.3 11195.3 39067.8 11214.9 39165.8 11225.2 39266.7 11225.2 39473.8 11214.9 39574.7 11195.3 39672.4 11175 39769.9 11145.7 39864.1 11107.4 39953.9 11069.5 40043.6 11023 40128.7 10968.9 40208.6 10915.2 40288.4 10853.5 40362.8 10786 40430.7 10718.1 40498.4 10643.7 40559.5 10563.8 40613.8 10484.2 40667.9 10398.8 40714.2 10309.2 40752.3 10219.3 40790.3 10125.2 40819.6 10027.7 40839.9 9929.9 40859.7 9829.3 40870.1 9421.9 40870.1 9320.6 40859.7 9223.1 40839.9 9125.5 40819.6 9031.2 40790.3 8941.5 40752.3 8851.7 40714.2 8766.1 40667.9 8686.4 40613.8 8606.6 40559.5 8532.2 40498.4 8464.3 40430.7 8396.7 40362.8 8335 40288.4 8281.2 40208.6 8227.5 40128.7 8180.8 40043.6 8104.7 39864.1 8075.4 39769.9 8055.4 39672.4 8035.6 39574.7 8024.9 39473.8 8024.9 39266.7 M 17018 12909.6 17018 12998.4 17010.3 13086.7 16994.9 13174.1 16971.9 13259.8 16941.6 13343.2 16904.1 13423.6 16859.7 13500.4 16808.8 13573.1 16751.8 13641.1 16689.1 13703.8 16621.1 13760.8 16548.4 13811.7 16471.6 13856.1 16391.2 13893.6 16307.8 13923.9 16222.1 13946.9 16134.7 13962.3 16046.4 13970 15957.6 13970 15869.3 13962.3 15781.9 13946.9 15696.2 13923.9 15612.8 13893.6 15532.4 13856.1 15455.6 13811.7 15382.9 13760.8 15314.9 13703.8 15252.2 13641.1 15195.2 13573.1 15144.3 13500.4 15099.9 13423.6 15062.4 13343.2 15032.1 13259.8 15009.1 13174.1 14993.7 13086.7 14986 12998.4 14986 12909.6 14993.7 12821.3 15009.1 12733.9 15032.1 12648.2 15062.4 12564.8 15099.9 12484.4 15144.3 12407.6 15195.2 12334.9 15252.2 12266.9 15314.9 12204.2 15382.9 12147.2 15455.6 12096.3 15532.4 12051.9 15612.8 12014.4 15696.2 11984.1 15781.9 11961.1 15869.3 11945.7 15957.6 11938 16046.4 11938 16134.7 11945.7 16222.1 11961.1 16307.8 11984.1 16391.2 12014.4 16471.6 12051.9 16548.4 12096.3 16621.1 12147.2 16689.1 12204.2 16751.8 12266.9 16808.8 12334.9 16859.7 12407.6 16904.1 12484.4 16941.6 12564.8 16971.9 12648.2 16994.9 12733.9 17010.3 12821.3 17018 12909.6 M 17018 65741.6 17018 65830.4 17010.3 65918.7 16994.9 66006.1 16971.9 66091.8 16941.6 66175.2 16904.1 66255.6 16859.7 66332.4 16808.8 66405.1 16751.8 66473.1 16689.1 66535.8 16621.1 66592.8 16548.4 66643.7 16471.6 66688.1 16391.2 66725.6 16307.8 66755.9 16222.1 66778.9 16134.7 66794.3 16046.4 66802 15957.6 66802 15869.3 66794.3 15781.9 66778.9 15696.2 66755.9 15612.8 66725.6 15532.4 66688.1 15455.6 66643.7 15382.9 66592.8 15314.9 66535.8 15252.2 66473.1 15195.2 66405.1 15144.3 66332.4 15099.9 66255.6 15062.4 66175.2 15032.1 66091.8 15009.1 66006.1 14993.7 65918.7 14986 65830.4 14986 65741.6 14993.7 65653.3 15009.1 65565.9 15032.1 65480.2 15062.4 65396.8 15099.9 65316.4 15144.3 65239.6 15195.2 65166.9 15252.2 65098.9 15314.9 65036.2 15382.9 64979.2 15455.6 64928.3 15532.4 64883.9 15612.8 64846.4 15696.2 64816.1 15781.9 64793.1 15869.3 64777.7 15957.6 64770 16046.4 64770 16134.7 64777.7 16222.1 64793.1 16307.8 64816.1 16391.2 64846.4 16471.6 64883.9 16548.4 64928.3 16621.1 64979.2 16689.1 65036.2 16751.8 65098.9 16808.8 65166.9 16859.7 65239.6 16904.1 65316.4 16941.6 65396.8 16971.9 65480.2 16994.9 65565.9 17010.3 65653.3 17018 65741.6 M 84074 65741.6 84074 65830.4 84066.3 65918.7 84050.9 66006.1 84027.9 66091.8 83997.6 66175.2 83960.1 66255.6 83915.7 66332.4 83864.8 66405.1 83807.8 66473.1 83745.1 66535.8 83677.1 66592.8 83604.4 66643.7 83527.6 66688.1 83447.2 66725.6 83363.8 66755.9 83278.1 66778.9 83190.7 66794.3 83102.4 66802 83013.6 66802 82925.3 66794.3 82837.9 66778.9 82752.2 66755.9 82668.8 66725.6 82588.4 66688.1 82511.6 66643.7 82438.9 66592.8 82370.9 66535.8 82308.2 66473.1 82251.2 66405.1 82200.3 66332.4 82155.9 66255.6 82118.4 66175.2 82088.1 66091.8 82065.1 66006.1 82049.7 65918.7 82042 65830.4 82042 65741.6 82049.7 65653.3 82065.1 65565.9 82088.1 65480.2 82118.4 65396.8 82155.9 65316.4 82200.3 65239.6 82251.2 65166.9 82308.2 65098.9 82370.9 65036.2 82438.9 64979.2 82511.6 64928.3 82588.4 64883.9 82668.8 64846.4 82752.2 64816.1 82837.9 64793.1 82925.3 64777.7 83013.6 64770 83102.4 64770 83190.7 64777.7 83278.1 64793.1 83363.8 64816.1 83447.2 64846.4 83527.6 64883.9 83604.4 64928.3 83677.1 64979.2 83745.1 65036.2 83807.8 65098.9 83864.8 65166.9 83915.7 65239.6 83960.1 65316.4 83997.6 65396.8 84027.9 65480.2 84050.9 65565.9 84066.3 65653.3 84074 65741.6 M 84074 12909.6 84074 12998.4 84066.3 13086.7 84050.9 13174.1 84027.9 13259.8 83997.6 13343.2 83960.1 13423.6 83915.7 13500.4 83864.8 13573.1 83807.8 13641.1 83745.1 13703.8 83677.1 13760.8 83604.4 13811.7 83527.6 13856.1 83447.2 13893.6 83363.8 13923.9 83278.1 13946.9 83190.7 13962.3 83102.4 13970 83013.6 13970 82925.3 13962.3 82837.9 13946.9 82752.2 13923.9 82668.8 13893.6 82588.4 13856.1 82511.6 13811.7 82438.9 13760.8 82370.9 13703.8 82308.2 13641.1 82251.2 13573.1 82200.3 13500.4 82155.9 13423.6 82118.4 13343.2 82088.1 13259.8 82065.1 13174.1 82049.7 13086.7 82042 12998.4 82042 12909.6 82049.7 12821.3 82065.1 12733.9 82088.1 12648.2 82118.4 12564.8 82155.9 12484.4 82200.3 12407.6 82251.2 12334.9 82308.2 12266.9 82370.9 12204.2 82438.9 12147.2 82511.6 12096.3 82588.4 12051.9 82668.8 12014.4 82752.2 11984.1 82837.9 11961.1 82925.3 11945.7 83013.6 11938 83102.4 11938 83190.7 11945.7 83278.1 11961.1 83363.8 11984.1 83447.2 12014.4 83527.6 12051.9 83604.4 12096.3 83677.1 12147.2 83745.1 12204.2 83807.8 12266.9 83864.8 12334.9 83915.7 12407.6 83960.1 12484.4 83997.6 12564.8 84027.9 12648.2 84050.9 12733.9 84066.3 12821.3 84074 12909.6 M 23042 65382.6 23034.7 65308.1 23020.1 65234.6 22998.3 65163 22969.7 65093.8 22934.4 65027.8 22892.8 64965.5 22845.3 64907.7 22792.3 64854.7 22734.5 64807.2 22672.2 64765.6 22606.2 64730.3 22537 64701.7 22465.4 64679.9 22391.9 64665.3 22317.4 64658 22242.6 64658 22168.1 64665.3 22094.6 64679.9 22023 64701.7 21953.8 64730.3 21887.8 64765.6 21825.5 64807.2 21767.7 64854.7 21714.7 64907.7 21667.2 64965.5 21625.6 65027.8 21590.3 65093.8 21561.7 65163 21539.9 65234.6 21525.3 65308.1 21518 65382.6 21518 65457.4 21525.3 65531.9 21539.9 65605.4 21561.7 65677 21590.3 65746.2 21625.6 65812.2 21667.2 65874.5 21714.7 65932.3 21767.7 65985.3 21825.5 66032.8 21887.8 66074.4 21953.8 66109.7 22023 66138.3 22094.6 66160.1 22168.1 66174.7 22242.6 66182 22317.4 66182 22391.9 66174.7 22465.4 66160.1 22537 66138.3 22606.2 66109.7 22672.2 66074.4 22734.5 66032.8 22792.3 65985.3 22845.3 65932.3 22892.8 65874.5 22934.4 65812.2 22969.7 65746.2 22998.3 65677 23020.1 65605.4 23034.7 65531.9 23042 65457.4 23042 65382.6 M 6701.5 52485 6643 52492.7 6586 52508 6531.5 52530.5 6480.5 52560 6433.7 52595.9 6391.9 52637.7 6356 52684.5 6326.5 52735.5 6304 52790 6288.7 52847 6281 52905.5 6281 52964.5 6288.7 53023 6304 53080 6326.5 53134.5 6356 53185.5 6391.9 53232.3 6433.7 53274.1 6480.5 53310 6531.5 53339.5 6586 53362 6643 53377.3 6701.5 53385 6760.5 53385 6819 53377.3 6876 53362 6930.5 53339.5 6981.5 53310 7028.3 53274.1 7070.1 53232.3 7106 53185.5 7135.5 53134.5 7158 53080 7173.3 53023 7181 52964.5 7181 52905.5 7173.3 52847 7158 52790 7135.5 52735.5 7106 52684.5 7070.1 52637.7 7028.3 52595.9 6981.5 52560 6930.5 52530.5 6876 52508 6819 52492.7 6760.5 52485 6701.5 52485 M 6701.5 49485 6643 49492.7 6586 49508 6531.5 49530.5 6480.5 49560 6433.7 49595.9 6391.9 49637.7 6356 49684.5 6326.5 49735.5 6304 49790 6288.7 49847 6281 49905.5 6281 49964.5 6288.7 50023 6304 50080 6326.5 50134.5 6356 50185.5 6391.9 50232.3 6433.7 50274.1 6480.5 50310 6531.5 50339.5 6586 50362 6643 50377.3 6701.5 50385 6760.5 50385 6819 50377.3 6876 50362 6930.5 50339.5 6981.5 50310 7028.3 50274.1 7070.1 50232.3 7106 50185.5 7135.5 50134.5 7158 50080 7173.3 50023 7181 49964.5 7181 49905.5 7173.3 49847 7158 49790 7135.5 49735.5 7106 49684.5 7070.1 49637.7 7028.3 49595.9 6981.5 49560 6930.5 49530.5 6876 49508 6819 49492.7 6760.5 49485 6701.5 49485 M 57458.5 55185 57425.8 55179.8 57394.4 55169.6 57364.9 55154.6 57338.2 55135.2 57314.8 55111.8 57295.4 55085.1 57280.4 55055.6 57270.2 55024.2 57265 54991.5 57265 54958.5 57270.2 54925.8 57280.4 54894.4 57295.4 54864.9 57314.8 54838.2 57338.2 54814.8 57364.9 54795.4 57394.4 54780.4 57425.8 54770.2 57458.5 54765 57491.5 54765 57524.2 54770.2 57555.6 54780.4 57585.1 54795.4 57611.8 54814.8 57635.2 54838.2 57654.6 54864.9 57669.6 54894.4 57679.8 54925.8 57685 54958.5 57685 54991.5 57679.8 55024.2 57669.6 55055.6 57654.6 55085.1 57635.2 55111.8 57611.8 55135.2 57585.1 55154.6 57555.6 55169.6 57524.2 55179.8 57491.5 55185 57458.5 55185 M 57458.5 53185 57425.8 53179.8 57394.4 53169.6 57364.9 53154.6 57338.2 53135.2 57314.8 53111.8 57295.4 53085.1 57280.4 53055.6 57270.2 53024.2 57265 52991.5 57265 52958.5 57270.2 52925.8 57280.4 52894.4 57295.4 52864.9 57314.8 52838.2 57338.2 52814.8 57364.9 52795.4 57394.4 52780.4 57425.8 52770.2 57458.5 52765 57491.5 52765 57524.2 52770.2 57555.6 52780.4 57585.1 52795.4 57611.8 52814.8 57635.2 52838.2 57654.6 52864.9 57669.6 52894.4 57679.8 52925.8 57685 52958.5 57685 52991.5 57679.8 53024.2 57669.6 53055.6 57654.6 53085.1 57635.2 53111.8 57611.8 53135.2 57585.1 53154.6 57555.6 53169.6 57524.2 53179.8 57491.5 53185 57458.5 53185 M 50458.5 55185 50425.8 55179.8 50394.4 55169.6 50364.9 55154.6 50338.2 55135.2 50314.8 55111.8 50295.4 55085.1 50280.4 55055.6 50270.2 55024.2 50265 54991.5 50265 54958.5 50270.2 54925.8 50280.4 54894.4 50295.4 54864.9 50314.8 54838.2 50338.2 54814.8 50364.9 54795.4 50394.4 54780.4 50425.8 54770.2 50458.5 54765 50491.5 54765 50524.2 54770.2 50555.6 54780.4 50585.1 54795.4 50611.8 54814.8 50635.2 54838.2 50654.6 54864.9 50669.6 54894.4 50679.8 54925.8 50685 54958.5 50685 54991.5 50679.8 55024.2 50669.6 55055.6 50654.6 55085.1 50635.2 55111.8 50611.8 55135.2 50585.1 55154.6 50555.6 55169.6 50524.2 55179.8 50491.5 55185 50458.5 55185 M 50458.5 53185 50425.8 53179.8 50394.4 53169.6 50364.9 53154.6 50338.2 53135.2 50314.8 53111.8 50295.4 53085.1 50280.4 53055.6 50270.2 53024.2 50265 52991.5 50265 52958.5 50270.2 52925.8 50280.4 52894.4 50295.4 52864.9 50314.8 52838.2 50338.2 52814.8 50364.9 52795.4 50394.4 52780.4 50425.8 52770.2 50458.5 52765 50491.5 52765 50524.2 52770.2 50555.6 52780.4 50585.1 52795.4 50611.8 52814.8 50635.2 52838.2 50654.6 52864.9 50669.6 52894.4 50679.8 52925.8 50685 52958.5 50685 52991.5 50679.8 53024.2 50669.6 53055.6 50654.6 53085.1 50635.2 53111.8 50611.8 53135.2 50585.1 53154.6 50555.6 53169.6 50524.2 53179.8 50491.5 53185 50458.5 53185" fill="none" stroke-width="254"/></g></svg>