<svg version="1.1" xmlns="http://www.w3.org/2000/svg" xmlns:xlink="http://www.w3.org/1999/xlink" stroke-linecap="round" stroke-linejoin="round" stroke-width="0" fill-rule="evenodd" width="87.4487mm" height="55.8182mm" viewBox="6179.4 11963.4 87448.7 55818.2" id="FIVAaQEwh96uQZ4ZO_mr"><defs><rect x="-556.6" y="-711.6" width="1113.2" height="1423.2" id="FIVAaQEwh96uQZ4ZO_mr_pad-10"/><circle cx="0" cy="0" r="664.1" id="FIVAaQEwh96uQZ4ZO_mr_pad-11"/><circle cx="0" cy="0" r="609.6" id="FIVAaQEwh96uQZ4ZO_mr_pad-12"/><circle cx="0" cy="0" r="851.6" id="FIVAaQEwh96uQZ4ZO_mr_pad-13"/><circle cx="0" cy="0" r="863.6" id="FIVAaQEwh96uQZ4ZO_mr_pad-14"/><rect x="-751.6" y="-851.6" width="1503.2" height="1703.2" id="FIVAaQEwh96uQZ4ZO_mr_pad-15"/><rect x="-863.6" y="-863.6" width="1727.2" height="1727.2" id="FIVAaQEwh96uQZ4ZO_mr_pad-16"/><rect x="-901.6" y="-1001.6" width="1803.2" height="2003.2" id="FIVAaQEwh96uQZ4ZO_mr_pad-18"/><rect x="-1101.6" y="-1451.6" width="2203.2" height="2903.2" id="FIVAaQEwh96uQZ4ZO_mr_pad-19"/><rect x="-1851.6" y="-1151.6" width="3703.2" height="2303.2" id="FIVAaQEwh96uQZ4ZO_mr_pad-20"/><circle cx="0" cy="0" r="736.6" id="FIVAaQEwh96uQZ4ZO_mr_pad-21"/><rect x="-533.4" y="-482.6" width="1066.8" height="965.2" id="FIVAaQEwh96uQZ4ZO_mr_pad-22"/><rect x="-177.8" y="-482.6" width="355.6" height="965.2" id="FIVAaQEwh96uQZ4ZO_mr_pad-23"/><rect x="-419.1" y="-736.6" width="838.2" height="1473.2" id="FIVAaQEwh96uQZ4ZO_mr_pad-24"/><circle cx="0" cy="0" r="1414.1" id="FIVAaQEwh96uQZ4ZO_mr_pad-25"/><rect x="-851.6" y="-751.6" width="1703.2" height="1503.2" id="FIVAaQEwh96uQZ4ZO_mr_pad-26"/><circle cx="0" cy="0" r="551.6" id="FIVAaQEwh96uQZ4ZO_mr_pad-27"/><circle cx="0" cy="0" r="406.4" id="FIVAaQEwh96uQZ4ZO_mr_pad-28"/><circle cx="0" cy="0" r="311.6" id="FIVAaQEwh96uQZ4ZO_mr_pad-29"/><rect x="-482.6" y="-533.4" width="965.2" height="1066.8" id="FIVAaQEwh96uQZ4ZO_mr_pad-30"/><rect x="-482.6" y="-177.8" width="965.2" height="355.6" id="FIVAaQEwh96uQZ4ZO_mr_pad-31"/><rect x="-901.6" y="-851.6" width="1803.2" height="1703.2" id="FIVAaQEwh96uQZ4ZO_mr_pad-32"/><rect x="-401.6" y="-401.6" width="803.2" height="803.2" id="FIVAaQEwh96uQZ4ZO_mr_pad-33"/><circle cx="0" cy="0" r="479.8" id="FIVAaQEwh96uQZ4ZO_mr_pad-34"/></defs><g transform="translate(0,79745) scale(1,-1)" fill="currentColor" stroke="currentColor"><path d="M 40683.5 63127.8 40683.5 63127.8 40684.5 63128 40851.9 63497.3 41073.3 63836.7 41343.7 64138.3 41656.9 64395.3 42005.5 64601.7 42381.5 64752.7 42776 64844.7 43180 64875.6 43584 64844.7 43978.5 64752.7 44354.5 64601.7 44703.1 64395.3 45016.3 64138.3 45286.8 63836.7 45508.2 63497.3 45675.5 63128 45679.4 63125.9 45680 63125.1 46930 63125.1 46934.7 63128.7 46934.2 63129.4 46934.9 63130 46934.9 65980 46931.3 65984.7 46930.6 65984.2 46930 65984.9 39430 65984.9 39425.3 65981.3 39425.8 65980.6 39425.1 65980 39425.1 63130 39428.7 63125.3 39429.4 63125.8 39430 63125.1 40680 63125.1 40683.5 63127.8"/><path d="M 46934.7 58478.7 46934.7 58478.7 46934.2 58479.4 46934.9 58480 46934.9 61330 46931.3 61334.7 46930.6 61334.2 46930 61334.9 45680 61334.9 45676.5 61332.2 45675.5 61332 45508.2 60962.7 45286.8 60623.4 45016.3 60321.7 44703.1 60064.7 44354.5 59858.3 43978.5 59707.3 43584 59615.3 43180 59584.4 42776 59615.3 42381.5 59707.3 42005.5 59858.3 41656.9 60064.7 41343.7 60321.7 41073.3 60623.4 40851.9 60962.7 40684.5 61332 40680.6 61334.1 40680 61334.9 39430 61334.9 39425.3 61331.3 39425.8 61330.6 39425.1 61330 39425.1 58480 39428.7 58475.3 39429.4 58475.8 39430 58475.1 46930 58475.1 46934.7 58478.7"/><path d="M 56945.5 23099.9 56945.5 23099.9 56945.5 23100 56945.5 24500 56945.1 24500.5 56945 24500.5 55895 24500.5 55894.8 24500.3 55894.6 24500.4 55544.6 24150.4 55544.6 24150.1 55544.5 24150 55544.5 23100 55544.9 23099.5 55545 23099.5 56945 23099.5 56945.5 23099.9"/><path d="M 54945.5 23099.9 54945.5 23099.9 54945.5 23100 54945.5 24150 54945.3 24150.2 54945.4 24150.4 54595.4 24500.4 54595.1 24500.4 54595 24500.5 53545 24500.5 53544.5 24500.1 53544.5 24500 53544.5 23100 53544.9 23099.5 53545 23099.5 54945 23099.5 54945.5 23099.9"/><use xlink:href="#FIVAaQEwh96uQZ4ZO_mr_pad-10" x="92455" y="48260"/><use xlink:href="#FIVAaQEwh96uQZ4ZO_mr_pad-10" x="89155" y="48260"/><use xlink:href="#FIVAaQEwh96uQZ4ZO_mr_pad-11" x="90551" y="52340"/><use xlink:href="#FIVAaQEwh96uQZ4ZO_mr_pad-11" x="90551" y="54340"/><use xlink:href="#FIVAaQEwh96uQZ4ZO_mr_pad-12" x="49530" y="28585"/><use xlink:href="#FIVAaQEwh96uQZ4ZO_mr_pad-12" x="49530" y="29835"/><use xlink:href="#FIVAaQEwh96uQZ4ZO_mr_pad-13" x="22280" y="58420"/><use xlink:href="#FIVAaQEwh96uQZ4ZO_mr_pad-13" x="76780" y="58420"/><use xlink:href="#FIVAaQEwh96uQZ4ZO_mr_pad-14" x="22280" y="65420"/><use xlink:href="#FIVAaQEwh96uQZ4ZO_mr_pad-15" x="45405" y="26670"/><use xlink:href="#FIVAaQEwh96uQZ4ZO_mr_pad-15" x="47305" y="26670"/><use xlink:href="#FIVAaQEwh96uQZ4ZO_mr_pad-16" x="19050" y="26670"/><use xlink:href="#FIVAaQEwh96uQZ4ZO_mr_pad-14" x="21590" y="26670"/><use xlink:href="#FIVAaQEwh96uQZ4ZO_mr_pad-14" x="24130" y="26670"/><use xlink:href="#FIVAaQEwh96uQZ4ZO_mr_pad-14" x="26670" y="26670"/><use xlink:href="#FIVAaQEwh96uQZ4ZO_mr_pad-14" x="29210" y="26670"/><use xlink:href="#FIVAaQEwh96uQZ4ZO_mr_pad-14" x="31750" y="26670"/><use xlink:href="#FIVAaQEwh96uQZ4ZO_mr_pad-14" x="34290" y="26670"/><use xlink:href="#FIVAaQEwh96uQZ4ZO_mr_pad-14" x="36830" y="26670"/><use xlink:href="#FIVAaQEwh96uQZ4ZO_mr_pad-14" x="26670" y="40640"/><use xlink:href="#FIVAaQEwh96uQZ4ZO_mr_pad-14" x="29210" y="40640"/><use xlink:href="#FIVAaQEwh96uQZ4ZO_mr_pad-14" x="31750" y="40640"/><use xlink:href="#FIVAaQEwh96uQZ4ZO_mr_pad-14" x="34290" y="40640"/><use xlink:href="#FIVAaQEwh96uQZ4ZO_mr_pad-15" x="45405" y="33020"/><use xlink:href="#FIVAaQEwh96uQZ4ZO_mr_pad-15" x="47305" y="33020"/><use xlink:href="#FIVAaQEwh96uQZ4ZO_mr_pad-15" x="45405" y="29845"/><use xlink:href="#FIVAaQEwh96uQZ4ZO_mr_pad-15" x="47305" y="29845"/><path d="M 35464.9 60405.1 35464.9 61354.9 M 35464.9 60405.1 35015.1 60405.1 35015.1 61354.9 35464.9 61354.9 M 35464.9 60740.8 35015.1 60740.8 M 35015.1 61076.5 35464.9 61076.5 M 34514.9 61354.9 34514.9 60405.1 34065.1 60405.1 34065.1 61354.9 34514.9 61354.9 M 34514.9 60740.8 34065.1 60740.8 M 34065.1 61076.5 34514.9 61076.5 M 33564.9 61354.9 33564.9 60405.1 33115.1 60405.1 33115.1 61354.9 33564.9 61354.9 M 33564.9 60740.8 33115.1 60740.8 M 33115.1 61076.5 33564.9 61076.5 M 33564.9 63105.1 33564.9 64054.9 M 33564.9 63105.1 33115.1 63105.1 33115.1 64054.9 33564.9 64054.9 M 33564.9 63440.8 33115.1 63440.8 M 33115.1 63776.5 33564.9 63776.5 M 34514.9 64054.9 34514.9 63105.1 34065.1 63105.1 34065.1 64054.9 34514.9 64054.9 M 34514.9 63440.8 34065.1 63440.8 M 34065.1 63776.5 34514.9 63776.5 M 35464.9 64054.9 35464.9 63105.1 35015.1 63105.1 35015.1 64054.9 35464.9 64054.9 M 35464.9 63440.8 35015.1 63440.8 M 35015.1 63776.5 35464.9 63776.5" fill="none" stroke-width="353.406"/><use xlink:href="#FIVAaQEwh96uQZ4ZO_mr_pad-18" x="35690" y="58166"/><use xlink:href="#FIVAaQEwh96uQZ4ZO_mr_pad-18" x="32890" y="58166"/><use xlink:href="#FIVAaQEwh96uQZ4ZO_mr_pad-18" x="35690" y="66294"/><use xlink:href="#FIVAaQEwh96uQZ4ZO_mr_pad-18" x="32890" y="66294"/><use xlink:href="#FIVAaQEwh96uQZ4ZO_mr_pad-15" x="52390" y="65405"/><use xlink:href="#FIVAaQEwh96uQZ4ZO_mr_pad-15" x="54290" y="65405"/><use xlink:href="#FIVAaQEwh96uQZ4ZO_mr_pad-19" x="50505" y="59690"/><use xlink:href="#FIVAaQEwh96uQZ4ZO_mr_pad-19" x="54905" y="59690"/><use xlink:href="#FIVAaQEwh96uQZ4ZO_mr_pad-20" x="43180" y="57830"/><use xlink:href="#FIVAaQEwh96uQZ4ZO_mr_pad-20" x="43180" y="66630"/><use xlink:href="#FIVAaQEwh96uQZ4ZO_mr_pad-11" x="86995" y="52340"/><use xlink:href="#FIVAaQEwh96uQZ4ZO_mr_pad-11" x="86995" y="54340"/><use xlink:href="#FIVAaQEwh96uQZ4ZO_mr_pad-11" x="36100" y="31750"/><use xlink:href="#FIVAaQEwh96uQZ4ZO_mr_pad-11" x="34100" y="31750"/><use xlink:href="#FIVAaQEwh96uQZ4ZO_mr_pad-14" x="72390" y="46990"/><use xlink:href="#FIVAaQEwh96uQZ4ZO_mr_pad-14" x="69850" y="46990"/><use xlink:href="#FIVAaQEwh96uQZ4ZO_mr_pad-14" x="67310" y="46990"/><use xlink:href="#FIVAaQEwh96uQZ4ZO_mr_pad-14" x="64770" y="46990"/><use xlink:href="#FIVAaQEwh96uQZ4ZO_mr_pad-14" x="62230" y="46990"/><use xlink:href="#FIVAaQEwh96uQZ4ZO_mr_pad-14" x="59690" y="46990"/><use xlink:href="#FIVAaQEwh96uQZ4ZO_mr_pad-21" x="75946" y="12700"/><use xlink:href="#FIVAaQEwh96uQZ4ZO_mr_pad-21" x="73406" y="12700"/><use xlink:href="#FIVAaQEwh96uQZ4ZO_mr_pad-21" x="78486" y="12700"/><use xlink:href="#FIVAaQEwh96uQZ4ZO_mr_pad-22" x="73964.8" y="13970"/><use xlink:href="#FIVAaQEwh96uQZ4ZO_mr_pad-22" x="75387.2" y="13970"/><use xlink:href="#FIVAaQEwh96uQZ4ZO_mr_pad-23" x="74676" y="13970"/><use xlink:href="#FIVAaQEwh96uQZ4ZO_mr_pad-11" x="15240" y="24400"/><use xlink:href="#FIVAaQEwh96uQZ4ZO_mr_pad-11" x="15240" y="26400"/><use xlink:href="#FIVAaQEwh96uQZ4ZO_mr_pad-11" x="32100" y="38100"/><use xlink:href="#FIVAaQEwh96uQZ4ZO_mr_pad-11" x="34100" y="38100"/><use xlink:href="#FIVAaQEwh96uQZ4ZO_mr_pad-11" x="36100" y="38100"/><use xlink:href="#FIVAaQEwh96uQZ4ZO_mr_pad-11" x="21700" y="38100"/><use xlink:href="#FIVAaQEwh96uQZ4ZO_mr_pad-11" x="23700" y="38100"/><use xlink:href="#FIVAaQEwh96uQZ4ZO_mr_pad-11" x="25700" y="38100"/><use xlink:href="#FIVAaQEwh96uQZ4ZO_mr_pad-11" x="19700" y="38100"/><use xlink:href="#FIVAaQEwh96uQZ4ZO_mr_pad-21" x="59690" y="62357"/><use xlink:href="#FIVAaQEwh96uQZ4ZO_mr_pad-21" x="62230" y="64897"/><use xlink:href="#FIVAaQEwh96uQZ4ZO_mr_pad-21" x="64770" y="62357"/><use xlink:href="#FIVAaQEwh96uQZ4ZO_mr_pad-11" x="90170" y="30845"/><use xlink:href="#FIVAaQEwh96uQZ4ZO_mr_pad-11" x="90170" y="26845"/><use xlink:href="#FIVAaQEwh96uQZ4ZO_mr_pad-11" x="90170" y="28845"/><use xlink:href="#FIVAaQEwh96uQZ4ZO_mr_pad-11" x="90170" y="32845"/><use xlink:href="#FIVAaQEwh96uQZ4ZO_mr_pad-13" x="68580" y="39370"/><use xlink:href="#FIVAaQEwh96uQZ4ZO_mr_pad-13" x="66040" y="39370"/><use xlink:href="#FIVAaQEwh96uQZ4ZO_mr_pad-13" x="63500" y="39370"/><use xlink:href="#FIVAaQEwh96uQZ4ZO_mr_pad-13" x="60960" y="39370"/><use xlink:href="#FIVAaQEwh96uQZ4ZO_mr_pad-13" x="58420" y="39370"/><use xlink:href="#FIVAaQEwh96uQZ4ZO_mr_pad-13" x="55880" y="39370"/><use xlink:href="#FIVAaQEwh96uQZ4ZO_mr_pad-13" x="53340" y="39370"/><use xlink:href="#FIVAaQEwh96uQZ4ZO_mr_pad-13" x="50800" y="39370"/><use xlink:href="#FIVAaQEwh96uQZ4ZO_mr_pad-13" x="48260" y="39370"/><use xlink:href="#FIVAaQEwh96uQZ4ZO_mr_pad-13" x="45720" y="39370"/><use xlink:href="#FIVAaQEwh96uQZ4ZO_mr_pad-13" x="43180" y="39370"/><use xlink:href="#FIVAaQEwh96uQZ4ZO_mr_pad-13" x="43180" y="19050"/><use xlink:href="#FIVAaQEwh96uQZ4ZO_mr_pad-13" x="45720" y="19050"/><use xlink:href="#FIVAaQEwh96uQZ4ZO_mr_pad-13" x="48260" y="19050"/><use xlink:href="#FIVAaQEwh96uQZ4ZO_mr_pad-13" x="50800" y="19050"/><use xlink:href="#FIVAaQEwh96uQZ4ZO_mr_pad-13" x="53340" y="19050"/><use xlink:href="#FIVAaQEwh96uQZ4ZO_mr_pad-13" x="55880" y="19050"/><use xlink:href="#FIVAaQEwh96uQZ4ZO_mr_pad-13" x="58420" y="19050"/><use xlink:href="#FIVAaQEwh96uQZ4ZO_mr_pad-13" x="60960" y="19050"/><use xlink:href="#FIVAaQEwh96uQZ4ZO_mr_pad-13" x="63500" y="19050"/><use xlink:href="#FIVAaQEwh96uQZ4ZO_mr_pad-13" x="66040" y="19050"/><use xlink:href="#FIVAaQEwh96uQZ4ZO_mr_pad-13" x="68580" y="19050"/><use xlink:href="#FIVAaQEwh96uQZ4ZO_mr_pad-13" x="71120" y="19050"/><use xlink:href="#FIVAaQEwh96uQZ4ZO_mr_pad-13" x="73660" y="19050"/><use xlink:href="#FIVAaQEwh96uQZ4ZO_mr_pad-13" x="76200" y="19050"/><use xlink:href="#FIVAaQEwh96uQZ4ZO_mr_pad-13" x="78740" y="19050"/><use xlink:href="#FIVAaQEwh96uQZ4ZO_mr_pad-13" x="78740" y="39370"/><use xlink:href="#FIVAaQEwh96uQZ4ZO_mr_pad-13" x="76200" y="39370"/><use xlink:href="#FIVAaQEwh96uQZ4ZO_mr_pad-13" x="73660" y="39370"/><use xlink:href="#FIVAaQEwh96uQZ4ZO_mr_pad-13" x="71120" y="39370"/><use xlink:href="#FIVAaQEwh96uQZ4ZO_mr_pad-24" x="71755" y="21971"/><use xlink:href="#FIVAaQEwh96uQZ4ZO_mr_pad-24" x="73025" y="21971"/><use xlink:href="#FIVAaQEwh96uQZ4ZO_mr_pad-24" x="74295" y="21971"/><use xlink:href="#FIVAaQEwh96uQZ4ZO_mr_pad-24" x="75565" y="21971"/><use xlink:href="#FIVAaQEwh96uQZ4ZO_mr_pad-24" x="75565" y="27559"/><use xlink:href="#FIVAaQEwh96uQZ4ZO_mr_pad-24" x="74295" y="27559"/><use xlink:href="#FIVAaQEwh96uQZ4ZO_mr_pad-24" x="73025" y="27559"/><use xlink:href="#FIVAaQEwh96uQZ4ZO_mr_pad-24" x="71755" y="27559"/><use xlink:href="#FIVAaQEwh96uQZ4ZO_mr_pad-11" x="25700" y="31750"/><use xlink:href="#FIVAaQEwh96uQZ4ZO_mr_pad-11" x="21700" y="31750"/><use xlink:href="#FIVAaQEwh96uQZ4ZO_mr_pad-11" x="23700" y="31750"/><use xlink:href="#FIVAaQEwh96uQZ4ZO_mr_pad-11" x="27700" y="31750"/><use xlink:href="#FIVAaQEwh96uQZ4ZO_mr_pad-11" x="19700" y="31750"/><use xlink:href="#FIVAaQEwh96uQZ4ZO_mr_pad-25" x="13530" y="50800"/><use xlink:href="#FIVAaQEwh96uQZ4ZO_mr_pad-25" x="85530" y="50800"/><use xlink:href="#FIVAaQEwh96uQZ4ZO_mr_pad-26" x="48260" y="15555"/><use xlink:href="#FIVAaQEwh96uQZ4ZO_mr_pad-26" x="48260" y="13655"/><use xlink:href="#FIVAaQEwh96uQZ4ZO_mr_pad-26" x="50800" y="13655"/><use xlink:href="#FIVAaQEwh96uQZ4ZO_mr_pad-26" x="50800" y="15555"/><use xlink:href="#FIVAaQEwh96uQZ4ZO_mr_pad-11" x="65135" y="14605"/><use xlink:href="#FIVAaQEwh96uQZ4ZO_mr_pad-11" x="63135" y="14605"/><use xlink:href="#FIVAaQEwh96uQZ4ZO_mr_pad-27" x="6731" y="52935"/><use xlink:href="#FIVAaQEwh96uQZ4ZO_mr_pad-27" x="6731" y="49935"/><use xlink:href="#FIVAaQEwh96uQZ4ZO_mr_pad-28" x="10160" y="48818.8"/><use xlink:href="#FIVAaQEwh96uQZ4ZO_mr_pad-28" x="10160" y="50241.2"/><use xlink:href="#FIVAaQEwh96uQZ4ZO_mr_pad-11" x="56475" y="52275"/><use xlink:href="#FIVAaQEwh96uQZ4ZO_mr_pad-11" x="53975" y="52275"/><use xlink:href="#FIVAaQEwh96uQZ4ZO_mr_pad-11" x="51475" y="52275"/><use xlink:href="#FIVAaQEwh96uQZ4ZO_mr_pad-11" x="51475" y="55675"/><use xlink:href="#FIVAaQEwh96uQZ4ZO_mr_pad-11" x="53975" y="55675"/><use xlink:href="#FIVAaQEwh96uQZ4ZO_mr_pad-11" x="56475" y="55675"/><use xlink:href="#FIVAaQEwh96uQZ4ZO_mr_pad-29" x="57475" y="54975"/><use xlink:href="#FIVAaQEwh96uQZ4ZO_mr_pad-29" x="57475" y="52975"/><use xlink:href="#FIVAaQEwh96uQZ4ZO_mr_pad-29" x="50475" y="54975"/><use xlink:href="#FIVAaQEwh96uQZ4ZO_mr_pad-29" x="50475" y="52975"/><use xlink:href="#FIVAaQEwh96uQZ4ZO_mr_pad-11" x="92964" y="54340"/><use xlink:href="#FIVAaQEwh96uQZ4ZO_mr_pad-11" x="92964" y="52340"/><use xlink:href="#FIVAaQEwh96uQZ4ZO_mr_pad-11" x="47530" y="49530"/><use xlink:href="#FIVAaQEwh96uQZ4ZO_mr_pad-11" x="51530" y="49530"/><use xlink:href="#FIVAaQEwh96uQZ4ZO_mr_pad-11" x="49530" y="49530"/><use xlink:href="#FIVAaQEwh96uQZ4ZO_mr_pad-26" x="64770" y="53025"/><use xlink:href="#FIVAaQEwh96uQZ4ZO_mr_pad-26" x="64770" y="54925"/><use xlink:href="#FIVAaQEwh96uQZ4ZO_mr_pad-26" x="67310" y="53025"/><use xlink:href="#FIVAaQEwh96uQZ4ZO_mr_pad-26" x="67310" y="54925"/><use xlink:href="#FIVAaQEwh96uQZ4ZO_mr_pad-12" x="41275" y="36195"/><use xlink:href="#FIVAaQEwh96uQZ4ZO_mr_pad-12" x="42545" y="34925"/><use xlink:href="#FIVAaQEwh96uQZ4ZO_mr_pad-12" x="41275" y="33655"/><use xlink:href="#FIVAaQEwh96uQZ4ZO_mr_pad-11" x="35735" y="14605"/><use xlink:href="#FIVAaQEwh96uQZ4ZO_mr_pad-11" x="39735" y="14605"/><use xlink:href="#FIVAaQEwh96uQZ4ZO_mr_pad-11" x="37735" y="14605"/><use xlink:href="#FIVAaQEwh96uQZ4ZO_mr_pad-11" x="33735" y="14605"/><use xlink:href="#FIVAaQEwh96uQZ4ZO_mr_pad-11" x="41735" y="14605"/><use xlink:href="#FIVAaQEwh96uQZ4ZO_mr_pad-11" x="43735" y="14605"/><use xlink:href="#FIVAaQEwh96uQZ4ZO_mr_pad-30" x="56515" y="47701.2"/><use xlink:href="#FIVAaQEwh96uQZ4ZO_mr_pad-30" x="56515" y="46278.8"/><use xlink:href="#FIVAaQEwh96uQZ4ZO_mr_pad-31" x="56515" y="46990"/><path d="M 62945.1 24860.1 63894.9 24860.1 M 62945.1 24860.1 62945.1 25309.9 63894.9 25309.9 63894.9 24860.1 M 63894.9 25195.8 62945.1 25195.8 M 62945.1 25810.1 63894.9 25810.1 M 62945.1 25810.1 62945.1 26259.9 63894.9 26259.9 63894.9 25810.1 M 63894.9 26145.8 62945.1 26145.8 M 62945.1 26760.1 63894.9 26760.1 M 62945.1 26760.1 62945.1 27209.9 63894.9 27209.9 63894.9 26760.1 M 63894.9 27095.8 62945.1 27095.8 M 65645.1 26760.1 66594.9 26760.1 M 65645.1 26760.1 65645.1 27209.9 66594.9 27209.9 66594.9 26760.1 M 66594.9 27095.8 65645.1 27095.8 M 65645.1 25810.1 66594.9 25810.1 M 65645.1 25810.1 65645.1 26259.9 66594.9 26259.9 66594.9 25810.1 M 66594.9 26145.8 65645.1 26145.8 M 65645.1 24860.1 66594.9 24860.1 M 65645.1 24860.1 65645.1 25309.9 66594.9 25309.9 66594.9 24860.1 M 66594.9 25195.8 65645.1 25195.8" fill="none" stroke-width="353.406"/><use xlink:href="#FIVAaQEwh96uQZ4ZO_mr_pad-32" x="55245" y="27050"/><use xlink:href="#FIVAaQEwh96uQZ4ZO_mr_pad-33" x="56245" y="23800"/><use xlink:href="#FIVAaQEwh96uQZ4ZO_mr_pad-33" x="54245" y="23800"/><use xlink:href="#FIVAaQEwh96uQZ4ZO_mr_pad-26" x="68580" y="25715"/><use xlink:href="#FIVAaQEwh96uQZ4ZO_mr_pad-26" x="68580" y="23815"/><use xlink:href="#FIVAaQEwh96uQZ4ZO_mr_pad-26" x="60960" y="23815"/><use xlink:href="#FIVAaQEwh96uQZ4ZO_mr_pad-26" x="60960" y="25715"/><use xlink:href="#FIVAaQEwh96uQZ4ZO_mr_pad-26" x="58420" y="23815"/><use xlink:href="#FIVAaQEwh96uQZ4ZO_mr_pad-26" x="58420" y="25715"/><use xlink:href="#FIVAaQEwh96uQZ4ZO_mr_pad-15" x="54290" y="62865"/><use xlink:href="#FIVAaQEwh96uQZ4ZO_mr_pad-15" x="52390" y="62865"/><use xlink:href="#FIVAaQEwh96uQZ4ZO_mr_pad-26" x="54737" y="42230"/><use xlink:href="#FIVAaQEwh96uQZ4ZO_mr_pad-26" x="54737" y="44130"/><use xlink:href="#FIVAaQEwh96uQZ4ZO_mr_pad-34" x="24130" y="64770"/><use xlink:href="#FIVAaQEwh96uQZ4ZO_mr_pad-34" x="58420" y="33655"/><use xlink:href="#FIVAaQEwh96uQZ4ZO_mr_pad-34" x="55880" y="32385"/><use xlink:href="#FIVAaQEwh96uQZ4ZO_mr_pad-34" x="39910" y="41910"/><use xlink:href="#FIVAaQEwh96uQZ4ZO_mr_pad-34" x="31750" y="64135"/><use xlink:href="#FIVAaQEwh96uQZ4ZO_mr_pad-34" x="63500" y="66040"/><use xlink:href="#FIVAaQEwh96uQZ4ZO_mr_pad-34" x="59055" y="65405"/><use xlink:href="#FIVAaQEwh96uQZ4ZO_mr_pad-34" x="52578" y="60960"/><use xlink:href="#FIVAaQEwh96uQZ4ZO_mr_pad-34" x="52578" y="58420"/><use xlink:href="#FIVAaQEwh96uQZ4ZO_mr_pad-34" x="58420" y="58420"/><use xlink:href="#FIVAaQEwh96uQZ4ZO_mr_pad-34" x="62230" y="58420"/><use xlink:href="#FIVAaQEwh96uQZ4ZO_mr_pad-34" x="62230" y="60960"/><use xlink:href="#FIVAaQEwh96uQZ4ZO_mr_pad-34" x="66040" y="58420"/><use xlink:href="#FIVAaQEwh96uQZ4ZO_mr_pad-34" x="66040" y="60960"/><use xlink:href="#FIVAaQEwh96uQZ4ZO_mr_pad-34" x="66040" y="66040"/><use xlink:href="#FIVAaQEwh96uQZ4ZO_mr_pad-34" x="31750" y="62230"/><use xlink:href="#FIVAaQEwh96uQZ4ZO_mr_pad-34" x="60960" y="63500"/><use xlink:href="#FIVAaQEwh96uQZ4ZO_mr_pad-34" x="66040" y="63500"/><use xlink:href="#FIVAaQEwh96uQZ4ZO_mr_pad-34" x="47625" y="57785"/><use xlink:href="#FIVAaQEwh96uQZ4ZO_mr_pad-34" x="47625" y="66675"/><use xlink:href="#FIVAaQEwh96uQZ4ZO_mr_pad-34" x="38100" y="64135"/><use xlink:href="#FIVAaQEwh96uQZ4ZO_mr_pad-34" x="38100" y="58420"/><use xlink:href="#FIVAaQEwh96uQZ4ZO_mr_pad-34" x="31750" y="60325"/><use xlink:href="#FIVAaQEwh96uQZ4ZO_mr_pad-34" x="52197" y="13970"/><use xlink:href="#FIVAaQEwh96uQZ4ZO_mr_pad-34" x="22860" y="62230"/><use xlink:href="#FIVAaQEwh96uQZ4ZO_mr_pad-34" x="51435" y="23495"/><use xlink:href="#FIVAaQEwh96uQZ4ZO_mr_pad-34" x="48935" y="64135"/><use xlink:href="#FIVAaQEwh96uQZ4ZO_mr_pad-34" x="24130" y="59690"/><use xlink:href="#FIVAaQEwh96uQZ4ZO_mr_pad-34" x="54610" y="35560"/><use xlink:href="#FIVAaQEwh96uQZ4ZO_mr_pad-34" x="40264.7" y="20320"/><use xlink:href="#FIVAaQEwh96uQZ4ZO_mr_pad-34" x="52705" y="26035"/><use xlink:href="#FIVAaQEwh96uQZ4ZO_mr_pad-34" x="53340" y="31115"/><use xlink:href="#FIVAaQEwh96uQZ4ZO_mr_pad-34" x="67310" y="29210"/><use xlink:href="#FIVAaQEwh96uQZ4ZO_mr_pad-34" x="53340" y="33655"/><use xlink:href="#FIVAaQEwh96uQZ4ZO_mr_pad-34" x="62992" y="30734"/></g></svg>