<svg version="1.1" xmlns="http://www.w3.org/2000/svg" xmlns:xlink="http://www.w3.org/1999/xlink" stroke-linecap="round" stroke-linejoin="round" stroke-width="0" fill-rule="evenodd" width="60.82mm" height="54.675mm" viewBox="32090 13005 60820 54675" id="RtpjoUR1ToySJknP9ak7"><defs><rect x="-455" y="-610" width="910" height="1220" id="RtpjoUR1ToySJknP9ak7_pad-10"/><rect x="-650" y="-750" width="1300" height="1500" id="RtpjoUR1ToySJknP9ak7_pad-11"/><rect x="-800" y="-900" width="1600" height="1800" id="RtpjoUR1ToySJknP9ak7_pad-13"/><rect x="-1000" y="-1350" width="2000" height="2700" id="RtpjoUR1ToySJknP9ak7_pad-14"/><rect x="-1750" y="-1050" width="3500" height="2100" id="RtpjoUR1ToySJknP9ak7_pad-15"/><rect x="-431.8" y="-381" width="863.6" height="762" id="RtpjoUR1ToySJknP9ak7_pad-16"/><rect x="-317.5" y="-635" width="635" height="1270" id="RtpjoUR1ToySJknP9ak7_pad-17"/><rect x="-750" y="-650" width="1500" height="1300" id="RtpjoUR1ToySJknP9ak7_pad-18"/><rect x="-381" y="-431.8" width="762" height="863.6" id="RtpjoUR1ToySJknP9ak7_pad-19"/><rect x="-800" y="-750" width="1600" height="1500" id="RtpjoUR1ToySJknP9ak7_pad-20"/><rect x="-300" y="-300" width="600" height="600" id="RtpjoUR1ToySJknP9ak7_pad-21"/></defs><g transform="translate(0,80685) scale(1,-1)" fill="currentColor" stroke="currentColor"><path d="M 40583.4 63227.7 40583.4 63227.7 40584.5 63227.9 40763.4 63606.2 40996.8 63953.1 41279.6 64261 41605.4 64523.1 41966.8 64733.3 42355.6 64886.9 42763.1 64980.6 43180 65012 43596.9 64980.6 44004.4 64886.9 44393.2 64733.3 44754.6 64523.1 45080.4 64261 45363.2 63953.1 45596.6 63606.2 45775.5 63227.9 45779.4 63225.9 45780 63225.1 46830 63225.1 46834.7 63228.7 46834.2 63229.4 46834.9 63230 46834.9 65880 46831.3 65884.7 46830.6 65884.2 46830 65884.9 39530 65884.9 39525.3 65881.3 39525.4 65881.1 39525.3 65881 39525.7 65880.4 39525.1 65880 39525.1 63230 39528.7 63225.3 39529.4 63225.8 39530 63225.1 40580 63225.1 40583.4 63227.7"/><path d="M 46834.7 58578.7 46834.7 58578.7 46834.2 58579.4 46834.9 58580 46834.9 61230 46831.3 61234.7 46830.6 61234.2 46830 61234.9 45780 61234.9 45776.6 61232.3 45775.5 61232.1 45596.6 60853.8 45363.2 60506.9 45080.4 60199 44754.6 59936.9 44393.2 59726.7 44004.4 59573.1 43596.9 59479.5 43180 59448 42763.1 59479.5 42355.6 59573.1 41966.8 59726.7 41605.4 59936.9 41279.6 60199 40996.8 60506.9 40763.4 60853.8 40584.5 61232.1 40580.6 61234.1 40580 61234.9 39530 61234.9 39525.3 61231.3 39525.4 61231.1 39525.3 61231 39525.7 61230.4 39525.1 61230 39525.1 58580 39528.7 58575.3 39529.4 58575.8 39530 58575.1 46830 58575.1 46834.7 58578.7"/><path d="M 56845.5 23199.9 56845.5 23199.9 56845.5 23200 56845.5 24400 56845.1 24400.5 56845 24400.5 55945 24400.5 55944.8 24400.3 55944.6 24400.4 55644.6 24100.4 55644.6 24100.1 55644.5 24100 55644.5 23200 55644.9 23199.5 55645 23199.5 56845 23199.5 56845.5 23199.9"/><path d="M 54845.5 23199.9 54845.5 23199.9 54845.5 23200 54845.5 24100 54845.3 24100.2 54845.4 24100.4 54545.4 24400.4 54545.1 24400.4 54545.1 24400.5 54545 24400.5 53645 24400.5 53644.5 24400.1 53644.5 24400 53644.5 23200 53644.9 23199.5 53645 23199.5 54845 23199.5 54845.5 23199.9"/><use xlink:href="#RtpjoUR1ToySJknP9ak7_pad-10" x="92455" y="48260"/><use xlink:href="#RtpjoUR1ToySJknP9ak7_pad-10" x="89155" y="48260"/><use xlink:href="#RtpjoUR1ToySJknP9ak7_pad-11" x="45405" y="26670"/><use xlink:href="#RtpjoUR1ToySJknP9ak7_pad-11" x="47305" y="26670"/><use xlink:href="#RtpjoUR1ToySJknP9ak7_pad-11" x="45405" y="33020"/><use xlink:href="#RtpjoUR1ToySJknP9ak7_pad-11" x="47305" y="33020"/><use xlink:href="#RtpjoUR1ToySJknP9ak7_pad-11" x="45405" y="29845"/><use xlink:href="#RtpjoUR1ToySJknP9ak7_pad-11" x="47305" y="29845"/><path d="M 35465 60405 35465 61355 M 35465 60405 35015 60405 35015 61355 35465 61355 M 35465 60547.5 35015 60547.5 M 35015 60690 35465 60690 M 35465 60832.5 35015 60832.5 M 35015 60975 35465 60975 M 35465 61117.5 35015 61117.5 M 35015 61260 35465 61260 M 34515 61355 34515 60405 34065 60405 34065 61355 34515 61355 M 34515 60547.5 34065 60547.5 M 34065 60690 34515 60690 M 34515 60832.5 34065 60832.5 M 34065 60975 34515 60975 M 34515 61117.5 34065 61117.5 M 34065 61260 34515 61260 M 33565 61355 33565 60405 33115 60405 33115 61355 33565 61355 M 33565 60547.5 33115 60547.5 M 33115 60690 33565 60690 M 33565 60832.5 33115 60832.5 M 33115 60975 33565 60975 M 33565 61117.5 33115 61117.5 M 33115 61260 33565 61260 M 33565 63105 33565 64055 M 33565 63105 33115 63105 33115 64055 33565 64055 M 33565 63247.5 33115 63247.5 M 33115 63390 33565 63390 M 33565 63532.5 33115 63532.5 M 33115 63675 33565 63675 M 33565 63817.5 33115 63817.5 M 33115 63960 33565 63960 M 34515 64055 34515 63105 34065 63105 34065 64055 34515 64055 M 34515 63247.5 34065 63247.5 M 34065 63390 34515 63390 M 34515 63532.5 34065 63532.5 M 34065 63675 34515 63675 M 34515 63817.5 34065 63817.5 M 34065 63960 34515 63960 M 35465 64055 35465 63105 35015 63105 35015 64055 35465 64055 M 35465 63247.5 35015 63247.5 M 35015 63390 35465 63390 M 35465 63532.5 35015 63532.5 M 35015 63675 35465 63675 M 35465 63817.5 35015 63817.5 M 35015 63960 35465 63960" fill="none" stroke-width="150"/><use xlink:href="#RtpjoUR1ToySJknP9ak7_pad-13" x="35690" y="58166"/><use xlink:href="#RtpjoUR1ToySJknP9ak7_pad-13" x="32890" y="58166"/><use xlink:href="#RtpjoUR1ToySJknP9ak7_pad-13" x="35690" y="66294"/><use xlink:href="#RtpjoUR1ToySJknP9ak7_pad-13" x="32890" y="66294"/><use xlink:href="#RtpjoUR1ToySJknP9ak7_pad-11" x="52390" y="65405"/><use xlink:href="#RtpjoUR1ToySJknP9ak7_pad-11" x="54290" y="65405"/><use xlink:href="#RtpjoUR1ToySJknP9ak7_pad-14" x="50505" y="59690"/><use xlink:href="#RtpjoUR1ToySJknP9ak7_pad-14" x="54905" y="59690"/><use xlink:href="#RtpjoUR1ToySJknP9ak7_pad-15" x="43180" y="57830"/><use xlink:href="#RtpjoUR1ToySJknP9ak7_pad-15" x="43180" y="66630"/><use xlink:href="#RtpjoUR1ToySJknP9ak7_pad-16" x="73964.8" y="13970"/><use xlink:href="#RtpjoUR1ToySJknP9ak7_pad-16" x="75387.2" y="13970"/><use xlink:href="#RtpjoUR1ToySJknP9ak7_pad-17" x="71755" y="21971"/><use xlink:href="#RtpjoUR1ToySJknP9ak7_pad-17" x="73025" y="21971"/><use xlink:href="#RtpjoUR1ToySJknP9ak7_pad-17" x="74295" y="21971"/><use xlink:href="#RtpjoUR1ToySJknP9ak7_pad-17" x="75565" y="21971"/><use xlink:href="#RtpjoUR1ToySJknP9ak7_pad-17" x="75565" y="27559"/><use xlink:href="#RtpjoUR1ToySJknP9ak7_pad-17" x="74295" y="27559"/><use xlink:href="#RtpjoUR1ToySJknP9ak7_pad-17" x="73025" y="27559"/><use xlink:href="#RtpjoUR1ToySJknP9ak7_pad-17" x="71755" y="27559"/><use xlink:href="#RtpjoUR1ToySJknP9ak7_pad-18" x="48260" y="15555"/><use xlink:href="#RtpjoUR1ToySJknP9ak7_pad-18" x="48260" y="13655"/><use xlink:href="#RtpjoUR1ToySJknP9ak7_pad-18" x="50800" y="13655"/><use xlink:href="#RtpjoUR1ToySJknP9ak7_pad-18" x="50800" y="15555"/><use xlink:href="#RtpjoUR1ToySJknP9ak7_pad-18" x="64770" y="53025"/><use xlink:href="#RtpjoUR1ToySJknP9ak7_pad-18" x="64770" y="54925"/><use xlink:href="#RtpjoUR1ToySJknP9ak7_pad-18" x="67310" y="53025"/><use xlink:href="#RtpjoUR1ToySJknP9ak7_pad-18" x="67310" y="54925"/><use xlink:href="#RtpjoUR1ToySJknP9ak7_pad-19" x="56515" y="47701.2"/><use xlink:href="#RtpjoUR1ToySJknP9ak7_pad-19" x="56515" y="46278.8"/><path d="M 62945 24860 63895 24860 M 62945 24860 62945 25310 63895 25310 63895 24860 M 63895 25002.5 62945 25002.5 M 62945 25145 63895 25145 M 63895 25287.5 62945 25287.5 M 62945 25810 63895 25810 M 62945 25810 62945 26260 63895 26260 63895 25810 M 63895 25952.5 62945 25952.5 M 62945 26095 63895 26095 M 63895 26237.5 62945 26237.5 M 62945 26760 63895 26760 M 62945 26760 62945 27210 63895 27210 63895 26760 M 63895 26902.5 62945 26902.5 M 62945 27045 63895 27045 M 63895 27187.5 62945 27187.5 M 65645 26760 66595 26760 M 65645 26760 65645 27210 66595 27210 66595 26760 M 66595 26902.5 65645 26902.5 M 65645 27045 66595 27045 M 66595 27187.5 65645 27187.5 M 65645 25810 66595 25810 M 65645 25810 65645 26260 66595 26260 66595 25810 M 66595 25952.5 65645 25952.5 M 65645 26095 66595 26095 M 66595 26237.5 65645 26237.5 M 65645 24860 66595 24860 M 65645 24860 65645 25310 66595 25310 66595 24860 M 66595 25002.5 65645 25002.5 M 65645 25145 66595 25145 M 66595 25287.5 65645 25287.5" fill="none" stroke-width="150"/><use xlink:href="#RtpjoUR1ToySJknP9ak7_pad-20" x="55245" y="27050"/><use xlink:href="#RtpjoUR1ToySJknP9ak7_pad-21" x="56245" y="23800"/><use xlink:href="#RtpjoUR1ToySJknP9ak7_pad-21" x="54245" y="23800"/><use xlink:href="#RtpjoUR1ToySJknP9ak7_pad-18" x="68580" y="25715"/><use xlink:href="#RtpjoUR1ToySJknP9ak7_pad-18" x="68580" y="23815"/><use xlink:href="#RtpjoUR1ToySJknP9ak7_pad-18" x="60960" y="23815"/><use xlink:href="#RtpjoUR1ToySJknP9ak7_pad-18" x="60960" y="25715"/><use xlink:href="#RtpjoUR1ToySJknP9ak7_pad-18" x="58420" y="23815"/><use xlink:href="#RtpjoUR1ToySJknP9ak7_pad-18" x="58420" y="25715"/><use xlink:href="#RtpjoUR1ToySJknP9ak7_pad-11" x="54290" y="62865"/><use xlink:href="#RtpjoUR1ToySJknP9ak7_pad-11" x="52390" y="62865"/><use xlink:href="#RtpjoUR1ToySJknP9ak7_pad-18" x="54737" y="42230"/><use xlink:href="#RtpjoUR1ToySJknP9ak7_pad-18" x="54737" y="44130"/></g></svg>