<svg version="1.1" xmlns="http://www.w3.org/2000/svg" xmlns:xlink="http://www.w3.org/1999/xlink" stroke-linecap="round" stroke-linejoin="round" stroke-width="0" fill-rule="evenodd" width="87.3012mm" height="26.495mm" viewBox="5231 29090 87301.2 26495" id="timhHkSk9tyGCynChqen"><defs><rect x="-550" y="-750" width="1100" height="1500" id="timhHkSk9tyGCynChqen_pad-10"/><rect x="-381" y="-431.8" width="762" height="863.6" id="timhHkSk9tyGCynChqen_pad-11"/><rect x="-400" y="-500" width="800" height="1000" id="timhHkSk9tyGCynChqen_pad-12"/><rect x="-750" y="-350" width="1500" height="700" id="timhHkSk9tyGCynChqen_pad-13"/><rect x="-1092.2" y="-533.4" width="2184.4" height="1066.8" id="timhHkSk9tyGCynChqen_pad-14"/></defs><g transform="translate(0,84675) scale(1,-1)" fill="currentColor" stroke="currentColor"><use xlink:href="#timhHkSk9tyGCynChqen_pad-10" x="13335" y="38740"/><use xlink:href="#timhHkSk9tyGCynChqen_pad-10" x="13335" y="29840"/><use xlink:href="#timhHkSk9tyGCynChqen_pad-11" x="13335" y="33578.8"/><use xlink:href="#timhHkSk9tyGCynChqen_pad-11" x="13335" y="35001.2"/><use xlink:href="#timhHkSk9tyGCynChqen_pad-12" x="7831" y="55085"/><use xlink:href="#timhHkSk9tyGCynChqen_pad-12" x="5631" y="55085"/><use xlink:href="#timhHkSk9tyGCynChqen_pad-12" x="7831" y="47785"/><use xlink:href="#timhHkSk9tyGCynChqen_pad-12" x="5631" y="47785"/><use xlink:href="#timhHkSk9tyGCynChqen_pad-13" x="8481" y="53685"/><use xlink:href="#timhHkSk9tyGCynChqen_pad-13" x="8481" y="50685"/><use xlink:href="#timhHkSk9tyGCynChqen_pad-13" x="8481" y="49185"/><use xlink:href="#timhHkSk9tyGCynChqen_pad-11" x="10160" y="48818.8"/><use xlink:href="#timhHkSk9tyGCynChqen_pad-11" x="10160" y="50241.2"/><use xlink:href="#timhHkSk9tyGCynChqen_pad-11" x="10160" y="54051.2"/><use xlink:href="#timhHkSk9tyGCynChqen_pad-11" x="10160" y="52628.8"/><use xlink:href="#timhHkSk9tyGCynChqen_pad-14" x="91440" y="47485"/><use xlink:href="#timhHkSk9tyGCynChqen_pad-14" x="91440" y="42685"/></g></svg>