<svg version="1.1" xmlns="http://www.w3.org/2000/svg" xmlns:xlink="http://www.w3.org/1999/xlink" stroke-linecap="round" stroke-linejoin="round" stroke-width="0" fill-rule="evenodd" width="88.4987mm" height="55.1914mm" viewBox="5129.4 11963.4 88498.7 55191.4" id="GwUqDdRe7NuZgMeOMi8Q"><defs><circle cx="0" cy="0" r="664.1" id="GwUqDdRe7NuZgMeOMi8Q_pad-10"/><circle cx="0" cy="0" r="609.6" id="GwUqDdRe7NuZgMeOMi8Q_pad-11"/><circle cx="0" cy="0" r="851.6" id="GwUqDdRe7NuZgMeOMi8Q_pad-12"/><circle cx="0" cy="0" r="863.6" id="GwUqDdRe7NuZgMeOMi8Q_pad-13"/><rect x="-863.6" y="-863.6" width="1727.2" height="1727.2" id="GwUqDdRe7NuZgMeOMi8Q_pad-14"/><rect x="-651.6" y="-851.6" width="1303.2" height="1703.2" id="GwUqDdRe7NuZgMeOMi8Q_pad-15"/><rect x="-482.6" y="-533.4" width="965.2" height="1066.8" id="GwUqDdRe7NuZgMeOMi8Q_pad-16"/><rect x="-482.6" y="-177.8" width="965.2" height="355.6" id="GwUqDdRe7NuZgMeOMi8Q_pad-17"/><circle cx="0" cy="0" r="736.6" id="GwUqDdRe7NuZgMeOMi8Q_pad-18"/><circle cx="0" cy="0" r="1414.1" id="GwUqDdRe7NuZgMeOMi8Q_pad-19"/><rect x="-501.6" y="-601.6" width="1003.2" height="1203.2" id="GwUqDdRe7NuZgMeOMi8Q_pad-20"/><rect x="-851.6" y="-451.6" width="1703.2" height="903.2" id="GwUqDdRe7NuZgMeOMi8Q_pad-21"/><circle cx="0" cy="0" r="551.6" id="GwUqDdRe7NuZgMeOMi8Q_pad-22"/><circle cx="0" cy="0" r="406.4" id="GwUqDdRe7NuZgMeOMi8Q_pad-23"/><circle cx="0" cy="0" r="311.6" id="GwUqDdRe7NuZgMeOMi8Q_pad-24"/><rect x="-1193.8" y="-635" width="2387.6" height="1270" id="GwUqDdRe7NuZgMeOMi8Q_pad-25"/><circle cx="0" cy="0" r="479.8" id="GwUqDdRe7NuZgMeOMi8Q_pad-26"/></defs><g transform="translate(0,79118.2) scale(1,-1)" fill="currentColor" stroke="currentColor"><use xlink:href="#GwUqDdRe7NuZgMeOMi8Q_pad-10" x="90551" y="52340"/><use xlink:href="#GwUqDdRe7NuZgMeOMi8Q_pad-10" x="90551" y="54340"/><use xlink:href="#GwUqDdRe7NuZgMeOMi8Q_pad-11" x="49530" y="28585"/><use xlink:href="#GwUqDdRe7NuZgMeOMi8Q_pad-11" x="49530" y="29835"/><use xlink:href="#GwUqDdRe7NuZgMeOMi8Q_pad-12" x="22280" y="58420"/><use xlink:href="#GwUqDdRe7NuZgMeOMi8Q_pad-12" x="76780" y="58420"/><use xlink:href="#GwUqDdRe7NuZgMeOMi8Q_pad-13" x="22280" y="65420"/><use xlink:href="#GwUqDdRe7NuZgMeOMi8Q_pad-14" x="19050" y="26670"/><use xlink:href="#GwUqDdRe7NuZgMeOMi8Q_pad-13" x="21590" y="26670"/><use xlink:href="#GwUqDdRe7NuZgMeOMi8Q_pad-13" x="24130" y="26670"/><use xlink:href="#GwUqDdRe7NuZgMeOMi8Q_pad-13" x="26670" y="26670"/><use xlink:href="#GwUqDdRe7NuZgMeOMi8Q_pad-13" x="29210" y="26670"/><use xlink:href="#GwUqDdRe7NuZgMeOMi8Q_pad-13" x="31750" y="26670"/><use xlink:href="#GwUqDdRe7NuZgMeOMi8Q_pad-13" x="34290" y="26670"/><use xlink:href="#GwUqDdRe7NuZgMeOMi8Q_pad-13" x="36830" y="26670"/><use xlink:href="#GwUqDdRe7NuZgMeOMi8Q_pad-15" x="13335" y="38740"/><use xlink:href="#GwUqDdRe7NuZgMeOMi8Q_pad-15" x="13335" y="29840"/><use xlink:href="#GwUqDdRe7NuZgMeOMi8Q_pad-13" x="26670" y="40640"/><use xlink:href="#GwUqDdRe7NuZgMeOMi8Q_pad-13" x="29210" y="40640"/><use xlink:href="#GwUqDdRe7NuZgMeOMi8Q_pad-13" x="31750" y="40640"/><use xlink:href="#GwUqDdRe7NuZgMeOMi8Q_pad-13" x="34290" y="40640"/><use xlink:href="#GwUqDdRe7NuZgMeOMi8Q_pad-16" x="13335" y="33578.8"/><use xlink:href="#GwUqDdRe7NuZgMeOMi8Q_pad-16" x="13335" y="35001.2"/><use xlink:href="#GwUqDdRe7NuZgMeOMi8Q_pad-17" x="13335" y="34290"/><use xlink:href="#GwUqDdRe7NuZgMeOMi8Q_pad-10" x="86995" y="52340"/><use xlink:href="#GwUqDdRe7NuZgMeOMi8Q_pad-10" x="86995" y="54340"/><use xlink:href="#GwUqDdRe7NuZgMeOMi8Q_pad-10" x="36100" y="31750"/><use xlink:href="#GwUqDdRe7NuZgMeOMi8Q_pad-10" x="34100" y="31750"/><use xlink:href="#GwUqDdRe7NuZgMeOMi8Q_pad-13" x="72390" y="46990"/><use xlink:href="#GwUqDdRe7NuZgMeOMi8Q_pad-13" x="69850" y="46990"/><use xlink:href="#GwUqDdRe7NuZgMeOMi8Q_pad-13" x="67310" y="46990"/><use xlink:href="#GwUqDdRe7NuZgMeOMi8Q_pad-13" x="64770" y="46990"/><use xlink:href="#GwUqDdRe7NuZgMeOMi8Q_pad-13" x="62230" y="46990"/><use xlink:href="#GwUqDdRe7NuZgMeOMi8Q_pad-13" x="59690" y="46990"/><use xlink:href="#GwUqDdRe7NuZgMeOMi8Q_pad-18" x="75946" y="12700"/><use xlink:href="#GwUqDdRe7NuZgMeOMi8Q_pad-18" x="73406" y="12700"/><use xlink:href="#GwUqDdRe7NuZgMeOMi8Q_pad-18" x="78486" y="12700"/><use xlink:href="#GwUqDdRe7NuZgMeOMi8Q_pad-10" x="15240" y="24400"/><use xlink:href="#GwUqDdRe7NuZgMeOMi8Q_pad-10" x="15240" y="26400"/><use xlink:href="#GwUqDdRe7NuZgMeOMi8Q_pad-10" x="32100" y="38100"/><use xlink:href="#GwUqDdRe7NuZgMeOMi8Q_pad-10" x="34100" y="38100"/><use xlink:href="#GwUqDdRe7NuZgMeOMi8Q_pad-10" x="36100" y="38100"/><use xlink:href="#GwUqDdRe7NuZgMeOMi8Q_pad-10" x="21700" y="38100"/><use xlink:href="#GwUqDdRe7NuZgMeOMi8Q_pad-10" x="23700" y="38100"/><use xlink:href="#GwUqDdRe7NuZgMeOMi8Q_pad-10" x="25700" y="38100"/><use xlink:href="#GwUqDdRe7NuZgMeOMi8Q_pad-10" x="19700" y="38100"/><use xlink:href="#GwUqDdRe7NuZgMeOMi8Q_pad-18" x="59690" y="62357"/><use xlink:href="#GwUqDdRe7NuZgMeOMi8Q_pad-18" x="62230" y="64897"/><use xlink:href="#GwUqDdRe7NuZgMeOMi8Q_pad-18" x="64770" y="62357"/><use xlink:href="#GwUqDdRe7NuZgMeOMi8Q_pad-10" x="90170" y="30845"/><use xlink:href="#GwUqDdRe7NuZgMeOMi8Q_pad-10" x="90170" y="26845"/><use xlink:href="#GwUqDdRe7NuZgMeOMi8Q_pad-10" x="90170" y="28845"/><use xlink:href="#GwUqDdRe7NuZgMeOMi8Q_pad-10" x="90170" y="32845"/><use xlink:href="#GwUqDdRe7NuZgMeOMi8Q_pad-12" x="68580" y="39370"/><use xlink:href="#GwUqDdRe7NuZgMeOMi8Q_pad-12" x="66040" y="39370"/><use xlink:href="#GwUqDdRe7NuZgMeOMi8Q_pad-12" x="63500" y="39370"/><use xlink:href="#GwUqDdRe7NuZgMeOMi8Q_pad-12" x="60960" y="39370"/><use xlink:href="#GwUqDdRe7NuZgMeOMi8Q_pad-12" x="58420" y="39370"/><use xlink:href="#GwUqDdRe7NuZgMeOMi8Q_pad-12" x="55880" y="39370"/><use xlink:href="#GwUqDdRe7NuZgMeOMi8Q_pad-12" x="53340" y="39370"/><use xlink:href="#GwUqDdRe7NuZgMeOMi8Q_pad-12" x="50800" y="39370"/><use xlink:href="#GwUqDdRe7NuZgMeOMi8Q_pad-12" x="48260" y="39370"/><use xlink:href="#GwUqDdRe7NuZgMeOMi8Q_pad-12" x="45720" y="39370"/><use xlink:href="#GwUqDdRe7NuZgMeOMi8Q_pad-12" x="43180" y="39370"/><use xlink:href="#GwUqDdRe7NuZgMeOMi8Q_pad-12" x="43180" y="19050"/><use xlink:href="#GwUqDdRe7NuZgMeOMi8Q_pad-12" x="45720" y="19050"/><use xlink:href="#GwUqDdRe7NuZgMeOMi8Q_pad-12" x="48260" y="19050"/><use xlink:href="#GwUqDdRe7NuZgMeOMi8Q_pad-12" x="50800" y="19050"/><use xlink:href="#GwUqDdRe7NuZgMeOMi8Q_pad-12" x="53340" y="19050"/><use xlink:href="#GwUqDdRe7NuZgMeOMi8Q_pad-12" x="55880" y="19050"/><use xlink:href="#GwUqDdRe7NuZgMeOMi8Q_pad-12" x="58420" y="19050"/><use xlink:href="#GwUqDdRe7NuZgMeOMi8Q_pad-12" x="60960" y="19050"/><use xlink:href="#GwUqDdRe7NuZgMeOMi8Q_pad-12" x="63500" y="19050"/><use xlink:href="#GwUqDdRe7NuZgMeOMi8Q_pad-12" x="66040" y="19050"/><use xlink:href="#GwUqDdRe7NuZgMeOMi8Q_pad-12" x="68580" y="19050"/><use xlink:href="#GwUqDdRe7NuZgMeOMi8Q_pad-12" x="71120" y="19050"/><use xlink:href="#GwUqDdRe7NuZgMeOMi8Q_pad-12" x="73660" y="19050"/><use xlink:href="#GwUqDdRe7NuZgMeOMi8Q_pad-12" x="76200" y="19050"/><use xlink:href="#GwUqDdRe7NuZgMeOMi8Q_pad-12" x="78740" y="19050"/><use xlink:href="#GwUqDdRe7NuZgMeOMi8Q_pad-12" x="78740" y="39370"/><use xlink:href="#GwUqDdRe7NuZgMeOMi8Q_pad-12" x="76200" y="39370"/><use xlink:href="#GwUqDdRe7NuZgMeOMi8Q_pad-12" x="73660" y="39370"/><use xlink:href="#GwUqDdRe7NuZgMeOMi8Q_pad-12" x="71120" y="39370"/><use xlink:href="#GwUqDdRe7NuZgMeOMi8Q_pad-10" x="25700" y="31750"/><use xlink:href="#GwUqDdRe7NuZgMeOMi8Q_pad-10" x="21700" y="31750"/><use xlink:href="#GwUqDdRe7NuZgMeOMi8Q_pad-10" x="23700" y="31750"/><use xlink:href="#GwUqDdRe7NuZgMeOMi8Q_pad-10" x="27700" y="31750"/><use xlink:href="#GwUqDdRe7NuZgMeOMi8Q_pad-10" x="19700" y="31750"/><use xlink:href="#GwUqDdRe7NuZgMeOMi8Q_pad-19" x="13530" y="50800"/><use xlink:href="#GwUqDdRe7NuZgMeOMi8Q_pad-19" x="85530" y="50800"/><use xlink:href="#GwUqDdRe7NuZgMeOMi8Q_pad-10" x="65135" y="14605"/><use xlink:href="#GwUqDdRe7NuZgMeOMi8Q_pad-10" x="63135" y="14605"/><use xlink:href="#GwUqDdRe7NuZgMeOMi8Q_pad-20" x="7831" y="55085"/><use xlink:href="#GwUqDdRe7NuZgMeOMi8Q_pad-20" x="5631" y="55085"/><use xlink:href="#GwUqDdRe7NuZgMeOMi8Q_pad-20" x="7831" y="47785"/><use xlink:href="#GwUqDdRe7NuZgMeOMi8Q_pad-20" x="5631" y="47785"/><use xlink:href="#GwUqDdRe7NuZgMeOMi8Q_pad-21" x="8481" y="53685"/><use xlink:href="#GwUqDdRe7NuZgMeOMi8Q_pad-21" x="8481" y="50685"/><use xlink:href="#GwUqDdRe7NuZgMeOMi8Q_pad-21" x="8481" y="49185"/><use xlink:href="#GwUqDdRe7NuZgMeOMi8Q_pad-22" x="6731" y="52935"/><use xlink:href="#GwUqDdRe7NuZgMeOMi8Q_pad-22" x="6731" y="49935"/><use xlink:href="#GwUqDdRe7NuZgMeOMi8Q_pad-16" x="10160" y="48818.8"/><use xlink:href="#GwUqDdRe7NuZgMeOMi8Q_pad-16" x="10160" y="50241.2"/><use xlink:href="#GwUqDdRe7NuZgMeOMi8Q_pad-17" x="10160" y="49530"/><use xlink:href="#GwUqDdRe7NuZgMeOMi8Q_pad-23" x="10160" y="48818.8"/><use xlink:href="#GwUqDdRe7NuZgMeOMi8Q_pad-23" x="10160" y="50241.2"/><use xlink:href="#GwUqDdRe7NuZgMeOMi8Q_pad-16" x="10160" y="54051.2"/><use xlink:href="#GwUqDdRe7NuZgMeOMi8Q_pad-16" x="10160" y="52628.8"/><use xlink:href="#GwUqDdRe7NuZgMeOMi8Q_pad-17" x="10160" y="53340"/><use xlink:href="#GwUqDdRe7NuZgMeOMi8Q_pad-10" x="56475" y="52275"/><use xlink:href="#GwUqDdRe7NuZgMeOMi8Q_pad-10" x="53975" y="52275"/><use xlink:href="#GwUqDdRe7NuZgMeOMi8Q_pad-10" x="51475" y="52275"/><use xlink:href="#GwUqDdRe7NuZgMeOMi8Q_pad-10" x="51475" y="55675"/><use xlink:href="#GwUqDdRe7NuZgMeOMi8Q_pad-10" x="53975" y="55675"/><use xlink:href="#GwUqDdRe7NuZgMeOMi8Q_pad-10" x="56475" y="55675"/><use xlink:href="#GwUqDdRe7NuZgMeOMi8Q_pad-24" x="57475" y="54975"/><use xlink:href="#GwUqDdRe7NuZgMeOMi8Q_pad-24" x="57475" y="52975"/><use xlink:href="#GwUqDdRe7NuZgMeOMi8Q_pad-24" x="50475" y="54975"/><use xlink:href="#GwUqDdRe7NuZgMeOMi8Q_pad-24" x="50475" y="52975"/><use xlink:href="#GwUqDdRe7NuZgMeOMi8Q_pad-10" x="92964" y="54340"/><use xlink:href="#GwUqDdRe7NuZgMeOMi8Q_pad-10" x="92964" y="52340"/><use xlink:href="#GwUqDdRe7NuZgMeOMi8Q_pad-10" x="47530" y="49530"/><use xlink:href="#GwUqDdRe7NuZgMeOMi8Q_pad-10" x="51530" y="49530"/><use xlink:href="#GwUqDdRe7NuZgMeOMi8Q_pad-10" x="49530" y="49530"/><use xlink:href="#GwUqDdRe7NuZgMeOMi8Q_pad-11" x="41275" y="36195"/><use xlink:href="#GwUqDdRe7NuZgMeOMi8Q_pad-11" x="42545" y="34925"/><use xlink:href="#GwUqDdRe7NuZgMeOMi8Q_pad-11" x="41275" y="33655"/><use xlink:href="#GwUqDdRe7NuZgMeOMi8Q_pad-25" x="91440" y="47485"/><use xlink:href="#GwUqDdRe7NuZgMeOMi8Q_pad-25" x="91440" y="42685"/><use xlink:href="#GwUqDdRe7NuZgMeOMi8Q_pad-10" x="35735" y="14605"/><use xlink:href="#GwUqDdRe7NuZgMeOMi8Q_pad-10" x="39735" y="14605"/><use xlink:href="#GwUqDdRe7NuZgMeOMi8Q_pad-10" x="37735" y="14605"/><use xlink:href="#GwUqDdRe7NuZgMeOMi8Q_pad-10" x="33735" y="14605"/><use xlink:href="#GwUqDdRe7NuZgMeOMi8Q_pad-10" x="41735" y="14605"/><use xlink:href="#GwUqDdRe7NuZgMeOMi8Q_pad-10" x="43735" y="14605"/><use xlink:href="#GwUqDdRe7NuZgMeOMi8Q_pad-26" x="24130" y="64770"/><use xlink:href="#GwUqDdRe7NuZgMeOMi8Q_pad-26" x="58420" y="33655"/><use xlink:href="#GwUqDdRe7NuZgMeOMi8Q_pad-26" x="55880" y="32385"/><use xlink:href="#GwUqDdRe7NuZgMeOMi8Q_pad-26" x="39910" y="41910"/><use xlink:href="#GwUqDdRe7NuZgMeOMi8Q_pad-26" x="31750" y="64135"/><use xlink:href="#GwUqDdRe7NuZgMeOMi8Q_pad-26" x="63500" y="66040"/><use xlink:href="#GwUqDdRe7NuZgMeOMi8Q_pad-26" x="59055" y="65405"/><use xlink:href="#GwUqDdRe7NuZgMeOMi8Q_pad-26" x="52578" y="60960"/><use xlink:href="#GwUqDdRe7NuZgMeOMi8Q_pad-26" x="52578" y="58420"/><use xlink:href="#GwUqDdRe7NuZgMeOMi8Q_pad-26" x="58420" y="58420"/><use xlink:href="#GwUqDdRe7NuZgMeOMi8Q_pad-26" x="62230" y="58420"/><use xlink:href="#GwUqDdRe7NuZgMeOMi8Q_pad-26" x="62230" y="60960"/><use xlink:href="#GwUqDdRe7NuZgMeOMi8Q_pad-26" x="66040" y="58420"/><use xlink:href="#GwUqDdRe7NuZgMeOMi8Q_pad-26" x="66040" y="60960"/><use xlink:href="#GwUqDdRe7NuZgMeOMi8Q_pad-26" x="66040" y="66040"/><use xlink:href="#GwUqDdRe7NuZgMeOMi8Q_pad-26" x="31750" y="62230"/><use xlink:href="#GwUqDdRe7NuZgMeOMi8Q_pad-26" x="60960" y="63500"/><use xlink:href="#GwUqDdRe7NuZgMeOMi8Q_pad-26" x="66040" y="63500"/><use xlink:href="#GwUqDdRe7NuZgMeOMi8Q_pad-26" x="47625" y="57785"/><use xlink:href="#GwUqDdRe7NuZgMeOMi8Q_pad-26" x="47625" y="66675"/><use xlink:href="#GwUqDdRe7NuZgMeOMi8Q_pad-26" x="38100" y="64135"/><use xlink:href="#GwUqDdRe7NuZgMeOMi8Q_pad-26" x="38100" y="58420"/><use xlink:href="#GwUqDdRe7NuZgMeOMi8Q_pad-26" x="31750" y="60325"/><use xlink:href="#GwUqDdRe7NuZgMeOMi8Q_pad-26" x="52197" y="13970"/><use xlink:href="#GwUqDdRe7NuZgMeOMi8Q_pad-26" x="22860" y="62230"/><use xlink:href="#GwUqDdRe7NuZgMeOMi8Q_pad-26" x="51435" y="23495"/><use xlink:href="#GwUqDdRe7NuZgMeOMi8Q_pad-26" x="48935" y="64135"/><use xlink:href="#GwUqDdRe7NuZgMeOMi8Q_pad-26" x="24130" y="59690"/><use xlink:href="#GwUqDdRe7NuZgMeOMi8Q_pad-26" x="54610" y="35560"/><use xlink:href="#GwUqDdRe7NuZgMeOMi8Q_pad-26" x="40264.7" y="20320"/><use xlink:href="#GwUqDdRe7NuZgMeOMi8Q_pad-26" x="52705" y="26035"/><use xlink:href="#GwUqDdRe7NuZgMeOMi8Q_pad-26" x="53340" y="31115"/><use xlink:href="#GwUqDdRe7NuZgMeOMi8Q_pad-26" x="67310" y="29210"/><use xlink:href="#GwUqDdRe7NuZgMeOMi8Q_pad-26" x="53340" y="33655"/><use xlink:href="#GwUqDdRe7NuZgMeOMi8Q_pad-26" x="62992" y="30734"/></g></svg>