G04 EAGLE Gerber RS-274X export*
G75*
%MOMM*%
%FSLAX34Y34*%
%LPD*%
%INTop Copper*%
%IPPOS*%
%AMOC8*
5,1,8,0,0,1.08239X$1,22.5*%
G01*
%ADD10R,1.200000X1.200000*%
%ADD11R,1.600000X4.400000*%
%ADD12R,1.000000X1.400000*%
%ADD13C,1.524000*%
%ADD14R,1.524000X1.524000*%
%ADD15R,3.000000X1.200000*%
%ADD16C,0.705600*%
%ADD17C,0.304800*%
%ADD18C,0.406400*%
%ADD19C,0.609600*%
%ADD20C,0.812800*%

G36*
X541001Y554897D02*
X541001Y554897D01*
X541000Y554897D01*
X525000Y554897D01*
X524995Y554893D01*
X524995Y554892D01*
X524995Y543707D01*
X518000Y543707D01*
X517995Y543703D01*
X517995Y543702D01*
X517995Y522082D01*
X517999Y522077D01*
X518000Y522077D01*
X524995Y522077D01*
X524995Y510892D01*
X524999Y510887D01*
X525000Y510887D01*
X529953Y510887D01*
X529953Y508351D01*
X524465Y508351D01*
X516683Y508351D01*
X516558Y508337D01*
X516432Y508330D01*
X516385Y508317D01*
X516337Y508311D01*
X516218Y508269D01*
X516097Y508234D01*
X516055Y508210D01*
X516009Y508194D01*
X515903Y508125D01*
X515793Y508064D01*
X515746Y508024D01*
X515716Y508005D01*
X515683Y507970D01*
X515606Y507905D01*
X515051Y507350D01*
X514972Y507251D01*
X514888Y507157D01*
X514864Y507115D01*
X514834Y507077D01*
X514780Y506963D01*
X514719Y506852D01*
X514706Y506805D01*
X514685Y506762D01*
X514659Y506638D01*
X514624Y506516D01*
X514619Y506456D01*
X514612Y506421D01*
X514613Y506373D01*
X514605Y506273D01*
X514605Y503684D01*
X511972Y492149D01*
X506838Y481489D01*
X499461Y472239D01*
X490211Y464862D01*
X479551Y459728D01*
X468016Y457095D01*
X451619Y457095D01*
X451494Y457081D01*
X451368Y457074D01*
X451321Y457061D01*
X451273Y457055D01*
X451154Y457013D01*
X451033Y456978D01*
X450990Y456954D01*
X450945Y456938D01*
X450839Y456869D01*
X450728Y456808D01*
X450682Y456768D01*
X450652Y456749D01*
X450619Y456714D01*
X450542Y456649D01*
X449052Y455159D01*
X449013Y455159D01*
X448864Y455142D01*
X448715Y455130D01*
X448691Y455122D01*
X448666Y455119D01*
X448526Y455069D01*
X448383Y455023D01*
X448362Y455010D01*
X448338Y455002D01*
X448212Y454921D01*
X448084Y454844D01*
X448066Y454826D01*
X448045Y454813D01*
X447941Y454705D01*
X447834Y454601D01*
X447821Y454580D01*
X447803Y454562D01*
X447726Y454434D01*
X447645Y454308D01*
X447637Y454284D01*
X447624Y454263D01*
X447579Y454121D01*
X447529Y453980D01*
X447526Y453955D01*
X447518Y453931D01*
X447506Y453782D01*
X447489Y453633D01*
X447492Y453608D01*
X447490Y453584D01*
X447512Y453436D01*
X447530Y453287D01*
X447538Y453264D01*
X447542Y453239D01*
X447597Y453100D01*
X447648Y452959D01*
X447661Y452938D01*
X447671Y452915D01*
X447756Y452793D01*
X447837Y452667D01*
X447855Y452649D01*
X447870Y452629D01*
X447980Y452529D01*
X448089Y452425D01*
X448110Y452412D01*
X448128Y452396D01*
X448259Y452323D01*
X448388Y452247D01*
X448416Y452237D01*
X448433Y452227D01*
X448479Y452214D01*
X448618Y452165D01*
X448981Y452068D01*
X449560Y451733D01*
X450033Y451260D01*
X450368Y450681D01*
X450541Y450035D01*
X450541Y446699D01*
X434476Y446699D01*
X434450Y446696D01*
X434424Y446698D01*
X434277Y446676D01*
X434130Y446659D01*
X434105Y446651D01*
X434079Y446647D01*
X433942Y446592D01*
X433802Y446542D01*
X433780Y446528D01*
X433755Y446518D01*
X433634Y446433D01*
X433509Y446353D01*
X433491Y446334D01*
X433469Y446319D01*
X433370Y446209D01*
X433267Y446102D01*
X433253Y446080D01*
X433236Y446060D01*
X433164Y445930D01*
X433088Y445803D01*
X433080Y445778D01*
X433067Y445755D01*
X433027Y445612D01*
X433002Y445536D01*
X432998Y445547D01*
X432994Y445573D01*
X432940Y445711D01*
X432890Y445850D01*
X432875Y445872D01*
X432866Y445897D01*
X432781Y446018D01*
X432701Y446143D01*
X432682Y446161D01*
X432667Y446183D01*
X432557Y446282D01*
X432450Y446385D01*
X432427Y446399D01*
X432408Y446416D01*
X432278Y446488D01*
X432151Y446564D01*
X432126Y446572D01*
X432103Y446585D01*
X431960Y446625D01*
X431819Y446670D01*
X431793Y446672D01*
X431768Y446680D01*
X431524Y446699D01*
X415459Y446699D01*
X415459Y450035D01*
X415632Y450681D01*
X415967Y451260D01*
X416440Y451733D01*
X417019Y452068D01*
X417382Y452165D01*
X417521Y452220D01*
X417662Y452270D01*
X417683Y452284D01*
X417706Y452293D01*
X417829Y452378D01*
X417955Y452459D01*
X417972Y452477D01*
X417992Y452491D01*
X418093Y452602D01*
X418197Y452710D01*
X418209Y452731D01*
X418226Y452750D01*
X418299Y452880D01*
X418376Y453009D01*
X418383Y453033D01*
X418395Y453054D01*
X418436Y453198D01*
X418482Y453341D01*
X418484Y453366D01*
X418491Y453389D01*
X418498Y453539D01*
X418510Y453688D01*
X418506Y453713D01*
X418507Y453738D01*
X418480Y453885D01*
X418458Y454033D01*
X418449Y454056D01*
X418444Y454080D01*
X418385Y454218D01*
X418329Y454357D01*
X418315Y454377D01*
X418305Y454400D01*
X418216Y454520D01*
X418130Y454643D01*
X418112Y454660D01*
X418097Y454679D01*
X417983Y454776D01*
X417872Y454876D01*
X417850Y454888D01*
X417831Y454904D01*
X417698Y454973D01*
X417567Y455045D01*
X417543Y455052D01*
X417521Y455063D01*
X417375Y455099D01*
X417231Y455140D01*
X417201Y455142D01*
X417182Y455147D01*
X417135Y455147D01*
X416987Y455159D01*
X416948Y455159D01*
X415459Y456648D01*
X415459Y470752D01*
X416948Y472241D01*
X449052Y472241D01*
X450542Y470751D01*
X450641Y470672D01*
X450735Y470588D01*
X450777Y470564D01*
X450815Y470534D01*
X450929Y470480D01*
X451040Y470419D01*
X451087Y470406D01*
X451130Y470385D01*
X451254Y470359D01*
X451376Y470324D01*
X451436Y470319D01*
X451471Y470312D01*
X451519Y470313D01*
X451619Y470305D01*
X462100Y470305D01*
X462132Y470308D01*
X462186Y470307D01*
X466415Y470545D01*
X466420Y470546D01*
X466426Y470545D01*
X466668Y470580D01*
X474914Y472463D01*
X474960Y472479D01*
X475008Y472487D01*
X475236Y472575D01*
X482857Y476245D01*
X482898Y476271D01*
X482943Y476290D01*
X483146Y476427D01*
X489759Y481700D01*
X489793Y481735D01*
X489832Y481763D01*
X490000Y481941D01*
X495273Y488554D01*
X495299Y488596D01*
X495331Y488632D01*
X495455Y488843D01*
X499125Y496464D01*
X499141Y496510D01*
X499164Y496552D01*
X499237Y496786D01*
X501120Y505032D01*
X501120Y505038D01*
X501122Y505043D01*
X501155Y505285D01*
X501216Y506364D01*
X501206Y506532D01*
X501197Y506701D01*
X501196Y506707D01*
X501196Y506712D01*
X501148Y506874D01*
X501101Y507036D01*
X501098Y507041D01*
X501097Y507046D01*
X501013Y507193D01*
X500931Y507340D01*
X500926Y507345D01*
X500924Y507349D01*
X500911Y507364D01*
X500772Y507527D01*
X500394Y507905D01*
X500295Y507984D01*
X500201Y508068D01*
X500158Y508092D01*
X500121Y508122D01*
X500007Y508176D01*
X499896Y508237D01*
X499849Y508250D01*
X499806Y508271D01*
X499682Y508297D01*
X499560Y508332D01*
X499500Y508337D01*
X499465Y508344D01*
X499417Y508343D01*
X499317Y508351D01*
X491535Y508351D01*
X486047Y508351D01*
X486047Y510887D01*
X491000Y510887D01*
X491005Y510891D01*
X491005Y510892D01*
X491005Y522077D01*
X498000Y522077D01*
X498005Y522081D01*
X498005Y522082D01*
X498005Y543702D01*
X498001Y543707D01*
X498000Y543707D01*
X491005Y543707D01*
X491005Y554892D01*
X491001Y554897D01*
X491000Y554897D01*
X475000Y554897D01*
X474995Y554893D01*
X474995Y554892D01*
X474995Y535939D01*
X472459Y535939D01*
X472459Y553466D01*
X472456Y553492D01*
X472458Y553518D01*
X472436Y553665D01*
X472419Y553812D01*
X472411Y553837D01*
X472407Y553863D01*
X472352Y554001D01*
X472302Y554140D01*
X472288Y554162D01*
X472278Y554187D01*
X472193Y554308D01*
X472113Y554433D01*
X472094Y554451D01*
X472079Y554473D01*
X471969Y554572D01*
X471862Y554675D01*
X471840Y554689D01*
X471820Y554706D01*
X471690Y554778D01*
X471563Y554854D01*
X471538Y554862D01*
X471515Y554875D01*
X471372Y554915D01*
X471231Y554960D01*
X471205Y554962D01*
X471180Y554970D01*
X470936Y554989D01*
X446709Y554989D01*
X446584Y554975D01*
X446458Y554968D01*
X446411Y554955D01*
X446363Y554949D01*
X446244Y554907D01*
X446123Y554872D01*
X446081Y554848D01*
X446035Y554832D01*
X445929Y554763D01*
X445819Y554702D01*
X445772Y554662D01*
X445742Y554643D01*
X445709Y554608D01*
X445632Y554543D01*
X385257Y494168D01*
X385178Y494069D01*
X385094Y493975D01*
X385070Y493932D01*
X385040Y493895D01*
X384986Y493780D01*
X384925Y493670D01*
X384912Y493623D01*
X384891Y493580D01*
X384865Y493456D01*
X384830Y493334D01*
X384825Y493274D01*
X384818Y493239D01*
X384819Y493191D01*
X384811Y493091D01*
X384811Y491758D01*
X384822Y491658D01*
X384824Y491557D01*
X384842Y491485D01*
X384851Y491411D01*
X384884Y491317D01*
X384909Y491219D01*
X384943Y491153D01*
X384968Y491083D01*
X385023Y490999D01*
X385069Y490910D01*
X385117Y490853D01*
X385157Y490790D01*
X385229Y490721D01*
X385294Y490644D01*
X385354Y490600D01*
X385408Y490548D01*
X385494Y490497D01*
X385575Y490437D01*
X385643Y490408D01*
X385707Y490369D01*
X385802Y490339D01*
X385895Y490299D01*
X385968Y490286D01*
X386039Y490263D01*
X386139Y490255D01*
X386238Y490237D01*
X386312Y490241D01*
X386386Y490235D01*
X386485Y490250D01*
X386586Y490255D01*
X386657Y490276D01*
X386731Y490287D01*
X386824Y490324D01*
X386921Y490352D01*
X386986Y490388D01*
X387055Y490416D01*
X387137Y490473D01*
X387225Y490522D01*
X387301Y490587D01*
X387341Y490615D01*
X387365Y490641D01*
X387411Y490681D01*
X387944Y491214D01*
X391679Y492761D01*
X395721Y492761D01*
X399456Y491214D01*
X402314Y488356D01*
X403861Y484621D01*
X403861Y480579D01*
X402314Y476844D01*
X399456Y473986D01*
X395721Y472439D01*
X391679Y472439D01*
X387944Y473986D01*
X387411Y474519D01*
X387333Y474582D01*
X387260Y474652D01*
X387196Y474690D01*
X387138Y474736D01*
X387047Y474779D01*
X386961Y474831D01*
X386890Y474853D01*
X386823Y474885D01*
X386725Y474906D01*
X386629Y474937D01*
X386555Y474943D01*
X386482Y474958D01*
X386382Y474957D01*
X386282Y474965D01*
X386208Y474954D01*
X386134Y474952D01*
X386037Y474928D01*
X385937Y474913D01*
X385868Y474886D01*
X385796Y474867D01*
X385707Y474821D01*
X385613Y474784D01*
X385552Y474742D01*
X385486Y474708D01*
X385409Y474643D01*
X385327Y474585D01*
X385277Y474530D01*
X385221Y474482D01*
X385161Y474401D01*
X385094Y474327D01*
X385058Y474261D01*
X385013Y474202D01*
X384974Y474110D01*
X384925Y474022D01*
X384905Y473950D01*
X384875Y473882D01*
X384858Y473783D01*
X384830Y473686D01*
X384822Y473586D01*
X384814Y473539D01*
X384816Y473503D01*
X384811Y473442D01*
X384811Y466290D01*
X384829Y466136D01*
X384842Y465982D01*
X384848Y465963D01*
X384851Y465944D01*
X384903Y465798D01*
X384952Y465651D01*
X384962Y465634D01*
X384968Y465616D01*
X385052Y465486D01*
X385133Y465353D01*
X385147Y465340D01*
X385157Y465323D01*
X385269Y465215D01*
X385377Y465105D01*
X385394Y465095D01*
X385408Y465081D01*
X385541Y465001D01*
X385672Y464919D01*
X385690Y464912D01*
X385707Y464902D01*
X385854Y464855D01*
X386001Y464804D01*
X386020Y464802D01*
X386039Y464796D01*
X386193Y464784D01*
X386348Y464767D01*
X386367Y464770D01*
X386386Y464768D01*
X386539Y464791D01*
X386694Y464810D01*
X386712Y464817D01*
X386731Y464820D01*
X386875Y464877D01*
X387021Y464931D01*
X387040Y464943D01*
X387055Y464949D01*
X387091Y464973D01*
X387229Y465058D01*
X388375Y465890D01*
X389800Y466616D01*
X391201Y467072D01*
X391201Y458176D01*
X391204Y458150D01*
X391202Y458124D01*
X391224Y457977D01*
X391241Y457830D01*
X391249Y457805D01*
X391253Y457779D01*
X391308Y457642D01*
X391358Y457502D01*
X391372Y457480D01*
X391382Y457455D01*
X391467Y457334D01*
X391547Y457209D01*
X391560Y457197D01*
X391515Y457150D01*
X391501Y457127D01*
X391484Y457108D01*
X391412Y456978D01*
X391336Y456851D01*
X391328Y456826D01*
X391315Y456803D01*
X391275Y456660D01*
X391230Y456519D01*
X391227Y456493D01*
X391220Y456468D01*
X391201Y456224D01*
X391201Y447328D01*
X389800Y447784D01*
X388375Y448510D01*
X387229Y449342D01*
X387094Y449418D01*
X386961Y449498D01*
X386943Y449504D01*
X386926Y449513D01*
X386776Y449557D01*
X386629Y449604D01*
X386610Y449605D01*
X386591Y449611D01*
X386436Y449620D01*
X386282Y449632D01*
X386263Y449629D01*
X386243Y449630D01*
X386090Y449603D01*
X385937Y449580D01*
X385919Y449573D01*
X385900Y449570D01*
X385757Y449509D01*
X385613Y449451D01*
X385597Y449440D01*
X385580Y449433D01*
X385454Y449341D01*
X385327Y449253D01*
X385314Y449238D01*
X385299Y449227D01*
X385197Y449109D01*
X385094Y448994D01*
X385084Y448977D01*
X385072Y448962D01*
X385000Y448825D01*
X384925Y448689D01*
X384920Y448670D01*
X384911Y448653D01*
X384873Y448503D01*
X384830Y448353D01*
X384828Y448330D01*
X384825Y448315D01*
X384824Y448272D01*
X384811Y448110D01*
X384811Y440958D01*
X384822Y440858D01*
X384824Y440757D01*
X384842Y440685D01*
X384851Y440611D01*
X384884Y440517D01*
X384909Y440419D01*
X384943Y440353D01*
X384968Y440283D01*
X385023Y440199D01*
X385069Y440110D01*
X385117Y440053D01*
X385157Y439990D01*
X385229Y439921D01*
X385294Y439844D01*
X385354Y439800D01*
X385408Y439748D01*
X385494Y439697D01*
X385575Y439637D01*
X385643Y439608D01*
X385707Y439569D01*
X385802Y439539D01*
X385895Y439499D01*
X385968Y439486D01*
X386039Y439463D01*
X386139Y439455D01*
X386238Y439437D01*
X386312Y439441D01*
X386386Y439435D01*
X386485Y439450D01*
X386586Y439455D01*
X386657Y439476D01*
X386731Y439487D01*
X386824Y439524D01*
X386921Y439552D01*
X386986Y439588D01*
X387055Y439616D01*
X387137Y439673D01*
X387225Y439722D01*
X387301Y439787D01*
X387341Y439815D01*
X387365Y439841D01*
X387411Y439881D01*
X387944Y440414D01*
X391679Y441961D01*
X395721Y441961D01*
X399456Y440414D01*
X402314Y437556D01*
X403861Y433821D01*
X403861Y429796D01*
X403864Y429770D01*
X403862Y429744D01*
X403884Y429597D01*
X403901Y429450D01*
X403909Y429425D01*
X403913Y429399D01*
X403968Y429261D01*
X404018Y429122D01*
X404032Y429100D01*
X404042Y429075D01*
X404127Y428954D01*
X404207Y428829D01*
X404226Y428811D01*
X404241Y428789D01*
X404351Y428690D01*
X404458Y428587D01*
X404480Y428573D01*
X404500Y428556D01*
X404630Y428484D01*
X404757Y428408D01*
X404782Y428400D01*
X404805Y428387D01*
X404948Y428347D01*
X405089Y428302D01*
X405115Y428300D01*
X405140Y428292D01*
X405384Y428273D01*
X413936Y428273D01*
X413962Y428276D01*
X413988Y428274D01*
X414135Y428296D01*
X414282Y428313D01*
X414307Y428321D01*
X414333Y428325D01*
X414471Y428380D01*
X414610Y428430D01*
X414632Y428444D01*
X414657Y428454D01*
X414778Y428539D01*
X414903Y428619D01*
X414921Y428638D01*
X414943Y428653D01*
X415042Y428763D01*
X415145Y428870D01*
X415159Y428892D01*
X415176Y428912D01*
X415248Y429042D01*
X415324Y429169D01*
X415332Y429194D01*
X415345Y429217D01*
X415385Y429360D01*
X415430Y429501D01*
X415432Y429527D01*
X415440Y429552D01*
X415459Y429796D01*
X415459Y430752D01*
X416948Y432241D01*
X416987Y432241D01*
X417136Y432258D01*
X417285Y432270D01*
X417309Y432278D01*
X417334Y432281D01*
X417474Y432331D01*
X417617Y432377D01*
X417638Y432390D01*
X417662Y432398D01*
X417788Y432479D01*
X417916Y432556D01*
X417934Y432574D01*
X417955Y432587D01*
X418059Y432695D01*
X418166Y432799D01*
X418179Y432820D01*
X418197Y432838D01*
X418274Y432966D01*
X418355Y433092D01*
X418363Y433116D01*
X418376Y433137D01*
X418421Y433279D01*
X418471Y433420D01*
X418474Y433445D01*
X418482Y433469D01*
X418494Y433618D01*
X418511Y433767D01*
X418508Y433792D01*
X418510Y433816D01*
X418488Y433964D01*
X418470Y434113D01*
X418462Y434136D01*
X418458Y434161D01*
X418403Y434300D01*
X418352Y434441D01*
X418339Y434462D01*
X418329Y434485D01*
X418244Y434607D01*
X418163Y434733D01*
X418145Y434751D01*
X418130Y434771D01*
X418020Y434871D01*
X417911Y434975D01*
X417890Y434988D01*
X417872Y435004D01*
X417741Y435077D01*
X417612Y435153D01*
X417584Y435163D01*
X417567Y435173D01*
X417521Y435186D01*
X417382Y435235D01*
X417019Y435332D01*
X416440Y435667D01*
X415967Y436140D01*
X415632Y436719D01*
X415459Y437365D01*
X415459Y440701D01*
X431524Y440701D01*
X431550Y440704D01*
X431576Y440702D01*
X431723Y440724D01*
X431870Y440741D01*
X431895Y440749D01*
X431921Y440753D01*
X432058Y440808D01*
X432198Y440858D01*
X432220Y440872D01*
X432245Y440882D01*
X432366Y440967D01*
X432491Y441047D01*
X432509Y441066D01*
X432531Y441081D01*
X432630Y441191D01*
X432733Y441298D01*
X432747Y441320D01*
X432764Y441340D01*
X432836Y441470D01*
X432912Y441597D01*
X432920Y441622D01*
X432933Y441645D01*
X432973Y441788D01*
X432998Y441864D01*
X433002Y441853D01*
X433006Y441827D01*
X433060Y441689D01*
X433110Y441550D01*
X433125Y441528D01*
X433134Y441503D01*
X433219Y441382D01*
X433299Y441257D01*
X433318Y441239D01*
X433333Y441217D01*
X433443Y441118D01*
X433550Y441015D01*
X433573Y441001D01*
X433592Y440984D01*
X433722Y440912D01*
X433849Y440836D01*
X433874Y440828D01*
X433897Y440815D01*
X434040Y440775D01*
X434181Y440730D01*
X434207Y440727D01*
X434232Y440720D01*
X434476Y440701D01*
X450541Y440701D01*
X450541Y437365D01*
X450368Y436719D01*
X450033Y436140D01*
X449560Y435667D01*
X448981Y435332D01*
X448618Y435235D01*
X448479Y435180D01*
X448338Y435130D01*
X448317Y435116D01*
X448294Y435107D01*
X448171Y435022D01*
X448045Y434941D01*
X448028Y434923D01*
X448008Y434909D01*
X447907Y434798D01*
X447803Y434690D01*
X447791Y434669D01*
X447774Y434650D01*
X447701Y434520D01*
X447624Y434391D01*
X447617Y434367D01*
X447605Y434346D01*
X447564Y434202D01*
X447518Y434059D01*
X447516Y434034D01*
X447509Y434011D01*
X447502Y433861D01*
X447490Y433712D01*
X447494Y433687D01*
X447493Y433662D01*
X447520Y433515D01*
X447542Y433367D01*
X447551Y433344D01*
X447556Y433320D01*
X447615Y433182D01*
X447671Y433043D01*
X447685Y433023D01*
X447695Y433000D01*
X447784Y432880D01*
X447870Y432757D01*
X447888Y432740D01*
X447903Y432721D01*
X448017Y432624D01*
X448128Y432524D01*
X448150Y432512D01*
X448169Y432496D01*
X448302Y432427D01*
X448433Y432355D01*
X448457Y432348D01*
X448479Y432337D01*
X448625Y432301D01*
X448769Y432260D01*
X448799Y432258D01*
X448818Y432253D01*
X448865Y432253D01*
X449013Y432241D01*
X449052Y432241D01*
X450541Y430752D01*
X450541Y429288D01*
X450544Y429262D01*
X450542Y429236D01*
X450564Y429089D01*
X450581Y428942D01*
X450589Y428917D01*
X450593Y428891D01*
X450648Y428753D01*
X450698Y428614D01*
X450712Y428592D01*
X450722Y428567D01*
X450807Y428446D01*
X450887Y428321D01*
X450906Y428303D01*
X450921Y428281D01*
X451031Y428182D01*
X451138Y428079D01*
X451160Y428065D01*
X451180Y428048D01*
X451310Y427976D01*
X451437Y427900D01*
X451462Y427892D01*
X451485Y427879D01*
X451628Y427839D01*
X451769Y427794D01*
X451795Y427792D01*
X451820Y427784D01*
X452064Y427765D01*
X460248Y427765D01*
X519115Y368897D01*
X519193Y368835D01*
X519266Y368765D01*
X519330Y368727D01*
X519388Y368681D01*
X519479Y368638D01*
X519565Y368586D01*
X519636Y368564D01*
X519703Y368532D01*
X519801Y368511D01*
X519897Y368480D01*
X519971Y368474D01*
X520044Y368459D01*
X520144Y368460D01*
X520244Y368452D01*
X520318Y368463D01*
X520392Y368465D01*
X520489Y368489D01*
X520589Y368504D01*
X520658Y368531D01*
X520730Y368550D01*
X520820Y368596D01*
X520913Y368633D01*
X520974Y368675D01*
X521040Y368709D01*
X521117Y368774D01*
X521199Y368832D01*
X521249Y368887D01*
X521305Y368935D01*
X521365Y369016D01*
X521432Y369090D01*
X521468Y369155D01*
X521513Y369215D01*
X521552Y369307D01*
X521601Y369395D01*
X521621Y369467D01*
X521651Y369535D01*
X521668Y369634D01*
X521696Y369731D01*
X521704Y369831D01*
X521712Y369878D01*
X521710Y369914D01*
X521715Y369975D01*
X521715Y410624D01*
X558856Y447765D01*
X563936Y447765D01*
X563962Y447768D01*
X563988Y447766D01*
X564135Y447788D01*
X564282Y447805D01*
X564307Y447813D01*
X564333Y447817D01*
X564471Y447872D01*
X564610Y447922D01*
X564632Y447936D01*
X564657Y447946D01*
X564778Y448031D01*
X564903Y448111D01*
X564921Y448130D01*
X564943Y448145D01*
X565042Y448255D01*
X565145Y448362D01*
X565159Y448384D01*
X565176Y448404D01*
X565248Y448534D01*
X565324Y448661D01*
X565332Y448686D01*
X565345Y448709D01*
X565385Y448852D01*
X565430Y448993D01*
X565432Y449019D01*
X565440Y449044D01*
X565459Y449288D01*
X565459Y450752D01*
X566948Y452241D01*
X566987Y452241D01*
X567136Y452258D01*
X567285Y452270D01*
X567309Y452278D01*
X567334Y452281D01*
X567474Y452331D01*
X567617Y452377D01*
X567638Y452390D01*
X567662Y452398D01*
X567788Y452479D01*
X567916Y452556D01*
X567934Y452574D01*
X567955Y452587D01*
X568059Y452695D01*
X568166Y452799D01*
X568180Y452820D01*
X568197Y452838D01*
X568274Y452966D01*
X568355Y453092D01*
X568363Y453116D01*
X568376Y453137D01*
X568421Y453280D01*
X568471Y453420D01*
X568474Y453445D01*
X568482Y453469D01*
X568494Y453618D01*
X568511Y453767D01*
X568508Y453792D01*
X568510Y453816D01*
X568488Y453964D01*
X568470Y454113D01*
X568462Y454136D01*
X568458Y454161D01*
X568403Y454300D01*
X568352Y454441D01*
X568339Y454462D01*
X568329Y454485D01*
X568244Y454607D01*
X568163Y454733D01*
X568145Y454751D01*
X568130Y454771D01*
X568019Y454871D01*
X567911Y454975D01*
X567890Y454988D01*
X567872Y455004D01*
X567740Y455077D01*
X567612Y455153D01*
X567584Y455163D01*
X567567Y455173D01*
X567521Y455186D01*
X567382Y455235D01*
X567019Y455332D01*
X566440Y455667D01*
X565967Y456140D01*
X565632Y456719D01*
X565459Y457365D01*
X565459Y460701D01*
X581524Y460701D01*
X581550Y460704D01*
X581576Y460702D01*
X581723Y460724D01*
X581870Y460741D01*
X581895Y460749D01*
X581921Y460753D01*
X582058Y460808D01*
X582198Y460858D01*
X582220Y460872D01*
X582245Y460882D01*
X582366Y460967D01*
X582491Y461047D01*
X582509Y461066D01*
X582531Y461081D01*
X582630Y461191D01*
X582733Y461298D01*
X582747Y461320D01*
X582764Y461340D01*
X582836Y461470D01*
X582912Y461597D01*
X582920Y461622D01*
X582933Y461645D01*
X582973Y461788D01*
X582998Y461864D01*
X583002Y461853D01*
X583006Y461827D01*
X583060Y461689D01*
X583110Y461550D01*
X583125Y461528D01*
X583134Y461503D01*
X583219Y461382D01*
X583299Y461257D01*
X583318Y461239D01*
X583333Y461217D01*
X583443Y461118D01*
X583550Y461015D01*
X583573Y461001D01*
X583592Y460984D01*
X583722Y460912D01*
X583849Y460836D01*
X583874Y460828D01*
X583897Y460815D01*
X584040Y460775D01*
X584181Y460730D01*
X584207Y460727D01*
X584232Y460720D01*
X584476Y460701D01*
X600541Y460701D01*
X600541Y457365D01*
X600368Y456719D01*
X600033Y456140D01*
X599560Y455667D01*
X598981Y455332D01*
X598618Y455235D01*
X598479Y455180D01*
X598338Y455130D01*
X598317Y455116D01*
X598294Y455107D01*
X598171Y455022D01*
X598045Y454941D01*
X598028Y454923D01*
X598008Y454909D01*
X597907Y454798D01*
X597803Y454690D01*
X597790Y454669D01*
X597774Y454650D01*
X597701Y454520D01*
X597624Y454391D01*
X597617Y454367D01*
X597605Y454346D01*
X597564Y454202D01*
X597518Y454059D01*
X597516Y454034D01*
X597509Y454011D01*
X597502Y453861D01*
X597490Y453712D01*
X597494Y453687D01*
X597493Y453662D01*
X597520Y453515D01*
X597542Y453367D01*
X597551Y453344D01*
X597556Y453320D01*
X597615Y453182D01*
X597671Y453043D01*
X597685Y453023D01*
X597695Y453000D01*
X597784Y452880D01*
X597870Y452757D01*
X597888Y452741D01*
X597903Y452721D01*
X598017Y452624D01*
X598128Y452524D01*
X598150Y452512D01*
X598169Y452496D01*
X598302Y452427D01*
X598433Y452355D01*
X598457Y452348D01*
X598479Y452337D01*
X598625Y452301D01*
X598769Y452260D01*
X598799Y452258D01*
X598818Y452253D01*
X598865Y452253D01*
X599013Y452241D01*
X599052Y452241D01*
X600541Y450752D01*
X600541Y449796D01*
X600544Y449770D01*
X600542Y449744D01*
X600564Y449597D01*
X600581Y449450D01*
X600589Y449425D01*
X600593Y449399D01*
X600648Y449261D01*
X600698Y449122D01*
X600712Y449100D01*
X600722Y449075D01*
X600807Y448954D01*
X600887Y448829D01*
X600906Y448811D01*
X600921Y448789D01*
X601031Y448690D01*
X601138Y448587D01*
X601160Y448573D01*
X601180Y448556D01*
X601310Y448484D01*
X601437Y448408D01*
X601462Y448400D01*
X601485Y448387D01*
X601628Y448347D01*
X601769Y448302D01*
X601795Y448300D01*
X601820Y448292D01*
X602064Y448273D01*
X606375Y448273D01*
X606501Y448287D01*
X606627Y448294D01*
X606673Y448307D01*
X606721Y448313D01*
X606840Y448355D01*
X606962Y448390D01*
X607004Y448414D01*
X607049Y448430D01*
X607156Y448499D01*
X607266Y448560D01*
X607312Y448600D01*
X607342Y448619D01*
X607376Y448654D01*
X607452Y448719D01*
X611939Y453206D01*
X611986Y453266D01*
X612041Y453319D01*
X612094Y453402D01*
X612155Y453479D01*
X612188Y453548D01*
X612229Y453612D01*
X612262Y453705D01*
X612304Y453794D01*
X612320Y453868D01*
X612346Y453941D01*
X612357Y454038D01*
X612378Y454134D01*
X612376Y454211D01*
X612385Y454287D01*
X612373Y454385D01*
X612372Y454483D01*
X612353Y454557D01*
X612344Y454633D01*
X612298Y454775D01*
X612287Y454821D01*
X612278Y454838D01*
X612269Y454866D01*
X612139Y455179D01*
X612139Y459221D01*
X613686Y462956D01*
X616544Y465814D01*
X620279Y467361D01*
X624321Y467361D01*
X628056Y465814D01*
X628589Y465281D01*
X628667Y465218D01*
X628740Y465148D01*
X628804Y465110D01*
X628862Y465064D01*
X628953Y465021D01*
X629039Y464969D01*
X629110Y464947D01*
X629177Y464915D01*
X629275Y464894D01*
X629371Y464863D01*
X629445Y464857D01*
X629518Y464842D01*
X629618Y464843D01*
X629718Y464835D01*
X629792Y464846D01*
X629866Y464848D01*
X629963Y464872D01*
X630063Y464887D01*
X630132Y464914D01*
X630204Y464933D01*
X630293Y464979D01*
X630387Y465016D01*
X630448Y465058D01*
X630514Y465092D01*
X630591Y465157D01*
X630673Y465215D01*
X630723Y465270D01*
X630779Y465318D01*
X630839Y465399D01*
X630906Y465473D01*
X630942Y465539D01*
X630987Y465598D01*
X631026Y465690D01*
X631075Y465778D01*
X631095Y465850D01*
X631125Y465918D01*
X631142Y466017D01*
X631170Y466114D01*
X631178Y466214D01*
X631186Y466261D01*
X631184Y466297D01*
X631189Y466358D01*
X631189Y473510D01*
X631171Y473664D01*
X631158Y473818D01*
X631152Y473837D01*
X631149Y473856D01*
X631097Y474002D01*
X631048Y474149D01*
X631038Y474166D01*
X631032Y474184D01*
X630948Y474314D01*
X630867Y474447D01*
X630853Y474460D01*
X630843Y474477D01*
X630731Y474585D01*
X630623Y474695D01*
X630606Y474705D01*
X630592Y474719D01*
X630459Y474799D01*
X630328Y474881D01*
X630310Y474888D01*
X630293Y474898D01*
X630146Y474945D01*
X629999Y474996D01*
X629980Y474998D01*
X629961Y475004D01*
X629807Y475016D01*
X629652Y475033D01*
X629633Y475030D01*
X629614Y475032D01*
X629461Y475009D01*
X629306Y474990D01*
X629288Y474983D01*
X629269Y474980D01*
X629125Y474923D01*
X628979Y474869D01*
X628960Y474857D01*
X628945Y474851D01*
X628909Y474827D01*
X628771Y474742D01*
X627625Y473910D01*
X626200Y473184D01*
X624799Y472728D01*
X624799Y481624D01*
X624796Y481650D01*
X624798Y481676D01*
X624776Y481823D01*
X624759Y481970D01*
X624751Y481995D01*
X624747Y482021D01*
X624692Y482158D01*
X624642Y482298D01*
X624628Y482320D01*
X624618Y482345D01*
X624533Y482466D01*
X624453Y482591D01*
X624440Y482603D01*
X624485Y482650D01*
X624499Y482673D01*
X624516Y482692D01*
X624588Y482822D01*
X624664Y482949D01*
X624672Y482974D01*
X624685Y482997D01*
X624725Y483140D01*
X624770Y483281D01*
X624772Y483307D01*
X624780Y483332D01*
X624799Y483576D01*
X624799Y492472D01*
X626200Y492016D01*
X627625Y491290D01*
X628771Y490458D01*
X628906Y490382D01*
X629039Y490302D01*
X629057Y490296D01*
X629074Y490287D01*
X629224Y490243D01*
X629371Y490196D01*
X629390Y490195D01*
X629409Y490189D01*
X629564Y490180D01*
X629718Y490168D01*
X629737Y490171D01*
X629757Y490170D01*
X629910Y490197D01*
X630063Y490220D01*
X630081Y490227D01*
X630100Y490230D01*
X630243Y490291D01*
X630387Y490349D01*
X630403Y490360D01*
X630420Y490367D01*
X630546Y490459D01*
X630673Y490547D01*
X630686Y490562D01*
X630701Y490573D01*
X630803Y490691D01*
X630906Y490806D01*
X630916Y490823D01*
X630928Y490838D01*
X631000Y490975D01*
X631075Y491111D01*
X631080Y491130D01*
X631089Y491147D01*
X631127Y491297D01*
X631170Y491447D01*
X631172Y491470D01*
X631175Y491485D01*
X631176Y491528D01*
X631189Y491690D01*
X631189Y493091D01*
X631175Y493216D01*
X631168Y493342D01*
X631155Y493389D01*
X631149Y493437D01*
X631107Y493556D01*
X631072Y493677D01*
X631048Y493719D01*
X631032Y493765D01*
X630963Y493871D01*
X630902Y493981D01*
X630862Y494028D01*
X630843Y494058D01*
X630808Y494091D01*
X630743Y494168D01*
X590261Y534650D01*
X590183Y534712D01*
X590110Y534782D01*
X590046Y534820D01*
X589988Y534866D01*
X589897Y534909D01*
X589811Y534961D01*
X589740Y534983D01*
X589673Y535015D01*
X589575Y535036D01*
X589479Y535067D01*
X589405Y535073D01*
X589332Y535089D01*
X589232Y535087D01*
X589132Y535095D01*
X589058Y535084D01*
X588984Y535083D01*
X588887Y535058D01*
X588787Y535043D01*
X588718Y535016D01*
X588646Y534998D01*
X588556Y534952D01*
X588463Y534915D01*
X588402Y534872D01*
X588336Y534838D01*
X588259Y534773D01*
X588177Y534716D01*
X588127Y534660D01*
X588071Y534612D01*
X588011Y534531D01*
X587944Y534457D01*
X587908Y534392D01*
X587863Y534332D01*
X587824Y534240D01*
X587801Y534199D01*
X582119Y534199D01*
X582119Y539881D01*
X582167Y539898D01*
X582251Y539953D01*
X582341Y539999D01*
X582397Y540047D01*
X582460Y540087D01*
X582530Y540159D01*
X582606Y540224D01*
X582650Y540284D01*
X582702Y540338D01*
X582754Y540424D01*
X582813Y540505D01*
X582843Y540573D01*
X582881Y540637D01*
X582911Y540732D01*
X582951Y540825D01*
X582964Y540898D01*
X582987Y540969D01*
X582995Y541069D01*
X583013Y541168D01*
X583009Y541242D01*
X583015Y541316D01*
X583000Y541415D01*
X582995Y541516D01*
X582974Y541587D01*
X582963Y541661D01*
X582926Y541754D01*
X582898Y541851D01*
X582862Y541916D01*
X582835Y541985D01*
X582777Y542067D01*
X582728Y542155D01*
X582663Y542231D01*
X582636Y542271D01*
X582609Y542295D01*
X582570Y542341D01*
X570368Y554543D01*
X570269Y554622D01*
X570175Y554706D01*
X570132Y554730D01*
X570095Y554760D01*
X569980Y554814D01*
X569870Y554875D01*
X569823Y554888D01*
X569780Y554909D01*
X569656Y554935D01*
X569534Y554970D01*
X569474Y554975D01*
X569439Y554982D01*
X569391Y554981D01*
X569291Y554989D01*
X545064Y554989D01*
X545038Y554986D01*
X545012Y554988D01*
X544865Y554966D01*
X544718Y554949D01*
X544693Y554941D01*
X544667Y554937D01*
X544529Y554882D01*
X544390Y554832D01*
X544368Y554818D01*
X544343Y554808D01*
X544222Y554723D01*
X544097Y554643D01*
X544079Y554624D01*
X544057Y554609D01*
X543958Y554499D01*
X543855Y554392D01*
X543841Y554370D01*
X543824Y554350D01*
X543752Y554220D01*
X543676Y554093D01*
X543668Y554068D01*
X543655Y554045D01*
X543615Y553902D01*
X543570Y553761D01*
X543568Y553735D01*
X543560Y553710D01*
X543541Y553466D01*
X543541Y535939D01*
X541005Y535939D01*
X541005Y554892D01*
X541001Y554897D01*
G37*
G36*
X591592Y229874D02*
X591592Y229874D01*
X591618Y229872D01*
X591765Y229894D01*
X591912Y229911D01*
X591937Y229919D01*
X591963Y229923D01*
X592101Y229978D01*
X592240Y230028D01*
X592262Y230042D01*
X592287Y230052D01*
X592408Y230137D01*
X592533Y230217D01*
X592551Y230236D01*
X592573Y230251D01*
X592672Y230361D01*
X592775Y230468D01*
X592789Y230490D01*
X592806Y230510D01*
X592878Y230640D01*
X592954Y230767D01*
X592962Y230792D01*
X592975Y230815D01*
X593015Y230958D01*
X593060Y231099D01*
X593062Y231125D01*
X593070Y231150D01*
X593089Y231394D01*
X593089Y235082D01*
X593078Y235182D01*
X593076Y235283D01*
X593058Y235355D01*
X593049Y235429D01*
X593016Y235523D01*
X592991Y235621D01*
X592957Y235687D01*
X592932Y235757D01*
X592877Y235841D01*
X592831Y235930D01*
X592783Y235987D01*
X592743Y236050D01*
X592671Y236119D01*
X592606Y236196D01*
X592546Y236240D01*
X592492Y236292D01*
X592406Y236343D01*
X592325Y236403D01*
X592257Y236432D01*
X592193Y236471D01*
X592098Y236501D01*
X592005Y236541D01*
X591932Y236554D01*
X591861Y236577D01*
X591761Y236585D01*
X591662Y236603D01*
X591588Y236599D01*
X591514Y236605D01*
X591415Y236590D01*
X591314Y236585D01*
X591243Y236564D01*
X591169Y236553D01*
X591076Y236516D01*
X590979Y236488D01*
X590914Y236452D01*
X590845Y236424D01*
X590763Y236367D01*
X590675Y236318D01*
X590599Y236253D01*
X590559Y236225D01*
X590535Y236199D01*
X590489Y236159D01*
X590006Y235676D01*
X586271Y234129D01*
X582229Y234129D01*
X578494Y235676D01*
X575636Y238534D01*
X574089Y242269D01*
X574089Y246311D01*
X575636Y250046D01*
X578494Y252904D01*
X582229Y254451D01*
X586271Y254451D01*
X590006Y252904D01*
X590489Y252421D01*
X590567Y252358D01*
X590640Y252288D01*
X590704Y252250D01*
X590762Y252204D01*
X590853Y252161D01*
X590939Y252109D01*
X591010Y252087D01*
X591077Y252055D01*
X591175Y252034D01*
X591271Y252003D01*
X591345Y251997D01*
X591418Y251982D01*
X591518Y251983D01*
X591618Y251975D01*
X591692Y251986D01*
X591766Y251988D01*
X591863Y252012D01*
X591963Y252027D01*
X592032Y252054D01*
X592104Y252073D01*
X592193Y252119D01*
X592287Y252156D01*
X592348Y252198D01*
X592414Y252232D01*
X592491Y252297D01*
X592573Y252355D01*
X592623Y252410D01*
X592679Y252458D01*
X592739Y252539D01*
X592806Y252613D01*
X592842Y252679D01*
X592887Y252738D01*
X592926Y252830D01*
X592975Y252918D01*
X592995Y252990D01*
X593025Y253058D01*
X593042Y253157D01*
X593070Y253254D01*
X593078Y253354D01*
X593086Y253401D01*
X593084Y253437D01*
X593089Y253498D01*
X593089Y260482D01*
X593078Y260582D01*
X593076Y260683D01*
X593058Y260755D01*
X593049Y260829D01*
X593016Y260923D01*
X592991Y261021D01*
X592957Y261087D01*
X592932Y261157D01*
X592877Y261241D01*
X592831Y261330D01*
X592783Y261387D01*
X592743Y261450D01*
X592671Y261519D01*
X592606Y261596D01*
X592546Y261640D01*
X592492Y261692D01*
X592406Y261743D01*
X592325Y261803D01*
X592257Y261832D01*
X592193Y261871D01*
X592098Y261901D01*
X592005Y261941D01*
X591932Y261954D01*
X591861Y261977D01*
X591761Y261985D01*
X591662Y262003D01*
X591588Y261999D01*
X591514Y262005D01*
X591415Y261990D01*
X591314Y261985D01*
X591243Y261964D01*
X591169Y261953D01*
X591076Y261916D01*
X590979Y261888D01*
X590914Y261852D01*
X590845Y261824D01*
X590763Y261767D01*
X590675Y261718D01*
X590599Y261653D01*
X590559Y261625D01*
X590535Y261599D01*
X590489Y261559D01*
X590006Y261076D01*
X586271Y259529D01*
X582229Y259529D01*
X578494Y261076D01*
X575636Y263934D01*
X574089Y267669D01*
X574089Y271711D01*
X575636Y275446D01*
X578494Y278304D01*
X582229Y279851D01*
X586271Y279851D01*
X590006Y278304D01*
X590489Y277821D01*
X590567Y277758D01*
X590640Y277688D01*
X590704Y277650D01*
X590762Y277604D01*
X590853Y277561D01*
X590939Y277509D01*
X591010Y277487D01*
X591077Y277455D01*
X591175Y277434D01*
X591271Y277403D01*
X591345Y277397D01*
X591418Y277382D01*
X591518Y277383D01*
X591618Y277375D01*
X591692Y277386D01*
X591766Y277388D01*
X591863Y277412D01*
X591963Y277427D01*
X592032Y277454D01*
X592104Y277473D01*
X592193Y277519D01*
X592287Y277556D01*
X592348Y277598D01*
X592414Y277632D01*
X592491Y277697D01*
X592573Y277755D01*
X592623Y277810D01*
X592679Y277858D01*
X592739Y277939D01*
X592806Y278013D01*
X592842Y278079D01*
X592887Y278138D01*
X592926Y278230D01*
X592975Y278318D01*
X592995Y278390D01*
X593025Y278458D01*
X593042Y278557D01*
X593070Y278654D01*
X593078Y278754D01*
X593086Y278801D01*
X593084Y278837D01*
X593089Y278898D01*
X593089Y293678D01*
X595322Y295911D01*
X613210Y295911D01*
X613364Y295929D01*
X613518Y295942D01*
X613537Y295948D01*
X613556Y295951D01*
X613702Y296003D01*
X613849Y296052D01*
X613866Y296062D01*
X613884Y296068D01*
X614014Y296152D01*
X614147Y296233D01*
X614160Y296247D01*
X614177Y296257D01*
X614285Y296369D01*
X614395Y296477D01*
X614405Y296494D01*
X614419Y296508D01*
X614499Y296641D01*
X614581Y296772D01*
X614588Y296790D01*
X614598Y296807D01*
X614645Y296954D01*
X614696Y297101D01*
X614698Y297120D01*
X614704Y297139D01*
X614716Y297293D01*
X614733Y297448D01*
X614730Y297467D01*
X614732Y297486D01*
X614709Y297639D01*
X614690Y297794D01*
X614683Y297812D01*
X614680Y297831D01*
X614623Y297975D01*
X614569Y298121D01*
X614557Y298140D01*
X614551Y298155D01*
X614527Y298191D01*
X614442Y298329D01*
X613610Y299475D01*
X612884Y300900D01*
X612428Y302301D01*
X621324Y302301D01*
X621350Y302304D01*
X621376Y302302D01*
X621523Y302324D01*
X621670Y302341D01*
X621695Y302349D01*
X621721Y302353D01*
X621858Y302408D01*
X621998Y302458D01*
X622020Y302472D01*
X622045Y302482D01*
X622166Y302567D01*
X622291Y302647D01*
X622309Y302666D01*
X622331Y302681D01*
X622430Y302791D01*
X622533Y302898D01*
X622547Y302920D01*
X622564Y302940D01*
X622636Y303070D01*
X622712Y303197D01*
X622720Y303222D01*
X622733Y303245D01*
X622773Y303388D01*
X622818Y303529D01*
X622820Y303555D01*
X622827Y303580D01*
X622847Y303824D01*
X622847Y304253D01*
X623276Y304253D01*
X623302Y304256D01*
X623328Y304254D01*
X623475Y304276D01*
X623622Y304293D01*
X623647Y304302D01*
X623673Y304306D01*
X623811Y304360D01*
X623950Y304410D01*
X623972Y304425D01*
X623997Y304434D01*
X624118Y304519D01*
X624243Y304599D01*
X624261Y304618D01*
X624283Y304633D01*
X624382Y304743D01*
X624485Y304850D01*
X624499Y304873D01*
X624516Y304892D01*
X624588Y305022D01*
X624664Y305149D01*
X624672Y305174D01*
X624685Y305197D01*
X624725Y305340D01*
X624770Y305481D01*
X624772Y305507D01*
X624780Y305532D01*
X624799Y305776D01*
X624799Y314672D01*
X626200Y314216D01*
X627625Y313490D01*
X628771Y312658D01*
X628906Y312582D01*
X629039Y312502D01*
X629057Y312496D01*
X629074Y312487D01*
X629224Y312443D01*
X629371Y312396D01*
X629390Y312395D01*
X629409Y312389D01*
X629564Y312380D01*
X629718Y312368D01*
X629737Y312371D01*
X629757Y312370D01*
X629910Y312397D01*
X630063Y312420D01*
X630081Y312427D01*
X630100Y312430D01*
X630243Y312491D01*
X630387Y312549D01*
X630403Y312560D01*
X630420Y312567D01*
X630546Y312659D01*
X630673Y312747D01*
X630686Y312762D01*
X630701Y312773D01*
X630803Y312891D01*
X630906Y313006D01*
X630916Y313023D01*
X630928Y313038D01*
X631000Y313175D01*
X631075Y313311D01*
X631080Y313330D01*
X631089Y313347D01*
X631127Y313497D01*
X631170Y313647D01*
X631172Y313670D01*
X631175Y313685D01*
X631176Y313728D01*
X631189Y313890D01*
X631189Y321042D01*
X631178Y321142D01*
X631176Y321243D01*
X631158Y321315D01*
X631149Y321389D01*
X631116Y321483D01*
X631091Y321581D01*
X631057Y321647D01*
X631032Y321717D01*
X630977Y321801D01*
X630931Y321890D01*
X630883Y321947D01*
X630843Y322010D01*
X630771Y322079D01*
X630706Y322156D01*
X630646Y322200D01*
X630592Y322252D01*
X630506Y322303D01*
X630425Y322363D01*
X630357Y322392D01*
X630293Y322431D01*
X630198Y322461D01*
X630105Y322501D01*
X630032Y322514D01*
X629961Y322537D01*
X629861Y322545D01*
X629762Y322563D01*
X629688Y322559D01*
X629614Y322565D01*
X629515Y322550D01*
X629414Y322545D01*
X629343Y322524D01*
X629269Y322513D01*
X629176Y322476D01*
X629079Y322448D01*
X629014Y322412D01*
X628945Y322384D01*
X628863Y322327D01*
X628775Y322278D01*
X628699Y322213D01*
X628659Y322185D01*
X628635Y322159D01*
X628589Y322119D01*
X628056Y321586D01*
X624321Y320039D01*
X620279Y320039D01*
X616544Y321586D01*
X613686Y324444D01*
X612139Y328179D01*
X612139Y332221D01*
X612240Y332464D01*
X612261Y332537D01*
X612291Y332607D01*
X612308Y332704D01*
X612335Y332799D01*
X612339Y332875D01*
X612353Y332950D01*
X612348Y333049D01*
X612352Y333147D01*
X612339Y333222D01*
X612335Y333298D01*
X612308Y333393D01*
X612290Y333490D01*
X612259Y333560D01*
X612238Y333633D01*
X612190Y333719D01*
X612151Y333809D01*
X612105Y333871D01*
X612068Y333937D01*
X611971Y334051D01*
X611943Y334089D01*
X611929Y334101D01*
X611910Y334124D01*
X607352Y338681D01*
X607253Y338760D01*
X607159Y338844D01*
X607117Y338868D01*
X607079Y338898D01*
X606965Y338952D01*
X606854Y339013D01*
X606808Y339026D01*
X606764Y339047D01*
X606641Y339073D01*
X606519Y339108D01*
X606458Y339113D01*
X606423Y339120D01*
X606375Y339119D01*
X606275Y339127D01*
X602064Y339127D01*
X602038Y339124D01*
X602012Y339126D01*
X601865Y339104D01*
X601718Y339087D01*
X601693Y339079D01*
X601667Y339075D01*
X601529Y339020D01*
X601390Y338970D01*
X601368Y338956D01*
X601343Y338946D01*
X601222Y338861D01*
X601097Y338781D01*
X601079Y338762D01*
X601057Y338747D01*
X600958Y338637D01*
X600855Y338530D01*
X600841Y338508D01*
X600824Y338488D01*
X600752Y338358D01*
X600676Y338231D01*
X600668Y338206D01*
X600655Y338183D01*
X600615Y338040D01*
X600570Y337899D01*
X600568Y337873D01*
X600560Y337848D01*
X600541Y337604D01*
X600541Y336648D01*
X599052Y335159D01*
X599013Y335159D01*
X598864Y335142D01*
X598715Y335130D01*
X598691Y335122D01*
X598666Y335119D01*
X598525Y335069D01*
X598383Y335023D01*
X598362Y335010D01*
X598338Y335002D01*
X598212Y334921D01*
X598084Y334844D01*
X598066Y334826D01*
X598045Y334813D01*
X597941Y334705D01*
X597834Y334601D01*
X597821Y334580D01*
X597803Y334562D01*
X597727Y334434D01*
X597646Y334308D01*
X597637Y334284D01*
X597624Y334263D01*
X597579Y334121D01*
X597529Y333980D01*
X597526Y333955D01*
X597518Y333931D01*
X597506Y333782D01*
X597489Y333633D01*
X597492Y333609D01*
X597490Y333584D01*
X597512Y333436D01*
X597530Y333287D01*
X597538Y333264D01*
X597542Y333239D01*
X597597Y333100D01*
X597648Y332959D01*
X597662Y332938D01*
X597671Y332915D01*
X597756Y332793D01*
X597838Y332667D01*
X597855Y332649D01*
X597870Y332629D01*
X597981Y332529D01*
X598089Y332425D01*
X598110Y332412D01*
X598128Y332396D01*
X598259Y332323D01*
X598388Y332247D01*
X598416Y332237D01*
X598433Y332227D01*
X598479Y332214D01*
X598618Y332165D01*
X598981Y332068D01*
X599560Y331733D01*
X600033Y331260D01*
X600368Y330681D01*
X600541Y330035D01*
X600541Y326699D01*
X584476Y326699D01*
X584450Y326696D01*
X584424Y326698D01*
X584277Y326676D01*
X584130Y326659D01*
X584105Y326651D01*
X584079Y326647D01*
X583942Y326592D01*
X583802Y326542D01*
X583780Y326528D01*
X583755Y326518D01*
X583634Y326433D01*
X583509Y326353D01*
X583491Y326334D01*
X583469Y326319D01*
X583370Y326209D01*
X583267Y326102D01*
X583253Y326080D01*
X583236Y326060D01*
X583164Y325930D01*
X583088Y325803D01*
X583080Y325778D01*
X583067Y325755D01*
X583027Y325612D01*
X583002Y325536D01*
X582998Y325547D01*
X582994Y325573D01*
X582940Y325711D01*
X582890Y325850D01*
X582875Y325872D01*
X582866Y325897D01*
X582781Y326018D01*
X582701Y326143D01*
X582682Y326161D01*
X582667Y326183D01*
X582557Y326282D01*
X582450Y326385D01*
X582427Y326399D01*
X582408Y326416D01*
X582278Y326488D01*
X582151Y326564D01*
X582126Y326572D01*
X582103Y326585D01*
X581960Y326625D01*
X581819Y326670D01*
X581793Y326672D01*
X581768Y326680D01*
X581524Y326699D01*
X565459Y326699D01*
X565459Y330035D01*
X565632Y330681D01*
X565967Y331260D01*
X566440Y331733D01*
X567019Y332068D01*
X567382Y332165D01*
X567520Y332220D01*
X567662Y332270D01*
X567683Y332284D01*
X567706Y332293D01*
X567829Y332378D01*
X567955Y332459D01*
X567972Y332477D01*
X567992Y332491D01*
X568092Y332602D01*
X568197Y332710D01*
X568210Y332731D01*
X568226Y332750D01*
X568299Y332880D01*
X568376Y333009D01*
X568383Y333032D01*
X568395Y333054D01*
X568436Y333198D01*
X568482Y333341D01*
X568484Y333366D01*
X568491Y333390D01*
X568498Y333539D01*
X568510Y333688D01*
X568506Y333713D01*
X568507Y333738D01*
X568480Y333885D01*
X568458Y334033D01*
X568449Y334056D01*
X568444Y334080D01*
X568384Y334218D01*
X568329Y334357D01*
X568315Y334377D01*
X568305Y334400D01*
X568216Y334520D01*
X568130Y334643D01*
X568112Y334659D01*
X568097Y334679D01*
X567983Y334776D01*
X567872Y334876D01*
X567850Y334888D01*
X567831Y334904D01*
X567698Y334972D01*
X567567Y335045D01*
X567543Y335052D01*
X567521Y335063D01*
X567375Y335099D01*
X567231Y335140D01*
X567201Y335142D01*
X567182Y335147D01*
X567135Y335147D01*
X566987Y335159D01*
X566948Y335159D01*
X565459Y336648D01*
X565459Y338112D01*
X565456Y338138D01*
X565458Y338164D01*
X565436Y338311D01*
X565419Y338458D01*
X565411Y338483D01*
X565407Y338509D01*
X565352Y338647D01*
X565302Y338786D01*
X565288Y338808D01*
X565278Y338833D01*
X565193Y338954D01*
X565113Y339079D01*
X565094Y339097D01*
X565079Y339119D01*
X564969Y339218D01*
X564862Y339321D01*
X564840Y339335D01*
X564820Y339352D01*
X564690Y339424D01*
X564563Y339500D01*
X564538Y339508D01*
X564515Y339521D01*
X564372Y339561D01*
X564231Y339606D01*
X564205Y339608D01*
X564180Y339616D01*
X563936Y339635D01*
X563655Y339635D01*
X563529Y339621D01*
X563403Y339614D01*
X563356Y339601D01*
X563308Y339595D01*
X563189Y339553D01*
X563068Y339518D01*
X563026Y339494D01*
X562980Y339478D01*
X562874Y339409D01*
X562764Y339348D01*
X562718Y339308D01*
X562688Y339289D01*
X562654Y339254D01*
X562578Y339189D01*
X559790Y336401D01*
X559742Y336342D01*
X559688Y336288D01*
X559634Y336205D01*
X559573Y336128D01*
X559541Y336059D01*
X559499Y335995D01*
X559466Y335902D01*
X559424Y335813D01*
X559408Y335739D01*
X559383Y335667D01*
X559372Y335569D01*
X559351Y335473D01*
X559352Y335396D01*
X559344Y335320D01*
X559355Y335222D01*
X559357Y335124D01*
X559376Y335050D01*
X559385Y334974D01*
X559430Y334832D01*
X559442Y334786D01*
X559451Y334769D01*
X559460Y334741D01*
X559789Y333947D01*
X559789Y331533D01*
X558865Y329302D01*
X557158Y327595D01*
X554927Y326671D01*
X553254Y326671D01*
X553104Y326654D01*
X552955Y326642D01*
X552932Y326634D01*
X552908Y326631D01*
X552766Y326581D01*
X552623Y326534D01*
X552602Y326522D01*
X552579Y326514D01*
X552453Y326432D01*
X552324Y326355D01*
X552307Y326338D01*
X552287Y326325D01*
X552182Y326217D01*
X552074Y326112D01*
X552061Y326092D01*
X552044Y326074D01*
X551967Y325945D01*
X551886Y325819D01*
X551878Y325796D01*
X551866Y325775D01*
X551820Y325632D01*
X551769Y325490D01*
X551767Y325466D01*
X551759Y325443D01*
X551747Y325294D01*
X551731Y325144D01*
X551733Y325120D01*
X551731Y325096D01*
X551754Y324947D01*
X551771Y324798D01*
X551780Y324770D01*
X551783Y324751D01*
X551801Y324707D01*
X551846Y324565D01*
X552169Y323787D01*
X552169Y321373D01*
X551245Y319142D01*
X549538Y317435D01*
X547307Y316511D01*
X544893Y316511D01*
X542662Y317435D01*
X540955Y319142D01*
X540395Y320494D01*
X540371Y320538D01*
X540354Y320585D01*
X540286Y320690D01*
X540226Y320799D01*
X540192Y320836D01*
X540165Y320878D01*
X540075Y320965D01*
X539992Y321057D01*
X539950Y321085D01*
X539914Y321120D01*
X539807Y321184D01*
X539705Y321255D01*
X539658Y321273D01*
X539615Y321299D01*
X539497Y321337D01*
X539381Y321383D01*
X539331Y321390D01*
X539283Y321406D01*
X539159Y321416D01*
X539036Y321434D01*
X538986Y321429D01*
X538936Y321434D01*
X538813Y321415D01*
X538689Y321405D01*
X538641Y321389D01*
X538591Y321382D01*
X538476Y321336D01*
X538357Y321298D01*
X538314Y321272D01*
X538267Y321253D01*
X538165Y321182D01*
X538059Y321118D01*
X538022Y321083D01*
X537981Y321054D01*
X537898Y320962D01*
X537809Y320875D01*
X537781Y320833D01*
X537748Y320795D01*
X537688Y320687D01*
X537620Y320582D01*
X537603Y320534D01*
X537579Y320490D01*
X537545Y320371D01*
X537504Y320253D01*
X537498Y320204D01*
X537484Y320155D01*
X537465Y319911D01*
X537465Y294709D01*
X537479Y294583D01*
X537486Y294457D01*
X537499Y294410D01*
X537505Y294362D01*
X537547Y294244D01*
X537582Y294122D01*
X537606Y294080D01*
X537622Y294034D01*
X537691Y293928D01*
X537752Y293818D01*
X537792Y293772D01*
X537811Y293742D01*
X537846Y293708D01*
X537911Y293632D01*
X538545Y292998D01*
X539469Y290767D01*
X539469Y288353D01*
X538545Y286122D01*
X536838Y284415D01*
X534607Y283491D01*
X532193Y283491D01*
X529962Y284415D01*
X528255Y286122D01*
X527331Y288353D01*
X527331Y290767D01*
X528255Y292998D01*
X528889Y293632D01*
X528968Y293731D01*
X529052Y293824D01*
X529076Y293867D01*
X529106Y293905D01*
X529160Y294019D01*
X529221Y294130D01*
X529234Y294176D01*
X529255Y294220D01*
X529281Y294343D01*
X529316Y294465D01*
X529321Y294526D01*
X529328Y294560D01*
X529327Y294608D01*
X529335Y294709D01*
X529335Y302504D01*
X529318Y302654D01*
X529306Y302803D01*
X529298Y302826D01*
X529295Y302850D01*
X529245Y302992D01*
X529198Y303135D01*
X529186Y303156D01*
X529178Y303179D01*
X529096Y303305D01*
X529019Y303434D01*
X529002Y303451D01*
X528989Y303471D01*
X528881Y303576D01*
X528776Y303684D01*
X528756Y303697D01*
X528738Y303714D01*
X528609Y303791D01*
X528483Y303872D01*
X528460Y303880D01*
X528439Y303892D01*
X528296Y303938D01*
X528154Y303989D01*
X528130Y303991D01*
X528107Y303999D01*
X527958Y304011D01*
X527808Y304027D01*
X527784Y304025D01*
X527760Y304027D01*
X527611Y304004D01*
X527462Y303987D01*
X527434Y303978D01*
X527415Y303975D01*
X527371Y303957D01*
X527229Y303911D01*
X526987Y303811D01*
X525752Y303811D01*
X525726Y303808D01*
X525700Y303810D01*
X525553Y303788D01*
X525406Y303771D01*
X525381Y303763D01*
X525355Y303759D01*
X525217Y303704D01*
X525078Y303654D01*
X525056Y303640D01*
X525031Y303630D01*
X524910Y303545D01*
X524785Y303465D01*
X524767Y303446D01*
X524745Y303431D01*
X524646Y303321D01*
X524543Y303214D01*
X524529Y303192D01*
X524512Y303172D01*
X524440Y303042D01*
X524364Y302915D01*
X524356Y302890D01*
X524343Y302867D01*
X524303Y302724D01*
X524258Y302583D01*
X524256Y302557D01*
X524248Y302532D01*
X524229Y302288D01*
X524229Y301053D01*
X523305Y298822D01*
X521598Y297115D01*
X519367Y296191D01*
X516953Y296191D01*
X515745Y296692D01*
X515600Y296733D01*
X515457Y296779D01*
X515433Y296781D01*
X515410Y296787D01*
X515259Y296795D01*
X515110Y296807D01*
X515086Y296803D01*
X515062Y296804D01*
X514914Y296777D01*
X514765Y296755D01*
X514743Y296746D01*
X514719Y296742D01*
X514581Y296682D01*
X514441Y296626D01*
X514421Y296612D01*
X514399Y296603D01*
X514278Y296513D01*
X514155Y296427D01*
X514139Y296409D01*
X514119Y296395D01*
X514022Y296280D01*
X513922Y296169D01*
X513910Y296147D01*
X513894Y296129D01*
X513826Y295995D01*
X513753Y295864D01*
X513747Y295840D01*
X513736Y295819D01*
X513699Y295673D01*
X513658Y295528D01*
X513656Y295499D01*
X513651Y295480D01*
X513651Y295433D01*
X513639Y295284D01*
X513639Y292229D01*
X513639Y292227D01*
X513639Y292225D01*
X513659Y292054D01*
X513679Y291883D01*
X513679Y291881D01*
X513680Y291879D01*
X513755Y291646D01*
X514119Y290767D01*
X514119Y288353D01*
X513195Y286122D01*
X511488Y284415D01*
X509257Y283491D01*
X506843Y283491D01*
X504612Y284415D01*
X504022Y285005D01*
X504002Y285022D01*
X503985Y285042D01*
X503866Y285130D01*
X503749Y285222D01*
X503725Y285233D01*
X503704Y285249D01*
X503568Y285307D01*
X503434Y285371D01*
X503408Y285377D01*
X503384Y285387D01*
X503238Y285413D01*
X503093Y285444D01*
X503067Y285444D01*
X503041Y285449D01*
X502893Y285441D01*
X502745Y285438D01*
X502719Y285432D01*
X502693Y285431D01*
X502551Y285390D01*
X502407Y285353D01*
X502384Y285341D01*
X502358Y285334D01*
X502229Y285262D01*
X502097Y285194D01*
X502077Y285177D01*
X502054Y285164D01*
X501868Y285005D01*
X501278Y284415D01*
X499047Y283491D01*
X496633Y283491D01*
X494402Y284415D01*
X493837Y284980D01*
X493817Y284997D01*
X493800Y285017D01*
X493680Y285105D01*
X493564Y285197D01*
X493540Y285208D01*
X493519Y285224D01*
X493383Y285283D01*
X493249Y285346D01*
X493223Y285351D01*
X493199Y285362D01*
X493053Y285388D01*
X492908Y285419D01*
X492882Y285419D01*
X492856Y285424D01*
X492708Y285416D01*
X492560Y285413D01*
X492534Y285407D01*
X492508Y285406D01*
X492366Y285365D01*
X492222Y285328D01*
X492198Y285316D01*
X492173Y285309D01*
X492044Y285237D01*
X491912Y285169D01*
X491892Y285152D01*
X491869Y285139D01*
X491683Y284980D01*
X491118Y284415D01*
X488887Y283491D01*
X486473Y283491D01*
X484242Y284415D01*
X482535Y286122D01*
X481611Y288353D01*
X481611Y290767D01*
X482535Y292998D01*
X483169Y293632D01*
X483248Y293731D01*
X483332Y293824D01*
X483356Y293867D01*
X483386Y293905D01*
X483440Y294019D01*
X483501Y294130D01*
X483514Y294176D01*
X483535Y294220D01*
X483561Y294343D01*
X483596Y294465D01*
X483601Y294526D01*
X483608Y294560D01*
X483607Y294608D01*
X483615Y294709D01*
X483615Y308835D01*
X483601Y308961D01*
X483594Y309087D01*
X483581Y309134D01*
X483575Y309182D01*
X483533Y309301D01*
X483498Y309422D01*
X483474Y309464D01*
X483458Y309510D01*
X483389Y309616D01*
X483328Y309726D01*
X483288Y309772D01*
X483269Y309802D01*
X483234Y309836D01*
X483169Y309912D01*
X475746Y317335D01*
X475647Y317414D01*
X475554Y317498D01*
X475511Y317522D01*
X475473Y317552D01*
X475359Y317606D01*
X475249Y317667D01*
X475202Y317680D01*
X475158Y317701D01*
X475035Y317727D01*
X474913Y317762D01*
X474852Y317767D01*
X474818Y317774D01*
X474770Y317773D01*
X474669Y317781D01*
X473773Y317781D01*
X471542Y318705D01*
X469835Y320412D01*
X468911Y322643D01*
X468911Y325057D01*
X469835Y327288D01*
X471542Y328995D01*
X473340Y329739D01*
X473472Y329813D01*
X473606Y329882D01*
X473624Y329897D01*
X473645Y329909D01*
X473756Y330010D01*
X473871Y330108D01*
X473885Y330127D01*
X473903Y330143D01*
X473989Y330267D01*
X474078Y330388D01*
X474088Y330410D01*
X474101Y330430D01*
X474156Y330570D01*
X474216Y330709D01*
X474220Y330732D01*
X474229Y330754D01*
X474251Y330903D01*
X474277Y331052D01*
X474276Y331075D01*
X474280Y331099D01*
X474267Y331250D01*
X474259Y331400D01*
X474253Y331422D01*
X474251Y331446D01*
X474204Y331590D01*
X474163Y331735D01*
X474151Y331755D01*
X474144Y331778D01*
X474066Y331907D01*
X473992Y332039D01*
X473974Y332060D01*
X473964Y332076D01*
X473932Y332110D01*
X473834Y332225D01*
X462289Y343752D01*
X462190Y343830D01*
X462097Y343914D01*
X462054Y343938D01*
X462016Y343968D01*
X461902Y344022D01*
X461792Y344083D01*
X461745Y344096D01*
X461701Y344117D01*
X461578Y344143D01*
X461457Y344178D01*
X461395Y344183D01*
X461360Y344190D01*
X461312Y344189D01*
X461213Y344197D01*
X460311Y344197D01*
X458080Y345121D01*
X456373Y346828D01*
X455449Y349059D01*
X455449Y351473D01*
X456373Y353704D01*
X458080Y355411D01*
X459739Y356098D01*
X459826Y356147D01*
X459919Y356187D01*
X459978Y356231D01*
X460043Y356267D01*
X460118Y356334D01*
X460198Y356394D01*
X460246Y356451D01*
X460301Y356501D01*
X460359Y356584D01*
X460423Y356660D01*
X460457Y356727D01*
X460500Y356788D01*
X460536Y356881D01*
X460582Y356971D01*
X460600Y357043D01*
X460627Y357112D01*
X460642Y357211D01*
X460666Y357309D01*
X460667Y357383D01*
X460678Y357457D01*
X460670Y357557D01*
X460671Y357657D01*
X460655Y357730D01*
X460649Y357804D01*
X460618Y357900D01*
X460597Y357998D01*
X460565Y358065D01*
X460542Y358136D01*
X460490Y358222D01*
X460447Y358313D01*
X460401Y358371D01*
X460363Y358434D01*
X460293Y358506D01*
X460230Y358585D01*
X460171Y358631D01*
X460120Y358684D01*
X460035Y358739D01*
X459956Y358801D01*
X459867Y358847D01*
X459826Y358873D01*
X459793Y358885D01*
X459739Y358912D01*
X458080Y359599D01*
X456373Y361306D01*
X455449Y363537D01*
X455449Y365951D01*
X456373Y368182D01*
X458080Y369889D01*
X460493Y370888D01*
X460625Y370961D01*
X460758Y371030D01*
X460777Y371046D01*
X460798Y371058D01*
X460909Y371159D01*
X461024Y371256D01*
X461038Y371276D01*
X461056Y371292D01*
X461142Y371415D01*
X461231Y371536D01*
X461241Y371559D01*
X461254Y371578D01*
X461310Y371718D01*
X461369Y371856D01*
X461373Y371880D01*
X461382Y371903D01*
X461404Y372051D01*
X461431Y372199D01*
X461429Y372224D01*
X461433Y372247D01*
X461421Y372398D01*
X461413Y372547D01*
X461406Y372571D01*
X461404Y372595D01*
X461358Y372738D01*
X461316Y372882D01*
X461304Y372903D01*
X461297Y372926D01*
X461219Y373056D01*
X461146Y373186D01*
X461127Y373209D01*
X461117Y373225D01*
X461084Y373259D01*
X460988Y373373D01*
X459453Y374907D01*
X459452Y374908D01*
X459451Y374910D01*
X459310Y375020D01*
X459180Y375124D01*
X459179Y375124D01*
X459177Y375126D01*
X458959Y375237D01*
X458080Y375601D01*
X456346Y377335D01*
X456309Y377390D01*
X456261Y377475D01*
X456209Y377532D01*
X456166Y377595D01*
X456093Y377661D01*
X456027Y377734D01*
X455964Y377777D01*
X455907Y377828D01*
X455821Y377876D01*
X455740Y377932D01*
X455669Y377960D01*
X455602Y377997D01*
X455507Y378024D01*
X455416Y378060D01*
X455340Y378071D01*
X455267Y378092D01*
X455118Y378104D01*
X455071Y378111D01*
X455052Y378109D01*
X455023Y378111D01*
X452064Y378111D01*
X452038Y378108D01*
X452012Y378110D01*
X451865Y378088D01*
X451718Y378071D01*
X451693Y378063D01*
X451667Y378059D01*
X451529Y378004D01*
X451390Y377954D01*
X451368Y377940D01*
X451343Y377930D01*
X451222Y377845D01*
X451097Y377765D01*
X451079Y377746D01*
X451057Y377731D01*
X450958Y377621D01*
X450855Y377514D01*
X450841Y377492D01*
X450824Y377472D01*
X450752Y377342D01*
X450676Y377215D01*
X450668Y377190D01*
X450655Y377167D01*
X450615Y377024D01*
X450570Y376883D01*
X450568Y376857D01*
X450560Y376832D01*
X450546Y376653D01*
X448670Y374777D01*
X448654Y374756D01*
X448634Y374740D01*
X448546Y374620D01*
X448454Y374504D01*
X448442Y374480D01*
X448427Y374459D01*
X448368Y374323D01*
X448305Y374189D01*
X448299Y374163D01*
X448289Y374139D01*
X448262Y373993D01*
X448231Y373848D01*
X448232Y373822D01*
X448227Y373796D01*
X448235Y373648D01*
X448237Y373500D01*
X448244Y373474D01*
X448245Y373448D01*
X448286Y373306D01*
X448322Y373162D01*
X448334Y373139D01*
X448342Y373113D01*
X448414Y372984D01*
X448482Y372852D01*
X448499Y372832D01*
X448512Y372809D01*
X448670Y372623D01*
X450541Y370752D01*
X450541Y356648D01*
X448670Y354777D01*
X448654Y354756D01*
X448634Y354740D01*
X448546Y354620D01*
X448454Y354504D01*
X448442Y354480D01*
X448427Y354459D01*
X448368Y354323D01*
X448305Y354189D01*
X448299Y354163D01*
X448289Y354139D01*
X448262Y353993D01*
X448231Y353848D01*
X448232Y353822D01*
X448227Y353796D01*
X448235Y353648D01*
X448237Y353500D01*
X448244Y353474D01*
X448245Y353448D01*
X448286Y353306D01*
X448322Y353162D01*
X448334Y353139D01*
X448342Y353113D01*
X448414Y352984D01*
X448482Y352852D01*
X448499Y352832D01*
X448512Y352809D01*
X448670Y352623D01*
X450541Y350752D01*
X450541Y336648D01*
X448670Y334777D01*
X448654Y334756D01*
X448634Y334740D01*
X448546Y334620D01*
X448454Y334504D01*
X448442Y334480D01*
X448427Y334459D01*
X448368Y334323D01*
X448305Y334189D01*
X448299Y334163D01*
X448289Y334139D01*
X448262Y333993D01*
X448231Y333848D01*
X448232Y333822D01*
X448227Y333796D01*
X448235Y333648D01*
X448237Y333500D01*
X448244Y333474D01*
X448245Y333448D01*
X448286Y333306D01*
X448322Y333162D01*
X448334Y333139D01*
X448342Y333113D01*
X448414Y332984D01*
X448482Y332852D01*
X448499Y332832D01*
X448512Y332809D01*
X448670Y332623D01*
X450541Y330752D01*
X450541Y316648D01*
X449052Y315159D01*
X416948Y315159D01*
X415431Y316676D01*
X415428Y316687D01*
X415419Y316761D01*
X415386Y316856D01*
X415361Y316953D01*
X415327Y317019D01*
X415302Y317089D01*
X415247Y317174D01*
X415201Y317263D01*
X415153Y317320D01*
X415113Y317382D01*
X415041Y317452D01*
X414976Y317528D01*
X414916Y317573D01*
X414862Y317624D01*
X414776Y317676D01*
X414695Y317736D01*
X414627Y317765D01*
X414563Y317803D01*
X414467Y317834D01*
X414375Y317874D01*
X414302Y317887D01*
X414231Y317909D01*
X414131Y317917D01*
X414032Y317935D01*
X413958Y317931D01*
X413884Y317937D01*
X413784Y317922D01*
X413684Y317917D01*
X413613Y317897D01*
X413539Y317886D01*
X413446Y317849D01*
X413349Y317821D01*
X413284Y317784D01*
X413215Y317757D01*
X413133Y317700D01*
X413045Y317651D01*
X412969Y317585D01*
X412929Y317558D01*
X412905Y317532D01*
X412859Y317492D01*
X404090Y308724D01*
X404043Y308664D01*
X403988Y308611D01*
X403935Y308528D01*
X403874Y308451D01*
X403841Y308382D01*
X403800Y308317D01*
X403767Y308225D01*
X403725Y308136D01*
X403709Y308061D01*
X403683Y307989D01*
X403672Y307891D01*
X403652Y307795D01*
X403653Y307719D01*
X403644Y307643D01*
X403656Y307545D01*
X403658Y307446D01*
X403676Y307372D01*
X403685Y307296D01*
X403731Y307154D01*
X403743Y307108D01*
X403751Y307091D01*
X403760Y307064D01*
X403861Y306821D01*
X403861Y302779D01*
X402314Y299044D01*
X401781Y298511D01*
X401718Y298433D01*
X401648Y298360D01*
X401610Y298296D01*
X401564Y298238D01*
X401521Y298147D01*
X401469Y298061D01*
X401447Y297990D01*
X401415Y297923D01*
X401394Y297825D01*
X401363Y297729D01*
X401357Y297655D01*
X401342Y297582D01*
X401343Y297482D01*
X401335Y297382D01*
X401346Y297308D01*
X401348Y297234D01*
X401372Y297137D01*
X401387Y297037D01*
X401414Y296968D01*
X401433Y296896D01*
X401479Y296807D01*
X401516Y296713D01*
X401558Y296652D01*
X401592Y296586D01*
X401657Y296509D01*
X401715Y296427D01*
X401770Y296377D01*
X401818Y296321D01*
X401899Y296261D01*
X401973Y296194D01*
X402039Y296158D01*
X402098Y296113D01*
X402190Y296074D01*
X402278Y296025D01*
X402350Y296005D01*
X402418Y295975D01*
X402517Y295958D01*
X402614Y295930D01*
X402714Y295922D01*
X402761Y295914D01*
X402797Y295916D01*
X402858Y295911D01*
X420678Y295911D01*
X422911Y293678D01*
X422911Y278798D01*
X422922Y278698D01*
X422924Y278597D01*
X422942Y278525D01*
X422951Y278451D01*
X422984Y278357D01*
X423009Y278259D01*
X423043Y278193D01*
X423068Y278123D01*
X423123Y278039D01*
X423169Y277950D01*
X423217Y277893D01*
X423257Y277830D01*
X423329Y277761D01*
X423394Y277684D01*
X423454Y277640D01*
X423508Y277588D01*
X423594Y277537D01*
X423675Y277477D01*
X423743Y277448D01*
X423807Y277409D01*
X423902Y277379D01*
X423995Y277339D01*
X424068Y277326D01*
X424139Y277303D01*
X424239Y277295D01*
X424338Y277277D01*
X424412Y277281D01*
X424486Y277275D01*
X424585Y277290D01*
X424686Y277295D01*
X424757Y277316D01*
X424831Y277327D01*
X424924Y277364D01*
X425021Y277392D01*
X425086Y277428D01*
X425155Y277456D01*
X425237Y277513D01*
X425325Y277562D01*
X425401Y277627D01*
X425441Y277655D01*
X425465Y277681D01*
X425511Y277721D01*
X426094Y278304D01*
X429829Y279851D01*
X433871Y279851D01*
X437606Y278304D01*
X440464Y275446D01*
X442011Y271711D01*
X442011Y267669D01*
X440464Y263934D01*
X437606Y261076D01*
X433871Y259529D01*
X429829Y259529D01*
X426094Y261076D01*
X425511Y261659D01*
X425432Y261722D01*
X425360Y261792D01*
X425296Y261830D01*
X425238Y261876D01*
X425147Y261919D01*
X425061Y261971D01*
X424990Y261993D01*
X424923Y262025D01*
X424825Y262046D01*
X424729Y262077D01*
X424655Y262083D01*
X424582Y262098D01*
X424482Y262097D01*
X424382Y262105D01*
X424308Y262094D01*
X424234Y262092D01*
X424137Y262068D01*
X424037Y262053D01*
X423968Y262026D01*
X423896Y262007D01*
X423807Y261961D01*
X423713Y261924D01*
X423652Y261882D01*
X423586Y261848D01*
X423509Y261783D01*
X423427Y261725D01*
X423377Y261670D01*
X423321Y261622D01*
X423261Y261541D01*
X423194Y261467D01*
X423158Y261401D01*
X423113Y261342D01*
X423074Y261250D01*
X423025Y261162D01*
X423005Y261090D01*
X422975Y261022D01*
X422958Y260923D01*
X422930Y260826D01*
X422922Y260726D01*
X422914Y260679D01*
X422916Y260643D01*
X422911Y260582D01*
X422911Y255974D01*
X422914Y255948D01*
X422912Y255922D01*
X422934Y255775D01*
X422951Y255628D01*
X422959Y255603D01*
X422963Y255577D01*
X423018Y255439D01*
X423068Y255300D01*
X423082Y255278D01*
X423092Y255253D01*
X423177Y255132D01*
X423257Y255007D01*
X423276Y254989D01*
X423291Y254967D01*
X423401Y254868D01*
X423508Y254765D01*
X423530Y254751D01*
X423550Y254734D01*
X423680Y254662D01*
X423807Y254586D01*
X423832Y254578D01*
X423855Y254565D01*
X423998Y254525D01*
X424139Y254480D01*
X424165Y254478D01*
X424190Y254470D01*
X424434Y254451D01*
X440522Y254451D01*
X442011Y252962D01*
X442011Y235618D01*
X440522Y234129D01*
X424434Y234129D01*
X424408Y234126D01*
X424382Y234128D01*
X424235Y234106D01*
X424088Y234089D01*
X424063Y234081D01*
X424037Y234077D01*
X423899Y234022D01*
X423760Y233972D01*
X423738Y233958D01*
X423713Y233948D01*
X423592Y233863D01*
X423467Y233783D01*
X423449Y233764D01*
X423427Y233749D01*
X423328Y233639D01*
X423225Y233532D01*
X423211Y233510D01*
X423194Y233490D01*
X423122Y233360D01*
X423046Y233233D01*
X423038Y233208D01*
X423025Y233185D01*
X422985Y233042D01*
X422940Y232901D01*
X422938Y232875D01*
X422930Y232850D01*
X422911Y232606D01*
X422911Y231394D01*
X422914Y231368D01*
X422912Y231342D01*
X422934Y231195D01*
X422951Y231048D01*
X422959Y231023D01*
X422963Y230997D01*
X423018Y230859D01*
X423068Y230720D01*
X423082Y230698D01*
X423092Y230673D01*
X423177Y230552D01*
X423257Y230427D01*
X423276Y230409D01*
X423291Y230387D01*
X423401Y230288D01*
X423508Y230185D01*
X423530Y230171D01*
X423550Y230154D01*
X423680Y230082D01*
X423807Y230006D01*
X423832Y229998D01*
X423855Y229985D01*
X423998Y229945D01*
X424139Y229900D01*
X424165Y229898D01*
X424190Y229890D01*
X424434Y229871D01*
X591566Y229871D01*
X591592Y229874D01*
G37*
%LPC*%
G36*
X555053Y489993D02*
X555053Y489993D01*
X552822Y490917D01*
X551115Y492624D01*
X550191Y494855D01*
X550191Y497269D01*
X551137Y499553D01*
X551179Y499698D01*
X551224Y499841D01*
X551226Y499865D01*
X551233Y499888D01*
X551240Y500039D01*
X551252Y500188D01*
X551249Y500212D01*
X551250Y500236D01*
X551223Y500384D01*
X551201Y500533D01*
X551192Y500555D01*
X551187Y500579D01*
X551128Y500717D01*
X551072Y500857D01*
X551058Y500877D01*
X551049Y500899D01*
X550959Y501020D01*
X550873Y501143D01*
X550855Y501159D01*
X550841Y501179D01*
X550726Y501276D01*
X550614Y501376D01*
X550593Y501388D01*
X550575Y501404D01*
X550441Y501472D01*
X550309Y501545D01*
X550286Y501551D01*
X550264Y501562D01*
X550119Y501599D01*
X549974Y501640D01*
X549945Y501642D01*
X549926Y501647D01*
X549879Y501647D01*
X549730Y501659D01*
X549208Y501659D01*
X547719Y503148D01*
X547719Y517252D01*
X549208Y518741D01*
X563312Y518741D01*
X564801Y517252D01*
X564801Y503148D01*
X563312Y501659D01*
X562790Y501659D01*
X562641Y501642D01*
X562491Y501630D01*
X562468Y501622D01*
X562444Y501619D01*
X562303Y501569D01*
X562159Y501523D01*
X562138Y501510D01*
X562116Y501502D01*
X561990Y501420D01*
X561860Y501343D01*
X561843Y501326D01*
X561823Y501313D01*
X561718Y501205D01*
X561611Y501100D01*
X561597Y501080D01*
X561581Y501062D01*
X561503Y500933D01*
X561422Y500807D01*
X561414Y500784D01*
X561402Y500763D01*
X561356Y500620D01*
X561306Y500478D01*
X561303Y500454D01*
X561296Y500431D01*
X561284Y500282D01*
X561267Y500132D01*
X561270Y500108D01*
X561268Y500084D01*
X561290Y499935D01*
X561308Y499786D01*
X561316Y499758D01*
X561319Y499739D01*
X561337Y499695D01*
X561383Y499553D01*
X562329Y497269D01*
X562329Y494855D01*
X561405Y492624D01*
X559698Y490917D01*
X557467Y489993D01*
X555053Y489993D01*
G37*
%LPD*%
%LPC*%
G36*
X577913Y489993D02*
X577913Y489993D01*
X575682Y490917D01*
X573975Y492624D01*
X573051Y494855D01*
X573051Y497269D01*
X573997Y499553D01*
X574039Y499698D01*
X574084Y499841D01*
X574086Y499865D01*
X574093Y499888D01*
X574100Y500039D01*
X574112Y500188D01*
X574109Y500212D01*
X574110Y500236D01*
X574083Y500384D01*
X574061Y500533D01*
X574052Y500555D01*
X574047Y500579D01*
X573988Y500717D01*
X573932Y500857D01*
X573918Y500877D01*
X573909Y500899D01*
X573819Y501020D01*
X573733Y501143D01*
X573715Y501159D01*
X573701Y501179D01*
X573586Y501276D01*
X573474Y501376D01*
X573453Y501388D01*
X573435Y501404D01*
X573301Y501472D01*
X573169Y501545D01*
X573146Y501551D01*
X573124Y501562D01*
X572979Y501599D01*
X572834Y501640D01*
X572805Y501642D01*
X572786Y501647D01*
X572739Y501647D01*
X572590Y501659D01*
X572068Y501659D01*
X570579Y503148D01*
X570579Y517252D01*
X572068Y518741D01*
X586172Y518741D01*
X587661Y517252D01*
X587661Y503148D01*
X586172Y501659D01*
X585650Y501659D01*
X585501Y501642D01*
X585351Y501630D01*
X585328Y501622D01*
X585304Y501619D01*
X585163Y501569D01*
X585019Y501523D01*
X584998Y501510D01*
X584976Y501502D01*
X584850Y501420D01*
X584720Y501343D01*
X584703Y501326D01*
X584683Y501313D01*
X584578Y501205D01*
X584471Y501100D01*
X584457Y501080D01*
X584441Y501062D01*
X584363Y500933D01*
X584282Y500807D01*
X584274Y500784D01*
X584262Y500763D01*
X584216Y500620D01*
X584166Y500478D01*
X584163Y500454D01*
X584156Y500431D01*
X584144Y500282D01*
X584127Y500132D01*
X584130Y500108D01*
X584128Y500084D01*
X584150Y499935D01*
X584168Y499786D01*
X584176Y499758D01*
X584179Y499739D01*
X584197Y499695D01*
X584243Y499553D01*
X585189Y497269D01*
X585189Y494855D01*
X584265Y492624D01*
X582558Y490917D01*
X580327Y489993D01*
X577913Y489993D01*
G37*
%LPD*%
%LPC*%
G36*
X556829Y259529D02*
X556829Y259529D01*
X553094Y261076D01*
X550236Y263934D01*
X548689Y267669D01*
X548689Y271711D01*
X550236Y275446D01*
X553094Y278304D01*
X556829Y279851D01*
X560871Y279851D01*
X564606Y278304D01*
X567464Y275446D01*
X569011Y271711D01*
X569011Y267669D01*
X567464Y263934D01*
X564606Y261076D01*
X560871Y259529D01*
X556829Y259529D01*
G37*
%LPD*%
%LPC*%
G36*
X455229Y259529D02*
X455229Y259529D01*
X451494Y261076D01*
X448636Y263934D01*
X447089Y267669D01*
X447089Y271711D01*
X448636Y275446D01*
X451494Y278304D01*
X455229Y279851D01*
X459271Y279851D01*
X463006Y278304D01*
X465864Y275446D01*
X467411Y271711D01*
X467411Y267669D01*
X465864Y263934D01*
X463006Y261076D01*
X459271Y259529D01*
X455229Y259529D01*
G37*
%LPD*%
%LPC*%
G36*
X480629Y259529D02*
X480629Y259529D01*
X476894Y261076D01*
X474036Y263934D01*
X472489Y267669D01*
X472489Y271711D01*
X474036Y275446D01*
X476894Y278304D01*
X480629Y279851D01*
X484671Y279851D01*
X488406Y278304D01*
X491264Y275446D01*
X492811Y271711D01*
X492811Y267669D01*
X491264Y263934D01*
X488406Y261076D01*
X484671Y259529D01*
X480629Y259529D01*
G37*
%LPD*%
%LPC*%
G36*
X506029Y259529D02*
X506029Y259529D01*
X502294Y261076D01*
X499436Y263934D01*
X497889Y267669D01*
X497889Y271711D01*
X499436Y275446D01*
X502294Y278304D01*
X506029Y279851D01*
X510071Y279851D01*
X513806Y278304D01*
X516664Y275446D01*
X518211Y271711D01*
X518211Y267669D01*
X516664Y263934D01*
X513806Y261076D01*
X510071Y259529D01*
X506029Y259529D01*
G37*
%LPD*%
%LPC*%
G36*
X531429Y259529D02*
X531429Y259529D01*
X527694Y261076D01*
X524836Y263934D01*
X523289Y267669D01*
X523289Y271711D01*
X524836Y275446D01*
X527694Y278304D01*
X531429Y279851D01*
X535471Y279851D01*
X539206Y278304D01*
X542064Y275446D01*
X543611Y271711D01*
X543611Y267669D01*
X542064Y263934D01*
X539206Y261076D01*
X535471Y259529D01*
X531429Y259529D01*
G37*
%LPD*%
%LPC*%
G36*
X455229Y234129D02*
X455229Y234129D01*
X451494Y235676D01*
X448636Y238534D01*
X447089Y242269D01*
X447089Y246311D01*
X448636Y250046D01*
X451494Y252904D01*
X455229Y254451D01*
X459271Y254451D01*
X463006Y252904D01*
X465864Y250046D01*
X467411Y246311D01*
X467411Y242269D01*
X465864Y238534D01*
X463006Y235676D01*
X459271Y234129D01*
X455229Y234129D01*
G37*
%LPD*%
%LPC*%
G36*
X531429Y234129D02*
X531429Y234129D01*
X527694Y235676D01*
X524836Y238534D01*
X523289Y242269D01*
X523289Y246311D01*
X524836Y250046D01*
X527694Y252904D01*
X531429Y254451D01*
X535471Y254451D01*
X539206Y252904D01*
X542064Y250046D01*
X543611Y246311D01*
X543611Y242269D01*
X542064Y238534D01*
X539206Y235676D01*
X535471Y234129D01*
X531429Y234129D01*
G37*
%LPD*%
%LPC*%
G36*
X506029Y234129D02*
X506029Y234129D01*
X502294Y235676D01*
X499436Y238534D01*
X497889Y242269D01*
X497889Y246311D01*
X499436Y250046D01*
X502294Y252904D01*
X506029Y254451D01*
X510071Y254451D01*
X513806Y252904D01*
X516664Y250046D01*
X518211Y246311D01*
X518211Y242269D01*
X516664Y238534D01*
X513806Y235676D01*
X510071Y234129D01*
X506029Y234129D01*
G37*
%LPD*%
%LPC*%
G36*
X565459Y466699D02*
X565459Y466699D01*
X565459Y470035D01*
X565632Y470681D01*
X565967Y471260D01*
X566440Y471733D01*
X567019Y472068D01*
X567665Y472241D01*
X580001Y472241D01*
X580001Y466699D01*
X565459Y466699D01*
G37*
%LPD*%
%LPC*%
G36*
X585999Y466699D02*
X585999Y466699D01*
X585999Y472241D01*
X598335Y472241D01*
X598981Y472068D01*
X599560Y471733D01*
X600033Y471260D01*
X600368Y470681D01*
X600541Y470035D01*
X600541Y466699D01*
X585999Y466699D01*
G37*
%LPD*%
%LPC*%
G36*
X585999Y315159D02*
X585999Y315159D01*
X585999Y320701D01*
X600541Y320701D01*
X600541Y317365D01*
X600368Y316719D01*
X600033Y316140D01*
X599560Y315667D01*
X598981Y315332D01*
X598335Y315159D01*
X585999Y315159D01*
G37*
%LPD*%
%LPC*%
G36*
X567665Y315159D02*
X567665Y315159D01*
X567019Y315332D01*
X566440Y315667D01*
X565967Y316140D01*
X565632Y316719D01*
X565459Y317365D01*
X565459Y320701D01*
X580001Y320701D01*
X580001Y315159D01*
X567665Y315159D01*
G37*
%LPD*%
%LPC*%
G36*
X474665Y508351D02*
X474665Y508351D01*
X474019Y508524D01*
X473440Y508859D01*
X472967Y509332D01*
X472632Y509911D01*
X472459Y510557D01*
X472459Y529845D01*
X474995Y529845D01*
X474995Y510892D01*
X474999Y510887D01*
X475000Y510887D01*
X479953Y510887D01*
X479953Y508351D01*
X474665Y508351D01*
G37*
%LPD*%
%LPC*%
G36*
X536047Y508351D02*
X536047Y508351D01*
X536047Y510887D01*
X541000Y510887D01*
X541005Y510891D01*
X541005Y510892D01*
X541005Y529845D01*
X543541Y529845D01*
X543541Y510557D01*
X543368Y509911D01*
X543033Y509332D01*
X542560Y508859D01*
X541981Y508524D01*
X541335Y508351D01*
X536047Y508351D01*
G37*
%LPD*%
%LPC*%
G36*
X396199Y459699D02*
X396199Y459699D01*
X396199Y467072D01*
X397600Y466616D01*
X399025Y465890D01*
X400319Y464950D01*
X401450Y463819D01*
X402390Y462525D01*
X403116Y461100D01*
X403572Y459699D01*
X396199Y459699D01*
G37*
%LPD*%
%LPC*%
G36*
X485149Y246789D02*
X485149Y246789D01*
X485149Y254162D01*
X486550Y253706D01*
X487975Y252980D01*
X489269Y252040D01*
X490400Y250909D01*
X491340Y249615D01*
X492066Y248190D01*
X492522Y246789D01*
X485149Y246789D01*
G37*
%LPD*%
%LPC*%
G36*
X561349Y246789D02*
X561349Y246789D01*
X561349Y254162D01*
X562750Y253706D01*
X564175Y252980D01*
X565469Y252040D01*
X566600Y250909D01*
X567540Y249615D01*
X568266Y248190D01*
X568722Y246789D01*
X561349Y246789D01*
G37*
%LPD*%
%LPC*%
G36*
X612428Y307299D02*
X612428Y307299D01*
X612884Y308700D01*
X613610Y310125D01*
X614550Y311419D01*
X615681Y312550D01*
X616975Y313490D01*
X618400Y314216D01*
X619801Y314672D01*
X619801Y307299D01*
X612428Y307299D01*
G37*
%LPD*%
%LPC*%
G36*
X612428Y485099D02*
X612428Y485099D01*
X612884Y486500D01*
X613610Y487925D01*
X614550Y489219D01*
X615681Y490350D01*
X616975Y491290D01*
X618400Y492016D01*
X619801Y492472D01*
X619801Y485099D01*
X612428Y485099D01*
G37*
%LPD*%
%LPC*%
G36*
X472778Y246789D02*
X472778Y246789D01*
X473234Y248190D01*
X473960Y249615D01*
X474900Y250909D01*
X476031Y252040D01*
X477325Y252980D01*
X478750Y253706D01*
X480151Y254162D01*
X480151Y246789D01*
X472778Y246789D01*
G37*
%LPD*%
%LPC*%
G36*
X561349Y241791D02*
X561349Y241791D01*
X568722Y241791D01*
X568266Y240390D01*
X567540Y238965D01*
X566600Y237671D01*
X565469Y236540D01*
X564175Y235600D01*
X562750Y234874D01*
X561349Y234418D01*
X561349Y241791D01*
G37*
%LPD*%
%LPC*%
G36*
X396199Y454701D02*
X396199Y454701D01*
X403572Y454701D01*
X403116Y453300D01*
X402390Y451875D01*
X401450Y450581D01*
X400319Y449450D01*
X399025Y448510D01*
X397600Y447784D01*
X396199Y447328D01*
X396199Y454701D01*
G37*
%LPD*%
%LPC*%
G36*
X548978Y246789D02*
X548978Y246789D01*
X549434Y248190D01*
X550160Y249615D01*
X551100Y250909D01*
X552231Y252040D01*
X553525Y252980D01*
X554950Y253706D01*
X556351Y254162D01*
X556351Y246789D01*
X548978Y246789D01*
G37*
%LPD*%
%LPC*%
G36*
X485149Y241791D02*
X485149Y241791D01*
X492522Y241791D01*
X492066Y240390D01*
X491340Y238965D01*
X490400Y237671D01*
X489269Y236540D01*
X487975Y235600D01*
X486550Y234874D01*
X485149Y234418D01*
X485149Y241791D01*
G37*
%LPD*%
%LPC*%
G36*
X478750Y234874D02*
X478750Y234874D01*
X477325Y235600D01*
X476031Y236540D01*
X474900Y237671D01*
X473960Y238965D01*
X473234Y240390D01*
X472778Y241791D01*
X480151Y241791D01*
X480151Y234418D01*
X478750Y234874D01*
G37*
%LPD*%
%LPC*%
G36*
X554950Y234874D02*
X554950Y234874D01*
X553525Y235600D01*
X552231Y236540D01*
X551100Y237671D01*
X550160Y238965D01*
X549434Y240390D01*
X548978Y241791D01*
X556351Y241791D01*
X556351Y234418D01*
X554950Y234874D01*
G37*
%LPD*%
%LPC*%
G36*
X618400Y473184D02*
X618400Y473184D01*
X616975Y473910D01*
X615681Y474850D01*
X614550Y475981D01*
X613610Y477275D01*
X612884Y478700D01*
X612428Y480101D01*
X619801Y480101D01*
X619801Y472728D01*
X618400Y473184D01*
G37*
%LPD*%
%LPC*%
G36*
X559259Y534199D02*
X559259Y534199D01*
X559259Y539741D01*
X562595Y539741D01*
X563241Y539568D01*
X563820Y539233D01*
X564293Y538760D01*
X564628Y538181D01*
X564801Y537535D01*
X564801Y534199D01*
X559259Y534199D01*
G37*
%LPD*%
%LPC*%
G36*
X570579Y534199D02*
X570579Y534199D01*
X570579Y537535D01*
X570752Y538181D01*
X571087Y538760D01*
X571560Y539233D01*
X572139Y539568D01*
X572785Y539741D01*
X576121Y539741D01*
X576121Y534199D01*
X570579Y534199D01*
G37*
%LPD*%
%LPC*%
G36*
X547719Y534199D02*
X547719Y534199D01*
X547719Y537535D01*
X547892Y538181D01*
X548227Y538760D01*
X548700Y539233D01*
X549279Y539568D01*
X549925Y539741D01*
X553261Y539741D01*
X553261Y534199D01*
X547719Y534199D01*
G37*
%LPD*%
%LPC*%
G36*
X582119Y522659D02*
X582119Y522659D01*
X582119Y528201D01*
X587661Y528201D01*
X587661Y524865D01*
X587488Y524219D01*
X587153Y523640D01*
X586680Y523167D01*
X586101Y522832D01*
X585455Y522659D01*
X582119Y522659D01*
G37*
%LPD*%
%LPC*%
G36*
X559259Y522659D02*
X559259Y522659D01*
X559259Y528201D01*
X564801Y528201D01*
X564801Y524865D01*
X564628Y524219D01*
X564293Y523640D01*
X563820Y523167D01*
X563241Y522832D01*
X562595Y522659D01*
X559259Y522659D01*
G37*
%LPD*%
%LPC*%
G36*
X549925Y522659D02*
X549925Y522659D01*
X549279Y522832D01*
X548700Y523167D01*
X548227Y523640D01*
X547892Y524219D01*
X547719Y524865D01*
X547719Y528201D01*
X553261Y528201D01*
X553261Y522659D01*
X549925Y522659D01*
G37*
%LPD*%
%LPC*%
G36*
X572785Y522659D02*
X572785Y522659D01*
X572139Y522832D01*
X571560Y523167D01*
X571087Y523640D01*
X570752Y524219D01*
X570579Y524865D01*
X570579Y528201D01*
X576121Y528201D01*
X576121Y522659D01*
X572785Y522659D01*
G37*
%LPD*%
D10*
X579120Y531200D03*
X579120Y510200D03*
X556260Y531200D03*
X556260Y510200D03*
D11*
X483000Y532892D03*
X533000Y532892D03*
D12*
X508000Y515892D03*
D13*
X393700Y482600D03*
X393700Y457200D03*
X393700Y431800D03*
X393700Y406400D03*
X393700Y381000D03*
X393700Y355600D03*
X393700Y330200D03*
X393700Y304800D03*
X622300Y482600D03*
X622300Y457200D03*
X622300Y431800D03*
X622300Y406400D03*
X622300Y381000D03*
X622300Y355600D03*
X622300Y330200D03*
X622300Y304800D03*
D14*
X431850Y244290D03*
D13*
X431850Y269690D03*
X457250Y244290D03*
X457250Y269690D03*
X482650Y244290D03*
X482650Y269690D03*
X508050Y244290D03*
X508050Y269690D03*
X533450Y244290D03*
X533450Y269690D03*
X558850Y244290D03*
X558850Y269690D03*
X584250Y244290D03*
X584250Y269690D03*
D15*
X583000Y323700D03*
X583000Y343700D03*
X433000Y323700D03*
X583000Y363700D03*
X583000Y383700D03*
X583000Y403700D03*
X583000Y423700D03*
X583000Y443700D03*
X583000Y463700D03*
X433000Y343700D03*
X433000Y363700D03*
X433000Y383700D03*
X433000Y403700D03*
X433000Y423700D03*
X433000Y443700D03*
X433000Y463700D03*
D16*
X414020Y515620D03*
X447040Y548640D03*
X568960Y548640D03*
X601980Y515620D03*
D17*
X533400Y396240D02*
X533400Y289560D01*
D16*
X533400Y289560D03*
D18*
X622300Y431792D02*
X622300Y431800D01*
X622300Y431792D02*
X614208Y423700D01*
X583000Y423700D01*
D17*
X560860Y423700D02*
X533400Y396240D01*
X560860Y423700D02*
X583000Y423700D01*
X548640Y370840D02*
X548640Y351790D01*
D16*
X548640Y351790D03*
D18*
X619600Y383700D02*
X622300Y381000D01*
X619600Y383700D02*
X583000Y383700D01*
D17*
X582840Y383540D01*
X561340Y383540D01*
X548640Y370840D01*
D16*
X546100Y322580D03*
D18*
X583000Y363700D02*
X614200Y363700D01*
X622300Y355600D01*
D17*
X583000Y363700D02*
X561340Y363700D01*
X556260Y358620D01*
X556260Y346710D01*
X546100Y336550D02*
X546100Y322580D01*
X546100Y336550D02*
X556260Y346710D01*
D16*
X553720Y332740D03*
D18*
X608800Y343700D02*
X622300Y330200D01*
X608800Y343700D02*
X583000Y343700D01*
D17*
X561340Y343700D01*
X553720Y336080D01*
X553720Y332740D01*
D16*
X508050Y289560D03*
D19*
X461518Y380746D02*
X458564Y383700D01*
X508050Y334010D02*
X508050Y289560D01*
X396400Y383700D02*
X393700Y381000D01*
X433000Y383700D02*
X458564Y383700D01*
X433000Y383700D02*
X396400Y383700D01*
D16*
X461518Y380746D03*
D19*
X508050Y334214D01*
D17*
X508050Y334010D01*
X541020Y342900D02*
X541020Y383540D01*
X561180Y403700D01*
D16*
X541020Y342900D03*
D18*
X622300Y406392D02*
X622300Y406400D01*
X622300Y406392D02*
X619608Y403700D01*
X583000Y403700D01*
D17*
X561180Y403700D01*
D16*
X487680Y289560D03*
X474980Y323850D03*
D17*
X487680Y311150D01*
X487680Y289560D01*
D16*
X497840Y289560D03*
X461518Y350266D03*
D17*
X497840Y313998D01*
X497840Y289560D01*
D18*
X401800Y363700D02*
X393700Y355600D01*
X401800Y363700D02*
X433000Y363700D01*
D16*
X508000Y360680D03*
D18*
X396400Y403700D02*
X393700Y406400D01*
X396400Y403700D02*
X433000Y403700D01*
D17*
X458564Y403860D01*
X501744Y360680D02*
X508000Y360680D01*
X501744Y360680D02*
X458564Y403860D01*
D16*
X518160Y302260D03*
D17*
X518160Y364104D01*
D18*
X401800Y423700D02*
X393700Y431800D01*
X401800Y423700D02*
X433000Y423700D01*
D17*
X458564Y423700D01*
X518160Y364104D01*
D16*
X461518Y364744D03*
X499318Y323850D03*
X475996Y350266D03*
D17*
X461518Y364744D01*
X475996Y350266D02*
X499318Y326944D01*
X499318Y323850D01*
D20*
X462100Y463700D02*
X463209Y463713D01*
X464318Y463754D01*
X465425Y463821D01*
X466530Y463914D01*
X467633Y464035D01*
X468732Y464182D01*
X469828Y464355D01*
X470919Y464555D01*
X472004Y464781D01*
X473085Y465034D01*
X474158Y465312D01*
X475225Y465617D01*
X476284Y465947D01*
X477335Y466302D01*
X478376Y466683D01*
X479409Y467089D01*
X480431Y467519D01*
X481442Y467974D01*
X482442Y468454D01*
X483431Y468958D01*
X484407Y469485D01*
X485369Y470036D01*
X486319Y470609D01*
X487254Y471206D01*
X488174Y471825D01*
X489079Y472466D01*
X489969Y473129D01*
X490842Y473813D01*
X491698Y474518D01*
X492537Y475243D01*
X493359Y475989D01*
X494162Y476754D01*
X494946Y477538D01*
X495711Y478341D01*
X496457Y479163D01*
X497182Y480002D01*
X497887Y480858D01*
X498571Y481731D01*
X499234Y482621D01*
X499875Y483526D01*
X500494Y484446D01*
X501091Y485381D01*
X501664Y486331D01*
X502215Y487293D01*
X502742Y488269D01*
X503246Y489258D01*
X503726Y490258D01*
X504181Y491269D01*
X504611Y492291D01*
X505017Y493324D01*
X505398Y494365D01*
X505753Y495416D01*
X506083Y496475D01*
X506388Y497542D01*
X506666Y498615D01*
X506919Y499696D01*
X507145Y500781D01*
X507345Y501872D01*
X507518Y502968D01*
X507665Y504067D01*
X507786Y505170D01*
X507879Y506275D01*
X507946Y507382D01*
X507987Y508491D01*
X508000Y509600D01*
X508000Y515892D01*
X462100Y463700D02*
X433000Y463700D01*
D18*
X407200Y343700D02*
X393700Y330200D01*
X407200Y343700D02*
X433000Y343700D01*
X412600Y323700D02*
X393700Y304800D01*
X412600Y323700D02*
X433000Y323700D01*
D16*
X579120Y496062D03*
D17*
X579120Y510200D01*
D16*
X556260Y496062D03*
D17*
X556260Y510200D01*
D16*
X525780Y309880D03*
D18*
X622350Y457150D02*
X622300Y457200D01*
X622350Y457150D02*
X608900Y443700D01*
X583000Y443700D01*
D17*
X560540Y443700D01*
X525780Y408940D01*
X525780Y309880D01*
M02*
