G04 EAGLE Gerber RS-274X export*
G75*
%MOMM*%
%FSLAX34Y34*%
%LPD*%
%INBottom Copper*%
%IPPOS*%
%AMOC8*
5,1,8,0,0,1.08239X$1,22.5*%
G01*
%ADD10R,1.500000X1.300000*%
%ADD11R,0.910000X1.220000*%
%ADD12R,1.600000X4.400000*%
%ADD13R,0.850000X0.800000*%
%ADD14C,1.524000*%
%ADD15R,1.524000X1.524000*%
%ADD16C,0.705600*%
%ADD17C,0.304800*%
%ADD18C,0.812800*%
%ADD19C,0.609600*%
%ADD20C,0.406400*%
%ADD21C,0.152400*%

G36*
X613364Y295929D02*
X613364Y295929D01*
X613518Y295942D01*
X613537Y295948D01*
X613556Y295951D01*
X613702Y296003D01*
X613849Y296052D01*
X613866Y296062D01*
X613884Y296068D01*
X614014Y296152D01*
X614147Y296233D01*
X614160Y296247D01*
X614177Y296257D01*
X614285Y296369D01*
X614395Y296477D01*
X614405Y296494D01*
X614419Y296508D01*
X614499Y296641D01*
X614581Y296772D01*
X614588Y296790D01*
X614598Y296807D01*
X614645Y296954D01*
X614696Y297101D01*
X614698Y297120D01*
X614704Y297139D01*
X614716Y297293D01*
X614733Y297448D01*
X614730Y297467D01*
X614732Y297486D01*
X614709Y297639D01*
X614690Y297794D01*
X614683Y297812D01*
X614680Y297831D01*
X614623Y297975D01*
X614569Y298121D01*
X614557Y298140D01*
X614551Y298155D01*
X614527Y298191D01*
X614442Y298329D01*
X613610Y299475D01*
X612884Y300900D01*
X612428Y302301D01*
X621324Y302301D01*
X621350Y302304D01*
X621376Y302302D01*
X621523Y302324D01*
X621670Y302341D01*
X621695Y302349D01*
X621721Y302353D01*
X621858Y302408D01*
X621998Y302458D01*
X622020Y302472D01*
X622045Y302482D01*
X622166Y302567D01*
X622291Y302647D01*
X622309Y302666D01*
X622331Y302681D01*
X622430Y302791D01*
X622533Y302898D01*
X622547Y302920D01*
X622564Y302940D01*
X622636Y303070D01*
X622712Y303197D01*
X622720Y303222D01*
X622733Y303245D01*
X622773Y303388D01*
X622818Y303529D01*
X622820Y303555D01*
X622827Y303580D01*
X622847Y303824D01*
X622847Y304253D01*
X623276Y304253D01*
X623302Y304256D01*
X623328Y304254D01*
X623475Y304276D01*
X623622Y304293D01*
X623647Y304302D01*
X623673Y304306D01*
X623811Y304360D01*
X623950Y304410D01*
X623972Y304425D01*
X623997Y304434D01*
X624118Y304519D01*
X624243Y304599D01*
X624261Y304618D01*
X624283Y304633D01*
X624382Y304743D01*
X624485Y304850D01*
X624499Y304873D01*
X624516Y304892D01*
X624588Y305022D01*
X624664Y305149D01*
X624672Y305174D01*
X624685Y305197D01*
X624725Y305340D01*
X624770Y305481D01*
X624772Y305507D01*
X624780Y305532D01*
X624799Y305776D01*
X624799Y314672D01*
X626200Y314216D01*
X627625Y313490D01*
X628771Y312658D01*
X628906Y312582D01*
X629039Y312502D01*
X629057Y312496D01*
X629074Y312487D01*
X629224Y312443D01*
X629371Y312396D01*
X629390Y312395D01*
X629409Y312389D01*
X629564Y312380D01*
X629718Y312368D01*
X629737Y312371D01*
X629757Y312370D01*
X629910Y312397D01*
X630063Y312420D01*
X630081Y312427D01*
X630100Y312430D01*
X630243Y312491D01*
X630387Y312549D01*
X630403Y312560D01*
X630420Y312567D01*
X630546Y312659D01*
X630673Y312747D01*
X630686Y312762D01*
X630701Y312773D01*
X630803Y312891D01*
X630906Y313006D01*
X630916Y313023D01*
X630928Y313038D01*
X631000Y313175D01*
X631075Y313311D01*
X631080Y313330D01*
X631089Y313347D01*
X631127Y313497D01*
X631170Y313647D01*
X631172Y313670D01*
X631175Y313685D01*
X631176Y313728D01*
X631189Y313890D01*
X631189Y321042D01*
X631178Y321142D01*
X631176Y321243D01*
X631158Y321315D01*
X631149Y321389D01*
X631116Y321483D01*
X631091Y321581D01*
X631057Y321647D01*
X631032Y321717D01*
X630977Y321801D01*
X630931Y321890D01*
X630883Y321947D01*
X630843Y322010D01*
X630771Y322079D01*
X630706Y322156D01*
X630646Y322200D01*
X630592Y322252D01*
X630506Y322303D01*
X630425Y322363D01*
X630357Y322392D01*
X630293Y322431D01*
X630198Y322461D01*
X630105Y322501D01*
X630032Y322514D01*
X629961Y322537D01*
X629861Y322545D01*
X629762Y322563D01*
X629688Y322559D01*
X629614Y322565D01*
X629515Y322550D01*
X629414Y322545D01*
X629343Y322524D01*
X629269Y322513D01*
X629176Y322476D01*
X629079Y322448D01*
X629014Y322412D01*
X628945Y322384D01*
X628863Y322327D01*
X628775Y322278D01*
X628699Y322213D01*
X628659Y322185D01*
X628635Y322159D01*
X628589Y322119D01*
X628056Y321586D01*
X624321Y320039D01*
X620279Y320039D01*
X616544Y321586D01*
X613686Y324444D01*
X612139Y328179D01*
X612139Y332221D01*
X613686Y335956D01*
X616544Y338814D01*
X620279Y340361D01*
X624321Y340361D01*
X628056Y338814D01*
X628589Y338281D01*
X628667Y338218D01*
X628740Y338148D01*
X628804Y338110D01*
X628862Y338064D01*
X628953Y338021D01*
X629039Y337969D01*
X629110Y337947D01*
X629177Y337915D01*
X629275Y337894D01*
X629371Y337863D01*
X629445Y337857D01*
X629518Y337842D01*
X629618Y337843D01*
X629718Y337835D01*
X629792Y337846D01*
X629866Y337848D01*
X629963Y337872D01*
X630063Y337887D01*
X630132Y337914D01*
X630204Y337933D01*
X630293Y337979D01*
X630387Y338016D01*
X630448Y338058D01*
X630514Y338092D01*
X630591Y338157D01*
X630673Y338215D01*
X630723Y338270D01*
X630779Y338318D01*
X630839Y338399D01*
X630906Y338473D01*
X630942Y338539D01*
X630987Y338598D01*
X631026Y338690D01*
X631075Y338778D01*
X631095Y338850D01*
X631125Y338918D01*
X631142Y339017D01*
X631170Y339114D01*
X631178Y339214D01*
X631186Y339261D01*
X631184Y339297D01*
X631189Y339358D01*
X631189Y346442D01*
X631178Y346542D01*
X631176Y346643D01*
X631158Y346715D01*
X631149Y346789D01*
X631116Y346883D01*
X631091Y346981D01*
X631057Y347047D01*
X631032Y347117D01*
X630977Y347201D01*
X630931Y347290D01*
X630883Y347347D01*
X630843Y347410D01*
X630771Y347479D01*
X630706Y347556D01*
X630646Y347600D01*
X630592Y347652D01*
X630506Y347703D01*
X630425Y347763D01*
X630357Y347792D01*
X630293Y347831D01*
X630198Y347861D01*
X630105Y347901D01*
X630032Y347914D01*
X629961Y347937D01*
X629861Y347945D01*
X629762Y347963D01*
X629688Y347959D01*
X629614Y347965D01*
X629515Y347950D01*
X629414Y347945D01*
X629343Y347924D01*
X629269Y347913D01*
X629176Y347876D01*
X629079Y347848D01*
X629014Y347812D01*
X628945Y347784D01*
X628863Y347727D01*
X628775Y347678D01*
X628699Y347613D01*
X628659Y347585D01*
X628635Y347559D01*
X628589Y347519D01*
X628056Y346986D01*
X624321Y345439D01*
X620279Y345439D01*
X616544Y346986D01*
X613686Y349844D01*
X612139Y353579D01*
X612139Y357621D01*
X613686Y361356D01*
X616544Y364214D01*
X620279Y365761D01*
X624321Y365761D01*
X628056Y364214D01*
X628589Y363681D01*
X628667Y363618D01*
X628740Y363548D01*
X628804Y363510D01*
X628862Y363464D01*
X628953Y363421D01*
X629039Y363369D01*
X629110Y363347D01*
X629177Y363315D01*
X629275Y363294D01*
X629371Y363263D01*
X629445Y363257D01*
X629518Y363242D01*
X629618Y363243D01*
X629718Y363235D01*
X629792Y363246D01*
X629866Y363248D01*
X629963Y363272D01*
X630063Y363287D01*
X630132Y363314D01*
X630204Y363333D01*
X630293Y363379D01*
X630387Y363416D01*
X630448Y363458D01*
X630514Y363492D01*
X630591Y363557D01*
X630673Y363615D01*
X630723Y363670D01*
X630779Y363718D01*
X630839Y363799D01*
X630906Y363873D01*
X630942Y363939D01*
X630987Y363998D01*
X631026Y364090D01*
X631075Y364178D01*
X631095Y364250D01*
X631125Y364318D01*
X631142Y364417D01*
X631170Y364514D01*
X631178Y364614D01*
X631186Y364661D01*
X631184Y364697D01*
X631189Y364758D01*
X631189Y371842D01*
X631178Y371942D01*
X631176Y372043D01*
X631158Y372115D01*
X631149Y372189D01*
X631116Y372283D01*
X631091Y372381D01*
X631057Y372447D01*
X631032Y372517D01*
X630977Y372601D01*
X630931Y372690D01*
X630883Y372747D01*
X630843Y372810D01*
X630771Y372879D01*
X630706Y372956D01*
X630646Y373000D01*
X630592Y373052D01*
X630506Y373103D01*
X630425Y373163D01*
X630357Y373192D01*
X630293Y373231D01*
X630198Y373261D01*
X630105Y373301D01*
X630032Y373314D01*
X629961Y373337D01*
X629861Y373345D01*
X629762Y373363D01*
X629688Y373359D01*
X629614Y373365D01*
X629515Y373350D01*
X629414Y373345D01*
X629343Y373324D01*
X629269Y373313D01*
X629176Y373276D01*
X629079Y373248D01*
X629014Y373212D01*
X628945Y373184D01*
X628863Y373127D01*
X628775Y373078D01*
X628699Y373013D01*
X628659Y372985D01*
X628635Y372959D01*
X628589Y372919D01*
X628056Y372386D01*
X624321Y370839D01*
X620279Y370839D01*
X616544Y372386D01*
X613686Y375244D01*
X612139Y378979D01*
X612139Y383021D01*
X613686Y386756D01*
X616544Y389614D01*
X620279Y391161D01*
X624321Y391161D01*
X628056Y389614D01*
X628589Y389081D01*
X628667Y389018D01*
X628740Y388948D01*
X628804Y388910D01*
X628862Y388864D01*
X628953Y388821D01*
X629039Y388769D01*
X629110Y388747D01*
X629177Y388715D01*
X629275Y388694D01*
X629371Y388663D01*
X629445Y388657D01*
X629518Y388642D01*
X629618Y388643D01*
X629718Y388635D01*
X629792Y388646D01*
X629866Y388648D01*
X629963Y388672D01*
X630063Y388687D01*
X630132Y388714D01*
X630204Y388733D01*
X630293Y388779D01*
X630387Y388816D01*
X630448Y388858D01*
X630514Y388892D01*
X630591Y388957D01*
X630673Y389015D01*
X630723Y389070D01*
X630779Y389118D01*
X630839Y389199D01*
X630906Y389273D01*
X630942Y389339D01*
X630987Y389398D01*
X631026Y389490D01*
X631075Y389578D01*
X631095Y389650D01*
X631125Y389718D01*
X631142Y389817D01*
X631170Y389914D01*
X631178Y390014D01*
X631186Y390061D01*
X631184Y390097D01*
X631189Y390158D01*
X631189Y397242D01*
X631178Y397342D01*
X631176Y397443D01*
X631158Y397515D01*
X631149Y397589D01*
X631116Y397683D01*
X631091Y397781D01*
X631057Y397847D01*
X631032Y397917D01*
X630977Y398001D01*
X630931Y398090D01*
X630883Y398147D01*
X630843Y398210D01*
X630771Y398279D01*
X630706Y398356D01*
X630646Y398400D01*
X630592Y398452D01*
X630506Y398503D01*
X630425Y398563D01*
X630357Y398592D01*
X630293Y398631D01*
X630198Y398661D01*
X630105Y398701D01*
X630032Y398714D01*
X629961Y398737D01*
X629861Y398745D01*
X629762Y398763D01*
X629688Y398759D01*
X629614Y398765D01*
X629515Y398750D01*
X629414Y398745D01*
X629343Y398724D01*
X629269Y398713D01*
X629176Y398676D01*
X629079Y398648D01*
X629014Y398612D01*
X628945Y398584D01*
X628863Y398527D01*
X628775Y398478D01*
X628699Y398413D01*
X628659Y398385D01*
X628635Y398359D01*
X628589Y398319D01*
X628056Y397786D01*
X624321Y396239D01*
X620279Y396239D01*
X616544Y397786D01*
X613686Y400644D01*
X612139Y404379D01*
X612139Y408421D01*
X613686Y412156D01*
X616544Y415014D01*
X620279Y416561D01*
X624321Y416561D01*
X628056Y415014D01*
X628589Y414481D01*
X628667Y414418D01*
X628740Y414348D01*
X628804Y414310D01*
X628862Y414264D01*
X628953Y414221D01*
X629039Y414169D01*
X629110Y414147D01*
X629177Y414115D01*
X629275Y414094D01*
X629371Y414063D01*
X629445Y414057D01*
X629518Y414042D01*
X629618Y414043D01*
X629718Y414035D01*
X629792Y414046D01*
X629866Y414048D01*
X629963Y414072D01*
X630063Y414087D01*
X630132Y414114D01*
X630204Y414133D01*
X630293Y414179D01*
X630387Y414216D01*
X630448Y414258D01*
X630514Y414292D01*
X630591Y414357D01*
X630673Y414415D01*
X630723Y414470D01*
X630779Y414518D01*
X630839Y414599D01*
X630906Y414673D01*
X630942Y414739D01*
X630987Y414798D01*
X631026Y414890D01*
X631075Y414978D01*
X631095Y415050D01*
X631125Y415118D01*
X631142Y415217D01*
X631170Y415314D01*
X631178Y415414D01*
X631186Y415461D01*
X631184Y415497D01*
X631189Y415558D01*
X631189Y422642D01*
X631178Y422742D01*
X631176Y422843D01*
X631158Y422915D01*
X631149Y422989D01*
X631116Y423083D01*
X631091Y423181D01*
X631057Y423247D01*
X631032Y423317D01*
X630977Y423401D01*
X630931Y423490D01*
X630883Y423547D01*
X630843Y423610D01*
X630771Y423679D01*
X630706Y423756D01*
X630646Y423800D01*
X630592Y423852D01*
X630506Y423903D01*
X630425Y423963D01*
X630357Y423992D01*
X630293Y424031D01*
X630198Y424061D01*
X630105Y424101D01*
X630032Y424114D01*
X629961Y424137D01*
X629861Y424145D01*
X629762Y424163D01*
X629688Y424159D01*
X629614Y424165D01*
X629515Y424150D01*
X629414Y424145D01*
X629343Y424124D01*
X629269Y424113D01*
X629176Y424076D01*
X629079Y424048D01*
X629014Y424012D01*
X628945Y423984D01*
X628863Y423927D01*
X628775Y423878D01*
X628699Y423813D01*
X628659Y423785D01*
X628635Y423759D01*
X628589Y423719D01*
X628056Y423186D01*
X624321Y421639D01*
X620279Y421639D01*
X616544Y423186D01*
X613686Y426044D01*
X612139Y429779D01*
X612139Y433821D01*
X613686Y437556D01*
X616544Y440414D01*
X620279Y441961D01*
X624321Y441961D01*
X628056Y440414D01*
X628589Y439881D01*
X628667Y439818D01*
X628740Y439748D01*
X628804Y439710D01*
X628862Y439664D01*
X628953Y439621D01*
X629039Y439569D01*
X629110Y439547D01*
X629177Y439515D01*
X629275Y439494D01*
X629371Y439463D01*
X629445Y439457D01*
X629518Y439442D01*
X629618Y439443D01*
X629718Y439435D01*
X629792Y439446D01*
X629866Y439448D01*
X629963Y439472D01*
X630063Y439487D01*
X630132Y439514D01*
X630204Y439533D01*
X630293Y439579D01*
X630387Y439616D01*
X630448Y439658D01*
X630514Y439692D01*
X630591Y439757D01*
X630673Y439815D01*
X630723Y439870D01*
X630779Y439918D01*
X630839Y439999D01*
X630906Y440073D01*
X630942Y440139D01*
X630987Y440198D01*
X631026Y440290D01*
X631075Y440378D01*
X631095Y440450D01*
X631125Y440518D01*
X631142Y440617D01*
X631170Y440714D01*
X631178Y440814D01*
X631186Y440861D01*
X631184Y440897D01*
X631189Y440958D01*
X631189Y448042D01*
X631178Y448142D01*
X631176Y448243D01*
X631158Y448315D01*
X631149Y448389D01*
X631116Y448483D01*
X631091Y448581D01*
X631057Y448647D01*
X631032Y448717D01*
X630977Y448801D01*
X630931Y448890D01*
X630883Y448947D01*
X630843Y449010D01*
X630771Y449079D01*
X630706Y449156D01*
X630646Y449200D01*
X630592Y449252D01*
X630506Y449303D01*
X630425Y449363D01*
X630357Y449392D01*
X630293Y449431D01*
X630198Y449461D01*
X630105Y449501D01*
X630032Y449514D01*
X629961Y449537D01*
X629861Y449545D01*
X629762Y449563D01*
X629688Y449559D01*
X629614Y449565D01*
X629515Y449550D01*
X629414Y449545D01*
X629343Y449524D01*
X629269Y449513D01*
X629176Y449476D01*
X629079Y449448D01*
X629014Y449412D01*
X628945Y449384D01*
X628863Y449327D01*
X628775Y449278D01*
X628699Y449213D01*
X628659Y449185D01*
X628635Y449159D01*
X628589Y449119D01*
X628056Y448586D01*
X624321Y447039D01*
X620279Y447039D01*
X616544Y448586D01*
X613686Y451444D01*
X612139Y455179D01*
X612139Y459221D01*
X613686Y462956D01*
X616544Y465814D01*
X620279Y467361D01*
X624321Y467361D01*
X628056Y465814D01*
X628589Y465281D01*
X628667Y465218D01*
X628740Y465148D01*
X628804Y465110D01*
X628862Y465064D01*
X628953Y465021D01*
X629039Y464969D01*
X629110Y464947D01*
X629177Y464915D01*
X629275Y464894D01*
X629371Y464863D01*
X629445Y464857D01*
X629518Y464842D01*
X629618Y464843D01*
X629718Y464835D01*
X629792Y464846D01*
X629866Y464848D01*
X629963Y464872D01*
X630063Y464887D01*
X630132Y464914D01*
X630204Y464933D01*
X630293Y464979D01*
X630387Y465016D01*
X630448Y465058D01*
X630514Y465092D01*
X630591Y465157D01*
X630673Y465215D01*
X630723Y465270D01*
X630779Y465318D01*
X630839Y465399D01*
X630906Y465473D01*
X630942Y465539D01*
X630987Y465598D01*
X631026Y465690D01*
X631075Y465778D01*
X631095Y465850D01*
X631125Y465918D01*
X631142Y466017D01*
X631170Y466114D01*
X631178Y466214D01*
X631186Y466261D01*
X631184Y466297D01*
X631189Y466358D01*
X631189Y473510D01*
X631171Y473664D01*
X631158Y473818D01*
X631152Y473837D01*
X631149Y473856D01*
X631097Y474002D01*
X631048Y474149D01*
X631038Y474166D01*
X631032Y474184D01*
X630948Y474314D01*
X630867Y474447D01*
X630853Y474460D01*
X630843Y474477D01*
X630731Y474585D01*
X630623Y474695D01*
X630606Y474705D01*
X630592Y474719D01*
X630459Y474799D01*
X630328Y474881D01*
X630310Y474888D01*
X630293Y474898D01*
X630146Y474945D01*
X629999Y474996D01*
X629980Y474998D01*
X629961Y475004D01*
X629807Y475016D01*
X629652Y475033D01*
X629633Y475030D01*
X629614Y475032D01*
X629461Y475009D01*
X629306Y474990D01*
X629288Y474983D01*
X629269Y474980D01*
X629125Y474923D01*
X628979Y474869D01*
X628960Y474857D01*
X628945Y474851D01*
X628909Y474827D01*
X628771Y474742D01*
X627625Y473910D01*
X626200Y473184D01*
X624799Y472728D01*
X624799Y481624D01*
X624796Y481650D01*
X624798Y481676D01*
X624776Y481823D01*
X624759Y481970D01*
X624751Y481995D01*
X624747Y482021D01*
X624692Y482158D01*
X624642Y482298D01*
X624628Y482320D01*
X624618Y482345D01*
X624533Y482466D01*
X624453Y482591D01*
X624440Y482603D01*
X624485Y482650D01*
X624499Y482673D01*
X624516Y482692D01*
X624588Y482822D01*
X624664Y482949D01*
X624672Y482974D01*
X624685Y482997D01*
X624725Y483140D01*
X624770Y483281D01*
X624772Y483307D01*
X624780Y483332D01*
X624799Y483576D01*
X624799Y492472D01*
X626200Y492016D01*
X627625Y491290D01*
X628771Y490458D01*
X628906Y490382D01*
X629039Y490302D01*
X629057Y490296D01*
X629074Y490287D01*
X629224Y490243D01*
X629371Y490196D01*
X629390Y490195D01*
X629409Y490189D01*
X629564Y490180D01*
X629718Y490168D01*
X629737Y490171D01*
X629757Y490170D01*
X629910Y490197D01*
X630063Y490220D01*
X630081Y490227D01*
X630100Y490230D01*
X630243Y490291D01*
X630387Y490349D01*
X630403Y490360D01*
X630420Y490367D01*
X630546Y490459D01*
X630673Y490547D01*
X630686Y490562D01*
X630701Y490573D01*
X630803Y490691D01*
X630906Y490806D01*
X630916Y490823D01*
X630928Y490838D01*
X631000Y490975D01*
X631075Y491111D01*
X631080Y491130D01*
X631089Y491147D01*
X631127Y491297D01*
X631170Y491447D01*
X631172Y491470D01*
X631175Y491485D01*
X631176Y491528D01*
X631189Y491690D01*
X631189Y493091D01*
X631175Y493216D01*
X631168Y493342D01*
X631155Y493389D01*
X631149Y493437D01*
X631107Y493556D01*
X631072Y493677D01*
X631048Y493719D01*
X631032Y493765D01*
X630963Y493871D01*
X630902Y493981D01*
X630862Y494028D01*
X630843Y494058D01*
X630808Y494091D01*
X630743Y494168D01*
X570368Y554543D01*
X570269Y554622D01*
X570175Y554706D01*
X570132Y554730D01*
X570095Y554760D01*
X569980Y554814D01*
X569870Y554875D01*
X569823Y554888D01*
X569780Y554909D01*
X569656Y554935D01*
X569534Y554970D01*
X569474Y554975D01*
X569439Y554982D01*
X569391Y554981D01*
X569291Y554989D01*
X545064Y554989D01*
X545038Y554986D01*
X545012Y554988D01*
X544865Y554966D01*
X544718Y554949D01*
X544693Y554941D01*
X544667Y554937D01*
X544529Y554882D01*
X544390Y554832D01*
X544368Y554818D01*
X544343Y554808D01*
X544222Y554723D01*
X544097Y554643D01*
X544079Y554624D01*
X544057Y554609D01*
X543958Y554499D01*
X543855Y554392D01*
X543841Y554370D01*
X543824Y554350D01*
X543752Y554220D01*
X543676Y554093D01*
X543668Y554068D01*
X543655Y554045D01*
X543615Y553902D01*
X543570Y553761D01*
X543568Y553735D01*
X543560Y553710D01*
X543541Y553466D01*
X543541Y535939D01*
X534524Y535939D01*
X534498Y535936D01*
X534472Y535938D01*
X534325Y535916D01*
X534178Y535899D01*
X534153Y535890D01*
X534127Y535887D01*
X533989Y535832D01*
X533850Y535782D01*
X533828Y535768D01*
X533803Y535758D01*
X533682Y535673D01*
X533557Y535593D01*
X533539Y535574D01*
X533517Y535559D01*
X533418Y535449D01*
X533315Y535342D01*
X533301Y535320D01*
X533284Y535300D01*
X533212Y535170D01*
X533136Y535043D01*
X533128Y535018D01*
X533115Y534995D01*
X533075Y534852D01*
X533030Y534711D01*
X533028Y534685D01*
X533020Y534660D01*
X533001Y534416D01*
X533001Y532891D01*
X531476Y532891D01*
X531450Y532888D01*
X531424Y532890D01*
X531277Y532868D01*
X531130Y532851D01*
X531105Y532842D01*
X531079Y532839D01*
X530941Y532784D01*
X530802Y532734D01*
X530780Y532720D01*
X530755Y532710D01*
X530634Y532625D01*
X530509Y532545D01*
X530491Y532526D01*
X530469Y532511D01*
X530370Y532401D01*
X530267Y532294D01*
X530253Y532272D01*
X530236Y532252D01*
X530164Y532122D01*
X530088Y531995D01*
X530080Y531970D01*
X530067Y531947D01*
X530027Y531804D01*
X529982Y531663D01*
X529980Y531637D01*
X529972Y531612D01*
X529953Y531368D01*
X529953Y508351D01*
X525291Y508351D01*
X486047Y508351D01*
X486047Y531368D01*
X486044Y531394D01*
X486046Y531420D01*
X486024Y531567D01*
X486007Y531714D01*
X485998Y531739D01*
X485995Y531765D01*
X485940Y531903D01*
X485890Y532042D01*
X485876Y532064D01*
X485866Y532089D01*
X485781Y532210D01*
X485701Y532335D01*
X485682Y532353D01*
X485667Y532375D01*
X485557Y532474D01*
X485450Y532577D01*
X485428Y532591D01*
X485408Y532608D01*
X485278Y532680D01*
X485151Y532756D01*
X485126Y532764D01*
X485103Y532777D01*
X484960Y532817D01*
X484819Y532862D01*
X484793Y532864D01*
X484768Y532872D01*
X484524Y532891D01*
X482999Y532891D01*
X482999Y534416D01*
X482996Y534442D01*
X482998Y534468D01*
X482976Y534615D01*
X482959Y534762D01*
X482950Y534787D01*
X482947Y534813D01*
X482892Y534951D01*
X482842Y535090D01*
X482828Y535112D01*
X482818Y535137D01*
X482733Y535258D01*
X482653Y535383D01*
X482634Y535401D01*
X482619Y535423D01*
X482509Y535522D01*
X482402Y535625D01*
X482380Y535639D01*
X482360Y535656D01*
X482230Y535728D01*
X482103Y535804D01*
X482078Y535812D01*
X482055Y535825D01*
X481912Y535865D01*
X481771Y535910D01*
X481745Y535912D01*
X481720Y535920D01*
X481476Y535939D01*
X472459Y535939D01*
X472459Y553466D01*
X472456Y553492D01*
X472458Y553518D01*
X472436Y553665D01*
X472419Y553812D01*
X472411Y553837D01*
X472407Y553863D01*
X472352Y554001D01*
X472302Y554140D01*
X472288Y554162D01*
X472278Y554187D01*
X472193Y554308D01*
X472113Y554433D01*
X472094Y554451D01*
X472079Y554473D01*
X471969Y554572D01*
X471862Y554675D01*
X471840Y554689D01*
X471820Y554706D01*
X471690Y554778D01*
X471563Y554854D01*
X471538Y554862D01*
X471515Y554875D01*
X471372Y554915D01*
X471231Y554960D01*
X471205Y554962D01*
X471180Y554970D01*
X470936Y554989D01*
X446709Y554989D01*
X446584Y554975D01*
X446458Y554968D01*
X446411Y554955D01*
X446363Y554949D01*
X446244Y554907D01*
X446123Y554872D01*
X446081Y554848D01*
X446035Y554832D01*
X445929Y554763D01*
X445819Y554702D01*
X445772Y554662D01*
X445742Y554643D01*
X445709Y554608D01*
X445632Y554543D01*
X385257Y494168D01*
X385178Y494069D01*
X385094Y493975D01*
X385070Y493932D01*
X385040Y493895D01*
X384986Y493780D01*
X384925Y493670D01*
X384912Y493623D01*
X384891Y493580D01*
X384865Y493456D01*
X384830Y493334D01*
X384825Y493274D01*
X384818Y493239D01*
X384819Y493191D01*
X384811Y493091D01*
X384811Y491758D01*
X384822Y491658D01*
X384824Y491557D01*
X384842Y491485D01*
X384851Y491411D01*
X384884Y491317D01*
X384909Y491219D01*
X384943Y491153D01*
X384968Y491083D01*
X385023Y490999D01*
X385069Y490910D01*
X385117Y490853D01*
X385157Y490790D01*
X385229Y490721D01*
X385294Y490644D01*
X385354Y490600D01*
X385408Y490548D01*
X385494Y490497D01*
X385575Y490437D01*
X385643Y490408D01*
X385707Y490369D01*
X385802Y490339D01*
X385895Y490299D01*
X385968Y490286D01*
X386039Y490263D01*
X386139Y490255D01*
X386238Y490237D01*
X386312Y490241D01*
X386386Y490235D01*
X386485Y490250D01*
X386586Y490255D01*
X386657Y490276D01*
X386731Y490287D01*
X386824Y490324D01*
X386921Y490352D01*
X386986Y490388D01*
X387055Y490416D01*
X387137Y490473D01*
X387225Y490522D01*
X387301Y490587D01*
X387341Y490615D01*
X387365Y490641D01*
X387411Y490681D01*
X387944Y491214D01*
X391679Y492761D01*
X395721Y492761D01*
X399456Y491214D01*
X402314Y488356D01*
X403861Y484621D01*
X403861Y480579D01*
X402314Y476844D01*
X399456Y473986D01*
X395721Y472439D01*
X391679Y472439D01*
X387944Y473986D01*
X387411Y474519D01*
X387333Y474582D01*
X387260Y474652D01*
X387196Y474690D01*
X387138Y474736D01*
X387047Y474779D01*
X386961Y474831D01*
X386890Y474853D01*
X386823Y474885D01*
X386725Y474906D01*
X386629Y474937D01*
X386555Y474943D01*
X386482Y474958D01*
X386382Y474957D01*
X386282Y474965D01*
X386208Y474954D01*
X386134Y474952D01*
X386037Y474928D01*
X385937Y474913D01*
X385868Y474886D01*
X385796Y474867D01*
X385707Y474821D01*
X385613Y474784D01*
X385552Y474742D01*
X385486Y474708D01*
X385409Y474643D01*
X385327Y474585D01*
X385277Y474530D01*
X385221Y474482D01*
X385161Y474401D01*
X385094Y474327D01*
X385058Y474261D01*
X385013Y474202D01*
X384974Y474110D01*
X384925Y474022D01*
X384905Y473950D01*
X384875Y473882D01*
X384858Y473783D01*
X384830Y473686D01*
X384822Y473586D01*
X384814Y473539D01*
X384816Y473503D01*
X384811Y473442D01*
X384811Y466290D01*
X384829Y466136D01*
X384842Y465982D01*
X384848Y465963D01*
X384851Y465944D01*
X384903Y465798D01*
X384952Y465651D01*
X384962Y465634D01*
X384968Y465616D01*
X385052Y465486D01*
X385133Y465353D01*
X385147Y465340D01*
X385157Y465323D01*
X385269Y465215D01*
X385377Y465105D01*
X385394Y465095D01*
X385408Y465081D01*
X385541Y465001D01*
X385672Y464919D01*
X385690Y464912D01*
X385707Y464902D01*
X385854Y464855D01*
X386001Y464804D01*
X386020Y464802D01*
X386039Y464796D01*
X386193Y464784D01*
X386348Y464767D01*
X386367Y464770D01*
X386386Y464768D01*
X386539Y464791D01*
X386694Y464810D01*
X386712Y464817D01*
X386731Y464820D01*
X386875Y464877D01*
X387021Y464931D01*
X387040Y464943D01*
X387055Y464949D01*
X387091Y464973D01*
X387229Y465058D01*
X388375Y465890D01*
X389800Y466616D01*
X391201Y467072D01*
X391201Y458176D01*
X391204Y458150D01*
X391202Y458124D01*
X391224Y457977D01*
X391241Y457830D01*
X391249Y457805D01*
X391253Y457779D01*
X391308Y457642D01*
X391358Y457502D01*
X391372Y457480D01*
X391382Y457455D01*
X391467Y457334D01*
X391547Y457209D01*
X391560Y457197D01*
X391515Y457150D01*
X391501Y457127D01*
X391484Y457108D01*
X391412Y456978D01*
X391336Y456851D01*
X391328Y456826D01*
X391315Y456803D01*
X391275Y456660D01*
X391230Y456519D01*
X391227Y456493D01*
X391220Y456468D01*
X391201Y456224D01*
X391201Y447328D01*
X389800Y447784D01*
X388375Y448510D01*
X387229Y449342D01*
X387094Y449418D01*
X386961Y449498D01*
X386943Y449504D01*
X386926Y449513D01*
X386776Y449557D01*
X386629Y449604D01*
X386610Y449605D01*
X386591Y449611D01*
X386436Y449620D01*
X386282Y449632D01*
X386263Y449629D01*
X386243Y449630D01*
X386090Y449603D01*
X385937Y449580D01*
X385919Y449573D01*
X385900Y449570D01*
X385757Y449509D01*
X385613Y449451D01*
X385597Y449440D01*
X385580Y449433D01*
X385454Y449341D01*
X385327Y449253D01*
X385314Y449238D01*
X385299Y449227D01*
X385197Y449109D01*
X385094Y448994D01*
X385084Y448977D01*
X385072Y448962D01*
X385000Y448825D01*
X384925Y448689D01*
X384920Y448670D01*
X384911Y448653D01*
X384873Y448503D01*
X384830Y448353D01*
X384828Y448330D01*
X384825Y448315D01*
X384824Y448272D01*
X384811Y448110D01*
X384811Y440958D01*
X384822Y440858D01*
X384824Y440757D01*
X384842Y440685D01*
X384851Y440611D01*
X384884Y440517D01*
X384909Y440419D01*
X384943Y440353D01*
X384968Y440283D01*
X385023Y440199D01*
X385069Y440110D01*
X385117Y440053D01*
X385157Y439990D01*
X385229Y439921D01*
X385294Y439844D01*
X385354Y439800D01*
X385408Y439748D01*
X385494Y439697D01*
X385575Y439637D01*
X385643Y439608D01*
X385707Y439569D01*
X385802Y439539D01*
X385895Y439499D01*
X385968Y439486D01*
X386039Y439463D01*
X386139Y439455D01*
X386238Y439437D01*
X386312Y439441D01*
X386386Y439435D01*
X386485Y439450D01*
X386586Y439455D01*
X386657Y439476D01*
X386731Y439487D01*
X386824Y439524D01*
X386921Y439552D01*
X386986Y439588D01*
X387055Y439616D01*
X387137Y439673D01*
X387225Y439722D01*
X387301Y439787D01*
X387341Y439815D01*
X387365Y439841D01*
X387411Y439881D01*
X387944Y440414D01*
X391679Y441961D01*
X395721Y441961D01*
X399456Y440414D01*
X402314Y437556D01*
X403861Y433821D01*
X403861Y429779D01*
X402314Y426044D01*
X399456Y423186D01*
X395721Y421639D01*
X391679Y421639D01*
X387944Y423186D01*
X387411Y423719D01*
X387333Y423782D01*
X387260Y423852D01*
X387196Y423890D01*
X387138Y423936D01*
X387047Y423979D01*
X386961Y424031D01*
X386890Y424053D01*
X386823Y424085D01*
X386725Y424106D01*
X386629Y424137D01*
X386555Y424143D01*
X386482Y424158D01*
X386382Y424157D01*
X386282Y424165D01*
X386208Y424154D01*
X386134Y424152D01*
X386037Y424128D01*
X385937Y424113D01*
X385868Y424086D01*
X385796Y424067D01*
X385707Y424021D01*
X385613Y423984D01*
X385552Y423942D01*
X385486Y423908D01*
X385409Y423843D01*
X385327Y423785D01*
X385277Y423730D01*
X385221Y423682D01*
X385161Y423601D01*
X385094Y423527D01*
X385058Y423461D01*
X385013Y423402D01*
X384974Y423310D01*
X384925Y423222D01*
X384905Y423150D01*
X384875Y423082D01*
X384858Y422983D01*
X384830Y422886D01*
X384822Y422786D01*
X384814Y422739D01*
X384816Y422703D01*
X384811Y422642D01*
X384811Y415558D01*
X384822Y415458D01*
X384824Y415357D01*
X384842Y415285D01*
X384851Y415211D01*
X384884Y415117D01*
X384909Y415019D01*
X384943Y414953D01*
X384968Y414883D01*
X385023Y414799D01*
X385069Y414710D01*
X385117Y414653D01*
X385157Y414590D01*
X385229Y414521D01*
X385294Y414444D01*
X385354Y414400D01*
X385408Y414348D01*
X385494Y414297D01*
X385575Y414237D01*
X385643Y414208D01*
X385707Y414169D01*
X385802Y414139D01*
X385895Y414099D01*
X385968Y414086D01*
X386039Y414063D01*
X386139Y414055D01*
X386238Y414037D01*
X386312Y414041D01*
X386386Y414035D01*
X386485Y414050D01*
X386586Y414055D01*
X386657Y414076D01*
X386731Y414087D01*
X386824Y414124D01*
X386921Y414152D01*
X386986Y414188D01*
X387055Y414216D01*
X387137Y414273D01*
X387225Y414322D01*
X387301Y414387D01*
X387341Y414415D01*
X387365Y414441D01*
X387411Y414481D01*
X387944Y415014D01*
X391679Y416561D01*
X395721Y416561D01*
X399456Y415014D01*
X402314Y412156D01*
X403861Y408421D01*
X403861Y404379D01*
X402314Y400644D01*
X399456Y397786D01*
X395721Y396239D01*
X391679Y396239D01*
X387944Y397786D01*
X387411Y398319D01*
X387333Y398382D01*
X387260Y398452D01*
X387196Y398490D01*
X387138Y398536D01*
X387047Y398579D01*
X386961Y398631D01*
X386890Y398653D01*
X386823Y398685D01*
X386725Y398706D01*
X386629Y398737D01*
X386555Y398743D01*
X386482Y398758D01*
X386382Y398757D01*
X386282Y398765D01*
X386208Y398754D01*
X386134Y398752D01*
X386037Y398728D01*
X385937Y398713D01*
X385868Y398686D01*
X385796Y398667D01*
X385707Y398621D01*
X385613Y398584D01*
X385552Y398542D01*
X385486Y398508D01*
X385409Y398443D01*
X385327Y398385D01*
X385277Y398330D01*
X385221Y398282D01*
X385161Y398201D01*
X385094Y398127D01*
X385058Y398061D01*
X385013Y398002D01*
X384974Y397910D01*
X384925Y397822D01*
X384905Y397750D01*
X384875Y397682D01*
X384858Y397583D01*
X384830Y397486D01*
X384822Y397386D01*
X384814Y397339D01*
X384816Y397303D01*
X384811Y397242D01*
X384811Y390158D01*
X384822Y390058D01*
X384824Y389957D01*
X384842Y389885D01*
X384851Y389811D01*
X384884Y389717D01*
X384909Y389619D01*
X384943Y389553D01*
X384968Y389483D01*
X385023Y389399D01*
X385069Y389310D01*
X385117Y389253D01*
X385157Y389190D01*
X385229Y389121D01*
X385294Y389044D01*
X385354Y389000D01*
X385408Y388948D01*
X385494Y388897D01*
X385575Y388837D01*
X385643Y388808D01*
X385707Y388769D01*
X385802Y388739D01*
X385895Y388699D01*
X385968Y388686D01*
X386039Y388663D01*
X386139Y388655D01*
X386238Y388637D01*
X386312Y388641D01*
X386386Y388635D01*
X386485Y388650D01*
X386586Y388655D01*
X386657Y388676D01*
X386731Y388687D01*
X386824Y388724D01*
X386921Y388752D01*
X386986Y388788D01*
X387055Y388816D01*
X387137Y388873D01*
X387225Y388922D01*
X387301Y388987D01*
X387341Y389015D01*
X387365Y389041D01*
X387411Y389081D01*
X387944Y389614D01*
X391679Y391161D01*
X395721Y391161D01*
X399456Y389614D01*
X402314Y386756D01*
X403861Y383021D01*
X403861Y378979D01*
X402314Y375244D01*
X399456Y372386D01*
X395721Y370839D01*
X391679Y370839D01*
X387944Y372386D01*
X387411Y372919D01*
X387333Y372982D01*
X387260Y373052D01*
X387196Y373090D01*
X387138Y373136D01*
X387047Y373179D01*
X386961Y373231D01*
X386890Y373253D01*
X386823Y373285D01*
X386725Y373306D01*
X386629Y373337D01*
X386555Y373343D01*
X386482Y373358D01*
X386382Y373357D01*
X386282Y373365D01*
X386208Y373354D01*
X386134Y373352D01*
X386037Y373328D01*
X385937Y373313D01*
X385868Y373286D01*
X385796Y373267D01*
X385707Y373221D01*
X385613Y373184D01*
X385552Y373142D01*
X385486Y373108D01*
X385409Y373043D01*
X385327Y372985D01*
X385277Y372930D01*
X385221Y372882D01*
X385161Y372801D01*
X385094Y372727D01*
X385058Y372661D01*
X385013Y372602D01*
X384974Y372510D01*
X384925Y372422D01*
X384905Y372350D01*
X384875Y372282D01*
X384858Y372183D01*
X384830Y372086D01*
X384822Y371986D01*
X384814Y371939D01*
X384816Y371903D01*
X384811Y371842D01*
X384811Y364758D01*
X384822Y364658D01*
X384824Y364557D01*
X384842Y364485D01*
X384851Y364411D01*
X384884Y364317D01*
X384909Y364219D01*
X384943Y364153D01*
X384968Y364083D01*
X385023Y363999D01*
X385069Y363910D01*
X385117Y363853D01*
X385157Y363790D01*
X385229Y363721D01*
X385294Y363644D01*
X385354Y363600D01*
X385408Y363548D01*
X385494Y363497D01*
X385575Y363437D01*
X385643Y363408D01*
X385707Y363369D01*
X385802Y363339D01*
X385895Y363299D01*
X385968Y363286D01*
X386039Y363263D01*
X386139Y363255D01*
X386238Y363237D01*
X386312Y363241D01*
X386386Y363235D01*
X386485Y363250D01*
X386586Y363255D01*
X386657Y363276D01*
X386731Y363287D01*
X386824Y363324D01*
X386921Y363352D01*
X386986Y363388D01*
X387055Y363416D01*
X387137Y363473D01*
X387225Y363522D01*
X387301Y363587D01*
X387341Y363615D01*
X387365Y363641D01*
X387411Y363681D01*
X387944Y364214D01*
X391679Y365761D01*
X395721Y365761D01*
X395964Y365660D01*
X396037Y365639D01*
X396107Y365609D01*
X396204Y365592D01*
X396299Y365565D01*
X396375Y365561D01*
X396450Y365547D01*
X396549Y365552D01*
X396647Y365548D01*
X396722Y365561D01*
X396798Y365565D01*
X396893Y365593D01*
X396990Y365610D01*
X397060Y365641D01*
X397133Y365662D01*
X397219Y365710D01*
X397309Y365749D01*
X397371Y365795D01*
X397437Y365832D01*
X397551Y365929D01*
X397589Y365957D01*
X397601Y365972D01*
X397624Y365990D01*
X409677Y378044D01*
X409809Y378099D01*
X409876Y378136D01*
X409947Y378164D01*
X410027Y378220D01*
X410114Y378268D01*
X410170Y378319D01*
X410233Y378363D01*
X410299Y378436D01*
X410372Y378502D01*
X410415Y378565D01*
X410466Y378622D01*
X410514Y378708D01*
X410570Y378789D01*
X410598Y378860D01*
X410635Y378927D01*
X410662Y379021D01*
X410698Y379113D01*
X410709Y379188D01*
X410730Y379262D01*
X410742Y379411D01*
X410749Y379458D01*
X410747Y379477D01*
X410749Y379506D01*
X410749Y381320D01*
X412238Y382808D01*
X447875Y382808D01*
X447975Y382820D01*
X448075Y382821D01*
X448147Y382840D01*
X448221Y382848D01*
X448315Y382882D01*
X448413Y382906D01*
X448479Y382940D01*
X448549Y382966D01*
X448633Y383020D01*
X448723Y383066D01*
X448779Y383114D01*
X448842Y383155D01*
X448912Y383227D01*
X448988Y383292D01*
X449032Y383352D01*
X449084Y383405D01*
X449136Y383491D01*
X449195Y383572D01*
X449225Y383640D01*
X449263Y383704D01*
X449294Y383800D01*
X449333Y383892D01*
X449346Y383965D01*
X449369Y384036D01*
X449377Y384136D01*
X449395Y384235D01*
X449391Y384310D01*
X449397Y384384D01*
X449382Y384483D01*
X449377Y384583D01*
X449356Y384655D01*
X449345Y384728D01*
X449308Y384822D01*
X449281Y384918D01*
X449244Y384983D01*
X449217Y385052D01*
X449159Y385135D01*
X449110Y385222D01*
X449045Y385299D01*
X449018Y385338D01*
X448991Y385362D01*
X448952Y385408D01*
X439927Y394433D01*
X439828Y394512D01*
X439734Y394596D01*
X439692Y394620D01*
X439654Y394650D01*
X439540Y394704D01*
X439429Y394765D01*
X439383Y394778D01*
X439339Y394799D01*
X439216Y394825D01*
X439094Y394860D01*
X439033Y394865D01*
X438998Y394872D01*
X438950Y394871D01*
X438850Y394879D01*
X434948Y394879D01*
X433147Y396680D01*
X433126Y396696D01*
X433110Y396716D01*
X432990Y396804D01*
X432874Y396896D01*
X432850Y396908D01*
X432829Y396923D01*
X432693Y396982D01*
X432559Y397045D01*
X432533Y397051D01*
X432509Y397061D01*
X432363Y397088D01*
X432218Y397119D01*
X432192Y397118D01*
X432166Y397123D01*
X432018Y397115D01*
X431870Y397113D01*
X431844Y397106D01*
X431818Y397105D01*
X431676Y397064D01*
X431532Y397028D01*
X431509Y397016D01*
X431483Y397008D01*
X431354Y396936D01*
X431222Y396868D01*
X431202Y396851D01*
X431179Y396838D01*
X430993Y396680D01*
X429192Y394879D01*
X412088Y394879D01*
X410599Y396368D01*
X410599Y411472D01*
X411470Y412343D01*
X411486Y412363D01*
X411506Y412380D01*
X411594Y412500D01*
X411686Y412616D01*
X411698Y412640D01*
X411713Y412661D01*
X411772Y412797D01*
X411835Y412931D01*
X411841Y412957D01*
X411851Y412981D01*
X411877Y413127D01*
X411909Y413272D01*
X411908Y413298D01*
X411913Y413324D01*
X411905Y413472D01*
X411903Y413620D01*
X411896Y413646D01*
X411895Y413672D01*
X411854Y413814D01*
X411818Y413958D01*
X411806Y413981D01*
X411798Y414007D01*
X411726Y414136D01*
X411658Y414268D01*
X411641Y414288D01*
X411628Y414311D01*
X411470Y414497D01*
X411107Y414860D01*
X410772Y415439D01*
X410599Y416085D01*
X410599Y419873D01*
X419116Y419873D01*
X419142Y419876D01*
X419168Y419874D01*
X419315Y419896D01*
X419462Y419913D01*
X419487Y419921D01*
X419513Y419925D01*
X419651Y419980D01*
X419790Y420030D01*
X419812Y420044D01*
X419837Y420054D01*
X419958Y420139D01*
X420083Y420219D01*
X420101Y420238D01*
X420123Y420253D01*
X420222Y420363D01*
X420325Y420470D01*
X420339Y420492D01*
X420356Y420512D01*
X420428Y420642D01*
X420504Y420769D01*
X420512Y420794D01*
X420525Y420817D01*
X420565Y420960D01*
X420610Y421101D01*
X420612Y421127D01*
X420620Y421152D01*
X420639Y421396D01*
X420639Y422921D01*
X420641Y422921D01*
X420641Y421396D01*
X420644Y421370D01*
X420642Y421344D01*
X420664Y421197D01*
X420681Y421050D01*
X420690Y421025D01*
X420693Y420999D01*
X420748Y420861D01*
X420798Y420722D01*
X420812Y420700D01*
X420822Y420675D01*
X420907Y420554D01*
X420987Y420429D01*
X421006Y420411D01*
X421021Y420389D01*
X421131Y420290D01*
X421238Y420187D01*
X421260Y420173D01*
X421280Y420156D01*
X421410Y420084D01*
X421537Y420008D01*
X421562Y420000D01*
X421585Y419987D01*
X421728Y419947D01*
X421869Y419902D01*
X421895Y419900D01*
X421920Y419892D01*
X422164Y419873D01*
X441976Y419873D01*
X442002Y419876D01*
X442028Y419874D01*
X442175Y419896D01*
X442322Y419913D01*
X442347Y419921D01*
X442373Y419925D01*
X442511Y419980D01*
X442650Y420030D01*
X442672Y420044D01*
X442697Y420054D01*
X442818Y420139D01*
X442943Y420219D01*
X442961Y420238D01*
X442983Y420253D01*
X443082Y420363D01*
X443185Y420470D01*
X443199Y420492D01*
X443216Y420512D01*
X443288Y420642D01*
X443364Y420769D01*
X443372Y420794D01*
X443385Y420817D01*
X443425Y420960D01*
X443470Y421101D01*
X443472Y421127D01*
X443480Y421152D01*
X443499Y421396D01*
X443499Y422921D01*
X443501Y422921D01*
X443501Y421396D01*
X443504Y421370D01*
X443502Y421344D01*
X443524Y421197D01*
X443541Y421050D01*
X443550Y421025D01*
X443553Y420999D01*
X443608Y420861D01*
X443658Y420722D01*
X443672Y420700D01*
X443682Y420675D01*
X443767Y420554D01*
X443847Y420429D01*
X443866Y420411D01*
X443881Y420389D01*
X443991Y420290D01*
X444098Y420187D01*
X444120Y420173D01*
X444140Y420156D01*
X444270Y420084D01*
X444397Y420008D01*
X444422Y420000D01*
X444445Y419987D01*
X444588Y419947D01*
X444729Y419902D01*
X444755Y419900D01*
X444780Y419892D01*
X445024Y419873D01*
X453541Y419873D01*
X453541Y416085D01*
X453368Y415439D01*
X453033Y414860D01*
X452670Y414497D01*
X452654Y414477D01*
X452634Y414460D01*
X452546Y414340D01*
X452454Y414224D01*
X452442Y414200D01*
X452427Y414179D01*
X452368Y414043D01*
X452305Y413909D01*
X452299Y413883D01*
X452289Y413859D01*
X452263Y413713D01*
X452231Y413568D01*
X452232Y413542D01*
X452227Y413516D01*
X452235Y413367D01*
X452237Y413220D01*
X452244Y413194D01*
X452245Y413168D01*
X452286Y413026D01*
X452322Y412882D01*
X452334Y412859D01*
X452342Y412833D01*
X452414Y412704D01*
X452482Y412572D01*
X452499Y412552D01*
X452512Y412529D01*
X452670Y412343D01*
X453541Y411472D01*
X453541Y397258D01*
X453555Y397132D01*
X453562Y397006D01*
X453575Y396960D01*
X453581Y396912D01*
X453623Y396793D01*
X453658Y396671D01*
X453682Y396629D01*
X453698Y396584D01*
X453767Y396477D01*
X453828Y396367D01*
X453868Y396321D01*
X453887Y396291D01*
X453922Y396257D01*
X453987Y396181D01*
X463583Y386585D01*
X463584Y386584D01*
X463585Y386582D01*
X463727Y386470D01*
X463856Y386368D01*
X463857Y386368D01*
X463859Y386366D01*
X464077Y386255D01*
X464956Y385891D01*
X465775Y385072D01*
X465854Y385009D01*
X465926Y384939D01*
X465990Y384901D01*
X466048Y384855D01*
X466139Y384812D01*
X466225Y384760D01*
X466296Y384738D01*
X466363Y384706D01*
X466461Y384685D01*
X466557Y384654D01*
X466631Y384648D01*
X466704Y384633D01*
X466804Y384634D01*
X466904Y384626D01*
X466978Y384637D01*
X467052Y384639D01*
X467149Y384663D01*
X467249Y384678D01*
X467318Y384705D01*
X467390Y384724D01*
X467479Y384770D01*
X467573Y384807D01*
X467634Y384849D01*
X467700Y384883D01*
X467776Y384948D01*
X467859Y385006D01*
X467909Y385061D01*
X467965Y385109D01*
X468025Y385190D01*
X468092Y385264D01*
X468128Y385330D01*
X468173Y385389D01*
X468212Y385481D01*
X468261Y385569D01*
X468281Y385641D01*
X468311Y385709D01*
X468328Y385808D01*
X468356Y385905D01*
X468364Y386005D01*
X468372Y386052D01*
X468370Y386088D01*
X468375Y386149D01*
X468375Y393356D01*
X468372Y393382D01*
X468374Y393408D01*
X468352Y393555D01*
X468335Y393702D01*
X468327Y393727D01*
X468323Y393753D01*
X468268Y393891D01*
X468218Y394030D01*
X468204Y394052D01*
X468194Y394077D01*
X468109Y394198D01*
X468029Y394323D01*
X468010Y394341D01*
X467995Y394363D01*
X467885Y394462D01*
X467778Y394565D01*
X467756Y394579D01*
X467736Y394596D01*
X467606Y394668D01*
X467479Y394744D01*
X467454Y394752D01*
X467431Y394765D01*
X467288Y394805D01*
X467147Y394850D01*
X467121Y394852D01*
X467096Y394860D01*
X466852Y394879D01*
X463888Y394879D01*
X462399Y396368D01*
X462399Y411472D01*
X463270Y412343D01*
X463286Y412363D01*
X463306Y412380D01*
X463394Y412500D01*
X463486Y412616D01*
X463498Y412640D01*
X463513Y412661D01*
X463572Y412797D01*
X463635Y412931D01*
X463641Y412957D01*
X463651Y412981D01*
X463678Y413127D01*
X463709Y413272D01*
X463708Y413298D01*
X463713Y413324D01*
X463705Y413472D01*
X463703Y413620D01*
X463696Y413646D01*
X463695Y413672D01*
X463654Y413814D01*
X463618Y413958D01*
X463606Y413982D01*
X463598Y414007D01*
X463526Y414136D01*
X463458Y414268D01*
X463441Y414288D01*
X463428Y414311D01*
X463270Y414497D01*
X462907Y414860D01*
X462572Y415439D01*
X462399Y416085D01*
X462399Y419873D01*
X470916Y419873D01*
X470942Y419876D01*
X470968Y419874D01*
X471115Y419896D01*
X471262Y419913D01*
X471287Y419921D01*
X471313Y419925D01*
X471451Y419980D01*
X471590Y420030D01*
X471612Y420044D01*
X471637Y420054D01*
X471758Y420139D01*
X471883Y420219D01*
X471901Y420238D01*
X471923Y420253D01*
X472022Y420363D01*
X472125Y420470D01*
X472139Y420492D01*
X472156Y420512D01*
X472228Y420642D01*
X472304Y420769D01*
X472312Y420794D01*
X472325Y420817D01*
X472365Y420960D01*
X472410Y421101D01*
X472412Y421127D01*
X472420Y421152D01*
X472439Y421396D01*
X472439Y422921D01*
X472441Y422921D01*
X472441Y421396D01*
X472444Y421370D01*
X472442Y421344D01*
X472464Y421197D01*
X472481Y421050D01*
X472490Y421025D01*
X472493Y420999D01*
X472548Y420861D01*
X472598Y420722D01*
X472612Y420700D01*
X472622Y420675D01*
X472707Y420554D01*
X472787Y420429D01*
X472806Y420411D01*
X472821Y420389D01*
X472931Y420290D01*
X473038Y420187D01*
X473060Y420173D01*
X473080Y420156D01*
X473210Y420084D01*
X473337Y420008D01*
X473362Y420000D01*
X473385Y419987D01*
X473528Y419947D01*
X473669Y419902D01*
X473695Y419900D01*
X473720Y419892D01*
X473964Y419873D01*
X482481Y419873D01*
X482481Y416085D01*
X482308Y415439D01*
X481973Y414860D01*
X481610Y414497D01*
X481594Y414477D01*
X481574Y414460D01*
X481486Y414340D01*
X481394Y414224D01*
X481382Y414200D01*
X481367Y414179D01*
X481308Y414043D01*
X481245Y413909D01*
X481239Y413883D01*
X481229Y413859D01*
X481203Y413713D01*
X481171Y413568D01*
X481172Y413542D01*
X481167Y413516D01*
X481175Y413367D01*
X481177Y413220D01*
X481184Y413194D01*
X481185Y413168D01*
X481226Y413026D01*
X481262Y412882D01*
X481274Y412859D01*
X481282Y412833D01*
X481354Y412704D01*
X481422Y412572D01*
X481439Y412552D01*
X481452Y412529D01*
X481610Y412343D01*
X482481Y411472D01*
X482481Y396368D01*
X480992Y394879D01*
X478028Y394879D01*
X478002Y394876D01*
X477976Y394878D01*
X477829Y394856D01*
X477682Y394839D01*
X477657Y394831D01*
X477631Y394827D01*
X477493Y394772D01*
X477354Y394722D01*
X477332Y394708D01*
X477307Y394698D01*
X477186Y394613D01*
X477061Y394533D01*
X477043Y394514D01*
X477021Y394499D01*
X476922Y394389D01*
X476819Y394282D01*
X476805Y394260D01*
X476788Y394240D01*
X476716Y394110D01*
X476640Y393983D01*
X476632Y393958D01*
X476619Y393935D01*
X476579Y393792D01*
X476534Y393651D01*
X476532Y393625D01*
X476524Y393600D01*
X476505Y393356D01*
X476505Y373982D01*
X469295Y366773D01*
X469233Y366695D01*
X469163Y366622D01*
X469125Y366558D01*
X469079Y366500D01*
X469036Y366409D01*
X468984Y366323D01*
X468962Y366252D01*
X468930Y366185D01*
X468909Y366087D01*
X468878Y365991D01*
X468872Y365917D01*
X468857Y365844D01*
X468858Y365744D01*
X468850Y365644D01*
X468861Y365570D01*
X468863Y365496D01*
X468887Y365399D01*
X468902Y365299D01*
X468929Y365230D01*
X468948Y365158D01*
X468994Y365068D01*
X469031Y364975D01*
X469073Y364914D01*
X469107Y364848D01*
X469172Y364771D01*
X469230Y364689D01*
X469285Y364639D01*
X469333Y364583D01*
X469414Y364523D01*
X469488Y364456D01*
X469553Y364420D01*
X469613Y364375D01*
X469706Y364336D01*
X469793Y364287D01*
X469865Y364267D01*
X469933Y364237D01*
X470032Y364220D01*
X470129Y364192D01*
X470229Y364184D01*
X470276Y364176D01*
X470312Y364178D01*
X470373Y364173D01*
X484793Y364173D01*
X484919Y364187D01*
X485045Y364194D01*
X485092Y364207D01*
X485140Y364213D01*
X485259Y364255D01*
X485380Y364290D01*
X485422Y364314D01*
X485468Y364330D01*
X485574Y364399D01*
X485684Y364460D01*
X485730Y364500D01*
X485760Y364519D01*
X485794Y364554D01*
X485870Y364619D01*
X551749Y430498D01*
X551828Y430597D01*
X551912Y430690D01*
X551936Y430733D01*
X551966Y430771D01*
X552020Y430885D01*
X552081Y430995D01*
X552094Y431042D01*
X552115Y431086D01*
X552141Y431209D01*
X552176Y431331D01*
X552181Y431392D01*
X552188Y431426D01*
X552187Y431474D01*
X552195Y431575D01*
X552195Y452376D01*
X552192Y452402D01*
X552194Y452428D01*
X552172Y452575D01*
X552155Y452722D01*
X552147Y452747D01*
X552143Y452773D01*
X552088Y452911D01*
X552038Y453050D01*
X552024Y453072D01*
X552014Y453097D01*
X551929Y453218D01*
X551849Y453343D01*
X551830Y453361D01*
X551815Y453383D01*
X551705Y453482D01*
X551598Y453585D01*
X551576Y453599D01*
X551556Y453616D01*
X551426Y453688D01*
X551299Y453764D01*
X551274Y453772D01*
X551251Y453785D01*
X551108Y453825D01*
X550967Y453870D01*
X550941Y453872D01*
X550916Y453880D01*
X550672Y453899D01*
X547708Y453899D01*
X546219Y455388D01*
X546219Y470492D01*
X547090Y471363D01*
X547106Y471383D01*
X547126Y471400D01*
X547214Y471520D01*
X547306Y471636D01*
X547318Y471660D01*
X547333Y471681D01*
X547392Y471817D01*
X547455Y471951D01*
X547461Y471977D01*
X547471Y472001D01*
X547497Y472147D01*
X547529Y472292D01*
X547528Y472318D01*
X547533Y472344D01*
X547525Y472492D01*
X547523Y472640D01*
X547516Y472666D01*
X547515Y472692D01*
X547474Y472834D01*
X547438Y472978D01*
X547426Y473001D01*
X547418Y473027D01*
X547346Y473156D01*
X547278Y473288D01*
X547261Y473308D01*
X547248Y473331D01*
X547090Y473517D01*
X546219Y474388D01*
X546219Y489492D01*
X547708Y490981D01*
X549516Y490981D01*
X549665Y490998D01*
X549815Y491010D01*
X549839Y491018D01*
X549863Y491021D01*
X550004Y491071D01*
X550147Y491117D01*
X550168Y491130D01*
X550191Y491138D01*
X550317Y491220D01*
X550446Y491297D01*
X550463Y491314D01*
X550483Y491327D01*
X550588Y491435D01*
X550696Y491540D01*
X550709Y491560D01*
X550726Y491578D01*
X550803Y491707D01*
X550884Y491833D01*
X550892Y491856D01*
X550904Y491877D01*
X550950Y492020D01*
X551001Y492162D01*
X551003Y492186D01*
X551011Y492209D01*
X551023Y492358D01*
X551040Y492508D01*
X551037Y492532D01*
X551039Y492556D01*
X551016Y492705D01*
X550999Y492854D01*
X550990Y492882D01*
X550987Y492901D01*
X550969Y492945D01*
X550924Y493087D01*
X550191Y494855D01*
X550191Y497269D01*
X551115Y499500D01*
X552822Y501207D01*
X555053Y502131D01*
X557467Y502131D01*
X559698Y501207D01*
X561405Y499500D01*
X562329Y497269D01*
X562329Y494855D01*
X561596Y493087D01*
X561555Y492942D01*
X561509Y492799D01*
X561507Y492775D01*
X561501Y492752D01*
X561493Y492601D01*
X561481Y492452D01*
X561485Y492428D01*
X561484Y492404D01*
X561511Y492256D01*
X561533Y492107D01*
X561542Y492085D01*
X561546Y492061D01*
X561606Y491923D01*
X561662Y491783D01*
X561676Y491763D01*
X561685Y491741D01*
X561775Y491620D01*
X561861Y491497D01*
X561879Y491481D01*
X561893Y491461D01*
X562008Y491364D01*
X562119Y491264D01*
X562141Y491252D01*
X562159Y491236D01*
X562293Y491168D01*
X562425Y491095D01*
X562448Y491089D01*
X562469Y491078D01*
X562615Y491041D01*
X562760Y491000D01*
X562789Y490998D01*
X562808Y490993D01*
X562855Y490993D01*
X563004Y490981D01*
X564812Y490981D01*
X566613Y489180D01*
X566633Y489164D01*
X566650Y489144D01*
X566770Y489056D01*
X566886Y488964D01*
X566910Y488952D01*
X566931Y488937D01*
X567067Y488878D01*
X567201Y488815D01*
X567227Y488809D01*
X567251Y488799D01*
X567397Y488773D01*
X567542Y488741D01*
X567568Y488742D01*
X567594Y488737D01*
X567742Y488745D01*
X567890Y488747D01*
X567916Y488754D01*
X567942Y488755D01*
X568084Y488796D01*
X568228Y488832D01*
X568251Y488844D01*
X568277Y488852D01*
X568406Y488924D01*
X568538Y488992D01*
X568558Y489009D01*
X568581Y489022D01*
X568767Y489180D01*
X570568Y490981D01*
X572376Y490981D01*
X572525Y490998D01*
X572675Y491010D01*
X572699Y491018D01*
X572723Y491021D01*
X572864Y491071D01*
X573007Y491117D01*
X573028Y491130D01*
X573051Y491138D01*
X573177Y491220D01*
X573306Y491297D01*
X573323Y491314D01*
X573343Y491327D01*
X573448Y491435D01*
X573556Y491540D01*
X573569Y491560D01*
X573586Y491578D01*
X573663Y491707D01*
X573744Y491833D01*
X573752Y491856D01*
X573764Y491877D01*
X573810Y492020D01*
X573861Y492162D01*
X573863Y492186D01*
X573871Y492209D01*
X573883Y492358D01*
X573900Y492508D01*
X573897Y492532D01*
X573899Y492556D01*
X573876Y492705D01*
X573859Y492854D01*
X573850Y492882D01*
X573847Y492901D01*
X573829Y492945D01*
X573784Y493087D01*
X573051Y494855D01*
X573051Y497269D01*
X573975Y499500D01*
X575682Y501207D01*
X577913Y502131D01*
X580327Y502131D01*
X582558Y501207D01*
X584265Y499500D01*
X585189Y497269D01*
X585189Y494855D01*
X584456Y493087D01*
X584415Y492942D01*
X584369Y492799D01*
X584367Y492775D01*
X584361Y492752D01*
X584353Y492601D01*
X584341Y492452D01*
X584345Y492428D01*
X584344Y492404D01*
X584371Y492256D01*
X584393Y492107D01*
X584402Y492085D01*
X584406Y492061D01*
X584466Y491923D01*
X584522Y491783D01*
X584536Y491763D01*
X584545Y491741D01*
X584635Y491620D01*
X584721Y491497D01*
X584739Y491481D01*
X584753Y491461D01*
X584868Y491364D01*
X584979Y491264D01*
X585001Y491252D01*
X585019Y491236D01*
X585153Y491168D01*
X585285Y491095D01*
X585308Y491089D01*
X585329Y491078D01*
X585475Y491041D01*
X585620Y491000D01*
X585649Y490998D01*
X585668Y490993D01*
X585715Y490993D01*
X585864Y490981D01*
X587672Y490981D01*
X589161Y489492D01*
X589161Y474388D01*
X588290Y473517D01*
X588274Y473497D01*
X588254Y473480D01*
X588166Y473360D01*
X588074Y473244D01*
X588062Y473220D01*
X588047Y473199D01*
X587988Y473063D01*
X587925Y472929D01*
X587919Y472903D01*
X587909Y472879D01*
X587883Y472733D01*
X587851Y472588D01*
X587852Y472562D01*
X587847Y472536D01*
X587855Y472388D01*
X587857Y472240D01*
X587864Y472214D01*
X587865Y472188D01*
X587906Y472046D01*
X587942Y471902D01*
X587954Y471879D01*
X587962Y471853D01*
X588034Y471724D01*
X588102Y471592D01*
X588119Y471572D01*
X588132Y471549D01*
X588290Y471363D01*
X589161Y470492D01*
X589161Y455388D01*
X587672Y453899D01*
X584708Y453899D01*
X584682Y453896D01*
X584656Y453898D01*
X584509Y453876D01*
X584362Y453859D01*
X584337Y453851D01*
X584311Y453847D01*
X584173Y453792D01*
X584034Y453742D01*
X584012Y453728D01*
X583987Y453718D01*
X583866Y453633D01*
X583741Y453553D01*
X583723Y453534D01*
X583701Y453519D01*
X583602Y453409D01*
X583499Y453302D01*
X583485Y453280D01*
X583468Y453260D01*
X583396Y453130D01*
X583320Y453003D01*
X583312Y452978D01*
X583299Y452955D01*
X583259Y452812D01*
X583214Y452671D01*
X583212Y452645D01*
X583204Y452620D01*
X583185Y452376D01*
X583185Y430116D01*
X580358Y427289D01*
X520413Y367345D01*
X520351Y367267D01*
X520281Y367194D01*
X520243Y367130D01*
X520197Y367072D01*
X520154Y366981D01*
X520102Y366895D01*
X520080Y366824D01*
X520048Y366757D01*
X520027Y366659D01*
X519996Y366563D01*
X519990Y366489D01*
X519975Y366416D01*
X519976Y366316D01*
X519968Y366216D01*
X519979Y366142D01*
X519981Y366068D01*
X520005Y365971D01*
X520020Y365871D01*
X520047Y365802D01*
X520066Y365730D01*
X520112Y365640D01*
X520149Y365547D01*
X520191Y365486D01*
X520225Y365420D01*
X520290Y365343D01*
X520348Y365261D01*
X520403Y365211D01*
X520451Y365155D01*
X520532Y365095D01*
X520606Y365028D01*
X520671Y364992D01*
X520731Y364947D01*
X520823Y364908D01*
X520911Y364859D01*
X520983Y364839D01*
X521051Y364809D01*
X521150Y364792D01*
X521247Y364764D01*
X521347Y364756D01*
X521394Y364748D01*
X521430Y364750D01*
X521491Y364745D01*
X555842Y364745D01*
X570855Y349732D01*
X570855Y343344D01*
X570858Y343318D01*
X570856Y343292D01*
X570878Y343145D01*
X570895Y342998D01*
X570903Y342973D01*
X570907Y342947D01*
X570962Y342809D01*
X571012Y342670D01*
X571026Y342648D01*
X571036Y342623D01*
X571121Y342502D01*
X571201Y342377D01*
X571220Y342359D01*
X571235Y342337D01*
X571345Y342238D01*
X571452Y342135D01*
X571474Y342121D01*
X571494Y342104D01*
X571624Y342032D01*
X571751Y341956D01*
X571776Y341948D01*
X571799Y341935D01*
X571942Y341895D01*
X572054Y341859D01*
X572963Y340950D01*
X572983Y340934D01*
X573000Y340914D01*
X573120Y340826D01*
X573236Y340734D01*
X573260Y340722D01*
X573281Y340707D01*
X573417Y340648D01*
X573551Y340585D01*
X573577Y340579D01*
X573601Y340569D01*
X573747Y340543D01*
X573892Y340511D01*
X573918Y340512D01*
X573944Y340507D01*
X574092Y340515D01*
X574240Y340517D01*
X574266Y340524D01*
X574292Y340525D01*
X574434Y340566D01*
X574578Y340602D01*
X574601Y340614D01*
X574627Y340622D01*
X574756Y340694D01*
X574888Y340762D01*
X574908Y340779D01*
X574931Y340792D01*
X575117Y340950D01*
X575988Y341821D01*
X586592Y341821D01*
X588081Y340332D01*
X588081Y339949D01*
X588095Y339823D01*
X588102Y339697D01*
X588115Y339650D01*
X588121Y339602D01*
X588163Y339483D01*
X588198Y339362D01*
X588222Y339320D01*
X588238Y339274D01*
X588307Y339168D01*
X588368Y339058D01*
X588408Y339012D01*
X588427Y338982D01*
X588462Y338948D01*
X588527Y338872D01*
X602305Y325094D01*
X602305Y299515D01*
X601301Y298511D01*
X601239Y298432D01*
X601169Y298360D01*
X601131Y298296D01*
X601084Y298238D01*
X601042Y298147D01*
X600990Y298061D01*
X600967Y297990D01*
X600936Y297923D01*
X600914Y297825D01*
X600884Y297729D01*
X600878Y297655D01*
X600862Y297582D01*
X600864Y297482D01*
X600856Y297382D01*
X600867Y297308D01*
X600868Y297234D01*
X600893Y297137D01*
X600908Y297037D01*
X600935Y296968D01*
X600953Y296896D01*
X600999Y296807D01*
X601036Y296713D01*
X601079Y296652D01*
X601113Y296586D01*
X601178Y296510D01*
X601235Y296427D01*
X601290Y296377D01*
X601339Y296321D01*
X601419Y296261D01*
X601494Y296194D01*
X601559Y296158D01*
X601619Y296113D01*
X601711Y296074D01*
X601799Y296025D01*
X601871Y296005D01*
X601939Y295975D01*
X602038Y295958D01*
X602134Y295930D01*
X602234Y295922D01*
X602282Y295914D01*
X602318Y295916D01*
X602378Y295911D01*
X613210Y295911D01*
X613364Y295929D01*
G37*
G36*
X591592Y229874D02*
X591592Y229874D01*
X591618Y229872D01*
X591765Y229894D01*
X591912Y229911D01*
X591937Y229919D01*
X591963Y229923D01*
X592101Y229978D01*
X592240Y230028D01*
X592262Y230042D01*
X592287Y230052D01*
X592408Y230137D01*
X592533Y230217D01*
X592551Y230236D01*
X592573Y230251D01*
X592672Y230361D01*
X592775Y230468D01*
X592789Y230490D01*
X592806Y230510D01*
X592878Y230640D01*
X592954Y230767D01*
X592962Y230792D01*
X592975Y230815D01*
X593015Y230958D01*
X593060Y231099D01*
X593062Y231125D01*
X593070Y231150D01*
X593089Y231394D01*
X593089Y235082D01*
X593078Y235182D01*
X593076Y235283D01*
X593058Y235355D01*
X593049Y235429D01*
X593016Y235523D01*
X592991Y235621D01*
X592957Y235687D01*
X592932Y235757D01*
X592877Y235841D01*
X592831Y235930D01*
X592783Y235987D01*
X592743Y236050D01*
X592671Y236119D01*
X592606Y236196D01*
X592546Y236240D01*
X592492Y236292D01*
X592406Y236343D01*
X592325Y236403D01*
X592257Y236432D01*
X592193Y236471D01*
X592098Y236501D01*
X592005Y236541D01*
X591932Y236554D01*
X591861Y236577D01*
X591761Y236585D01*
X591662Y236603D01*
X591588Y236599D01*
X591514Y236605D01*
X591415Y236590D01*
X591314Y236585D01*
X591243Y236564D01*
X591169Y236553D01*
X591076Y236516D01*
X590979Y236488D01*
X590914Y236452D01*
X590845Y236424D01*
X590763Y236367D01*
X590675Y236318D01*
X590599Y236253D01*
X590559Y236225D01*
X590535Y236199D01*
X590489Y236159D01*
X590006Y235676D01*
X586271Y234129D01*
X582229Y234129D01*
X578494Y235676D01*
X575636Y238534D01*
X574089Y242269D01*
X574089Y246311D01*
X574445Y247170D01*
X574466Y247243D01*
X574496Y247314D01*
X574514Y247410D01*
X574541Y247505D01*
X574544Y247581D01*
X574558Y247657D01*
X574553Y247755D01*
X574558Y247853D01*
X574544Y247928D01*
X574540Y248005D01*
X574513Y248099D01*
X574495Y248196D01*
X574465Y248266D01*
X574443Y248340D01*
X574395Y248425D01*
X574356Y248516D01*
X574311Y248577D01*
X574273Y248644D01*
X574177Y248757D01*
X574148Y248795D01*
X574134Y248808D01*
X574115Y248830D01*
X569804Y253140D01*
X566977Y255967D01*
X566977Y259779D01*
X566960Y259928D01*
X566948Y260078D01*
X566940Y260101D01*
X566937Y260125D01*
X566887Y260266D01*
X566841Y260410D01*
X566828Y260430D01*
X566820Y260453D01*
X566738Y260580D01*
X566661Y260708D01*
X566644Y260726D01*
X566631Y260746D01*
X566522Y260851D01*
X566418Y260958D01*
X566398Y260971D01*
X566380Y260988D01*
X566251Y261065D01*
X566125Y261146D01*
X566102Y261155D01*
X566081Y261167D01*
X565939Y261213D01*
X565796Y261263D01*
X565772Y261266D01*
X565749Y261273D01*
X565600Y261285D01*
X565450Y261302D01*
X565426Y261299D01*
X565402Y261301D01*
X565253Y261279D01*
X565104Y261261D01*
X565076Y261252D01*
X565057Y261249D01*
X565013Y261232D01*
X564871Y261186D01*
X560871Y259529D01*
X556829Y259529D01*
X553094Y261076D01*
X550236Y263934D01*
X548689Y267669D01*
X548689Y271711D01*
X550236Y275446D01*
X553094Y278304D01*
X553845Y278615D01*
X553912Y278652D01*
X553983Y278680D01*
X554063Y278736D01*
X554150Y278784D01*
X554206Y278835D01*
X554269Y278879D01*
X554335Y278952D01*
X554408Y279018D01*
X554451Y279081D01*
X554502Y279138D01*
X554550Y279224D01*
X554606Y279305D01*
X554634Y279376D01*
X554671Y279443D01*
X554698Y279538D01*
X554734Y279629D01*
X554745Y279705D01*
X554766Y279778D01*
X554778Y279927D01*
X554785Y279974D01*
X554783Y279993D01*
X554785Y280022D01*
X554785Y281504D01*
X557612Y284331D01*
X575227Y301946D01*
X575243Y301966D01*
X575263Y301983D01*
X575312Y302048D01*
X575323Y302061D01*
X575335Y302080D01*
X575352Y302103D01*
X575444Y302219D01*
X575455Y302242D01*
X575471Y302263D01*
X575529Y302400D01*
X575593Y302534D01*
X575598Y302559D01*
X575609Y302583D01*
X575635Y302730D01*
X575666Y302874D01*
X575666Y302900D01*
X575670Y302926D01*
X575663Y303075D01*
X575660Y303223D01*
X575654Y303248D01*
X575652Y303274D01*
X575611Y303417D01*
X575575Y303561D01*
X575563Y303584D01*
X575556Y303609D01*
X575483Y303739D01*
X575415Y303871D01*
X575398Y303891D01*
X575386Y303913D01*
X575227Y304100D01*
X575117Y304210D01*
X575097Y304226D01*
X575080Y304246D01*
X574960Y304334D01*
X574844Y304426D01*
X574820Y304438D01*
X574799Y304453D01*
X574663Y304512D01*
X574529Y304575D01*
X574503Y304581D01*
X574479Y304591D01*
X574333Y304618D01*
X574188Y304649D01*
X574162Y304648D01*
X574136Y304653D01*
X573988Y304645D01*
X573840Y304643D01*
X573814Y304636D01*
X573788Y304635D01*
X573646Y304594D01*
X573502Y304558D01*
X573479Y304546D01*
X573453Y304538D01*
X573324Y304466D01*
X573192Y304398D01*
X573172Y304381D01*
X573149Y304368D01*
X572963Y304210D01*
X572092Y303339D01*
X561179Y303339D01*
X561053Y303325D01*
X560927Y303318D01*
X560880Y303305D01*
X560832Y303299D01*
X560713Y303257D01*
X560592Y303222D01*
X560550Y303198D01*
X560504Y303182D01*
X560398Y303113D01*
X560288Y303052D01*
X560241Y303012D01*
X560211Y302993D01*
X560178Y302958D01*
X560101Y302893D01*
X558231Y301022D01*
X555404Y298195D01*
X536763Y298195D01*
X536679Y298186D01*
X536593Y298186D01*
X536506Y298166D01*
X536417Y298155D01*
X536337Y298127D01*
X536254Y298108D01*
X536173Y298068D01*
X536089Y298038D01*
X536017Y297992D01*
X535941Y297954D01*
X535871Y297898D01*
X535796Y297849D01*
X535737Y297788D01*
X535671Y297734D01*
X535616Y297663D01*
X535554Y297598D01*
X535510Y297525D01*
X535458Y297458D01*
X535421Y297376D01*
X535375Y297299D01*
X535349Y297218D01*
X535314Y297140D01*
X535296Y297053D01*
X535269Y296967D01*
X535262Y296882D01*
X535245Y296799D01*
X535248Y296709D01*
X535241Y296620D01*
X535253Y296536D01*
X535256Y296450D01*
X535279Y296364D01*
X535293Y296275D01*
X535324Y296196D01*
X535346Y296114D01*
X535388Y296035D01*
X535421Y295951D01*
X535470Y295881D01*
X535510Y295806D01*
X535592Y295706D01*
X535620Y295665D01*
X535639Y295648D01*
X535665Y295617D01*
X536124Y295139D01*
X536137Y295128D01*
X536148Y295114D01*
X536271Y295017D01*
X536392Y294917D01*
X536408Y294909D01*
X536422Y294898D01*
X536639Y294787D01*
X536838Y294705D01*
X538545Y292998D01*
X539469Y290767D01*
X539469Y288353D01*
X538545Y286122D01*
X537961Y285538D01*
X537882Y285439D01*
X537798Y285346D01*
X537774Y285303D01*
X537744Y285265D01*
X537690Y285151D01*
X537629Y285040D01*
X537616Y284994D01*
X537595Y284950D01*
X537569Y284827D01*
X537534Y284705D01*
X537529Y284644D01*
X537522Y284610D01*
X537523Y284562D01*
X537515Y284461D01*
X537515Y280022D01*
X537523Y279946D01*
X537522Y279870D01*
X537543Y279773D01*
X537555Y279676D01*
X537580Y279604D01*
X537597Y279529D01*
X537639Y279440D01*
X537672Y279348D01*
X537714Y279283D01*
X537746Y279214D01*
X537808Y279138D01*
X537861Y279055D01*
X537916Y279002D01*
X537964Y278942D01*
X538041Y278881D01*
X538112Y278813D01*
X538177Y278773D01*
X538237Y278726D01*
X538370Y278658D01*
X538411Y278634D01*
X538429Y278628D01*
X538455Y278615D01*
X539206Y278304D01*
X542064Y275446D01*
X543611Y271711D01*
X543611Y267669D01*
X542064Y263934D01*
X539206Y261076D01*
X535471Y259529D01*
X531429Y259529D01*
X527694Y261076D01*
X527365Y261405D01*
X527287Y261468D01*
X527214Y261538D01*
X527150Y261576D01*
X527092Y261622D01*
X527001Y261665D01*
X526915Y261717D01*
X526844Y261739D01*
X526777Y261771D01*
X526679Y261792D01*
X526583Y261823D01*
X526509Y261829D01*
X526436Y261844D01*
X526336Y261843D01*
X526236Y261851D01*
X526162Y261840D01*
X526088Y261838D01*
X525990Y261814D01*
X525891Y261799D01*
X525822Y261772D01*
X525750Y261753D01*
X525661Y261707D01*
X525567Y261670D01*
X525506Y261628D01*
X525440Y261594D01*
X525363Y261529D01*
X525281Y261471D01*
X525231Y261416D01*
X525175Y261368D01*
X525115Y261287D01*
X525048Y261213D01*
X525012Y261147D01*
X524967Y261088D01*
X524928Y260996D01*
X524879Y260908D01*
X524859Y260836D01*
X524829Y260768D01*
X524812Y260669D01*
X524784Y260572D01*
X524776Y260472D01*
X524768Y260425D01*
X524770Y260389D01*
X524765Y260328D01*
X524765Y259355D01*
X524779Y259229D01*
X524786Y259103D01*
X524799Y259056D01*
X524805Y259008D01*
X524847Y258889D01*
X524882Y258768D01*
X524906Y258726D01*
X524922Y258680D01*
X524991Y258574D01*
X525052Y258464D01*
X525092Y258418D01*
X525111Y258388D01*
X525146Y258354D01*
X525211Y258278D01*
X529018Y254470D01*
X529078Y254423D01*
X529131Y254368D01*
X529214Y254315D01*
X529291Y254253D01*
X529360Y254221D01*
X529425Y254179D01*
X529517Y254147D01*
X529606Y254105D01*
X529681Y254088D01*
X529753Y254063D01*
X529851Y254052D01*
X529947Y254031D01*
X530023Y254032D01*
X530100Y254024D01*
X530197Y254035D01*
X530296Y254037D01*
X530370Y254056D01*
X530446Y254065D01*
X530588Y254111D01*
X530634Y254122D01*
X530651Y254131D01*
X530678Y254140D01*
X531429Y254451D01*
X535471Y254451D01*
X539206Y252904D01*
X542064Y250046D01*
X543611Y246311D01*
X543611Y242269D01*
X542064Y238534D01*
X539206Y235676D01*
X535471Y234129D01*
X531429Y234129D01*
X527694Y235676D01*
X524836Y238534D01*
X523289Y242269D01*
X523289Y246311D01*
X523600Y247062D01*
X523621Y247135D01*
X523651Y247205D01*
X523669Y247302D01*
X523696Y247397D01*
X523700Y247473D01*
X523713Y247548D01*
X523708Y247647D01*
X523713Y247745D01*
X523699Y247820D01*
X523695Y247896D01*
X523668Y247991D01*
X523650Y248088D01*
X523620Y248158D01*
X523599Y248231D01*
X523551Y248317D01*
X523511Y248407D01*
X523466Y248469D01*
X523428Y248535D01*
X523332Y248649D01*
X523303Y248687D01*
X523289Y248699D01*
X523270Y248722D01*
X519462Y252529D01*
X516635Y255356D01*
X516635Y260228D01*
X516624Y260328D01*
X516622Y260429D01*
X516604Y260501D01*
X516595Y260575D01*
X516562Y260669D01*
X516537Y260767D01*
X516503Y260833D01*
X516478Y260903D01*
X516423Y260987D01*
X516377Y261076D01*
X516329Y261133D01*
X516289Y261196D01*
X516217Y261265D01*
X516152Y261342D01*
X516092Y261386D01*
X516038Y261438D01*
X515952Y261489D01*
X515871Y261549D01*
X515803Y261578D01*
X515739Y261617D01*
X515644Y261647D01*
X515551Y261687D01*
X515478Y261700D01*
X515407Y261723D01*
X515307Y261731D01*
X515208Y261749D01*
X515134Y261745D01*
X515060Y261751D01*
X514961Y261736D01*
X514860Y261731D01*
X514789Y261710D01*
X514715Y261699D01*
X514622Y261662D01*
X514525Y261634D01*
X514460Y261598D01*
X514391Y261570D01*
X514309Y261513D01*
X514221Y261464D01*
X514145Y261399D01*
X514105Y261371D01*
X514081Y261345D01*
X514035Y261305D01*
X513806Y261076D01*
X510071Y259529D01*
X506029Y259529D01*
X502294Y261076D01*
X501965Y261405D01*
X501887Y261468D01*
X501814Y261538D01*
X501750Y261576D01*
X501692Y261622D01*
X501601Y261665D01*
X501515Y261717D01*
X501444Y261739D01*
X501377Y261771D01*
X501279Y261792D01*
X501183Y261823D01*
X501109Y261829D01*
X501036Y261844D01*
X500936Y261843D01*
X500836Y261851D01*
X500762Y261840D01*
X500688Y261838D01*
X500590Y261814D01*
X500491Y261799D01*
X500422Y261772D01*
X500350Y261753D01*
X500261Y261707D01*
X500167Y261670D01*
X500106Y261628D01*
X500040Y261594D01*
X499963Y261529D01*
X499881Y261471D01*
X499831Y261416D01*
X499775Y261368D01*
X499715Y261287D01*
X499648Y261213D01*
X499612Y261147D01*
X499567Y261088D01*
X499528Y260996D01*
X499479Y260908D01*
X499459Y260836D01*
X499429Y260768D01*
X499412Y260669D01*
X499384Y260572D01*
X499376Y260472D01*
X499368Y260425D01*
X499370Y260389D01*
X499365Y260328D01*
X499365Y259355D01*
X499379Y259229D01*
X499386Y259103D01*
X499399Y259056D01*
X499405Y259008D01*
X499447Y258889D01*
X499482Y258768D01*
X499506Y258726D01*
X499522Y258680D01*
X499591Y258574D01*
X499652Y258464D01*
X499692Y258418D01*
X499711Y258388D01*
X499746Y258354D01*
X499811Y258278D01*
X503618Y254470D01*
X503678Y254423D01*
X503731Y254368D01*
X503814Y254315D01*
X503891Y254253D01*
X503960Y254221D01*
X504025Y254179D01*
X504117Y254147D01*
X504206Y254105D01*
X504281Y254088D01*
X504353Y254063D01*
X504451Y254052D01*
X504547Y254031D01*
X504623Y254032D01*
X504700Y254024D01*
X504797Y254035D01*
X504896Y254037D01*
X504970Y254056D01*
X505046Y254065D01*
X505188Y254111D01*
X505234Y254122D01*
X505251Y254131D01*
X505278Y254140D01*
X506029Y254451D01*
X510071Y254451D01*
X513806Y252904D01*
X516664Y250046D01*
X518211Y246311D01*
X518211Y242269D01*
X516664Y238534D01*
X513806Y235676D01*
X510071Y234129D01*
X506029Y234129D01*
X502294Y235676D01*
X499436Y238534D01*
X497889Y242269D01*
X497889Y246311D01*
X498200Y247062D01*
X498221Y247135D01*
X498251Y247205D01*
X498269Y247302D01*
X498296Y247397D01*
X498300Y247473D01*
X498313Y247548D01*
X498308Y247647D01*
X498313Y247745D01*
X498299Y247820D01*
X498295Y247896D01*
X498268Y247991D01*
X498250Y248088D01*
X498220Y248158D01*
X498199Y248231D01*
X498151Y248317D01*
X498111Y248407D01*
X498066Y248469D01*
X498028Y248535D01*
X497932Y248649D01*
X497903Y248687D01*
X497889Y248699D01*
X497870Y248722D01*
X494062Y252529D01*
X491235Y255356D01*
X491235Y260228D01*
X491224Y260328D01*
X491222Y260429D01*
X491204Y260501D01*
X491195Y260575D01*
X491162Y260669D01*
X491137Y260767D01*
X491103Y260833D01*
X491078Y260903D01*
X491023Y260987D01*
X490977Y261076D01*
X490929Y261133D01*
X490889Y261196D01*
X490817Y261265D01*
X490752Y261342D01*
X490692Y261386D01*
X490638Y261438D01*
X490552Y261489D01*
X490471Y261549D01*
X490403Y261578D01*
X490339Y261617D01*
X490244Y261647D01*
X490151Y261687D01*
X490078Y261700D01*
X490007Y261723D01*
X489907Y261731D01*
X489808Y261749D01*
X489734Y261745D01*
X489660Y261751D01*
X489561Y261736D01*
X489460Y261731D01*
X489389Y261710D01*
X489315Y261699D01*
X489222Y261662D01*
X489125Y261634D01*
X489060Y261598D01*
X488991Y261570D01*
X488909Y261513D01*
X488821Y261464D01*
X488745Y261399D01*
X488705Y261371D01*
X488681Y261345D01*
X488635Y261305D01*
X488406Y261076D01*
X484671Y259529D01*
X480629Y259529D01*
X476894Y261076D01*
X476705Y261265D01*
X476626Y261328D01*
X476554Y261398D01*
X476490Y261436D01*
X476432Y261482D01*
X476341Y261525D01*
X476255Y261577D01*
X476184Y261599D01*
X476117Y261631D01*
X476019Y261652D01*
X475923Y261683D01*
X475849Y261689D01*
X475776Y261704D01*
X475676Y261703D01*
X475576Y261711D01*
X475502Y261700D01*
X475428Y261698D01*
X475330Y261674D01*
X475231Y261659D01*
X475162Y261632D01*
X475090Y261613D01*
X475001Y261567D01*
X474907Y261530D01*
X474846Y261488D01*
X474780Y261454D01*
X474704Y261389D01*
X474621Y261331D01*
X474571Y261276D01*
X474515Y261228D01*
X474455Y261147D01*
X474388Y261073D01*
X474352Y261008D01*
X474307Y260948D01*
X474268Y260855D01*
X474219Y260768D01*
X474199Y260696D01*
X474169Y260628D01*
X474152Y260529D01*
X474124Y260432D01*
X474116Y260332D01*
X474108Y260285D01*
X474110Y260249D01*
X474105Y260188D01*
X474105Y255396D01*
X471278Y252569D01*
X467430Y248722D01*
X467383Y248662D01*
X467328Y248609D01*
X467275Y248526D01*
X467213Y248449D01*
X467181Y248380D01*
X467139Y248315D01*
X467107Y248223D01*
X467065Y248134D01*
X467048Y248059D01*
X467023Y247987D01*
X467012Y247889D01*
X466991Y247793D01*
X466992Y247717D01*
X466984Y247640D01*
X466995Y247543D01*
X466997Y247444D01*
X467016Y247370D01*
X467025Y247294D01*
X467071Y247152D01*
X467082Y247106D01*
X467091Y247089D01*
X467100Y247062D01*
X467411Y246311D01*
X467411Y242269D01*
X465864Y238534D01*
X463006Y235676D01*
X459271Y234129D01*
X455229Y234129D01*
X451494Y235676D01*
X448636Y238534D01*
X447089Y242269D01*
X447089Y246311D01*
X448636Y250046D01*
X451494Y252904D01*
X455229Y254451D01*
X459271Y254451D01*
X460022Y254140D01*
X460095Y254119D01*
X460165Y254089D01*
X460262Y254071D01*
X460357Y254044D01*
X460433Y254040D01*
X460508Y254027D01*
X460607Y254032D01*
X460705Y254027D01*
X460780Y254041D01*
X460856Y254045D01*
X460951Y254072D01*
X461048Y254090D01*
X461118Y254120D01*
X461191Y254141D01*
X461277Y254189D01*
X461367Y254229D01*
X461429Y254274D01*
X461495Y254312D01*
X461609Y254408D01*
X461647Y254437D01*
X461659Y254451D01*
X461682Y254470D01*
X465529Y258318D01*
X465608Y258417D01*
X465692Y258510D01*
X465716Y258553D01*
X465746Y258591D01*
X465800Y258705D01*
X465861Y258815D01*
X465874Y258862D01*
X465895Y258906D01*
X465921Y259029D01*
X465956Y259151D01*
X465961Y259212D01*
X465968Y259246D01*
X465967Y259294D01*
X465975Y259395D01*
X465975Y260368D01*
X465974Y260381D01*
X465974Y260388D01*
X465969Y260427D01*
X465964Y260468D01*
X465962Y260569D01*
X465944Y260641D01*
X465935Y260715D01*
X465902Y260809D01*
X465877Y260907D01*
X465843Y260973D01*
X465818Y261043D01*
X465763Y261127D01*
X465717Y261216D01*
X465669Y261273D01*
X465629Y261336D01*
X465557Y261405D01*
X465492Y261482D01*
X465432Y261526D01*
X465378Y261578D01*
X465292Y261629D01*
X465211Y261689D01*
X465143Y261718D01*
X465079Y261757D01*
X464984Y261787D01*
X464891Y261827D01*
X464818Y261840D01*
X464747Y261863D01*
X464647Y261871D01*
X464548Y261889D01*
X464474Y261885D01*
X464400Y261891D01*
X464301Y261876D01*
X464200Y261871D01*
X464129Y261850D01*
X464055Y261839D01*
X463962Y261802D01*
X463865Y261774D01*
X463800Y261738D01*
X463731Y261710D01*
X463649Y261653D01*
X463561Y261604D01*
X463485Y261539D01*
X463445Y261511D01*
X463421Y261485D01*
X463375Y261445D01*
X463006Y261076D01*
X459271Y259529D01*
X455229Y259529D01*
X451494Y261076D01*
X451165Y261405D01*
X451087Y261468D01*
X451014Y261538D01*
X450950Y261576D01*
X450892Y261622D01*
X450801Y261665D01*
X450715Y261717D01*
X450644Y261739D01*
X450577Y261771D01*
X450479Y261792D01*
X450383Y261823D01*
X450309Y261829D01*
X450236Y261844D01*
X450136Y261843D01*
X450036Y261851D01*
X449962Y261840D01*
X449888Y261838D01*
X449790Y261814D01*
X449691Y261799D01*
X449622Y261772D01*
X449550Y261753D01*
X449461Y261707D01*
X449367Y261670D01*
X449306Y261628D01*
X449240Y261594D01*
X449163Y261529D01*
X449081Y261471D01*
X449031Y261416D01*
X448975Y261368D01*
X448915Y261287D01*
X448848Y261213D01*
X448812Y261147D01*
X448767Y261088D01*
X448728Y260996D01*
X448679Y260908D01*
X448659Y260836D01*
X448629Y260768D01*
X448612Y260669D01*
X448584Y260572D01*
X448576Y260472D01*
X448568Y260425D01*
X448570Y260389D01*
X448565Y260328D01*
X448565Y254856D01*
X445738Y252029D01*
X442457Y248748D01*
X442378Y248649D01*
X442294Y248556D01*
X442270Y248513D01*
X442240Y248475D01*
X442186Y248361D01*
X442125Y248251D01*
X442112Y248204D01*
X442091Y248160D01*
X442065Y248037D01*
X442030Y247915D01*
X442025Y247854D01*
X442018Y247820D01*
X442019Y247772D01*
X442011Y247671D01*
X442011Y235618D01*
X440522Y234129D01*
X424434Y234129D01*
X424408Y234126D01*
X424382Y234128D01*
X424235Y234106D01*
X424088Y234089D01*
X424063Y234081D01*
X424037Y234077D01*
X423899Y234022D01*
X423760Y233972D01*
X423738Y233958D01*
X423713Y233948D01*
X423592Y233863D01*
X423467Y233783D01*
X423449Y233764D01*
X423427Y233749D01*
X423328Y233639D01*
X423225Y233532D01*
X423211Y233510D01*
X423194Y233490D01*
X423122Y233360D01*
X423046Y233233D01*
X423038Y233208D01*
X423025Y233185D01*
X422985Y233042D01*
X422940Y232901D01*
X422938Y232875D01*
X422930Y232850D01*
X422911Y232606D01*
X422911Y231394D01*
X422914Y231368D01*
X422912Y231342D01*
X422934Y231195D01*
X422951Y231048D01*
X422959Y231023D01*
X422963Y230997D01*
X423018Y230859D01*
X423068Y230720D01*
X423082Y230698D01*
X423092Y230673D01*
X423177Y230552D01*
X423257Y230427D01*
X423276Y230409D01*
X423291Y230387D01*
X423401Y230288D01*
X423508Y230185D01*
X423530Y230171D01*
X423550Y230154D01*
X423680Y230082D01*
X423807Y230006D01*
X423832Y229998D01*
X423855Y229985D01*
X423998Y229945D01*
X424139Y229900D01*
X424165Y229898D01*
X424190Y229890D01*
X424434Y229871D01*
X591566Y229871D01*
X591592Y229874D01*
G37*
%LPC*%
G36*
X536047Y508351D02*
X536047Y508351D01*
X536047Y529845D01*
X543541Y529845D01*
X543541Y510557D01*
X543368Y509911D01*
X543033Y509332D01*
X542560Y508859D01*
X541981Y508524D01*
X541335Y508351D01*
X536047Y508351D01*
G37*
%LPD*%
%LPC*%
G36*
X474665Y508351D02*
X474665Y508351D01*
X474019Y508524D01*
X473440Y508859D01*
X472967Y509332D01*
X472632Y509911D01*
X472459Y510557D01*
X472459Y529845D01*
X479953Y529845D01*
X479953Y508351D01*
X474665Y508351D01*
G37*
%LPD*%
G36*
X422345Y337687D02*
X422345Y337687D01*
X422345Y349687D01*
X422341Y349692D01*
X422340Y349692D01*
X413340Y349692D01*
X413335Y349688D01*
X413335Y349687D01*
X413335Y337687D01*
X413339Y337682D01*
X413340Y337683D01*
X413340Y337682D01*
X422340Y337682D01*
X422345Y337687D01*
G37*
G36*
X455345Y307207D02*
X455345Y307207D01*
X455345Y319207D01*
X455341Y319212D01*
X455340Y319212D01*
X446340Y319212D01*
X446335Y319208D01*
X446335Y319207D01*
X446335Y307207D01*
X446339Y307202D01*
X446340Y307203D01*
X446340Y307202D01*
X455340Y307202D01*
X455345Y307207D01*
G37*
G36*
X422345Y307207D02*
X422345Y307207D01*
X422345Y319207D01*
X422341Y319212D01*
X422340Y319212D01*
X413340Y319212D01*
X413335Y319208D01*
X413335Y319207D01*
X413335Y307207D01*
X413339Y307202D01*
X413340Y307203D01*
X413340Y307202D01*
X422340Y307202D01*
X422345Y307207D01*
G37*
G36*
X422345Y368167D02*
X422345Y368167D01*
X422345Y380167D01*
X422341Y380172D01*
X422340Y380172D01*
X413340Y380172D01*
X413335Y380168D01*
X413335Y380167D01*
X413335Y368167D01*
X413339Y368162D01*
X413340Y368163D01*
X413340Y368162D01*
X422340Y368162D01*
X422345Y368167D01*
G37*
G36*
X455345Y368167D02*
X455345Y368167D01*
X455345Y380167D01*
X455341Y380172D01*
X455340Y380172D01*
X446340Y380172D01*
X446335Y380168D01*
X446335Y380167D01*
X446335Y368167D01*
X446339Y368162D01*
X446340Y368163D01*
X446340Y368162D01*
X455340Y368162D01*
X455345Y368167D01*
G37*
G36*
X455345Y337687D02*
X455345Y337687D01*
X455345Y349687D01*
X455341Y349692D01*
X455340Y349692D01*
X446340Y349692D01*
X446335Y349688D01*
X446335Y349687D01*
X446335Y337687D01*
X446339Y337682D01*
X446340Y337683D01*
X446340Y337682D01*
X455340Y337682D01*
X455345Y337687D01*
G37*
%LPC*%
G36*
X423687Y425967D02*
X423687Y425967D01*
X423687Y431961D01*
X428475Y431961D01*
X429121Y431788D01*
X429700Y431453D01*
X430173Y430980D01*
X430508Y430401D01*
X430599Y430061D01*
X430645Y429944D01*
X430683Y429825D01*
X430708Y429783D01*
X430727Y429737D01*
X430798Y429634D01*
X430862Y429527D01*
X430897Y429491D01*
X430925Y429450D01*
X431018Y429366D01*
X431105Y429276D01*
X431147Y429250D01*
X431183Y429216D01*
X431293Y429156D01*
X431398Y429088D01*
X431445Y429071D01*
X431488Y429047D01*
X431609Y429013D01*
X431726Y428971D01*
X431776Y428965D01*
X431823Y428952D01*
X431948Y428946D01*
X432073Y428932D01*
X432122Y428938D01*
X432172Y428935D01*
X432295Y428958D01*
X432419Y428972D01*
X432465Y428989D01*
X432514Y428998D01*
X432629Y429048D01*
X432747Y429090D01*
X432788Y429117D01*
X432834Y429137D01*
X432934Y429212D01*
X433039Y429280D01*
X433074Y429316D01*
X433113Y429345D01*
X433194Y429441D01*
X433281Y429531D01*
X433306Y429574D01*
X433338Y429612D01*
X433395Y429723D01*
X433459Y429830D01*
X433480Y429889D01*
X433497Y429922D01*
X433508Y429968D01*
X433541Y430061D01*
X433632Y430401D01*
X433967Y430980D01*
X434440Y431453D01*
X435019Y431788D01*
X435665Y431961D01*
X440453Y431961D01*
X440453Y425967D01*
X423687Y425967D01*
G37*
%LPD*%
%LPC*%
G36*
X446547Y425967D02*
X446547Y425967D01*
X446547Y431961D01*
X451335Y431961D01*
X451981Y431788D01*
X452560Y431453D01*
X453033Y430980D01*
X453368Y430401D01*
X453541Y429755D01*
X453541Y425967D01*
X446547Y425967D01*
G37*
%LPD*%
%LPC*%
G36*
X475487Y425967D02*
X475487Y425967D01*
X475487Y431961D01*
X480275Y431961D01*
X480921Y431788D01*
X481500Y431453D01*
X481973Y430980D01*
X482308Y430401D01*
X482481Y429755D01*
X482481Y425967D01*
X475487Y425967D01*
G37*
%LPD*%
%LPC*%
G36*
X410599Y425967D02*
X410599Y425967D01*
X410599Y429755D01*
X410772Y430401D01*
X411107Y430980D01*
X411580Y431453D01*
X412159Y431788D01*
X412805Y431961D01*
X417593Y431961D01*
X417593Y425967D01*
X410599Y425967D01*
G37*
%LPD*%
%LPC*%
G36*
X462399Y425967D02*
X462399Y425967D01*
X462399Y429755D01*
X462572Y430401D01*
X462907Y430980D01*
X463380Y431453D01*
X463959Y431788D01*
X464605Y431961D01*
X469393Y431961D01*
X469393Y425967D01*
X462399Y425967D01*
G37*
%LPD*%
%LPC*%
G36*
X396199Y459699D02*
X396199Y459699D01*
X396199Y467072D01*
X397600Y466616D01*
X399025Y465890D01*
X400319Y464950D01*
X401450Y463819D01*
X402390Y462525D01*
X403116Y461100D01*
X403572Y459699D01*
X396199Y459699D01*
G37*
%LPD*%
%LPC*%
G36*
X485149Y246789D02*
X485149Y246789D01*
X485149Y254162D01*
X486550Y253706D01*
X487975Y252980D01*
X489269Y252040D01*
X490400Y250909D01*
X491340Y249615D01*
X492066Y248190D01*
X492522Y246789D01*
X485149Y246789D01*
G37*
%LPD*%
%LPC*%
G36*
X561349Y246789D02*
X561349Y246789D01*
X561349Y254162D01*
X562750Y253706D01*
X564175Y252980D01*
X565469Y252040D01*
X566600Y250909D01*
X567540Y249615D01*
X568266Y248190D01*
X568722Y246789D01*
X561349Y246789D01*
G37*
%LPD*%
%LPC*%
G36*
X612428Y307299D02*
X612428Y307299D01*
X612884Y308700D01*
X613610Y310125D01*
X614550Y311419D01*
X615681Y312550D01*
X616975Y313490D01*
X618400Y314216D01*
X619801Y314672D01*
X619801Y307299D01*
X612428Y307299D01*
G37*
%LPD*%
%LPC*%
G36*
X612428Y485099D02*
X612428Y485099D01*
X612884Y486500D01*
X613610Y487925D01*
X614550Y489219D01*
X615681Y490350D01*
X616975Y491290D01*
X618400Y492016D01*
X619801Y492472D01*
X619801Y485099D01*
X612428Y485099D01*
G37*
%LPD*%
%LPC*%
G36*
X396199Y454701D02*
X396199Y454701D01*
X403572Y454701D01*
X403116Y453300D01*
X402390Y451875D01*
X401450Y450581D01*
X400319Y449450D01*
X399025Y448510D01*
X397600Y447784D01*
X396199Y447328D01*
X396199Y454701D01*
G37*
%LPD*%
%LPC*%
G36*
X472778Y246789D02*
X472778Y246789D01*
X473234Y248190D01*
X473960Y249615D01*
X474900Y250909D01*
X476031Y252040D01*
X477325Y252980D01*
X478750Y253706D01*
X480151Y254162D01*
X480151Y246789D01*
X472778Y246789D01*
G37*
%LPD*%
%LPC*%
G36*
X485149Y241791D02*
X485149Y241791D01*
X492522Y241791D01*
X492066Y240390D01*
X491340Y238965D01*
X490400Y237671D01*
X489269Y236540D01*
X487975Y235600D01*
X486550Y234874D01*
X485149Y234418D01*
X485149Y241791D01*
G37*
%LPD*%
%LPC*%
G36*
X548978Y246789D02*
X548978Y246789D01*
X549434Y248190D01*
X550160Y249615D01*
X551100Y250909D01*
X552231Y252040D01*
X553525Y252980D01*
X554950Y253706D01*
X556351Y254162D01*
X556351Y246789D01*
X548978Y246789D01*
G37*
%LPD*%
%LPC*%
G36*
X561349Y241791D02*
X561349Y241791D01*
X568722Y241791D01*
X568266Y240390D01*
X567540Y238965D01*
X566600Y237671D01*
X565469Y236540D01*
X564175Y235600D01*
X562750Y234874D01*
X561349Y234418D01*
X561349Y241791D01*
G37*
%LPD*%
%LPC*%
G36*
X554950Y234874D02*
X554950Y234874D01*
X553525Y235600D01*
X552231Y236540D01*
X551100Y237671D01*
X550160Y238965D01*
X549434Y240390D01*
X548978Y241791D01*
X556351Y241791D01*
X556351Y234418D01*
X554950Y234874D01*
G37*
%LPD*%
%LPC*%
G36*
X618400Y473184D02*
X618400Y473184D01*
X616975Y473910D01*
X615681Y474850D01*
X614550Y475981D01*
X613610Y477275D01*
X612884Y478700D01*
X612428Y480101D01*
X619801Y480101D01*
X619801Y472728D01*
X618400Y473184D01*
G37*
%LPD*%
%LPC*%
G36*
X478750Y234874D02*
X478750Y234874D01*
X477325Y235600D01*
X476031Y236540D01*
X474900Y237671D01*
X473960Y238965D01*
X473234Y240390D01*
X472778Y241791D01*
X480151Y241791D01*
X480151Y234418D01*
X478750Y234874D01*
G37*
%LPD*%
D10*
X420640Y403920D03*
X420640Y422920D03*
X443500Y403920D03*
X443500Y422920D03*
D11*
X417840Y343687D03*
X450840Y343687D03*
X417840Y313207D03*
X450840Y313207D03*
D12*
X533000Y532892D03*
X483000Y532892D03*
D13*
X427090Y330200D03*
X441590Y330200D03*
X427090Y299720D03*
X441590Y299720D03*
D14*
X393700Y482600D03*
X393700Y457200D03*
X393700Y431800D03*
X393700Y406400D03*
X393700Y381000D03*
X393700Y355600D03*
X393700Y330200D03*
X393700Y304800D03*
X622300Y482600D03*
X622300Y457200D03*
X622300Y431800D03*
X622300Y406400D03*
X622300Y381000D03*
X622300Y355600D03*
X622300Y330200D03*
X622300Y304800D03*
D15*
X431850Y244290D03*
D14*
X431850Y269690D03*
X457250Y244290D03*
X457250Y269690D03*
X482650Y244290D03*
X482650Y269690D03*
X508050Y244290D03*
X508050Y269690D03*
X533450Y244290D03*
X533450Y269690D03*
X558850Y244290D03*
X558850Y269690D03*
X584250Y244290D03*
X584250Y269690D03*
D13*
X427090Y360680D03*
X441590Y360680D03*
D11*
X417840Y374167D03*
X450840Y374167D03*
D10*
X472440Y422920D03*
X472440Y403920D03*
X556260Y481940D03*
X556260Y462940D03*
X579120Y481940D03*
X579120Y462940D03*
D13*
X566790Y309880D03*
X581290Y309880D03*
X566790Y335280D03*
X581290Y335280D03*
X581290Y322580D03*
X566790Y322580D03*
D16*
X414020Y515620D03*
X447040Y548640D03*
X568960Y548640D03*
X601980Y515620D03*
X533400Y289560D03*
D17*
X533450Y292055D01*
X533450Y269690D01*
D16*
X548640Y351790D03*
D17*
X431850Y270960D02*
X431850Y269690D01*
X431850Y270960D02*
X482524Y321634D01*
X482524Y337284D01*
X497030Y351790D01*
X548640Y351790D01*
X474980Y287107D02*
X474980Y277360D01*
D16*
X546100Y322580D03*
D17*
X482650Y269690D02*
X474980Y277360D01*
X474980Y287107D02*
X510680Y322580D01*
X546100Y322580D01*
X553720Y332740D02*
X496619Y332740D01*
D16*
X553720Y332740D03*
D17*
X496619Y332740D02*
X492011Y328133D01*
X492011Y317863D01*
X464946Y290798D01*
X464946Y277386D01*
X457250Y269690D01*
D16*
X508050Y289560D03*
D18*
X443500Y403920D02*
X420640Y403920D01*
D16*
X461518Y380746D03*
D19*
X443500Y398764D02*
X443500Y403920D01*
X443500Y398764D02*
X461518Y380746D01*
X508050Y289560D02*
X508050Y269690D01*
D17*
X444500Y276932D02*
X444500Y256540D01*
X497460Y342900D02*
X541020Y342900D01*
D16*
X541020Y342900D03*
D17*
X497460Y342900D02*
X487286Y332726D01*
X487286Y319718D01*
X444500Y276932D01*
X444500Y256540D02*
X432250Y244290D01*
X431850Y244290D01*
D16*
X487680Y289560D03*
X474980Y323850D03*
D17*
X474980Y320950D01*
X453740Y299720D01*
X441590Y299720D01*
X504601Y368850D02*
X516170Y368850D01*
X504601Y368850D02*
X474980Y339219D01*
X474980Y323850D01*
X516170Y368850D02*
X579120Y431800D01*
X520700Y257040D02*
X533450Y244290D01*
X520700Y257040D02*
X520700Y287782D01*
X511076Y297406D01*
X495018Y297406D02*
X487680Y289560D01*
X495018Y297406D02*
X511076Y297406D01*
X579120Y431800D02*
X579120Y462940D01*
D16*
X497840Y289560D03*
X461518Y350266D03*
D17*
X457183Y330200D02*
X441590Y330200D01*
X487108Y360108D02*
X556260Y429260D01*
X495300Y257040D02*
X508050Y244290D01*
X556260Y429260D02*
X556260Y462940D01*
X497840Y289560D02*
X495300Y287020D01*
X495300Y257040D01*
X461518Y350266D02*
X471360Y360108D01*
X487108Y360108D01*
X461518Y350266D02*
X461518Y334535D01*
X457183Y330200D01*
X417840Y369930D02*
X417840Y374167D01*
X417840Y369930D02*
X427090Y360680D01*
D20*
X417840Y374167D02*
X412267Y374167D01*
X393700Y355600D01*
D16*
X508000Y360680D03*
D17*
X554158Y360680D01*
X566790Y348048D02*
X566790Y335280D01*
X566790Y348048D02*
X554158Y360680D01*
D16*
X518160Y302260D03*
D17*
X561340Y309880D02*
X566790Y309880D01*
X561340Y309880D02*
X553720Y302260D01*
X518160Y302260D01*
X499318Y318290D02*
X499318Y323850D01*
D16*
X461518Y364744D03*
X499318Y323850D03*
X475996Y350266D03*
D17*
X468150Y320696D02*
X461322Y313868D01*
X470040Y257080D02*
X457250Y244290D01*
X450840Y351430D02*
X441590Y360680D01*
X450840Y351430D02*
X450840Y343687D01*
X450840Y369930D02*
X450840Y374167D01*
X450840Y369930D02*
X441590Y360680D01*
X499318Y318290D02*
X470040Y289012D01*
X470040Y257080D01*
D21*
X450840Y313207D02*
X451501Y313868D01*
D17*
X461322Y313868D01*
X468150Y342420D02*
X475996Y350266D01*
X468150Y342420D02*
X468150Y320696D01*
X472440Y375666D02*
X472440Y403920D01*
X472440Y375666D02*
X461518Y364744D01*
X457454Y360680D02*
X441590Y360680D01*
X457454Y360680D02*
X461518Y364744D01*
X417840Y343687D02*
X417840Y339450D01*
X427090Y330200D01*
D20*
X407187Y343687D02*
X393700Y330200D01*
X407187Y343687D02*
X417840Y343687D01*
D17*
X417840Y313207D02*
X417840Y308970D01*
X427090Y299720D01*
D20*
X417840Y313207D02*
X402107Y313207D01*
X393700Y304800D01*
D16*
X579120Y496062D03*
D17*
X579120Y481940D01*
D16*
X556260Y496062D03*
D17*
X556260Y481940D01*
X581290Y302260D02*
X558850Y279820D01*
X558850Y269690D01*
X581290Y302260D02*
X581290Y309880D01*
X584250Y287208D02*
X584250Y269690D01*
X584250Y287208D02*
X598240Y301198D01*
X586370Y335280D02*
X581290Y335280D01*
X586370Y335280D02*
X598240Y323410D01*
X598240Y301198D01*
D16*
X525780Y309880D03*
D17*
X549010Y309880D02*
X561710Y322580D01*
X566790Y322580D01*
X549010Y309880D02*
X525780Y309880D01*
X584250Y244443D02*
X584250Y244290D01*
X584250Y244443D02*
X571042Y257651D01*
X581290Y322580D02*
X586231Y322580D01*
X591128Y317683D01*
X571042Y283006D02*
X571042Y257651D01*
X571042Y283006D02*
X591128Y303092D01*
X591128Y317683D01*
M02*
