G04 EAGLE Gerber RS-274X export*
G75*
%MOMM*%
%FSLAX34Y34*%
%LPD*%
%INSilkscreen Bottom*%
%IPPOS*%
%AMOC8*
5,1,8,0,0,1.08239X$1,22.5*%
G01*
%ADD10C,0.101600*%
%ADD11C,0.076200*%
%ADD12C,0.100000*%
%ADD13C,0.050800*%
%ADD14C,0.127000*%

G36*
X430601Y369990D02*
X430601Y369990D01*
X430631Y369991D01*
X430658Y370006D01*
X430700Y370017D01*
X431459Y370397D01*
X432220Y370777D01*
X432980Y371157D01*
X433741Y371538D01*
X434501Y371918D01*
X435262Y372298D01*
X436022Y372678D01*
X436783Y373059D01*
X437543Y373439D01*
X438304Y373819D01*
X438320Y373827D01*
X438384Y373880D01*
X438451Y373936D01*
X438452Y373937D01*
X438453Y373938D01*
X438487Y374014D01*
X438523Y374093D01*
X438523Y374095D01*
X438524Y374096D01*
X438520Y374182D01*
X438517Y374267D01*
X438516Y374268D01*
X438516Y374270D01*
X438475Y374345D01*
X438435Y374419D01*
X438434Y374420D01*
X438433Y374421D01*
X438423Y374428D01*
X438320Y374508D01*
X430700Y378318D01*
X430650Y378330D01*
X430602Y378351D01*
X430567Y378349D01*
X430532Y378358D01*
X430481Y378346D01*
X430429Y378344D01*
X430398Y378327D01*
X430363Y378319D01*
X430323Y378286D01*
X430277Y378261D01*
X430256Y378232D01*
X430229Y378209D01*
X430207Y378162D01*
X430177Y378120D01*
X430169Y378079D01*
X430157Y378051D01*
X430158Y378037D01*
X430157Y378035D01*
X430157Y378017D01*
X430150Y377977D01*
X430150Y370357D01*
X430162Y370307D01*
X430164Y370255D01*
X430181Y370224D01*
X430189Y370189D01*
X430222Y370149D01*
X430247Y370103D01*
X430277Y370083D01*
X430299Y370055D01*
X430347Y370034D01*
X430389Y370004D01*
X430425Y369999D01*
X430458Y369984D01*
X430509Y369986D01*
X430560Y369978D01*
X430601Y369990D01*
G37*
G36*
X430601Y339510D02*
X430601Y339510D01*
X430631Y339511D01*
X430658Y339526D01*
X430700Y339537D01*
X431459Y339917D01*
X432220Y340297D01*
X432980Y340677D01*
X433741Y341058D01*
X434501Y341438D01*
X435262Y341818D01*
X436022Y342198D01*
X436783Y342579D01*
X437543Y342959D01*
X438304Y343339D01*
X438320Y343347D01*
X438384Y343400D01*
X438451Y343456D01*
X438452Y343457D01*
X438453Y343458D01*
X438487Y343534D01*
X438523Y343613D01*
X438523Y343615D01*
X438524Y343616D01*
X438520Y343702D01*
X438517Y343787D01*
X438516Y343788D01*
X438516Y343790D01*
X438475Y343865D01*
X438435Y343939D01*
X438434Y343940D01*
X438433Y343941D01*
X438423Y343948D01*
X438320Y344028D01*
X430700Y347838D01*
X430650Y347850D01*
X430602Y347871D01*
X430567Y347869D01*
X430532Y347878D01*
X430481Y347866D01*
X430429Y347864D01*
X430398Y347847D01*
X430363Y347839D01*
X430323Y347806D01*
X430277Y347781D01*
X430256Y347752D01*
X430229Y347729D01*
X430207Y347682D01*
X430177Y347640D01*
X430169Y347599D01*
X430157Y347571D01*
X430158Y347557D01*
X430157Y347555D01*
X430157Y347537D01*
X430150Y347497D01*
X430150Y339877D01*
X430162Y339827D01*
X430164Y339775D01*
X430181Y339744D01*
X430189Y339709D01*
X430222Y339669D01*
X430247Y339623D01*
X430277Y339603D01*
X430299Y339575D01*
X430347Y339554D01*
X430389Y339524D01*
X430425Y339519D01*
X430458Y339504D01*
X430509Y339506D01*
X430560Y339498D01*
X430601Y339510D01*
G37*
G36*
X430601Y309030D02*
X430601Y309030D01*
X430631Y309031D01*
X430658Y309046D01*
X430700Y309057D01*
X431459Y309437D01*
X432220Y309817D01*
X432980Y310197D01*
X433741Y310578D01*
X434501Y310958D01*
X435262Y311338D01*
X436022Y311718D01*
X436783Y312099D01*
X437543Y312479D01*
X438304Y312859D01*
X438320Y312867D01*
X438384Y312920D01*
X438451Y312976D01*
X438452Y312977D01*
X438453Y312978D01*
X438487Y313054D01*
X438523Y313133D01*
X438523Y313135D01*
X438524Y313136D01*
X438520Y313222D01*
X438517Y313307D01*
X438516Y313308D01*
X438516Y313310D01*
X438475Y313385D01*
X438435Y313459D01*
X438434Y313460D01*
X438433Y313461D01*
X438423Y313468D01*
X438320Y313548D01*
X430700Y317358D01*
X430650Y317370D01*
X430602Y317391D01*
X430567Y317389D01*
X430532Y317398D01*
X430481Y317386D01*
X430429Y317384D01*
X430398Y317367D01*
X430363Y317359D01*
X430323Y317326D01*
X430277Y317301D01*
X430256Y317272D01*
X430229Y317249D01*
X430207Y317202D01*
X430177Y317160D01*
X430169Y317119D01*
X430157Y317091D01*
X430158Y317077D01*
X430157Y317075D01*
X430157Y317057D01*
X430150Y317017D01*
X430150Y309397D01*
X430162Y309347D01*
X430164Y309295D01*
X430181Y309264D01*
X430189Y309229D01*
X430222Y309189D01*
X430247Y309143D01*
X430277Y309123D01*
X430299Y309095D01*
X430347Y309074D01*
X430389Y309044D01*
X430425Y309039D01*
X430458Y309024D01*
X430509Y309026D01*
X430560Y309018D01*
X430601Y309030D01*
G37*
D10*
X499872Y358140D02*
X499872Y363220D01*
X498461Y363220D01*
X498387Y363218D01*
X498314Y363212D01*
X498240Y363203D01*
X498168Y363189D01*
X498096Y363172D01*
X498025Y363151D01*
X497955Y363126D01*
X497887Y363098D01*
X497820Y363066D01*
X497756Y363031D01*
X497693Y362992D01*
X497632Y362951D01*
X497573Y362906D01*
X497517Y362858D01*
X497463Y362807D01*
X497412Y362753D01*
X497364Y362697D01*
X497319Y362638D01*
X497278Y362577D01*
X497239Y362515D01*
X497204Y362450D01*
X497172Y362383D01*
X497144Y362315D01*
X497119Y362245D01*
X497098Y362174D01*
X497081Y362102D01*
X497067Y362030D01*
X497058Y361956D01*
X497052Y361883D01*
X497050Y361809D01*
X497050Y359551D01*
X497052Y359477D01*
X497058Y359404D01*
X497067Y359330D01*
X497081Y359258D01*
X497098Y359186D01*
X497119Y359115D01*
X497144Y359045D01*
X497172Y358977D01*
X497204Y358910D01*
X497239Y358846D01*
X497278Y358783D01*
X497319Y358722D01*
X497364Y358663D01*
X497412Y358607D01*
X497463Y358553D01*
X497517Y358502D01*
X497573Y358454D01*
X497632Y358409D01*
X497693Y358368D01*
X497756Y358329D01*
X497820Y358294D01*
X497887Y358262D01*
X497955Y358234D01*
X498025Y358209D01*
X498096Y358188D01*
X498168Y358171D01*
X498240Y358157D01*
X498314Y358148D01*
X498387Y358142D01*
X498461Y358140D01*
X499872Y358140D01*
X493889Y358140D02*
X493889Y363220D01*
X494453Y358140D02*
X493324Y358140D01*
X493324Y363220D02*
X494453Y363220D01*
X490911Y361809D02*
X490911Y359551D01*
X490911Y361809D02*
X490909Y361883D01*
X490903Y361956D01*
X490894Y362030D01*
X490880Y362102D01*
X490863Y362174D01*
X490842Y362245D01*
X490817Y362315D01*
X490789Y362383D01*
X490757Y362450D01*
X490722Y362515D01*
X490683Y362577D01*
X490642Y362638D01*
X490597Y362697D01*
X490549Y362753D01*
X490498Y362807D01*
X490444Y362858D01*
X490388Y362906D01*
X490329Y362951D01*
X490268Y362992D01*
X490206Y363031D01*
X490141Y363066D01*
X490074Y363098D01*
X490006Y363126D01*
X489936Y363151D01*
X489865Y363172D01*
X489793Y363189D01*
X489721Y363203D01*
X489647Y363212D01*
X489574Y363218D01*
X489500Y363220D01*
X489426Y363218D01*
X489353Y363212D01*
X489279Y363203D01*
X489207Y363189D01*
X489135Y363172D01*
X489064Y363151D01*
X488994Y363126D01*
X488926Y363098D01*
X488859Y363066D01*
X488795Y363031D01*
X488732Y362992D01*
X488671Y362951D01*
X488612Y362906D01*
X488556Y362858D01*
X488502Y362807D01*
X488451Y362753D01*
X488403Y362697D01*
X488358Y362638D01*
X488317Y362577D01*
X488278Y362515D01*
X488243Y362450D01*
X488211Y362383D01*
X488183Y362315D01*
X488158Y362245D01*
X488137Y362174D01*
X488120Y362102D01*
X488106Y362030D01*
X488097Y361956D01*
X488091Y361883D01*
X488089Y361809D01*
X488089Y359551D01*
X488091Y359477D01*
X488097Y359404D01*
X488106Y359330D01*
X488120Y359258D01*
X488137Y359186D01*
X488158Y359115D01*
X488183Y359045D01*
X488211Y358977D01*
X488243Y358910D01*
X488278Y358846D01*
X488317Y358783D01*
X488358Y358722D01*
X488403Y358663D01*
X488451Y358607D01*
X488502Y358553D01*
X488556Y358502D01*
X488612Y358454D01*
X488671Y358409D01*
X488732Y358368D01*
X488795Y358329D01*
X488859Y358294D01*
X488926Y358262D01*
X488994Y358234D01*
X489064Y358209D01*
X489135Y358188D01*
X489207Y358171D01*
X489279Y358157D01*
X489353Y358148D01*
X489426Y358142D01*
X489500Y358140D01*
X489574Y358142D01*
X489647Y358148D01*
X489721Y358157D01*
X489793Y358171D01*
X489865Y358188D01*
X489936Y358209D01*
X490006Y358234D01*
X490074Y358262D01*
X490141Y358294D01*
X490206Y358329D01*
X490268Y358368D01*
X490329Y358409D01*
X490388Y358454D01*
X490444Y358502D01*
X490498Y358553D01*
X490549Y358607D01*
X490597Y358663D01*
X490642Y358722D01*
X490683Y358783D01*
X490722Y358846D01*
X490757Y358910D01*
X490789Y358977D01*
X490817Y359045D01*
X490842Y359115D01*
X490863Y359186D01*
X490880Y359258D01*
X490894Y359330D01*
X490903Y359404D01*
X490909Y359477D01*
X490911Y359551D01*
X485424Y360680D02*
X485422Y360807D01*
X485416Y360933D01*
X485407Y361059D01*
X485393Y361185D01*
X485376Y361310D01*
X485355Y361435D01*
X485331Y361559D01*
X485302Y361683D01*
X485270Y361805D01*
X485234Y361927D01*
X485195Y362047D01*
X485151Y362166D01*
X485105Y362283D01*
X485054Y362400D01*
X485001Y362514D01*
X485002Y362515D02*
X484980Y362572D01*
X484955Y362629D01*
X484926Y362683D01*
X484895Y362736D01*
X484860Y362787D01*
X484823Y362836D01*
X484782Y362883D01*
X484739Y362927D01*
X484694Y362968D01*
X484646Y363007D01*
X484595Y363043D01*
X484543Y363076D01*
X484489Y363106D01*
X484434Y363132D01*
X484376Y363155D01*
X484318Y363175D01*
X484258Y363191D01*
X484198Y363204D01*
X484137Y363213D01*
X484076Y363218D01*
X484014Y363220D01*
X483952Y363218D01*
X483891Y363213D01*
X483830Y363204D01*
X483770Y363191D01*
X483710Y363175D01*
X483652Y363155D01*
X483595Y363132D01*
X483539Y363106D01*
X483485Y363076D01*
X483433Y363043D01*
X483382Y363007D01*
X483334Y362969D01*
X483289Y362927D01*
X483246Y362883D01*
X483205Y362836D01*
X483168Y362787D01*
X483133Y362736D01*
X483102Y362683D01*
X483073Y362629D01*
X483048Y362572D01*
X483026Y362515D01*
X483026Y362514D02*
X482973Y362400D01*
X482922Y362284D01*
X482876Y362166D01*
X482832Y362047D01*
X482793Y361927D01*
X482757Y361805D01*
X482725Y361683D01*
X482696Y361560D01*
X482672Y361435D01*
X482651Y361311D01*
X482634Y361185D01*
X482620Y361059D01*
X482611Y360933D01*
X482605Y360807D01*
X482603Y360680D01*
X485425Y360680D02*
X485423Y360553D01*
X485417Y360427D01*
X485408Y360301D01*
X485394Y360175D01*
X485377Y360049D01*
X485356Y359925D01*
X485332Y359800D01*
X485303Y359677D01*
X485271Y359555D01*
X485235Y359433D01*
X485196Y359313D01*
X485152Y359194D01*
X485106Y359076D01*
X485055Y358960D01*
X485002Y358845D01*
X484980Y358788D01*
X484955Y358731D01*
X484926Y358677D01*
X484895Y358624D01*
X484860Y358573D01*
X484823Y358524D01*
X484782Y358477D01*
X484739Y358433D01*
X484694Y358391D01*
X484646Y358353D01*
X484595Y358317D01*
X484543Y358284D01*
X484489Y358254D01*
X484433Y358228D01*
X484376Y358205D01*
X484318Y358185D01*
X484258Y358169D01*
X484198Y358156D01*
X484137Y358147D01*
X484076Y358142D01*
X484014Y358140D01*
X483026Y358846D02*
X482973Y358960D01*
X482922Y359076D01*
X482876Y359194D01*
X482832Y359313D01*
X482793Y359433D01*
X482757Y359555D01*
X482725Y359677D01*
X482696Y359801D01*
X482672Y359925D01*
X482651Y360049D01*
X482634Y360175D01*
X482620Y360301D01*
X482611Y360427D01*
X482605Y360553D01*
X482603Y360680D01*
X483026Y358845D02*
X483048Y358788D01*
X483073Y358731D01*
X483102Y358677D01*
X483133Y358624D01*
X483168Y358573D01*
X483205Y358524D01*
X483246Y358477D01*
X483289Y358433D01*
X483334Y358391D01*
X483382Y358353D01*
X483433Y358317D01*
X483485Y358284D01*
X483539Y358254D01*
X483595Y358228D01*
X483652Y358205D01*
X483710Y358185D01*
X483770Y358169D01*
X483830Y358156D01*
X483891Y358147D01*
X483952Y358142D01*
X484014Y358140D01*
X485142Y359269D02*
X482885Y362091D01*
X499872Y332740D02*
X499872Y327660D01*
X499872Y332740D02*
X498461Y332740D01*
X498387Y332738D01*
X498314Y332732D01*
X498240Y332723D01*
X498168Y332709D01*
X498096Y332692D01*
X498025Y332671D01*
X497955Y332646D01*
X497887Y332618D01*
X497820Y332586D01*
X497756Y332551D01*
X497693Y332512D01*
X497632Y332471D01*
X497573Y332426D01*
X497517Y332378D01*
X497463Y332327D01*
X497412Y332273D01*
X497364Y332217D01*
X497319Y332158D01*
X497278Y332097D01*
X497239Y332035D01*
X497204Y331970D01*
X497172Y331903D01*
X497144Y331835D01*
X497119Y331765D01*
X497098Y331694D01*
X497081Y331622D01*
X497067Y331550D01*
X497058Y331476D01*
X497052Y331403D01*
X497050Y331329D01*
X497050Y329071D01*
X497052Y328997D01*
X497058Y328924D01*
X497067Y328850D01*
X497081Y328778D01*
X497098Y328706D01*
X497119Y328635D01*
X497144Y328565D01*
X497172Y328497D01*
X497204Y328430D01*
X497239Y328366D01*
X497278Y328303D01*
X497319Y328242D01*
X497364Y328183D01*
X497412Y328127D01*
X497463Y328073D01*
X497517Y328022D01*
X497573Y327974D01*
X497632Y327929D01*
X497693Y327888D01*
X497756Y327849D01*
X497820Y327814D01*
X497887Y327782D01*
X497955Y327754D01*
X498025Y327729D01*
X498096Y327708D01*
X498168Y327691D01*
X498240Y327677D01*
X498314Y327668D01*
X498387Y327662D01*
X498461Y327660D01*
X499872Y327660D01*
X493889Y327660D02*
X493889Y332740D01*
X494453Y327660D02*
X493324Y327660D01*
X493324Y332740D02*
X494453Y332740D01*
X490911Y331329D02*
X490911Y329071D01*
X490911Y331329D02*
X490909Y331403D01*
X490903Y331476D01*
X490894Y331550D01*
X490880Y331622D01*
X490863Y331694D01*
X490842Y331765D01*
X490817Y331835D01*
X490789Y331903D01*
X490757Y331970D01*
X490722Y332035D01*
X490683Y332097D01*
X490642Y332158D01*
X490597Y332217D01*
X490549Y332273D01*
X490498Y332327D01*
X490444Y332378D01*
X490388Y332426D01*
X490329Y332471D01*
X490268Y332512D01*
X490206Y332551D01*
X490141Y332586D01*
X490074Y332618D01*
X490006Y332646D01*
X489936Y332671D01*
X489865Y332692D01*
X489793Y332709D01*
X489721Y332723D01*
X489647Y332732D01*
X489574Y332738D01*
X489500Y332740D01*
X489426Y332738D01*
X489353Y332732D01*
X489279Y332723D01*
X489207Y332709D01*
X489135Y332692D01*
X489064Y332671D01*
X488994Y332646D01*
X488926Y332618D01*
X488859Y332586D01*
X488795Y332551D01*
X488732Y332512D01*
X488671Y332471D01*
X488612Y332426D01*
X488556Y332378D01*
X488502Y332327D01*
X488451Y332273D01*
X488403Y332217D01*
X488358Y332158D01*
X488317Y332097D01*
X488278Y332035D01*
X488243Y331970D01*
X488211Y331903D01*
X488183Y331835D01*
X488158Y331765D01*
X488137Y331694D01*
X488120Y331622D01*
X488106Y331550D01*
X488097Y331476D01*
X488091Y331403D01*
X488089Y331329D01*
X488089Y329071D01*
X488091Y328997D01*
X488097Y328924D01*
X488106Y328850D01*
X488120Y328778D01*
X488137Y328706D01*
X488158Y328635D01*
X488183Y328565D01*
X488211Y328497D01*
X488243Y328430D01*
X488278Y328366D01*
X488317Y328303D01*
X488358Y328242D01*
X488403Y328183D01*
X488451Y328127D01*
X488502Y328073D01*
X488556Y328022D01*
X488612Y327974D01*
X488671Y327929D01*
X488732Y327888D01*
X488795Y327849D01*
X488859Y327814D01*
X488926Y327782D01*
X488994Y327754D01*
X489064Y327729D01*
X489135Y327708D01*
X489207Y327691D01*
X489279Y327677D01*
X489353Y327668D01*
X489426Y327662D01*
X489500Y327660D01*
X489574Y327662D01*
X489647Y327668D01*
X489721Y327677D01*
X489793Y327691D01*
X489865Y327708D01*
X489936Y327729D01*
X490006Y327754D01*
X490074Y327782D01*
X490141Y327814D01*
X490206Y327849D01*
X490268Y327888D01*
X490329Y327929D01*
X490388Y327974D01*
X490444Y328022D01*
X490498Y328073D01*
X490549Y328127D01*
X490597Y328183D01*
X490642Y328242D01*
X490683Y328303D01*
X490722Y328366D01*
X490757Y328430D01*
X490789Y328497D01*
X490817Y328565D01*
X490842Y328635D01*
X490863Y328706D01*
X490880Y328778D01*
X490894Y328850D01*
X490903Y328924D01*
X490909Y328997D01*
X490911Y329071D01*
X485425Y331611D02*
X484014Y332740D01*
X484014Y327660D01*
X485425Y327660D02*
X482602Y327660D01*
X499872Y302260D02*
X499872Y297180D01*
X499872Y302260D02*
X498461Y302260D01*
X498387Y302258D01*
X498314Y302252D01*
X498240Y302243D01*
X498168Y302229D01*
X498096Y302212D01*
X498025Y302191D01*
X497955Y302166D01*
X497887Y302138D01*
X497820Y302106D01*
X497756Y302071D01*
X497693Y302032D01*
X497632Y301991D01*
X497573Y301946D01*
X497517Y301898D01*
X497463Y301847D01*
X497412Y301793D01*
X497364Y301737D01*
X497319Y301678D01*
X497278Y301617D01*
X497239Y301555D01*
X497204Y301490D01*
X497172Y301423D01*
X497144Y301355D01*
X497119Y301285D01*
X497098Y301214D01*
X497081Y301142D01*
X497067Y301070D01*
X497058Y300996D01*
X497052Y300923D01*
X497050Y300849D01*
X497050Y298591D01*
X497052Y298517D01*
X497058Y298444D01*
X497067Y298370D01*
X497081Y298298D01*
X497098Y298226D01*
X497119Y298155D01*
X497144Y298085D01*
X497172Y298017D01*
X497204Y297950D01*
X497239Y297886D01*
X497278Y297823D01*
X497319Y297762D01*
X497364Y297703D01*
X497412Y297647D01*
X497463Y297593D01*
X497517Y297542D01*
X497573Y297494D01*
X497632Y297449D01*
X497693Y297408D01*
X497756Y297369D01*
X497820Y297334D01*
X497887Y297302D01*
X497955Y297274D01*
X498025Y297249D01*
X498096Y297228D01*
X498168Y297211D01*
X498240Y297197D01*
X498314Y297188D01*
X498387Y297182D01*
X498461Y297180D01*
X499872Y297180D01*
X493889Y297180D02*
X493889Y302260D01*
X494453Y297180D02*
X493324Y297180D01*
X493324Y302260D02*
X494453Y302260D01*
X490911Y300849D02*
X490911Y298591D01*
X490911Y300849D02*
X490909Y300923D01*
X490903Y300996D01*
X490894Y301070D01*
X490880Y301142D01*
X490863Y301214D01*
X490842Y301285D01*
X490817Y301355D01*
X490789Y301423D01*
X490757Y301490D01*
X490722Y301555D01*
X490683Y301617D01*
X490642Y301678D01*
X490597Y301737D01*
X490549Y301793D01*
X490498Y301847D01*
X490444Y301898D01*
X490388Y301946D01*
X490329Y301991D01*
X490268Y302032D01*
X490206Y302071D01*
X490141Y302106D01*
X490074Y302138D01*
X490006Y302166D01*
X489936Y302191D01*
X489865Y302212D01*
X489793Y302229D01*
X489721Y302243D01*
X489647Y302252D01*
X489574Y302258D01*
X489500Y302260D01*
X489426Y302258D01*
X489353Y302252D01*
X489279Y302243D01*
X489207Y302229D01*
X489135Y302212D01*
X489064Y302191D01*
X488994Y302166D01*
X488926Y302138D01*
X488859Y302106D01*
X488795Y302071D01*
X488732Y302032D01*
X488671Y301991D01*
X488612Y301946D01*
X488556Y301898D01*
X488502Y301847D01*
X488451Y301793D01*
X488403Y301737D01*
X488358Y301678D01*
X488317Y301617D01*
X488278Y301555D01*
X488243Y301490D01*
X488211Y301423D01*
X488183Y301355D01*
X488158Y301285D01*
X488137Y301214D01*
X488120Y301142D01*
X488106Y301070D01*
X488097Y300996D01*
X488091Y300923D01*
X488089Y300849D01*
X488089Y298591D01*
X488091Y298517D01*
X488097Y298444D01*
X488106Y298370D01*
X488120Y298298D01*
X488137Y298226D01*
X488158Y298155D01*
X488183Y298085D01*
X488211Y298017D01*
X488243Y297950D01*
X488278Y297886D01*
X488317Y297823D01*
X488358Y297762D01*
X488403Y297703D01*
X488451Y297647D01*
X488502Y297593D01*
X488556Y297542D01*
X488612Y297494D01*
X488671Y297449D01*
X488732Y297408D01*
X488795Y297369D01*
X488859Y297334D01*
X488926Y297302D01*
X488994Y297274D01*
X489064Y297249D01*
X489135Y297228D01*
X489207Y297211D01*
X489279Y297197D01*
X489353Y297188D01*
X489426Y297182D01*
X489500Y297180D01*
X489574Y297182D01*
X489647Y297188D01*
X489721Y297197D01*
X489793Y297211D01*
X489865Y297228D01*
X489936Y297249D01*
X490006Y297274D01*
X490074Y297302D01*
X490141Y297334D01*
X490206Y297369D01*
X490268Y297408D01*
X490329Y297449D01*
X490388Y297494D01*
X490444Y297542D01*
X490498Y297593D01*
X490549Y297647D01*
X490597Y297703D01*
X490642Y297762D01*
X490683Y297823D01*
X490722Y297886D01*
X490757Y297950D01*
X490789Y298017D01*
X490817Y298085D01*
X490842Y298155D01*
X490863Y298226D01*
X490880Y298298D01*
X490894Y298370D01*
X490903Y298444D01*
X490909Y298517D01*
X490911Y298591D01*
X483872Y302260D02*
X483803Y302258D01*
X483735Y302253D01*
X483667Y302243D01*
X483599Y302230D01*
X483532Y302214D01*
X483466Y302194D01*
X483402Y302170D01*
X483339Y302143D01*
X483277Y302112D01*
X483217Y302078D01*
X483159Y302041D01*
X483103Y302001D01*
X483050Y301958D01*
X482999Y301912D01*
X482950Y301863D01*
X482904Y301812D01*
X482861Y301759D01*
X482821Y301703D01*
X482784Y301645D01*
X482750Y301585D01*
X482719Y301523D01*
X482692Y301460D01*
X482668Y301396D01*
X482648Y301330D01*
X482632Y301263D01*
X482619Y301195D01*
X482609Y301127D01*
X482604Y301059D01*
X482602Y300990D01*
X483872Y302260D02*
X483951Y302258D01*
X484030Y302252D01*
X484108Y302243D01*
X484186Y302230D01*
X484263Y302213D01*
X484339Y302192D01*
X484414Y302167D01*
X484488Y302139D01*
X484560Y302108D01*
X484631Y302073D01*
X484700Y302034D01*
X484767Y301993D01*
X484832Y301948D01*
X484895Y301900D01*
X484955Y301849D01*
X485013Y301795D01*
X485068Y301739D01*
X485120Y301680D01*
X485169Y301618D01*
X485216Y301554D01*
X485259Y301488D01*
X485299Y301420D01*
X485336Y301350D01*
X485369Y301278D01*
X485398Y301205D01*
X485425Y301131D01*
X483025Y300002D02*
X482977Y300051D01*
X482930Y300102D01*
X482887Y300156D01*
X482846Y300212D01*
X482808Y300269D01*
X482773Y300329D01*
X482741Y300390D01*
X482712Y300453D01*
X482687Y300517D01*
X482664Y300582D01*
X482645Y300649D01*
X482630Y300716D01*
X482618Y300784D01*
X482609Y300852D01*
X482604Y300921D01*
X482602Y300990D01*
X483026Y300002D02*
X485425Y297180D01*
X482602Y297180D01*
X555752Y307340D02*
X555752Y312420D01*
X554341Y312420D01*
X554267Y312418D01*
X554194Y312412D01*
X554120Y312403D01*
X554048Y312389D01*
X553976Y312372D01*
X553905Y312351D01*
X553835Y312326D01*
X553767Y312298D01*
X553700Y312266D01*
X553636Y312231D01*
X553573Y312192D01*
X553512Y312151D01*
X553453Y312106D01*
X553397Y312058D01*
X553343Y312007D01*
X553292Y311953D01*
X553244Y311897D01*
X553199Y311838D01*
X553158Y311777D01*
X553119Y311715D01*
X553084Y311650D01*
X553052Y311583D01*
X553024Y311515D01*
X552999Y311445D01*
X552978Y311374D01*
X552961Y311302D01*
X552947Y311230D01*
X552938Y311156D01*
X552932Y311083D01*
X552930Y311009D01*
X552930Y308751D01*
X552932Y308677D01*
X552938Y308604D01*
X552947Y308530D01*
X552961Y308458D01*
X552978Y308386D01*
X552999Y308315D01*
X553024Y308245D01*
X553052Y308177D01*
X553084Y308110D01*
X553119Y308046D01*
X553158Y307983D01*
X553199Y307922D01*
X553244Y307863D01*
X553292Y307807D01*
X553343Y307753D01*
X553397Y307702D01*
X553453Y307654D01*
X553512Y307609D01*
X553573Y307568D01*
X553636Y307529D01*
X553700Y307494D01*
X553767Y307462D01*
X553835Y307434D01*
X553905Y307409D01*
X553976Y307388D01*
X554048Y307371D01*
X554120Y307357D01*
X554194Y307348D01*
X554267Y307342D01*
X554341Y307340D01*
X555752Y307340D01*
X549769Y307340D02*
X549769Y312420D01*
X550333Y307340D02*
X549204Y307340D01*
X549204Y312420D02*
X550333Y312420D01*
X546791Y311009D02*
X546791Y308751D01*
X546791Y311009D02*
X546789Y311083D01*
X546783Y311156D01*
X546774Y311230D01*
X546760Y311302D01*
X546743Y311374D01*
X546722Y311445D01*
X546697Y311515D01*
X546669Y311583D01*
X546637Y311650D01*
X546602Y311715D01*
X546563Y311777D01*
X546522Y311838D01*
X546477Y311897D01*
X546429Y311953D01*
X546378Y312007D01*
X546324Y312058D01*
X546268Y312106D01*
X546209Y312151D01*
X546148Y312192D01*
X546086Y312231D01*
X546021Y312266D01*
X545954Y312298D01*
X545886Y312326D01*
X545816Y312351D01*
X545745Y312372D01*
X545673Y312389D01*
X545601Y312403D01*
X545527Y312412D01*
X545454Y312418D01*
X545380Y312420D01*
X545306Y312418D01*
X545233Y312412D01*
X545159Y312403D01*
X545087Y312389D01*
X545015Y312372D01*
X544944Y312351D01*
X544874Y312326D01*
X544806Y312298D01*
X544739Y312266D01*
X544675Y312231D01*
X544612Y312192D01*
X544551Y312151D01*
X544492Y312106D01*
X544436Y312058D01*
X544382Y312007D01*
X544331Y311953D01*
X544283Y311897D01*
X544238Y311838D01*
X544197Y311777D01*
X544158Y311715D01*
X544123Y311650D01*
X544091Y311583D01*
X544063Y311515D01*
X544038Y311445D01*
X544017Y311374D01*
X544000Y311302D01*
X543986Y311230D01*
X543977Y311156D01*
X543971Y311083D01*
X543969Y311009D01*
X543969Y308751D01*
X543971Y308677D01*
X543977Y308604D01*
X543986Y308530D01*
X544000Y308458D01*
X544017Y308386D01*
X544038Y308315D01*
X544063Y308245D01*
X544091Y308177D01*
X544123Y308110D01*
X544158Y308046D01*
X544197Y307983D01*
X544238Y307922D01*
X544283Y307863D01*
X544331Y307807D01*
X544382Y307753D01*
X544436Y307702D01*
X544492Y307654D01*
X544551Y307609D01*
X544612Y307568D01*
X544675Y307529D01*
X544739Y307494D01*
X544806Y307462D01*
X544874Y307434D01*
X544944Y307409D01*
X545015Y307388D01*
X545087Y307371D01*
X545159Y307357D01*
X545233Y307348D01*
X545306Y307342D01*
X545380Y307340D01*
X545454Y307342D01*
X545527Y307348D01*
X545601Y307357D01*
X545673Y307371D01*
X545745Y307388D01*
X545816Y307409D01*
X545886Y307434D01*
X545954Y307462D01*
X546021Y307494D01*
X546086Y307529D01*
X546148Y307568D01*
X546209Y307609D01*
X546268Y307654D01*
X546324Y307702D01*
X546378Y307753D01*
X546429Y307807D01*
X546477Y307863D01*
X546522Y307922D01*
X546563Y307983D01*
X546602Y308046D01*
X546637Y308110D01*
X546669Y308177D01*
X546697Y308245D01*
X546722Y308315D01*
X546743Y308386D01*
X546760Y308458D01*
X546774Y308530D01*
X546783Y308604D01*
X546789Y308677D01*
X546791Y308751D01*
X541305Y307340D02*
X539894Y307340D01*
X539820Y307342D01*
X539747Y307348D01*
X539673Y307357D01*
X539601Y307371D01*
X539529Y307388D01*
X539458Y307409D01*
X539388Y307434D01*
X539320Y307462D01*
X539253Y307494D01*
X539189Y307529D01*
X539126Y307568D01*
X539065Y307609D01*
X539006Y307654D01*
X538950Y307702D01*
X538896Y307753D01*
X538845Y307807D01*
X538797Y307863D01*
X538752Y307922D01*
X538711Y307983D01*
X538672Y308046D01*
X538637Y308110D01*
X538605Y308177D01*
X538577Y308245D01*
X538552Y308315D01*
X538531Y308386D01*
X538514Y308458D01*
X538500Y308530D01*
X538491Y308604D01*
X538485Y308677D01*
X538483Y308751D01*
X538485Y308825D01*
X538491Y308898D01*
X538500Y308972D01*
X538514Y309044D01*
X538531Y309116D01*
X538552Y309187D01*
X538577Y309257D01*
X538605Y309325D01*
X538637Y309392D01*
X538672Y309457D01*
X538711Y309519D01*
X538752Y309580D01*
X538797Y309639D01*
X538845Y309695D01*
X538896Y309749D01*
X538950Y309800D01*
X539006Y309848D01*
X539065Y309893D01*
X539126Y309934D01*
X539189Y309973D01*
X539253Y310008D01*
X539320Y310040D01*
X539388Y310068D01*
X539458Y310093D01*
X539529Y310114D01*
X539601Y310131D01*
X539673Y310145D01*
X539747Y310154D01*
X539820Y310160D01*
X539894Y310162D01*
X539611Y312420D02*
X541305Y312420D01*
X539611Y312420D02*
X539545Y312418D01*
X539480Y312412D01*
X539415Y312403D01*
X539351Y312390D01*
X539287Y312373D01*
X539225Y312352D01*
X539164Y312328D01*
X539104Y312300D01*
X539047Y312269D01*
X538991Y312234D01*
X538937Y312197D01*
X538885Y312156D01*
X538836Y312112D01*
X538790Y312066D01*
X538746Y312017D01*
X538705Y311965D01*
X538668Y311911D01*
X538633Y311856D01*
X538602Y311798D01*
X538574Y311738D01*
X538550Y311677D01*
X538529Y311615D01*
X538512Y311551D01*
X538499Y311487D01*
X538490Y311422D01*
X538484Y311357D01*
X538482Y311291D01*
X538484Y311225D01*
X538490Y311160D01*
X538499Y311095D01*
X538512Y311031D01*
X538529Y310967D01*
X538550Y310905D01*
X538574Y310844D01*
X538602Y310784D01*
X538633Y310727D01*
X538668Y310671D01*
X538705Y310617D01*
X538746Y310565D01*
X538790Y310516D01*
X538836Y310470D01*
X538885Y310426D01*
X538937Y310385D01*
X538991Y310348D01*
X539047Y310313D01*
X539104Y310282D01*
X539164Y310254D01*
X539225Y310230D01*
X539287Y310209D01*
X539351Y310192D01*
X539415Y310179D01*
X539480Y310170D01*
X539545Y310164D01*
X539611Y310162D01*
X540740Y310162D01*
X555752Y332740D02*
X555752Y337820D01*
X554341Y337820D01*
X554267Y337818D01*
X554194Y337812D01*
X554120Y337803D01*
X554048Y337789D01*
X553976Y337772D01*
X553905Y337751D01*
X553835Y337726D01*
X553767Y337698D01*
X553700Y337666D01*
X553636Y337631D01*
X553573Y337592D01*
X553512Y337551D01*
X553453Y337506D01*
X553397Y337458D01*
X553343Y337407D01*
X553292Y337353D01*
X553244Y337297D01*
X553199Y337238D01*
X553158Y337177D01*
X553119Y337115D01*
X553084Y337050D01*
X553052Y336983D01*
X553024Y336915D01*
X552999Y336845D01*
X552978Y336774D01*
X552961Y336702D01*
X552947Y336630D01*
X552938Y336556D01*
X552932Y336483D01*
X552930Y336409D01*
X552930Y334151D01*
X552932Y334077D01*
X552938Y334004D01*
X552947Y333930D01*
X552961Y333858D01*
X552978Y333786D01*
X552999Y333715D01*
X553024Y333645D01*
X553052Y333577D01*
X553084Y333510D01*
X553119Y333446D01*
X553158Y333383D01*
X553199Y333322D01*
X553244Y333263D01*
X553292Y333207D01*
X553343Y333153D01*
X553397Y333102D01*
X553453Y333054D01*
X553512Y333009D01*
X553573Y332968D01*
X553636Y332929D01*
X553700Y332894D01*
X553767Y332862D01*
X553835Y332834D01*
X553905Y332809D01*
X553976Y332788D01*
X554048Y332771D01*
X554120Y332757D01*
X554194Y332748D01*
X554267Y332742D01*
X554341Y332740D01*
X555752Y332740D01*
X549769Y332740D02*
X549769Y337820D01*
X550333Y332740D02*
X549204Y332740D01*
X549204Y337820D02*
X550333Y337820D01*
X546791Y336409D02*
X546791Y334151D01*
X546791Y336409D02*
X546789Y336483D01*
X546783Y336556D01*
X546774Y336630D01*
X546760Y336702D01*
X546743Y336774D01*
X546722Y336845D01*
X546697Y336915D01*
X546669Y336983D01*
X546637Y337050D01*
X546602Y337115D01*
X546563Y337177D01*
X546522Y337238D01*
X546477Y337297D01*
X546429Y337353D01*
X546378Y337407D01*
X546324Y337458D01*
X546268Y337506D01*
X546209Y337551D01*
X546148Y337592D01*
X546086Y337631D01*
X546021Y337666D01*
X545954Y337698D01*
X545886Y337726D01*
X545816Y337751D01*
X545745Y337772D01*
X545673Y337789D01*
X545601Y337803D01*
X545527Y337812D01*
X545454Y337818D01*
X545380Y337820D01*
X545306Y337818D01*
X545233Y337812D01*
X545159Y337803D01*
X545087Y337789D01*
X545015Y337772D01*
X544944Y337751D01*
X544874Y337726D01*
X544806Y337698D01*
X544739Y337666D01*
X544675Y337631D01*
X544612Y337592D01*
X544551Y337551D01*
X544492Y337506D01*
X544436Y337458D01*
X544382Y337407D01*
X544331Y337353D01*
X544283Y337297D01*
X544238Y337238D01*
X544197Y337177D01*
X544158Y337115D01*
X544123Y337050D01*
X544091Y336983D01*
X544063Y336915D01*
X544038Y336845D01*
X544017Y336774D01*
X544000Y336702D01*
X543986Y336630D01*
X543977Y336556D01*
X543971Y336483D01*
X543969Y336409D01*
X543969Y334151D01*
X543971Y334077D01*
X543977Y334004D01*
X543986Y333930D01*
X544000Y333858D01*
X544017Y333786D01*
X544038Y333715D01*
X544063Y333645D01*
X544091Y333577D01*
X544123Y333510D01*
X544158Y333446D01*
X544197Y333383D01*
X544238Y333322D01*
X544283Y333263D01*
X544331Y333207D01*
X544382Y333153D01*
X544436Y333102D01*
X544492Y333054D01*
X544551Y333009D01*
X544612Y332968D01*
X544675Y332929D01*
X544739Y332894D01*
X544806Y332862D01*
X544874Y332834D01*
X544944Y332809D01*
X545015Y332788D01*
X545087Y332771D01*
X545159Y332757D01*
X545233Y332748D01*
X545306Y332742D01*
X545380Y332740D01*
X545454Y332742D01*
X545527Y332748D01*
X545601Y332757D01*
X545673Y332771D01*
X545745Y332788D01*
X545816Y332809D01*
X545886Y332834D01*
X545954Y332862D01*
X546021Y332894D01*
X546086Y332929D01*
X546148Y332968D01*
X546209Y333009D01*
X546268Y333054D01*
X546324Y333102D01*
X546378Y333153D01*
X546429Y333207D01*
X546477Y333263D01*
X546522Y333322D01*
X546563Y333383D01*
X546602Y333446D01*
X546637Y333510D01*
X546669Y333577D01*
X546697Y333645D01*
X546722Y333715D01*
X546743Y333786D01*
X546760Y333858D01*
X546774Y333930D01*
X546783Y334004D01*
X546789Y334077D01*
X546791Y334151D01*
X541305Y333869D02*
X540176Y337820D01*
X541305Y333869D02*
X538482Y333869D01*
X539329Y334998D02*
X539329Y332740D01*
X555752Y325120D02*
X555752Y320040D01*
X555752Y325120D02*
X554341Y325120D01*
X554267Y325118D01*
X554194Y325112D01*
X554120Y325103D01*
X554048Y325089D01*
X553976Y325072D01*
X553905Y325051D01*
X553835Y325026D01*
X553767Y324998D01*
X553700Y324966D01*
X553636Y324931D01*
X553573Y324892D01*
X553512Y324851D01*
X553453Y324806D01*
X553397Y324758D01*
X553343Y324707D01*
X553292Y324653D01*
X553244Y324597D01*
X553199Y324538D01*
X553158Y324477D01*
X553119Y324415D01*
X553084Y324350D01*
X553052Y324283D01*
X553024Y324215D01*
X552999Y324145D01*
X552978Y324074D01*
X552961Y324002D01*
X552947Y323930D01*
X552938Y323856D01*
X552932Y323783D01*
X552930Y323709D01*
X552930Y321451D01*
X552932Y321377D01*
X552938Y321304D01*
X552947Y321230D01*
X552961Y321158D01*
X552978Y321086D01*
X552999Y321015D01*
X553024Y320945D01*
X553052Y320877D01*
X553084Y320810D01*
X553119Y320746D01*
X553158Y320683D01*
X553199Y320622D01*
X553244Y320563D01*
X553292Y320507D01*
X553343Y320453D01*
X553397Y320402D01*
X553453Y320354D01*
X553512Y320309D01*
X553573Y320268D01*
X553636Y320229D01*
X553700Y320194D01*
X553767Y320162D01*
X553835Y320134D01*
X553905Y320109D01*
X553976Y320088D01*
X554048Y320071D01*
X554120Y320057D01*
X554194Y320048D01*
X554267Y320042D01*
X554341Y320040D01*
X555752Y320040D01*
X549769Y320040D02*
X549769Y325120D01*
X550333Y320040D02*
X549204Y320040D01*
X549204Y325120D02*
X550333Y325120D01*
X546791Y323709D02*
X546791Y321451D01*
X546791Y323709D02*
X546789Y323783D01*
X546783Y323856D01*
X546774Y323930D01*
X546760Y324002D01*
X546743Y324074D01*
X546722Y324145D01*
X546697Y324215D01*
X546669Y324283D01*
X546637Y324350D01*
X546602Y324415D01*
X546563Y324477D01*
X546522Y324538D01*
X546477Y324597D01*
X546429Y324653D01*
X546378Y324707D01*
X546324Y324758D01*
X546268Y324806D01*
X546209Y324851D01*
X546148Y324892D01*
X546086Y324931D01*
X546021Y324966D01*
X545954Y324998D01*
X545886Y325026D01*
X545816Y325051D01*
X545745Y325072D01*
X545673Y325089D01*
X545601Y325103D01*
X545527Y325112D01*
X545454Y325118D01*
X545380Y325120D01*
X545306Y325118D01*
X545233Y325112D01*
X545159Y325103D01*
X545087Y325089D01*
X545015Y325072D01*
X544944Y325051D01*
X544874Y325026D01*
X544806Y324998D01*
X544739Y324966D01*
X544675Y324931D01*
X544612Y324892D01*
X544551Y324851D01*
X544492Y324806D01*
X544436Y324758D01*
X544382Y324707D01*
X544331Y324653D01*
X544283Y324597D01*
X544238Y324538D01*
X544197Y324477D01*
X544158Y324415D01*
X544123Y324350D01*
X544091Y324283D01*
X544063Y324215D01*
X544038Y324145D01*
X544017Y324074D01*
X544000Y324002D01*
X543986Y323930D01*
X543977Y323856D01*
X543971Y323783D01*
X543969Y323709D01*
X543969Y321451D01*
X543971Y321377D01*
X543977Y321304D01*
X543986Y321230D01*
X544000Y321158D01*
X544017Y321086D01*
X544038Y321015D01*
X544063Y320945D01*
X544091Y320877D01*
X544123Y320810D01*
X544158Y320746D01*
X544197Y320683D01*
X544238Y320622D01*
X544283Y320563D01*
X544331Y320507D01*
X544382Y320453D01*
X544436Y320402D01*
X544492Y320354D01*
X544551Y320309D01*
X544612Y320268D01*
X544675Y320229D01*
X544739Y320194D01*
X544806Y320162D01*
X544874Y320134D01*
X544944Y320109D01*
X545015Y320088D01*
X545087Y320071D01*
X545159Y320057D01*
X545233Y320048D01*
X545306Y320042D01*
X545380Y320040D01*
X545454Y320042D01*
X545527Y320048D01*
X545601Y320057D01*
X545673Y320071D01*
X545745Y320088D01*
X545816Y320109D01*
X545886Y320134D01*
X545954Y320162D01*
X546021Y320194D01*
X546086Y320229D01*
X546148Y320268D01*
X546209Y320309D01*
X546268Y320354D01*
X546324Y320402D01*
X546378Y320453D01*
X546429Y320507D01*
X546477Y320563D01*
X546522Y320622D01*
X546563Y320683D01*
X546602Y320746D01*
X546637Y320810D01*
X546669Y320877D01*
X546697Y320945D01*
X546722Y321015D01*
X546743Y321086D01*
X546760Y321158D01*
X546774Y321230D01*
X546783Y321304D01*
X546789Y321377D01*
X546791Y321451D01*
X541305Y320040D02*
X539611Y320040D01*
X539545Y320042D01*
X539480Y320048D01*
X539415Y320057D01*
X539351Y320070D01*
X539287Y320087D01*
X539225Y320108D01*
X539164Y320132D01*
X539104Y320160D01*
X539047Y320191D01*
X538991Y320226D01*
X538937Y320263D01*
X538885Y320304D01*
X538836Y320348D01*
X538790Y320394D01*
X538746Y320443D01*
X538705Y320495D01*
X538668Y320549D01*
X538633Y320604D01*
X538602Y320662D01*
X538574Y320722D01*
X538550Y320783D01*
X538529Y320845D01*
X538512Y320909D01*
X538499Y320973D01*
X538490Y321038D01*
X538484Y321103D01*
X538482Y321169D01*
X538482Y321733D01*
X538484Y321799D01*
X538490Y321864D01*
X538499Y321929D01*
X538512Y321993D01*
X538529Y322057D01*
X538550Y322119D01*
X538574Y322180D01*
X538602Y322240D01*
X538633Y322298D01*
X538668Y322353D01*
X538705Y322407D01*
X538746Y322459D01*
X538790Y322508D01*
X538836Y322554D01*
X538885Y322598D01*
X538937Y322639D01*
X538991Y322676D01*
X539047Y322711D01*
X539104Y322742D01*
X539164Y322770D01*
X539225Y322794D01*
X539287Y322815D01*
X539351Y322832D01*
X539415Y322845D01*
X539480Y322854D01*
X539545Y322860D01*
X539611Y322862D01*
X541305Y322862D01*
X541305Y325120D01*
X538482Y325120D01*
D11*
X429530Y417230D02*
X429530Y431200D01*
X411750Y431200D01*
X411750Y417230D01*
X411750Y409610D02*
X411750Y395640D01*
X429530Y395640D01*
X429530Y409610D01*
D10*
X418100Y387576D02*
X418100Y386447D01*
X418102Y386381D01*
X418108Y386316D01*
X418117Y386251D01*
X418130Y386187D01*
X418147Y386123D01*
X418168Y386061D01*
X418192Y386000D01*
X418220Y385940D01*
X418251Y385883D01*
X418286Y385827D01*
X418323Y385773D01*
X418364Y385721D01*
X418408Y385672D01*
X418454Y385626D01*
X418503Y385582D01*
X418555Y385541D01*
X418609Y385504D01*
X418665Y385469D01*
X418722Y385438D01*
X418782Y385410D01*
X418843Y385386D01*
X418905Y385365D01*
X418969Y385348D01*
X419033Y385335D01*
X419098Y385326D01*
X419163Y385320D01*
X419229Y385318D01*
X422051Y385318D01*
X422117Y385320D01*
X422182Y385326D01*
X422247Y385335D01*
X422311Y385348D01*
X422375Y385365D01*
X422437Y385386D01*
X422498Y385410D01*
X422558Y385438D01*
X422615Y385469D01*
X422671Y385504D01*
X422725Y385541D01*
X422777Y385582D01*
X422826Y385626D01*
X422872Y385672D01*
X422916Y385721D01*
X422957Y385773D01*
X422994Y385827D01*
X423029Y385882D01*
X423060Y385940D01*
X423088Y386000D01*
X423112Y386061D01*
X423133Y386123D01*
X423150Y386187D01*
X423163Y386251D01*
X423172Y386316D01*
X423178Y386381D01*
X423180Y386447D01*
X423180Y387576D01*
X422051Y389915D02*
X423180Y391326D01*
X418100Y391326D01*
X418100Y389915D02*
X418100Y392737D01*
X422051Y434848D02*
X423180Y436259D01*
X418100Y436259D01*
X418100Y434848D02*
X418100Y437670D01*
X420640Y440335D02*
X420767Y440337D01*
X420893Y440343D01*
X421019Y440352D01*
X421145Y440366D01*
X421270Y440383D01*
X421395Y440404D01*
X421519Y440428D01*
X421643Y440457D01*
X421765Y440489D01*
X421887Y440525D01*
X422007Y440564D01*
X422126Y440608D01*
X422243Y440654D01*
X422360Y440705D01*
X422474Y440758D01*
X422475Y440757D02*
X422532Y440779D01*
X422589Y440804D01*
X422643Y440833D01*
X422696Y440864D01*
X422747Y440899D01*
X422796Y440936D01*
X422843Y440977D01*
X422887Y441020D01*
X422929Y441065D01*
X422967Y441113D01*
X423003Y441164D01*
X423036Y441216D01*
X423066Y441270D01*
X423092Y441326D01*
X423115Y441383D01*
X423135Y441441D01*
X423151Y441501D01*
X423164Y441561D01*
X423173Y441622D01*
X423178Y441683D01*
X423180Y441745D01*
X423178Y441807D01*
X423173Y441868D01*
X423164Y441929D01*
X423151Y441989D01*
X423135Y442049D01*
X423115Y442107D01*
X423092Y442165D01*
X423066Y442220D01*
X423036Y442274D01*
X423003Y442326D01*
X422967Y442377D01*
X422928Y442425D01*
X422887Y442470D01*
X422843Y442513D01*
X422796Y442554D01*
X422747Y442591D01*
X422696Y442626D01*
X422643Y442657D01*
X422589Y442686D01*
X422532Y442711D01*
X422475Y442733D01*
X422474Y442733D02*
X422360Y442786D01*
X422244Y442837D01*
X422126Y442883D01*
X422007Y442927D01*
X421887Y442966D01*
X421765Y443002D01*
X421643Y443034D01*
X421520Y443063D01*
X421395Y443087D01*
X421271Y443108D01*
X421145Y443125D01*
X421019Y443139D01*
X420893Y443148D01*
X420767Y443154D01*
X420640Y443156D01*
X420640Y440334D02*
X420513Y440336D01*
X420387Y440342D01*
X420261Y440351D01*
X420135Y440365D01*
X420009Y440382D01*
X419885Y440403D01*
X419760Y440427D01*
X419637Y440456D01*
X419515Y440488D01*
X419393Y440524D01*
X419273Y440563D01*
X419154Y440607D01*
X419036Y440653D01*
X418920Y440704D01*
X418805Y440757D01*
X418748Y440779D01*
X418691Y440804D01*
X418637Y440833D01*
X418584Y440864D01*
X418533Y440899D01*
X418484Y440936D01*
X418437Y440977D01*
X418393Y441020D01*
X418351Y441065D01*
X418313Y441113D01*
X418277Y441164D01*
X418244Y441216D01*
X418214Y441270D01*
X418188Y441326D01*
X418165Y441383D01*
X418145Y441441D01*
X418129Y441501D01*
X418116Y441561D01*
X418107Y441622D01*
X418102Y441683D01*
X418100Y441745D01*
X418806Y442733D02*
X418920Y442786D01*
X419036Y442837D01*
X419154Y442883D01*
X419273Y442927D01*
X419393Y442966D01*
X419515Y443002D01*
X419637Y443034D01*
X419761Y443063D01*
X419885Y443087D01*
X420009Y443108D01*
X420135Y443125D01*
X420261Y443139D01*
X420387Y443148D01*
X420513Y443154D01*
X420640Y443156D01*
X418805Y442733D02*
X418748Y442711D01*
X418691Y442686D01*
X418637Y442657D01*
X418584Y442626D01*
X418533Y442591D01*
X418484Y442554D01*
X418437Y442513D01*
X418393Y442470D01*
X418351Y442425D01*
X418313Y442377D01*
X418277Y442326D01*
X418244Y442274D01*
X418214Y442220D01*
X418188Y442164D01*
X418165Y442107D01*
X418145Y442049D01*
X418129Y441989D01*
X418116Y441929D01*
X418107Y441868D01*
X418102Y441807D01*
X418100Y441745D01*
X419229Y440617D02*
X422051Y442874D01*
X421487Y446225D02*
X416407Y446225D01*
X419229Y448482D02*
X421487Y448482D01*
X419229Y448483D02*
X419163Y448481D01*
X419098Y448475D01*
X419033Y448466D01*
X418969Y448453D01*
X418905Y448436D01*
X418843Y448415D01*
X418782Y448391D01*
X418722Y448363D01*
X418665Y448332D01*
X418609Y448297D01*
X418555Y448260D01*
X418503Y448219D01*
X418454Y448175D01*
X418408Y448129D01*
X418364Y448080D01*
X418323Y448028D01*
X418286Y447974D01*
X418251Y447919D01*
X418220Y447861D01*
X418192Y447801D01*
X418168Y447740D01*
X418147Y447678D01*
X418130Y447614D01*
X418117Y447550D01*
X418108Y447485D01*
X418102Y447420D01*
X418100Y447354D01*
X418102Y447288D01*
X418108Y447223D01*
X418117Y447158D01*
X418130Y447094D01*
X418147Y447030D01*
X418168Y446968D01*
X418192Y446907D01*
X418220Y446847D01*
X418251Y446790D01*
X418286Y446734D01*
X418323Y446680D01*
X418364Y446628D01*
X418408Y446579D01*
X418454Y446533D01*
X418503Y446489D01*
X418555Y446448D01*
X418609Y446411D01*
X418665Y446376D01*
X418722Y446345D01*
X418782Y446317D01*
X418843Y446293D01*
X418905Y446272D01*
X418969Y446255D01*
X419033Y446242D01*
X419098Y446233D01*
X419163Y446227D01*
X419229Y446225D01*
X419229Y448482D02*
X418664Y448482D01*
X418664Y448483D02*
X418617Y448485D01*
X418571Y448491D01*
X418526Y448500D01*
X418481Y448514D01*
X418437Y448531D01*
X418396Y448551D01*
X418356Y448575D01*
X418318Y448602D01*
X418282Y448632D01*
X418249Y448665D01*
X418219Y448701D01*
X418192Y448739D01*
X418168Y448779D01*
X418147Y448820D01*
X418131Y448864D01*
X418117Y448909D01*
X418108Y448954D01*
X418102Y449000D01*
X418100Y449047D01*
X418100Y451324D02*
X423180Y451324D01*
X423180Y453582D01*
X420922Y453582D02*
X420922Y451324D01*
D11*
X452390Y431200D02*
X452390Y417230D01*
X452390Y431200D02*
X434610Y431200D01*
X434610Y417230D01*
X434610Y409610D02*
X434610Y395640D01*
X452390Y395640D01*
X452390Y409610D01*
D10*
X440960Y387576D02*
X440960Y386447D01*
X440962Y386381D01*
X440968Y386316D01*
X440977Y386251D01*
X440990Y386187D01*
X441007Y386123D01*
X441028Y386061D01*
X441052Y386000D01*
X441080Y385940D01*
X441111Y385883D01*
X441146Y385827D01*
X441183Y385773D01*
X441224Y385721D01*
X441268Y385672D01*
X441314Y385626D01*
X441363Y385582D01*
X441415Y385541D01*
X441469Y385504D01*
X441525Y385469D01*
X441582Y385438D01*
X441642Y385410D01*
X441703Y385386D01*
X441765Y385365D01*
X441829Y385348D01*
X441893Y385335D01*
X441958Y385326D01*
X442023Y385320D01*
X442089Y385318D01*
X444911Y385318D01*
X444977Y385320D01*
X445042Y385326D01*
X445107Y385335D01*
X445171Y385348D01*
X445235Y385365D01*
X445297Y385386D01*
X445358Y385410D01*
X445418Y385438D01*
X445475Y385469D01*
X445531Y385504D01*
X445585Y385541D01*
X445637Y385582D01*
X445686Y385626D01*
X445732Y385672D01*
X445776Y385721D01*
X445817Y385773D01*
X445854Y385827D01*
X445889Y385882D01*
X445920Y385940D01*
X445948Y386000D01*
X445972Y386061D01*
X445993Y386123D01*
X446010Y386187D01*
X446023Y386251D01*
X446032Y386316D01*
X446038Y386381D01*
X446040Y386447D01*
X446040Y387576D01*
X446040Y391467D02*
X446038Y391536D01*
X446033Y391604D01*
X446023Y391672D01*
X446010Y391740D01*
X445994Y391807D01*
X445974Y391873D01*
X445950Y391937D01*
X445923Y392000D01*
X445892Y392062D01*
X445858Y392122D01*
X445821Y392180D01*
X445781Y392236D01*
X445738Y392289D01*
X445692Y392340D01*
X445643Y392389D01*
X445592Y392435D01*
X445539Y392478D01*
X445483Y392518D01*
X445425Y392555D01*
X445365Y392589D01*
X445303Y392620D01*
X445240Y392647D01*
X445176Y392671D01*
X445110Y392691D01*
X445043Y392707D01*
X444975Y392720D01*
X444907Y392730D01*
X444839Y392735D01*
X444770Y392737D01*
X446040Y391467D02*
X446038Y391388D01*
X446032Y391309D01*
X446023Y391231D01*
X446010Y391153D01*
X445993Y391076D01*
X445972Y391000D01*
X445947Y390925D01*
X445919Y390851D01*
X445888Y390779D01*
X445853Y390708D01*
X445814Y390639D01*
X445773Y390572D01*
X445728Y390507D01*
X445680Y390444D01*
X445629Y390384D01*
X445575Y390326D01*
X445519Y390271D01*
X445460Y390219D01*
X445398Y390170D01*
X445334Y390123D01*
X445268Y390080D01*
X445200Y390040D01*
X445130Y390003D01*
X445058Y389970D01*
X444985Y389941D01*
X444911Y389914D01*
X443782Y392314D02*
X443831Y392362D01*
X443882Y392409D01*
X443936Y392452D01*
X443992Y392493D01*
X444049Y392531D01*
X444109Y392566D01*
X444170Y392598D01*
X444233Y392627D01*
X444297Y392652D01*
X444362Y392675D01*
X444429Y392694D01*
X444496Y392709D01*
X444564Y392721D01*
X444632Y392730D01*
X444701Y392735D01*
X444770Y392737D01*
X443782Y392313D02*
X440960Y389915D01*
X440960Y392737D01*
X444911Y434848D02*
X446040Y436259D01*
X440960Y436259D01*
X440960Y434848D02*
X440960Y437670D01*
X439267Y440738D02*
X444347Y440738D01*
X444347Y442996D02*
X442089Y442996D01*
X442023Y442994D01*
X441958Y442988D01*
X441893Y442979D01*
X441829Y442966D01*
X441765Y442949D01*
X441703Y442928D01*
X441642Y442904D01*
X441582Y442876D01*
X441525Y442845D01*
X441469Y442810D01*
X441415Y442773D01*
X441363Y442732D01*
X441314Y442688D01*
X441268Y442642D01*
X441224Y442593D01*
X441183Y442541D01*
X441146Y442487D01*
X441111Y442432D01*
X441080Y442374D01*
X441052Y442314D01*
X441028Y442253D01*
X441007Y442191D01*
X440990Y442127D01*
X440977Y442063D01*
X440968Y441998D01*
X440962Y441933D01*
X440960Y441867D01*
X440962Y441801D01*
X440968Y441736D01*
X440977Y441671D01*
X440990Y441607D01*
X441007Y441543D01*
X441028Y441481D01*
X441052Y441420D01*
X441080Y441360D01*
X441111Y441303D01*
X441146Y441247D01*
X441183Y441193D01*
X441224Y441141D01*
X441268Y441092D01*
X441314Y441046D01*
X441363Y441002D01*
X441415Y440961D01*
X441469Y440924D01*
X441525Y440889D01*
X441582Y440858D01*
X441642Y440830D01*
X441703Y440806D01*
X441765Y440785D01*
X441829Y440768D01*
X441893Y440755D01*
X441958Y440746D01*
X442023Y440740D01*
X442089Y440738D01*
X442089Y442996D02*
X441524Y442996D01*
X441524Y442997D02*
X441477Y442999D01*
X441431Y443005D01*
X441386Y443014D01*
X441341Y443028D01*
X441297Y443045D01*
X441256Y443065D01*
X441216Y443089D01*
X441178Y443116D01*
X441142Y443146D01*
X441109Y443179D01*
X441079Y443215D01*
X441052Y443253D01*
X441028Y443293D01*
X441007Y443334D01*
X440991Y443378D01*
X440977Y443423D01*
X440968Y443468D01*
X440962Y443514D01*
X440960Y443561D01*
X440960Y445837D02*
X446040Y445837D01*
X446040Y448095D01*
X443782Y448095D02*
X443782Y445837D01*
D12*
X447340Y348687D03*
D11*
X447840Y335687D02*
X420840Y335687D01*
X447840Y335687D02*
X447840Y336687D01*
X447840Y350687D02*
X447840Y351687D01*
X420840Y351687D01*
X420840Y350687D01*
X420840Y336687D02*
X420840Y335687D01*
D13*
X425450Y343687D02*
X443230Y343687D01*
D11*
X438150Y339877D02*
X438150Y347497D01*
D10*
X466199Y345440D02*
X466199Y350520D01*
X464788Y350520D01*
X464714Y350518D01*
X464641Y350512D01*
X464567Y350503D01*
X464495Y350489D01*
X464423Y350472D01*
X464352Y350451D01*
X464282Y350426D01*
X464214Y350398D01*
X464147Y350366D01*
X464083Y350331D01*
X464020Y350292D01*
X463959Y350251D01*
X463900Y350206D01*
X463844Y350158D01*
X463790Y350107D01*
X463739Y350053D01*
X463691Y349997D01*
X463646Y349938D01*
X463605Y349877D01*
X463566Y349815D01*
X463531Y349750D01*
X463499Y349683D01*
X463471Y349615D01*
X463446Y349545D01*
X463425Y349474D01*
X463408Y349402D01*
X463394Y349330D01*
X463385Y349256D01*
X463379Y349183D01*
X463377Y349109D01*
X463377Y346851D01*
X463379Y346777D01*
X463385Y346704D01*
X463394Y346630D01*
X463408Y346558D01*
X463425Y346486D01*
X463446Y346415D01*
X463471Y346345D01*
X463499Y346277D01*
X463531Y346210D01*
X463566Y346146D01*
X463605Y346083D01*
X463646Y346022D01*
X463691Y345963D01*
X463739Y345907D01*
X463790Y345853D01*
X463844Y345802D01*
X463900Y345754D01*
X463959Y345709D01*
X464020Y345668D01*
X464083Y345629D01*
X464147Y345594D01*
X464214Y345562D01*
X464282Y345534D01*
X464352Y345509D01*
X464423Y345488D01*
X464495Y345471D01*
X464567Y345457D01*
X464641Y345448D01*
X464714Y345442D01*
X464788Y345440D01*
X466199Y345440D01*
X458978Y350520D02*
X458909Y350518D01*
X458841Y350513D01*
X458773Y350503D01*
X458705Y350490D01*
X458638Y350474D01*
X458572Y350454D01*
X458508Y350430D01*
X458445Y350403D01*
X458383Y350372D01*
X458323Y350338D01*
X458265Y350301D01*
X458209Y350261D01*
X458156Y350218D01*
X458105Y350172D01*
X458056Y350123D01*
X458010Y350072D01*
X457967Y350019D01*
X457927Y349963D01*
X457890Y349905D01*
X457856Y349845D01*
X457825Y349783D01*
X457798Y349720D01*
X457774Y349656D01*
X457754Y349590D01*
X457738Y349523D01*
X457725Y349455D01*
X457715Y349387D01*
X457710Y349319D01*
X457708Y349250D01*
X458978Y350520D02*
X459057Y350518D01*
X459136Y350512D01*
X459214Y350503D01*
X459292Y350490D01*
X459369Y350473D01*
X459445Y350452D01*
X459520Y350427D01*
X459594Y350399D01*
X459666Y350368D01*
X459737Y350333D01*
X459806Y350294D01*
X459873Y350253D01*
X459938Y350208D01*
X460001Y350160D01*
X460061Y350109D01*
X460119Y350055D01*
X460174Y349999D01*
X460226Y349940D01*
X460275Y349878D01*
X460322Y349814D01*
X460365Y349748D01*
X460405Y349680D01*
X460442Y349610D01*
X460475Y349538D01*
X460504Y349465D01*
X460531Y349391D01*
X458131Y348262D02*
X458083Y348311D01*
X458036Y348362D01*
X457993Y348416D01*
X457952Y348472D01*
X457914Y348529D01*
X457879Y348589D01*
X457847Y348650D01*
X457818Y348713D01*
X457793Y348777D01*
X457770Y348842D01*
X457751Y348909D01*
X457736Y348976D01*
X457724Y349044D01*
X457715Y349112D01*
X457710Y349181D01*
X457708Y349250D01*
X458131Y348262D02*
X460530Y345440D01*
X457708Y345440D01*
X486917Y341630D02*
X488328Y340501D01*
X486917Y341630D02*
X486917Y336550D01*
X488328Y336550D02*
X485506Y336550D01*
X482659Y336550D02*
X482659Y341630D01*
X479836Y336550D01*
X479836Y341630D01*
X475860Y341630D02*
X476989Y337679D01*
X474167Y337679D01*
X475014Y338808D02*
X475014Y336550D01*
X471503Y340501D02*
X470092Y341630D01*
X470092Y336550D01*
X471503Y336550D02*
X468681Y336550D01*
X466017Y337679D02*
X464888Y341630D01*
X466017Y337679D02*
X463194Y337679D01*
X464041Y338808D02*
X464041Y336550D01*
X460530Y337961D02*
X460528Y338035D01*
X460522Y338108D01*
X460513Y338182D01*
X460499Y338254D01*
X460482Y338326D01*
X460461Y338397D01*
X460436Y338467D01*
X460408Y338535D01*
X460376Y338602D01*
X460341Y338667D01*
X460302Y338729D01*
X460261Y338790D01*
X460216Y338849D01*
X460168Y338905D01*
X460117Y338959D01*
X460063Y339010D01*
X460007Y339058D01*
X459948Y339103D01*
X459887Y339144D01*
X459825Y339183D01*
X459760Y339218D01*
X459693Y339250D01*
X459625Y339278D01*
X459555Y339303D01*
X459484Y339324D01*
X459412Y339341D01*
X459340Y339355D01*
X459266Y339364D01*
X459193Y339370D01*
X459119Y339372D01*
X459045Y339370D01*
X458972Y339364D01*
X458898Y339355D01*
X458826Y339341D01*
X458754Y339324D01*
X458683Y339303D01*
X458613Y339278D01*
X458545Y339250D01*
X458478Y339218D01*
X458414Y339183D01*
X458351Y339144D01*
X458290Y339103D01*
X458231Y339058D01*
X458175Y339010D01*
X458121Y338959D01*
X458070Y338905D01*
X458022Y338849D01*
X457977Y338790D01*
X457936Y338729D01*
X457897Y338667D01*
X457862Y338602D01*
X457830Y338535D01*
X457802Y338467D01*
X457777Y338397D01*
X457756Y338326D01*
X457739Y338254D01*
X457725Y338182D01*
X457716Y338108D01*
X457710Y338035D01*
X457708Y337961D01*
X457710Y337887D01*
X457716Y337814D01*
X457725Y337740D01*
X457739Y337668D01*
X457756Y337596D01*
X457777Y337525D01*
X457802Y337455D01*
X457830Y337387D01*
X457862Y337320D01*
X457897Y337256D01*
X457936Y337193D01*
X457977Y337132D01*
X458022Y337073D01*
X458070Y337017D01*
X458121Y336963D01*
X458175Y336912D01*
X458231Y336864D01*
X458290Y336819D01*
X458351Y336778D01*
X458414Y336739D01*
X458478Y336704D01*
X458545Y336672D01*
X458613Y336644D01*
X458683Y336619D01*
X458754Y336598D01*
X458826Y336581D01*
X458898Y336567D01*
X458972Y336558D01*
X459045Y336552D01*
X459119Y336550D01*
X459193Y336552D01*
X459266Y336558D01*
X459340Y336567D01*
X459412Y336581D01*
X459484Y336598D01*
X459555Y336619D01*
X459625Y336644D01*
X459693Y336672D01*
X459760Y336704D01*
X459825Y336739D01*
X459887Y336778D01*
X459948Y336819D01*
X460007Y336864D01*
X460063Y336912D01*
X460117Y336963D01*
X460168Y337017D01*
X460216Y337073D01*
X460261Y337132D01*
X460302Y337193D01*
X460341Y337256D01*
X460376Y337320D01*
X460408Y337387D01*
X460436Y337455D01*
X460461Y337525D01*
X460482Y337596D01*
X460499Y337668D01*
X460513Y337740D01*
X460522Y337814D01*
X460528Y337887D01*
X460530Y337961D01*
X460248Y340501D02*
X460246Y340567D01*
X460240Y340632D01*
X460231Y340697D01*
X460218Y340761D01*
X460201Y340825D01*
X460180Y340887D01*
X460156Y340948D01*
X460128Y341008D01*
X460097Y341066D01*
X460062Y341121D01*
X460025Y341175D01*
X459984Y341227D01*
X459940Y341276D01*
X459894Y341322D01*
X459845Y341366D01*
X459793Y341407D01*
X459739Y341444D01*
X459684Y341479D01*
X459626Y341510D01*
X459566Y341538D01*
X459505Y341562D01*
X459443Y341583D01*
X459379Y341600D01*
X459315Y341613D01*
X459250Y341622D01*
X459185Y341628D01*
X459119Y341630D01*
X459053Y341628D01*
X458988Y341622D01*
X458923Y341613D01*
X458859Y341600D01*
X458795Y341583D01*
X458733Y341562D01*
X458672Y341538D01*
X458612Y341510D01*
X458555Y341479D01*
X458499Y341444D01*
X458445Y341407D01*
X458393Y341366D01*
X458344Y341322D01*
X458298Y341276D01*
X458254Y341227D01*
X458213Y341175D01*
X458176Y341121D01*
X458141Y341066D01*
X458110Y341008D01*
X458082Y340948D01*
X458058Y340887D01*
X458037Y340825D01*
X458020Y340761D01*
X458007Y340697D01*
X457998Y340632D01*
X457992Y340567D01*
X457990Y340501D01*
X457992Y340435D01*
X457998Y340370D01*
X458007Y340305D01*
X458020Y340241D01*
X458037Y340177D01*
X458058Y340115D01*
X458082Y340054D01*
X458110Y339994D01*
X458141Y339937D01*
X458176Y339881D01*
X458213Y339827D01*
X458254Y339775D01*
X458298Y339726D01*
X458344Y339680D01*
X458393Y339636D01*
X458445Y339595D01*
X458499Y339558D01*
X458555Y339523D01*
X458612Y339492D01*
X458672Y339464D01*
X458733Y339440D01*
X458795Y339419D01*
X458859Y339402D01*
X458923Y339389D01*
X458988Y339380D01*
X459053Y339374D01*
X459119Y339372D01*
X459185Y339374D01*
X459250Y339380D01*
X459315Y339389D01*
X459379Y339402D01*
X459443Y339419D01*
X459505Y339440D01*
X459566Y339464D01*
X459626Y339492D01*
X459684Y339523D01*
X459739Y339558D01*
X459793Y339595D01*
X459845Y339636D01*
X459894Y339680D01*
X459940Y339726D01*
X459984Y339775D01*
X460025Y339827D01*
X460062Y339881D01*
X460097Y339937D01*
X460128Y339994D01*
X460156Y340054D01*
X460180Y340115D01*
X460201Y340177D01*
X460218Y340241D01*
X460231Y340305D01*
X460240Y340370D01*
X460246Y340435D01*
X460248Y340501D01*
D12*
X447340Y318207D03*
D11*
X447840Y305207D02*
X420840Y305207D01*
X447840Y305207D02*
X447840Y306207D01*
X447840Y320207D02*
X447840Y321207D01*
X420840Y321207D01*
X420840Y320207D01*
X420840Y306207D02*
X420840Y305207D01*
D13*
X425450Y313207D02*
X443230Y313207D01*
D11*
X438150Y309397D02*
X438150Y317017D01*
D10*
X466453Y315214D02*
X466453Y320294D01*
X465042Y320294D01*
X464968Y320292D01*
X464895Y320286D01*
X464821Y320277D01*
X464749Y320263D01*
X464677Y320246D01*
X464606Y320225D01*
X464536Y320200D01*
X464468Y320172D01*
X464401Y320140D01*
X464337Y320105D01*
X464274Y320066D01*
X464213Y320025D01*
X464154Y319980D01*
X464098Y319932D01*
X464044Y319881D01*
X463993Y319827D01*
X463945Y319771D01*
X463900Y319712D01*
X463859Y319651D01*
X463820Y319589D01*
X463785Y319524D01*
X463753Y319457D01*
X463725Y319389D01*
X463700Y319319D01*
X463679Y319248D01*
X463662Y319176D01*
X463648Y319104D01*
X463639Y319030D01*
X463633Y318957D01*
X463631Y318883D01*
X463631Y316625D01*
X463633Y316551D01*
X463639Y316478D01*
X463648Y316404D01*
X463662Y316332D01*
X463679Y316260D01*
X463700Y316189D01*
X463725Y316119D01*
X463753Y316051D01*
X463785Y315984D01*
X463820Y315920D01*
X463859Y315857D01*
X463900Y315796D01*
X463945Y315737D01*
X463993Y315681D01*
X464044Y315627D01*
X464098Y315576D01*
X464154Y315528D01*
X464213Y315483D01*
X464274Y315442D01*
X464337Y315403D01*
X464401Y315368D01*
X464468Y315336D01*
X464536Y315308D01*
X464606Y315283D01*
X464677Y315262D01*
X464749Y315245D01*
X464821Y315231D01*
X464895Y315222D01*
X464968Y315216D01*
X465042Y315214D01*
X466453Y315214D01*
X460784Y315214D02*
X459373Y315214D01*
X459299Y315216D01*
X459226Y315222D01*
X459152Y315231D01*
X459080Y315245D01*
X459008Y315262D01*
X458937Y315283D01*
X458867Y315308D01*
X458799Y315336D01*
X458732Y315368D01*
X458668Y315403D01*
X458605Y315442D01*
X458544Y315483D01*
X458485Y315528D01*
X458429Y315576D01*
X458375Y315627D01*
X458324Y315681D01*
X458276Y315737D01*
X458231Y315796D01*
X458190Y315857D01*
X458151Y315920D01*
X458116Y315984D01*
X458084Y316051D01*
X458056Y316119D01*
X458031Y316189D01*
X458010Y316260D01*
X457993Y316332D01*
X457979Y316404D01*
X457970Y316478D01*
X457964Y316551D01*
X457962Y316625D01*
X457964Y316699D01*
X457970Y316772D01*
X457979Y316846D01*
X457993Y316918D01*
X458010Y316990D01*
X458031Y317061D01*
X458056Y317131D01*
X458084Y317199D01*
X458116Y317266D01*
X458151Y317331D01*
X458190Y317393D01*
X458231Y317454D01*
X458276Y317513D01*
X458324Y317569D01*
X458375Y317623D01*
X458429Y317674D01*
X458485Y317722D01*
X458544Y317767D01*
X458605Y317808D01*
X458668Y317847D01*
X458732Y317882D01*
X458799Y317914D01*
X458867Y317942D01*
X458937Y317967D01*
X459008Y317988D01*
X459080Y318005D01*
X459152Y318019D01*
X459226Y318028D01*
X459299Y318034D01*
X459373Y318036D01*
X459091Y320294D02*
X460784Y320294D01*
X459091Y320294D02*
X459025Y320292D01*
X458960Y320286D01*
X458895Y320277D01*
X458831Y320264D01*
X458767Y320247D01*
X458705Y320226D01*
X458644Y320202D01*
X458584Y320174D01*
X458527Y320143D01*
X458471Y320108D01*
X458417Y320071D01*
X458365Y320030D01*
X458316Y319986D01*
X458270Y319940D01*
X458226Y319891D01*
X458185Y319839D01*
X458148Y319785D01*
X458113Y319730D01*
X458082Y319672D01*
X458054Y319612D01*
X458030Y319551D01*
X458009Y319489D01*
X457992Y319425D01*
X457979Y319361D01*
X457970Y319296D01*
X457964Y319231D01*
X457962Y319165D01*
X457964Y319099D01*
X457970Y319034D01*
X457979Y318969D01*
X457992Y318905D01*
X458009Y318841D01*
X458030Y318779D01*
X458054Y318718D01*
X458082Y318658D01*
X458113Y318601D01*
X458148Y318545D01*
X458185Y318491D01*
X458226Y318439D01*
X458270Y318390D01*
X458316Y318344D01*
X458365Y318300D01*
X458417Y318259D01*
X458471Y318222D01*
X458527Y318187D01*
X458584Y318156D01*
X458644Y318128D01*
X458705Y318104D01*
X458767Y318083D01*
X458831Y318066D01*
X458895Y318053D01*
X458960Y318044D01*
X459025Y318038D01*
X459091Y318036D01*
X460220Y318036D01*
X486917Y311150D02*
X488328Y310021D01*
X486917Y311150D02*
X486917Y306070D01*
X488328Y306070D02*
X485506Y306070D01*
X482659Y306070D02*
X482659Y311150D01*
X479836Y306070D01*
X479836Y311150D01*
X475860Y311150D02*
X476989Y307199D01*
X474167Y307199D01*
X475014Y308328D02*
X475014Y306070D01*
X471503Y310021D02*
X470092Y311150D01*
X470092Y306070D01*
X471503Y306070D02*
X468681Y306070D01*
X466017Y307199D02*
X464888Y311150D01*
X466017Y307199D02*
X463194Y307199D01*
X464041Y308328D02*
X464041Y306070D01*
X460530Y307481D02*
X460528Y307555D01*
X460522Y307628D01*
X460513Y307702D01*
X460499Y307774D01*
X460482Y307846D01*
X460461Y307917D01*
X460436Y307987D01*
X460408Y308055D01*
X460376Y308122D01*
X460341Y308187D01*
X460302Y308249D01*
X460261Y308310D01*
X460216Y308369D01*
X460168Y308425D01*
X460117Y308479D01*
X460063Y308530D01*
X460007Y308578D01*
X459948Y308623D01*
X459887Y308664D01*
X459825Y308703D01*
X459760Y308738D01*
X459693Y308770D01*
X459625Y308798D01*
X459555Y308823D01*
X459484Y308844D01*
X459412Y308861D01*
X459340Y308875D01*
X459266Y308884D01*
X459193Y308890D01*
X459119Y308892D01*
X459045Y308890D01*
X458972Y308884D01*
X458898Y308875D01*
X458826Y308861D01*
X458754Y308844D01*
X458683Y308823D01*
X458613Y308798D01*
X458545Y308770D01*
X458478Y308738D01*
X458414Y308703D01*
X458351Y308664D01*
X458290Y308623D01*
X458231Y308578D01*
X458175Y308530D01*
X458121Y308479D01*
X458070Y308425D01*
X458022Y308369D01*
X457977Y308310D01*
X457936Y308249D01*
X457897Y308187D01*
X457862Y308122D01*
X457830Y308055D01*
X457802Y307987D01*
X457777Y307917D01*
X457756Y307846D01*
X457739Y307774D01*
X457725Y307702D01*
X457716Y307628D01*
X457710Y307555D01*
X457708Y307481D01*
X457710Y307407D01*
X457716Y307334D01*
X457725Y307260D01*
X457739Y307188D01*
X457756Y307116D01*
X457777Y307045D01*
X457802Y306975D01*
X457830Y306907D01*
X457862Y306840D01*
X457897Y306776D01*
X457936Y306713D01*
X457977Y306652D01*
X458022Y306593D01*
X458070Y306537D01*
X458121Y306483D01*
X458175Y306432D01*
X458231Y306384D01*
X458290Y306339D01*
X458351Y306298D01*
X458414Y306259D01*
X458478Y306224D01*
X458545Y306192D01*
X458613Y306164D01*
X458683Y306139D01*
X458754Y306118D01*
X458826Y306101D01*
X458898Y306087D01*
X458972Y306078D01*
X459045Y306072D01*
X459119Y306070D01*
X459193Y306072D01*
X459266Y306078D01*
X459340Y306087D01*
X459412Y306101D01*
X459484Y306118D01*
X459555Y306139D01*
X459625Y306164D01*
X459693Y306192D01*
X459760Y306224D01*
X459825Y306259D01*
X459887Y306298D01*
X459948Y306339D01*
X460007Y306384D01*
X460063Y306432D01*
X460117Y306483D01*
X460168Y306537D01*
X460216Y306593D01*
X460261Y306652D01*
X460302Y306713D01*
X460341Y306776D01*
X460376Y306840D01*
X460408Y306907D01*
X460436Y306975D01*
X460461Y307045D01*
X460482Y307116D01*
X460499Y307188D01*
X460513Y307260D01*
X460522Y307334D01*
X460528Y307407D01*
X460530Y307481D01*
X460248Y310021D02*
X460246Y310087D01*
X460240Y310152D01*
X460231Y310217D01*
X460218Y310281D01*
X460201Y310345D01*
X460180Y310407D01*
X460156Y310468D01*
X460128Y310528D01*
X460097Y310586D01*
X460062Y310641D01*
X460025Y310695D01*
X459984Y310747D01*
X459940Y310796D01*
X459894Y310842D01*
X459845Y310886D01*
X459793Y310927D01*
X459739Y310964D01*
X459684Y310999D01*
X459626Y311030D01*
X459566Y311058D01*
X459505Y311082D01*
X459443Y311103D01*
X459379Y311120D01*
X459315Y311133D01*
X459250Y311142D01*
X459185Y311148D01*
X459119Y311150D01*
X459053Y311148D01*
X458988Y311142D01*
X458923Y311133D01*
X458859Y311120D01*
X458795Y311103D01*
X458733Y311082D01*
X458672Y311058D01*
X458612Y311030D01*
X458555Y310999D01*
X458499Y310964D01*
X458445Y310927D01*
X458393Y310886D01*
X458344Y310842D01*
X458298Y310796D01*
X458254Y310747D01*
X458213Y310695D01*
X458176Y310641D01*
X458141Y310586D01*
X458110Y310528D01*
X458082Y310468D01*
X458058Y310407D01*
X458037Y310345D01*
X458020Y310281D01*
X458007Y310217D01*
X457998Y310152D01*
X457992Y310087D01*
X457990Y310021D01*
X457992Y309955D01*
X457998Y309890D01*
X458007Y309825D01*
X458020Y309761D01*
X458037Y309697D01*
X458058Y309635D01*
X458082Y309574D01*
X458110Y309514D01*
X458141Y309457D01*
X458176Y309401D01*
X458213Y309347D01*
X458254Y309295D01*
X458298Y309246D01*
X458344Y309200D01*
X458393Y309156D01*
X458445Y309115D01*
X458499Y309078D01*
X458555Y309043D01*
X458612Y309012D01*
X458672Y308984D01*
X458733Y308960D01*
X458795Y308939D01*
X458859Y308922D01*
X458923Y308909D01*
X458988Y308900D01*
X459053Y308894D01*
X459119Y308892D01*
X459185Y308894D01*
X459250Y308900D01*
X459315Y308909D01*
X459379Y308922D01*
X459443Y308939D01*
X459505Y308960D01*
X459566Y308984D01*
X459626Y309012D01*
X459684Y309043D01*
X459739Y309078D01*
X459793Y309115D01*
X459845Y309156D01*
X459894Y309200D01*
X459940Y309246D01*
X459984Y309295D01*
X460025Y309347D01*
X460062Y309401D01*
X460097Y309457D01*
X460128Y309514D01*
X460156Y309574D01*
X460180Y309635D01*
X460201Y309697D01*
X460218Y309761D01*
X460231Y309825D01*
X460240Y309890D01*
X460246Y309955D01*
X460248Y310021D01*
D11*
X431340Y324700D02*
X421340Y324700D01*
X421340Y335700D01*
X431340Y335700D01*
X437340Y324700D02*
X447340Y324700D01*
X447340Y335700D01*
X437340Y335700D01*
D10*
X466852Y328789D02*
X466854Y328723D01*
X466860Y328658D01*
X466869Y328593D01*
X466882Y328529D01*
X466899Y328465D01*
X466920Y328403D01*
X466944Y328342D01*
X466972Y328282D01*
X467003Y328224D01*
X467038Y328169D01*
X467075Y328115D01*
X467116Y328063D01*
X467160Y328014D01*
X467206Y327968D01*
X467255Y327924D01*
X467307Y327883D01*
X467361Y327846D01*
X467417Y327811D01*
X467474Y327780D01*
X467534Y327752D01*
X467595Y327728D01*
X467657Y327707D01*
X467721Y327690D01*
X467785Y327677D01*
X467850Y327668D01*
X467915Y327662D01*
X467981Y327660D01*
X468075Y327662D01*
X468169Y327667D01*
X468263Y327677D01*
X468356Y327690D01*
X468449Y327706D01*
X468541Y327727D01*
X468632Y327750D01*
X468722Y327778D01*
X468811Y327809D01*
X468898Y327843D01*
X468984Y327881D01*
X469069Y327923D01*
X469152Y327967D01*
X469233Y328015D01*
X469312Y328066D01*
X469389Y328120D01*
X469464Y328177D01*
X469537Y328237D01*
X469607Y328300D01*
X469674Y328366D01*
X469533Y331611D02*
X469531Y331677D01*
X469525Y331742D01*
X469516Y331807D01*
X469503Y331871D01*
X469486Y331935D01*
X469465Y331997D01*
X469441Y332058D01*
X469413Y332118D01*
X469382Y332176D01*
X469347Y332231D01*
X469310Y332285D01*
X469269Y332337D01*
X469225Y332386D01*
X469179Y332432D01*
X469130Y332476D01*
X469078Y332517D01*
X469024Y332554D01*
X468969Y332589D01*
X468911Y332620D01*
X468851Y332648D01*
X468790Y332672D01*
X468728Y332693D01*
X468664Y332710D01*
X468600Y332723D01*
X468535Y332732D01*
X468470Y332738D01*
X468404Y332740D01*
X468313Y332738D01*
X468223Y332732D01*
X468132Y332722D01*
X468042Y332709D01*
X467953Y332691D01*
X467865Y332670D01*
X467778Y332645D01*
X467692Y332617D01*
X467607Y332584D01*
X467523Y332548D01*
X467442Y332509D01*
X467362Y332466D01*
X467284Y332419D01*
X467208Y332370D01*
X467134Y332317D01*
X468968Y330623D02*
X469024Y330658D01*
X469078Y330696D01*
X469130Y330738D01*
X469179Y330782D01*
X469225Y330829D01*
X469269Y330879D01*
X469310Y330931D01*
X469347Y330985D01*
X469382Y331042D01*
X469413Y331100D01*
X469441Y331160D01*
X469465Y331222D01*
X469486Y331285D01*
X469503Y331349D01*
X469516Y331414D01*
X469525Y331479D01*
X469531Y331545D01*
X469533Y331611D01*
X467416Y329776D02*
X467360Y329741D01*
X467306Y329703D01*
X467255Y329661D01*
X467206Y329617D01*
X467159Y329570D01*
X467116Y329520D01*
X467075Y329468D01*
X467037Y329414D01*
X467003Y329358D01*
X466972Y329299D01*
X466944Y329239D01*
X466920Y329178D01*
X466899Y329115D01*
X466882Y329051D01*
X466869Y328986D01*
X466860Y328921D01*
X466854Y328855D01*
X466852Y328789D01*
X467416Y329777D02*
X468969Y330623D01*
X463343Y328789D02*
X463343Y332740D01*
X463343Y328789D02*
X463345Y328723D01*
X463351Y328658D01*
X463360Y328593D01*
X463373Y328529D01*
X463390Y328465D01*
X463411Y328403D01*
X463435Y328342D01*
X463463Y328282D01*
X463494Y328225D01*
X463529Y328169D01*
X463566Y328115D01*
X463607Y328063D01*
X463651Y328014D01*
X463697Y327968D01*
X463746Y327924D01*
X463798Y327883D01*
X463852Y327846D01*
X463908Y327811D01*
X463965Y327780D01*
X464025Y327752D01*
X464086Y327728D01*
X464148Y327707D01*
X464212Y327690D01*
X464276Y327677D01*
X464341Y327668D01*
X464406Y327662D01*
X464472Y327660D01*
X465036Y327660D01*
X458978Y332740D02*
X458909Y332738D01*
X458841Y332733D01*
X458773Y332723D01*
X458705Y332710D01*
X458638Y332694D01*
X458572Y332674D01*
X458508Y332650D01*
X458445Y332623D01*
X458383Y332592D01*
X458323Y332558D01*
X458265Y332521D01*
X458209Y332481D01*
X458156Y332438D01*
X458105Y332392D01*
X458056Y332343D01*
X458010Y332292D01*
X457967Y332239D01*
X457927Y332183D01*
X457890Y332125D01*
X457856Y332065D01*
X457825Y332003D01*
X457798Y331940D01*
X457774Y331876D01*
X457754Y331810D01*
X457738Y331743D01*
X457725Y331675D01*
X457715Y331607D01*
X457710Y331539D01*
X457708Y331470D01*
X458978Y332740D02*
X459057Y332738D01*
X459136Y332732D01*
X459214Y332723D01*
X459292Y332710D01*
X459369Y332693D01*
X459445Y332672D01*
X459520Y332647D01*
X459594Y332619D01*
X459666Y332588D01*
X459737Y332553D01*
X459806Y332514D01*
X459873Y332473D01*
X459938Y332428D01*
X460001Y332380D01*
X460061Y332329D01*
X460119Y332275D01*
X460174Y332219D01*
X460226Y332160D01*
X460275Y332098D01*
X460322Y332034D01*
X460365Y331968D01*
X460405Y331900D01*
X460442Y331830D01*
X460475Y331758D01*
X460504Y331685D01*
X460531Y331611D01*
X458131Y330482D02*
X458083Y330531D01*
X458036Y330582D01*
X457993Y330636D01*
X457952Y330692D01*
X457914Y330749D01*
X457879Y330809D01*
X457847Y330870D01*
X457818Y330933D01*
X457793Y330997D01*
X457770Y331062D01*
X457751Y331129D01*
X457736Y331196D01*
X457724Y331264D01*
X457715Y331332D01*
X457710Y331401D01*
X457708Y331470D01*
X458131Y330482D02*
X460530Y327660D01*
X457708Y327660D01*
D11*
X431340Y294220D02*
X421340Y294220D01*
X421340Y305220D01*
X431340Y305220D01*
X437340Y294220D02*
X447340Y294220D01*
X447340Y305220D01*
X437340Y305220D01*
D10*
X466852Y298309D02*
X466854Y298243D01*
X466860Y298178D01*
X466869Y298113D01*
X466882Y298049D01*
X466899Y297985D01*
X466920Y297923D01*
X466944Y297862D01*
X466972Y297802D01*
X467003Y297744D01*
X467038Y297689D01*
X467075Y297635D01*
X467116Y297583D01*
X467160Y297534D01*
X467206Y297488D01*
X467255Y297444D01*
X467307Y297403D01*
X467361Y297366D01*
X467417Y297331D01*
X467474Y297300D01*
X467534Y297272D01*
X467595Y297248D01*
X467657Y297227D01*
X467721Y297210D01*
X467785Y297197D01*
X467850Y297188D01*
X467915Y297182D01*
X467981Y297180D01*
X468075Y297182D01*
X468169Y297187D01*
X468263Y297197D01*
X468356Y297210D01*
X468449Y297226D01*
X468541Y297247D01*
X468632Y297270D01*
X468722Y297298D01*
X468811Y297329D01*
X468898Y297363D01*
X468984Y297401D01*
X469069Y297443D01*
X469152Y297487D01*
X469233Y297535D01*
X469312Y297586D01*
X469389Y297640D01*
X469464Y297697D01*
X469537Y297757D01*
X469607Y297820D01*
X469674Y297886D01*
X469533Y301131D02*
X469531Y301197D01*
X469525Y301262D01*
X469516Y301327D01*
X469503Y301391D01*
X469486Y301455D01*
X469465Y301517D01*
X469441Y301578D01*
X469413Y301638D01*
X469382Y301696D01*
X469347Y301751D01*
X469310Y301805D01*
X469269Y301857D01*
X469225Y301906D01*
X469179Y301952D01*
X469130Y301996D01*
X469078Y302037D01*
X469024Y302074D01*
X468969Y302109D01*
X468911Y302140D01*
X468851Y302168D01*
X468790Y302192D01*
X468728Y302213D01*
X468664Y302230D01*
X468600Y302243D01*
X468535Y302252D01*
X468470Y302258D01*
X468404Y302260D01*
X468313Y302258D01*
X468223Y302252D01*
X468132Y302242D01*
X468042Y302229D01*
X467953Y302211D01*
X467865Y302190D01*
X467778Y302165D01*
X467692Y302137D01*
X467607Y302104D01*
X467523Y302068D01*
X467442Y302029D01*
X467362Y301986D01*
X467284Y301939D01*
X467208Y301890D01*
X467134Y301837D01*
X468968Y300143D02*
X469024Y300178D01*
X469078Y300216D01*
X469130Y300258D01*
X469179Y300302D01*
X469225Y300349D01*
X469269Y300399D01*
X469310Y300451D01*
X469347Y300505D01*
X469382Y300562D01*
X469413Y300620D01*
X469441Y300680D01*
X469465Y300742D01*
X469486Y300805D01*
X469503Y300869D01*
X469516Y300934D01*
X469525Y300999D01*
X469531Y301065D01*
X469533Y301131D01*
X467416Y299296D02*
X467360Y299261D01*
X467306Y299223D01*
X467255Y299181D01*
X467206Y299137D01*
X467159Y299090D01*
X467116Y299040D01*
X467075Y298988D01*
X467037Y298934D01*
X467003Y298878D01*
X466972Y298819D01*
X466944Y298759D01*
X466920Y298698D01*
X466899Y298635D01*
X466882Y298571D01*
X466869Y298506D01*
X466860Y298441D01*
X466854Y298375D01*
X466852Y298309D01*
X467416Y299297D02*
X468969Y300143D01*
X463343Y298309D02*
X463343Y302260D01*
X463343Y298309D02*
X463345Y298243D01*
X463351Y298178D01*
X463360Y298113D01*
X463373Y298049D01*
X463390Y297985D01*
X463411Y297923D01*
X463435Y297862D01*
X463463Y297802D01*
X463494Y297745D01*
X463529Y297689D01*
X463566Y297635D01*
X463607Y297583D01*
X463651Y297534D01*
X463697Y297488D01*
X463746Y297444D01*
X463798Y297403D01*
X463852Y297366D01*
X463908Y297331D01*
X463965Y297300D01*
X464025Y297272D01*
X464086Y297248D01*
X464148Y297227D01*
X464212Y297210D01*
X464276Y297197D01*
X464341Y297188D01*
X464406Y297182D01*
X464472Y297180D01*
X465036Y297180D01*
X460530Y297180D02*
X459119Y297180D01*
X459045Y297182D01*
X458972Y297188D01*
X458898Y297197D01*
X458826Y297211D01*
X458754Y297228D01*
X458683Y297249D01*
X458613Y297274D01*
X458545Y297302D01*
X458478Y297334D01*
X458414Y297369D01*
X458351Y297408D01*
X458290Y297449D01*
X458231Y297494D01*
X458175Y297542D01*
X458121Y297593D01*
X458070Y297647D01*
X458022Y297703D01*
X457977Y297762D01*
X457936Y297823D01*
X457897Y297886D01*
X457862Y297950D01*
X457830Y298017D01*
X457802Y298085D01*
X457777Y298155D01*
X457756Y298226D01*
X457739Y298298D01*
X457725Y298370D01*
X457716Y298444D01*
X457710Y298517D01*
X457708Y298591D01*
X457710Y298665D01*
X457716Y298738D01*
X457725Y298812D01*
X457739Y298884D01*
X457756Y298956D01*
X457777Y299027D01*
X457802Y299097D01*
X457830Y299165D01*
X457862Y299232D01*
X457897Y299297D01*
X457936Y299359D01*
X457977Y299420D01*
X458022Y299479D01*
X458070Y299535D01*
X458121Y299589D01*
X458175Y299640D01*
X458231Y299688D01*
X458290Y299733D01*
X458351Y299774D01*
X458414Y299813D01*
X458478Y299848D01*
X458545Y299880D01*
X458613Y299908D01*
X458683Y299933D01*
X458754Y299954D01*
X458826Y299971D01*
X458898Y299985D01*
X458972Y299994D01*
X459045Y300000D01*
X459119Y300002D01*
X458837Y302260D02*
X460530Y302260D01*
X458837Y302260D02*
X458771Y302258D01*
X458706Y302252D01*
X458641Y302243D01*
X458577Y302230D01*
X458513Y302213D01*
X458451Y302192D01*
X458390Y302168D01*
X458330Y302140D01*
X458273Y302109D01*
X458217Y302074D01*
X458163Y302037D01*
X458111Y301996D01*
X458062Y301952D01*
X458016Y301906D01*
X457972Y301857D01*
X457931Y301805D01*
X457894Y301751D01*
X457859Y301696D01*
X457828Y301638D01*
X457800Y301578D01*
X457776Y301517D01*
X457755Y301455D01*
X457738Y301391D01*
X457725Y301327D01*
X457716Y301262D01*
X457710Y301197D01*
X457708Y301131D01*
X457710Y301065D01*
X457716Y301000D01*
X457725Y300935D01*
X457738Y300871D01*
X457755Y300807D01*
X457776Y300745D01*
X457800Y300684D01*
X457828Y300624D01*
X457859Y300567D01*
X457894Y300511D01*
X457931Y300457D01*
X457972Y300405D01*
X458016Y300356D01*
X458062Y300310D01*
X458111Y300266D01*
X458163Y300225D01*
X458217Y300188D01*
X458273Y300153D01*
X458330Y300122D01*
X458390Y300094D01*
X458451Y300070D01*
X458513Y300049D01*
X458577Y300032D01*
X458641Y300019D01*
X458706Y300010D01*
X458771Y300004D01*
X458837Y300002D01*
X459966Y300002D01*
D14*
X406400Y323850D02*
X406400Y336550D01*
X406400Y323850D02*
X400050Y317500D01*
X387350Y317500D02*
X381000Y323850D01*
X406400Y361950D02*
X400050Y368300D01*
X406400Y361950D02*
X406400Y349250D01*
X400050Y342900D01*
X387350Y342900D02*
X381000Y349250D01*
X381000Y361950D01*
X387350Y368300D01*
X400050Y342900D02*
X406400Y336550D01*
X387350Y342900D02*
X381000Y336550D01*
X381000Y323850D01*
X406400Y400050D02*
X406400Y412750D01*
X406400Y400050D02*
X400050Y393700D01*
X387350Y393700D02*
X381000Y400050D01*
X400050Y393700D02*
X406400Y387350D01*
X406400Y374650D01*
X400050Y368300D01*
X387350Y368300D02*
X381000Y374650D01*
X381000Y387350D01*
X387350Y393700D01*
X406400Y438150D02*
X400050Y444500D01*
X406400Y438150D02*
X406400Y425450D01*
X400050Y419100D01*
X387350Y419100D02*
X381000Y425450D01*
X381000Y438150D01*
X387350Y444500D01*
X400050Y419100D02*
X406400Y412750D01*
X387350Y419100D02*
X381000Y412750D01*
X381000Y400050D01*
X406400Y476250D02*
X406400Y488950D01*
X406400Y476250D02*
X400050Y469900D01*
X387350Y469900D02*
X381000Y476250D01*
X400050Y469900D02*
X406400Y463550D01*
X406400Y450850D01*
X400050Y444500D01*
X387350Y444500D02*
X381000Y450850D01*
X381000Y463550D01*
X387350Y469900D01*
X387350Y495300D02*
X400050Y495300D01*
X406400Y488950D01*
X387350Y495300D02*
X381000Y488950D01*
X381000Y476250D01*
X406400Y311150D02*
X406400Y298450D01*
X400050Y292100D01*
X387350Y292100D01*
X381000Y298450D01*
X400050Y317500D02*
X406400Y311150D01*
X387350Y317500D02*
X381000Y311150D01*
X381000Y298450D01*
X387350Y469900D02*
X400050Y469900D01*
X400050Y444500D02*
X387350Y444500D01*
X387350Y419100D02*
X400050Y419100D01*
X400050Y393700D02*
X387350Y393700D01*
X387350Y368300D02*
X400050Y368300D01*
X400050Y342900D02*
X387350Y342900D01*
X387350Y317500D02*
X400050Y317500D01*
X635000Y323850D02*
X635000Y336550D01*
X635000Y323850D02*
X628650Y317500D01*
X615950Y317500D02*
X609600Y323850D01*
X635000Y361950D02*
X628650Y368300D01*
X635000Y361950D02*
X635000Y349250D01*
X628650Y342900D01*
X615950Y342900D02*
X609600Y349250D01*
X609600Y361950D01*
X615950Y368300D01*
X628650Y342900D02*
X635000Y336550D01*
X615950Y342900D02*
X609600Y336550D01*
X609600Y323850D01*
X635000Y400050D02*
X635000Y412750D01*
X635000Y400050D02*
X628650Y393700D01*
X615950Y393700D02*
X609600Y400050D01*
X628650Y393700D02*
X635000Y387350D01*
X635000Y374650D01*
X628650Y368300D01*
X615950Y368300D02*
X609600Y374650D01*
X609600Y387350D01*
X615950Y393700D01*
X635000Y438150D02*
X628650Y444500D01*
X635000Y438150D02*
X635000Y425450D01*
X628650Y419100D01*
X615950Y419100D02*
X609600Y425450D01*
X609600Y438150D01*
X615950Y444500D01*
X628650Y419100D02*
X635000Y412750D01*
X615950Y419100D02*
X609600Y412750D01*
X609600Y400050D01*
X635000Y476250D02*
X635000Y488950D01*
X635000Y476250D02*
X628650Y469900D01*
X615950Y469900D02*
X609600Y476250D01*
X628650Y469900D02*
X635000Y463550D01*
X635000Y450850D01*
X628650Y444500D01*
X615950Y444500D02*
X609600Y450850D01*
X609600Y463550D01*
X615950Y469900D01*
X615950Y495300D02*
X628650Y495300D01*
X635000Y488950D01*
X615950Y495300D02*
X609600Y488950D01*
X609600Y476250D01*
X635000Y311150D02*
X635000Y298450D01*
X628650Y292100D01*
X615950Y292100D01*
X609600Y298450D01*
X628650Y317500D02*
X635000Y311150D01*
X615950Y317500D02*
X609600Y311150D01*
X609600Y298450D01*
X615950Y469900D02*
X628650Y469900D01*
X628650Y444500D02*
X615950Y444500D01*
X615950Y419100D02*
X628650Y419100D01*
X628650Y393700D02*
X615950Y393700D01*
X615950Y368300D02*
X628650Y368300D01*
X628650Y342900D02*
X615950Y342900D01*
X615950Y317500D02*
X628650Y317500D01*
X444550Y237940D02*
X438200Y231590D01*
X444550Y237940D02*
X450900Y231590D01*
X463600Y231590D02*
X469950Y237940D01*
X476300Y231590D01*
X489000Y231590D02*
X495350Y237940D01*
X501700Y231590D01*
X514400Y231590D02*
X520750Y237940D01*
X527100Y231590D01*
X539800Y231590D02*
X546150Y237940D01*
X552500Y231590D01*
X565200Y231590D02*
X571550Y237940D01*
X438200Y282390D02*
X425500Y282390D01*
X438200Y282390D02*
X444550Y276040D01*
X450900Y282390D01*
X463600Y282390D01*
X469950Y276040D01*
X476300Y282390D01*
X489000Y282390D01*
X495350Y276040D01*
X501700Y282390D01*
X514400Y282390D01*
X520750Y276040D01*
X527100Y282390D01*
X539800Y282390D01*
X546150Y276040D01*
X552500Y282390D01*
X565200Y282390D01*
X571550Y276040D01*
X577900Y282390D01*
X590600Y282390D01*
X596950Y276040D01*
X596950Y237940D02*
X590600Y231590D01*
X577900Y231590D02*
X571550Y237940D01*
X444550Y263340D02*
X444550Y276040D01*
X444550Y250640D02*
X444550Y237940D01*
X469950Y263340D02*
X469950Y276040D01*
X469950Y250640D02*
X469950Y237940D01*
X495350Y263340D02*
X495350Y276040D01*
X495350Y250640D02*
X495350Y237940D01*
X520750Y263340D02*
X520750Y276040D01*
X520750Y250640D02*
X520750Y237940D01*
X546150Y263340D02*
X546150Y276040D01*
X546150Y250640D02*
X546150Y237940D01*
X571550Y263340D02*
X571550Y276040D01*
X571550Y250640D02*
X571550Y237940D01*
X596950Y263340D02*
X596950Y276040D01*
X596950Y250640D02*
X596950Y237940D01*
X590600Y231590D02*
X577900Y231590D01*
X565200Y231590D02*
X552500Y231590D01*
X539800Y231590D02*
X527100Y231590D01*
X514400Y231590D02*
X501700Y231590D01*
X489000Y231590D02*
X476300Y231590D01*
X463600Y231590D02*
X450900Y231590D01*
X438200Y231590D02*
X425500Y231590D01*
X419150Y237940D01*
X419150Y250640D01*
X419150Y263340D02*
X419150Y276040D01*
X425500Y282390D01*
X425500Y256990D02*
X419150Y250640D01*
X425500Y256990D02*
X438200Y256990D01*
X444550Y250640D01*
X450900Y256990D01*
X463600Y256990D01*
X469950Y250640D01*
X476300Y256990D01*
X489000Y256990D01*
X495350Y250640D01*
X501700Y256990D01*
X514400Y256990D01*
X520750Y250640D01*
X527100Y256990D01*
X539800Y256990D01*
X546150Y250640D01*
X552500Y256990D01*
X565200Y256990D01*
X571550Y250640D01*
X577900Y256990D01*
X590600Y256990D01*
X596950Y250640D01*
X425500Y256990D02*
X419150Y263340D01*
X438200Y256990D02*
X444550Y263340D01*
X450900Y256990D01*
X463600Y256990D02*
X469950Y263340D01*
X476300Y256990D01*
X489000Y256990D02*
X495350Y263340D01*
X501700Y256990D01*
X514400Y256990D02*
X520750Y263340D01*
X527100Y256990D01*
X539800Y256990D02*
X546150Y263340D01*
X552500Y256990D01*
X565200Y256990D02*
X571550Y263340D01*
X577900Y256990D01*
X590600Y256990D02*
X596950Y263340D01*
D11*
X431340Y355180D02*
X421340Y355180D01*
X421340Y366180D01*
X431340Y366180D01*
X437340Y355180D02*
X447340Y355180D01*
X447340Y366180D01*
X437340Y366180D01*
D10*
X466852Y359269D02*
X466854Y359203D01*
X466860Y359138D01*
X466869Y359073D01*
X466882Y359009D01*
X466899Y358945D01*
X466920Y358883D01*
X466944Y358822D01*
X466972Y358762D01*
X467003Y358704D01*
X467038Y358649D01*
X467075Y358595D01*
X467116Y358543D01*
X467160Y358494D01*
X467206Y358448D01*
X467255Y358404D01*
X467307Y358363D01*
X467361Y358326D01*
X467417Y358291D01*
X467474Y358260D01*
X467534Y358232D01*
X467595Y358208D01*
X467657Y358187D01*
X467721Y358170D01*
X467785Y358157D01*
X467850Y358148D01*
X467915Y358142D01*
X467981Y358140D01*
X468075Y358142D01*
X468169Y358147D01*
X468263Y358157D01*
X468356Y358170D01*
X468449Y358186D01*
X468541Y358207D01*
X468632Y358230D01*
X468722Y358258D01*
X468811Y358289D01*
X468898Y358323D01*
X468984Y358361D01*
X469069Y358403D01*
X469152Y358447D01*
X469233Y358495D01*
X469312Y358546D01*
X469389Y358600D01*
X469464Y358657D01*
X469537Y358717D01*
X469607Y358780D01*
X469674Y358846D01*
X469533Y362091D02*
X469531Y362157D01*
X469525Y362222D01*
X469516Y362287D01*
X469503Y362351D01*
X469486Y362415D01*
X469465Y362477D01*
X469441Y362538D01*
X469413Y362598D01*
X469382Y362656D01*
X469347Y362711D01*
X469310Y362765D01*
X469269Y362817D01*
X469225Y362866D01*
X469179Y362912D01*
X469130Y362956D01*
X469078Y362997D01*
X469024Y363034D01*
X468969Y363069D01*
X468911Y363100D01*
X468851Y363128D01*
X468790Y363152D01*
X468728Y363173D01*
X468664Y363190D01*
X468600Y363203D01*
X468535Y363212D01*
X468470Y363218D01*
X468404Y363220D01*
X468313Y363218D01*
X468223Y363212D01*
X468132Y363202D01*
X468042Y363189D01*
X467953Y363171D01*
X467865Y363150D01*
X467778Y363125D01*
X467692Y363097D01*
X467607Y363064D01*
X467523Y363028D01*
X467442Y362989D01*
X467362Y362946D01*
X467284Y362899D01*
X467208Y362850D01*
X467134Y362797D01*
X468968Y361103D02*
X469024Y361138D01*
X469078Y361176D01*
X469130Y361218D01*
X469179Y361262D01*
X469225Y361309D01*
X469269Y361359D01*
X469310Y361411D01*
X469347Y361465D01*
X469382Y361522D01*
X469413Y361580D01*
X469441Y361640D01*
X469465Y361702D01*
X469486Y361765D01*
X469503Y361829D01*
X469516Y361894D01*
X469525Y361959D01*
X469531Y362025D01*
X469533Y362091D01*
X467416Y360256D02*
X467360Y360221D01*
X467306Y360183D01*
X467255Y360141D01*
X467206Y360097D01*
X467159Y360050D01*
X467116Y360000D01*
X467075Y359948D01*
X467037Y359894D01*
X467003Y359838D01*
X466972Y359779D01*
X466944Y359719D01*
X466920Y359658D01*
X466899Y359595D01*
X466882Y359531D01*
X466869Y359466D01*
X466860Y359401D01*
X466854Y359335D01*
X466852Y359269D01*
X467416Y360257D02*
X468969Y361103D01*
X463343Y359269D02*
X463343Y363220D01*
X463343Y359269D02*
X463345Y359203D01*
X463351Y359138D01*
X463360Y359073D01*
X463373Y359009D01*
X463390Y358945D01*
X463411Y358883D01*
X463435Y358822D01*
X463463Y358762D01*
X463494Y358705D01*
X463529Y358649D01*
X463566Y358595D01*
X463607Y358543D01*
X463651Y358494D01*
X463697Y358448D01*
X463746Y358404D01*
X463798Y358363D01*
X463852Y358326D01*
X463908Y358291D01*
X463965Y358260D01*
X464025Y358232D01*
X464086Y358208D01*
X464148Y358187D01*
X464212Y358170D01*
X464276Y358157D01*
X464341Y358148D01*
X464406Y358142D01*
X464472Y358140D01*
X465036Y358140D01*
X460530Y362091D02*
X459119Y363220D01*
X459119Y358140D01*
X460530Y358140D02*
X457708Y358140D01*
D12*
X447340Y379167D03*
D11*
X447840Y366167D02*
X420840Y366167D01*
X447840Y366167D02*
X447840Y367167D01*
X447840Y381167D02*
X447840Y382167D01*
X420840Y382167D01*
X420840Y381167D01*
X420840Y367167D02*
X420840Y366167D01*
D13*
X425450Y374167D02*
X443230Y374167D01*
D11*
X438150Y370357D02*
X438150Y377977D01*
D10*
X466199Y375920D02*
X466199Y381000D01*
X464788Y381000D01*
X464714Y380998D01*
X464641Y380992D01*
X464567Y380983D01*
X464495Y380969D01*
X464423Y380952D01*
X464352Y380931D01*
X464282Y380906D01*
X464214Y380878D01*
X464147Y380846D01*
X464083Y380811D01*
X464020Y380772D01*
X463959Y380731D01*
X463900Y380686D01*
X463844Y380638D01*
X463790Y380587D01*
X463739Y380533D01*
X463691Y380477D01*
X463646Y380418D01*
X463605Y380357D01*
X463566Y380295D01*
X463531Y380230D01*
X463499Y380163D01*
X463471Y380095D01*
X463446Y380025D01*
X463425Y379954D01*
X463408Y379882D01*
X463394Y379810D01*
X463385Y379736D01*
X463379Y379663D01*
X463377Y379589D01*
X463377Y377331D01*
X463379Y377257D01*
X463385Y377184D01*
X463394Y377110D01*
X463408Y377038D01*
X463425Y376966D01*
X463446Y376895D01*
X463471Y376825D01*
X463499Y376757D01*
X463531Y376690D01*
X463566Y376626D01*
X463605Y376563D01*
X463646Y376502D01*
X463691Y376443D01*
X463739Y376387D01*
X463790Y376333D01*
X463844Y376282D01*
X463900Y376234D01*
X463959Y376189D01*
X464020Y376148D01*
X464083Y376109D01*
X464147Y376074D01*
X464214Y376042D01*
X464282Y376014D01*
X464352Y375989D01*
X464423Y375968D01*
X464495Y375951D01*
X464567Y375937D01*
X464641Y375928D01*
X464714Y375922D01*
X464788Y375920D01*
X466199Y375920D01*
X460530Y379871D02*
X459119Y381000D01*
X459119Y375920D01*
X460530Y375920D02*
X457708Y375920D01*
X486917Y372110D02*
X488328Y370981D01*
X486917Y372110D02*
X486917Y367030D01*
X488328Y367030D02*
X485506Y367030D01*
X482659Y367030D02*
X482659Y372110D01*
X479836Y367030D01*
X479836Y372110D01*
X475860Y372110D02*
X476989Y368159D01*
X474167Y368159D01*
X475014Y369288D02*
X475014Y367030D01*
X471503Y370981D02*
X470092Y372110D01*
X470092Y367030D01*
X471503Y367030D02*
X468681Y367030D01*
X466017Y368159D02*
X464888Y372110D01*
X466017Y368159D02*
X463194Y368159D01*
X464041Y369288D02*
X464041Y367030D01*
X460530Y368441D02*
X460528Y368515D01*
X460522Y368588D01*
X460513Y368662D01*
X460499Y368734D01*
X460482Y368806D01*
X460461Y368877D01*
X460436Y368947D01*
X460408Y369015D01*
X460376Y369082D01*
X460341Y369147D01*
X460302Y369209D01*
X460261Y369270D01*
X460216Y369329D01*
X460168Y369385D01*
X460117Y369439D01*
X460063Y369490D01*
X460007Y369538D01*
X459948Y369583D01*
X459887Y369624D01*
X459825Y369663D01*
X459760Y369698D01*
X459693Y369730D01*
X459625Y369758D01*
X459555Y369783D01*
X459484Y369804D01*
X459412Y369821D01*
X459340Y369835D01*
X459266Y369844D01*
X459193Y369850D01*
X459119Y369852D01*
X459045Y369850D01*
X458972Y369844D01*
X458898Y369835D01*
X458826Y369821D01*
X458754Y369804D01*
X458683Y369783D01*
X458613Y369758D01*
X458545Y369730D01*
X458478Y369698D01*
X458414Y369663D01*
X458351Y369624D01*
X458290Y369583D01*
X458231Y369538D01*
X458175Y369490D01*
X458121Y369439D01*
X458070Y369385D01*
X458022Y369329D01*
X457977Y369270D01*
X457936Y369209D01*
X457897Y369147D01*
X457862Y369082D01*
X457830Y369015D01*
X457802Y368947D01*
X457777Y368877D01*
X457756Y368806D01*
X457739Y368734D01*
X457725Y368662D01*
X457716Y368588D01*
X457710Y368515D01*
X457708Y368441D01*
X457710Y368367D01*
X457716Y368294D01*
X457725Y368220D01*
X457739Y368148D01*
X457756Y368076D01*
X457777Y368005D01*
X457802Y367935D01*
X457830Y367867D01*
X457862Y367800D01*
X457897Y367736D01*
X457936Y367673D01*
X457977Y367612D01*
X458022Y367553D01*
X458070Y367497D01*
X458121Y367443D01*
X458175Y367392D01*
X458231Y367344D01*
X458290Y367299D01*
X458351Y367258D01*
X458414Y367219D01*
X458478Y367184D01*
X458545Y367152D01*
X458613Y367124D01*
X458683Y367099D01*
X458754Y367078D01*
X458826Y367061D01*
X458898Y367047D01*
X458972Y367038D01*
X459045Y367032D01*
X459119Y367030D01*
X459193Y367032D01*
X459266Y367038D01*
X459340Y367047D01*
X459412Y367061D01*
X459484Y367078D01*
X459555Y367099D01*
X459625Y367124D01*
X459693Y367152D01*
X459760Y367184D01*
X459825Y367219D01*
X459887Y367258D01*
X459948Y367299D01*
X460007Y367344D01*
X460063Y367392D01*
X460117Y367443D01*
X460168Y367497D01*
X460216Y367553D01*
X460261Y367612D01*
X460302Y367673D01*
X460341Y367736D01*
X460376Y367800D01*
X460408Y367867D01*
X460436Y367935D01*
X460461Y368005D01*
X460482Y368076D01*
X460499Y368148D01*
X460513Y368220D01*
X460522Y368294D01*
X460528Y368367D01*
X460530Y368441D01*
X460248Y370981D02*
X460246Y371047D01*
X460240Y371112D01*
X460231Y371177D01*
X460218Y371241D01*
X460201Y371305D01*
X460180Y371367D01*
X460156Y371428D01*
X460128Y371488D01*
X460097Y371546D01*
X460062Y371601D01*
X460025Y371655D01*
X459984Y371707D01*
X459940Y371756D01*
X459894Y371802D01*
X459845Y371846D01*
X459793Y371887D01*
X459739Y371924D01*
X459684Y371959D01*
X459626Y371990D01*
X459566Y372018D01*
X459505Y372042D01*
X459443Y372063D01*
X459379Y372080D01*
X459315Y372093D01*
X459250Y372102D01*
X459185Y372108D01*
X459119Y372110D01*
X459053Y372108D01*
X458988Y372102D01*
X458923Y372093D01*
X458859Y372080D01*
X458795Y372063D01*
X458733Y372042D01*
X458672Y372018D01*
X458612Y371990D01*
X458555Y371959D01*
X458499Y371924D01*
X458445Y371887D01*
X458393Y371846D01*
X458344Y371802D01*
X458298Y371756D01*
X458254Y371707D01*
X458213Y371655D01*
X458176Y371601D01*
X458141Y371546D01*
X458110Y371488D01*
X458082Y371428D01*
X458058Y371367D01*
X458037Y371305D01*
X458020Y371241D01*
X458007Y371177D01*
X457998Y371112D01*
X457992Y371047D01*
X457990Y370981D01*
X457992Y370915D01*
X457998Y370850D01*
X458007Y370785D01*
X458020Y370721D01*
X458037Y370657D01*
X458058Y370595D01*
X458082Y370534D01*
X458110Y370474D01*
X458141Y370417D01*
X458176Y370361D01*
X458213Y370307D01*
X458254Y370255D01*
X458298Y370206D01*
X458344Y370160D01*
X458393Y370116D01*
X458445Y370075D01*
X458499Y370038D01*
X458555Y370003D01*
X458612Y369972D01*
X458672Y369944D01*
X458733Y369920D01*
X458795Y369899D01*
X458859Y369882D01*
X458923Y369869D01*
X458988Y369860D01*
X459053Y369854D01*
X459119Y369852D01*
X459185Y369854D01*
X459250Y369860D01*
X459315Y369869D01*
X459379Y369882D01*
X459443Y369899D01*
X459505Y369920D01*
X459566Y369944D01*
X459626Y369972D01*
X459684Y370003D01*
X459739Y370038D01*
X459793Y370075D01*
X459845Y370116D01*
X459894Y370160D01*
X459940Y370206D01*
X459984Y370255D01*
X460025Y370307D01*
X460062Y370361D01*
X460097Y370417D01*
X460128Y370474D01*
X460156Y370534D01*
X460180Y370595D01*
X460201Y370657D01*
X460218Y370721D01*
X460231Y370785D01*
X460240Y370850D01*
X460246Y370915D01*
X460248Y370981D01*
D11*
X463550Y417230D02*
X463550Y431200D01*
X481330Y431200D01*
X481330Y417230D01*
X481330Y409610D02*
X481330Y395640D01*
X463550Y395640D01*
X463550Y409610D01*
D10*
X469900Y385318D02*
X474980Y385318D01*
X474980Y386729D01*
X474978Y386803D01*
X474972Y386876D01*
X474963Y386950D01*
X474949Y387022D01*
X474932Y387094D01*
X474911Y387165D01*
X474886Y387235D01*
X474858Y387303D01*
X474826Y387370D01*
X474791Y387435D01*
X474752Y387497D01*
X474711Y387558D01*
X474666Y387617D01*
X474618Y387673D01*
X474567Y387727D01*
X474513Y387778D01*
X474457Y387826D01*
X474398Y387871D01*
X474337Y387912D01*
X474275Y387951D01*
X474210Y387986D01*
X474143Y388018D01*
X474075Y388046D01*
X474005Y388071D01*
X473934Y388092D01*
X473862Y388109D01*
X473790Y388123D01*
X473716Y388132D01*
X473643Y388138D01*
X473569Y388140D01*
X473495Y388138D01*
X473422Y388132D01*
X473348Y388123D01*
X473276Y388109D01*
X473204Y388092D01*
X473133Y388071D01*
X473063Y388046D01*
X472995Y388018D01*
X472928Y387986D01*
X472864Y387951D01*
X472801Y387912D01*
X472740Y387871D01*
X472681Y387826D01*
X472625Y387778D01*
X472571Y387727D01*
X472520Y387673D01*
X472472Y387617D01*
X472427Y387558D01*
X472386Y387497D01*
X472347Y387435D01*
X472312Y387370D01*
X472280Y387303D01*
X472252Y387235D01*
X472227Y387165D01*
X472206Y387094D01*
X472189Y387022D01*
X472175Y386950D01*
X472166Y386876D01*
X472160Y386803D01*
X472158Y386729D01*
X472158Y385318D01*
X472158Y387011D02*
X469900Y388140D01*
X473851Y390750D02*
X474980Y392161D01*
X469900Y392161D01*
X469900Y390750D02*
X469900Y393572D01*
X473851Y434848D02*
X474980Y436259D01*
X469900Y436259D01*
X469900Y434848D02*
X469900Y437670D01*
X472440Y440335D02*
X472567Y440337D01*
X472693Y440343D01*
X472819Y440352D01*
X472945Y440366D01*
X473070Y440383D01*
X473195Y440404D01*
X473319Y440428D01*
X473443Y440457D01*
X473565Y440489D01*
X473687Y440525D01*
X473807Y440564D01*
X473926Y440608D01*
X474043Y440654D01*
X474160Y440705D01*
X474274Y440758D01*
X474275Y440757D02*
X474332Y440779D01*
X474389Y440804D01*
X474443Y440833D01*
X474496Y440864D01*
X474547Y440899D01*
X474596Y440936D01*
X474643Y440977D01*
X474687Y441020D01*
X474729Y441065D01*
X474767Y441113D01*
X474803Y441164D01*
X474836Y441216D01*
X474866Y441270D01*
X474892Y441326D01*
X474915Y441383D01*
X474935Y441441D01*
X474951Y441501D01*
X474964Y441561D01*
X474973Y441622D01*
X474978Y441683D01*
X474980Y441745D01*
X474978Y441807D01*
X474973Y441868D01*
X474964Y441929D01*
X474951Y441989D01*
X474935Y442049D01*
X474915Y442107D01*
X474892Y442165D01*
X474866Y442220D01*
X474836Y442274D01*
X474803Y442326D01*
X474767Y442377D01*
X474728Y442425D01*
X474687Y442470D01*
X474643Y442513D01*
X474596Y442554D01*
X474547Y442591D01*
X474496Y442626D01*
X474443Y442657D01*
X474389Y442686D01*
X474332Y442711D01*
X474275Y442733D01*
X474274Y442733D02*
X474160Y442786D01*
X474044Y442837D01*
X473926Y442883D01*
X473807Y442927D01*
X473687Y442966D01*
X473565Y443002D01*
X473443Y443034D01*
X473320Y443063D01*
X473195Y443087D01*
X473071Y443108D01*
X472945Y443125D01*
X472819Y443139D01*
X472693Y443148D01*
X472567Y443154D01*
X472440Y443156D01*
X472440Y440334D02*
X472313Y440336D01*
X472187Y440342D01*
X472061Y440351D01*
X471935Y440365D01*
X471809Y440382D01*
X471685Y440403D01*
X471560Y440427D01*
X471437Y440456D01*
X471315Y440488D01*
X471193Y440524D01*
X471073Y440563D01*
X470954Y440607D01*
X470836Y440653D01*
X470720Y440704D01*
X470605Y440757D01*
X470548Y440779D01*
X470491Y440804D01*
X470437Y440833D01*
X470384Y440864D01*
X470333Y440899D01*
X470284Y440936D01*
X470237Y440977D01*
X470193Y441020D01*
X470151Y441065D01*
X470113Y441113D01*
X470077Y441164D01*
X470044Y441216D01*
X470014Y441270D01*
X469988Y441326D01*
X469965Y441383D01*
X469945Y441441D01*
X469929Y441501D01*
X469916Y441561D01*
X469907Y441622D01*
X469902Y441683D01*
X469900Y441745D01*
X470606Y442733D02*
X470720Y442786D01*
X470836Y442837D01*
X470954Y442883D01*
X471073Y442927D01*
X471193Y442966D01*
X471315Y443002D01*
X471437Y443034D01*
X471561Y443063D01*
X471685Y443087D01*
X471809Y443108D01*
X471935Y443125D01*
X472061Y443139D01*
X472187Y443148D01*
X472313Y443154D01*
X472440Y443156D01*
X470605Y442733D02*
X470548Y442711D01*
X470491Y442686D01*
X470437Y442657D01*
X470384Y442626D01*
X470333Y442591D01*
X470284Y442554D01*
X470237Y442513D01*
X470193Y442470D01*
X470151Y442425D01*
X470113Y442377D01*
X470077Y442326D01*
X470044Y442274D01*
X470014Y442220D01*
X469988Y442164D01*
X469965Y442107D01*
X469945Y442049D01*
X469929Y441989D01*
X469916Y441929D01*
X469907Y441868D01*
X469902Y441807D01*
X469900Y441745D01*
X471029Y440617D02*
X473851Y442874D01*
X474980Y446129D02*
X469900Y446129D01*
X471876Y446129D02*
X474980Y448951D01*
X473004Y447258D02*
X469900Y448951D01*
D11*
X547370Y476250D02*
X547370Y490220D01*
X565150Y490220D01*
X565150Y476250D01*
X565150Y468630D02*
X565150Y454660D01*
X547370Y454660D01*
X547370Y468630D01*
D10*
X553720Y443738D02*
X558800Y443738D01*
X558800Y445149D01*
X558798Y445223D01*
X558792Y445296D01*
X558783Y445370D01*
X558769Y445442D01*
X558752Y445514D01*
X558731Y445585D01*
X558706Y445655D01*
X558678Y445723D01*
X558646Y445790D01*
X558611Y445855D01*
X558572Y445917D01*
X558531Y445978D01*
X558486Y446037D01*
X558438Y446093D01*
X558387Y446147D01*
X558333Y446198D01*
X558277Y446246D01*
X558218Y446291D01*
X558157Y446332D01*
X558095Y446371D01*
X558030Y446406D01*
X557963Y446438D01*
X557895Y446466D01*
X557825Y446491D01*
X557754Y446512D01*
X557682Y446529D01*
X557610Y446543D01*
X557536Y446552D01*
X557463Y446558D01*
X557389Y446560D01*
X557315Y446558D01*
X557242Y446552D01*
X557168Y446543D01*
X557096Y446529D01*
X557024Y446512D01*
X556953Y446491D01*
X556883Y446466D01*
X556815Y446438D01*
X556748Y446406D01*
X556684Y446371D01*
X556621Y446332D01*
X556560Y446291D01*
X556501Y446246D01*
X556445Y446198D01*
X556391Y446147D01*
X556340Y446093D01*
X556292Y446037D01*
X556247Y445978D01*
X556206Y445917D01*
X556167Y445855D01*
X556132Y445790D01*
X556100Y445723D01*
X556072Y445655D01*
X556047Y445585D01*
X556026Y445514D01*
X556009Y445442D01*
X555995Y445370D01*
X555986Y445296D01*
X555980Y445223D01*
X555978Y445149D01*
X555978Y443738D01*
X555978Y445431D02*
X553720Y446560D01*
X558800Y450722D02*
X558798Y450791D01*
X558793Y450859D01*
X558783Y450927D01*
X558770Y450995D01*
X558754Y451062D01*
X558734Y451128D01*
X558710Y451192D01*
X558683Y451255D01*
X558652Y451317D01*
X558618Y451377D01*
X558581Y451435D01*
X558541Y451491D01*
X558498Y451544D01*
X558452Y451595D01*
X558403Y451644D01*
X558352Y451690D01*
X558299Y451733D01*
X558243Y451773D01*
X558185Y451810D01*
X558125Y451844D01*
X558063Y451875D01*
X558000Y451902D01*
X557936Y451926D01*
X557870Y451946D01*
X557803Y451962D01*
X557735Y451975D01*
X557667Y451985D01*
X557599Y451990D01*
X557530Y451992D01*
X558800Y450722D02*
X558798Y450643D01*
X558792Y450564D01*
X558783Y450486D01*
X558770Y450408D01*
X558753Y450331D01*
X558732Y450255D01*
X558707Y450180D01*
X558679Y450106D01*
X558648Y450034D01*
X558613Y449963D01*
X558574Y449894D01*
X558533Y449827D01*
X558488Y449762D01*
X558440Y449699D01*
X558389Y449639D01*
X558335Y449581D01*
X558279Y449526D01*
X558220Y449474D01*
X558158Y449425D01*
X558094Y449378D01*
X558028Y449335D01*
X557960Y449295D01*
X557890Y449258D01*
X557818Y449225D01*
X557745Y449196D01*
X557671Y449169D01*
X556542Y451569D02*
X556591Y451617D01*
X556642Y451664D01*
X556696Y451707D01*
X556752Y451748D01*
X556809Y451786D01*
X556869Y451821D01*
X556930Y451853D01*
X556993Y451882D01*
X557057Y451907D01*
X557122Y451930D01*
X557189Y451949D01*
X557256Y451964D01*
X557324Y451976D01*
X557392Y451985D01*
X557461Y451990D01*
X557530Y451992D01*
X556542Y451569D02*
X553720Y449170D01*
X553720Y451992D01*
X553720Y502158D02*
X553720Y503569D01*
X553722Y503643D01*
X553728Y503716D01*
X553737Y503790D01*
X553751Y503862D01*
X553768Y503934D01*
X553789Y504005D01*
X553814Y504075D01*
X553842Y504143D01*
X553874Y504210D01*
X553909Y504275D01*
X553948Y504337D01*
X553989Y504398D01*
X554034Y504457D01*
X554082Y504513D01*
X554133Y504567D01*
X554187Y504618D01*
X554243Y504666D01*
X554302Y504711D01*
X554363Y504752D01*
X554426Y504791D01*
X554490Y504826D01*
X554557Y504858D01*
X554625Y504886D01*
X554695Y504911D01*
X554766Y504932D01*
X554838Y504949D01*
X554910Y504963D01*
X554984Y504972D01*
X555057Y504978D01*
X555131Y504980D01*
X555205Y504978D01*
X555278Y504972D01*
X555352Y504963D01*
X555424Y504949D01*
X555496Y504932D01*
X555567Y504911D01*
X555637Y504886D01*
X555705Y504858D01*
X555772Y504826D01*
X555837Y504791D01*
X555899Y504752D01*
X555960Y504711D01*
X556019Y504666D01*
X556075Y504618D01*
X556129Y504567D01*
X556180Y504513D01*
X556228Y504457D01*
X556273Y504398D01*
X556314Y504337D01*
X556353Y504275D01*
X556388Y504210D01*
X556420Y504143D01*
X556448Y504075D01*
X556473Y504005D01*
X556494Y503934D01*
X556511Y503862D01*
X556525Y503790D01*
X556534Y503716D01*
X556540Y503643D01*
X556542Y503569D01*
X558800Y503851D02*
X558800Y502158D01*
X558800Y503851D02*
X558798Y503917D01*
X558792Y503982D01*
X558783Y504047D01*
X558770Y504111D01*
X558753Y504175D01*
X558732Y504237D01*
X558708Y504298D01*
X558680Y504358D01*
X558649Y504416D01*
X558614Y504471D01*
X558577Y504525D01*
X558536Y504577D01*
X558492Y504626D01*
X558446Y504672D01*
X558397Y504716D01*
X558345Y504757D01*
X558291Y504794D01*
X558236Y504829D01*
X558178Y504860D01*
X558118Y504888D01*
X558057Y504912D01*
X557995Y504933D01*
X557931Y504950D01*
X557867Y504963D01*
X557802Y504972D01*
X557737Y504978D01*
X557671Y504980D01*
X557605Y504978D01*
X557540Y504972D01*
X557475Y504963D01*
X557411Y504950D01*
X557347Y504933D01*
X557285Y504912D01*
X557224Y504888D01*
X557164Y504860D01*
X557107Y504829D01*
X557051Y504794D01*
X556997Y504757D01*
X556945Y504716D01*
X556896Y504672D01*
X556850Y504626D01*
X556806Y504577D01*
X556765Y504525D01*
X556728Y504471D01*
X556693Y504416D01*
X556662Y504358D01*
X556634Y504298D01*
X556610Y504237D01*
X556589Y504175D01*
X556572Y504111D01*
X556559Y504047D01*
X556550Y503982D01*
X556544Y503917D01*
X556542Y503851D01*
X556542Y502722D01*
X555978Y508773D02*
X555978Y510467D01*
X555978Y508773D02*
X555980Y508707D01*
X555986Y508642D01*
X555995Y508577D01*
X556008Y508513D01*
X556025Y508449D01*
X556046Y508387D01*
X556070Y508326D01*
X556098Y508266D01*
X556129Y508208D01*
X556164Y508153D01*
X556201Y508099D01*
X556242Y508047D01*
X556286Y507998D01*
X556332Y507952D01*
X556381Y507908D01*
X556433Y507867D01*
X556487Y507830D01*
X556543Y507795D01*
X556600Y507764D01*
X556660Y507736D01*
X556721Y507712D01*
X556783Y507691D01*
X556847Y507674D01*
X556911Y507661D01*
X556976Y507652D01*
X557041Y507646D01*
X557107Y507644D01*
X557389Y507644D01*
X557463Y507646D01*
X557536Y507652D01*
X557610Y507661D01*
X557682Y507675D01*
X557754Y507692D01*
X557825Y507713D01*
X557895Y507738D01*
X557963Y507766D01*
X558030Y507798D01*
X558095Y507833D01*
X558157Y507872D01*
X558218Y507913D01*
X558277Y507958D01*
X558333Y508006D01*
X558387Y508057D01*
X558438Y508111D01*
X558486Y508167D01*
X558531Y508226D01*
X558572Y508287D01*
X558611Y508350D01*
X558646Y508414D01*
X558678Y508481D01*
X558706Y508549D01*
X558731Y508619D01*
X558752Y508690D01*
X558769Y508762D01*
X558783Y508834D01*
X558792Y508908D01*
X558798Y508981D01*
X558800Y509055D01*
X558798Y509129D01*
X558792Y509202D01*
X558783Y509276D01*
X558769Y509348D01*
X558752Y509420D01*
X558731Y509491D01*
X558706Y509561D01*
X558678Y509629D01*
X558646Y509696D01*
X558611Y509761D01*
X558572Y509823D01*
X558531Y509884D01*
X558486Y509943D01*
X558438Y509999D01*
X558387Y510053D01*
X558333Y510104D01*
X558277Y510152D01*
X558218Y510197D01*
X558157Y510238D01*
X558095Y510277D01*
X558030Y510312D01*
X557963Y510344D01*
X557895Y510372D01*
X557825Y510397D01*
X557754Y510418D01*
X557682Y510435D01*
X557610Y510449D01*
X557536Y510458D01*
X557463Y510464D01*
X557389Y510466D01*
X557389Y510467D02*
X555978Y510467D01*
X555885Y510465D01*
X555792Y510459D01*
X555699Y510450D01*
X555606Y510436D01*
X555515Y510419D01*
X555424Y510398D01*
X555334Y510373D01*
X555245Y510345D01*
X555157Y510313D01*
X555071Y510277D01*
X554986Y510238D01*
X554903Y510195D01*
X554822Y510149D01*
X554743Y510099D01*
X554666Y510047D01*
X554591Y509991D01*
X554519Y509932D01*
X554449Y509870D01*
X554381Y509806D01*
X554317Y509738D01*
X554255Y509668D01*
X554196Y509596D01*
X554140Y509521D01*
X554088Y509444D01*
X554038Y509365D01*
X553992Y509284D01*
X553949Y509201D01*
X553910Y509116D01*
X553874Y509030D01*
X553842Y508942D01*
X553814Y508853D01*
X553789Y508763D01*
X553768Y508672D01*
X553751Y508581D01*
X553737Y508488D01*
X553728Y508395D01*
X553722Y508302D01*
X553720Y508209D01*
X556260Y513131D02*
X556387Y513133D01*
X556513Y513139D01*
X556639Y513148D01*
X556765Y513162D01*
X556890Y513179D01*
X557015Y513200D01*
X557139Y513224D01*
X557263Y513253D01*
X557385Y513285D01*
X557507Y513321D01*
X557627Y513360D01*
X557746Y513404D01*
X557863Y513450D01*
X557980Y513501D01*
X558094Y513554D01*
X558095Y513554D02*
X558152Y513576D01*
X558209Y513601D01*
X558263Y513630D01*
X558316Y513661D01*
X558367Y513696D01*
X558416Y513733D01*
X558463Y513774D01*
X558507Y513817D01*
X558549Y513862D01*
X558587Y513910D01*
X558623Y513961D01*
X558656Y514013D01*
X558686Y514067D01*
X558712Y514123D01*
X558735Y514180D01*
X558755Y514238D01*
X558771Y514298D01*
X558784Y514358D01*
X558793Y514419D01*
X558798Y514480D01*
X558800Y514542D01*
X558798Y514604D01*
X558793Y514665D01*
X558784Y514726D01*
X558771Y514786D01*
X558755Y514846D01*
X558735Y514904D01*
X558712Y514962D01*
X558686Y515017D01*
X558656Y515071D01*
X558623Y515123D01*
X558587Y515174D01*
X558548Y515222D01*
X558507Y515267D01*
X558463Y515310D01*
X558416Y515351D01*
X558367Y515388D01*
X558316Y515423D01*
X558263Y515454D01*
X558209Y515483D01*
X558152Y515508D01*
X558095Y515530D01*
X558094Y515530D02*
X557980Y515583D01*
X557864Y515634D01*
X557746Y515680D01*
X557627Y515724D01*
X557507Y515763D01*
X557385Y515799D01*
X557263Y515831D01*
X557140Y515860D01*
X557015Y515884D01*
X556891Y515905D01*
X556765Y515922D01*
X556639Y515936D01*
X556513Y515945D01*
X556387Y515951D01*
X556260Y515953D01*
X556260Y513130D02*
X556133Y513132D01*
X556007Y513138D01*
X555881Y513147D01*
X555755Y513161D01*
X555629Y513178D01*
X555505Y513199D01*
X555380Y513223D01*
X555257Y513252D01*
X555135Y513284D01*
X555013Y513320D01*
X554893Y513359D01*
X554774Y513403D01*
X554656Y513449D01*
X554540Y513500D01*
X554425Y513553D01*
X554425Y513554D02*
X554368Y513576D01*
X554311Y513601D01*
X554257Y513630D01*
X554204Y513661D01*
X554153Y513696D01*
X554104Y513733D01*
X554057Y513774D01*
X554013Y513817D01*
X553971Y513862D01*
X553933Y513910D01*
X553897Y513961D01*
X553864Y514013D01*
X553834Y514067D01*
X553808Y514123D01*
X553785Y514180D01*
X553765Y514238D01*
X553749Y514298D01*
X553736Y514358D01*
X553727Y514419D01*
X553722Y514480D01*
X553720Y514542D01*
X554426Y515530D02*
X554540Y515583D01*
X554656Y515634D01*
X554774Y515680D01*
X554893Y515724D01*
X555013Y515763D01*
X555135Y515799D01*
X555257Y515831D01*
X555381Y515860D01*
X555505Y515884D01*
X555629Y515905D01*
X555755Y515922D01*
X555881Y515936D01*
X556007Y515945D01*
X556133Y515951D01*
X556260Y515953D01*
X554425Y515530D02*
X554368Y515508D01*
X554311Y515483D01*
X554257Y515454D01*
X554204Y515423D01*
X554153Y515388D01*
X554104Y515351D01*
X554057Y515310D01*
X554013Y515267D01*
X553971Y515222D01*
X553933Y515174D01*
X553897Y515123D01*
X553864Y515071D01*
X553834Y515017D01*
X553808Y514961D01*
X553785Y514904D01*
X553765Y514846D01*
X553749Y514786D01*
X553736Y514726D01*
X553727Y514665D01*
X553722Y514604D01*
X553720Y514542D01*
X554849Y513413D02*
X557671Y515671D01*
D11*
X570230Y490220D02*
X570230Y476250D01*
X570230Y490220D02*
X588010Y490220D01*
X588010Y476250D01*
X588010Y468630D02*
X588010Y454660D01*
X570230Y454660D01*
X570230Y468630D01*
D10*
X576580Y443738D02*
X581660Y443738D01*
X581660Y445149D01*
X581658Y445223D01*
X581652Y445296D01*
X581643Y445370D01*
X581629Y445442D01*
X581612Y445514D01*
X581591Y445585D01*
X581566Y445655D01*
X581538Y445723D01*
X581506Y445790D01*
X581471Y445855D01*
X581432Y445917D01*
X581391Y445978D01*
X581346Y446037D01*
X581298Y446093D01*
X581247Y446147D01*
X581193Y446198D01*
X581137Y446246D01*
X581078Y446291D01*
X581017Y446332D01*
X580955Y446371D01*
X580890Y446406D01*
X580823Y446438D01*
X580755Y446466D01*
X580685Y446491D01*
X580614Y446512D01*
X580542Y446529D01*
X580470Y446543D01*
X580396Y446552D01*
X580323Y446558D01*
X580249Y446560D01*
X580175Y446558D01*
X580102Y446552D01*
X580028Y446543D01*
X579956Y446529D01*
X579884Y446512D01*
X579813Y446491D01*
X579743Y446466D01*
X579675Y446438D01*
X579608Y446406D01*
X579544Y446371D01*
X579481Y446332D01*
X579420Y446291D01*
X579361Y446246D01*
X579305Y446198D01*
X579251Y446147D01*
X579200Y446093D01*
X579152Y446037D01*
X579107Y445978D01*
X579066Y445917D01*
X579027Y445855D01*
X578992Y445790D01*
X578960Y445723D01*
X578932Y445655D01*
X578907Y445585D01*
X578886Y445514D01*
X578869Y445442D01*
X578855Y445370D01*
X578846Y445296D01*
X578840Y445223D01*
X578838Y445149D01*
X578838Y443738D01*
X578838Y445431D02*
X576580Y446560D01*
X576580Y449170D02*
X576580Y450581D01*
X576582Y450655D01*
X576588Y450728D01*
X576597Y450802D01*
X576611Y450874D01*
X576628Y450946D01*
X576649Y451017D01*
X576674Y451087D01*
X576702Y451155D01*
X576734Y451222D01*
X576769Y451287D01*
X576808Y451349D01*
X576849Y451410D01*
X576894Y451469D01*
X576942Y451525D01*
X576993Y451579D01*
X577047Y451630D01*
X577103Y451678D01*
X577162Y451723D01*
X577223Y451764D01*
X577286Y451803D01*
X577350Y451838D01*
X577417Y451870D01*
X577485Y451898D01*
X577555Y451923D01*
X577626Y451944D01*
X577698Y451961D01*
X577770Y451975D01*
X577844Y451984D01*
X577917Y451990D01*
X577991Y451992D01*
X578065Y451990D01*
X578138Y451984D01*
X578212Y451975D01*
X578284Y451961D01*
X578356Y451944D01*
X578427Y451923D01*
X578497Y451898D01*
X578565Y451870D01*
X578632Y451838D01*
X578697Y451803D01*
X578759Y451764D01*
X578820Y451723D01*
X578879Y451678D01*
X578935Y451630D01*
X578989Y451579D01*
X579040Y451525D01*
X579088Y451469D01*
X579133Y451410D01*
X579174Y451349D01*
X579213Y451287D01*
X579248Y451222D01*
X579280Y451155D01*
X579308Y451087D01*
X579333Y451017D01*
X579354Y450946D01*
X579371Y450874D01*
X579385Y450802D01*
X579394Y450728D01*
X579400Y450655D01*
X579402Y450581D01*
X581660Y450863D02*
X581660Y449170D01*
X581660Y450863D02*
X581658Y450929D01*
X581652Y450994D01*
X581643Y451059D01*
X581630Y451123D01*
X581613Y451187D01*
X581592Y451249D01*
X581568Y451310D01*
X581540Y451370D01*
X581509Y451428D01*
X581474Y451483D01*
X581437Y451537D01*
X581396Y451589D01*
X581352Y451638D01*
X581306Y451684D01*
X581257Y451728D01*
X581205Y451769D01*
X581151Y451806D01*
X581096Y451841D01*
X581038Y451872D01*
X580978Y451900D01*
X580917Y451924D01*
X580855Y451945D01*
X580791Y451962D01*
X580727Y451975D01*
X580662Y451984D01*
X580597Y451990D01*
X580531Y451992D01*
X580465Y451990D01*
X580400Y451984D01*
X580335Y451975D01*
X580271Y451962D01*
X580207Y451945D01*
X580145Y451924D01*
X580084Y451900D01*
X580024Y451872D01*
X579967Y451841D01*
X579911Y451806D01*
X579857Y451769D01*
X579805Y451728D01*
X579756Y451684D01*
X579710Y451638D01*
X579666Y451589D01*
X579625Y451537D01*
X579588Y451483D01*
X579553Y451428D01*
X579522Y451370D01*
X579494Y451310D01*
X579470Y451249D01*
X579449Y451187D01*
X579432Y451123D01*
X579419Y451059D01*
X579410Y450994D01*
X579404Y450929D01*
X579402Y450863D01*
X579402Y449734D01*
X576580Y502158D02*
X576580Y503569D01*
X576582Y503643D01*
X576588Y503716D01*
X576597Y503790D01*
X576611Y503862D01*
X576628Y503934D01*
X576649Y504005D01*
X576674Y504075D01*
X576702Y504143D01*
X576734Y504210D01*
X576769Y504275D01*
X576808Y504337D01*
X576849Y504398D01*
X576894Y504457D01*
X576942Y504513D01*
X576993Y504567D01*
X577047Y504618D01*
X577103Y504666D01*
X577162Y504711D01*
X577223Y504752D01*
X577286Y504791D01*
X577350Y504826D01*
X577417Y504858D01*
X577485Y504886D01*
X577555Y504911D01*
X577626Y504932D01*
X577698Y504949D01*
X577770Y504963D01*
X577844Y504972D01*
X577917Y504978D01*
X577991Y504980D01*
X578065Y504978D01*
X578138Y504972D01*
X578212Y504963D01*
X578284Y504949D01*
X578356Y504932D01*
X578427Y504911D01*
X578497Y504886D01*
X578565Y504858D01*
X578632Y504826D01*
X578697Y504791D01*
X578759Y504752D01*
X578820Y504711D01*
X578879Y504666D01*
X578935Y504618D01*
X578989Y504567D01*
X579040Y504513D01*
X579088Y504457D01*
X579133Y504398D01*
X579174Y504337D01*
X579213Y504275D01*
X579248Y504210D01*
X579280Y504143D01*
X579308Y504075D01*
X579333Y504005D01*
X579354Y503934D01*
X579371Y503862D01*
X579385Y503790D01*
X579394Y503716D01*
X579400Y503643D01*
X579402Y503569D01*
X581660Y503851D02*
X581660Y502158D01*
X581660Y503851D02*
X581658Y503917D01*
X581652Y503982D01*
X581643Y504047D01*
X581630Y504111D01*
X581613Y504175D01*
X581592Y504237D01*
X581568Y504298D01*
X581540Y504358D01*
X581509Y504416D01*
X581474Y504471D01*
X581437Y504525D01*
X581396Y504577D01*
X581352Y504626D01*
X581306Y504672D01*
X581257Y504716D01*
X581205Y504757D01*
X581151Y504794D01*
X581096Y504829D01*
X581038Y504860D01*
X580978Y504888D01*
X580917Y504912D01*
X580855Y504933D01*
X580791Y504950D01*
X580727Y504963D01*
X580662Y504972D01*
X580597Y504978D01*
X580531Y504980D01*
X580465Y504978D01*
X580400Y504972D01*
X580335Y504963D01*
X580271Y504950D01*
X580207Y504933D01*
X580145Y504912D01*
X580084Y504888D01*
X580024Y504860D01*
X579967Y504829D01*
X579911Y504794D01*
X579857Y504757D01*
X579805Y504716D01*
X579756Y504672D01*
X579710Y504626D01*
X579666Y504577D01*
X579625Y504525D01*
X579588Y504471D01*
X579553Y504416D01*
X579522Y504358D01*
X579494Y504298D01*
X579470Y504237D01*
X579449Y504175D01*
X579432Y504111D01*
X579419Y504047D01*
X579410Y503982D01*
X579404Y503917D01*
X579402Y503851D01*
X579402Y502722D01*
X578838Y508773D02*
X578838Y510467D01*
X578838Y508773D02*
X578840Y508707D01*
X578846Y508642D01*
X578855Y508577D01*
X578868Y508513D01*
X578885Y508449D01*
X578906Y508387D01*
X578930Y508326D01*
X578958Y508266D01*
X578989Y508208D01*
X579024Y508153D01*
X579061Y508099D01*
X579102Y508047D01*
X579146Y507998D01*
X579192Y507952D01*
X579241Y507908D01*
X579293Y507867D01*
X579347Y507830D01*
X579403Y507795D01*
X579460Y507764D01*
X579520Y507736D01*
X579581Y507712D01*
X579643Y507691D01*
X579707Y507674D01*
X579771Y507661D01*
X579836Y507652D01*
X579901Y507646D01*
X579967Y507644D01*
X580249Y507644D01*
X580323Y507646D01*
X580396Y507652D01*
X580470Y507661D01*
X580542Y507675D01*
X580614Y507692D01*
X580685Y507713D01*
X580755Y507738D01*
X580823Y507766D01*
X580890Y507798D01*
X580955Y507833D01*
X581017Y507872D01*
X581078Y507913D01*
X581137Y507958D01*
X581193Y508006D01*
X581247Y508057D01*
X581298Y508111D01*
X581346Y508167D01*
X581391Y508226D01*
X581432Y508287D01*
X581471Y508350D01*
X581506Y508414D01*
X581538Y508481D01*
X581566Y508549D01*
X581591Y508619D01*
X581612Y508690D01*
X581629Y508762D01*
X581643Y508834D01*
X581652Y508908D01*
X581658Y508981D01*
X581660Y509055D01*
X581658Y509129D01*
X581652Y509202D01*
X581643Y509276D01*
X581629Y509348D01*
X581612Y509420D01*
X581591Y509491D01*
X581566Y509561D01*
X581538Y509629D01*
X581506Y509696D01*
X581471Y509761D01*
X581432Y509823D01*
X581391Y509884D01*
X581346Y509943D01*
X581298Y509999D01*
X581247Y510053D01*
X581193Y510104D01*
X581137Y510152D01*
X581078Y510197D01*
X581017Y510238D01*
X580955Y510277D01*
X580890Y510312D01*
X580823Y510344D01*
X580755Y510372D01*
X580685Y510397D01*
X580614Y510418D01*
X580542Y510435D01*
X580470Y510449D01*
X580396Y510458D01*
X580323Y510464D01*
X580249Y510466D01*
X580249Y510467D02*
X578838Y510467D01*
X578745Y510465D01*
X578652Y510459D01*
X578559Y510450D01*
X578466Y510436D01*
X578375Y510419D01*
X578284Y510398D01*
X578194Y510373D01*
X578105Y510345D01*
X578017Y510313D01*
X577931Y510277D01*
X577846Y510238D01*
X577763Y510195D01*
X577682Y510149D01*
X577603Y510099D01*
X577526Y510047D01*
X577451Y509991D01*
X577379Y509932D01*
X577309Y509870D01*
X577241Y509806D01*
X577177Y509738D01*
X577115Y509668D01*
X577056Y509596D01*
X577000Y509521D01*
X576948Y509444D01*
X576898Y509365D01*
X576852Y509284D01*
X576809Y509201D01*
X576770Y509116D01*
X576734Y509030D01*
X576702Y508942D01*
X576674Y508853D01*
X576649Y508763D01*
X576628Y508672D01*
X576611Y508581D01*
X576597Y508488D01*
X576588Y508395D01*
X576582Y508302D01*
X576580Y508209D01*
X579120Y513131D02*
X579247Y513133D01*
X579373Y513139D01*
X579499Y513148D01*
X579625Y513162D01*
X579750Y513179D01*
X579875Y513200D01*
X579999Y513224D01*
X580123Y513253D01*
X580245Y513285D01*
X580367Y513321D01*
X580487Y513360D01*
X580606Y513404D01*
X580723Y513450D01*
X580840Y513501D01*
X580954Y513554D01*
X580955Y513554D02*
X581012Y513576D01*
X581069Y513601D01*
X581123Y513630D01*
X581176Y513661D01*
X581227Y513696D01*
X581276Y513733D01*
X581323Y513774D01*
X581367Y513817D01*
X581409Y513862D01*
X581447Y513910D01*
X581483Y513961D01*
X581516Y514013D01*
X581546Y514067D01*
X581572Y514123D01*
X581595Y514180D01*
X581615Y514238D01*
X581631Y514298D01*
X581644Y514358D01*
X581653Y514419D01*
X581658Y514480D01*
X581660Y514542D01*
X581658Y514604D01*
X581653Y514665D01*
X581644Y514726D01*
X581631Y514786D01*
X581615Y514846D01*
X581595Y514904D01*
X581572Y514962D01*
X581546Y515017D01*
X581516Y515071D01*
X581483Y515123D01*
X581447Y515174D01*
X581408Y515222D01*
X581367Y515267D01*
X581323Y515310D01*
X581276Y515351D01*
X581227Y515388D01*
X581176Y515423D01*
X581123Y515454D01*
X581069Y515483D01*
X581012Y515508D01*
X580955Y515530D01*
X580954Y515530D02*
X580840Y515583D01*
X580724Y515634D01*
X580606Y515680D01*
X580487Y515724D01*
X580367Y515763D01*
X580245Y515799D01*
X580123Y515831D01*
X580000Y515860D01*
X579875Y515884D01*
X579751Y515905D01*
X579625Y515922D01*
X579499Y515936D01*
X579373Y515945D01*
X579247Y515951D01*
X579120Y515953D01*
X579120Y513130D02*
X578993Y513132D01*
X578867Y513138D01*
X578741Y513147D01*
X578615Y513161D01*
X578489Y513178D01*
X578365Y513199D01*
X578240Y513223D01*
X578117Y513252D01*
X577995Y513284D01*
X577873Y513320D01*
X577753Y513359D01*
X577634Y513403D01*
X577516Y513449D01*
X577400Y513500D01*
X577285Y513553D01*
X577285Y513554D02*
X577228Y513576D01*
X577171Y513601D01*
X577117Y513630D01*
X577064Y513661D01*
X577013Y513696D01*
X576964Y513733D01*
X576917Y513774D01*
X576873Y513817D01*
X576831Y513862D01*
X576793Y513910D01*
X576757Y513961D01*
X576724Y514013D01*
X576694Y514067D01*
X576668Y514123D01*
X576645Y514180D01*
X576625Y514238D01*
X576609Y514298D01*
X576596Y514358D01*
X576587Y514419D01*
X576582Y514480D01*
X576580Y514542D01*
X577286Y515530D02*
X577400Y515583D01*
X577516Y515634D01*
X577634Y515680D01*
X577753Y515724D01*
X577873Y515763D01*
X577995Y515799D01*
X578117Y515831D01*
X578241Y515860D01*
X578365Y515884D01*
X578489Y515905D01*
X578615Y515922D01*
X578741Y515936D01*
X578867Y515945D01*
X578993Y515951D01*
X579120Y515953D01*
X577285Y515530D02*
X577228Y515508D01*
X577171Y515483D01*
X577117Y515454D01*
X577064Y515423D01*
X577013Y515388D01*
X576964Y515351D01*
X576917Y515310D01*
X576873Y515267D01*
X576831Y515222D01*
X576793Y515174D01*
X576757Y515123D01*
X576724Y515071D01*
X576694Y515017D01*
X576668Y514961D01*
X576645Y514904D01*
X576625Y514846D01*
X576609Y514786D01*
X576596Y514726D01*
X576587Y514665D01*
X576582Y514604D01*
X576580Y514542D01*
X577709Y513413D02*
X580531Y515671D01*
D11*
X571040Y304380D02*
X561040Y304380D01*
X561040Y315380D01*
X571040Y315380D01*
X577040Y304380D02*
X587040Y304380D01*
X587040Y315380D01*
X577040Y315380D01*
D10*
X601282Y308659D02*
X601284Y308593D01*
X601290Y308528D01*
X601299Y308463D01*
X601312Y308399D01*
X601329Y308335D01*
X601350Y308273D01*
X601374Y308212D01*
X601402Y308152D01*
X601433Y308094D01*
X601468Y308039D01*
X601505Y307985D01*
X601546Y307933D01*
X601590Y307884D01*
X601636Y307838D01*
X601685Y307794D01*
X601737Y307753D01*
X601791Y307716D01*
X601847Y307681D01*
X601904Y307650D01*
X601964Y307622D01*
X602025Y307598D01*
X602087Y307577D01*
X602151Y307560D01*
X602215Y307547D01*
X602280Y307538D01*
X602345Y307532D01*
X602411Y307530D01*
X602505Y307532D01*
X602599Y307537D01*
X602693Y307547D01*
X602786Y307560D01*
X602879Y307576D01*
X602971Y307597D01*
X603062Y307620D01*
X603152Y307648D01*
X603241Y307679D01*
X603328Y307713D01*
X603414Y307751D01*
X603499Y307793D01*
X603582Y307837D01*
X603663Y307885D01*
X603742Y307936D01*
X603819Y307990D01*
X603894Y308047D01*
X603967Y308107D01*
X604037Y308170D01*
X604104Y308236D01*
X603963Y311481D02*
X603961Y311547D01*
X603955Y311612D01*
X603946Y311677D01*
X603933Y311741D01*
X603916Y311805D01*
X603895Y311867D01*
X603871Y311928D01*
X603843Y311988D01*
X603812Y312046D01*
X603777Y312101D01*
X603740Y312155D01*
X603699Y312207D01*
X603655Y312256D01*
X603609Y312302D01*
X603560Y312346D01*
X603508Y312387D01*
X603454Y312424D01*
X603399Y312459D01*
X603341Y312490D01*
X603281Y312518D01*
X603220Y312542D01*
X603158Y312563D01*
X603094Y312580D01*
X603030Y312593D01*
X602965Y312602D01*
X602900Y312608D01*
X602834Y312610D01*
X602743Y312608D01*
X602653Y312602D01*
X602562Y312592D01*
X602472Y312579D01*
X602383Y312561D01*
X602295Y312540D01*
X602208Y312515D01*
X602122Y312487D01*
X602037Y312454D01*
X601953Y312418D01*
X601872Y312379D01*
X601792Y312336D01*
X601714Y312289D01*
X601638Y312240D01*
X601564Y312187D01*
X603398Y310493D02*
X603454Y310528D01*
X603508Y310566D01*
X603560Y310608D01*
X603609Y310652D01*
X603655Y310699D01*
X603699Y310749D01*
X603740Y310801D01*
X603777Y310855D01*
X603812Y310912D01*
X603843Y310970D01*
X603871Y311030D01*
X603895Y311092D01*
X603916Y311155D01*
X603933Y311219D01*
X603946Y311284D01*
X603955Y311349D01*
X603961Y311415D01*
X603963Y311481D01*
X601846Y309646D02*
X601790Y309611D01*
X601736Y309573D01*
X601685Y309531D01*
X601636Y309487D01*
X601589Y309440D01*
X601546Y309390D01*
X601505Y309338D01*
X601467Y309284D01*
X601433Y309228D01*
X601402Y309169D01*
X601374Y309109D01*
X601350Y309048D01*
X601329Y308985D01*
X601312Y308921D01*
X601299Y308856D01*
X601290Y308791D01*
X601284Y308725D01*
X601282Y308659D01*
X601846Y309647D02*
X603399Y310493D01*
X597773Y308659D02*
X597773Y312610D01*
X597773Y308659D02*
X597775Y308593D01*
X597781Y308528D01*
X597790Y308463D01*
X597803Y308399D01*
X597820Y308335D01*
X597841Y308273D01*
X597865Y308212D01*
X597893Y308152D01*
X597924Y308095D01*
X597959Y308039D01*
X597996Y307985D01*
X598037Y307933D01*
X598081Y307884D01*
X598127Y307838D01*
X598176Y307794D01*
X598228Y307753D01*
X598282Y307716D01*
X598338Y307681D01*
X598395Y307650D01*
X598455Y307622D01*
X598516Y307598D01*
X598578Y307577D01*
X598642Y307560D01*
X598706Y307547D01*
X598771Y307538D01*
X598836Y307532D01*
X598902Y307530D01*
X599466Y307530D01*
X594960Y308659D02*
X593831Y312610D01*
X594960Y308659D02*
X592138Y308659D01*
X592985Y309788D02*
X592985Y307530D01*
D11*
X571040Y329780D02*
X561040Y329780D01*
X561040Y340780D01*
X571040Y340780D01*
X577040Y329780D02*
X587040Y329780D01*
X587040Y340780D01*
X577040Y340780D01*
D10*
X601282Y334059D02*
X601284Y333993D01*
X601290Y333928D01*
X601299Y333863D01*
X601312Y333799D01*
X601329Y333735D01*
X601350Y333673D01*
X601374Y333612D01*
X601402Y333552D01*
X601433Y333494D01*
X601468Y333439D01*
X601505Y333385D01*
X601546Y333333D01*
X601590Y333284D01*
X601636Y333238D01*
X601685Y333194D01*
X601737Y333153D01*
X601791Y333116D01*
X601847Y333081D01*
X601904Y333050D01*
X601964Y333022D01*
X602025Y332998D01*
X602087Y332977D01*
X602151Y332960D01*
X602215Y332947D01*
X602280Y332938D01*
X602345Y332932D01*
X602411Y332930D01*
X602505Y332932D01*
X602599Y332937D01*
X602693Y332947D01*
X602786Y332960D01*
X602879Y332976D01*
X602971Y332997D01*
X603062Y333020D01*
X603152Y333048D01*
X603241Y333079D01*
X603328Y333113D01*
X603414Y333151D01*
X603499Y333193D01*
X603582Y333237D01*
X603663Y333285D01*
X603742Y333336D01*
X603819Y333390D01*
X603894Y333447D01*
X603967Y333507D01*
X604037Y333570D01*
X604104Y333636D01*
X603963Y336881D02*
X603961Y336947D01*
X603955Y337012D01*
X603946Y337077D01*
X603933Y337141D01*
X603916Y337205D01*
X603895Y337267D01*
X603871Y337328D01*
X603843Y337388D01*
X603812Y337446D01*
X603777Y337501D01*
X603740Y337555D01*
X603699Y337607D01*
X603655Y337656D01*
X603609Y337702D01*
X603560Y337746D01*
X603508Y337787D01*
X603454Y337824D01*
X603399Y337859D01*
X603341Y337890D01*
X603281Y337918D01*
X603220Y337942D01*
X603158Y337963D01*
X603094Y337980D01*
X603030Y337993D01*
X602965Y338002D01*
X602900Y338008D01*
X602834Y338010D01*
X602743Y338008D01*
X602653Y338002D01*
X602562Y337992D01*
X602472Y337979D01*
X602383Y337961D01*
X602295Y337940D01*
X602208Y337915D01*
X602122Y337887D01*
X602037Y337854D01*
X601953Y337818D01*
X601872Y337779D01*
X601792Y337736D01*
X601714Y337689D01*
X601638Y337640D01*
X601564Y337587D01*
X603398Y335893D02*
X603454Y335928D01*
X603508Y335966D01*
X603560Y336008D01*
X603609Y336052D01*
X603655Y336099D01*
X603699Y336149D01*
X603740Y336201D01*
X603777Y336255D01*
X603812Y336312D01*
X603843Y336370D01*
X603871Y336430D01*
X603895Y336492D01*
X603916Y336555D01*
X603933Y336619D01*
X603946Y336684D01*
X603955Y336749D01*
X603961Y336815D01*
X603963Y336881D01*
X601846Y335046D02*
X601790Y335011D01*
X601736Y334973D01*
X601685Y334931D01*
X601636Y334887D01*
X601589Y334840D01*
X601546Y334790D01*
X601505Y334738D01*
X601467Y334684D01*
X601433Y334628D01*
X601402Y334569D01*
X601374Y334509D01*
X601350Y334448D01*
X601329Y334385D01*
X601312Y334321D01*
X601299Y334256D01*
X601290Y334191D01*
X601284Y334125D01*
X601282Y334059D01*
X601846Y335047D02*
X603399Y335893D01*
X597773Y334059D02*
X597773Y338010D01*
X597773Y334059D02*
X597775Y333993D01*
X597781Y333928D01*
X597790Y333863D01*
X597803Y333799D01*
X597820Y333735D01*
X597841Y333673D01*
X597865Y333612D01*
X597893Y333552D01*
X597924Y333495D01*
X597959Y333439D01*
X597996Y333385D01*
X598037Y333333D01*
X598081Y333284D01*
X598127Y333238D01*
X598176Y333194D01*
X598228Y333153D01*
X598282Y333116D01*
X598338Y333081D01*
X598395Y333050D01*
X598455Y333022D01*
X598516Y332998D01*
X598578Y332977D01*
X598642Y332960D01*
X598706Y332947D01*
X598771Y332938D01*
X598836Y332932D01*
X598902Y332930D01*
X599466Y332930D01*
X594960Y332930D02*
X593267Y332930D01*
X593201Y332932D01*
X593136Y332938D01*
X593071Y332947D01*
X593007Y332960D01*
X592943Y332977D01*
X592881Y332998D01*
X592820Y333022D01*
X592760Y333050D01*
X592703Y333081D01*
X592647Y333116D01*
X592593Y333153D01*
X592541Y333194D01*
X592492Y333238D01*
X592446Y333284D01*
X592402Y333333D01*
X592361Y333385D01*
X592324Y333439D01*
X592289Y333494D01*
X592258Y333552D01*
X592230Y333612D01*
X592206Y333673D01*
X592185Y333735D01*
X592168Y333799D01*
X592155Y333863D01*
X592146Y333928D01*
X592140Y333993D01*
X592138Y334059D01*
X592138Y334623D01*
X592140Y334689D01*
X592146Y334754D01*
X592155Y334819D01*
X592168Y334883D01*
X592185Y334947D01*
X592206Y335009D01*
X592230Y335070D01*
X592258Y335130D01*
X592289Y335188D01*
X592324Y335243D01*
X592361Y335297D01*
X592402Y335349D01*
X592446Y335398D01*
X592492Y335444D01*
X592541Y335488D01*
X592593Y335529D01*
X592647Y335566D01*
X592703Y335601D01*
X592760Y335632D01*
X592820Y335660D01*
X592881Y335684D01*
X592943Y335705D01*
X593007Y335722D01*
X593071Y335735D01*
X593136Y335744D01*
X593201Y335750D01*
X593267Y335752D01*
X594960Y335752D01*
X594960Y338010D01*
X592138Y338010D01*
D11*
X587040Y328080D02*
X577040Y328080D01*
X587040Y328080D02*
X587040Y317080D01*
X577040Y317080D01*
X571040Y328080D02*
X561040Y328080D01*
X561040Y317080D01*
X571040Y317080D01*
D10*
X601662Y320979D02*
X601664Y320913D01*
X601670Y320848D01*
X601679Y320783D01*
X601692Y320719D01*
X601709Y320655D01*
X601730Y320593D01*
X601754Y320532D01*
X601782Y320472D01*
X601813Y320414D01*
X601848Y320359D01*
X601885Y320305D01*
X601926Y320253D01*
X601970Y320204D01*
X602016Y320158D01*
X602065Y320114D01*
X602117Y320073D01*
X602171Y320036D01*
X602227Y320001D01*
X602284Y319970D01*
X602344Y319942D01*
X602405Y319918D01*
X602467Y319897D01*
X602531Y319880D01*
X602595Y319867D01*
X602660Y319858D01*
X602725Y319852D01*
X602791Y319850D01*
X602885Y319852D01*
X602979Y319857D01*
X603073Y319867D01*
X603166Y319880D01*
X603259Y319896D01*
X603351Y319917D01*
X603442Y319940D01*
X603532Y319968D01*
X603621Y319999D01*
X603708Y320033D01*
X603794Y320071D01*
X603879Y320113D01*
X603962Y320157D01*
X604043Y320205D01*
X604122Y320256D01*
X604199Y320310D01*
X604274Y320367D01*
X604347Y320427D01*
X604417Y320490D01*
X604484Y320556D01*
X604343Y323801D02*
X604341Y323867D01*
X604335Y323932D01*
X604326Y323997D01*
X604313Y324061D01*
X604296Y324125D01*
X604275Y324187D01*
X604251Y324248D01*
X604223Y324308D01*
X604192Y324366D01*
X604157Y324421D01*
X604120Y324475D01*
X604079Y324527D01*
X604035Y324576D01*
X603989Y324622D01*
X603940Y324666D01*
X603888Y324707D01*
X603834Y324744D01*
X603779Y324779D01*
X603721Y324810D01*
X603661Y324838D01*
X603600Y324862D01*
X603538Y324883D01*
X603474Y324900D01*
X603410Y324913D01*
X603345Y324922D01*
X603280Y324928D01*
X603214Y324930D01*
X603123Y324928D01*
X603033Y324922D01*
X602942Y324912D01*
X602852Y324899D01*
X602763Y324881D01*
X602675Y324860D01*
X602588Y324835D01*
X602502Y324807D01*
X602417Y324774D01*
X602333Y324738D01*
X602252Y324699D01*
X602172Y324656D01*
X602094Y324609D01*
X602018Y324560D01*
X601944Y324507D01*
X603778Y322813D02*
X603834Y322848D01*
X603888Y322886D01*
X603940Y322928D01*
X603989Y322972D01*
X604035Y323019D01*
X604079Y323069D01*
X604120Y323121D01*
X604157Y323175D01*
X604192Y323232D01*
X604223Y323290D01*
X604251Y323350D01*
X604275Y323412D01*
X604296Y323475D01*
X604313Y323539D01*
X604326Y323604D01*
X604335Y323669D01*
X604341Y323735D01*
X604343Y323801D01*
X602226Y321966D02*
X602170Y321931D01*
X602116Y321893D01*
X602065Y321851D01*
X602016Y321807D01*
X601969Y321760D01*
X601926Y321710D01*
X601885Y321658D01*
X601847Y321604D01*
X601813Y321548D01*
X601782Y321489D01*
X601754Y321429D01*
X601730Y321368D01*
X601709Y321305D01*
X601692Y321241D01*
X601679Y321176D01*
X601670Y321111D01*
X601664Y321045D01*
X601662Y320979D01*
X602226Y321967D02*
X603779Y322813D01*
X598153Y320979D02*
X598153Y324930D01*
X598153Y320979D02*
X598155Y320913D01*
X598161Y320848D01*
X598170Y320783D01*
X598183Y320719D01*
X598200Y320655D01*
X598221Y320593D01*
X598245Y320532D01*
X598273Y320472D01*
X598304Y320415D01*
X598339Y320359D01*
X598376Y320305D01*
X598417Y320253D01*
X598461Y320204D01*
X598507Y320158D01*
X598556Y320114D01*
X598608Y320073D01*
X598662Y320036D01*
X598718Y320001D01*
X598775Y319970D01*
X598835Y319942D01*
X598896Y319918D01*
X598958Y319897D01*
X599022Y319880D01*
X599086Y319867D01*
X599151Y319858D01*
X599216Y319852D01*
X599282Y319850D01*
X599846Y319850D01*
X595340Y322672D02*
X593647Y322672D01*
X593581Y322670D01*
X593516Y322664D01*
X593451Y322655D01*
X593387Y322642D01*
X593323Y322625D01*
X593261Y322604D01*
X593200Y322580D01*
X593140Y322552D01*
X593083Y322521D01*
X593027Y322486D01*
X592973Y322449D01*
X592921Y322408D01*
X592872Y322364D01*
X592826Y322318D01*
X592782Y322269D01*
X592741Y322217D01*
X592704Y322163D01*
X592669Y322108D01*
X592638Y322050D01*
X592610Y321990D01*
X592586Y321929D01*
X592565Y321867D01*
X592548Y321803D01*
X592535Y321739D01*
X592526Y321674D01*
X592520Y321609D01*
X592518Y321543D01*
X592518Y321261D01*
X592520Y321187D01*
X592526Y321114D01*
X592535Y321040D01*
X592549Y320968D01*
X592566Y320896D01*
X592587Y320825D01*
X592612Y320755D01*
X592640Y320687D01*
X592672Y320620D01*
X592707Y320556D01*
X592746Y320493D01*
X592787Y320432D01*
X592832Y320373D01*
X592880Y320317D01*
X592931Y320263D01*
X592985Y320212D01*
X593041Y320164D01*
X593100Y320119D01*
X593161Y320078D01*
X593224Y320039D01*
X593288Y320004D01*
X593355Y319972D01*
X593423Y319944D01*
X593493Y319919D01*
X593564Y319898D01*
X593636Y319881D01*
X593708Y319867D01*
X593782Y319858D01*
X593855Y319852D01*
X593929Y319850D01*
X594003Y319852D01*
X594076Y319858D01*
X594150Y319867D01*
X594222Y319881D01*
X594294Y319898D01*
X594365Y319919D01*
X594435Y319944D01*
X594503Y319972D01*
X594570Y320004D01*
X594635Y320039D01*
X594697Y320078D01*
X594758Y320119D01*
X594817Y320164D01*
X594873Y320212D01*
X594927Y320263D01*
X594978Y320317D01*
X595026Y320373D01*
X595071Y320432D01*
X595112Y320493D01*
X595151Y320556D01*
X595186Y320620D01*
X595218Y320687D01*
X595246Y320755D01*
X595271Y320825D01*
X595292Y320896D01*
X595309Y320968D01*
X595323Y321040D01*
X595332Y321114D01*
X595338Y321187D01*
X595340Y321261D01*
X595340Y322672D01*
X595338Y322765D01*
X595332Y322858D01*
X595323Y322951D01*
X595309Y323044D01*
X595292Y323135D01*
X595271Y323226D01*
X595246Y323316D01*
X595218Y323405D01*
X595186Y323493D01*
X595150Y323579D01*
X595111Y323664D01*
X595068Y323747D01*
X595022Y323828D01*
X594972Y323907D01*
X594920Y323984D01*
X594864Y324059D01*
X594805Y324131D01*
X594743Y324201D01*
X594679Y324269D01*
X594611Y324333D01*
X594541Y324395D01*
X594469Y324454D01*
X594394Y324510D01*
X594317Y324562D01*
X594238Y324612D01*
X594157Y324658D01*
X594074Y324701D01*
X593989Y324740D01*
X593903Y324776D01*
X593815Y324808D01*
X593726Y324836D01*
X593636Y324861D01*
X593545Y324882D01*
X593454Y324899D01*
X593361Y324913D01*
X593268Y324922D01*
X593175Y324928D01*
X593082Y324930D01*
M02*
