G04 EAGLE Gerber RS-274X export*
G75*
%MOMM*%
%FSLAX34Y34*%
%LPD*%
%INSoldermask Top*%
%IPPOS*%
%AMOC8*
5,1,8,0,0,1.08239X$1,22.5*%
G01*
%ADD10R,1.352400X1.352400*%
%ADD11R,1.752400X4.552400*%
%ADD12R,1.152400X1.552400*%
%ADD13C,1.676400*%
%ADD14R,1.676400X1.676400*%
%ADD15R,3.152400X1.352400*%
%ADD16C,0.858000*%

G36*
X542005Y509891D02*
X542005Y509891D01*
X542005Y509892D01*
X542005Y555892D01*
X542001Y555897D01*
X542000Y555897D01*
X524000Y555897D01*
X523995Y555893D01*
X523995Y555892D01*
X523995Y544707D01*
X517000Y544707D01*
X516995Y544703D01*
X516995Y544702D01*
X516995Y520702D01*
X516999Y520697D01*
X517000Y520697D01*
X523995Y520697D01*
X523995Y509892D01*
X523999Y509887D01*
X524000Y509887D01*
X542000Y509887D01*
X542005Y509891D01*
G37*
G36*
X492005Y509891D02*
X492005Y509891D01*
X492005Y509892D01*
X492005Y520697D01*
X499000Y520697D01*
X499005Y520701D01*
X499005Y520702D01*
X499005Y544702D01*
X499001Y544707D01*
X499000Y544707D01*
X492005Y544707D01*
X492005Y555892D01*
X492001Y555897D01*
X492000Y555897D01*
X474000Y555897D01*
X473995Y555893D01*
X473995Y555892D01*
X473995Y509892D01*
X473999Y509887D01*
X474000Y509887D01*
X492000Y509887D01*
X492005Y509891D01*
G37*
D10*
X579120Y531200D03*
X579120Y510200D03*
X556260Y531200D03*
X556260Y510200D03*
D11*
X483000Y532892D03*
X533000Y532892D03*
D12*
X508000Y515892D03*
D13*
X393700Y482600D03*
X393700Y457200D03*
X393700Y431800D03*
X393700Y406400D03*
X393700Y381000D03*
X393700Y355600D03*
X393700Y330200D03*
X393700Y304800D03*
X622300Y482600D03*
X622300Y457200D03*
X622300Y431800D03*
X622300Y406400D03*
X622300Y381000D03*
X622300Y355600D03*
X622300Y330200D03*
X622300Y304800D03*
D14*
X431850Y244290D03*
D13*
X431850Y269690D03*
X457250Y244290D03*
X457250Y269690D03*
X482650Y244290D03*
X482650Y269690D03*
X508050Y244290D03*
X508050Y269690D03*
X533450Y244290D03*
X533450Y269690D03*
X558850Y244290D03*
X558850Y269690D03*
X584250Y244290D03*
X584250Y269690D03*
D15*
X583000Y323700D03*
X583000Y343700D03*
X433000Y323700D03*
X583000Y363700D03*
X583000Y383700D03*
X583000Y403700D03*
X583000Y423700D03*
X583000Y443700D03*
X583000Y463700D03*
X433000Y343700D03*
X433000Y363700D03*
X433000Y383700D03*
X433000Y403700D03*
X433000Y423700D03*
X433000Y443700D03*
X433000Y463700D03*
D16*
X414020Y515620D03*
X447040Y548640D03*
X568960Y548640D03*
X601980Y515620D03*
X533400Y289560D03*
X548640Y351790D03*
X546100Y322580D03*
X553720Y332740D03*
X508050Y289560D03*
X461518Y380746D03*
X541020Y342900D03*
X487680Y289560D03*
X474980Y323850D03*
X497840Y289560D03*
X461518Y350266D03*
X508000Y360680D03*
X518160Y302260D03*
X461518Y364744D03*
X499318Y323850D03*
X475996Y350266D03*
X579120Y496062D03*
X556260Y496062D03*
X525780Y309880D03*
M02*
