G04 EAGLE Gerber RS-274X export*
G75*
%MOMM*%
%FSLAX34Y34*%
%LPD*%
%INSoldermask Bottom*%
%IPPOS*%
%AMOC8*
5,1,8,0,0,1.08239X$1,22.5*%
G01*
%ADD10R,1.652400X1.452400*%
%ADD11R,1.062400X1.372400*%
%ADD12R,1.752400X4.552400*%
%ADD13R,1.002400X0.952400*%
%ADD14R,0.400000X1.000000*%
%ADD15C,1.676400*%
%ADD16R,1.676400X1.676400*%
%ADD17C,0.858000*%


D10*
X420640Y403920D03*
X420640Y422920D03*
X443500Y403920D03*
X443500Y422920D03*
D11*
X417840Y343687D03*
X450840Y343687D03*
X417840Y313207D03*
X450840Y313207D03*
D12*
X533000Y532892D03*
X483000Y532892D03*
D13*
X427090Y330200D03*
X441590Y330200D03*
D14*
X434340Y330200D03*
D13*
X427090Y299720D03*
X441590Y299720D03*
D14*
X434340Y299720D03*
D15*
X393700Y482600D03*
X393700Y457200D03*
X393700Y431800D03*
X393700Y406400D03*
X393700Y381000D03*
X393700Y355600D03*
X393700Y330200D03*
X393700Y304800D03*
X622300Y482600D03*
X622300Y457200D03*
X622300Y431800D03*
X622300Y406400D03*
X622300Y381000D03*
X622300Y355600D03*
X622300Y330200D03*
X622300Y304800D03*
D16*
X431850Y244290D03*
D15*
X431850Y269690D03*
X457250Y244290D03*
X457250Y269690D03*
X482650Y244290D03*
X482650Y269690D03*
X508050Y244290D03*
X508050Y269690D03*
X533450Y244290D03*
X533450Y269690D03*
X558850Y244290D03*
X558850Y269690D03*
X584250Y244290D03*
X584250Y269690D03*
D13*
X427090Y360680D03*
X441590Y360680D03*
D14*
X434340Y360680D03*
D11*
X417840Y374167D03*
X450840Y374167D03*
D10*
X472440Y422920D03*
X472440Y403920D03*
X556260Y481940D03*
X556260Y462940D03*
X579120Y481940D03*
X579120Y462940D03*
D13*
X566790Y309880D03*
X581290Y309880D03*
D14*
X574040Y309880D03*
D13*
X566790Y335280D03*
X581290Y335280D03*
D14*
X574040Y335280D03*
D13*
X581290Y322580D03*
X566790Y322580D03*
D14*
X574040Y322580D03*
D17*
X414020Y515620D03*
X447040Y548640D03*
X568960Y548640D03*
X601980Y515620D03*
X533400Y289560D03*
X548640Y351790D03*
X546100Y322580D03*
X553720Y332740D03*
X508050Y289560D03*
X461518Y380746D03*
X541020Y342900D03*
X487680Y289560D03*
X474980Y323850D03*
X497840Y289560D03*
X461518Y350266D03*
X508000Y360680D03*
X518160Y302260D03*
X461518Y364744D03*
X499318Y323850D03*
X475996Y350266D03*
X579120Y496062D03*
X556260Y496062D03*
X525780Y309880D03*
M02*
