<svg version="1.1" xmlns="http://www.w3.org/2000/svg" xmlns:xlink="http://www.w3.org/1999/xlink" stroke-linecap="round" stroke-linejoin="round" stroke-width="0" fill-rule="evenodd" width="87.164mm" height="54.475mm" viewBox="6175 12375 87164 54475" id="QwZGEaQiWeUDQ0ujr086"><defs><circle cx="0" cy="0" r="875" id="QwZGEaQiWeUDQ0ujr086_pad-1"/><circle cx="0" cy="0" r="635" id="QwZGEaQiWeUDQ0ujr086_pad-2"/><circle cx="0" cy="0" r="500" id="QwZGEaQiWeUDQ0ujr086_pad-3"/><circle cx="0" cy="0" r="375" id="QwZGEaQiWeUDQ0ujr086_pad-4"/><circle cx="0" cy="0" r="325" id="QwZGEaQiWeUDQ0ujr086_pad-5"/><circle cx="0" cy="0" r="305" id="QwZGEaQiWeUDQ0ujr086_pad-6"/><circle cx="0" cy="0" r="275" id="QwZGEaQiWeUDQ0ujr086_pad-7"/><circle cx="0" cy="0" r="210" id="QwZGEaQiWeUDQ0ujr086_pad-8"/><circle cx="0" cy="0" r="175" id="QwZGEaQiWeUDQ0ujr086_pad-9"/><circle cx="0" cy="0" r="150" id="QwZGEaQiWeUDQ0ujr086_pad-10"/></defs><g transform="translate(0,79225) scale(1,-1)" fill="currentColor" stroke="currentColor"><use xlink:href="#QwZGEaQiWeUDQ0ujr086_pad-1" x="13530" y="50800"/><use xlink:href="#QwZGEaQiWeUDQ0ujr086_pad-1" x="85530" y="50800"/><use xlink:href="#QwZGEaQiWeUDQ0ujr086_pad-2" x="59690" y="13208"/><use xlink:href="#QwZGEaQiWeUDQ0ujr086_pad-2" x="52070" y="13208"/><use xlink:href="#QwZGEaQiWeUDQ0ujr086_pad-3" x="59690" y="30480"/><use xlink:href="#QwZGEaQiWeUDQ0ujr086_pad-3" x="24130" y="30480"/><use xlink:href="#QwZGEaQiWeUDQ0ujr086_pad-3" x="26670" y="30480"/><use xlink:href="#QwZGEaQiWeUDQ0ujr086_pad-3" x="29210" y="30480"/><use xlink:href="#QwZGEaQiWeUDQ0ujr086_pad-3" x="31750" y="30480"/><use xlink:href="#QwZGEaQiWeUDQ0ujr086_pad-3" x="57150" y="30480"/><use xlink:href="#QwZGEaQiWeUDQ0ujr086_pad-3" x="54610" y="30480"/><use xlink:href="#QwZGEaQiWeUDQ0ujr086_pad-3" x="52070" y="40640"/><use xlink:href="#QwZGEaQiWeUDQ0ujr086_pad-3" x="54610" y="40640"/><use xlink:href="#QwZGEaQiWeUDQ0ujr086_pad-3" x="57150" y="40640"/><use xlink:href="#QwZGEaQiWeUDQ0ujr086_pad-3" x="59690" y="40640"/><use xlink:href="#QwZGEaQiWeUDQ0ujr086_pad-3" x="62230" y="40640"/><use xlink:href="#QwZGEaQiWeUDQ0ujr086_pad-3" x="64770" y="40640"/><use xlink:href="#QwZGEaQiWeUDQ0ujr086_pad-3" x="35560" y="40640"/><use xlink:href="#QwZGEaQiWeUDQ0ujr086_pad-3" x="33020" y="40640"/><use xlink:href="#QwZGEaQiWeUDQ0ujr086_pad-3" x="30480" y="40640"/><use xlink:href="#QwZGEaQiWeUDQ0ujr086_pad-3" x="27940" y="40640"/><use xlink:href="#QwZGEaQiWeUDQ0ujr086_pad-3" x="12319" y="38735"/><use xlink:href="#QwZGEaQiWeUDQ0ujr086_pad-3" x="12319" y="19685"/><use xlink:href="#QwZGEaQiWeUDQ0ujr086_pad-3" x="73660" y="36830"/><use xlink:href="#QwZGEaQiWeUDQ0ujr086_pad-3" x="76200" y="36830"/><use xlink:href="#QwZGEaQiWeUDQ0ujr086_pad-3" x="73660" y="34290"/><use xlink:href="#QwZGEaQiWeUDQ0ujr086_pad-3" x="76200" y="34290"/><use xlink:href="#QwZGEaQiWeUDQ0ujr086_pad-3" x="73660" y="31750"/><use xlink:href="#QwZGEaQiWeUDQ0ujr086_pad-3" x="76200" y="31750"/><use xlink:href="#QwZGEaQiWeUDQ0ujr086_pad-3" x="73660" y="29210"/><use xlink:href="#QwZGEaQiWeUDQ0ujr086_pad-3" x="76200" y="29210"/><use xlink:href="#QwZGEaQiWeUDQ0ujr086_pad-3" x="73660" y="26670"/><use xlink:href="#QwZGEaQiWeUDQ0ujr086_pad-3" x="76200" y="26670"/><use xlink:href="#QwZGEaQiWeUDQ0ujr086_pad-3" x="76200" y="24130"/><use xlink:href="#QwZGEaQiWeUDQ0ujr086_pad-3" x="73660" y="21590"/><use xlink:href="#QwZGEaQiWeUDQ0ujr086_pad-3" x="76200" y="21590"/><use xlink:href="#QwZGEaQiWeUDQ0ujr086_pad-3" x="38100" y="26670"/><use xlink:href="#QwZGEaQiWeUDQ0ujr086_pad-3" x="35560" y="26670"/><use xlink:href="#QwZGEaQiWeUDQ0ujr086_pad-3" x="33020" y="26670"/><use xlink:href="#QwZGEaQiWeUDQ0ujr086_pad-3" x="30480" y="26670"/><use xlink:href="#QwZGEaQiWeUDQ0ujr086_pad-3" x="27940" y="26670"/><use xlink:href="#QwZGEaQiWeUDQ0ujr086_pad-3" x="25400" y="26670"/><use xlink:href="#QwZGEaQiWeUDQ0ujr086_pad-3" x="22860" y="26670"/><use xlink:href="#QwZGEaQiWeUDQ0ujr086_pad-3" x="20320" y="26670"/><use xlink:href="#QwZGEaQiWeUDQ0ujr086_pad-3" x="77470" y="58420"/><use xlink:href="#QwZGEaQiWeUDQ0ujr086_pad-3" x="21590" y="58420"/><use xlink:href="#QwZGEaQiWeUDQ0ujr086_pad-3" x="69850" y="21590"/><use xlink:href="#QwZGEaQiWeUDQ0ujr086_pad-3" x="67310" y="21590"/><use xlink:href="#QwZGEaQiWeUDQ0ujr086_pad-3" x="52070" y="30480"/><use xlink:href="#QwZGEaQiWeUDQ0ujr086_pad-3" x="73660" y="24130"/><use xlink:href="#QwZGEaQiWeUDQ0ujr086_pad-3" x="62865" y="35814"/><use xlink:href="#QwZGEaQiWeUDQ0ujr086_pad-3" x="48895" y="35814"/><use xlink:href="#QwZGEaQiWeUDQ0ujr086_pad-3" x="59690" y="35814"/><use xlink:href="#QwZGEaQiWeUDQ0ujr086_pad-3" x="52070" y="35814"/><use xlink:href="#QwZGEaQiWeUDQ0ujr086_pad-3" x="62865" y="12954"/><use xlink:href="#QwZGEaQiWeUDQ0ujr086_pad-3" x="48895" y="12954"/><use xlink:href="#QwZGEaQiWeUDQ0ujr086_pad-4" x="31035" y="20320"/><use xlink:href="#QwZGEaQiWeUDQ0ujr086_pad-4" x="29035" y="20320"/><use xlink:href="#QwZGEaQiWeUDQ0ujr086_pad-4" x="21035" y="20320"/><use xlink:href="#QwZGEaQiWeUDQ0ujr086_pad-4" x="79232" y="66040"/><use xlink:href="#QwZGEaQiWeUDQ0ujr086_pad-4" x="77232" y="66040"/><use xlink:href="#QwZGEaQiWeUDQ0ujr086_pad-4" x="43180" y="12970"/><use xlink:href="#QwZGEaQiWeUDQ0ujr086_pad-4" x="43180" y="14970"/><use xlink:href="#QwZGEaQiWeUDQ0ujr086_pad-4" x="25035" y="20320"/><use xlink:href="#QwZGEaQiWeUDQ0ujr086_pad-4" x="27035" y="20320"/><use xlink:href="#QwZGEaQiWeUDQ0ujr086_pad-4" x="23035" y="20320"/><use xlink:href="#QwZGEaQiWeUDQ0ujr086_pad-4" x="92964" y="52340"/><use xlink:href="#QwZGEaQiWeUDQ0ujr086_pad-4" x="92964" y="54340"/><use xlink:href="#QwZGEaQiWeUDQ0ujr086_pad-4" x="11597" y="53164"/><use xlink:href="#QwZGEaQiWeUDQ0ujr086_pad-4" x="90551" y="52340"/><use xlink:href="#QwZGEaQiWeUDQ0ujr086_pad-4" x="90551" y="54340"/><use xlink:href="#QwZGEaQiWeUDQ0ujr086_pad-4" x="17780" y="24400"/><use xlink:href="#QwZGEaQiWeUDQ0ujr086_pad-4" x="17780" y="26400"/><use xlink:href="#QwZGEaQiWeUDQ0ujr086_pad-4" x="45720" y="30766"/><use xlink:href="#QwZGEaQiWeUDQ0ujr086_pad-4" x="45720" y="34766"/><use xlink:href="#QwZGEaQiWeUDQ0ujr086_pad-4" x="14097" y="53164"/><use xlink:href="#QwZGEaQiWeUDQ0ujr086_pad-4" x="16597" y="53164"/><use xlink:href="#QwZGEaQiWeUDQ0ujr086_pad-4" x="16597" y="56564"/><use xlink:href="#QwZGEaQiWeUDQ0ujr086_pad-4" x="14097" y="56564"/><use xlink:href="#QwZGEaQiWeUDQ0ujr086_pad-4" x="11597" y="56564"/><use xlink:href="#QwZGEaQiWeUDQ0ujr086_pad-4" x="77105" y="18034"/><use xlink:href="#QwZGEaQiWeUDQ0ujr086_pad-4" x="79105" y="18034"/><use xlink:href="#QwZGEaQiWeUDQ0ujr086_pad-4" x="23320" y="46990"/><use xlink:href="#QwZGEaQiWeUDQ0ujr086_pad-4" x="19320" y="46990"/><use xlink:href="#QwZGEaQiWeUDQ0ujr086_pad-4" x="17320" y="46990"/><use xlink:href="#QwZGEaQiWeUDQ0ujr086_pad-4" x="21320" y="46990"/><use xlink:href="#QwZGEaQiWeUDQ0ujr086_pad-4" x="29020" y="46990"/><use xlink:href="#QwZGEaQiWeUDQ0ujr086_pad-4" x="37020" y="46990"/><use xlink:href="#QwZGEaQiWeUDQ0ujr086_pad-4" x="33020" y="46990"/><use xlink:href="#QwZGEaQiWeUDQ0ujr086_pad-4" x="31020" y="46990"/><use xlink:href="#QwZGEaQiWeUDQ0ujr086_pad-4" x="35020" y="46990"/><use xlink:href="#QwZGEaQiWeUDQ0ujr086_pad-4" x="45720" y="32766"/><use xlink:href="#QwZGEaQiWeUDQ0ujr086_pad-5" x="58420" y="15748"/><use xlink:href="#QwZGEaQiWeUDQ0ujr086_pad-5" x="53340" y="15748"/><use xlink:href="#QwZGEaQiWeUDQ0ujr086_pad-5" x="79756" y="12700"/><use xlink:href="#QwZGEaQiWeUDQ0ujr086_pad-5" x="74676" y="12700"/><use xlink:href="#QwZGEaQiWeUDQ0ujr086_pad-5" x="77216" y="12700"/><use xlink:href="#QwZGEaQiWeUDQ0ujr086_pad-6" x="63500" y="62357"/><use xlink:href="#QwZGEaQiWeUDQ0ujr086_pad-6" x="60960" y="64897"/><use xlink:href="#QwZGEaQiWeUDQ0ujr086_pad-6" x="58420" y="62357"/><use xlink:href="#QwZGEaQiWeUDQ0ujr086_pad-6" x="7620" y="54610"/><use xlink:href="#QwZGEaQiWeUDQ0ujr086_pad-6" x="7620" y="52070"/><use xlink:href="#QwZGEaQiWeUDQ0ujr086_pad-6" x="7620" y="49530"/><use xlink:href="#QwZGEaQiWeUDQ0ujr086_pad-7" x="91938" y="46990"/><use xlink:href="#QwZGEaQiWeUDQ0ujr086_pad-7" x="90688" y="46990"/><use xlink:href="#QwZGEaQiWeUDQ0ujr086_pad-7" x="43180" y="18542"/><use xlink:href="#QwZGEaQiWeUDQ0ujr086_pad-7" x="44450" y="19812"/><use xlink:href="#QwZGEaQiWeUDQ0ujr086_pad-7" x="43180" y="21082"/><use xlink:href="#QwZGEaQiWeUDQ0ujr086_pad-7" x="43180" y="24384"/><use xlink:href="#QwZGEaQiWeUDQ0ujr086_pad-7" x="44450" y="25654"/><use xlink:href="#QwZGEaQiWeUDQ0ujr086_pad-7" x="43180" y="26924"/><use xlink:href="#QwZGEaQiWeUDQ0ujr086_pad-8" x="17597" y="55864"/><use xlink:href="#QwZGEaQiWeUDQ0ujr086_pad-8" x="17597" y="53864"/><use xlink:href="#QwZGEaQiWeUDQ0ujr086_pad-8" x="10597" y="55864"/><use xlink:href="#QwZGEaQiWeUDQ0ujr086_pad-8" x="10597" y="53864"/><use xlink:href="#QwZGEaQiWeUDQ0ujr086_pad-9" x="8890" y="46355"/><use xlink:href="#QwZGEaQiWeUDQ0ujr086_pad-9" x="38735" y="66675"/><use xlink:href="#QwZGEaQiWeUDQ0ujr086_pad-9" x="9144" y="31250"/><use xlink:href="#QwZGEaQiWeUDQ0ujr086_pad-9" x="80518" y="47117"/><use xlink:href="#QwZGEaQiWeUDQ0ujr086_pad-9" x="31750" y="62611"/><use xlink:href="#QwZGEaQiWeUDQ0ujr086_pad-9" x="69215" y="34290"/><use xlink:href="#QwZGEaQiWeUDQ0ujr086_pad-9" x="46990" y="39055"/><use xlink:href="#QwZGEaQiWeUDQ0ujr086_pad-9" x="81915" y="57785"/><use xlink:href="#QwZGEaQiWeUDQ0ujr086_pad-9" x="69850" y="57785"/><use xlink:href="#QwZGEaQiWeUDQ0ujr086_pad-9" x="53340" y="18100"/><use xlink:href="#QwZGEaQiWeUDQ0ujr086_pad-9" x="62230" y="66040"/><use xlink:href="#QwZGEaQiWeUDQ0ujr086_pad-9" x="22860" y="62230"/><use xlink:href="#QwZGEaQiWeUDQ0ujr086_pad-9" x="37465" y="58420"/><use xlink:href="#QwZGEaQiWeUDQ0ujr086_pad-9" x="48514" y="62230"/><use xlink:href="#QwZGEaQiWeUDQ0ujr086_pad-9" x="47244" y="66675"/><use xlink:href="#QwZGEaQiWeUDQ0ujr086_pad-9" x="64770" y="60960"/><use xlink:href="#QwZGEaQiWeUDQ0ujr086_pad-9" x="64770" y="58420"/><use xlink:href="#QwZGEaQiWeUDQ0ujr086_pad-9" x="59690" y="63500"/><use xlink:href="#QwZGEaQiWeUDQ0ujr086_pad-9" x="24130" y="64770"/><use xlink:href="#QwZGEaQiWeUDQ0ujr086_pad-9" x="77724" y="46990"/><use xlink:href="#QwZGEaQiWeUDQ0ujr086_pad-9" x="60960" y="60960"/><use xlink:href="#QwZGEaQiWeUDQ0ujr086_pad-9" x="57150" y="65405"/><use xlink:href="#QwZGEaQiWeUDQ0ujr086_pad-9" x="87173" y="25654"/><use xlink:href="#QwZGEaQiWeUDQ0ujr086_pad-9" x="88595" y="33274"/><use xlink:href="#QwZGEaQiWeUDQ0ujr086_pad-9" x="87173" y="33274"/><use xlink:href="#QwZGEaQiWeUDQ0ujr086_pad-9" x="88595" y="28194"/><use xlink:href="#QwZGEaQiWeUDQ0ujr086_pad-9" x="88595" y="30734"/><use xlink:href="#QwZGEaQiWeUDQ0ujr086_pad-9" x="64770" y="63500"/><use xlink:href="#QwZGEaQiWeUDQ0ujr086_pad-9" x="64770" y="66040"/><use xlink:href="#QwZGEaQiWeUDQ0ujr086_pad-9" x="60960" y="58420"/><use xlink:href="#QwZGEaQiWeUDQ0ujr086_pad-9" x="57150" y="58420"/><use xlink:href="#QwZGEaQiWeUDQ0ujr086_pad-9" x="85725" y="35560"/><use xlink:href="#QwZGEaQiWeUDQ0ujr086_pad-9" x="57150" y="42037"/><use xlink:href="#QwZGEaQiWeUDQ0ujr086_pad-9" x="62611" y="24130"/><use xlink:href="#QwZGEaQiWeUDQ0ujr086_pad-9" x="61430" y="24130"/><use xlink:href="#QwZGEaQiWeUDQ0ujr086_pad-9" x="80264" y="35687"/><use xlink:href="#QwZGEaQiWeUDQ0ujr086_pad-9" x="48895" y="33655"/><use xlink:href="#QwZGEaQiWeUDQ0ujr086_pad-9" x="84455" y="37084"/><use xlink:href="#QwZGEaQiWeUDQ0ujr086_pad-9" x="81280" y="49911"/><use xlink:href="#QwZGEaQiWeUDQ0ujr086_pad-9" x="37084" y="63881"/><use xlink:href="#QwZGEaQiWeUDQ0ujr086_pad-9" x="51435" y="60960"/><use xlink:href="#QwZGEaQiWeUDQ0ujr086_pad-9" x="31750" y="60071"/><use xlink:href="#QwZGEaQiWeUDQ0ujr086_pad-9" x="31750" y="61341"/><use xlink:href="#QwZGEaQiWeUDQ0ujr086_pad-9" x="69850" y="26350"/><use xlink:href="#QwZGEaQiWeUDQ0ujr086_pad-9" x="67310" y="26350"/><use xlink:href="#QwZGEaQiWeUDQ0ujr086_pad-9" x="6350" y="46355"/><use xlink:href="#QwZGEaQiWeUDQ0ujr086_pad-9" x="67310" y="54229"/><use xlink:href="#QwZGEaQiWeUDQ0ujr086_pad-9" x="81915" y="23114"/><use xlink:href="#QwZGEaQiWeUDQ0ujr086_pad-9" x="33020" y="35052"/><use xlink:href="#QwZGEaQiWeUDQ0ujr086_pad-9" x="77470" y="27940"/><use xlink:href="#QwZGEaQiWeUDQ0ujr086_pad-9" x="74930" y="46990"/><use xlink:href="#QwZGEaQiWeUDQ0ujr086_pad-9" x="52070" y="43561"/><use xlink:href="#QwZGEaQiWeUDQ0ujr086_pad-9" x="30480" y="33655"/><use xlink:href="#QwZGEaQiWeUDQ0ujr086_pad-9" x="52070" y="55880"/><use xlink:href="#QwZGEaQiWeUDQ0ujr086_pad-9" x="45720" y="49530"/><use xlink:href="#QwZGEaQiWeUDQ0ujr086_pad-9" x="63500" y="49530"/><use xlink:href="#QwZGEaQiWeUDQ0ujr086_pad-9" x="88595" y="23114"/><use xlink:href="#QwZGEaQiWeUDQ0ujr086_pad-9" x="80899" y="40767"/><use xlink:href="#QwZGEaQiWeUDQ0ujr086_pad-9" x="78994" y="27940"/><use xlink:href="#QwZGEaQiWeUDQ0ujr086_pad-9" x="59690" y="47940"/><use xlink:href="#QwZGEaQiWeUDQ0ujr086_pad-9" x="72390" y="51816"/><use xlink:href="#QwZGEaQiWeUDQ0ujr086_pad-9" x="24130" y="59690"/><use xlink:href="#QwZGEaQiWeUDQ0ujr086_pad-9" x="57150" y="24130"/><use xlink:href="#QwZGEaQiWeUDQ0ujr086_pad-9" x="52390" y="19050"/><use xlink:href="#QwZGEaQiWeUDQ0ujr086_pad-9" x="49657" y="32385"/><use xlink:href="#QwZGEaQiWeUDQ0ujr086_pad-9" x="69215" y="30480"/><use xlink:href="#QwZGEaQiWeUDQ0ujr086_pad-9" x="56515" y="33020"/><use xlink:href="#QwZGEaQiWeUDQ0ujr086_pad-9" x="48133" y="31623"/><use xlink:href="#QwZGEaQiWeUDQ0ujr086_pad-9" x="55245" y="34290"/><use xlink:href="#QwZGEaQiWeUDQ0ujr086_pad-10" x="65926" y="13081"/><use xlink:href="#QwZGEaQiWeUDQ0ujr086_pad-10" x="15748" y="38740"/></g></svg>