<svg version="1.1" xmlns="http://www.w3.org/2000/svg" xmlns:xlink="http://www.w3.org/1999/xlink" stroke-linecap="round" stroke-linejoin="round" stroke-width="0" fill-rule="evenodd" width="89mm" height="57mm" viewBox="5030.1 10877.8 89000 57000" id="KtUVQw6YB7LfsFjNIlmB"><g transform="translate(0,78755.6) scale(1,-1)" fill="currentColor" stroke="currentColor"><path d="M 5030.1 20179.6 5033.4 20146.8 5039.9 20114.6 5046.5 20082.7 5056.3 20051.6 5068.9 20022.5 5081.1 19993 5096.4 19965.3 5114.2 19939.3 5132.2 19912.9 5152.4 19888.8 5174.8 19866.4 5197 19844.5 5221.5 19824.2 5248 19806.4 5274.4 19788.9 5302.3 19773.7 5331.9 19761.5 5361.5 19748.9 5392.5 19739.1 5424.9 19732.7 5456.9 19726.3 5490.4 19722.9 6565.6 19722.9 7098.7 19667.8 7613.8 19563.1 8128.6 19458.1 8625.2 19303.8 9098.4 19105 9571.8 18905.9 10021.4 18662.5 10442.5 18379.8 10863.2 18097.3 11255.4 17775.4 11613.3 17419.9 11971.1 17064.2 12295.1 16674.5 12579.2 16256.3 12863.7 15837.7 13108.7 15390.9 13308.7 14920.6 13509 14450.4 13664.4 13956.7 13769.6 13445.1 13875.2 12933.1 13930.3 12403.3 13930.3 11334.6 13933.8 11301.9 13940.7 11269.8 13947 11237.8 13956.7 11206.8 13969.3 11177.5 13981.8 11148.2 13997.2 11120 14014.9 11094.1 14032.7 11068 14053 11043.5 14075.2 11021.1 14097.6 10999.1 14122.2 10979.1 14148.4 10961.2 14174.6 10943.6 14203 10928.4 14232.6 10916.4 14262.3 10903.6 14293.3 10894 14325.3 10887.4 14357.7 10881.2 14390.6 10877.8 84669.4 10877.8 84702.8 10881.2 84735.2 10887.4 84767.6 10894 84798.6 10903.6 84828.2 10916.4 84857.8 10928.4 84886.1 10943.6 84912.3 10961.2 84938.8 10979.4 84963.3 10999.1 84985.7 11021.4 85008 11043.5 85028.4 11068 85045.9 11094.5 85063.5 11120.3 85079 11148.2 85091.4 11177.5 85103.8 11207.1 85113.8 11237.8 85120.4 11270.2 85126.6 11301.9 85130 11335 85130 12403.3 85185.5 12933.1 85290.9 13445.1 85396.3 13957 85552 14450.7 85951.7 15391.2 86196.9 15838 86481.2 16256.6 86765.7 16674.9 87089.6 17064.5 87447.5 17419.9 87805.1 17775.7 88197.2 18097.3 88618.5 18380.2 89039.2 18662.5 89488.7 18905.9 89962.1 19105 90435.1 19303.8 90932.2 19458.1 91446.9 19563.1 91962.3 19667.8 92495.3 19722.9 93570.1 19722.9 93603.6 19726.3 93635.9 19732.7 93668 19739.1 93699 19748.9 93728.6 19761.5 93758.3 19773.7 93786.2 19788.9 93812.7 19806.8 93838.9 19824.5 93863.3 19844.5 93885.7 19866.7 93908.1 19889.1 93928.1 19913.6 93946 19939.6 93963.6 19965.6 93979.1 19993.7 93991.1 20023.1 94003.9 20052.3 94013.9 20083.4 94020.1 20115.3 94026.6 20147.5 94030.1 20180.2 94030.1 58575.9 94026.6 58608.9 94020.1 58641.1 94013.9 58673 94003.9 58703.8 93991.1 58733.3 93979.1 58762.8 93963.6 58790.5 93946 58816.8 93928.1 58842.9 93908.1 58867 93885.7 58889.4 93863.3 58911.6 93838.9 58931.6 93812.7 58949.3 93786.2 58966.9 93758.3 58982 93728.6 58994.3 93699 59006.8 93668 59016.7 93635.9 59023 93603.6 59029.4 93570.1 59032.8 92495.3 59032.8 91962.3 59087.8 91446.9 59192.7 90932.2 59297.3 90435.1 59451.9 89962.1 59650.7 89488.7 59849.5 89039.2 60093.2 88618.5 60375.6 88197.2 60658.4 87805.1 60980.4 87447.5 61335.9 87089.6 61691.3 86765.7 62081.1 86481.2 62499.5 86196.9 62917.7 85951.7 63364.5 85552 64305.1 85396.3 64799.1 85290.9 65310.7 85185.5 65822.6 85130 66352.5 85130 67420.6 85126.6 67453.9 85120.4 67485.9 85113.8 67517.8 85103.8 67548.6 85091.4 67578.1 85079 67607.5 85063.5 67635.3 85045.9 67661.8 85028.4 67687.8 85008 67711.9 84985.7 67734.1 84963.3 67756.5 84938.8 67776.5 84912.3 67794.1 84886.1 67811.6 84857.8 67827 84828.2 67839.2 84798.6 67851.6 84767.6 67861.4 84735.2 67868 84702.8 67874.3 84669.4 67877.8 14390.9 67877.8 14357.7 67874.3 14325.7 67868 14293.3 67861.4 14262.3 67851.6 14232.6 67839.2 14203 67827 14174.9 67811.6 14148.4 67794.1 14122.2 67776.5 14097.6 67756.5 14053 67711.9 14032.7 67687.8 14014.9 67661.8 13997.2 67635.3 13981.8 67607.5 13969.3 67578.1 13956.7 67548.6 13947 67517.8 13940.7 67485.9 13933.8 67453.9 13930.3 67420.6 13930.3 66352.5 13875.2 65822.6 13769.6 65310.7 13664.4 64799.1 13509 64305.1 13308.7 63834.8 13108.7 63364.5 12863.7 62917.7 12579.2 62499.5 12295.1 62081.1 11971.1 61691.3 11613.3 61335.9 11255.4 60980.4 10863.2 60658.4 10442.5 60375.6 10021.4 60093.2 9571.8 59849.5 9098.4 59650.7 8625.2 59451.9 8128.6 59297.3 7613.8 59192.7 7098.7 59087.8 6565.6 59032.8 5490.4 59032.8 5456.9 59029.4 5424.9 59023 5392.5 59016.7 5361.5 59006.8 5331.9 58994.3 5302.3 58982 5274.4 58966.9 5248 58949.3 5221.5 58931.6 5197 58911.6 5174.8 58889.4 5152.4 58867 5132.2 58842.9 5114.2 58816.8 5096.4 58790.5 5081.1 58762.8 5068.9 58733.3 5056.3 58703.8 5046.5 58673 5039.9 58641.1 5033.4 58608.9 5030.1 58575.9 5030.1 20179.6 M 87834.7 39274.4 87845.8 39173.4 87865.4 39075.4 87885.4 38977.9 87914.7 38883.7 87952.6 38793.9 87990.8 38704.2 88037.3 38619.1 88091.1 38539.2 88144.8 38459.4 88206.8 38385 88274.3 38317.1 88342.2 38248.9 88416.6 38187.8 88496.2 38134 88576.1 38079.9 88661.6 38033.6 88751.5 37995.5 88841.4 37957.5 88935.5 37928.2 89033 37907.9 89130.8 37888 89232.1 37877.7 89639.3 37877.7 89739.9 37888 89837.7 37907.9 89935.2 37928.2 90029.3 37957.5 90119.2 37995.5 90208.8 38033.6 90294.2 38079.9 90373.8 38134 90453.7 38187.8 90528.1 38248.9 90596 38317.1 90663.5 38385 90725.2 38459.4 90778.9 38539.2 90833 38619.1 90879.5 38704.2 90917.4 38793.9 90955.7 38883.7 90984.9 38977.9 91005.3 39075.4 91024.9 39173.4 91035.2 39274.4 91035.2 39481.4 91024.9 39582.3 91005.3 39680 90984.9 39777.5 90955.7 39871.7 90917.4 39961.5 90879.5 40051.2 90833 40136.3 90778.9 40216.2 90725.2 40296 90663.5 40370.4 90596 40438.3 90528.1 40506 90453.7 40567.1 90373.8 40621.4 90294.2 40675.5 90208.8 40721.8 90119.2 40759.9 90029.3 40797.9 89935.2 40827.2 89837.7 40847.6 89739.9 40867.4 89639.3 40877.7 89232.1 40877.7 89130.8 40867.4 89033 40847.6 88935.5 40827.2 88841.4 40797.9 88751.5 40759.9 88661.6 40721.8 88576.1 40675.5 88496.2 40621.4 88416.6 40567.1 88342.2 40506 88274.3 40438.3 88206.8 40370.4 88144.8 40296 88091.1 40216.2 88037.3 40136.3 87990.8 40051.2 87952.6 39961.5 87914.7 39871.7 87885.4 39777.5 87865.4 39680 87845.8 39582.3 87834.7 39481.4 87834.7 39274.4 M 83209 59288.8 83219.4 59188.2 83239.7 59090.4 83259.7 58992.7 83288.9 58898.8 83326.8 58809.3 83365.1 58719.9 83410.9 58634.4 83465.3 58554.5 83519.1 58474.4 83580.4 58400 83648.6 58332.6 83716.8 58265.1 83790.9 58203.1 83870.5 58149.4 83950.4 58095.6 84035.2 58048.6 84125.8 58010.9 84215 57973 84309.7 57943.3 84407.2 57923.4 84504.4 57903.4 84605.7 57893 84812.4 57893 84913.7 57903.4 85010.8 57923.4 85108.3 57943.3 85203 57973 85292.3 58010.9 85382.9 58048.6 85467.6 58095.6 85547.5 58149.4 85627.1 58203.1 85701.2 58265.1 85769.4 58332.6 85837.6 58400 85898.9 58474.4 85952.7 58554.5 86007.1 58634.4 86052.9 58719.9 86091.2 58809.3 86129.1 58898.8 86158.4 58992.7 86178.3 59090.4 86198.7 59188.2 86209 59288.8 86209 59495.4 86198.7 59596.6 86178.3 59694.7 86158.4 59791.8 86129.1 59886.9 86091.2 59976.5 86052.9 60065.9 86007.1 60151.5 85952.7 60231.2 85898.9 60311.3 85837.6 60385.7 85769.4 60453.1 85701.2 60520.6 85627.1 60582.6 85547.5 60636.4 85467.6 60690.1 85382.9 60737.1 85292.3 60774.9 85203 60812.8 85108.3 60842.6 85010.8 60862.4 84913.7 60882.3 84812.4 60892.7 84605.7 60892.7 84504.4 60882.3 84407.2 60862.4 84309.7 60842.6 84215 60812.8 84125.8 60774.9 84035.2 60737.1 83950.4 60690.1 83870.5 60636.4 83790.9 60582.6 83716.8 60520.6 83648.6 60453.1 83580.4 60385.7 83519.1 60311.3 83465.3 60231.2 83410.9 60151.5 83365.1 60065.9 83326.8 59976.5 83288.9 59886.9 83259.7 59791.8 83239.7 59694.7 83219.4 59596.6 83209 59495.4 83209 59288.8 M 83209 19260.1 83219.4 19158.8 83239.7 19060.8 83259.7 18963.6 83288.9 18869.4 83326.8 18779.6 83365.1 18689.5 83410.9 18604.8 83465.3 18524.7 83519.1 18444.9 83580.4 18370.5 83648.6 18302.3 83716.8 18234.8 83790.9 18173.3 83870.5 18119 83950.4 18065.3 84035.2 18018.3 84125.8 17980.5 84215 17942.7 84309.7 17912.9 84407.2 17893 84504.4 17873.1 84605.7 17862.7 84812.4 17862.7 84913.7 17873.1 85010.8 17893 85108.3 17912.9 85203 17942.7 85292.3 17980.5 85382.9 18018.3 85467.6 18065.3 85547.5 18119 85627.1 18173.3 85701.2 18234.8 85769.4 18302.3 85837.6 18370.5 85898.9 18444.9 85952.7 18524.7 86007.1 18604.8 86052.9 18689.5 86091.2 18779.6 86129.1 18869.4 86158.4 18963.6 86178.3 19060.8 86198.7 19158.8 86209 19260.1 86209 19466.6 86198.7 19567.9 86178.3 19665 86158.4 19762.7 86129.1 19857.3 86091.2 19946.7 86052.9 20036.4 86007.1 20121.8 85952.7 20201.6 85898.9 20281 85837.6 20355.4 85769.4 20423.6 85701.2 20491 85627.1 20552.3 85547.5 20606.1 85467.6 20659.8 85382.9 20706.8 85292.3 20744.5 85203 20782.4 85108.3 20812.2 85010.8 20832.1 84913.7 20852 84812.4 20862.4 84605.7 20862.4 84504.4 20852 84407.2 20832.1 84309.7 20812.2 84215 20782.4 84125.8 20744.5 84035.2 20706.8 83950.4 20659.8 83870.5 20606.1 83790.9 20552.3 83716.8 20491 83648.6 20423.6 83580.4 20355.4 83519.1 20281 83465.3 20201.6 83410.9 20121.8 83365.1 20036.4 83326.8 19946.7 83288.9 19857.3 83259.7 19762.7 83239.7 19665 83219.4 19567.9 83209 19466.6 83209 19260.1 M 69734 16962.9 69744.7 16861.6 69764.5 16764.1 69784.3 16666.2 69814.1 16572.5 69851.9 16482.3 69889.8 16392.7 69936.1 16307.3 69990.3 16227.3 70044.1 16147.4 70105.1 16073 70173.3 16005.5 70196.9 15982 70221 15959.7 70245.8 15937.9 70249.4 15935.2 71048.9 15235.1 71049.5 15234.1 71095.7 15193.8 71144.6 15155.9 71195.8 15121.5 71275.5 15067.7 71360.8 15021.2 71450.6 14983 71540.1 14945.1 71634.5 14915.8 71731.7 14896.2 71829.9 14876.2 71930.8 14865.1 72137.5 14865.1 72238.8 14876.2 72336.3 14896.2 72434.5 14915.8 72528.5 14945.1 72618.4 14983 72708 15021.2 72792.8 15067.7 72872.7 15121.5 72952.3 15175.2 73026.7 15237.2 73094.6 15304.7 73162.4 15372.6 73224.1 15447 73278.2 15526.6 73331.9 15606.5 73378.8 15692 73416.7 15781.9 73454.2 15871.8 73484.2 15965.9 73503.8 16063.3 73523.8 16161.2 73534.5 16262.5 73534.5 16469.2 73523.8 16570.5 73503.8 16668 73484.2 16765.5 73454.2 16859.9 73416.7 16949.4 73378.8 17038.8 73331.9 17124.4 73278.2 17204.2 73224.1 17283.6 73162.4 17358 73094.6 17425.9 73071.1 17449.3 73047 17471.7 73022.2 17493.4 73021.9 17493.6 72221.2 18194.1 72221.9 18194 72174.7 18235.5 72124.4 18274.1 72072.4 18309.4 71992.5 18363.5 71907.7 18409.8 71818.1 18447.9 71728.2 18485.9 71634.2 18515.2 71536 18535.6 71438.5 18555.4 71337 18565.7 71130.3 18565.7 71029.4 18555.4 70931.2 18535.6 70834.1 18515.2 70739.7 18485.9 70650.1 18447.9 70560.3 18409.8 70475.1 18363.5 70395.3 18309.4 70315.6 18255.6 70241.5 18194 70173.3 18126.3 70105.1 18058.4 70044.1 17984 69990.3 17904.6 69936.1 17824.8 69889.8 17739.2 69851.9 17649.8 69814.1 17560.2 69784.3 17465.8 69764.5 17368.4 69744.7 17270.9 69734 17169.6 69734 16962.9 M 25525.7 62287.1 25536.4 62185.8 25556.2 62088.3 25576 61990.5 25605.8 61896.8 25643.5 61806.5 25681.4 61716.9 25727.7 61631.5 25782 61551.6 25835.7 61471.6 25896.7 61397.2 25964.9 61329.7 25988.5 61306.3 26012.6 61283.9 26037.4 61262.2 26041.1 61259.4 26840.5 60559.4 26841.2 60558.3 26887.4 60518 26936.3 60480.1 26987.4 60445.7 27067.2 60391.9 27152.5 60345.4 27242.2 60307.2 27331.8 60269.3 27426.2 60240 27523.3 60220.4 27621.5 60200.4 27722.4 60189.4 27929.2 60189.4 28030.4 60200.4 28127.9 60220.4 28226.1 60240 28320.2 60269.3 28410.1 60307.2 28499.7 60345.4 28584.4 60391.9 28664.3 60445.7 28743.9 60499.4 28818.3 60561.4 28886.2 60629 28954.1 60696.8 29015.7 60771.2 29069.8 60850.8 29123.6 60930.8 29170.4 61016.2 29208.3 61106.1 29245.9 61196 29275.8 61290.1 29295.5 61387.6 29315.5 61485.4 29326.1 61586.7 29326.1 61793.4 29315.5 61894.7 29295.5 61992.2 29275.8 62089.7 29245.9 62184.1 29208.3 62273.7 29170.4 62363.1 29123.6 62448.7 29069.8 62528.4 29015.7 62607.8 28954.1 62682.2 28862.8 62773.5 28838.7 62795.9 28813.9 62817.6 28813.5 62817.8 28012.9 63518.4 28013.6 63518.2 27966.4 63559.7 27916.1 63598.3 27864 63633.6 27784.1 63687.7 27699.4 63734 27609.8 63772.1 27519.9 63810.2 27425.8 63839.4 27327.6 63859.8 27230.1 63879.6 27128.7 63889.9 26922 63889.9 26821 63879.6 26722.8 63859.8 26625.7 63839.4 26531.3 63810.2 26441.7 63772.1 26352 63734 26266.7 63687.7 26187 63633.6 26107.2 63579.9 26033.1 63518.2 25964.9 63450.5 25896.7 63382.6 25835.7 63308.2 25782 63228.8 25727.7 63149.1 25681.4 63063.4 25643.5 62974 25605.8 62884.5 25576 62790.1 25556.2 62692.6 25536.4 62595.1 25525.7 62493.8 25525.7 62287.1 M 8024.9 39274.4 8035.6 39173.4 8055.4 39075.4 8075.4 38977.9 8104.7 38883.7 8142.7 38793.9 8180.8 38704.2 8227.5 38619.1 8281.2 38539.2 8335 38459.4 8396.7 38385 8464.3 38317.1 8532.2 38248.9 8606.6 38187.8 8686.4 38134 8766.1 38079.9 8851.7 38033.6 8941.5 37995.5 9031.2 37957.5 9125.5 37928.2 9223.1 37907.9 9320.6 37888 9421.9 37877.7 9829.3 37877.7 9929.9 37888 10027.7 37907.9 10125.2 37928.2 10219.3 37957.5 10309.2 37995.5 10398.8 38033.6 10484.2 38079.9 10563.8 38134 10643.7 38187.8 10718.1 38248.9 10786 38317.1 10853.5 38385 10915.2 38459.4 10968.9 38539.2 11023 38619.1 11069.5 38704.2 11107.4 38793.9 11145.7 38883.7 11175 38977.9 11195.3 39075.4 11214.9 39173.4 11225.2 39274.4 11225.2 39481.4 11214.9 39582.3 11195.3 39680 11175 39777.5 11145.7 39871.7 11107.4 39961.5 11069.5 40051.2 11023 40136.3 10968.9 40216.2 10915.2 40296 10853.5 40370.4 10786 40438.3 10718.1 40506 10643.7 40567.1 10563.8 40621.4 10484.2 40675.5 10398.8 40721.8 10309.2 40759.9 10219.3 40797.9 10125.2 40827.2 10027.7 40847.6 9929.9 40867.4 9829.3 40877.7 9421.9 40877.7 9320.6 40867.4 9223.1 40847.6 9125.5 40827.2 9031.2 40797.9 8941.5 40759.9 8851.7 40721.8 8766.1 40675.5 8686.4 40621.4 8606.6 40567.1 8532.2 40506 8464.3 40438.3 8396.7 40370.4 8335 40296 8281.2 40216.2 8227.5 40136.3 8180.8 40051.2 8104.7 39871.7 8075.4 39777.5 8055.4 39680 8035.6 39582.3 8024.9 39481.4 8024.9 39274.4 M 25525.8 16261.4 25536.5 16160.2 25576.1 15965.2 25605.9 15870.8 25643.7 15781.2 25681.6 15692 25727.9 15606.2 25782.2 15526.6 25835.9 15447 25896.9 15372.6 25965.1 15304.7 26033.3 15237.2 26107.4 15175.2 26187.1 15121.5 26266.9 15067.7 26352.2 15021.2 26441.9 14983 26531.5 14945.1 26625.9 14915.8 26723 14895.5 26821.2 14875.5 26922.1 14865.1 27128.9 14865.1 27230.3 14875.5 27327.8 14895.5 27426 14915.8 27520 14945.1 27610 14983 27699.5 15021.2 27784.3 15067.7 27864.2 15121.5 27916.2 15156.9 27966.5 15195.5 28013.7 15237.2 28013 15236.9 28813.7 15937.3 28814 15937.6 28838.8 15959.3 28862.9 15981.7 28886.4 16005.1 28954.2 16073 29015.9 16147.4 29070 16226.6 29123.7 16306.6 29170.6 16392 29208.5 16481.6 29246 16571.2 29276 16665.6 29295.6 16763 29315.6 16860.5 29326.3 16961.8 29326.3 17168.5 29315.6 17269.8 29295.6 17367.7 29276 17465.2 29246 17559.2 29208.5 17649.1 29170.6 17739 29123.7 17824.5 29070 17904.4 29015.9 17984 28954.2 18058.4 28886.4 18126.3 28818.5 18193.8 28744.1 18255.8 28664.5 18309.6 28584.6 18363.3 28499.8 18409.8 28410.3 18448 28320.3 18485.9 28226.3 18515.2 28128.1 18534.9 28030.6 18554.8 27929.3 18565.9 27722.6 18565.9 27621.7 18554.8 27523.5 18534.9 27426.3 18515.2 27331.9 18485.9 27242.4 18448 27152.6 18409.8 27067.4 18363.3 26987.6 18309.6 26936.4 18275.1 26887.5 18237.2 26841.4 18196.9 26840.7 18195.9 26041.2 17495.8 26037.6 17493.1 26012.8 17471.4 25988.7 17449 25965.1 17425.5 25896.9 17358 25835.9 17283.6 25782.2 17203.7 25727.9 17123.8 25681.6 17038.3 25643.7 16948.7 25605.9 16858.5 25576.1 16764.8 25556.3 16666.9 25536.5 16569.4 25525.8 16468.1 25525.8 16261.4 M 69733.9 61587 69744.5 61485.8 69764.5 61387.9 69784.2 61290.4 69814.1 61196.4 69851.7 61106.5 69889.6 61016.5 69936.4 60931.1 69990.2 60851.2 70044.3 60771.6 70105.9 60697.2 70173.8 60629.3 70241.7 60561.8 70316.1 60499.8 70395.7 60446 70475.6 60392.3 70560.3 60345.8 70649.9 60307.5 70739.8 60269.6 70833.9 60240.4 70932.1 60220.7 71029.6 60200.7 71130.8 60189.7 71337.6 60189.7 71438.5 60200.7 71536.7 60220.7 71633.8 60240.4 71728.2 60269.6 71817.8 60307.5 71907.4 60345.8 71992.8 60392.3 72072.7 60446 72123.7 60480.5 72172.6 60518.4 72218.8 60558.7 72219.5 60559.7 73018.8 61259.8 73022.6 61262.5 73047.4 61284.2 73071.5 61306.6 73095.2 61330 73163.5 61397.6 73224.1 61472 73277.8 61551.9 73332.3 61631.8 73378.4 61717.3 73416.3 61806.8 73454.2 61897.1 73483.8 61990.8 73503.8 62088.6 73523.8 62186.1 73534.1 62287.4 73534.1 62494.1 73523.8 62595.4 73503.8 62692.9 73483.8 62790.4 73454.2 62884.8 73416.3 62974.4 73378.4 63063.8 73332.3 63149.4 73277.8 63229.1 73224.1 63308.6 73163.5 63383 73095.2 63450.8 73027 63518.5 72952.6 63580.2 72873 63633.9 72793.5 63688 72708 63734.4 72618.4 63772.4 72528.9 63810.5 72434.5 63839.8 72337.3 63860.1 72238.8 63879.9 72138.2 63890.3 71931.5 63890.3 71829.9 63879.9 71732.4 63860.1 71634.2 63839.8 71540.1 63810.5 71450.2 63772.4 71360.6 63734.4 71275.9 63688 71196 63633.9 71143.9 63598.6 71093.6 63560.1 71046.4 63518.5 71047.1 63518.7 70246.5 62818.1 70246.1 62818 70221.3 62796.3 70197.2 62773.9 70173.8 62750.5 70105.9 62682.6 70044.3 62608.2 69990.2 62528.8 69936.4 62449 69889.6 62363.4 69851.7 62274 69814.1 62184.4 69784.2 62090 69764.5 61992.5 69744.5 61895 69733.9 61793.7 69733.9 61587 M 12851 59288.6 12861.3 59188.2 12881.1 59090.2 12901.1 58992.5 12930.7 58898.8 12968.8 58809.1 13006.5 58719.7 13053.6 58634.3 13107.3 58554.3 13161.6 58474.2 13223.1 58399.8 13290.6 58332.5 13358.8 58264.9 13433.2 58202.9 13512.4 58149.2 13592.4 58095.4 13677.8 58048.4 13767.2 58010.7 13857 57972.6 13951.2 57943 14049.2 57923 14147 57903.2 14247.6 57892.9 14455.2 57892.9 14556.5 57903.2 14653.6 57923 14751.3 57943 14845 57972.6 14935.3 58010.7 15024.8 58048.4 15110.5 58095.4 15190.2 58149.2 15269.6 58202.9 15344 58264.9 15412.2 58332.5 15479.6 58399.8 15540.9 58474.2 15594.7 58554.3 15648.4 58634.3 15695.4 58719.7 15733.2 58809.1 15771.2 58898.8 15800.9 58992.5 15820.8 59090.2 15840.6 59188.2 15851 59288.6 15851 59495.4 15840.6 59596.8 15820.8 59694.7 15800.9 59791.8 15771.2 59886.9 15733.2 59976.6 15695.4 60066 15648.4 60151.5 15594.7 60231.4 15540.9 60311.5 15479.6 60385.9 15412.2 60453.3 15344 60520.8 15269.6 60582.8 15190.2 60636.5 15110.5 60690.3 15024.8 60737.3 14935.3 60775 14845 60813.1 14751.3 60842.7 14653.6 60862.7 14556.5 60882.5 14455.2 60892.9 14247.6 60892.9 14147 60882.5 14049.2 60862.7 13951.2 60842.7 13857 60813.1 13767.2 60775 13677.8 60737.3 13592.4 60690.3 13512.4 60636.5 13433.2 60582.8 13358.8 60520.8 13290.6 60453.3 13223.1 60385.9 13161.6 60311.5 13107.3 60231.4 13053.6 60151.5 13006.5 60066 12968.8 59976.6 12930.7 59886.9 12901.1 59791.8 12881.1 59694.7 12861.3 59596.8 12851 59495.4 12851 59288.6 M 22791.4 65377.7 22791.4 65452.6 22784.1 65527.1 22769.5 65600.5 22747.7 65672.2 22719.1 65741.4 22683.8 65807.4 22642.2 65869.6 22594.7 65927.5 22541.8 65980.4 22483.9 66027.9 22421.6 66069.5 22355.6 66104.8 22286.4 66133.5 22214.8 66155.2 22141.4 66169.8 22066.9 66177.2 21992 66177.2 21917.5 66169.8 21844 66155.2 21772.4 66133.5 21703.2 66104.8 21637.2 66069.5 21575 66027.9 21517.1 65980.4 21464.1 65927.5 21416.6 65869.6 21375 65807.4 21339.7 65741.4 21311.1 65672.2 21289.4 65600.5 21274.8 65527.1 21267.4 65452.6 21267.4 65377.7 21274.8 65303.2 21289.4 65229.8 21311.1 65158.1 21339.7 65089 21375 65022.9 21416.6 64960.7 21464.1 64902.8 21517.1 64849.9 21575 64802.4 21637.2 64760.8 21703.2 64725.5 21772.4 64696.8 21844 64675.1 21917.5 64660.5 21992 64653.2 22066.9 64653.2 22141.4 64660.5 22214.8 64675.1 22286.4 64696.8 22355.6 64725.5 22421.6 64760.8 22483.9 64802.4 22541.8 64849.9 22594.7 64902.8 22642.2 64960.7 22683.8 65022.9 22719.1 65089 22747.7 65158.1 22769.5 65229.8 22784.1 65303.2 22791.4 65377.7 M 17018 65741.6 17018 65830.4 17010.3 65918.7 16994.9 66006.1 16971.9 66091.8 16941.6 66175.2 16904.1 66255.6 16859.7 66332.4 16808.8 66405.1 16751.8 66473.1 16689.1 66535.8 16621.1 66592.8 16548.4 66643.7 16471.6 66688.1 16391.2 66725.6 16307.8 66755.9 16222.1 66778.9 16134.7 66794.3 16046.4 66802 15957.6 66802 15869.3 66794.3 15781.9 66778.9 15696.2 66755.9 15612.8 66725.6 15532.4 66688.1 15455.6 66643.7 15382.9 66592.8 15314.9 66535.8 15252.2 66473.1 15195.2 66405.1 15144.3 66332.4 15099.9 66255.6 15062.4 66175.2 15032.1 66091.8 15009.1 66006.1 14993.7 65918.7 14986 65830.4 14986 65741.6 14993.7 65653.3 15009.1 65565.9 15032.1 65480.2 15062.4 65396.8 15099.9 65316.4 15144.3 65239.6 15195.2 65166.9 15252.2 65098.9 15314.9 65036.2 15382.9 64979.2 15455.6 64928.3 15532.4 64883.9 15612.8 64846.4 15696.2 64816.1 15781.9 64793.1 15869.3 64777.7 15957.6 64770 16046.4 64770 16134.7 64777.7 16222.1 64793.1 16307.8 64816.1 16391.2 64846.4 16471.6 64883.9 16548.4 64928.3 16621.1 64979.2 16689.1 65036.2 16751.8 65098.9 16808.8 65166.9 16859.7 65239.6 16904.1 65316.4 16941.6 65396.8 16971.9 65480.2 16994.9 65565.9 17010.3 65653.3 17018 65741.6 M 17018 12909.6 17018 12998.4 17010.3 13086.7 16994.9 13174.1 16971.9 13259.8 16941.6 13343.2 16904.1 13423.6 16859.7 13500.4 16808.8 13573.1 16751.8 13641.1 16689.1 13703.8 16621.1 13760.8 16548.4 13811.7 16471.6 13856.1 16391.2 13893.6 16307.8 13923.9 16222.1 13946.9 16134.7 13962.3 16046.4 13970 15957.6 13970 15869.3 13962.3 15781.9 13946.9 15696.2 13923.9 15612.8 13893.6 15532.4 13856.1 15455.6 13811.7 15382.9 13760.8 15314.9 13703.8 15252.2 13641.1 15195.2 13573.1 15144.3 13500.4 15099.9 13423.6 15062.4 13343.2 15032.1 13259.8 15009.1 13174.1 14993.7 13086.7 14986 12998.4 14986 12909.6 14993.7 12821.3 15009.1 12733.9 15032.1 12648.2 15062.4 12564.8 15099.9 12484.4 15144.3 12407.6 15195.2 12334.9 15252.2 12266.9 15314.9 12204.2 15382.9 12147.2 15455.6 12096.3 15532.4 12051.9 15612.8 12014.4 15696.2 11984.1 15781.9 11961.1 15869.3 11945.7 15957.6 11938 16046.4 11938 16134.7 11945.7 16222.1 11961.1 16307.8 11984.1 16391.2 12014.4 16471.6 12051.9 16548.4 12096.3 16621.1 12147.2 16689.1 12204.2 16751.8 12266.9 16808.8 12334.9 16859.7 12407.6 16904.1 12484.4 16941.6 12564.8 16971.9 12648.2 16994.9 12733.9 17010.3 12821.3 17018 12909.6 M 19558 38563.6 19558 38652.4 19550.3 38740.7 19534.9 38828.1 19511.9 38913.8 19481.6 38997.2 19444.1 39077.6 19399.7 39154.4 19348.8 39227.1 19291.8 39295.1 19229.1 39357.8 19161.1 39414.8 19088.4 39465.7 19011.6 39510.1 18931.2 39547.6 18847.8 39577.9 18762.1 39600.9 18674.7 39616.3 18586.4 39624 18497.6 39624 18409.3 39616.3 18321.9 39600.9 18236.2 39577.9 18152.8 39547.6 18072.4 39510.1 17995.6 39465.7 17922.9 39414.8 17854.9 39357.8 17792.2 39295.1 17735.2 39227.1 17684.3 39154.4 17639.9 39077.6 17602.4 38997.2 17572.1 38913.8 17549.1 38828.1 17533.7 38740.7 17526 38652.4 17526 38563.6 17533.7 38475.3 17549.1 38387.9 17572.1 38302.2 17602.4 38218.8 17639.9 38138.4 17684.3 38061.6 17735.2 37988.9 17792.2 37920.9 17854.9 37858.2 17922.9 37801.2 17995.6 37750.3 18072.4 37705.9 18152.8 37668.4 18236.2 37638.1 18321.9 37615.1 18409.3 37599.7 18497.6 37592 18586.4 37592 18674.7 37599.7 18762.1 37615.1 18847.8 37638.1 18931.2 37668.4 19011.6 37705.9 19088.4 37750.3 19161.1 37801.2 19229.1 37858.2 19291.8 37920.9 19348.8 37988.9 19399.7 38061.6 19444.1 38138.4 19481.6 38218.8 19511.9 38302.2 19534.9 38387.9 19550.3 38475.3 19558 38563.6 M 41148 38563.6 41148 38652.4 41140.3 38740.7 41124.9 38828.1 41101.9 38913.8 41071.6 38997.2 41034.1 39077.6 40989.7 39154.4 40938.8 39227.1 40881.8 39295.1 40819.1 39357.8 40751.1 39414.8 40678.4 39465.7 40601.6 39510.1 40521.2 39547.6 40437.8 39577.9 40352.1 39600.9 40264.7 39616.3 40176.4 39624 40087.6 39624 39999.3 39616.3 39911.9 39600.9 39826.2 39577.9 39742.8 39547.6 39662.4 39510.1 39585.6 39465.7 39512.9 39414.8 39444.9 39357.8 39382.2 39295.1 39325.2 39227.1 39274.3 39154.4 39229.9 39077.6 39192.4 38997.2 39162.1 38913.8 39139.1 38828.1 39123.7 38740.7 39116 38652.4 39116 38563.6 39123.7 38475.3 39139.1 38387.9 39162.1 38302.2 39192.4 38218.8 39229.9 38138.4 39274.3 38061.6 39325.2 37988.9 39382.2 37920.9 39444.9 37858.2 39512.9 37801.2 39585.6 37750.3 39662.4 37705.9 39742.8 37668.4 39826.2 37638.1 39911.9 37615.1 39999.3 37599.7 40087.6 37592 40176.4 37592 40264.7 37599.7 40352.1 37615.1 40437.8 37638.1 40521.2 37668.4 40601.6 37705.9 40678.4 37750.3 40751.1 37801.2 40819.1 37858.2 40881.8 37920.9 40938.8 37988.9 40989.7 38061.6 41034.1 38138.4 41071.6 38218.8 41101.9 38302.2 41124.9 38387.9 41140.3 38475.3 41148 38563.6 M 84074 12909.6 84074 12998.4 84066.3 13086.7 84050.9 13174.1 84027.9 13259.8 83997.6 13343.2 83960.1 13423.6 83915.7 13500.4 83864.8 13573.1 83807.8 13641.1 83745.1 13703.8 83677.1 13760.8 83604.4 13811.7 83527.6 13856.1 83447.2 13893.6 83363.8 13923.9 83278.1 13946.9 83190.7 13962.3 83102.4 13970 83013.6 13970 82925.3 13962.3 82837.9 13946.9 82752.2 13923.9 82668.8 13893.6 82588.4 13856.1 82511.6 13811.7 82438.9 13760.8 82370.9 13703.8 82308.2 13641.1 82251.2 13573.1 82200.3 13500.4 82155.9 13423.6 82118.4 13343.2 82088.1 13259.8 82065.1 13174.1 82049.7 13086.7 82042 12998.4 82042 12909.6 82049.7 12821.3 82065.1 12733.9 82088.1 12648.2 82118.4 12564.8 82155.9 12484.4 82200.3 12407.6 82251.2 12334.9 82308.2 12266.9 82370.9 12204.2 82438.9 12147.2 82511.6 12096.3 82588.4 12051.9 82668.8 12014.4 82752.2 11984.1 82837.9 11961.1 82925.3 11945.7 83013.6 11938 83102.4 11938 83190.7 11945.7 83278.1 11961.1 83363.8 11984.1 83447.2 12014.4 83527.6 12051.9 83604.4 12096.3 83677.1 12147.2 83745.1 12204.2 83807.8 12266.9 83864.8 12334.9 83915.7 12407.6 83960.1 12484.4 83997.6 12564.8 84027.9 12648.2 84050.9 12733.9 84066.3 12821.3 84074 12909.6 M 84074 65741.6 84074 65830.4 84066.3 65918.7 84050.9 66006.1 84027.9 66091.8 83997.6 66175.2 83960.1 66255.6 83915.7 66332.4 83864.8 66405.1 83807.8 66473.1 83745.1 66535.8 83677.1 66592.8 83604.4 66643.7 83527.6 66688.1 83447.2 66725.6 83363.8 66755.9 83278.1 66778.9 83190.7 66794.3 83102.4 66802 83013.6 66802 82925.3 66794.3 82837.9 66778.9 82752.2 66755.9 82668.8 66725.6 82588.4 66688.1 82511.6 66643.7 82438.9 66592.8 82370.9 66535.8 82308.2 66473.1 82251.2 66405.1 82200.3 66332.4 82155.9 66255.6 82118.4 66175.2 82088.1 66091.8 82065.1 66006.1 82049.7 65918.7 82042 65830.4 82042 65741.6 82049.7 65653.3 82065.1 65565.9 82088.1 65480.2 82118.4 65396.8 82155.9 65316.4 82200.3 65239.6 82251.2 65166.9 82308.2 65098.9 82370.9 65036.2 82438.9 64979.2 82511.6 64928.3 82588.4 64883.9 82668.8 64846.4 82752.2 64816.1 82837.9 64793.1 82925.3 64777.7 83013.6 64770 83102.4 64770 83190.7 64777.7 83278.1 64793.1 83363.8 64816.1 83447.2 64846.4 83527.6 64883.9 83604.4 64928.3 83677.1 64979.2 83745.1 65036.2 83807.8 65098.9 83864.8 65166.9 83915.7 65239.6 83960.1 65316.4 83997.6 65396.8 84027.9 65480.2 84050.9 65565.9 84066.3 65653.3 84074 65741.6 M 10613.5 53654 10646.2 53659.2 10677.6 53669.4 10707.1 53684.4 10733.8 53703.8 10757.2 53727.2 10776.6 53753.9 10791.6 53783.4 10801.8 53814.8 10807 53847.5 10807 53880.5 10801.8 53913.2 10791.6 53944.6 10776.6 53974.1 10757.2 54000.8 10733.8 54024.2 10707.1 54043.6 10677.6 54058.6 10646.2 54068.8 10613.5 54074 10580.5 54074 10547.8 54068.8 10516.4 54058.6 10486.9 54043.6 10460.2 54024.2 10436.8 54000.8 10417.4 53974.1 10402.4 53944.6 10392.2 53913.2 10387 53880.5 10387 53847.5 10392.2 53814.8 10402.4 53783.4 10417.4 53753.9 10436.8 53727.2 10460.2 53703.8 10486.9 53684.4 10516.4 53669.4 10547.8 53659.2 10580.5 53654 10613.5 53654 M 10613.5 55654 10646.2 55659.2 10677.6 55669.4 10707.1 55684.4 10733.8 55703.8 10757.2 55727.2 10776.6 55753.9 10791.6 55783.4 10801.8 55814.8 10807 55847.5 10807 55880.5 10801.8 55913.2 10791.6 55944.6 10776.6 55974.1 10757.2 56000.8 10733.8 56024.2 10707.1 56043.6 10677.6 56058.6 10646.2 56068.8 10613.5 56074 10580.5 56074 10547.8 56068.8 10516.4 56058.6 10486.9 56043.6 10460.2 56024.2 10436.8 56000.8 10417.4 55974.1 10402.4 55944.6 10392.2 55913.2 10387 55880.5 10387 55847.5 10392.2 55814.8 10402.4 55783.4 10417.4 55753.9 10436.8 55727.2 10460.2 55703.8 10486.9 55684.4 10516.4 55669.4 10547.8 55659.2 10580.5 55654 10613.5 55654 M 17613.5 53654 17646.2 53659.2 17677.6 53669.4 17707.1 53684.4 17733.8 53703.8 17757.2 53727.2 17776.6 53753.9 17791.6 53783.4 17801.8 53814.8 17807 53847.5 17807 53880.5 17801.8 53913.2 17791.6 53944.6 17776.6 53974.1 17757.2 54000.8 17733.8 54024.2 17707.1 54043.6 17677.6 54058.6 17646.2 54068.8 17613.5 54074 17580.5 54074 17547.8 54068.8 17516.4 54058.6 17486.9 54043.6 17460.2 54024.2 17436.8 54000.8 17417.4 53974.1 17402.4 53944.6 17392.2 53913.2 17387 53880.5 17387 53847.5 17392.2 53814.8 17402.4 53783.4 17417.4 53753.9 17436.8 53727.2 17460.2 53703.8 17486.9 53684.4 17516.4 53669.4 17547.8 53659.2 17580.5 53654 17613.5 53654 M 17613.5 55654 17646.2 55659.2 17677.6 55669.4 17707.1 55684.4 17733.8 55703.8 17757.2 55727.2 17776.6 55753.9 17791.6 55783.4 17801.8 55814.8 17807 55847.5 17807 55880.5 17801.8 55913.2 17791.6 55944.6 17776.6 55974.1 17757.2 56000.8 17733.8 56024.2 17707.1 56043.6 17677.6 56058.6 17646.2 56068.8 17613.5 56074 17580.5 56074 17547.8 56068.8 17516.4 56058.6 17486.9 56043.6 17460.2 56024.2 17436.8 56000.8 17417.4 55974.1 17402.4 55944.6 17392.2 55913.2 17387 55880.5 17387 55847.5 17392.2 55814.8 17402.4 55783.4 17417.4 55753.9 17436.8 55727.2 17460.2 55703.8 17486.9 55684.4 17516.4 55669.4 17547.8 55659.2 17580.5 55654 17613.5 55654" fill="none" stroke-width="254"/></g></svg>