<svg version="1.1" xmlns="http://www.w3.org/2000/svg" xmlns:xlink="http://www.w3.org/1999/xlink" stroke-linecap="round" stroke-linejoin="round" stroke-width="0" fill-rule="evenodd" width="87.75789999999999mm" height="55.2676mm" viewBox="5870.2 11887.2 87757.9 55267.6" id="tnF49dbl6HGpHloEMceN"><defs><rect x="-1066.8" y="-1066.8" width="2133.6" height="2133.6" id="tnF49dbl6HGpHloEMceN_pad-10"/><circle cx="0" cy="0" r="664.1" id="tnF49dbl6HGpHloEMceN_pad-11"/><circle cx="0" cy="0" r="609.6" id="tnF49dbl6HGpHloEMceN_pad-12"/><rect x="-326.6" y="-1351.6" width="653.2" height="2703.2" id="tnF49dbl6HGpHloEMceN_pad-13"/><circle cx="0" cy="0" r="589.1" id="tnF49dbl6HGpHloEMceN_pad-14"/><circle cx="0" cy="0" r="1054.1" id="tnF49dbl6HGpHloEMceN_pad-15"/><rect x="-711.6" y="-556.6" width="1423.2" height="1113.2" id="tnF49dbl6HGpHloEMceN_pad-16"/><circle cx="0" cy="0" r="406.4" id="tnF49dbl6HGpHloEMceN_pad-17"/><circle cx="0" cy="0" r="863.6" id="tnF49dbl6HGpHloEMceN_pad-18"/><circle cx="0" cy="0" r="851.6" id="tnF49dbl6HGpHloEMceN_pad-19"/><rect x="-863.6" y="-863.6" width="1727.2" height="1727.2" id="tnF49dbl6HGpHloEMceN_pad-20"/><rect x="-635" y="-1193.8" width="1270" height="2387.6" id="tnF49dbl6HGpHloEMceN_pad-21"/><circle cx="0" cy="0" r="326.6" id="tnF49dbl6HGpHloEMceN_pad-22"/><circle cx="0" cy="0" r="736.6" id="tnF49dbl6HGpHloEMceN_pad-23"/><rect x="-651.6" y="-851.6" width="1303.2" height="1703.2" id="tnF49dbl6HGpHloEMceN_pad-24"/><rect x="-482.6" y="-533.4" width="965.2" height="1066.8" id="tnF49dbl6HGpHloEMceN_pad-25"/><rect x="-482.6" y="-177.8" width="965.2" height="355.6" id="tnF49dbl6HGpHloEMceN_pad-26"/><circle cx="0" cy="0" r="1414.1" id="tnF49dbl6HGpHloEMceN_pad-27"/><rect x="-533.4" y="-482.6" width="1066.8" height="965.2" id="tnF49dbl6HGpHloEMceN_pad-28"/><rect x="-177.8" y="-482.6" width="355.6" height="965.2" id="tnF49dbl6HGpHloEMceN_pad-29"/><rect x="-851.6" y="-751.6" width="1703.2" height="1503.2" id="tnF49dbl6HGpHloEMceN_pad-30"/><rect x="-901.6" y="-851.6" width="1803.2" height="1703.2" id="tnF49dbl6HGpHloEMceN_pad-31"/><rect x="-401.6" y="-401.6" width="803.2" height="803.2" id="tnF49dbl6HGpHloEMceN_pad-32"/><circle cx="0" cy="0" r="311.6" id="tnF49dbl6HGpHloEMceN_pad-33"/><rect x="-851.6" y="-651.6" width="1703.2" height="1303.2" id="tnF49dbl6HGpHloEMceN_pad-34"/><circle cx="0" cy="0" r="479.8" id="tnF49dbl6HGpHloEMceN_pad-35"/></defs><g transform="translate(0,79042) scale(1,-1)" fill="currentColor" stroke="currentColor"><path d="M 9320.5 52817.9 9320.5 52817.9 9320.5 52818 9320.5 54218 9320.1 54218.5 9320 54218.5 8270 54218.5 8269.8 54218.3 8269.6 54218.4 7919.6 53868.4 7919.6 53868.1 7919.5 53868 7919.5 52818 7919.9 52817.5 7920 52817.5 9320 52817.5 9320.5 52817.9"/><path d="M 7320.5 52817.9 7320.5 52817.9 7320.5 52818 7320.5 53868 7320.3 53868.2 7320.4 53868.4 6970.4 54218.4 6970.1 54218.4 6970 54218.5 5920 54218.5 5919.5 54218.1 5919.5 54218 5919.5 52818 5919.9 52817.5 5920 52817.5 7320 52817.5 7320.5 52817.9"/><use xlink:href="#tnF49dbl6HGpHloEMceN_pad-10" x="48895" y="12954"/><use xlink:href="#tnF49dbl6HGpHloEMceN_pad-10" x="62865" y="12954"/><use xlink:href="#tnF49dbl6HGpHloEMceN_pad-10" x="52070" y="35814"/><use xlink:href="#tnF49dbl6HGpHloEMceN_pad-10" x="59690" y="35814"/><use xlink:href="#tnF49dbl6HGpHloEMceN_pad-10" x="48895" y="35814"/><use xlink:href="#tnF49dbl6HGpHloEMceN_pad-10" x="62865" y="35814"/><use xlink:href="#tnF49dbl6HGpHloEMceN_pad-11" x="90551" y="52340"/><use xlink:href="#tnF49dbl6HGpHloEMceN_pad-11" x="90551" y="54340"/><use xlink:href="#tnF49dbl6HGpHloEMceN_pad-12" x="90688" y="46990"/><use xlink:href="#tnF49dbl6HGpHloEMceN_pad-12" x="91938" y="46990"/><use xlink:href="#tnF49dbl6HGpHloEMceN_pad-13" x="55880" y="15708"/><use xlink:href="#tnF49dbl6HGpHloEMceN_pad-13" x="55230" y="15708"/><use xlink:href="#tnF49dbl6HGpHloEMceN_pad-13" x="57180" y="15708"/><use xlink:href="#tnF49dbl6HGpHloEMceN_pad-13" x="56530" y="15708"/><use xlink:href="#tnF49dbl6HGpHloEMceN_pad-13" x="54580" y="15708"/><use xlink:href="#tnF49dbl6HGpHloEMceN_pad-14" x="53340" y="15748"/><use xlink:href="#tnF49dbl6HGpHloEMceN_pad-14" x="58420" y="15748"/><use xlink:href="#tnF49dbl6HGpHloEMceN_pad-15" x="59690" y="13208"/><use xlink:href="#tnF49dbl6HGpHloEMceN_pad-15" x="52070" y="13208"/><use xlink:href="#tnF49dbl6HGpHloEMceN_pad-16" x="51206.4" y="24510"/><use xlink:href="#tnF49dbl6HGpHloEMceN_pad-16" x="51206.4" y="21210"/><use xlink:href="#tnF49dbl6HGpHloEMceN_pad-17" x="59690" y="47940"/><use xlink:href="#tnF49dbl6HGpHloEMceN_pad-18" x="67310" y="21590"/><use xlink:href="#tnF49dbl6HGpHloEMceN_pad-18" x="69850" y="21590"/><use xlink:href="#tnF49dbl6HGpHloEMceN_pad-19" x="21590" y="58420"/><use xlink:href="#tnF49dbl6HGpHloEMceN_pad-19" x="77470" y="58420"/><use xlink:href="#tnF49dbl6HGpHloEMceN_pad-20" x="20320" y="26670"/><use xlink:href="#tnF49dbl6HGpHloEMceN_pad-18" x="22860" y="26670"/><use xlink:href="#tnF49dbl6HGpHloEMceN_pad-18" x="25400" y="26670"/><use xlink:href="#tnF49dbl6HGpHloEMceN_pad-18" x="27940" y="26670"/><use xlink:href="#tnF49dbl6HGpHloEMceN_pad-18" x="30480" y="26670"/><use xlink:href="#tnF49dbl6HGpHloEMceN_pad-18" x="33020" y="26670"/><use xlink:href="#tnF49dbl6HGpHloEMceN_pad-18" x="35560" y="26670"/><use xlink:href="#tnF49dbl6HGpHloEMceN_pad-18" x="38100" y="26670"/><use xlink:href="#tnF49dbl6HGpHloEMceN_pad-20" x="76200" y="21590"/><use xlink:href="#tnF49dbl6HGpHloEMceN_pad-18" x="73660" y="21590"/><use xlink:href="#tnF49dbl6HGpHloEMceN_pad-18" x="76200" y="24130"/><use xlink:href="#tnF49dbl6HGpHloEMceN_pad-18" x="73660" y="24130"/><use xlink:href="#tnF49dbl6HGpHloEMceN_pad-18" x="76200" y="26670"/><use xlink:href="#tnF49dbl6HGpHloEMceN_pad-18" x="73660" y="26670"/><use xlink:href="#tnF49dbl6HGpHloEMceN_pad-18" x="76200" y="29210"/><use xlink:href="#tnF49dbl6HGpHloEMceN_pad-18" x="73660" y="29210"/><use xlink:href="#tnF49dbl6HGpHloEMceN_pad-18" x="76200" y="31750"/><use xlink:href="#tnF49dbl6HGpHloEMceN_pad-18" x="73660" y="31750"/><use xlink:href="#tnF49dbl6HGpHloEMceN_pad-18" x="76200" y="34290"/><use xlink:href="#tnF49dbl6HGpHloEMceN_pad-18" x="73660" y="34290"/><use xlink:href="#tnF49dbl6HGpHloEMceN_pad-18" x="76200" y="36830"/><use xlink:href="#tnF49dbl6HGpHloEMceN_pad-18" x="73660" y="36830"/><use xlink:href="#tnF49dbl6HGpHloEMceN_pad-18" x="12319" y="19685"/><use xlink:href="#tnF49dbl6HGpHloEMceN_pad-18" x="12319" y="38735"/><use xlink:href="#tnF49dbl6HGpHloEMceN_pad-21" x="70726" y="13081"/><use xlink:href="#tnF49dbl6HGpHloEMceN_pad-21" x="65926" y="13081"/><use xlink:href="#tnF49dbl6HGpHloEMceN_pad-22" x="65926" y="13081"/><use xlink:href="#tnF49dbl6HGpHloEMceN_pad-23" x="7620" y="54610"/><use xlink:href="#tnF49dbl6HGpHloEMceN_pad-23" x="7620" y="52070"/><use xlink:href="#tnF49dbl6HGpHloEMceN_pad-23" x="7620" y="49530"/><use xlink:href="#tnF49dbl6HGpHloEMceN_pad-24" x="15748" y="38740"/><use xlink:href="#tnF49dbl6HGpHloEMceN_pad-24" x="15748" y="29840"/><use xlink:href="#tnF49dbl6HGpHloEMceN_pad-17" x="15748" y="38740"/><use xlink:href="#tnF49dbl6HGpHloEMceN_pad-18" x="27940" y="40640"/><use xlink:href="#tnF49dbl6HGpHloEMceN_pad-18" x="30480" y="40640"/><use xlink:href="#tnF49dbl6HGpHloEMceN_pad-18" x="33020" y="40640"/><use xlink:href="#tnF49dbl6HGpHloEMceN_pad-18" x="35560" y="40640"/><use xlink:href="#tnF49dbl6HGpHloEMceN_pad-12" x="43180" y="26924"/><use xlink:href="#tnF49dbl6HGpHloEMceN_pad-12" x="44450" y="25654"/><use xlink:href="#tnF49dbl6HGpHloEMceN_pad-12" x="43180" y="24384"/><use xlink:href="#tnF49dbl6HGpHloEMceN_pad-12" x="43180" y="21082"/><use xlink:href="#tnF49dbl6HGpHloEMceN_pad-12" x="44450" y="19812"/><use xlink:href="#tnF49dbl6HGpHloEMceN_pad-12" x="43180" y="18542"/><use xlink:href="#tnF49dbl6HGpHloEMceN_pad-17" x="46990" y="39055"/><use xlink:href="#tnF49dbl6HGpHloEMceN_pad-25" x="15748" y="35001.2"/><use xlink:href="#tnF49dbl6HGpHloEMceN_pad-25" x="15748" y="33578.8"/><use xlink:href="#tnF49dbl6HGpHloEMceN_pad-26" x="15748" y="34290"/><use xlink:href="#tnF49dbl6HGpHloEMceN_pad-11" x="79232" y="66040"/><use xlink:href="#tnF49dbl6HGpHloEMceN_pad-11" x="77232" y="66040"/><use xlink:href="#tnF49dbl6HGpHloEMceN_pad-11" x="43180" y="12970"/><use xlink:href="#tnF49dbl6HGpHloEMceN_pad-11" x="43180" y="14970"/><use xlink:href="#tnF49dbl6HGpHloEMceN_pad-18" x="64770" y="40640"/><use xlink:href="#tnF49dbl6HGpHloEMceN_pad-18" x="62230" y="40640"/><use xlink:href="#tnF49dbl6HGpHloEMceN_pad-18" x="59690" y="40640"/><use xlink:href="#tnF49dbl6HGpHloEMceN_pad-18" x="57150" y="40640"/><use xlink:href="#tnF49dbl6HGpHloEMceN_pad-18" x="54610" y="40640"/><use xlink:href="#tnF49dbl6HGpHloEMceN_pad-18" x="52070" y="40640"/><use xlink:href="#tnF49dbl6HGpHloEMceN_pad-23" x="77216" y="12700"/><use xlink:href="#tnF49dbl6HGpHloEMceN_pad-23" x="74676" y="12700"/><use xlink:href="#tnF49dbl6HGpHloEMceN_pad-23" x="79756" y="12700"/><use xlink:href="#tnF49dbl6HGpHloEMceN_pad-27" x="13530" y="50800"/><use xlink:href="#tnF49dbl6HGpHloEMceN_pad-27" x="85530" y="50800"/><use xlink:href="#tnF49dbl6HGpHloEMceN_pad-28" x="87172.8" y="25654"/><use xlink:href="#tnF49dbl6HGpHloEMceN_pad-28" x="88595.2" y="25654"/><use xlink:href="#tnF49dbl6HGpHloEMceN_pad-29" x="87884" y="25654"/><use xlink:href="#tnF49dbl6HGpHloEMceN_pad-17" x="87172.8" y="25654"/><use xlink:href="#tnF49dbl6HGpHloEMceN_pad-28" x="88595.2" y="33274"/><use xlink:href="#tnF49dbl6HGpHloEMceN_pad-28" x="87172.8" y="33274"/><use xlink:href="#tnF49dbl6HGpHloEMceN_pad-29" x="87884" y="33274"/><use xlink:href="#tnF49dbl6HGpHloEMceN_pad-17" x="88595.2" y="33274"/><use xlink:href="#tnF49dbl6HGpHloEMceN_pad-17" x="87172.8" y="33274"/><use xlink:href="#tnF49dbl6HGpHloEMceN_pad-28" x="88595.2" y="28194"/><use xlink:href="#tnF49dbl6HGpHloEMceN_pad-28" x="87172.8" y="28194"/><use xlink:href="#tnF49dbl6HGpHloEMceN_pad-29" x="87884" y="28194"/><use xlink:href="#tnF49dbl6HGpHloEMceN_pad-17" x="88595.2" y="28194"/><use xlink:href="#tnF49dbl6HGpHloEMceN_pad-28" x="88595.2" y="30734"/><use xlink:href="#tnF49dbl6HGpHloEMceN_pad-28" x="87172.8" y="30734"/><use xlink:href="#tnF49dbl6HGpHloEMceN_pad-29" x="87884" y="30734"/><use xlink:href="#tnF49dbl6HGpHloEMceN_pad-17" x="88595.2" y="30734"/><use xlink:href="#tnF49dbl6HGpHloEMceN_pad-18" x="31750" y="30480"/><use xlink:href="#tnF49dbl6HGpHloEMceN_pad-18" x="29210" y="30480"/><use xlink:href="#tnF49dbl6HGpHloEMceN_pad-18" x="26670" y="30480"/><use xlink:href="#tnF49dbl6HGpHloEMceN_pad-18" x="24130" y="30480"/><use xlink:href="#tnF49dbl6HGpHloEMceN_pad-11" x="17780" y="24400"/><use xlink:href="#tnF49dbl6HGpHloEMceN_pad-11" x="17780" y="26400"/><use xlink:href="#tnF49dbl6HGpHloEMceN_pad-23" x="58420" y="62357"/><use xlink:href="#tnF49dbl6HGpHloEMceN_pad-23" x="60960" y="64897"/><use xlink:href="#tnF49dbl6HGpHloEMceN_pad-23" x="63500" y="62357"/><use xlink:href="#tnF49dbl6HGpHloEMceN_pad-11" x="45720" y="30766"/><use xlink:href="#tnF49dbl6HGpHloEMceN_pad-11" x="45720" y="34766"/><use xlink:href="#tnF49dbl6HGpHloEMceN_pad-11" x="45720" y="32766"/><use xlink:href="#tnF49dbl6HGpHloEMceN_pad-18" x="59690" y="30480"/><use xlink:href="#tnF49dbl6HGpHloEMceN_pad-18" x="57150" y="30480"/><use xlink:href="#tnF49dbl6HGpHloEMceN_pad-18" x="54610" y="30480"/><use xlink:href="#tnF49dbl6HGpHloEMceN_pad-18" x="52070" y="30480"/><use xlink:href="#tnF49dbl6HGpHloEMceN_pad-30" x="69850" y="26350"/><use xlink:href="#tnF49dbl6HGpHloEMceN_pad-30" x="69850" y="24450"/><use xlink:href="#tnF49dbl6HGpHloEMceN_pad-17" x="69850" y="26350"/><use xlink:href="#tnF49dbl6HGpHloEMceN_pad-30" x="67310" y="26350"/><use xlink:href="#tnF49dbl6HGpHloEMceN_pad-30" x="67310" y="24450"/><use xlink:href="#tnF49dbl6HGpHloEMceN_pad-17" x="67310" y="26350"/><use xlink:href="#tnF49dbl6HGpHloEMceN_pad-30" x="54580" y="23810"/><use xlink:href="#tnF49dbl6HGpHloEMceN_pad-30" x="54580" y="21910"/><use xlink:href="#tnF49dbl6HGpHloEMceN_pad-31" x="7620" y="56768"/><use xlink:href="#tnF49dbl6HGpHloEMceN_pad-32" x="6620" y="53518"/><use xlink:href="#tnF49dbl6HGpHloEMceN_pad-32" x="8620" y="53518"/><use xlink:href="#tnF49dbl6HGpHloEMceN_pad-11" x="35020" y="46990"/><use xlink:href="#tnF49dbl6HGpHloEMceN_pad-11" x="31020" y="46990"/><use xlink:href="#tnF49dbl6HGpHloEMceN_pad-11" x="33020" y="46990"/><use xlink:href="#tnF49dbl6HGpHloEMceN_pad-11" x="37020" y="46990"/><use xlink:href="#tnF49dbl6HGpHloEMceN_pad-11" x="29020" y="46990"/><use xlink:href="#tnF49dbl6HGpHloEMceN_pad-11" x="21320" y="46990"/><use xlink:href="#tnF49dbl6HGpHloEMceN_pad-11" x="17320" y="46990"/><use xlink:href="#tnF49dbl6HGpHloEMceN_pad-11" x="19320" y="46990"/><use xlink:href="#tnF49dbl6HGpHloEMceN_pad-11" x="23320" y="46990"/><use xlink:href="#tnF49dbl6HGpHloEMceN_pad-11" x="79105" y="18034"/><use xlink:href="#tnF49dbl6HGpHloEMceN_pad-11" x="77105" y="18034"/><use xlink:href="#tnF49dbl6HGpHloEMceN_pad-28" x="88595.2" y="23114"/><use xlink:href="#tnF49dbl6HGpHloEMceN_pad-28" x="87172.8" y="23114"/><use xlink:href="#tnF49dbl6HGpHloEMceN_pad-29" x="87884" y="23114"/><use xlink:href="#tnF49dbl6HGpHloEMceN_pad-17" x="88595.2" y="23114"/><use xlink:href="#tnF49dbl6HGpHloEMceN_pad-11" x="11597" y="56564"/><use xlink:href="#tnF49dbl6HGpHloEMceN_pad-11" x="14097" y="56564"/><use xlink:href="#tnF49dbl6HGpHloEMceN_pad-11" x="16597" y="56564"/><use xlink:href="#tnF49dbl6HGpHloEMceN_pad-11" x="16597" y="53164"/><use xlink:href="#tnF49dbl6HGpHloEMceN_pad-11" x="14097" y="53164"/><use xlink:href="#tnF49dbl6HGpHloEMceN_pad-11" x="11597" y="53164"/><use xlink:href="#tnF49dbl6HGpHloEMceN_pad-33" x="10597" y="53864"/><use xlink:href="#tnF49dbl6HGpHloEMceN_pad-33" x="10597" y="55864"/><use xlink:href="#tnF49dbl6HGpHloEMceN_pad-33" x="17597" y="53864"/><use xlink:href="#tnF49dbl6HGpHloEMceN_pad-33" x="17597" y="55864"/><use xlink:href="#tnF49dbl6HGpHloEMceN_pad-34" x="92257" y="28194"/><use xlink:href="#tnF49dbl6HGpHloEMceN_pad-34" x="83257" y="28194"/><use xlink:href="#tnF49dbl6HGpHloEMceN_pad-34" x="92257" y="23114"/><use xlink:href="#tnF49dbl6HGpHloEMceN_pad-34" x="83257" y="23114"/><use xlink:href="#tnF49dbl6HGpHloEMceN_pad-34" x="92257" y="25654"/><use xlink:href="#tnF49dbl6HGpHloEMceN_pad-34" x="83257" y="25654"/><use xlink:href="#tnF49dbl6HGpHloEMceN_pad-34" x="92257" y="30734"/><use xlink:href="#tnF49dbl6HGpHloEMceN_pad-34" x="83257" y="30734"/><use xlink:href="#tnF49dbl6HGpHloEMceN_pad-34" x="83257" y="33274"/><use xlink:href="#tnF49dbl6HGpHloEMceN_pad-34" x="92257" y="33274"/><use xlink:href="#tnF49dbl6HGpHloEMceN_pad-11" x="92964" y="54340"/><use xlink:href="#tnF49dbl6HGpHloEMceN_pad-11" x="92964" y="52340"/><use xlink:href="#tnF49dbl6HGpHloEMceN_pad-11" x="23035" y="20320"/><use xlink:href="#tnF49dbl6HGpHloEMceN_pad-11" x="27035" y="20320"/><use xlink:href="#tnF49dbl6HGpHloEMceN_pad-11" x="25035" y="20320"/><use xlink:href="#tnF49dbl6HGpHloEMceN_pad-11" x="21035" y="20320"/><use xlink:href="#tnF49dbl6HGpHloEMceN_pad-11" x="29035" y="20320"/><use xlink:href="#tnF49dbl6HGpHloEMceN_pad-11" x="31035" y="20320"/><use xlink:href="#tnF49dbl6HGpHloEMceN_pad-35" x="31750" y="62611"/><use xlink:href="#tnF49dbl6HGpHloEMceN_pad-35" x="31750" y="61341"/><use xlink:href="#tnF49dbl6HGpHloEMceN_pad-35" x="31750" y="60071"/><use xlink:href="#tnF49dbl6HGpHloEMceN_pad-35" x="51435" y="60960"/><use xlink:href="#tnF49dbl6HGpHloEMceN_pad-35" x="37084" y="63881"/><use xlink:href="#tnF49dbl6HGpHloEMceN_pad-35" x="57150" y="58420"/><use xlink:href="#tnF49dbl6HGpHloEMceN_pad-35" x="60960" y="58420"/><use xlink:href="#tnF49dbl6HGpHloEMceN_pad-35" x="64770" y="66040"/><use xlink:href="#tnF49dbl6HGpHloEMceN_pad-35" x="64770" y="63500"/><use xlink:href="#tnF49dbl6HGpHloEMceN_pad-35" x="57150" y="65405"/><use xlink:href="#tnF49dbl6HGpHloEMceN_pad-35" x="60960" y="60960"/><use xlink:href="#tnF49dbl6HGpHloEMceN_pad-35" x="64770" y="58420"/><use xlink:href="#tnF49dbl6HGpHloEMceN_pad-35" x="64770" y="60960"/><use xlink:href="#tnF49dbl6HGpHloEMceN_pad-35" x="47244" y="66675"/><use xlink:href="#tnF49dbl6HGpHloEMceN_pad-35" x="48514" y="62230"/><use xlink:href="#tnF49dbl6HGpHloEMceN_pad-35" x="37465" y="58420"/><use xlink:href="#tnF49dbl6HGpHloEMceN_pad-35" x="22860" y="62230"/><use xlink:href="#tnF49dbl6HGpHloEMceN_pad-35" x="8890" y="46355"/><use xlink:href="#tnF49dbl6HGpHloEMceN_pad-35" x="38735" y="66675"/><use xlink:href="#tnF49dbl6HGpHloEMceN_pad-35" x="9144" y="31250"/><use xlink:href="#tnF49dbl6HGpHloEMceN_pad-35" x="80518" y="47117"/><use xlink:href="#tnF49dbl6HGpHloEMceN_pad-35" x="81915" y="57785"/><use xlink:href="#tnF49dbl6HGpHloEMceN_pad-35" x="69850" y="57785"/><use xlink:href="#tnF49dbl6HGpHloEMceN_pad-35" x="53340" y="18100"/><use xlink:href="#tnF49dbl6HGpHloEMceN_pad-35" x="62230" y="66040"/><use xlink:href="#tnF49dbl6HGpHloEMceN_pad-35" x="59690" y="63500"/><use xlink:href="#tnF49dbl6HGpHloEMceN_pad-35" x="24130" y="64770"/><use xlink:href="#tnF49dbl6HGpHloEMceN_pad-35" x="77724" y="46990"/><use xlink:href="#tnF49dbl6HGpHloEMceN_pad-35" x="85725" y="35560"/><use xlink:href="#tnF49dbl6HGpHloEMceN_pad-35" x="57150" y="42037"/><use xlink:href="#tnF49dbl6HGpHloEMceN_pad-35" x="62611" y="24130"/><use xlink:href="#tnF49dbl6HGpHloEMceN_pad-35" x="61430" y="24130"/><use xlink:href="#tnF49dbl6HGpHloEMceN_pad-35" x="80264" y="35687"/><use xlink:href="#tnF49dbl6HGpHloEMceN_pad-35" x="84455" y="37084"/><use xlink:href="#tnF49dbl6HGpHloEMceN_pad-35" x="81280" y="49911"/><use xlink:href="#tnF49dbl6HGpHloEMceN_pad-35" x="6350" y="46355"/><use xlink:href="#tnF49dbl6HGpHloEMceN_pad-35" x="67310" y="54229"/><use xlink:href="#tnF49dbl6HGpHloEMceN_pad-35" x="81915" y="23114"/><use xlink:href="#tnF49dbl6HGpHloEMceN_pad-35" x="33020" y="35052"/><use xlink:href="#tnF49dbl6HGpHloEMceN_pad-35" x="77470" y="27940"/><use xlink:href="#tnF49dbl6HGpHloEMceN_pad-35" x="74930" y="46990"/><use xlink:href="#tnF49dbl6HGpHloEMceN_pad-35" x="52070" y="43561"/><use xlink:href="#tnF49dbl6HGpHloEMceN_pad-35" x="30480" y="33655"/><use xlink:href="#tnF49dbl6HGpHloEMceN_pad-35" x="52070" y="55880"/><use xlink:href="#tnF49dbl6HGpHloEMceN_pad-35" x="45720" y="49530"/><use xlink:href="#tnF49dbl6HGpHloEMceN_pad-35" x="63500" y="49530"/><use xlink:href="#tnF49dbl6HGpHloEMceN_pad-35" x="80899" y="40767"/><use xlink:href="#tnF49dbl6HGpHloEMceN_pad-35" x="78994" y="27940"/><use xlink:href="#tnF49dbl6HGpHloEMceN_pad-35" x="72390" y="51816"/><use xlink:href="#tnF49dbl6HGpHloEMceN_pad-35" x="24130" y="59690"/><use xlink:href="#tnF49dbl6HGpHloEMceN_pad-35" x="57150" y="24130"/><use xlink:href="#tnF49dbl6HGpHloEMceN_pad-35" x="52390" y="19050"/><use xlink:href="#tnF49dbl6HGpHloEMceN_pad-35" x="49657" y="32385"/><use xlink:href="#tnF49dbl6HGpHloEMceN_pad-35" x="69215" y="30480"/><use xlink:href="#tnF49dbl6HGpHloEMceN_pad-35" x="56515" y="33020"/><use xlink:href="#tnF49dbl6HGpHloEMceN_pad-35" x="48133" y="31623"/><use xlink:href="#tnF49dbl6HGpHloEMceN_pad-35" x="48895" y="33655"/><use xlink:href="#tnF49dbl6HGpHloEMceN_pad-35" x="69215" y="34290"/><use xlink:href="#tnF49dbl6HGpHloEMceN_pad-35" x="55245" y="34290"/></g></svg>