<svg version="1.1" xmlns="http://www.w3.org/2000/svg" xmlns:xlink="http://www.w3.org/1999/xlink" stroke-linecap="round" stroke-linejoin="round" stroke-width="0" fill-rule="evenodd" width="86.319mm" height="53.583mm" viewBox="6845 14097 86319 53583" id="__XeDEDrgO_ltqnpryfV"><defs><rect x="-455" y="-610" width="910" height="1220" id="__XeDEDrgO_ltqnpryfV_pad-10"/><rect x="-750" y="-650" width="1500" height="1300" id="__XeDEDrgO_ltqnpryfV_pad-14"/><rect x="-650" y="-750" width="1300" height="1500" id="__XeDEDrgO_ltqnpryfV_pad-15"/><rect x="-275" y="-600" width="550" height="1200" id="__XeDEDrgO_ltqnpryfV_pad-16"/><rect x="-800" y="-900" width="1600" height="1800" id="__XeDEDrgO_ltqnpryfV_pad-17"/><rect x="-1000" y="-1350" width="2000" height="2700" id="__XeDEDrgO_ltqnpryfV_pad-18"/><rect x="-1750" y="-1050" width="3500" height="2100" id="__XeDEDrgO_ltqnpryfV_pad-19"/><rect x="-700" y="-500" width="1400" height="1000" id="__XeDEDrgO_ltqnpryfV_pad-20"/><rect x="-431.8" y="-381" width="863.6" height="762" id="__XeDEDrgO_ltqnpryfV_pad-21"/><rect x="-775" y="-300" width="1550" height="600" id="__XeDEDrgO_ltqnpryfV_pad-22"/><rect x="-900" y="-600" width="1800" height="1200" id="__XeDEDrgO_ltqnpryfV_pad-23"/><rect x="-900" y="-800" width="1800" height="1600" id="__XeDEDrgO_ltqnpryfV_pad-24"/><rect x="-381" y="-431.8" width="762" height="863.6" id="__XeDEDrgO_ltqnpryfV_pad-25"/><rect x="-325" y="-525" width="650" height="1050" id="__XeDEDrgO_ltqnpryfV_pad-26"/><rect x="-250" y="-250" width="500" height="500" id="__XeDEDrgO_ltqnpryfV_pad-27"/></defs><g transform="translate(0,81777) scale(1,-1)" fill="currentColor" stroke="currentColor"><path d="M 39694.4 63227.7 39694.4 63227.7 39695.5 63227.9 39874.4 63606.2 40107.8 63953.1 40390.6 64261 40716.4 64523.1 41077.8 64733.3 41466.6 64886.9 41874.1 64980.6 42291 65012 42707.9 64980.6 43115.4 64886.9 43504.2 64733.3 43865.6 64523.1 44191.4 64261 44474.2 63953.1 44707.6 63606.2 44886.5 63227.9 44890.4 63225.9 44891 63225.1 45941 63225.1 45945.7 63228.7 45945.2 63229.4 45945.9 63230 45945.9 65880 45942.3 65884.7 45941.6 65884.2 45941 65884.9 38641 65884.9 38636.3 65881.3 38636.4 65881.1 38636.3 65881 38636.7 65880.4 38636.1 65880 38636.1 63230 38639.7 63225.3 38640.4 63225.8 38641 63225.1 39691 63225.1 39694.4 63227.7"/><path d="M 45945.7 58578.7 45945.7 58578.7 45945.2 58579.4 45945.9 58580 45945.9 61230 45942.3 61234.7 45941.6 61234.2 45941 61234.9 44891 61234.9 44887.6 61232.3 44886.5 61232.1 44707.6 60853.8 44474.2 60506.9 44191.4 60199 43865.6 59936.9 43504.2 59726.7 43115.4 59573.1 42707.9 59479.5 42291 59448 41874.1 59479.5 41466.6 59573.1 41077.8 59726.7 40716.4 59936.9 40390.6 60199 40107.8 60506.9 39874.4 60853.8 39695.5 61232.1 39691.6 61234.1 39691 61234.9 38641 61234.9 38636.3 61231.3 38636.4 61231.1 38636.3 61231 38636.7 61230.4 38636.1 61230 38636.1 58580 38639.7 58575.3 38640.4 58575.8 38641 58575.1 45941 58575.1 45945.7 58578.7"/><use xlink:href="#__XeDEDrgO_ltqnpryfV_pad-10" x="92709" y="48895"/><use xlink:href="#__XeDEDrgO_ltqnpryfV_pad-10" x="89409" y="48895"/><path d="M 64570 56116 63110 56116 M 64570 56116 64570 55816 63110 55816 63110 56116 M 63110 55911 64570 55911 M 64570 56006 63110 56006 M 63110 56101 64570 56101" fill="none" stroke-width="100"/><path d="M 64557 55453 63123 55453 M 64557 55453 64557 54529 63123 54529 63123 55453 M 63123 54648.7 64557 54648.7 M 64557 54768.4 63123 54768.4 M 63123 54888.1 64557 54888.1 M 64557 55007.8 63123 55007.8 M 63123 55127.5 64557 55127.5 M 64557 55247.2 63123 55247.2 M 63123 55366.9 64557 55366.9" fill="none" stroke-width="126"/><path d="M 64570 54166 63110 54166 M 64570 54166 64570 53866 63110 53866 63110 54166 M 63110 53961 64570 53961 M 64570 54056 63110 54056 M 63110 54151 64570 54151 M 58810 54166 57350 54166 M 58810 54166 58810 53866 57350 53866 57350 54166 M 57350 53961 58810 53961 M 58810 54056 57350 54056 M 57350 54151 58810 54151" fill="none" stroke-width="100"/><path d="M 58797 55453 57363 55453 M 58797 55453 58797 54529 57363 54529 57363 55453 M 57363 54648.7 58797 54648.7 M 58797 54768.4 57363 54768.4 M 57363 54888.1 58797 54888.1 M 58797 55007.8 57363 55007.8 M 57363 55127.5 58797 55127.5 M 58797 55247.2 57363 55247.2 M 57363 55366.9 58797 55366.9" fill="none" stroke-width="126"/><path d="M 58810 56116 57350 56116 M 58810 56116 58810 55816 57350 55816 57350 56116 M 57350 55911 58810 55911 M 58810 56006 57350 56006 M 57350 56101 58810 56101" fill="none" stroke-width="100"/><path d="M 59135 50260 60085 50260 M 59135 50260 59135 50710 60085 50710 60085 50260 M 60085 50402.5 59135 50402.5 M 59135 50545 60085 50545 M 60085 50687.5 59135 50687.5 M 59135 51210 60085 51210 M 59135 51210 59135 51660 60085 51660 60085 51210 M 60085 51352.5 59135 51352.5 M 59135 51495 60085 51495 M 60085 51637.5 59135 51637.5 M 59135 52160 60085 52160 M 59135 52160 59135 52610 60085 52610 60085 52160 M 60085 52302.5 59135 52302.5 M 59135 52445 60085 52445 M 60085 52587.5 59135 52587.5 M 61835 52160 62785 52160 M 61835 52160 61835 52610 62785 52610 62785 52160 M 62785 52302.5 61835 52302.5 M 61835 52445 62785 52445 M 62785 52587.5 61835 52587.5 M 61835 51210 62785 51210 M 61835 51210 61835 51660 62785 51660 62785 51210 M 62785 51352.5 61835 51352.5 M 61835 51495 62785 51495 M 62785 51637.5 61835 51637.5 M 61835 50260 62785 50260 M 61835 50260 61835 50710 62785 50710 62785 50260 M 62785 50402.5 61835 50402.5 M 61835 50545 62785 50545 M 62785 50687.5 61835 50687.5" fill="none" stroke-width="150"/><use xlink:href="#__XeDEDrgO_ltqnpryfV_pad-14" x="57150" y="46040"/><use xlink:href="#__XeDEDrgO_ltqnpryfV_pad-14" x="57150" y="47940"/><use xlink:href="#__XeDEDrgO_ltqnpryfV_pad-14" x="62230" y="47940"/><use xlink:href="#__XeDEDrgO_ltqnpryfV_pad-14" x="62230" y="46040"/><use xlink:href="#__XeDEDrgO_ltqnpryfV_pad-14" x="64770" y="46040"/><use xlink:href="#__XeDEDrgO_ltqnpryfV_pad-14" x="64770" y="47940"/><use xlink:href="#__XeDEDrgO_ltqnpryfV_pad-14" x="59690" y="46040"/><use xlink:href="#__XeDEDrgO_ltqnpryfV_pad-14" x="59690" y="47940"/><path d="M 77075 55785 78025 55785 78025 55335 77075 55335 77075 55785 M 77075 55477.5 78025 55477.5 M 78025 55620 77075 55620 M 77075 55762.5 78025 55762.5 M 78025 54835 77075 54835 M 78025 54835 78025 54385 77075 54385 77075 54835 M 77075 54527.5 78025 54527.5 M 78025 54670 77075 54670 M 77075 54812.5 78025 54812.5 M 78025 53885 77075 53885 M 78025 53885 78025 53435 77075 53435 77075 53885 M 77075 53577.5 78025 53577.5 M 78025 53720 77075 53720 M 77075 53862.5 78025 53862.5 M 75325 53885 74375 53885 M 75325 53885 75325 53435 74375 53435 74375 53885 M 74375 53577.5 75325 53577.5 M 75325 53720 74375 53720 M 74375 53862.5 75325 53862.5 M 75325 54835 74375 54835 M 75325 54835 75325 54385 74375 54385 74375 54835 M 74375 54527.5 75325 54527.5 M 75325 54670 74375 54670 M 74375 54812.5 75325 54812.5 M 75325 55785 74375 55785 M 75325 55785 75325 55335 74375 55335 74375 55785 M 74375 55477.5 75325 55477.5 M 75325 55620 74375 55620 M 74375 55762.5 75325 55762.5" fill="none" stroke-width="150"/><use xlink:href="#__XeDEDrgO_ltqnpryfV_pad-15" x="70170" y="55880"/><use xlink:href="#__XeDEDrgO_ltqnpryfV_pad-15" x="72070" y="55880"/><use xlink:href="#__XeDEDrgO_ltqnpryfV_pad-15" x="70170" y="53340"/><use xlink:href="#__XeDEDrgO_ltqnpryfV_pad-15" x="72070" y="53340"/><path d="M 77075 50705 78025 50705 78025 50255 77075 50255 77075 50705 M 77075 50397.5 78025 50397.5 M 78025 50540 77075 50540 M 77075 50682.5 78025 50682.5 M 78025 49755 77075 49755 M 78025 49755 78025 49305 77075 49305 77075 49755 M 77075 49447.5 78025 49447.5 M 78025 49590 77075 49590 M 77075 49732.5 78025 49732.5 M 78025 48805 77075 48805 M 78025 48805 78025 48355 77075 48355 77075 48805 M 77075 48497.5 78025 48497.5 M 78025 48640 77075 48640 M 77075 48782.5 78025 48782.5 M 75325 48805 74375 48805 M 75325 48805 75325 48355 74375 48355 74375 48805 M 74375 48497.5 75325 48497.5 M 75325 48640 74375 48640 M 74375 48782.5 75325 48782.5 M 75325 49755 74375 49755 M 75325 49755 75325 49305 74375 49305 74375 49755 M 74375 49447.5 75325 49447.5 M 75325 49590 74375 49590 M 74375 49732.5 75325 49732.5 M 75325 50705 74375 50705 M 75325 50705 75325 50255 74375 50255 74375 50705 M 74375 50397.5 75325 50397.5 M 75325 50540 74375 50540 M 74375 50682.5 75325 50682.5" fill="none" stroke-width="150"/><use xlink:href="#__XeDEDrgO_ltqnpryfV_pad-15" x="80330" y="53340"/><use xlink:href="#__XeDEDrgO_ltqnpryfV_pad-15" x="82230" y="53340"/><use xlink:href="#__XeDEDrgO_ltqnpryfV_pad-15" x="80330" y="55880"/><use xlink:href="#__XeDEDrgO_ltqnpryfV_pad-15" x="82230" y="55880"/><use xlink:href="#__XeDEDrgO_ltqnpryfV_pad-16" x="77150" y="42514.9"/><use xlink:href="#__XeDEDrgO_ltqnpryfV_pad-16" x="76200" y="42514.9"/><use xlink:href="#__XeDEDrgO_ltqnpryfV_pad-16" x="75250" y="42514.9"/><use xlink:href="#__XeDEDrgO_ltqnpryfV_pad-16" x="75250" y="45115.1"/><use xlink:href="#__XeDEDrgO_ltqnpryfV_pad-16" x="77150" y="45115.1"/><use xlink:href="#__XeDEDrgO_ltqnpryfV_pad-14" x="79375" y="44765"/><use xlink:href="#__XeDEDrgO_ltqnpryfV_pad-14" x="79375" y="42865"/><use xlink:href="#__XeDEDrgO_ltqnpryfV_pad-15" x="35245" y="29845"/><use xlink:href="#__XeDEDrgO_ltqnpryfV_pad-15" x="37145" y="29845"/><use xlink:href="#__XeDEDrgO_ltqnpryfV_pad-14" x="44450" y="39055"/><use xlink:href="#__XeDEDrgO_ltqnpryfV_pad-14" x="44450" y="40955"/><use xlink:href="#__XeDEDrgO_ltqnpryfV_pad-14" x="46990" y="40955"/><use xlink:href="#__XeDEDrgO_ltqnpryfV_pad-14" x="46990" y="39055"/><path d="M 35465 60405 35465 61355 M 35465 60405 35015 60405 35015 61355 35465 61355 M 35465 60547.5 35015 60547.5 M 35015 60690 35465 60690 M 35465 60832.5 35015 60832.5 M 35015 60975 35465 60975 M 35465 61117.5 35015 61117.5 M 35015 61260 35465 61260 M 34515 61355 34515 60405 34065 60405 34065 61355 34515 61355 M 34515 60547.5 34065 60547.5 M 34065 60690 34515 60690 M 34515 60832.5 34065 60832.5 M 34065 60975 34515 60975 M 34515 61117.5 34065 61117.5 M 34065 61260 34515 61260 M 33565 61355 33565 60405 33115 60405 33115 61355 33565 61355 M 33565 60547.5 33115 60547.5 M 33115 60690 33565 60690 M 33565 60832.5 33115 60832.5 M 33115 60975 33565 60975 M 33565 61117.5 33115 61117.5 M 33115 61260 33565 61260 M 33565 63105 33565 64055 M 33565 63105 33115 63105 33115 64055 33565 64055 M 33565 63247.5 33115 63247.5 M 33115 63390 33565 63390 M 33565 63532.5 33115 63532.5 M 33115 63675 33565 63675 M 33565 63817.5 33115 63817.5 M 33115 63960 33565 63960 M 34515 64055 34515 63105 34065 63105 34065 64055 34515 64055 M 34515 63247.5 34065 63247.5 M 34065 63390 34515 63390 M 34515 63532.5 34065 63532.5 M 34065 63675 34515 63675 M 34515 63817.5 34065 63817.5 M 34065 63960 34515 63960 M 35465 64055 35465 63105 35015 63105 35015 64055 35465 64055 M 35465 63247.5 35015 63247.5 M 35015 63390 35465 63390 M 35465 63532.5 35015 63532.5 M 35015 63675 35465 63675 M 35465 63817.5 35015 63817.5 M 35015 63960 35465 63960" fill="none" stroke-width="150"/><use xlink:href="#__XeDEDrgO_ltqnpryfV_pad-17" x="35690" y="58166"/><use xlink:href="#__XeDEDrgO_ltqnpryfV_pad-17" x="32890" y="58166"/><use xlink:href="#__XeDEDrgO_ltqnpryfV_pad-17" x="35690" y="66294"/><use xlink:href="#__XeDEDrgO_ltqnpryfV_pad-17" x="32890" y="66294"/><use xlink:href="#__XeDEDrgO_ltqnpryfV_pad-15" x="51120" y="65659"/><use xlink:href="#__XeDEDrgO_ltqnpryfV_pad-15" x="53020" y="65659"/><use xlink:href="#__XeDEDrgO_ltqnpryfV_pad-18" x="49235" y="59690"/><use xlink:href="#__XeDEDrgO_ltqnpryfV_pad-18" x="53635" y="59690"/><use xlink:href="#__XeDEDrgO_ltqnpryfV_pad-19" x="42291" y="57830"/><use xlink:href="#__XeDEDrgO_ltqnpryfV_pad-19" x="42291" y="66630"/><use xlink:href="#__XeDEDrgO_ltqnpryfV_pad-14" x="52070" y="46040"/><use xlink:href="#__XeDEDrgO_ltqnpryfV_pad-14" x="52070" y="47940"/><use xlink:href="#__XeDEDrgO_ltqnpryfV_pad-14" x="49530" y="46040"/><use xlink:href="#__XeDEDrgO_ltqnpryfV_pad-14" x="49530" y="47940"/><use xlink:href="#__XeDEDrgO_ltqnpryfV_pad-20" x="51900" y="51816"/><use xlink:href="#__XeDEDrgO_ltqnpryfV_pad-20" x="49700" y="52766"/><use xlink:href="#__XeDEDrgO_ltqnpryfV_pad-20" x="49700" y="50866"/><use xlink:href="#__XeDEDrgO_ltqnpryfV_pad-20" x="46820" y="51816"/><use xlink:href="#__XeDEDrgO_ltqnpryfV_pad-20" x="44620" y="52766"/><use xlink:href="#__XeDEDrgO_ltqnpryfV_pad-20" x="44620" y="50866"/><use xlink:href="#__XeDEDrgO_ltqnpryfV_pad-14" x="44450" y="47940"/><use xlink:href="#__XeDEDrgO_ltqnpryfV_pad-14" x="44450" y="46040"/><use xlink:href="#__XeDEDrgO_ltqnpryfV_pad-15" x="47310" y="55245"/><use xlink:href="#__XeDEDrgO_ltqnpryfV_pad-15" x="49210" y="55245"/><use xlink:href="#__XeDEDrgO_ltqnpryfV_pad-14" x="46990" y="47940"/><use xlink:href="#__XeDEDrgO_ltqnpryfV_pad-14" x="46990" y="46040"/><use xlink:href="#__XeDEDrgO_ltqnpryfV_pad-21" x="76758.8" y="15240"/><use xlink:href="#__XeDEDrgO_ltqnpryfV_pad-21" x="78181.2" y="15240"/><use xlink:href="#__XeDEDrgO_ltqnpryfV_pad-14" x="41275" y="20762"/><use xlink:href="#__XeDEDrgO_ltqnpryfV_pad-14" x="41275" y="18862"/><use xlink:href="#__XeDEDrgO_ltqnpryfV_pad-22" x="7620" y="31250"/><use xlink:href="#__XeDEDrgO_ltqnpryfV_pad-22" x="7620" y="32250"/><use xlink:href="#__XeDEDrgO_ltqnpryfV_pad-23" x="11495" y="28950"/><use xlink:href="#__XeDEDrgO_ltqnpryfV_pad-23" x="11495" y="34550"/><use xlink:href="#__XeDEDrgO_ltqnpryfV_pad-22" x="7620" y="30250"/><use xlink:href="#__XeDEDrgO_ltqnpryfV_pad-22" x="7620" y="33250"/><use xlink:href="#__XeDEDrgO_ltqnpryfV_pad-24" x="73025" y="45215"/><use xlink:href="#__XeDEDrgO_ltqnpryfV_pad-24" x="73025" y="42415"/><use xlink:href="#__XeDEDrgO_ltqnpryfV_pad-14" x="41910" y="47940"/><use xlink:href="#__XeDEDrgO_ltqnpryfV_pad-14" x="41910" y="46040"/><use xlink:href="#__XeDEDrgO_ltqnpryfV_pad-25" x="71120" y="48818.8"/><use xlink:href="#__XeDEDrgO_ltqnpryfV_pad-25" x="71120" y="50241.2"/><use xlink:href="#__XeDEDrgO_ltqnpryfV_pad-25" x="69215" y="50241.2"/><use xlink:href="#__XeDEDrgO_ltqnpryfV_pad-25" x="69215" y="48818.8"/><use xlink:href="#__XeDEDrgO_ltqnpryfV_pad-26" x="53340" y="23375"/><use xlink:href="#__XeDEDrgO_ltqnpryfV_pad-26" x="52390" y="21075"/><use xlink:href="#__XeDEDrgO_ltqnpryfV_pad-26" x="54290" y="21075"/><use xlink:href="#__XeDEDrgO_ltqnpryfV_pad-14" x="64135" y="18100"/><use xlink:href="#__XeDEDrgO_ltqnpryfV_pad-14" x="64135" y="20000"/><use xlink:href="#__XeDEDrgO_ltqnpryfV_pad-27" x="46390" y="18415"/><use xlink:href="#__XeDEDrgO_ltqnpryfV_pad-27" x="47590" y="18415"/><use xlink:href="#__XeDEDrgO_ltqnpryfV_pad-14" x="59055" y="18100"/><use xlink:href="#__XeDEDrgO_ltqnpryfV_pad-14" x="59055" y="20000"/><use xlink:href="#__XeDEDrgO_ltqnpryfV_pad-14" x="61595" y="18100"/><use xlink:href="#__XeDEDrgO_ltqnpryfV_pad-14" x="61595" y="20000"/><use xlink:href="#__XeDEDrgO_ltqnpryfV_pad-10" x="46610" y="22860"/><use xlink:href="#__XeDEDrgO_ltqnpryfV_pad-10" x="49910" y="22860"/><use xlink:href="#__XeDEDrgO_ltqnpryfV_pad-14" x="50165" y="20000"/><use xlink:href="#__XeDEDrgO_ltqnpryfV_pad-14" x="50165" y="18100"/><use xlink:href="#__XeDEDrgO_ltqnpryfV_pad-14" x="56515" y="20000"/><use xlink:href="#__XeDEDrgO_ltqnpryfV_pad-14" x="56515" y="18100"/><use xlink:href="#__XeDEDrgO_ltqnpryfV_pad-14" x="81915" y="42865"/><use xlink:href="#__XeDEDrgO_ltqnpryfV_pad-14" x="81915" y="44765"/><use xlink:href="#__XeDEDrgO_ltqnpryfV_pad-25" x="49530" y="39293.8"/><use xlink:href="#__XeDEDrgO_ltqnpryfV_pad-25" x="49530" y="40716.2"/><use xlink:href="#__XeDEDrgO_ltqnpryfV_pad-25" x="45720" y="15951.2"/><use xlink:href="#__XeDEDrgO_ltqnpryfV_pad-25" x="45720" y="14528.8"/><use xlink:href="#__XeDEDrgO_ltqnpryfV_pad-15" x="53020" y="63119"/><use xlink:href="#__XeDEDrgO_ltqnpryfV_pad-15" x="51120" y="63119"/></g></svg>