<svg version="1.1" xmlns="http://www.w3.org/2000/svg" xmlns:xlink="http://www.w3.org/1999/xlink" stroke-linecap="round" stroke-linejoin="round" stroke-width="0" fill-rule="evenodd" width="86.9875mm" height="45.529199999999996mm" viewBox="6019.5 11988.8 86987.5 45529.2" id="uHJne1-NKNYvrYI94Ff1"><defs><rect x="-225" y="-1250" width="450" height="2500" id="uHJne1-NKNYvrYI94Ff1_pad-10"/><rect x="-610" y="-455" width="1220" height="910" id="uHJne1-NKNYvrYI94Ff1_pad-11"/><rect x="-533.4" y="-1092.2" width="1066.8" height="2184.4" id="uHJne1-NKNYvrYI94Ff1_pad-12"/><rect x="-550" y="-750" width="1100" height="1500" id="uHJne1-NKNYvrYI94Ff1_pad-13"/><rect x="-381" y="-431.8" width="762" height="863.6" id="uHJne1-NKNYvrYI94Ff1_pad-14"/><rect x="-431.8" y="-381" width="863.6" height="762" id="uHJne1-NKNYvrYI94Ff1_pad-15"/><rect x="-750" y="-650" width="1500" height="1300" id="uHJne1-NKNYvrYI94Ff1_pad-16"/><rect x="-800" y="-750" width="1600" height="1500" id="uHJne1-NKNYvrYI94Ff1_pad-17"/><rect x="-300" y="-300" width="600" height="600" id="uHJne1-NKNYvrYI94Ff1_pad-18"/><rect x="-750" y="-550" width="1500" height="1100" id="uHJne1-NKNYvrYI94Ff1_pad-19"/></defs><g transform="translate(0,69506.79999999999) scale(1,-1)" fill="currentColor" stroke="currentColor"><path d="M 9220.5 52917.9 9220.5 52917.9 9220.5 52918 9220.5 54118 9220.1 54118.5 9220 54118.5 8320 54118.5 8319.8 54118.3 8319.6 54118.4 8019.6 53818.4 8019.6 53818.1 8019.5 53818 8019.5 52918 8019.9 52917.5 8020 52917.5 9220 52917.5 9220.5 52917.9"/><path d="M 7220.5 52917.9 7220.5 52917.9 7220.5 52918 7220.5 53818 7220.3 53818.2 7220.4 53818.4 6920.4 54118.4 6920.1 54118.4 6920.1 54118.5 6920 54118.5 6020 54118.5 6019.5 54118.1 6019.5 54118 6019.5 52918 6019.9 52917.5 6020 52917.5 7220 52917.5 7220.5 52917.9"/><use xlink:href="#uHJne1-NKNYvrYI94Ff1_pad-10" x="55880" y="15708"/><use xlink:href="#uHJne1-NKNYvrYI94Ff1_pad-10" x="55230" y="15708"/><use xlink:href="#uHJne1-NKNYvrYI94Ff1_pad-10" x="57180" y="15708"/><use xlink:href="#uHJne1-NKNYvrYI94Ff1_pad-10" x="56530" y="15708"/><use xlink:href="#uHJne1-NKNYvrYI94Ff1_pad-10" x="54580" y="15708"/><use xlink:href="#uHJne1-NKNYvrYI94Ff1_pad-11" x="51206.4" y="24510"/><use xlink:href="#uHJne1-NKNYvrYI94Ff1_pad-11" x="51206.4" y="21210"/><use xlink:href="#uHJne1-NKNYvrYI94Ff1_pad-12" x="70726" y="13081"/><use xlink:href="#uHJne1-NKNYvrYI94Ff1_pad-12" x="65926" y="13081"/><use xlink:href="#uHJne1-NKNYvrYI94Ff1_pad-13" x="15748" y="38740"/><use xlink:href="#uHJne1-NKNYvrYI94Ff1_pad-13" x="15748" y="29840"/><use xlink:href="#uHJne1-NKNYvrYI94Ff1_pad-14" x="15748" y="35001.2"/><use xlink:href="#uHJne1-NKNYvrYI94Ff1_pad-14" x="15748" y="33578.8"/><use xlink:href="#uHJne1-NKNYvrYI94Ff1_pad-15" x="87172.8" y="25654"/><use xlink:href="#uHJne1-NKNYvrYI94Ff1_pad-15" x="88595.2" y="25654"/><use xlink:href="#uHJne1-NKNYvrYI94Ff1_pad-15" x="88595.2" y="33274"/><use xlink:href="#uHJne1-NKNYvrYI94Ff1_pad-15" x="87172.8" y="33274"/><use xlink:href="#uHJne1-NKNYvrYI94Ff1_pad-15" x="88595.2" y="28194"/><use xlink:href="#uHJne1-NKNYvrYI94Ff1_pad-15" x="87172.8" y="28194"/><use xlink:href="#uHJne1-NKNYvrYI94Ff1_pad-15" x="88595.2" y="30734"/><use xlink:href="#uHJne1-NKNYvrYI94Ff1_pad-15" x="87172.8" y="30734"/><use xlink:href="#uHJne1-NKNYvrYI94Ff1_pad-16" x="69850" y="26350"/><use xlink:href="#uHJne1-NKNYvrYI94Ff1_pad-16" x="69850" y="24450"/><use xlink:href="#uHJne1-NKNYvrYI94Ff1_pad-16" x="67310" y="26350"/><use xlink:href="#uHJne1-NKNYvrYI94Ff1_pad-16" x="67310" y="24450"/><use xlink:href="#uHJne1-NKNYvrYI94Ff1_pad-16" x="54580" y="23810"/><use xlink:href="#uHJne1-NKNYvrYI94Ff1_pad-16" x="54580" y="21910"/><use xlink:href="#uHJne1-NKNYvrYI94Ff1_pad-17" x="7620" y="56768"/><use xlink:href="#uHJne1-NKNYvrYI94Ff1_pad-18" x="6620" y="53518"/><use xlink:href="#uHJne1-NKNYvrYI94Ff1_pad-18" x="8620" y="53518"/><use xlink:href="#uHJne1-NKNYvrYI94Ff1_pad-15" x="88595.2" y="23114"/><use xlink:href="#uHJne1-NKNYvrYI94Ff1_pad-15" x="87172.8" y="23114"/><use xlink:href="#uHJne1-NKNYvrYI94Ff1_pad-19" x="92257" y="28194"/><use xlink:href="#uHJne1-NKNYvrYI94Ff1_pad-19" x="83257" y="28194"/><use xlink:href="#uHJne1-NKNYvrYI94Ff1_pad-19" x="92257" y="23114"/><use xlink:href="#uHJne1-NKNYvrYI94Ff1_pad-19" x="83257" y="23114"/><use xlink:href="#uHJne1-NKNYvrYI94Ff1_pad-19" x="92257" y="25654"/><use xlink:href="#uHJne1-NKNYvrYI94Ff1_pad-19" x="83257" y="25654"/><use xlink:href="#uHJne1-NKNYvrYI94Ff1_pad-19" x="92257" y="30734"/><use xlink:href="#uHJne1-NKNYvrYI94Ff1_pad-19" x="83257" y="30734"/><use xlink:href="#uHJne1-NKNYvrYI94Ff1_pad-19" x="83257" y="33274"/><use xlink:href="#uHJne1-NKNYvrYI94Ff1_pad-19" x="92257" y="33274"/></g></svg>