<svg version="1.1" xmlns="http://www.w3.org/2000/svg" xmlns:xlink="http://www.w3.org/1999/xlink" stroke-linecap="round" stroke-linejoin="round" stroke-width="0" fill-rule="evenodd" width="87.75789999999999mm" height="55.894400000000005mm" viewBox="5870.2 11887.2 87757.9 55894.4" id="V59BQGUzvJH_oLYqG6Yn"><defs><rect x="-1066.8" y="-1066.8" width="2133.6" height="2133.6" id="V59BQGUzvJH_oLYqG6Yn_pad-10"/><rect x="-556.6" y="-711.6" width="1113.2" height="1423.2" id="V59BQGUzvJH_oLYqG6Yn_pad-11"/><circle cx="0" cy="0" r="664.1" id="V59BQGUzvJH_oLYqG6Yn_pad-12"/><circle cx="0" cy="0" r="609.6" id="V59BQGUzvJH_oLYqG6Yn_pad-13"/><circle cx="0" cy="0" r="589.1" id="V59BQGUzvJH_oLYqG6Yn_pad-14"/><circle cx="0" cy="0" r="1054.1" id="V59BQGUzvJH_oLYqG6Yn_pad-15"/><rect x="-851.6" y="-751.6" width="1703.2" height="1503.2" id="V59BQGUzvJH_oLYqG6Yn_pad-19"/><circle cx="0" cy="0" r="406.4" id="V59BQGUzvJH_oLYqG6Yn_pad-20"/><circle cx="0" cy="0" r="863.6" id="V59BQGUzvJH_oLYqG6Yn_pad-21"/><rect x="-751.6" y="-851.6" width="1503.2" height="1703.2" id="V59BQGUzvJH_oLYqG6Yn_pad-22"/><circle cx="0" cy="0" r="851.6" id="V59BQGUzvJH_oLYqG6Yn_pad-23"/><rect x="-376.6" y="-701.6" width="753.2" height="1403.2" id="V59BQGUzvJH_oLYqG6Yn_pad-24"/><rect x="-863.6" y="-863.6" width="1727.2" height="1727.2" id="V59BQGUzvJH_oLYqG6Yn_pad-25"/><circle cx="0" cy="0" r="326.6" id="V59BQGUzvJH_oLYqG6Yn_pad-26"/><circle cx="0" cy="0" r="736.6" id="V59BQGUzvJH_oLYqG6Yn_pad-27"/><rect x="-901.6" y="-1001.6" width="1803.2" height="2003.2" id="V59BQGUzvJH_oLYqG6Yn_pad-28"/><rect x="-1101.6" y="-1451.6" width="2203.2" height="2903.2" id="V59BQGUzvJH_oLYqG6Yn_pad-29"/><rect x="-1851.6" y="-1151.6" width="3703.2" height="2303.2" id="V59BQGUzvJH_oLYqG6Yn_pad-30"/><rect x="-801.6" y="-601.6" width="1603.2" height="1203.2" id="V59BQGUzvJH_oLYqG6Yn_pad-31"/><rect x="-533.4" y="-482.6" width="1066.8" height="965.2" id="V59BQGUzvJH_oLYqG6Yn_pad-32"/><rect x="-177.8" y="-482.6" width="355.6" height="965.2" id="V59BQGUzvJH_oLYqG6Yn_pad-33"/><circle cx="0" cy="0" r="1414.1" id="V59BQGUzvJH_oLYqG6Yn_pad-34"/><rect x="-876.6" y="-401.6" width="1753.2" height="803.2" id="V59BQGUzvJH_oLYqG6Yn_pad-35"/><rect x="-1001.6" y="-701.6" width="2003.2" height="1403.2" id="V59BQGUzvJH_oLYqG6Yn_pad-36"/><rect x="-1001.6" y="-901.6" width="2003.2" height="1803.2" id="V59BQGUzvJH_oLYqG6Yn_pad-37"/><circle cx="0" cy="0" r="311.6" id="V59BQGUzvJH_oLYqG6Yn_pad-38"/><rect x="-482.6" y="-533.4" width="965.2" height="1066.8" id="V59BQGUzvJH_oLYqG6Yn_pad-39"/><rect x="-482.6" y="-177.8" width="965.2" height="355.6" id="V59BQGUzvJH_oLYqG6Yn_pad-40"/><rect x="-426.6" y="-626.6" width="853.2" height="1253.2" id="V59BQGUzvJH_oLYqG6Yn_pad-41"/><rect x="-351.6" y="-351.6" width="703.2" height="703.2" id="V59BQGUzvJH_oLYqG6Yn_pad-42"/><circle cx="0" cy="0" r="479.8" id="V59BQGUzvJH_oLYqG6Yn_pad-43"/></defs><g transform="translate(0,79668.8) scale(1,-1)" fill="currentColor" stroke="currentColor"><path d="M 39794.5 63127.8 39794.5 63127.8 39795.5 63128 39962.9 63497.3 40184.3 63836.7 40454.7 64138.3 40767.9 64395.3 41116.5 64601.7 41492.5 64752.7 41887 64844.7 42291 64875.6 42695 64844.7 43089.5 64752.7 43465.5 64601.7 43814.1 64395.3 44127.3 64138.3 44397.8 63836.7 44619.2 63497.3 44786.5 63128 44790.4 63125.9 44791 63125.1 46041 63125.1 46045.7 63128.7 46045.2 63129.4 46045.9 63130 46045.9 65980 46042.3 65984.7 46041.6 65984.2 46041 65984.9 38541 65984.9 38536.3 65981.3 38536.8 65980.6 38536.1 65980 38536.1 63130 38539.7 63125.3 38540.4 63125.8 38541 63125.1 39791 63125.1 39794.5 63127.8"/><path d="M 46045.7 58478.7 46045.7 58478.7 46045.2 58479.4 46045.9 58480 46045.9 61330 46042.3 61334.7 46041.6 61334.2 46041 61334.9 44791 61334.9 44787.5 61332.2 44786.5 61332 44619.2 60962.7 44397.8 60623.4 44127.3 60321.7 43814.1 60064.7 43465.5 59858.3 43089.5 59707.3 42695 59615.3 42291 59584.4 41887 59615.3 41492.5 59707.3 41116.5 59858.3 40767.9 60064.7 40454.7 60321.7 40184.3 60623.4 39962.9 60962.7 39795.5 61332 39791.6 61334.1 39791 61334.9 38541 61334.9 38536.3 61331.3 38536.8 61330.6 38536.1 61330 38536.1 58480 38539.7 58475.3 38540.4 58475.8 38541 58475.1 46041 58475.1 46045.7 58478.7"/><use xlink:href="#V59BQGUzvJH_oLYqG6Yn_pad-10" x="48895" y="12954"/><use xlink:href="#V59BQGUzvJH_oLYqG6Yn_pad-10" x="62865" y="12954"/><use xlink:href="#V59BQGUzvJH_oLYqG6Yn_pad-10" x="52070" y="35814"/><use xlink:href="#V59BQGUzvJH_oLYqG6Yn_pad-10" x="59690" y="35814"/><use xlink:href="#V59BQGUzvJH_oLYqG6Yn_pad-10" x="48895" y="35814"/><use xlink:href="#V59BQGUzvJH_oLYqG6Yn_pad-10" x="62865" y="35814"/><use xlink:href="#V59BQGUzvJH_oLYqG6Yn_pad-11" x="92709" y="48895"/><use xlink:href="#V59BQGUzvJH_oLYqG6Yn_pad-11" x="89409" y="48895"/><use xlink:href="#V59BQGUzvJH_oLYqG6Yn_pad-12" x="90551" y="52340"/><use xlink:href="#V59BQGUzvJH_oLYqG6Yn_pad-12" x="90551" y="54340"/><use xlink:href="#V59BQGUzvJH_oLYqG6Yn_pad-13" x="90688" y="46990"/><use xlink:href="#V59BQGUzvJH_oLYqG6Yn_pad-13" x="91938" y="46990"/><use xlink:href="#V59BQGUzvJH_oLYqG6Yn_pad-14" x="53340" y="15748"/><use xlink:href="#V59BQGUzvJH_oLYqG6Yn_pad-14" x="58420" y="15748"/><use xlink:href="#V59BQGUzvJH_oLYqG6Yn_pad-15" x="59690" y="13208"/><use xlink:href="#V59BQGUzvJH_oLYqG6Yn_pad-15" x="52070" y="13208"/><path d="M 63109.2 56116.8 64570.8 56116.8 64570.8 55815.2 63109.2 55815.2 63109.2 56116.8 M 63109.2 56101.7 64570.8 56101.7" fill="none" stroke-width="301.6"/><path d="M 64558.7 55454.7 63121.3 55454.7 M 64558.7 55454.7 64558.7 54527.3 63121.3 54527.3 63121.3 55454.7 M 63121.3 54836.8 64558.7 54836.8 M 64558.7 55146.3 63121.3 55146.3" fill="none" stroke-width="325.831"/><path d="M 63109.2 54166.8 64570.8 54166.8 64570.8 53865.2 63109.2 53865.2 63109.2 54166.8 M 63109.2 54151.7 64570.8 54151.7 M 58810.8 54166.8 57349.2 54166.8 M 58810.8 54166.8 58810.8 53865.2 57349.2 53865.2 57349.2 54166.8 M 57349.2 54151.7 58810.8 54151.7" fill="none" stroke-width="301.6"/><path d="M 58798.7 55454.7 57361.3 55454.7 M 58798.7 55454.7 58798.7 54527.3 57361.3 54527.3 57361.3 55454.7 M 57361.3 54836.8 58798.7 54836.8 M 58798.7 55146.3 57361.3 55146.3" fill="none" stroke-width="325.831"/><path d="M 57349.2 56116.8 58810.8 56116.8 58810.8 55815.2 57349.2 55815.2 57349.2 56116.8 M 57349.2 56101.7 58810.8 56101.7" fill="none" stroke-width="301.6"/><path d="M 59135.1 50260.1 60084.9 50260.1 M 59135.1 50260.1 59135.1 50709.9 60084.9 50709.9 60084.9 50260.1 M 60084.9 50595.8 59135.1 50595.8 M 59135.1 51210.1 60084.9 51210.1 M 59135.1 51210.1 59135.1 51659.9 60084.9 51659.9 60084.9 51210.1 M 60084.9 51545.8 59135.1 51545.8 M 59135.1 52160.1 60084.9 52160.1 M 59135.1 52160.1 59135.1 52609.9 60084.9 52609.9 60084.9 52160.1 M 60084.9 52495.8 59135.1 52495.8 M 61835.1 52160.1 62784.9 52160.1 M 61835.1 52160.1 61835.1 52609.9 62784.9 52609.9 62784.9 52160.1 M 62784.9 52495.8 61835.1 52495.8 M 61835.1 51210.1 62784.9 51210.1 M 61835.1 51210.1 61835.1 51659.9 62784.9 51659.9 62784.9 51210.1 M 62784.9 51545.8 61835.1 51545.8 M 61835.1 50260.1 62784.9 50260.1 M 61835.1 50260.1 61835.1 50709.9 62784.9 50709.9 62784.9 50260.1 M 62784.9 50595.8 61835.1 50595.8" fill="none" stroke-width="353.406"/><use xlink:href="#V59BQGUzvJH_oLYqG6Yn_pad-19" x="57150" y="46040"/><use xlink:href="#V59BQGUzvJH_oLYqG6Yn_pad-19" x="57150" y="47940"/><use xlink:href="#V59BQGUzvJH_oLYqG6Yn_pad-19" x="62230" y="47940"/><use xlink:href="#V59BQGUzvJH_oLYqG6Yn_pad-19" x="62230" y="46040"/><use xlink:href="#V59BQGUzvJH_oLYqG6Yn_pad-19" x="64770" y="46040"/><use xlink:href="#V59BQGUzvJH_oLYqG6Yn_pad-19" x="64770" y="47940"/><use xlink:href="#V59BQGUzvJH_oLYqG6Yn_pad-19" x="59690" y="46040"/><use xlink:href="#V59BQGUzvJH_oLYqG6Yn_pad-19" x="59690" y="47940"/><use xlink:href="#V59BQGUzvJH_oLYqG6Yn_pad-20" x="59690" y="47940"/><use xlink:href="#V59BQGUzvJH_oLYqG6Yn_pad-21" x="67310" y="21590"/><use xlink:href="#V59BQGUzvJH_oLYqG6Yn_pad-21" x="69850" y="21590"/><path d="M 77075.1 55784.9 78024.9 55784.9 78024.9 55335.1 77075.1 55335.1 77075.1 55784.9 M 77075.1 55670.8 78024.9 55670.8 M 78024.9 54834.9 77075.1 54834.9 M 78024.9 54834.9 78024.9 54385.1 77075.1 54385.1 77075.1 54834.9 M 77075.1 54720.8 78024.9 54720.8 M 78024.9 53884.9 77075.1 53884.9 M 78024.9 53884.9 78024.9 53435.1 77075.1 53435.1 77075.1 53884.9 M 77075.1 53770.8 78024.9 53770.8 M 75324.9 53884.9 74375.1 53884.9 M 75324.9 53884.9 75324.9 53435.1 74375.1 53435.1 74375.1 53884.9 M 74375.1 53770.8 75324.9 53770.8 M 75324.9 54834.9 74375.1 54834.9 M 75324.9 54834.9 75324.9 54385.1 74375.1 54385.1 74375.1 54834.9 M 74375.1 54720.8 75324.9 54720.8 M 75324.9 55784.9 74375.1 55784.9 M 75324.9 55784.9 75324.9 55335.1 74375.1 55335.1 74375.1 55784.9 M 74375.1 55670.8 75324.9 55670.8" fill="none" stroke-width="353.406"/><use xlink:href="#V59BQGUzvJH_oLYqG6Yn_pad-22" x="70170" y="55880"/><use xlink:href="#V59BQGUzvJH_oLYqG6Yn_pad-22" x="72070" y="55880"/><use xlink:href="#V59BQGUzvJH_oLYqG6Yn_pad-22" x="70170" y="53340"/><use xlink:href="#V59BQGUzvJH_oLYqG6Yn_pad-22" x="72070" y="53340"/><path d="M 77075.1 50704.9 78024.9 50704.9 78024.9 50255.1 77075.1 50255.1 77075.1 50704.9 M 77075.1 50590.8 78024.9 50590.8 M 78024.9 49754.9 77075.1 49754.9 M 78024.9 49754.9 78024.9 49305.1 77075.1 49305.1 77075.1 49754.9 M 77075.1 49640.8 78024.9 49640.8 M 78024.9 48804.9 77075.1 48804.9 M 78024.9 48804.9 78024.9 48355.1 77075.1 48355.1 77075.1 48804.9 M 77075.1 48690.8 78024.9 48690.8 M 75324.9 48804.9 74375.1 48804.9 M 75324.9 48804.9 75324.9 48355.1 74375.1 48355.1 74375.1 48804.9 M 74375.1 48690.8 75324.9 48690.8 M 75324.9 49754.9 74375.1 49754.9 M 75324.9 49754.9 75324.9 49305.1 74375.1 49305.1 74375.1 49754.9 M 74375.1 49640.8 75324.9 49640.8 M 75324.9 50704.9 74375.1 50704.9 M 75324.9 50704.9 75324.9 50255.1 74375.1 50255.1 74375.1 50704.9 M 74375.1 50590.8 75324.9 50590.8" fill="none" stroke-width="353.406"/><use xlink:href="#V59BQGUzvJH_oLYqG6Yn_pad-22" x="80330" y="53340"/><use xlink:href="#V59BQGUzvJH_oLYqG6Yn_pad-22" x="82230" y="53340"/><use xlink:href="#V59BQGUzvJH_oLYqG6Yn_pad-22" x="80330" y="55880"/><use xlink:href="#V59BQGUzvJH_oLYqG6Yn_pad-22" x="82230" y="55880"/><use xlink:href="#V59BQGUzvJH_oLYqG6Yn_pad-23" x="21590" y="58420"/><use xlink:href="#V59BQGUzvJH_oLYqG6Yn_pad-23" x="77470" y="58420"/><use xlink:href="#V59BQGUzvJH_oLYqG6Yn_pad-24" x="77150" y="42514.9"/><use xlink:href="#V59BQGUzvJH_oLYqG6Yn_pad-24" x="76200" y="42514.9"/><use xlink:href="#V59BQGUzvJH_oLYqG6Yn_pad-24" x="75250" y="42514.9"/><use xlink:href="#V59BQGUzvJH_oLYqG6Yn_pad-24" x="75250" y="45115.1"/><use xlink:href="#V59BQGUzvJH_oLYqG6Yn_pad-24" x="77150" y="45115.1"/><use xlink:href="#V59BQGUzvJH_oLYqG6Yn_pad-19" x="79375" y="44765"/><use xlink:href="#V59BQGUzvJH_oLYqG6Yn_pad-19" x="79375" y="42865"/><use xlink:href="#V59BQGUzvJH_oLYqG6Yn_pad-22" x="35245" y="29845"/><use xlink:href="#V59BQGUzvJH_oLYqG6Yn_pad-22" x="37145" y="29845"/><use xlink:href="#V59BQGUzvJH_oLYqG6Yn_pad-25" x="20320" y="26670"/><use xlink:href="#V59BQGUzvJH_oLYqG6Yn_pad-21" x="22860" y="26670"/><use xlink:href="#V59BQGUzvJH_oLYqG6Yn_pad-21" x="25400" y="26670"/><use xlink:href="#V59BQGUzvJH_oLYqG6Yn_pad-21" x="27940" y="26670"/><use xlink:href="#V59BQGUzvJH_oLYqG6Yn_pad-21" x="30480" y="26670"/><use xlink:href="#V59BQGUzvJH_oLYqG6Yn_pad-21" x="33020" y="26670"/><use xlink:href="#V59BQGUzvJH_oLYqG6Yn_pad-21" x="35560" y="26670"/><use xlink:href="#V59BQGUzvJH_oLYqG6Yn_pad-21" x="38100" y="26670"/><use xlink:href="#V59BQGUzvJH_oLYqG6Yn_pad-25" x="76200" y="21590"/><use xlink:href="#V59BQGUzvJH_oLYqG6Yn_pad-21" x="73660" y="21590"/><use xlink:href="#V59BQGUzvJH_oLYqG6Yn_pad-21" x="76200" y="24130"/><use xlink:href="#V59BQGUzvJH_oLYqG6Yn_pad-21" x="73660" y="24130"/><use xlink:href="#V59BQGUzvJH_oLYqG6Yn_pad-21" x="76200" y="26670"/><use xlink:href="#V59BQGUzvJH_oLYqG6Yn_pad-21" x="73660" y="26670"/><use xlink:href="#V59BQGUzvJH_oLYqG6Yn_pad-21" x="76200" y="29210"/><use xlink:href="#V59BQGUzvJH_oLYqG6Yn_pad-21" x="73660" y="29210"/><use xlink:href="#V59BQGUzvJH_oLYqG6Yn_pad-21" x="76200" y="31750"/><use xlink:href="#V59BQGUzvJH_oLYqG6Yn_pad-21" x="73660" y="31750"/><use xlink:href="#V59BQGUzvJH_oLYqG6Yn_pad-21" x="76200" y="34290"/><use xlink:href="#V59BQGUzvJH_oLYqG6Yn_pad-21" x="73660" y="34290"/><use xlink:href="#V59BQGUzvJH_oLYqG6Yn_pad-21" x="76200" y="36830"/><use xlink:href="#V59BQGUzvJH_oLYqG6Yn_pad-21" x="73660" y="36830"/><use xlink:href="#V59BQGUzvJH_oLYqG6Yn_pad-21" x="12319" y="19685"/><use xlink:href="#V59BQGUzvJH_oLYqG6Yn_pad-21" x="12319" y="38735"/><use xlink:href="#V59BQGUzvJH_oLYqG6Yn_pad-26" x="65926" y="13081"/><use xlink:href="#V59BQGUzvJH_oLYqG6Yn_pad-27" x="7620" y="54610"/><use xlink:href="#V59BQGUzvJH_oLYqG6Yn_pad-27" x="7620" y="52070"/><use xlink:href="#V59BQGUzvJH_oLYqG6Yn_pad-27" x="7620" y="49530"/><use xlink:href="#V59BQGUzvJH_oLYqG6Yn_pad-20" x="15748" y="38740"/><use xlink:href="#V59BQGUzvJH_oLYqG6Yn_pad-21" x="27940" y="40640"/><use xlink:href="#V59BQGUzvJH_oLYqG6Yn_pad-21" x="30480" y="40640"/><use xlink:href="#V59BQGUzvJH_oLYqG6Yn_pad-21" x="33020" y="40640"/><use xlink:href="#V59BQGUzvJH_oLYqG6Yn_pad-21" x="35560" y="40640"/><use xlink:href="#V59BQGUzvJH_oLYqG6Yn_pad-13" x="43180" y="26924"/><use xlink:href="#V59BQGUzvJH_oLYqG6Yn_pad-13" x="44450" y="25654"/><use xlink:href="#V59BQGUzvJH_oLYqG6Yn_pad-13" x="43180" y="24384"/><use xlink:href="#V59BQGUzvJH_oLYqG6Yn_pad-13" x="43180" y="21082"/><use xlink:href="#V59BQGUzvJH_oLYqG6Yn_pad-13" x="44450" y="19812"/><use xlink:href="#V59BQGUzvJH_oLYqG6Yn_pad-13" x="43180" y="18542"/><use xlink:href="#V59BQGUzvJH_oLYqG6Yn_pad-19" x="44450" y="39055"/><use xlink:href="#V59BQGUzvJH_oLYqG6Yn_pad-19" x="44450" y="40955"/><use xlink:href="#V59BQGUzvJH_oLYqG6Yn_pad-19" x="46990" y="40955"/><use xlink:href="#V59BQGUzvJH_oLYqG6Yn_pad-19" x="46990" y="39055"/><use xlink:href="#V59BQGUzvJH_oLYqG6Yn_pad-20" x="46990" y="39055"/><path d="M 35464.9 60405.1 35464.9 61354.9 M 35464.9 60405.1 35015.1 60405.1 35015.1 61354.9 35464.9 61354.9 M 35464.9 60740.8 35015.1 60740.8 M 35015.1 61076.5 35464.9 61076.5 M 34514.9 61354.9 34514.9 60405.1 34065.1 60405.1 34065.1 61354.9 34514.9 61354.9 M 34514.9 60740.8 34065.1 60740.8 M 34065.1 61076.5 34514.9 61076.5 M 33564.9 61354.9 33564.9 60405.1 33115.1 60405.1 33115.1 61354.9 33564.9 61354.9 M 33564.9 60740.8 33115.1 60740.8 M 33115.1 61076.5 33564.9 61076.5 M 33564.9 63105.1 33564.9 64054.9 M 33564.9 63105.1 33115.1 63105.1 33115.1 64054.9 33564.9 64054.9 M 33564.9 63440.8 33115.1 63440.8 M 33115.1 63776.5 33564.9 63776.5 M 34514.9 64054.9 34514.9 63105.1 34065.1 63105.1 34065.1 64054.9 34514.9 64054.9 M 34514.9 63440.8 34065.1 63440.8 M 34065.1 63776.5 34514.9 63776.5 M 35464.9 64054.9 35464.9 63105.1 35015.1 63105.1 35015.1 64054.9 35464.9 64054.9 M 35464.9 63440.8 35015.1 63440.8 M 35015.1 63776.5 35464.9 63776.5" fill="none" stroke-width="353.406"/><use xlink:href="#V59BQGUzvJH_oLYqG6Yn_pad-28" x="35690" y="58166"/><use xlink:href="#V59BQGUzvJH_oLYqG6Yn_pad-28" x="32890" y="58166"/><use xlink:href="#V59BQGUzvJH_oLYqG6Yn_pad-28" x="35690" y="66294"/><use xlink:href="#V59BQGUzvJH_oLYqG6Yn_pad-28" x="32890" y="66294"/><use xlink:href="#V59BQGUzvJH_oLYqG6Yn_pad-22" x="51120" y="65659"/><use xlink:href="#V59BQGUzvJH_oLYqG6Yn_pad-22" x="53020" y="65659"/><use xlink:href="#V59BQGUzvJH_oLYqG6Yn_pad-29" x="49235" y="59690"/><use xlink:href="#V59BQGUzvJH_oLYqG6Yn_pad-29" x="53635" y="59690"/><use xlink:href="#V59BQGUzvJH_oLYqG6Yn_pad-30" x="42291" y="57830"/><use xlink:href="#V59BQGUzvJH_oLYqG6Yn_pad-30" x="42291" y="66630"/><use xlink:href="#V59BQGUzvJH_oLYqG6Yn_pad-19" x="52070" y="46040"/><use xlink:href="#V59BQGUzvJH_oLYqG6Yn_pad-19" x="52070" y="47940"/><use xlink:href="#V59BQGUzvJH_oLYqG6Yn_pad-19" x="49530" y="46040"/><use xlink:href="#V59BQGUzvJH_oLYqG6Yn_pad-19" x="49530" y="47940"/><use xlink:href="#V59BQGUzvJH_oLYqG6Yn_pad-12" x="79232" y="66040"/><use xlink:href="#V59BQGUzvJH_oLYqG6Yn_pad-12" x="77232" y="66040"/><use xlink:href="#V59BQGUzvJH_oLYqG6Yn_pad-12" x="43180" y="12970"/><use xlink:href="#V59BQGUzvJH_oLYqG6Yn_pad-12" x="43180" y="14970"/><use xlink:href="#V59BQGUzvJH_oLYqG6Yn_pad-21" x="64770" y="40640"/><use xlink:href="#V59BQGUzvJH_oLYqG6Yn_pad-21" x="62230" y="40640"/><use xlink:href="#V59BQGUzvJH_oLYqG6Yn_pad-21" x="59690" y="40640"/><use xlink:href="#V59BQGUzvJH_oLYqG6Yn_pad-21" x="57150" y="40640"/><use xlink:href="#V59BQGUzvJH_oLYqG6Yn_pad-21" x="54610" y="40640"/><use xlink:href="#V59BQGUzvJH_oLYqG6Yn_pad-21" x="52070" y="40640"/><use xlink:href="#V59BQGUzvJH_oLYqG6Yn_pad-31" x="51900" y="51816"/><use xlink:href="#V59BQGUzvJH_oLYqG6Yn_pad-31" x="49700" y="52766"/><use xlink:href="#V59BQGUzvJH_oLYqG6Yn_pad-31" x="49700" y="50866"/><use xlink:href="#V59BQGUzvJH_oLYqG6Yn_pad-31" x="46820" y="51816"/><use xlink:href="#V59BQGUzvJH_oLYqG6Yn_pad-31" x="44620" y="52766"/><use xlink:href="#V59BQGUzvJH_oLYqG6Yn_pad-31" x="44620" y="50866"/><use xlink:href="#V59BQGUzvJH_oLYqG6Yn_pad-19" x="44450" y="47940"/><use xlink:href="#V59BQGUzvJH_oLYqG6Yn_pad-19" x="44450" y="46040"/><use xlink:href="#V59BQGUzvJH_oLYqG6Yn_pad-22" x="47310" y="55245"/><use xlink:href="#V59BQGUzvJH_oLYqG6Yn_pad-22" x="49210" y="55245"/><use xlink:href="#V59BQGUzvJH_oLYqG6Yn_pad-19" x="46990" y="47940"/><use xlink:href="#V59BQGUzvJH_oLYqG6Yn_pad-19" x="46990" y="46040"/><use xlink:href="#V59BQGUzvJH_oLYqG6Yn_pad-27" x="77216" y="12700"/><use xlink:href="#V59BQGUzvJH_oLYqG6Yn_pad-27" x="74676" y="12700"/><use xlink:href="#V59BQGUzvJH_oLYqG6Yn_pad-27" x="79756" y="12700"/><use xlink:href="#V59BQGUzvJH_oLYqG6Yn_pad-32" x="76758.8" y="15240"/><use xlink:href="#V59BQGUzvJH_oLYqG6Yn_pad-32" x="78181.2" y="15240"/><use xlink:href="#V59BQGUzvJH_oLYqG6Yn_pad-33" x="77470" y="15240"/><use xlink:href="#V59BQGUzvJH_oLYqG6Yn_pad-34" x="13530" y="50800"/><use xlink:href="#V59BQGUzvJH_oLYqG6Yn_pad-34" x="85530" y="50800"/><use xlink:href="#V59BQGUzvJH_oLYqG6Yn_pad-20" x="87172.8" y="25654"/><use xlink:href="#V59BQGUzvJH_oLYqG6Yn_pad-20" x="88595.2" y="33274"/><use xlink:href="#V59BQGUzvJH_oLYqG6Yn_pad-20" x="87172.8" y="33274"/><use xlink:href="#V59BQGUzvJH_oLYqG6Yn_pad-20" x="88595.2" y="28194"/><use xlink:href="#V59BQGUzvJH_oLYqG6Yn_pad-20" x="88595.2" y="30734"/><use xlink:href="#V59BQGUzvJH_oLYqG6Yn_pad-21" x="31750" y="30480"/><use xlink:href="#V59BQGUzvJH_oLYqG6Yn_pad-21" x="29210" y="30480"/><use xlink:href="#V59BQGUzvJH_oLYqG6Yn_pad-21" x="26670" y="30480"/><use xlink:href="#V59BQGUzvJH_oLYqG6Yn_pad-21" x="24130" y="30480"/><use xlink:href="#V59BQGUzvJH_oLYqG6Yn_pad-12" x="17780" y="24400"/><use xlink:href="#V59BQGUzvJH_oLYqG6Yn_pad-12" x="17780" y="26400"/><use xlink:href="#V59BQGUzvJH_oLYqG6Yn_pad-27" x="58420" y="62357"/><use xlink:href="#V59BQGUzvJH_oLYqG6Yn_pad-27" x="60960" y="64897"/><use xlink:href="#V59BQGUzvJH_oLYqG6Yn_pad-27" x="63500" y="62357"/><use xlink:href="#V59BQGUzvJH_oLYqG6Yn_pad-12" x="45720" y="30766"/><use xlink:href="#V59BQGUzvJH_oLYqG6Yn_pad-12" x="45720" y="34766"/><use xlink:href="#V59BQGUzvJH_oLYqG6Yn_pad-12" x="45720" y="32766"/><use xlink:href="#V59BQGUzvJH_oLYqG6Yn_pad-21" x="59690" y="30480"/><use xlink:href="#V59BQGUzvJH_oLYqG6Yn_pad-21" x="57150" y="30480"/><use xlink:href="#V59BQGUzvJH_oLYqG6Yn_pad-21" x="54610" y="30480"/><use xlink:href="#V59BQGUzvJH_oLYqG6Yn_pad-21" x="52070" y="30480"/><use xlink:href="#V59BQGUzvJH_oLYqG6Yn_pad-20" x="69850" y="26350"/><use xlink:href="#V59BQGUzvJH_oLYqG6Yn_pad-20" x="67310" y="26350"/><use xlink:href="#V59BQGUzvJH_oLYqG6Yn_pad-19" x="41275" y="20762"/><use xlink:href="#V59BQGUzvJH_oLYqG6Yn_pad-19" x="41275" y="18862"/><use xlink:href="#V59BQGUzvJH_oLYqG6Yn_pad-12" x="35020" y="46990"/><use xlink:href="#V59BQGUzvJH_oLYqG6Yn_pad-12" x="31020" y="46990"/><use xlink:href="#V59BQGUzvJH_oLYqG6Yn_pad-12" x="33020" y="46990"/><use xlink:href="#V59BQGUzvJH_oLYqG6Yn_pad-12" x="37020" y="46990"/><use xlink:href="#V59BQGUzvJH_oLYqG6Yn_pad-12" x="29020" y="46990"/><use xlink:href="#V59BQGUzvJH_oLYqG6Yn_pad-35" x="7620" y="31250"/><use xlink:href="#V59BQGUzvJH_oLYqG6Yn_pad-35" x="7620" y="32250"/><use xlink:href="#V59BQGUzvJH_oLYqG6Yn_pad-36" x="11495" y="28950"/><use xlink:href="#V59BQGUzvJH_oLYqG6Yn_pad-36" x="11495" y="34550"/><use xlink:href="#V59BQGUzvJH_oLYqG6Yn_pad-35" x="7620" y="30250"/><use xlink:href="#V59BQGUzvJH_oLYqG6Yn_pad-35" x="7620" y="33250"/><use xlink:href="#V59BQGUzvJH_oLYqG6Yn_pad-12" x="21320" y="46990"/><use xlink:href="#V59BQGUzvJH_oLYqG6Yn_pad-12" x="17320" y="46990"/><use xlink:href="#V59BQGUzvJH_oLYqG6Yn_pad-12" x="19320" y="46990"/><use xlink:href="#V59BQGUzvJH_oLYqG6Yn_pad-12" x="23320" y="46990"/><use xlink:href="#V59BQGUzvJH_oLYqG6Yn_pad-12" x="79105" y="18034"/><use xlink:href="#V59BQGUzvJH_oLYqG6Yn_pad-12" x="77105" y="18034"/><use xlink:href="#V59BQGUzvJH_oLYqG6Yn_pad-20" x="88595.2" y="23114"/><use xlink:href="#V59BQGUzvJH_oLYqG6Yn_pad-37" x="73025" y="45215"/><use xlink:href="#V59BQGUzvJH_oLYqG6Yn_pad-37" x="73025" y="42415"/><use xlink:href="#V59BQGUzvJH_oLYqG6Yn_pad-12" x="11597" y="56564"/><use xlink:href="#V59BQGUzvJH_oLYqG6Yn_pad-12" x="14097" y="56564"/><use xlink:href="#V59BQGUzvJH_oLYqG6Yn_pad-12" x="16597" y="56564"/><use xlink:href="#V59BQGUzvJH_oLYqG6Yn_pad-12" x="16597" y="53164"/><use xlink:href="#V59BQGUzvJH_oLYqG6Yn_pad-12" x="14097" y="53164"/><use xlink:href="#V59BQGUzvJH_oLYqG6Yn_pad-12" x="11597" y="53164"/><use xlink:href="#V59BQGUzvJH_oLYqG6Yn_pad-38" x="10597" y="53864"/><use xlink:href="#V59BQGUzvJH_oLYqG6Yn_pad-38" x="10597" y="55864"/><use xlink:href="#V59BQGUzvJH_oLYqG6Yn_pad-38" x="17597" y="53864"/><use xlink:href="#V59BQGUzvJH_oLYqG6Yn_pad-38" x="17597" y="55864"/><use xlink:href="#V59BQGUzvJH_oLYqG6Yn_pad-12" x="92964" y="54340"/><use xlink:href="#V59BQGUzvJH_oLYqG6Yn_pad-12" x="92964" y="52340"/><use xlink:href="#V59BQGUzvJH_oLYqG6Yn_pad-19" x="41910" y="47940"/><use xlink:href="#V59BQGUzvJH_oLYqG6Yn_pad-19" x="41910" y="46040"/><use xlink:href="#V59BQGUzvJH_oLYqG6Yn_pad-39" x="71120" y="48818.8"/><use xlink:href="#V59BQGUzvJH_oLYqG6Yn_pad-39" x="71120" y="50241.2"/><use xlink:href="#V59BQGUzvJH_oLYqG6Yn_pad-40" x="71120" y="49530"/><use xlink:href="#V59BQGUzvJH_oLYqG6Yn_pad-39" x="69215" y="50241.2"/><use xlink:href="#V59BQGUzvJH_oLYqG6Yn_pad-39" x="69215" y="48818.8"/><use xlink:href="#V59BQGUzvJH_oLYqG6Yn_pad-40" x="69215" y="49530"/><use xlink:href="#V59BQGUzvJH_oLYqG6Yn_pad-41" x="53340" y="23375"/><use xlink:href="#V59BQGUzvJH_oLYqG6Yn_pad-41" x="52390" y="21075"/><use xlink:href="#V59BQGUzvJH_oLYqG6Yn_pad-41" x="54290" y="21075"/><use xlink:href="#V59BQGUzvJH_oLYqG6Yn_pad-19" x="64135" y="18100"/><use xlink:href="#V59BQGUzvJH_oLYqG6Yn_pad-19" x="64135" y="20000"/><use xlink:href="#V59BQGUzvJH_oLYqG6Yn_pad-42" x="46390" y="18415"/><use xlink:href="#V59BQGUzvJH_oLYqG6Yn_pad-42" x="47590" y="18415"/><use xlink:href="#V59BQGUzvJH_oLYqG6Yn_pad-19" x="59055" y="18100"/><use xlink:href="#V59BQGUzvJH_oLYqG6Yn_pad-19" x="59055" y="20000"/><use xlink:href="#V59BQGUzvJH_oLYqG6Yn_pad-19" x="61595" y="18100"/><use xlink:href="#V59BQGUzvJH_oLYqG6Yn_pad-19" x="61595" y="20000"/><use xlink:href="#V59BQGUzvJH_oLYqG6Yn_pad-11" x="46610" y="22860"/><use xlink:href="#V59BQGUzvJH_oLYqG6Yn_pad-11" x="49910" y="22860"/><use xlink:href="#V59BQGUzvJH_oLYqG6Yn_pad-19" x="50165" y="20000"/><use xlink:href="#V59BQGUzvJH_oLYqG6Yn_pad-19" x="50165" y="18100"/><use xlink:href="#V59BQGUzvJH_oLYqG6Yn_pad-19" x="56515" y="20000"/><use xlink:href="#V59BQGUzvJH_oLYqG6Yn_pad-19" x="56515" y="18100"/><use xlink:href="#V59BQGUzvJH_oLYqG6Yn_pad-19" x="81915" y="42865"/><use xlink:href="#V59BQGUzvJH_oLYqG6Yn_pad-19" x="81915" y="44765"/><use xlink:href="#V59BQGUzvJH_oLYqG6Yn_pad-12" x="23035" y="20320"/><use xlink:href="#V59BQGUzvJH_oLYqG6Yn_pad-12" x="27035" y="20320"/><use xlink:href="#V59BQGUzvJH_oLYqG6Yn_pad-12" x="25035" y="20320"/><use xlink:href="#V59BQGUzvJH_oLYqG6Yn_pad-12" x="21035" y="20320"/><use xlink:href="#V59BQGUzvJH_oLYqG6Yn_pad-12" x="29035" y="20320"/><use xlink:href="#V59BQGUzvJH_oLYqG6Yn_pad-12" x="31035" y="20320"/><use xlink:href="#V59BQGUzvJH_oLYqG6Yn_pad-39" x="49530" y="39293.8"/><use xlink:href="#V59BQGUzvJH_oLYqG6Yn_pad-39" x="49530" y="40716.2"/><use xlink:href="#V59BQGUzvJH_oLYqG6Yn_pad-40" x="49530" y="40005"/><use xlink:href="#V59BQGUzvJH_oLYqG6Yn_pad-39" x="45720" y="15951.2"/><use xlink:href="#V59BQGUzvJH_oLYqG6Yn_pad-39" x="45720" y="14528.8"/><use xlink:href="#V59BQGUzvJH_oLYqG6Yn_pad-40" x="45720" y="15240"/><use xlink:href="#V59BQGUzvJH_oLYqG6Yn_pad-22" x="53020" y="63119"/><use xlink:href="#V59BQGUzvJH_oLYqG6Yn_pad-22" x="51120" y="63119"/><use xlink:href="#V59BQGUzvJH_oLYqG6Yn_pad-43" x="31750" y="62611"/><use xlink:href="#V59BQGUzvJH_oLYqG6Yn_pad-43" x="31750" y="61341"/><use xlink:href="#V59BQGUzvJH_oLYqG6Yn_pad-43" x="31750" y="60071"/><use xlink:href="#V59BQGUzvJH_oLYqG6Yn_pad-43" x="51435" y="60960"/><use xlink:href="#V59BQGUzvJH_oLYqG6Yn_pad-43" x="37084" y="63881"/><use xlink:href="#V59BQGUzvJH_oLYqG6Yn_pad-43" x="57150" y="58420"/><use xlink:href="#V59BQGUzvJH_oLYqG6Yn_pad-43" x="60960" y="58420"/><use xlink:href="#V59BQGUzvJH_oLYqG6Yn_pad-43" x="64770" y="66040"/><use xlink:href="#V59BQGUzvJH_oLYqG6Yn_pad-43" x="64770" y="63500"/><use xlink:href="#V59BQGUzvJH_oLYqG6Yn_pad-43" x="57150" y="65405"/><use xlink:href="#V59BQGUzvJH_oLYqG6Yn_pad-43" x="60960" y="60960"/><use xlink:href="#V59BQGUzvJH_oLYqG6Yn_pad-43" x="64770" y="58420"/><use xlink:href="#V59BQGUzvJH_oLYqG6Yn_pad-43" x="64770" y="60960"/><use xlink:href="#V59BQGUzvJH_oLYqG6Yn_pad-43" x="47244" y="66675"/><use xlink:href="#V59BQGUzvJH_oLYqG6Yn_pad-43" x="48514" y="62230"/><use xlink:href="#V59BQGUzvJH_oLYqG6Yn_pad-43" x="37465" y="58420"/><use xlink:href="#V59BQGUzvJH_oLYqG6Yn_pad-43" x="22860" y="62230"/><use xlink:href="#V59BQGUzvJH_oLYqG6Yn_pad-43" x="8890" y="46355"/><use xlink:href="#V59BQGUzvJH_oLYqG6Yn_pad-43" x="38735" y="66675"/><use xlink:href="#V59BQGUzvJH_oLYqG6Yn_pad-43" x="9144" y="31250"/><use xlink:href="#V59BQGUzvJH_oLYqG6Yn_pad-43" x="80518" y="47117"/><use xlink:href="#V59BQGUzvJH_oLYqG6Yn_pad-43" x="81915" y="57785"/><use xlink:href="#V59BQGUzvJH_oLYqG6Yn_pad-43" x="69850" y="57785"/><use xlink:href="#V59BQGUzvJH_oLYqG6Yn_pad-43" x="53340" y="18100"/><use xlink:href="#V59BQGUzvJH_oLYqG6Yn_pad-43" x="62230" y="66040"/><use xlink:href="#V59BQGUzvJH_oLYqG6Yn_pad-43" x="59690" y="63500"/><use xlink:href="#V59BQGUzvJH_oLYqG6Yn_pad-43" x="24130" y="64770"/><use xlink:href="#V59BQGUzvJH_oLYqG6Yn_pad-43" x="77724" y="46990"/><use xlink:href="#V59BQGUzvJH_oLYqG6Yn_pad-43" x="85725" y="35560"/><use xlink:href="#V59BQGUzvJH_oLYqG6Yn_pad-43" x="57150" y="42037"/><use xlink:href="#V59BQGUzvJH_oLYqG6Yn_pad-43" x="62611" y="24130"/><use xlink:href="#V59BQGUzvJH_oLYqG6Yn_pad-43" x="61430" y="24130"/><use xlink:href="#V59BQGUzvJH_oLYqG6Yn_pad-43" x="80264" y="35687"/><use xlink:href="#V59BQGUzvJH_oLYqG6Yn_pad-43" x="84455" y="37084"/><use xlink:href="#V59BQGUzvJH_oLYqG6Yn_pad-43" x="81280" y="49911"/><use xlink:href="#V59BQGUzvJH_oLYqG6Yn_pad-43" x="6350" y="46355"/><use xlink:href="#V59BQGUzvJH_oLYqG6Yn_pad-43" x="67310" y="54229"/><use xlink:href="#V59BQGUzvJH_oLYqG6Yn_pad-43" x="81915" y="23114"/><use xlink:href="#V59BQGUzvJH_oLYqG6Yn_pad-43" x="33020" y="35052"/><use xlink:href="#V59BQGUzvJH_oLYqG6Yn_pad-43" x="77470" y="27940"/><use xlink:href="#V59BQGUzvJH_oLYqG6Yn_pad-43" x="74930" y="46990"/><use xlink:href="#V59BQGUzvJH_oLYqG6Yn_pad-43" x="52070" y="43561"/><use xlink:href="#V59BQGUzvJH_oLYqG6Yn_pad-43" x="30480" y="33655"/><use xlink:href="#V59BQGUzvJH_oLYqG6Yn_pad-43" x="52070" y="55880"/><use xlink:href="#V59BQGUzvJH_oLYqG6Yn_pad-43" x="45720" y="49530"/><use xlink:href="#V59BQGUzvJH_oLYqG6Yn_pad-43" x="63500" y="49530"/><use xlink:href="#V59BQGUzvJH_oLYqG6Yn_pad-43" x="80899" y="40767"/><use xlink:href="#V59BQGUzvJH_oLYqG6Yn_pad-43" x="78994" y="27940"/><use xlink:href="#V59BQGUzvJH_oLYqG6Yn_pad-43" x="72390" y="51816"/><use xlink:href="#V59BQGUzvJH_oLYqG6Yn_pad-43" x="24130" y="59690"/><use xlink:href="#V59BQGUzvJH_oLYqG6Yn_pad-43" x="57150" y="24130"/><use xlink:href="#V59BQGUzvJH_oLYqG6Yn_pad-43" x="52390" y="19050"/><use xlink:href="#V59BQGUzvJH_oLYqG6Yn_pad-43" x="49657" y="32385"/><use xlink:href="#V59BQGUzvJH_oLYqG6Yn_pad-43" x="69215" y="30480"/><use xlink:href="#V59BQGUzvJH_oLYqG6Yn_pad-43" x="56515" y="33020"/><use xlink:href="#V59BQGUzvJH_oLYqG6Yn_pad-43" x="48133" y="31623"/><use xlink:href="#V59BQGUzvJH_oLYqG6Yn_pad-43" x="48895" y="33655"/><use xlink:href="#V59BQGUzvJH_oLYqG6Yn_pad-43" x="69215" y="34290"/><use xlink:href="#V59BQGUzvJH_oLYqG6Yn_pad-43" x="55245" y="34290"/></g></svg>