<svg version="1.1" xmlns="http://www.w3.org/2000/svg" xmlns:xlink="http://www.w3.org/1999/xlink" stroke-linecap="round" stroke-linejoin="round" stroke-width="0" fill-rule="evenodd" clip-rule="evenodd" id="apb5zZgjsCQObV-Vo95N_bottom" viewBox="8000 9500 80000 62500" width="80mm" height="62.5mm" class="w-100 h-100"><defs><style>.apb5zZgjsCQObV-Vo95N_fr4 {color: #666666;}
.apb5zZgjsCQObV-Vo95N_cu {color: #cccccc;}
.apb5zZgjsCQObV-Vo95N_cf {color: #c0c0c0;}
.apb5zZgjsCQObV-Vo95N_sm {color: #000000; opacity: 0.75;}
.apb5zZgjsCQObV-Vo95N_ss {color: #ffffff;}
.apb5zZgjsCQObV-Vo95N_sp {color: #999999;}
.apb5zZgjsCQObV-Vo95N_out {color: #000000;}</style><rect x="-431.8" y="-381" width="863.6" height="762" id="MERLnKrCqrAtT5tB-mea_pad-10"/><mask id="QcBdwoIbmhfI4GVIsM8i_clear-1" fill="#000" stroke="#000"><g><rect x="13893.9" y="32943.9" width="21742.2" height="33934.2" fill="#fff"/><path d="M 22767.2 35029.3 22767.2 35029.3 22456.3 35340.2 22456.3 35556.1 22454.9 35565.2 22454.1 35574.2 22452.9 35577.2 22452.4 35580.4 22448.1 35588.5 22444.5 35596.9 22441.9 35600.1 22440.8 35602.2 22438.5 35604.4 22434 35610 21869.3 36174.7 21869.3 52278.7 21867.9 52287.7 21867.1 52296.8 21865.9 52299.7 21865.4 52302.9 21863.1 52307.1 21863 52307.6 21861.7 52309.8 21861.1 52311 21857.5 52319.4 21854.9 52322.6 21853.8 52324.7 21851.5 52326.9 21850.4 52328.7 21849.2 52329.7 21847 52332.5 21694.3 52485.2 21694.3 52924.8 22005.2 53235.7 22221.1 53235.7 22230.2 53237.1 22239.2 53237.9 22242.2 53239.1 22245.4 53239.6 22253.5 53243.9 22261.9 53247.5 22265.1 53250.1 22267.2 53251.2 22269.4 53253.5 22275 53258 23982.7 54965.7 24028.4 54965.7 24030.4 54966 24032.3 54965.8 24042.5 54968 24052.7 54969.6 24054.4 54970.6 24056.4 54971 24065.3 54976.3 24074.4 54981.2 24075.8 54982.6 24077.5 54983.6 24084.2 54991.5 24091.4 54999 24092.2 55000.8 24093.5 55002.3 24097.4 55011.9 24101.7 55021.3 24101.9 55023.3 24102.7 55025.1 24104.5 55041.8 24104.5 55054.2 24193.8 55143.5 25183.8 55143.5 25273.1 55054.2 25273.1 54165.8 25183.8 54076.5 24191.5 54076.5 24188.9 54078.2 24180.5 54084.2 24178.6 54084.8 24177 54085.9 24166.9 54088.4 24157 54091.4 24155 54091.4 24153.1 54091.9 24142.8 54091.1 24132.4 54090.8 24130.6 54090.1 24128.6 54090 24119.1 54085.9 24109.3 54082.4 24107.8 54081.1 24106 54080.3 24092.9 54069.9 22778 52755 22772.7 52747.6 22766.7 52740.6 22765.5 52737.6 22763.6 52735 22760.9 52726.3 22757.5 52717.8 22757.1 52713.7 22756.4 52711.5 22756.5 52708.3 22755.7 52701.1 22755.7 52485.2 22603 52332.5 22598.6 52326.5 22594.8 52322.4 22594.1 52321 22591.7 52318.1 22590.5 52315.1 22588.6 52312.5 22585.9 52303.8 22582.5 52295.3 22582.1 52291.2 22581.4 52289 22581.5 52285.8 22580.7 52278.7 22580.7 36500.9 22582.1 36491.8 22582.9 36482.8 22584.1 36479.8 22584.6 36476.6 22588.9 36468.5 22592.5 36460.1 22595.1 36456.9 22596.2 36454.8 22598.5 36452.6 22603 36447 22937 36113 22944.4 36107.7 22951.4 36101.7 22954.4 36100.5 22957 36098.6 22965.7 36095.9 22974.2 36092.5 22978.3 36092.1 22980.5 36091.4 22983.7 36091.5 22990.9 36090.7 23206.8 36090.7 23517.7 35779.8 23517.7 35340.2 23206.8 35029.3 22767.2 35029.3"/></g></mask><mask id="QcBdwoIbmhfI4GVIsM8i_clear-2" fill="#000" stroke="#000"><g><rect x="13893.9" y="32943.9" width="21742.2" height="33934.2" fill="#fff"/><path d="M 33048.4 43027.5 33048.4 43027.5 32758.9 43147.4 32537.4 43368.9 32417.5 43658.4 32417.5 43971.6 32537.4 44261.1 32758.9 44482.6 33048.4 44602.5 33361.6 44602.5 33651.1 44482.6 33872.6 44261.1 33992.5 43971.6 33992.5 43658.4 33872.6 43368.9 33651.1 43147.4 33361.6 43027.5 33048.4 43027.5"/></g></mask><mask id="QcBdwoIbmhfI4GVIsM8i_clear-3" fill="#000" stroke="#000"><g><rect x="13893.9" y="32943.9" width="21742.2" height="33934.2" fill="#fff"/><path d="M 30508.4 45567.5 30508.4 45567.5 30218.9 45687.4 29997.4 45908.9 29877.5 46198.4 29877.5 46511.6 29997.4 46801.1 30218.9 47022.6 30508.4 47142.5 30821.6 47142.5 31111.1 47022.6 31332.6 46801.1 31452.5 46511.6 31452.5 46198.4 31332.6 45908.9 31111.1 45687.4 30821.6 45567.5 30508.4 45567.5"/></g></mask><mask id="QcBdwoIbmhfI4GVIsM8i_clear-4" fill="#000" stroke="#000"><g><rect x="13893.9" y="32943.9" width="21742.2" height="33934.2" fill="#fff"/><path d="M 25257.8 63055 25257.8 63055 24995 63163.9 24793.9 63365 24685 63627.8 24685 63912.2 24793.9 64175 24995 64376.1 25257.8 64485 25542.2 64485 25805 64376.1 26006.1 64175 26115 63912.2 26115 63627.8 26006.1 63365 25805 63163.9 25542.2 63055 25257.8 63055"/></g></mask><mask id="QcBdwoIbmhfI4GVIsM8i_clear-5" fill="#000" stroke="#000"><g><rect x="13893.9" y="32943.9" width="21742.2" height="33934.2" fill="#fff"/><path d="M 33357.3 49047.3 33357.3 49047.3 33357.3 49771.2 33464.3 49749.9 33626.1 49682.9 33771.8 49585.6 33895.6 49461.8 33992.9 49316.1 34059.9 49154.3 34081.2 49047.3 33357.3 49047.3"/></g></mask><mask id="QcBdwoIbmhfI4GVIsM8i_clear-6" fill="#000" stroke="#000"><g><rect x="13893.9" y="32943.9" width="21742.2" height="33934.2" fill="#fff"/><path d="M 33357.3 48742.7 33357.3 48742.7 34081.2 48742.7 34059.9 48635.7 33992.9 48473.9 33895.6 48328.2 33771.8 48204.4 33626.1 48107.1 33464.3 48040.1 33357.3 48018.8 33357.3 48742.7"/></g></mask><mask id="QcBdwoIbmhfI4GVIsM8i_clear-7" fill="#000" stroke="#000"><g><rect x="13893.9" y="32943.9" width="21742.2" height="33934.2" fill="#fff"/><path d="M 32328.8 49047.3 32328.8 49047.3 32350.1 49154.3 32417.1 49316.1 32514.4 49461.8 32638.2 49585.6 32783.9 49682.9 32945.7 49749.9 33052.7 49771.2 33052.7 49047.3 32328.8 49047.3"/></g></mask><mask id="QcBdwoIbmhfI4GVIsM8i_clear-8" fill="#000" stroke="#000"><g><rect x="13893.9" y="32943.9" width="21742.2" height="33934.2" fill="#fff"/><path d="M 32945.7 48040.1 32945.7 48040.1 32783.9 48107.1 32638.2 48204.4 32514.4 48328.2 32417.1 48473.9 32350.1 48635.7 32328.8 48742.7 33052.7 48742.7 33052.7 48018.8 32945.7 48040.1"/></g></mask><mask id="QcBdwoIbmhfI4GVIsM8i_clear-9" fill="#000" stroke="#000"><g><rect x="13893.9" y="32943.9" width="21742.2" height="33934.2" fill="#fff"/><path d="M 25552.3 65922.3 25552.3 65922.3 25552.3 66572.3 25638.2 66555.2 25786.8 66493.6 25920.5 66404.3 26034.3 66290.5 26123.6 66156.8 26185.2 66008.2 26202.3 65922.3 25552.3 65922.3"/></g></mask><mask id="QcBdwoIbmhfI4GVIsM8i_clear-10" fill="#000" stroke="#000"><g><rect x="13893.9" y="32943.9" width="21742.2" height="33934.2" fill="#fff"/><path d="M 24597.7 65922.3 24597.7 65922.3 24614.8 66008.2 24676.4 66156.8 24765.7 66290.5 24879.5 66404.3 25013.2 66493.6 25161.8 66555.2 25247.7 66572.3 25247.7 65922.3 24597.7 65922.3"/></g></mask><mask id="QcBdwoIbmhfI4GVIsM8i_clear-11" fill="#000" stroke="#000"><g><rect x="13893.9" y="32943.9" width="21742.2" height="33934.2" fill="#fff"/><path d="M 25552.3 65617.7 25552.3 65617.7 26202.3 65617.7 26185.2 65531.8 26123.6 65383.2 26034.3 65249.5 25920.5 65135.7 25786.8 65046.4 25638.2 64984.8 25552.3 64967.7 25552.3 65617.7"/></g></mask><mask id="QcBdwoIbmhfI4GVIsM8i_clear-12" fill="#000" stroke="#000"><g><rect x="13893.9" y="32943.9" width="21742.2" height="33934.2" fill="#fff"/><path d="M 25161.8 64984.8 25161.8 64984.8 25013.2 65046.4 24879.5 65135.7 24765.7 65249.5 24676.4 65383.2 24614.8 65531.8 24597.7 65617.7 25247.7 65617.7 25247.7 64967.7 25161.8 64984.8"/></g></mask><mask id="QcBdwoIbmhfI4GVIsM8i_clear-13" fill="#000" stroke="#000"><g><rect x="13893.9" y="32943.9" width="21742.2" height="33934.2" fill="#fff"/><path d="M 25399.9 65769.9 25399.9 65769.9 25399.9 65770.1 25400.1 65770.1 25400.1 65769.9 25399.9 65769.9"/></g></mask><mask id="QcBdwoIbmhfI4GVIsM8i_clear-14" fill="#000" stroke="#000"><g><rect x="13893.9" y="32943.9" width="21742.2" height="33934.2" fill="#fff"/><path d="M 33204.9 48894.9 33204.9 48894.9 33204.9 48895.1 33205.1 48895.1 33205.1 48894.9 33204.9 48894.9"/></g></mask><circle cx="0" cy="0" r="637.5" id="QcBdwoIbmhfI4GVIsM8i_pad-10"/><circle cx="0" cy="0" r="857.25" id="QcBdwoIbmhfI4GVIsM8i_pad-11"/><circle cx="0" cy="0" r="562.5" id="QcBdwoIbmhfI4GVIsM8i_pad-12"/><circle cx="0" cy="0" r="635" id="QcBdwoIbmhfI4GVIsM8i_pad-13"/><rect x="-431.8" y="-381" width="863.6" height="762" id="QcBdwoIbmhfI4GVIsM8i_pad-14"/><circle cx="0" cy="0" r="378.2" id="QcBdwoIbmhfI4GVIsM8i_pad-17"/><circle cx="0" cy="0" r="739.1" id="RR8P5plnurNQspZMIgwB_pad-10"/><circle cx="0" cy="0" r="958.85" id="RR8P5plnurNQspZMIgwB_pad-11"/><circle cx="0" cy="0" r="1625.6" id="RR8P5plnurNQspZMIgwB_pad-12"/><circle cx="0" cy="0" r="2101.6" id="RR8P5plnurNQspZMIgwB_pad-13"/><circle cx="0" cy="0" r="664.1" id="RR8P5plnurNQspZMIgwB_pad-14"/><circle cx="0" cy="0" r="736.6" id="RR8P5plnurNQspZMIgwB_pad-15"/><rect x="-533.4" y="-482.6" width="1066.8" height="965.2" id="RR8P5plnurNQspZMIgwB_pad-16"/><rect x="-177.8" y="-482.6" width="355.6" height="965.2" id="RR8P5plnurNQspZMIgwB_pad-17"/><circle cx="0" cy="0" r="479.8" id="RR8P5plnurNQspZMIgwB_pad-19"/><circle cx="0" cy="0" r="2000" id="QJPdZkLU-TS9pWa0Dlvn_pad-1"/><circle cx="0" cy="0" r="1524" id="QJPdZkLU-TS9pWa0Dlvn_pad-2"/><circle cx="0" cy="0" r="571.5" id="QJPdZkLU-TS9pWa0Dlvn_pad-3"/><circle cx="0" cy="0" r="425" id="QJPdZkLU-TS9pWa0Dlvn_pad-4"/><circle cx="0" cy="0" r="375" id="QJPdZkLU-TS9pWa0Dlvn_pad-5"/><circle cx="0" cy="0" r="305" id="QJPdZkLU-TS9pWa0Dlvn_pad-6"/><circle cx="0" cy="0" r="300" id="QJPdZkLU-TS9pWa0Dlvn_pad-7"/><circle cx="0" cy="0" r="175" id="QJPdZkLU-TS9pWa0Dlvn_pad-8"/><g id="apb5zZgjsCQObV-Vo95N_bottom_solderpaste"><use xlink:href="#MERLnKrCqrAtT5tB-mea_pad-10" x="26111.2" y="54610"/><use xlink:href="#MERLnKrCqrAtT5tB-mea_pad-10" x="24688.8" y="54610"/></g><g id="apb5zZgjsCQObV-Vo95N_bottom_copper"><g mask="url(#QcBdwoIbmhfI4GVIsM8i_clear-14)"><g mask="url(#QcBdwoIbmhfI4GVIsM8i_clear-13)"><g mask="url(#QcBdwoIbmhfI4GVIsM8i_clear-12)"><g mask="url(#QcBdwoIbmhfI4GVIsM8i_clear-11)"><g mask="url(#QcBdwoIbmhfI4GVIsM8i_clear-10)"><g mask="url(#QcBdwoIbmhfI4GVIsM8i_clear-9)"><g mask="url(#QcBdwoIbmhfI4GVIsM8i_clear-8)"><g mask="url(#QcBdwoIbmhfI4GVIsM8i_clear-7)"><g mask="url(#QcBdwoIbmhfI4GVIsM8i_clear-6)"><g mask="url(#QcBdwoIbmhfI4GVIsM8i_clear-5)"><g mask="url(#QcBdwoIbmhfI4GVIsM8i_clear-4)"><g mask="url(#QcBdwoIbmhfI4GVIsM8i_clear-3)"><g mask="url(#QcBdwoIbmhfI4GVIsM8i_clear-2)"><g mask="url(#QcBdwoIbmhfI4GVIsM8i_clear-1)"><path d="M 24132 32944.2 24132 32944.2 24133.9 32944 24144.1 32946.2 24154.3 32947.9 24156 32948.8 24158 32949.2 24166.9 32954.5 24176 32959.4 24177.4 32960.8 24179.1 32961.8 24185.8 32969.7 24193 32977.2 24193.8 32979 24195.1 32980.5 24199 32990.1 24203.3 32999.5 24203.5 33001.5 24204.3 33003.3 24206.1 33020 24206.1 40817.9 35560 40817.9 35562 40818.2 35563.9 40818 35574.1 40820.2 35584.3 40821.9 35586 40822.8 35588 40823.2 35596.9 40828.5 35606 40833.4 35607.4 40834.8 35609.1 40835.8 35615.8 40843.7 35623 40851.2 35623.8 40853 35625.1 40854.5 35629 40864.1 35633.3 40873.5 35633.5 40875.5 35634.3 40877.3 35636.1 40894 35636.1 51308 35635.8 51310 35636 51311.9 35633.8 51322.1 35632.2 51332.3 35631.2 51334 35630.8 51336 35625.5 51344.9 35620.6 51354 35619.2 51355.4 35618.2 51357.1 35610.3 51363.8 35602.8 51371 35601 51371.8 35599.5 51373.1 35589.9 51377 35580.5 51381.3 35578.5 51381.5 35576.7 51382.3 35560 51384.1 30556.1 51384.1 30556.1 62230 30554.7 62239 30553.9 62248.1 30552.7 62251.1 30552.2 62254.3 30547.9 62262.3 30544.3 62270.7 30541.7 62273.9 30540.6 62276 30538.3 62278.2 30533.8 62283.8 29695.6 63122 29689.8 63126.2 29684.6 63131.2 29679.9 63133.4 29675.7 63136.4 29668.8 63138.5 29662.3 63141.5 29657.1 63142.1 29652.1 63143.6 29645 63143.4 29637.9 63144.2 29632.8 63143.1 29627.6 63143 29620.8 63140.5 29613.8 63139 29609.3 63136.3 29604.5 63134.5 29598.9 63130.1 29592.7 63126.4 29589.3 63122.4 29585.3 63119.2 29581.4 63113.1 29576.7 63107.7 29574.8 63102.9 29572 63098.5 29570.2 63091.5 29567.5 63084.9 29566.7 63077.7 29565.9 63074.6 29566.1 63072.3 29565.7 63068.2 29565.7 58211.3 29567.1 58202.3 29567.9 58193.2 29569.1 58190.3 29569.6 58187.1 29573.9 58179 29577.5 58170.6 29580.1 58167.4 29581.2 58165.3 29583.5 58163.1 29588 58157.5 29740.7 58004.8 29740.7 57565.2 29429.8 57254.3 29213.9 57254.3 29204.8 57252.9 29195.8 57252.1 29192.8 57250.9 29189.6 57250.4 29181.5 57246.1 29173.1 57242.5 29169.9 57239.9 29167.8 57238.8 29165.6 57236.5 29160 57232 26717.8 54789.8 26712.5 54782.4 26706.5 54775.4 26705.3 54772.4 26703.4 54769.8 26700.7 54761.1 26697.3 54752.6 26696.9 54748.5 26696.2 54746.3 26696.3 54743.1 26695.5 54735.9 26695.5 54165.8 26606.2 54076.5 25616.2 54076.5 25526.9 54165.8 25526.9 55054.2 25616.2 55143.5 26033.9 55143.5 26043 55144.9 26052 55145.7 26055 55146.9 26058.2 55147.4 26066.3 55151.7 26074.7 55155.3 26077.9 55157.9 26080 55159 26082.2 55161.3 26087.8 55165.8 28657 57735 28662.3 57742.4 28668.3 57749.4 28669.5 57752.4 28671.4 57755 28674.1 57763.7 28677.5 57772.2 28677.9 57776.3 28678.6 57778.5 28678.5 57781.7 28679.3 57788.9 28679.3 58004.8 28832 58157.5 28837.3 58164.9 28843.3 58171.9 28844.5 58174.9 28846.4 58177.5 28849.1 58186.2 28852.5 58194.7 28852.9 58198.8 28853.6 58201 28853.5 58204.2 28854.3 58211.3 28854.3 63781.1 28852.9 63790.2 28852.1 63799.2 28850.9 63802.2 28850.4 63805.4 28846.1 63813.5 28842.5 63821.9 28839.9 63825.1 28838.8 63827.2 28836.5 63829.4 28832 63835 25811.2 66855.8 25803.8 66861.1 25796.8 66867.1 25793.8 66868.3 25791.2 66870.2 25782.5 66872.9 25774 66876.3 25769.9 66876.7 25767.7 66877.4 25764.5 66877.3 25757.3 66878.1 24892 66878.1 24883 66876.7 24873.9 66875.9 24870.9 66874.7 24867.7 66874.2 24859.7 66869.9 24851.3 66866.3 24848.1 66863.7 24846 66862.6 24843.8 66860.3 24838.2 66855.8 22806.2 64823.8 22800.9 64816.4 22794.9 64809.5 22793.7 64806.5 22791.8 64803.9 22789.1 64795.2 22785.7 64786.7 22785.3 64782.6 22784.6 64780.3 22784.7 64777.1 22783.9 64770 22783.9 59721.5 13916.2 50853.8 13910.9 50846.4 13904.9 50839.5 13903.7 50836.5 13901.8 50833.9 13899.1 50825.2 13895.7 50816.7 13895.3 50812.6 13894.6 50810.3 13894.7 50807.1 13893.9 50800 13893.9 33020 13894.2 33018 13894 33016.1 13896.2 33005.9 13897.9 32995.7 13898.8 32994 13899.2 32992 13904.5 32983.1 13909.4 32974 13910.8 32972.6 13911.8 32970.9 13919.7 32964.2 13927.2 32957.1 13929 32956.2 13930.5 32954.9 13940.1 32951 13949.5 32946.7 13951.5 32946.5 13953.3 32945.7 13970 32943.9 24130 32943.9 24132 32944.2"/></g></g></g></g></g></g></g></g></g></g></g></g></g></g><use xlink:href="#QcBdwoIbmhfI4GVIsM8i_pad-10" x="43180" y="45085"/><use xlink:href="#QcBdwoIbmhfI4GVIsM8i_pad-10" x="45720" y="45085"/><use xlink:href="#QcBdwoIbmhfI4GVIsM8i_pad-11" x="33000" y="30080"/><use xlink:href="#QcBdwoIbmhfI4GVIsM8i_pad-11" x="33000" y="25000"/><use xlink:href="#QcBdwoIbmhfI4GVIsM8i_pad-11" x="61000" y="44920"/><use xlink:href="#QcBdwoIbmhfI4GVIsM8i_pad-11" x="61000" y="50000"/><use xlink:href="#QcBdwoIbmhfI4GVIsM8i_pad-11" x="61000" y="55080"/><use xlink:href="#QcBdwoIbmhfI4GVIsM8i_pad-11" x="61000" y="19920"/><use xlink:href="#QcBdwoIbmhfI4GVIsM8i_pad-11" x="61000" y="25000"/><use xlink:href="#QcBdwoIbmhfI4GVIsM8i_pad-11" x="61000" y="30080"/><use xlink:href="#QcBdwoIbmhfI4GVIsM8i_pad-12" x="25400" y="67770"/><use xlink:href="#QcBdwoIbmhfI4GVIsM8i_pad-12" x="25400" y="63770"/><use xlink:href="#QcBdwoIbmhfI4GVIsM8i_pad-12" x="25400" y="65770"/><use xlink:href="#QcBdwoIbmhfI4GVIsM8i_pad-13" x="33205" y="43815"/><use xlink:href="#QcBdwoIbmhfI4GVIsM8i_pad-13" x="30665" y="46355"/><use xlink:href="#QcBdwoIbmhfI4GVIsM8i_pad-13" x="33205" y="48895"/><use xlink:href="#QcBdwoIbmhfI4GVIsM8i_pad-14" x="26111.2" y="54610"/><use xlink:href="#QcBdwoIbmhfI4GVIsM8i_pad-14" x="24688.8" y="54610"/><path d="M 50800 55200 52000 55200 M 52000 59100 50800 59100 M 38100 59100 36900 59100 M 36900 55200 38100 55200" fill="none" stroke-width="1200"/><path d="M 43180 45085 43180 40260 33000 30080 M 37500 55200 37500 59100 M 40040 55200 43180 52060 M 40040 55200 37500 55200 M 43180 52060 43180 45085 M 61000 44920 65405 40515 65405 24325 61000 19920" fill="none" stroke-width="1270"/><use xlink:href="#QcBdwoIbmhfI4GVIsM8i_pad-17" x="22225" y="52705"/><use xlink:href="#QcBdwoIbmhfI4GVIsM8i_pad-17" x="22987" y="35560"/><path d="M 22987 35560 22225 36322 22225 52705 M 24130 54610 24688.8 54610 M 24130 54610 22225 52705" fill="none" stroke-width="406.4"/><use xlink:href="#QcBdwoIbmhfI4GVIsM8i_pad-17" x="22987" y="41275"/><use xlink:href="#QcBdwoIbmhfI4GVIsM8i_pad-17" x="19685" y="52705"/><use xlink:href="#QcBdwoIbmhfI4GVIsM8i_pad-17" x="29210" y="57785"/><path d="M 29210 63960 25400 67770 M 29210 63960 29210 57785 M 26111.2 54686.2 26111.2 54610 M 26111.2 54686.2 29210 57785" fill="none" stroke-width="406.4"/><path d="M 51400 59100 51400 55200 60880 55200 61000 55080" fill="none" stroke-width="1270"/></g><g id="apb5zZgjsCQObV-Vo95N_bottom_soldermask"><use xlink:href="#RR8P5plnurNQspZMIgwB_pad-10" x="43180" y="45085"/><use xlink:href="#RR8P5plnurNQspZMIgwB_pad-10" x="45720" y="45085"/><use xlink:href="#RR8P5plnurNQspZMIgwB_pad-11" x="33000" y="30080"/><use xlink:href="#RR8P5plnurNQspZMIgwB_pad-11" x="33000" y="25000"/><use xlink:href="#RR8P5plnurNQspZMIgwB_pad-11" x="61000" y="44920"/><use xlink:href="#RR8P5plnurNQspZMIgwB_pad-11" x="61000" y="50000"/><use xlink:href="#RR8P5plnurNQspZMIgwB_pad-11" x="61000" y="55080"/><use xlink:href="#RR8P5plnurNQspZMIgwB_pad-11" x="61000" y="19920"/><use xlink:href="#RR8P5plnurNQspZMIgwB_pad-11" x="61000" y="25000"/><use xlink:href="#RR8P5plnurNQspZMIgwB_pad-11" x="61000" y="30080"/><use xlink:href="#RR8P5plnurNQspZMIgwB_pad-12" x="12000" y="55000"/><use xlink:href="#RR8P5plnurNQspZMIgwB_pad-12" x="71000" y="66000"/><use xlink:href="#RR8P5plnurNQspZMIgwB_pad-12" x="71000" y="13000"/><use xlink:href="#RR8P5plnurNQspZMIgwB_pad-12" x="12000" y="13000"/><use xlink:href="#RR8P5plnurNQspZMIgwB_pad-13" x="50000" y="27000"/><use xlink:href="#RR8P5plnurNQspZMIgwB_pad-13" x="20000" y="61000"/><use xlink:href="#RR8P5plnurNQspZMIgwB_pad-13" x="80000" y="61000"/><use xlink:href="#RR8P5plnurNQspZMIgwB_pad-13" x="64140" y="12860"/><use xlink:href="#RR8P5plnurNQspZMIgwB_pad-14" x="25400" y="67770"/><use xlink:href="#RR8P5plnurNQspZMIgwB_pad-14" x="25400" y="63770"/><use xlink:href="#RR8P5plnurNQspZMIgwB_pad-14" x="25400" y="65770"/><use xlink:href="#RR8P5plnurNQspZMIgwB_pad-15" x="33205" y="43815"/><use xlink:href="#RR8P5plnurNQspZMIgwB_pad-15" x="30665" y="46355"/><use xlink:href="#RR8P5plnurNQspZMIgwB_pad-15" x="33205" y="48895"/><use xlink:href="#RR8P5plnurNQspZMIgwB_pad-16" x="26111.2" y="54610"/><use xlink:href="#RR8P5plnurNQspZMIgwB_pad-16" x="24688.8" y="54610"/><use xlink:href="#RR8P5plnurNQspZMIgwB_pad-17" x="25400" y="54610"/><use xlink:href="#RR8P5plnurNQspZMIgwB_pad-12" x="82000" y="50000"/><use xlink:href="#RR8P5plnurNQspZMIgwB_pad-12" x="82000" y="25000"/><path d="M 52000 55200 50800 55200 M 50800 59100 52000 59100 M 38100 59100 36900 59100 M 36900 55200 38100 55200" fill="none" stroke-width="1403.2"/><use xlink:href="#RR8P5plnurNQspZMIgwB_pad-19" x="22225" y="52705"/><use xlink:href="#RR8P5plnurNQspZMIgwB_pad-19" x="22987" y="35560"/><use xlink:href="#RR8P5plnurNQspZMIgwB_pad-19" x="22987" y="41275"/><use xlink:href="#RR8P5plnurNQspZMIgwB_pad-19" x="19685" y="52705"/><use xlink:href="#RR8P5plnurNQspZMIgwB_pad-19" x="29210" y="57785"/></g><g id="apb5zZgjsCQObV-Vo95N_bottom_silkscreen"><path d="M 84000 17000 92000 17000 M 16000 9000 12000 9000 M 16000 9000 24000 17000 46000 17000 54000 9000 76000 9000 84000 17000 M 83790 17500 92000 17500 M 15790 9500 12000 9500 M 15790 9500 23790 17500 46210 17500 54210 9500 75790 9500 83790 17500 M 84000 17000 92000 17000 M 16000 9000 12000 9000 M 16000 9000 24000 17000 46000 17000 54000 9000 76000 9000 84000 17000 M 83790 17500 92000 17500 M 15800 9500 12000 9500 M 15800 9500 23800 17500 46200 17500 54210 9500 75790 9500 83790 17500" fill="none" stroke-width="0"/><path d="M 26700 55160 25700 55160 M 26700 55160 26700 54060 25700 54060 M 25100 55160 24100 55160 24100 54060 25100 54060" fill="none" stroke-width="76.2"/><path d="M 25826.2 55651.4 25819.2 55651.6 25812.3 55652.2 25805.4 55653.2 25798.6 55654.5 25791.8 55656.3 25785.2 55658.4 25778.7 55660.9 25772.3 55663.7 25766.1 55666.9 25760.1 55670.4 25754.3 55674.3 25748.8 55678.5 25743.4 55683 25738.4 55687.8 25733.6 55692.8 25729.1 55698.2 25724.9 55703.7 25721 55709.5 25717.5 55715.5 25714.3 55721.7 25711.5 55728.1 25709 55734.6 25706.9 55741.2 25705.1 55748 25703.8 55754.8 25702.8 55761.7 25702.2 55768.6 25702 55775.6 M 25826.1 55651.4 25836 55651.6 25845.8 55652.1 25855.6 55653.1 25865.4 55654.4 25875.1 55656 25884.8 55658 25894.3 55660.4 25903.8 55663.2 25913.2 55666.3 25922.4 55669.7 25931.5 55673.5 25940.5 55677.6 25949.3 55682.1 25957.9 55686.9 25966.3 55692 25974.5 55697.4 25982.6 55703.2 25990.4 55709.2 25997.9 55715.5 26005.3 55722.1 26012.3 55729 M 25996.9 56086 25996.7 56093 25996.1 56099.9 25995.1 56106.8 25993.8 56113.6 25992 56120.4 25989.9 56127 25987.4 56133.5 25984.6 56139.9 25981.4 56146.1 25977.9 56152.1 25974 56157.9 25969.8 56163.4 25965.3 56168.8 25960.5 56173.8 25955.5 56178.6 25950.1 56183.1 25944.6 56187.3 25938.8 56191.2 25932.8 56194.7 25926.6 56197.9 25920.2 56200.7 25913.7 56203.2 25907.1 56205.3 25900.3 56207.1 25893.5 56208.4 25886.6 56209.4 25879.7 56210 25872.7 56210.2 25863.3 56210 25854 56209.4 25844.7 56208.5 25835.4 56207.2 25826.2 56205.5 25817.1 56203.5 25808 56201 25799.1 56198.3 25790.3 56195.1 25781.6 56191.6 25773 56187.8 25764.7 56183.6 25756.4 56179.1 25748.4 56174.3 25740.6 56169.1 25733 56163.6 M 25934.8 55977.4 25940.7 55981 25946.3 55985 25951.7 55989.3 25956.9 55993.8 25961.8 55998.7 25966.4 56003.8 25970.7 56009.1 25974.8 56014.7 25978.5 56020.5 25982 56026.5 25985 56032.6 25987.8 56038.9 25990.2 56045.4 25992.2 56052 25993.9 56058.7 25995.2 56065.4 25996.1 56072.2 25996.7 56079.1 25996.9 56086 M 25764.1 55884.2 25758.2 55880.6 25752.6 55876.6 25747.2 55872.3 25742 55867.8 25737.1 55862.9 25732.5 55857.8 25728.2 55852.5 25724.1 55846.9 25720.4 55841.1 25716.9 55835.2 25713.9 55829 25711.1 55822.7 25708.7 55816.2 25706.7 55809.6 25705 55802.9 25703.7 55796.2 25702.8 55789.4 25702.2 55782.5 25702 55775.6 M 25764.1 55884.2 25934.8 55977.4 M 25352.2 55775.6 25352.2 56210.2 M 25352.2 55775.6 25352.4 55768.6 25353 55761.7 25354 55754.8 25355.3 55748 25357.1 55741.2 25359.2 55734.6 25361.7 55728.1 25364.5 55721.7 25367.7 55715.5 25371.2 55709.5 25375.1 55703.7 25379.3 55698.2 25383.8 55692.8 25388.6 55687.8 25393.6 55683 25399 55678.5 25404.5 55674.3 25410.3 55670.4 25416.3 55666.9 25422.5 55663.7 25428.9 55660.9 25435.4 55658.4 25442 55656.3 25448.8 55654.5 25455.6 55653.2 25462.5 55652.2 25469.4 55651.6 25476.4 55651.4 25538.5 55651.4 M 24927.3 56210.2 24920 56210 24912.7 56209.4 24905.4 56208.5 24898.3 56207.1 24891.1 56205.4 24884.1 56203.4 24877.2 56200.9 24870.5 56198.1 24863.9 56195 24857.5 56191.5 24851.2 56187.7 24845.2 56183.5 24839.4 56179.1 24833.8 56174.3 24828.5 56169.3 24823.5 56164 24818.7 56158.4 24814.3 56152.6 24810.1 56146.6 24806.3 56140.4 24802.8 56133.9 24799.7 56127.3 24796.9 56120.6 24794.4 56113.7 24792.4 56106.7 24790.7 56099.5 24789.3 56092.4 24788.4 56085.1 24787.8 56077.8 24787.6 56070.5 M 24927.3 56210.2 24935.7 56210 24944 56209.4 24952.3 56208.5 24960.5 56207.1 24968.7 56205.4 24976.8 56203.2 24984.8 56200.7 24992.6 56197.9 25000.4 56194.7 25007.9 56191.1 25015.3 56187.2 25022.5 56182.9 25029.5 56178.3 25036.2 56173.4 25042.8 56168.1 25049 56162.6 25055 56156.8 25060.8 56150.7 25066.2 56144.4 25071.4 56137.8 25076.2 56131 25080.7 56123.9 25084.9 56116.7 25088.7 56109.2 25092.2 56101.6 25095.3 56093.9 25098.1 56086 M 24834.2 55961.9 24828.8 55967.2 24823.7 55972.9 24818.9 55978.8 24814.4 55984.9 24810.3 55991.2 24806.4 55997.8 24802.9 56004.5 24799.7 56011.4 24796.9 56018.5 24794.5 56025.6 24792.4 56032.9 24790.7 56040.3 24789.3 56047.8 24788.4 56055.3 24787.8 56062.9 24787.6 56070.5 M 24834.2 55961.8 25098 55651.4 24787.6 55651.4 M 28418.7 53413.4 28418.7 53165 M 28418.6 53413.4 28418.4 53421.1 28417.8 53428.9 28416.9 53436.5 28415.5 53444.2 28413.8 53451.7 28411.7 53459.1 28409.2 53466.5 28406.4 53473.7 28403.2 53480.7 28399.7 53487.6 28395.8 53494.3 28391.6 53500.8 28387.1 53507.1 28382.3 53513.2 28377.2 53519 28371.8 53524.5 28366.1 53529.8 28360.2 53534.7 28354 53539.4 28347.6 53543.8 28341 53547.8 28334.2 53551.5 28327.2 53554.9 28320.1 53557.9 28312.8 53560.5 28305.4 53562.8 28297.9 53564.7 28290.4 53566.2 28282.7 53567.4 28275 53568.2 28267.3 53568.6 28259.5 53568.6 28251.8 53568.2 28244.1 53567.4 28236.4 53566.2 28228.9 53564.7 28221.4 53562.8 28214 53560.5 28206.7 53557.9 28199.6 53554.9 28192.6 53551.5 28185.8 53547.8 28179.2 53543.8 28172.8 53539.4 28166.6 53534.7 28160.7 53529.8 28155 53524.5 28149.6 53519 28144.5 53513.2 28139.7 53507.1 28135.2 53500.8 28131 53494.3 28127.1 53487.6 28123.6 53480.7 28120.4 53473.7 28117.6 53466.5 28115.1 53459.1 28113 53451.7 28111.3 53444.2 28109.9 53436.5 28109 53428.9 28108.4 53421.1 28108.2 53413.4 28108.2 53165 28108.4 53157.3 28109 53149.5 28109.9 53141.9 28111.3 53134.2 28113 53126.7 28115.1 53119.3 28117.6 53111.9 28120.4 53104.7 28123.6 53097.7 28127.1 53090.8 28131 53084.1 28135.2 53077.6 28139.7 53071.3 28144.5 53065.2 28149.6 53059.4 28155 53053.9 28160.7 53048.6 28166.6 53043.7 28172.8 53039 28179.2 53034.6 28185.8 53030.6 28192.6 53026.9 28199.6 53023.5 28206.7 53020.5 28214 53017.9 28221.4 53015.6 28228.9 53013.7 28236.4 53012.2 28244.1 53011 28251.8 53010.2 28259.5 53009.8 28267.3 53009.8 28275 53010.2 28282.7 53011 28290.4 53012.2 28297.9 53013.7 28305.4 53015.6 28312.8 53017.9 28320.1 53020.5 28327.2 53023.5 28334.2 53026.9 28341 53030.6 28347.6 53034.6 28354 53039 28360.2 53043.7 28366.1 53048.6 28371.8 53053.9 28377.2 53059.4 28382.3 53065.2 28387.1 53071.3 28391.6 53077.6 28395.8 53084.1 28399.7 53090.8 28403.2 53097.7 28406.4 53104.7 28409.2 53111.9 28411.7 53119.3 28413.8 53126.7 28415.5 53134.2 28416.9 53141.9 28417.8 53149.5 28418.4 53157.3 28418.6 53165 M 27854.4 53382.3 27854.4 52823.5 M 27854.4 53382.3 27699.2 53382.3 27693.4 53382.1 27687.5 53381.6 27681.8 53380.7 27676 53379.4 27670.4 53377.7 27664.9 53375.8 27659.6 53373.4 27654.3 53370.8 27649.3 53367.8 27644.5 53364.5 27639.9 53360.9 27635.5 53357.1 27631.3 53352.9 27627.5 53348.5 27623.9 53343.9 27620.6 53339.1 27617.6 53334.1 27615 53328.8 27612.6 53323.5 27610.7 53318 27609 53312.4 27607.7 53306.6 27606.8 53300.9 27606.3 53295 27606.1 53289.2 M 27606 53289.2 27606 53102.9 M 27606.1 53102.9 27606.3 53097.1 27606.8 53091.2 27607.7 53085.5 27609 53079.7 27610.7 53074.1 27612.6 53068.6 27615 53063.3 27617.6 53058 27620.6 53053 27623.9 53048.2 27627.5 53043.6 27631.3 53039.2 27635.5 53035 27639.9 53031.2 27644.5 53027.6 27649.3 53024.3 27654.3 53021.3 27659.6 53018.7 27664.9 53016.3 27670.4 53014.4 27676 53012.7 27681.8 53011.4 27687.5 53010.5 27693.4 53010 27699.2 53009.8 27854.4 53009.8 M 27114.7 53009.8 26928.4 53568.6 26742.2 53009.8 M 26788.7 53149.5 27068.1 53149.5 M 26511.2 53009.8 26511.2 53382.3 26231.8 53382.3 26226 53382.1 26220.1 53381.6 26214.4 53380.7 26208.6 53379.4 26203 53377.7 26197.5 53375.8 26192.2 53373.4 26186.9 53370.8 26181.9 53367.8 26177.1 53364.5 26172.5 53360.9 26168.1 53357.1 26163.9 53352.9 26160.1 53348.5 26156.5 53343.9 26153.2 53339.1 26150.2 53334.1 26147.6 53328.8 26145.2 53323.5 26143.3 53318 26141.6 53312.4 26140.3 53306.6 26139.4 53300.9 26138.9 53295 26138.7 53289.2 26138.7 53009.8 M 26324.9 53009.8 26324.9 53382.3 M 25861 53382.3 25861 52823.5 M 25861 53382.3 25705.8 53382.3 25700 53382.1 25694.1 53381.6 25688.4 53380.7 25682.6 53379.4 25677 53377.7 25671.5 53375.8 25666.2 53373.4 25660.9 53370.8 25655.9 53367.8 25651.1 53364.5 25646.5 53360.9 25642.1 53357.1 25637.9 53352.9 25634.1 53348.5 25630.5 53343.9 25627.2 53339.1 25624.2 53334.1 25621.6 53328.8 25619.2 53323.5 25617.3 53318 25615.6 53312.4 25614.3 53306.6 25613.4 53300.9 25612.9 53295 25612.7 53289.2 M 25612.6 53289.2 25612.6 53102.9 M 25612.7 53102.9 25612.9 53097.1 25613.4 53091.2 25614.3 53085.5 25615.6 53079.7 25617.3 53074.1 25619.2 53068.6 25621.6 53063.3 25624.2 53058 25627.2 53053 25630.5 53048.2 25634.1 53043.6 25637.9 53039.2 25642.1 53035 25646.5 53031.2 25651.1 53027.6 25655.9 53024.3 25660.9 53021.3 25666.2 53018.7 25671.5 53016.3 25677 53014.4 25682.6 53012.7 25688.4 53011.4 25694.1 53010.5 25700 53010 25705.8 53009.8 25861 53009.8 M 25063.7 53320.2 24908.5 53320.2 24900.8 53320 24893 53319.4 24885.4 53318.5 24877.7 53317.1 24870.2 53315.4 24862.8 53313.3 24855.4 53310.8 24848.2 53308 24841.2 53304.8 24834.3 53301.3 24827.6 53297.4 24821.1 53293.2 24814.8 53288.7 24808.7 53283.9 24802.9 53278.8 24797.4 53273.4 24792.1 53267.7 24787.2 53261.8 24782.5 53255.6 24778.1 53249.2 24774.1 53242.6 24770.4 53235.8 24767 53228.8 24764 53221.7 24761.4 53214.4 24759.1 53207 24757.2 53199.5 24755.7 53192 24754.5 53184.3 24753.7 53176.6 24753.3 53168.9 24753.3 53161.1 24753.7 53153.4 24754.5 53145.7 24755.7 53138 24757.2 53130.5 24759.1 53123 24761.4 53115.6 24764 53108.3 24767 53101.2 24770.4 53094.2 24774.1 53087.4 24778.1 53080.8 24782.5 53074.4 24787.2 53068.2 24792.1 53062.3 24797.4 53056.6 24802.9 53051.2 24808.7 53046.1 24814.8 53041.3 24821.1 53036.8 24827.6 53032.6 24834.3 53028.7 24841.2 53025.2 24848.2 53022 24855.4 53019.2 24862.8 53016.7 24870.2 53014.6 24877.7 53012.9 24885.4 53011.5 24893 53010.6 24900.8 53010 24908.5 53009.8 25063.7 53009.8 25063.7 53568.6 24908.5 53568.6 24901.5 53568.4 24894.6 53567.8 24887.7 53566.8 24880.9 53565.5 24874.1 53563.7 24867.5 53561.6 24861 53559.1 24854.6 53556.3 24848.4 53553.1 24842.4 53549.6 24836.6 53545.7 24831.1 53541.5 24825.7 53537 24820.7 53532.2 24815.9 53527.2 24811.4 53521.8 24807.2 53516.3 24803.3 53510.5 24799.8 53504.5 24796.6 53498.3 24793.8 53491.9 24791.3 53485.4 24789.2 53478.8 24787.4 53472 24786.1 53465.2 24785.1 53458.3 24784.5 53451.4 24784.3 53444.4 24784.5 53437.4 24785.1 53430.5 24786.1 53423.6 24787.4 53416.8 24789.2 53410 24791.3 53403.4 24793.8 53396.9 24796.6 53390.5 24799.8 53384.3 24803.3 53378.3 24807.2 53372.5 24811.4 53367 24815.9 53361.6 24820.7 53356.6 24825.7 53351.8 24831.1 53347.3 24836.6 53343.1 24842.4 53339.2 24848.4 53335.7 24854.6 53332.5 24861 53329.7 24867.5 53327.2 24874.1 53325.1 24880.9 53323.3 24887.7 53322 24894.6 53321 24901.5 53320.4 24908.5 53320.2 M 24565.4 52823.5 24503.4 52823.5 24317.1 53382.3 M 24565.4 53382.3 24441.3 53009.8 M 24087.1 52823.5 24087.1 53382.3 23931.9 53382.3 23926.1 53382.1 23920.2 53381.6 23914.5 53380.7 23908.7 53379.4 23903.1 53377.7 23897.6 53375.8 23892.3 53373.4 23887 53370.8 23882 53367.8 23877.2 53364.5 23872.6 53360.9 23868.2 53357.1 23864 53352.9 23860.2 53348.5 23856.6 53343.9 23853.3 53339.1 23850.3 53334.1 23847.7 53328.8 23845.3 53323.5 23843.4 53318 23841.7 53312.4 23840.4 53306.6 23839.5 53300.9 23839 53295 23838.8 53289.2 M 23838.7 53289.2 23838.7 53102.9 M 23838.8 53102.9 23839 53097.1 23839.5 53091.2 23840.4 53085.5 23841.7 53079.7 23843.4 53074.1 23845.3 53068.6 23847.7 53063.3 23850.3 53058 23853.3 53053 23856.6 53048.2 23860.2 53043.6 23864 53039.2 23868.2 53035 23872.6 53031.2 23877.2 53027.6 23882 53024.3 23887 53021.3 23892.3 53018.7 23897.6 53016.3 23903.1 53014.4 23908.7 53012.7 23914.5 53011.4 23920.2 53010.5 23926.1 53010 23931.9 53009.8 24087.1 53009.8 M 23508.7 53227.1 23369 53227.1 M 23508.7 53227.2 23515.1 53227 23521.6 53226.4 23527.9 53225.5 23534.2 53224.2 23540.4 53222.5 23546.5 53220.4 23552.5 53218 23558.3 53215.2 23564 53212.1 23569.4 53208.7 23574.7 53204.9 23579.7 53200.8 23584.4 53196.5 23588.9 53191.9 23593.1 53187 23597 53181.9 23600.6 53176.5 23603.9 53171 23606.8 53165.2 23609.4 53159.4 23611.7 53153.3 23613.6 53147.2 23615.1 53140.9 23616.2 53134.5 23617 53128.2 23617.4 53121.7 23617.4 53115.3 23617 53108.8 23616.2 53102.5 23615.1 53096.1 23613.6 53089.8 23611.7 53083.7 23609.4 53077.6 23606.8 53071.8 23603.9 53066 23600.6 53060.5 23597 53055.1 23593.1 53050 23588.9 53045.1 23584.4 53040.5 23579.7 53036.2 23574.7 53032.1 23569.4 53028.3 23564 53024.9 23558.3 53021.8 23552.5 53019 23546.5 53016.6 23540.4 53014.5 23534.2 53012.8 23527.9 53011.5 23521.6 53010.6 23515.1 53010 23508.7 53009.8 23369 53009.8 23369 53289.2 23369.2 53295 23369.7 53300.9 23370.6 53306.6 23371.9 53312.4 23373.6 53318 23375.5 53323.5 23377.9 53328.8 23380.5 53334.1 23383.5 53339.1 23386.8 53343.9 23390.4 53348.5 23394.2 53352.9 23398.4 53357.1 23402.8 53360.9 23407.4 53364.5 23412.2 53367.8 23417.2 53370.8 23422.5 53373.4 23427.8 53375.8 23433.3 53377.7 23438.9 53379.4 23444.7 53380.7 23450.4 53381.6 23456.3 53382.1 23462.1 53382.3 23586.3 53382.3 M 23074.1 53227.1 22918.9 53165 M 23074.1 53227.1 23079.2 53229.3 23084.1 53231.9 23088.9 53234.8 23093.4 53238.1 23097.7 53241.7 23101.8 53245.5 23105.5 53249.7 23109 53254 23112.2 53258.6 23115 53263.5 23117.5 53268.5 23119.6 53273.6 23121.4 53278.9 23122.8 53284.3 23123.8 53289.8 23124.4 53295.4 23124.7 53300.9 23124.6 53306.5 23124 53312.1 23123.1 53317.6 23121.9 53323 23120.2 53328.4 23118.2 53333.6 23115.8 53338.6 23113.1 53343.5 23110 53348.2 23106.6 53352.6 23103 53356.8 23099 53360.8 23094.8 53364.4 23090.3 53367.8 23085.6 53370.8 23080.8 53373.5 23075.7 53375.9 23070.5 53377.9 23065.1 53379.5 23059.7 53380.8 23054.2 53381.7 23048.6 53382.2 23043 53382.3 M 23043.1 53382.4 23032 53382 23020.9 53381.4 23009.9 53380.3 22998.9 53378.9 22987.9 53377.2 22977 53375.2 22966.2 53372.8 22955.5 53370 22944.8 53366.9 22934.3 53363.5 22923.8 53359.8 22913.5 53355.7 22903.3 53351.3 M 22918.9 53165 22913.8 53162.8 22908.9 53160.2 22904.1 53157.3 22899.6 53154 22895.3 53150.4 22891.2 53146.6 22887.5 53142.4 22884 53138.1 22880.8 53133.5 22878 53128.6 22875.5 53123.6 22873.4 53118.5 22871.6 53113.2 22870.2 53107.8 22869.2 53102.3 22868.6 53096.7 22868.3 53091.2 22868.4 53085.6 22869 53080 22869.9 53074.5 22871.1 53069.1 22872.8 53063.7 22874.8 53058.5 22877.2 53053.5 22879.9 53048.6 22883 53043.9 22886.4 53039.5 22890 53035.3 22894 53031.3 22898.2 53027.7 22902.7 53024.3 22907.4 53021.3 22912.2 53018.6 22917.3 53016.2 22922.5 53014.2 22927.9 53012.6 22933.3 53011.3 22938.8 53010.4 22944.4 53009.9 22950 53009.8 M 22949.9 53009.8 22963.3 53010.1 22976.7 53010.8 22990.1 53011.9 23003.4 53013.2 23016.7 53015 23030 53017 23043.2 53019.4 23056.3 53022.2 23069.4 53025.2 23082.3 53028.6 23095.2 53032.4 23108 53036.4 23120.7 53040.8 M 22598.7 53227.1 22443.4 53165 M 22598.7 53227.1 22603.8 53229.3 22608.7 53231.9 22613.5 53234.8 22618 53238.1 22622.3 53241.7 22626.4 53245.5 22630.1 53249.7 22633.6 53254 22636.8 53258.6 22639.6 53263.5 22642.1 53268.5 22644.2 53273.6 22646 53278.9 22647.4 53284.3 22648.4 53289.8 22649 53295.4 22649.3 53300.9 22649.2 53306.5 22648.6 53312.1 22647.7 53317.6 22646.5 53323 22644.8 53328.4 22642.8 53333.6 22640.4 53338.6 22637.7 53343.5 22634.6 53348.2 22631.2 53352.6 22627.6 53356.8 22623.6 53360.8 22619.4 53364.4 22614.9 53367.8 22610.2 53370.8 22605.4 53373.5 22600.3 53375.9 22595.1 53377.9 22589.7 53379.5 22584.3 53380.8 22578.8 53381.7 22573.2 53382.2 22567.6 53382.3 M 22567.6 53382.4 22556.5 53382 22545.4 53381.4 22534.4 53380.3 22523.4 53378.9 22512.4 53377.2 22501.5 53375.2 22490.7 53372.8 22480 53370 22469.3 53366.9 22458.8 53363.5 22448.3 53359.8 22438 53355.7 22427.8 53351.3 M 22443.4 53165 22438.3 53162.8 22433.4 53160.2 22428.6 53157.3 22424.1 53154 22419.8 53150.4 22415.7 53146.6 22412 53142.4 22408.5 53138.1 22405.3 53133.5 22402.5 53128.6 22400 53123.6 22397.9 53118.5 22396.1 53113.2 22394.7 53107.8 22393.7 53102.3 22393.1 53096.7 22392.8 53091.2 22392.9 53085.6 22393.5 53080 22394.4 53074.5 22395.6 53069.1 22397.3 53063.7 22399.3 53058.5 22401.7 53053.5 22404.4 53048.6 22407.5 53043.9 22410.9 53039.5 22414.5 53035.3 22418.5 53031.3 22422.7 53027.7 22427.2 53024.3 22431.9 53021.3 22436.7 53018.6 22441.8 53016.2 22447 53014.2 22452.4 53012.6 22457.8 53011.3 22463.3 53010.4 22468.9 53009.9 22474.5 53009.8 22487.9 53010.1 22501.3 53010.8 22514.7 53011.9 22528 53013.2 22541.3 53015 22554.6 53017 22567.8 53019.4 22580.9 53022.2 22594 53025.2 22606.9 53028.6 22619.8 53032.4 22632.6 53036.4 22645.3 53040.8" fill="none" stroke-width="50.8"/></g><g id="apb5zZgjsCQObV-Vo95N_bottom_drill1"><use xlink:href="#QJPdZkLU-TS9pWa0Dlvn_pad-1" x="50000" y="27000"/><use xlink:href="#QJPdZkLU-TS9pWa0Dlvn_pad-1" x="20000" y="61000"/><use xlink:href="#QJPdZkLU-TS9pWa0Dlvn_pad-1" x="80000" y="61000"/><use xlink:href="#QJPdZkLU-TS9pWa0Dlvn_pad-1" x="64140" y="12860"/><use xlink:href="#QJPdZkLU-TS9pWa0Dlvn_pad-2" x="12000" y="55000"/><use xlink:href="#QJPdZkLU-TS9pWa0Dlvn_pad-2" x="71000" y="66000"/><use xlink:href="#QJPdZkLU-TS9pWa0Dlvn_pad-2" x="71000" y="13000"/><use xlink:href="#QJPdZkLU-TS9pWa0Dlvn_pad-2" x="12000" y="13000"/><use xlink:href="#QJPdZkLU-TS9pWa0Dlvn_pad-2" x="82000" y="50000"/><use xlink:href="#QJPdZkLU-TS9pWa0Dlvn_pad-2" x="82000" y="25000"/><use xlink:href="#QJPdZkLU-TS9pWa0Dlvn_pad-3" x="33000" y="30080"/><use xlink:href="#QJPdZkLU-TS9pWa0Dlvn_pad-3" x="33000" y="25000"/><use xlink:href="#QJPdZkLU-TS9pWa0Dlvn_pad-3" x="61000" y="44920"/><use xlink:href="#QJPdZkLU-TS9pWa0Dlvn_pad-3" x="61000" y="50000"/><use xlink:href="#QJPdZkLU-TS9pWa0Dlvn_pad-3" x="61000" y="55080"/><use xlink:href="#QJPdZkLU-TS9pWa0Dlvn_pad-3" x="61000" y="19920"/><use xlink:href="#QJPdZkLU-TS9pWa0Dlvn_pad-3" x="61000" y="25000"/><use xlink:href="#QJPdZkLU-TS9pWa0Dlvn_pad-3" x="61000" y="30080"/><use xlink:href="#QJPdZkLU-TS9pWa0Dlvn_pad-4" x="43180" y="45085"/><use xlink:href="#QJPdZkLU-TS9pWa0Dlvn_pad-4" x="45720" y="45085"/><use xlink:href="#QJPdZkLU-TS9pWa0Dlvn_pad-5" x="25400" y="65770"/><use xlink:href="#QJPdZkLU-TS9pWa0Dlvn_pad-5" x="25400" y="63770"/><use xlink:href="#QJPdZkLU-TS9pWa0Dlvn_pad-5" x="25400" y="67770"/><use xlink:href="#QJPdZkLU-TS9pWa0Dlvn_pad-6" x="33205" y="48895"/><use xlink:href="#QJPdZkLU-TS9pWa0Dlvn_pad-6" x="30665" y="46355"/><use xlink:href="#QJPdZkLU-TS9pWa0Dlvn_pad-6" x="33205" y="43815"/><use xlink:href="#QJPdZkLU-TS9pWa0Dlvn_pad-7" x="37500" y="55200"/><use xlink:href="#QJPdZkLU-TS9pWa0Dlvn_pad-7" x="51400" y="55200"/><use xlink:href="#QJPdZkLU-TS9pWa0Dlvn_pad-7" x="51400" y="59100"/><use xlink:href="#QJPdZkLU-TS9pWa0Dlvn_pad-7" x="37500" y="59100"/><use xlink:href="#QJPdZkLU-TS9pWa0Dlvn_pad-8" x="29210" y="57785"/><use xlink:href="#QJPdZkLU-TS9pWa0Dlvn_pad-8" x="19685" y="52705"/><use xlink:href="#QJPdZkLU-TS9pWa0Dlvn_pad-8" x="22987" y="41275"/><use xlink:href="#QJPdZkLU-TS9pWa0Dlvn_pad-8" x="22987" y="35560"/><use xlink:href="#QJPdZkLU-TS9pWa0Dlvn_pad-8" x="22225" y="52705"/></g><clipPath id="apb5zZgjsCQObV-Vo95N_bottom_outline"><path d="M 8000 9500 15800 9500 23800 17500 46200 17500 54200 9500 75800 9500 83800 17500 87865 17500 87818.2 17573.5 87765.2 17642.7 87706.3 17707 87642.1 17765.9 87573 17819 87499.5 17865.9 87422.2 17906.2 87341.7 17939.6 87258.6 17965.8 87173.5 17984.7 87087.1 17996.2 87000 18000 86912.8 18003.8 86826.4 18015.2 86741.2 18034.1 86658 18060.3 86577.4 18093.7 86500 18134 86426.4 18180.8 86357.2 18234 86292.9 18292.9 86234 18357.2 86180.8 18426.4 86134 18500 86093.7 18577.4 86060.3 18658 86034.1 18741.2 86015.2 18826.4 86003.8 18912.8 86000 19000 86000 31000 86003.8 31087.2 86015.2 31173.6 86034.1 31258.8 86060.3 31342 86093.7 31422.6 86134 31500 86180.8 31573.6 86234 31642.8 86292.9 31707.1 86357.2 31766 86426.4 31819.2 86500 31866 86577.4 31906.3 86658 31939.7 86741.2 31965.9 86826.4 31984.8 86912.8 31996.2 87000 32000 87087.2 32003.8 87173.6 32015.2 87258.8 32034.1 87342 32060.3 87422.6 32093.7 87500 32134 87573.6 32180.8 87642.8 32234 87707.1 32292.9 87766 32357.2 87819.2 32426.4 87866 32500 87906.3 32577.4 87939.7 32658 87965.9 32741.2 87984.8 32826.4 87996.2 32912.8 88000 33000 88000 42000 87996.2 42087.2 87984.8 42173.6 87965.9 42258.8 87939.7 42342 87906.3 42422.6 87866 42500 87819.2 42573.6 87766 42642.8 87707.1 42707.1 87642.8 42766 87573.6 42819.2 87500 42866 87422.6 42906.3 87342 42939.7 87258.8 42965.9 87173.6 42984.8 87087.2 42996.2 87000 43000 86912.8 43003.8 86826.4 43015.2 86741.2 43034.1 86658 43060.3 86577.4 43093.7 86500 43134 86426.4 43180.8 86357.2 43234 86292.9 43292.9 86234 43357.2 86180.8 43426.4 86134 43500 86093.7 43577.4 86060.3 43658 86034.1 43741.2 86015.2 43826.4 86003.8 43912.8 86000 44000 86000 56000 86003.8 56087.2 86015.2 56173.6 86034.1 56258.8 86060.3 56342 86093.7 56422.6 86134 56500 86180.8 56573.6 86234 56642.8 86292.9 56707.1 86357.2 56766 86426.4 56819.2 86500 56866 86577.4 56906.3 86658 56939.7 86741.2 56965.9 86826.4 56984.8 86912.8 56996.2 87000 57000 87087.2 57003.8 87173.6 57015.2 87258.8 57034.1 87342 57060.3 87422.6 57093.7 87500 57134 87573.6 57180.8 87642.8 57234 87707.1 57292.9 87766 57357.2 87819.2 57426.4 87866 57500 87906.3 57577.4 87939.7 57658 87965.9 57741.2 87984.8 57826.4 87996.2 57912.8 88000 58000 88000 59692 87285.7 59856.8 86411.9 60132.2 85565.3 60482.6 84752.6 60905.6 83979.8 61397.7 83252.8 61955.4 82577.2 62574.2 81958.1 63249.6 81400.3 63976.4 80907.9 64749.1 80484.7 65561.7 80133.9 66408.1 79858.3 67281.9 79659.8 68176.3 79540.1 69084.7 79500 70000 79500 72000 20500 72000 20500 70000 20460 69084.9 20340.5 68176.7 20142.2 67282.4 19866.8 66408.8 19516.2 65562.5 19093.3 64750 18601.1 63977.4 18043.5 63250.7 17424.6 62575.4 16749.3 61956.5 16022.6 61398.9 15250 60906.7 14437.5 60483.8 13591.2 60133.2 12717.6 59857.8 11823.3 59659.5 10915.1 59540 10000 59500 8000 59500 8000 9500 M 36850 58800 38150 58800 38176.1 58801.1 38202.1 58804.6 38227.6 58810.2 38252.6 58818.1 38276.8 58828.1 38300 58840.2 38322.1 58854.3 38342.8 58870.2 38362.1 58887.9 38379.8 58907.2 38395.7 58927.9 38409.8 58950 38421.9 58973.2 38431.9 58997.4 38439.8 59022.4 38445.4 59047.9 38448.9 59073.9 38450 59100 38448.9 59126.1 38445.4 59152.1 38439.8 59177.6 38431.9 59202.6 38421.9 59226.8 38409.8 59250 38395.7 59272.1 38379.8 59292.8 38362.1 59312.1 38342.8 59329.8 38322.1 59345.7 38300 59359.8 38276.8 59371.9 38252.6 59381.9 38227.6 59389.8 38202.1 59395.4 38176.1 59398.9 38150 59400 36850 59400 36823.9 59398.9 36797.9 59395.4 36772.4 59389.8 36747.4 59381.9 36723.2 59371.9 36700 59359.8 36677.9 59345.7 36657.2 59329.8 36637.9 59312.1 36620.2 59292.8 36604.3 59272.1 36590.2 59250 36578.1 59226.8 36568.1 59202.6 36560.2 59177.6 36554.6 59152.1 36551.1 59126.1 36550 59100 36551.1 59073.9 36554.6 59047.9 36560.2 59022.4 36568.1 58997.4 36578.1 58973.2 36590.2 58950 36604.3 58927.9 36620.2 58907.2 36637.9 58887.9 36657.2 58870.2 36677.9 58854.3 36700 58840.2 36723.2 58828.1 36747.4 58818.1 36772.4 58810.2 36797.9 58804.6 36823.9 58801.1 36850 58800 M 36850 54900 38150 54900 38176.1 54901.1 38202.1 54904.6 38227.6 54910.2 38252.6 54918.1 38276.8 54928.1 38300 54940.2 38322.1 54954.3 38342.8 54970.2 38362.1 54987.9 38379.8 55007.2 38395.7 55027.9 38409.8 55050 38421.9 55073.2 38431.9 55097.4 38439.8 55122.4 38445.4 55147.9 38448.9 55173.9 38450 55200 38448.9 55226.1 38445.4 55252.1 38439.8 55277.6 38431.9 55302.6 38421.9 55326.8 38409.8 55350 38395.7 55372.1 38379.8 55392.8 38362.1 55412.1 38342.8 55429.8 38322.1 55445.7 38300 55459.8 38276.8 55471.9 38252.6 55481.9 38227.6 55489.8 38202.1 55495.4 38176.1 55498.9 38150 55500 36850 55500 36823.9 55498.9 36797.9 55495.4 36772.4 55489.8 36747.4 55481.9 36723.2 55471.9 36700 55459.8 36677.9 55445.7 36657.2 55429.8 36637.9 55412.1 36620.2 55392.8 36604.3 55372.1 36590.2 55350 36578.1 55326.8 36568.1 55302.6 36560.2 55277.6 36554.6 55252.1 36551.1 55226.1 36550 55200 36551.1 55173.9 36554.6 55147.9 36560.2 55122.4 36568.1 55097.4 36578.1 55073.2 36590.2 55050 36604.3 55027.9 36620.2 55007.2 36637.9 54987.9 36657.2 54970.2 36677.9 54954.3 36700 54940.2 36723.2 54928.1 36747.4 54918.1 36772.4 54910.2 36797.9 54904.6 36823.9 54901.1 36850 54900 M 50750 58800 52050 58800 52076.1 58801.1 52102.1 58804.6 52127.6 58810.2 52152.6 58818.1 52176.8 58828.1 52200 58840.2 52222.1 58854.3 52242.8 58870.2 52262.1 58887.9 52279.8 58907.2 52295.7 58927.9 52309.8 58950 52321.9 58973.2 52331.9 58997.4 52339.8 59022.4 52345.4 59047.9 52348.9 59073.9 52350 59100 52348.9 59126.1 52345.4 59152.1 52339.8 59177.6 52331.9 59202.6 52321.9 59226.8 52309.8 59250 52295.7 59272.1 52279.8 59292.8 52262.1 59312.1 52242.8 59329.8 52222.1 59345.7 52200 59359.8 52176.8 59371.9 52152.6 59381.9 52127.6 59389.8 52102.1 59395.4 52076.1 59398.9 52050 59400 50750 59400 50723.9 59398.9 50697.9 59395.4 50672.4 59389.8 50647.4 59381.9 50623.2 59371.9 50600 59359.8 50577.9 59345.7 50557.2 59329.8 50537.9 59312.1 50520.2 59292.8 50504.3 59272.1 50490.2 59250 50478.1 59226.8 50468.1 59202.6 50460.2 59177.6 50454.6 59152.1 50451.1 59126.1 50450 59100 50451.1 59073.9 50454.6 59047.9 50460.2 59022.4 50468.1 58997.4 50478.1 58973.2 50490.2 58950 50504.3 58927.9 50520.2 58907.2 50537.9 58887.9 50557.2 58870.2 50577.9 58854.3 50600 58840.2 50623.2 58828.1 50647.4 58818.1 50672.4 58810.2 50697.9 58804.6 50723.9 58801.1 50750 58800 M 50750 54900 52050 54900 52076.1 54901.1 52102.1 54904.6 52127.6 54910.2 52152.6 54918.1 52176.8 54928.1 52200 54940.2 52222.1 54954.3 52242.8 54970.2 52262.1 54987.9 52279.8 55007.2 52295.7 55027.9 52309.8 55050 52321.9 55073.2 52331.9 55097.4 52339.8 55122.4 52345.4 55147.9 52348.9 55173.9 52350 55200 52348.9 55226.1 52345.4 55252.1 52339.8 55277.6 52331.9 55302.6 52321.9 55326.8 52309.8 55350 52295.7 55372.1 52279.8 55392.8 52262.1 55412.1 52242.8 55429.8 52222.1 55445.7 52200 55459.8 52176.8 55471.9 52152.6 55481.9 52127.6 55489.8 52102.1 55495.4 52076.1 55498.9 52050 55500 50750 55500 50723.9 55498.9 50697.9 55495.4 50672.4 55489.8 50647.4 55481.9 50623.2 55471.9 50600 55459.8 50577.9 55445.7 50557.2 55429.8 50537.9 55412.1 50520.2 55392.8 50504.3 55372.1 50490.2 55350 50478.1 55326.8 50468.1 55302.6 50460.2 55277.6 50454.6 55252.1 50451.1 55226.1 50450 55200 50451.1 55173.9 50454.6 55147.9 50460.2 55122.4 50468.1 55097.4 50478.1 55073.2 50490.2 55050 50504.3 55027.9 50520.2 55007.2 50537.9 54987.9 50557.2 54970.2 50577.9 54954.3 50600 54940.2 50623.2 54928.1 50647.4 54918.1 50672.4 54910.2 50697.9 54904.6 50723.9 54901.1 50750 54900 M 24511 30480 24513.4 30424.7 24520.6 30369.7 24532.6 30315.7 24549.3 30262.8 24570.5 30211.6 24596.1 30162.5 24625.8 30115.8 24659.6 30071.8 24697 30031 24737.8 29993.6 24781.8 29959.8 24828.5 29930.1 24877.6 29904.5 24928.8 29883.3 24981.7 29866.6 25035.7 29854.6 25090.7 29847.4 25146 29845 25201.3 29847.4 25256.3 29854.6 25310.4 29866.6 25363.2 29883.3 25414.4 29904.5 25463.5 29930.1 25510.2 29959.8 25554.2 29993.6 25595 30031 25632.4 30071.8 25666.2 30115.8 25695.9 30162.5 25721.5 30211.6 25742.7 30262.8 25759.4 30315.7 25771.4 30369.7 25778.6 30424.7 25781 30480 25781 38862 25782 38884.1 25784.9 38906.1 25789.7 38927.7 25796.3 38948.9 25804.8 38969.3 25815 38989 25826.9 39007.7 25840.4 39025.3 25855.4 39041.6 25871.7 39056.6 25889.3 39070.1 25908 39082 25927.7 39092.2 25948.1 39100.7 25969.3 39107.3 25990.9 39112.1 26012.9 39115 26035 39116 39751 39116 39828.5 39119.4 39905.4 39129.5 39981.1 39146.3 40055.1 39169.6 40126.7 39199.3 40195.5 39235.1 40260.9 39276.8 40322.4 39324 40379.6 39376.4 40432 39433.6 40479.2 39495.1 40520.9 39560.5 40556.7 39629.3 40586.4 39700.9 40609.7 39774.9 40626.5 39850.6 40636.6 39927.5 40640 40005 40640 52451 40636.6 52528.5 40626.5 52605.4 40609.7 52681.1 40586.4 52755.1 40556.7 52826.7 40520.9 52895.5 40479.2 52960.9 40432 53022.4 40379.6 53079.6 40322.4 53132 40260.9 53179.2 40195.5 53220.9 40126.7 53256.7 40055.1 53286.4 39981.1 53309.7 39905.4 53326.5 39828.5 53336.6 39751 53340 34417 53340 34394.9 53341 34372.9 53343.9 34351.3 53348.7 34330.1 53355.3 34309.7 53363.8 34290 53374 34271.3 53385.9 34253.7 53399.4 34237.4 53414.4 34222.4 53430.7 34208.9 53448.3 34197 53467 34186.8 53486.7 34178.3 53507.1 34171.7 53528.3 34166.9 53549.9 34164 53571.9 34163 53594 34163 60706 34164 60728.1 34166.9 60750.1 34171.7 60771.7 34178.3 60792.9 34186.8 60813.3 34197 60833 34208.9 60851.7 34222.4 60869.3 34237.4 60885.6 34253.7 60900.6 34271.3 60914.1 34290 60926 34309.7 60936.2 34330.1 60944.7 34351.3 60951.3 34372.9 60956.1 34394.9 60959 34417 60960 39751 60960 39806.3 60962.4 39861.3 60969.6 39915.4 60981.6 39968.2 60998.3 40019.4 61019.5 40068.5 61045.1 40115.2 61074.8 40159.2 61108.6 40200 61146 40237.4 61186.8 40271.2 61230.8 40300.9 61277.5 40326.5 61326.6 40347.7 61377.8 40364.4 61430.7 40376.4 61484.7 40383.6 61539.7 40386 61595 40383.6 61650.3 40376.4 61705.3 40364.4 61759.4 40347.7 61812.2 40326.5 61863.4 40300.9 61912.5 40271.2 61959.2 40237.4 62003.2 40200 62044 40159.2 62081.4 40115.2 62115.2 40068.5 62144.9 40019.4 62170.5 39968.2 62191.7 39915.4 62208.4 39861.3 62220.4 39806.3 62227.6 39751 62230 33782 62230 33704.5 62226.6 33627.6 62216.5 33551.9 62199.7 33477.9 62176.4 33406.3 62146.7 33337.5 62110.9 33272.1 62069.2 33210.6 62022 33153.4 61969.6 33101 61912.4 33053.8 61850.9 33012.1 61785.5 32976.3 61716.7 32946.6 61645.1 32923.3 61571.1 32906.5 61495.4 32896.4 61418.5 32893 61341 32893 52959 32896.4 52881.5 32906.5 52804.6 32923.3 52728.9 32946.6 52654.9 32976.3 52583.3 33012.1 52514.5 33053.8 52449.1 33101 52387.6 33153.4 52330.4 33210.6 52278 33272.1 52230.8 33337.5 52189.1 33406.3 52153.3 33477.9 52123.6 33551.9 52100.3 33627.6 52083.5 33704.5 52073.4 33782 52070 39116 52070 39138.1 52069 39160.1 52066.1 39181.7 52061.3 39202.9 52054.7 39223.3 52046.2 39243 52036 39261.7 52024.1 39279.3 52010.6 39295.6 51995.6 39310.6 51979.3 39324.1 51961.7 39336 51943 39346.2 51923.3 39354.7 51902.9 39361.3 51881.7 39366.1 51860.1 39369 51838.1 39370 51816 39370 40640 39369 40617.9 39366.1 40595.9 39361.3 40574.3 39354.7 40553.1 39346.2 40532.7 39336 40513 39324.1 40494.3 39310.6 40476.7 39295.6 40460.4 39279.3 40445.4 39261.7 40431.9 39243 40420 39223.3 40409.8 39202.9 40401.3 39181.7 40394.7 39160.1 40389.9 39138.1 40387 39116 40386 25400 40386 25322.5 40382.6 25245.6 40372.5 25169.9 40355.7 25095.9 40332.4 25024.3 40302.7 24955.5 40266.9 24890.1 40225.2 24828.6 40178 24771.4 40125.6 24719 40068.4 24671.8 40006.9 24630.1 39941.5 24594.3 39872.7 24564.6 39801.1 24541.3 39727.1 24524.5 39651.4 24514.4 39574.5 24511 39497 24511 30480 M 13524 54945.6 13516.2 54837 13500.7 54729.2 13477.6 54622.9 13446.9 54518.4 13408.9 54416.4 13363.7 54317.4 13311.5 54221.9 13252.6 54130.3 13187.4 54043.1 13116.1 53960.9 13039.1 53883.9 12956.9 53812.6 12869.7 53747.4 12778.1 53688.5 12682.6 53636.3 12583.6 53591.1 12481.6 53553.1 12377.1 53522.4 12270.8 53499.3 12163 53483.8 12054.4 53476 11945.6 53476 11837 53483.8 11729.2 53499.3 11622.9 53522.4 11518.4 53553.1 11416.4 53591.1 11317.4 53636.3 11221.9 53688.5 11130.3 53747.4 11043.1 53812.6 10960.9 53883.9 10883.9 53960.9 10812.6 54043.1 10747.4 54130.3 10688.5 54221.9 10636.3 54317.4 10591.1 54416.4 10553.1 54518.4 10522.4 54622.9 10499.3 54729.2 10483.8 54837 10476 54945.6 10476 55054.4 10483.8 55163 10499.3 55270.8 10522.4 55377.1 10553.1 55481.6 10591.1 55583.6 10636.3 55682.6 10688.5 55778.1 10747.4 55869.7 10812.6 55956.9 10883.9 56039.1 10960.9 56116.1 11043.1 56187.4 11130.3 56252.6 11221.9 56311.5 11317.4 56363.7 11416.4 56408.9 11518.4 56446.9 11622.9 56477.6 11729.2 56500.7 11837 56516.2 11945.6 56524 12054.4 56524 12163 56516.2 12270.8 56500.7 12377.1 56477.6 12481.6 56446.9 12583.6 56408.9 12682.6 56363.7 12778.1 56311.5 12869.7 56252.6 12956.9 56187.4 13039.1 56116.1 13116.1 56039.1 13187.4 55956.9 13252.6 55869.7 13311.5 55778.1 13363.7 55682.6 13408.9 55583.6 13446.9 55481.6 13477.6 55377.1 13500.7 55270.8 13516.2 55163 13524 55054.4 13524 54945.6 M 72524 65945.6 72516.2 65837 72500.7 65729.2 72477.6 65622.9 72446.9 65518.4 72408.9 65416.4 72363.7 65317.4 72311.5 65221.9 72252.6 65130.3 72187.4 65043.1 72116.1 64960.9 72039.1 64883.9 71956.9 64812.6 71869.7 64747.4 71778.1 64688.5 71682.6 64636.3 71583.6 64591.1 71481.6 64553.1 71377.1 64522.4 71270.8 64499.3 71163 64483.8 71054.4 64476 70945.6 64476 70837 64483.8 70729.2 64499.3 70622.9 64522.4 70518.4 64553.1 70416.4 64591.1 70317.4 64636.3 70221.9 64688.5 70130.3 64747.4 70043.1 64812.6 69960.9 64883.9 69883.9 64960.9 69812.6 65043.1 69747.4 65130.3 69688.5 65221.9 69636.3 65317.4 69591.1 65416.4 69553.1 65518.4 69522.4 65622.9 69499.3 65729.2 69483.8 65837 69476 65945.6 69476 66054.4 69483.8 66163 69499.3 66270.8 69522.4 66377.1 69553.1 66481.6 69591.1 66583.6 69636.3 66682.6 69688.5 66778.1 69747.4 66869.7 69812.6 66956.9 69883.9 67039.1 69960.9 67116.1 70043.1 67187.4 70130.3 67252.6 70221.9 67311.5 70317.4 67363.7 70416.4 67408.9 70518.4 67446.9 70622.9 67477.6 70729.2 67500.7 70837 67516.2 70945.6 67524 71054.4 67524 71163 67516.2 71270.8 67500.7 71377.1 67477.6 71481.6 67446.9 71583.6 67408.9 71682.6 67363.7 71778.1 67311.5 71869.7 67252.6 71956.9 67187.4 72039.1 67116.1 72116.1 67039.1 72187.4 66956.9 72252.6 66869.7 72311.5 66778.1 72363.7 66682.6 72408.9 66583.6 72446.9 66481.6 72477.6 66377.1 72500.7 66270.8 72516.2 66163 72524 66054.4 72524 65945.6 M 72524 12945.6 72516.2 12837 72500.7 12729.2 72477.6 12622.9 72446.9 12518.4 72408.9 12416.4 72363.7 12317.4 72311.5 12221.9 72252.6 12130.3 72187.4 12043.1 72116.1 11960.9 72039.1 11883.9 71956.9 11812.6 71869.7 11747.4 71778.1 11688.5 71682.6 11636.3 71583.6 11591.1 71481.6 11553.1 71377.1 11522.4 71270.8 11499.3 71163 11483.8 71054.4 11476 70945.6 11476 70837 11483.8 70729.2 11499.3 70622.9 11522.4 70518.4 11553.1 70416.4 11591.1 70317.4 11636.3 70221.9 11688.5 70130.3 11747.4 70043.1 11812.6 69960.9 11883.9 69883.9 11960.9 69812.6 12043.1 69747.4 12130.3 69688.5 12221.9 69636.3 12317.4 69591.1 12416.4 69553.1 12518.4 69522.4 12622.9 69499.3 12729.2 69483.8 12837 69476 12945.6 69476 13054.4 69483.8 13163 69499.3 13270.8 69522.4 13377.1 69553.1 13481.6 69591.1 13583.6 69636.3 13682.6 69688.5 13778.1 69747.4 13869.7 69812.6 13956.9 69883.9 14039.1 69960.9 14116.1 70043.1 14187.4 70130.3 14252.6 70221.9 14311.5 70317.4 14363.7 70416.4 14408.9 70518.4 14446.9 70622.9 14477.6 70729.2 14500.7 70837 14516.2 70945.6 14524 71054.4 14524 71163 14516.2 71270.8 14500.7 71377.1 14477.6 71481.6 14446.9 71583.6 14408.9 71682.6 14363.7 71778.1 14311.5 71869.7 14252.6 71956.9 14187.4 72039.1 14116.1 72116.1 14039.1 72187.4 13956.9 72252.6 13869.7 72311.5 13778.1 72363.7 13682.6 72408.9 13583.6 72446.9 13481.6 72477.6 13377.1 72500.7 13270.8 72516.2 13163 72524 13054.4 72524 12945.6 M 13524 12945.6 13516.2 12837 13500.7 12729.2 13477.6 12622.9 13446.9 12518.4 13408.9 12416.4 13363.7 12317.4 13311.5 12221.9 13252.6 12130.3 13187.4 12043.1 13116.1 11960.9 13039.1 11883.9 12956.9 11812.6 12869.7 11747.4 12778.1 11688.5 12682.6 11636.3 12583.6 11591.1 12481.6 11553.1 12377.1 11522.4 12270.8 11499.3 12163 11483.8 12054.4 11476 11945.6 11476 11837 11483.8 11729.2 11499.3 11622.9 11522.4 11518.4 11553.1 11416.4 11591.1 11317.4 11636.3 11221.9 11688.5 11130.3 11747.4 11043.1 11812.6 10960.9 11883.9 10883.9 11960.9 10812.6 12043.1 10747.4 12130.3 10688.5 12221.9 10636.3 12317.4 10591.1 12416.4 10553.1 12518.4 10522.4 12622.9 10499.3 12729.2 10483.8 12837 10476 12945.6 10476 13054.4 10483.8 13163 10499.3 13270.8 10522.4 13377.1 10553.1 13481.6 10591.1 13583.6 10636.3 13682.6 10688.5 13778.1 10747.4 13869.7 10812.6 13956.9 10883.9 14039.1 10960.9 14116.1 11043.1 14187.4 11130.3 14252.6 11221.9 14311.5 11317.4 14363.7 11416.4 14408.9 11518.4 14446.9 11622.9 14477.6 11729.2 14500.7 11837 14516.2 11945.6 14524 12054.4 14524 12163 14516.2 12270.8 14500.7 12377.1 14477.6 12481.6 14446.9 12583.6 14408.9 12682.6 14363.7 12778.1 14311.5 12869.7 14252.6 12956.9 14187.4 13039.1 14116.1 13116.1 14039.1 13187.4 13956.9 13252.6 13869.7 13311.5 13778.1 13363.7 13682.6 13408.9 13583.6 13446.9 13481.6 13477.6 13377.1 13500.7 13270.8 13516.2 13163 13524 13054.4 13524 12945.6 M 52000 26939.6 51992.7 26818.9 51978.1 26698.9 51956.3 26580 51927.4 26462.7 51891.5 26347.3 51848.6 26234.3 51799 26124.1 51742.8 26017 51680.3 25913.6 51611.6 25814.1 51537.1 25719 51456.9 25628.5 51371.5 25543.1 51281 25462.9 51185.9 25388.4 51086.4 25319.7 50983 25257.2 50875.9 25201 50765.7 25151.4 50652.7 25108.5 50537.3 25072.6 50420 25043.7 50301.1 25021.9 50181.1 25007.3 50060.4 25000 49939.6 25000 49818.9 25007.3 49698.9 25021.9 49580 25043.7 49462.7 25072.6 49347.3 25108.5 49234.3 25151.4 49124.1 25201 49017 25257.2 48913.6 25319.7 48814.1 25388.4 48719 25462.9 48628.5 25543.1 48543.1 25628.5 48462.9 25719 48388.4 25814.1 48319.7 25913.6 48257.2 26017 48201 26124.1 48151.4 26234.3 48108.5 26347.3 48072.6 26462.7 48043.7 26580 48021.9 26698.9 48007.3 26818.9 48000 26939.6 48000 27060.4 48007.3 27181.1 48021.9 27301.1 48043.7 27420 48072.6 27537.3 48108.5 27652.7 48151.4 27765.7 48201 27875.9 48257.2 27983 48319.7 28086.4 48388.4 28185.9 48462.9 28281 48543.1 28371.5 48628.5 28456.9 48719 28537.1 48814.1 28611.6 48913.6 28680.3 49017 28742.8 49124.1 28799 49234.3 28848.6 49347.3 28891.5 49462.7 28927.4 49580 28956.3 49698.9 28978.1 49818.9 28992.7 49939.6 29000 50060.4 29000 50181.1 28992.7 50301.1 28978.1 50420 28956.3 50537.3 28927.4 50652.7 28891.5 50765.7 28848.6 50875.9 28799 50983 28742.8 51086.4 28680.3 51185.9 28611.6 51281 28537.1 51371.5 28456.9 51456.9 28371.5 51537.1 28281 51611.6 28185.9 51680.3 28086.4 51742.8 27983 51799 27875.9 51848.6 27765.7 51891.5 27652.7 51927.4 27537.3 51956.3 27420 51978.1 27301.1 51992.7 27181.1 52000 27060.4 52000 26939.6 M 22000 60939.6 21992.7 60818.9 21978.1 60698.9 21956.3 60580 21927.4 60462.7 21891.5 60347.3 21848.6 60234.3 21799 60124.1 21742.8 60017 21680.3 59913.6 21611.6 59814.1 21537.1 59719 21456.9 59628.5 21371.5 59543.1 21281 59462.9 21185.9 59388.4 21086.4 59319.7 20983 59257.2 20875.9 59201 20765.7 59151.4 20652.7 59108.5 20537.3 59072.6 20420 59043.7 20301.1 59021.9 20181.1 59007.3 20060.4 59000 19939.6 59000 19818.9 59007.3 19698.9 59021.9 19580 59043.7 19462.7 59072.6 19347.3 59108.5 19234.3 59151.4 19124.1 59201 19017 59257.2 18913.6 59319.7 18814.1 59388.4 18719 59462.9 18628.5 59543.1 18543.1 59628.5 18462.9 59719 18388.4 59814.1 18319.7 59913.6 18257.2 60017 18201 60124.1 18151.4 60234.3 18108.5 60347.3 18072.6 60462.7 18043.7 60580 18021.9 60698.9 18007.3 60818.9 18000 60939.6 18000 61060.4 18007.3 61181.1 18021.9 61301.1 18043.7 61420 18072.6 61537.3 18108.5 61652.7 18151.4 61765.7 18201 61875.9 18257.2 61983 18319.7 62086.4 18388.4 62185.9 18462.9 62281 18543.1 62371.5 18628.5 62456.9 18719 62537.1 18814.1 62611.6 18913.6 62680.3 19017 62742.8 19124.1 62799 19234.3 62848.6 19347.3 62891.5 19462.7 62927.4 19580 62956.3 19698.9 62978.1 19818.9 62992.7 19939.6 63000 20060.4 63000 20181.1 62992.7 20301.1 62978.1 20420 62956.3 20537.3 62927.4 20652.7 62891.5 20765.7 62848.6 20875.9 62799 20983 62742.8 21086.4 62680.3 21185.9 62611.6 21281 62537.1 21371.5 62456.9 21456.9 62371.5 21537.1 62281 21611.6 62185.9 21680.3 62086.4 21742.8 61983 21799 61875.9 21848.6 61765.7 21891.5 61652.7 21927.4 61537.3 21956.3 61420 21978.1 61301.1 21992.7 61181.1 22000 61060.4 22000 60939.6 M 82000 60939.6 81992.7 60818.9 81978.1 60698.9 81956.3 60580 81927.4 60462.7 81891.5 60347.3 81848.6 60234.3 81799 60124.1 81742.8 60017 81680.3 59913.6 81611.6 59814.1 81537.1 59719 81456.9 59628.5 81371.5 59543.1 81281 59462.9 81185.9 59388.4 81086.4 59319.7 80983 59257.2 80875.9 59201 80765.7 59151.4 80652.7 59108.5 80537.3 59072.6 80420 59043.7 80301.1 59021.9 80181.1 59007.3 80060.4 59000 79939.6 59000 79818.9 59007.3 79698.9 59021.9 79580 59043.7 79462.7 59072.6 79347.3 59108.5 79234.3 59151.4 79124.1 59201 79017 59257.2 78913.6 59319.7 78814.1 59388.4 78719 59462.9 78628.5 59543.1 78543.1 59628.5 78462.9 59719 78388.4 59814.1 78319.7 59913.6 78257.2 60017 78201 60124.1 78151.4 60234.3 78108.5 60347.3 78072.6 60462.7 78043.7 60580 78021.9 60698.9 78007.3 60818.9 78000 60939.6 78000 61060.4 78007.3 61181.1 78021.9 61301.1 78043.7 61420 78072.6 61537.3 78108.5 61652.7 78151.4 61765.7 78201 61875.9 78257.2 61983 78319.7 62086.4 78388.4 62185.9 78462.9 62281 78543.1 62371.5 78628.5 62456.9 78719 62537.1 78814.1 62611.6 78913.6 62680.3 79017 62742.8 79124.1 62799 79234.3 62848.6 79347.3 62891.5 79462.7 62927.4 79580 62956.3 79698.9 62978.1 79818.9 62992.7 79939.6 63000 80060.4 63000 80181.1 62992.7 80301.1 62978.1 80420 62956.3 80537.3 62927.4 80652.7 62891.5 80765.7 62848.6 80875.9 62799 80983 62742.8 81086.4 62680.3 81185.9 62611.6 81281 62537.1 81371.5 62456.9 81456.9 62371.5 81537.1 62281 81611.6 62185.9 81680.3 62086.4 81742.8 61983 81799 61875.9 81848.6 61765.7 81891.5 61652.7 81927.4 61537.3 81956.3 61420 81978.1 61301.1 81992.7 61181.1 82000 61060.4 82000 60939.6 M 66140 12799.6 66132.7 12678.9 66118.1 12558.9 66096.3 12440 66067.4 12322.7 66031.5 12207.3 65988.6 12094.3 65939 11984.1 65882.8 11877 65820.3 11773.6 65751.6 11674.1 65677.1 11579 65596.9 11488.5 65511.5 11403.1 65421 11322.9 65325.9 11248.4 65226.4 11179.7 65123 11117.2 65015.9 11061 64905.7 11011.4 64792.7 10968.5 64677.3 10932.6 64560 10903.7 64441.1 10881.9 64321.1 10867.3 64200.4 10860 64079.6 10860 63958.9 10867.3 63838.9 10881.9 63720 10903.7 63602.7 10932.6 63487.3 10968.5 63374.3 11011.4 63264.1 11061 63157 11117.2 63053.6 11179.7 62954.1 11248.4 62859 11322.9 62768.5 11403.1 62683.1 11488.5 62602.9 11579 62528.4 11674.1 62459.7 11773.6 62397.2 11877 62341 11984.1 62291.4 12094.3 62248.5 12207.3 62212.6 12322.7 62183.7 12440 62161.9 12558.9 62147.3 12678.9 62140 12799.6 62140 12920.4 62147.3 13041.1 62161.9 13161.1 62183.7 13280 62212.6 13397.3 62248.5 13512.7 62291.4 13625.7 62341 13735.9 62397.2 13843 62459.7 13946.4 62528.4 14045.9 62602.9 14141 62683.1 14231.5 62768.5 14316.9 62859 14397.1 62954.1 14471.6 63053.6 14540.3 63157 14602.8 63264.1 14659 63374.3 14708.6 63487.3 14751.5 63602.7 14787.4 63720 14816.3 63838.9 14838.1 63958.9 14852.7 64079.6 14860 64200.4 14860 64321.1 14852.7 64441.1 14838.1 64560 14816.3 64677.3 14787.4 64792.7 14751.5 64905.7 14708.6 65015.9 14659 65123 14602.8 65226.4 14540.3 65325.9 14471.6 65421 14397.1 65511.5 14316.9 65596.9 14231.5 65677.1 14141 65751.6 14045.9 65820.3 13946.4 65882.8 13843 65939 13735.9 65988.6 13625.7 66031.5 13512.7 66067.4 13397.3 66096.3 13280 66118.1 13161.1 66132.7 13041.1 66140 12920.4 66140 12799.6 M 82054.4 51524 82163 51516.2 82270.8 51500.7 82377.1 51477.6 82481.6 51446.9 82583.6 51408.9 82682.6 51363.7 82778.1 51311.5 82869.7 51252.6 82956.9 51187.4 83039.1 51116.1 83116.1 51039.1 83187.4 50956.9 83252.6 50869.7 83311.5 50778.1 83363.7 50682.6 83408.9 50583.6 83446.9 50481.6 83477.6 50377.1 83500.7 50270.8 83516.2 50163 83524 50054.4 83524 49945.6 83516.2 49837 83500.7 49729.2 83477.6 49622.9 83446.9 49518.4 83408.9 49416.4 83363.7 49317.4 83311.5 49221.9 83252.6 49130.3 83187.4 49043.1 83116.1 48960.9 83039.1 48883.9 82956.9 48812.6 82869.7 48747.4 82778.1 48688.5 82682.6 48636.3 82583.6 48591.1 82481.6 48553.1 82377.1 48522.4 82270.8 48499.3 82163 48483.8 82054.4 48476 81945.6 48476 81837 48483.8 81729.2 48499.3 81622.9 48522.4 81518.4 48553.1 81416.4 48591.1 81317.4 48636.3 81221.9 48688.5 81130.3 48747.4 81043.1 48812.6 80960.9 48883.9 80883.9 48960.9 80812.6 49043.1 80747.4 49130.3 80688.5 49221.9 80636.3 49317.4 80591.1 49416.4 80553.1 49518.4 80522.4 49622.9 80499.3 49729.2 80483.8 49837 80476 49945.6 80476 50054.4 80483.8 50163 80499.3 50270.8 80522.4 50377.1 80553.1 50481.6 80591.1 50583.6 80636.3 50682.6 80688.5 50778.1 80747.4 50869.7 80812.6 50956.9 80883.9 51039.1 80960.9 51116.1 81043.1 51187.4 81130.3 51252.6 81221.9 51311.5 81317.4 51363.7 81416.4 51408.9 81518.4 51446.9 81622.9 51477.6 81729.2 51500.7 81837 51516.2 81945.6 51524 82054.4 51524 M 82054.4 26524 82163 26516.2 82270.8 26500.7 82377.1 26477.6 82481.6 26446.9 82583.6 26408.9 82682.6 26363.7 82778.1 26311.5 82869.7 26252.6 82956.9 26187.4 83039.1 26116.1 83116.1 26039.1 83187.4 25956.9 83252.6 25869.7 83311.5 25778.1 83363.7 25682.6 83408.9 25583.6 83446.9 25481.6 83477.6 25377.1 83500.7 25270.8 83516.2 25163 83524 25054.4 83524 24945.6 83516.2 24837 83500.7 24729.2 83477.6 24622.9 83446.9 24518.4 83408.9 24416.4 83363.7 24317.4 83311.5 24221.9 83252.6 24130.3 83187.4 24043.1 83116.1 23960.9 83039.1 23883.9 82956.9 23812.6 82869.7 23747.4 82778.1 23688.5 82682.6 23636.3 82583.6 23591.1 82481.6 23553.1 82377.1 23522.4 82270.8 23499.3 82163 23483.8 82054.4 23476 81945.6 23476 81837 23483.8 81729.2 23499.3 81622.9 23522.4 81518.4 23553.1 81416.4 23591.1 81317.4 23636.3 81221.9 23688.5 81130.3 23747.4 81043.1 23812.6 80960.9 23883.9 80883.9 23960.9 80812.6 24043.1 80747.4 24130.3 80688.5 24221.9 80636.3 24317.4 80591.1 24416.4 80553.1 24518.4 80522.4 24622.9 80499.3 24729.2 80483.8 24837 80476 24945.6 80476 25054.4 80483.8 25163 80499.3 25270.8 80522.4 25377.1 80553.1 25481.6 80591.1 25583.6 80636.3 25682.6 80688.5 25778.1 80747.4 25869.7 80812.6 25956.9 80883.9 26039.1 80960.9 26116.1 81043.1 26187.4 81130.3 26252.6 81221.9 26311.5 81317.4 26363.7 81416.4 26408.9 81518.4 26446.9 81622.9 26477.6 81729.2 26500.7 81837 26516.2 81945.6 26524 82054.4 26524" fill="none" stroke-width="254"/></clipPath><mask id="apb5zZgjsCQObV-Vo95N_bottom_mech-mask"><g fill="#000" stroke="#000"><rect x="8000" y="9500" width="80000" height="62500" fill="#fff"/><use xlink:href="#apb5zZgjsCQObV-Vo95N_bottom_drill1"/></g></mask><mask id="apb5zZgjsCQObV-Vo95N_bottom_cf-mask"><g fill="#fff" stroke="#fff"><use xlink:href="#apb5zZgjsCQObV-Vo95N_bottom_soldermask"/></g></mask><mask id="apb5zZgjsCQObV-Vo95N_bottom_sm-mask"><g fill="#000" stroke="#000"><rect x="8000" y="9500" width="80000" height="62500" fill="#fff"/><use xlink:href="#apb5zZgjsCQObV-Vo95N_bottom_soldermask"/></g></mask></defs><g transform="translate(0,81500) scale(1,-1)"><g mask="url(#apb5zZgjsCQObV-Vo95N_bottom_mech-mask)" clip-path="url(#apb5zZgjsCQObV-Vo95N_bottom_outline)" transform="translate(96000,0) scale(-1,1)"><rect x="8000" y="9500" width="80000" height="62500" fill="currentColor" class="apb5zZgjsCQObV-Vo95N_fr4"/><use xlink:href="#apb5zZgjsCQObV-Vo95N_bottom_copper" fill="currentColor" stroke="currentColor" class="apb5zZgjsCQObV-Vo95N_cu"/><use xlink:href="#apb5zZgjsCQObV-Vo95N_bottom_copper" fill="currentColor" stroke="currentColor" class="apb5zZgjsCQObV-Vo95N_cf" mask="url(#apb5zZgjsCQObV-Vo95N_bottom_cf-mask)"/><g mask="url(#apb5zZgjsCQObV-Vo95N_bottom_sm-mask)"><rect x="8000" y="9500" width="80000" height="62500" fill="currentColor" class="apb5zZgjsCQObV-Vo95N_sm"/><use xlink:href="#apb5zZgjsCQObV-Vo95N_bottom_silkscreen" fill="currentColor" stroke="currentColor" class="apb5zZgjsCQObV-Vo95N_ss"/></g><use xlink:href="#apb5zZgjsCQObV-Vo95N_bottom_solderpaste" fill="currentColor" stroke="currentColor" class="apb5zZgjsCQObV-Vo95N_sp"/></g></g></svg>