<svg version="1.1" xmlns="http://www.w3.org/2000/svg" xmlns:xlink="http://www.w3.org/1999/xlink" stroke-linecap="round" stroke-linejoin="round" stroke-width="0" fill-rule="evenodd" width="52.273199999999996mm" height="49.26975mm" viewBox="13766.8 19062.75 52273.2 49269.75" id="FKkOtIuXFgFwAhnRX5rr"><defs><circle cx="0" cy="0" r="637.5" id="FKkOtIuXFgFwAhnRX5rr_pad-11"/><circle cx="0" cy="0" r="857.25" id="FKkOtIuXFgFwAhnRX5rr_pad-12"/><rect x="-635" y="-317.5" width="1270" height="635" id="FKkOtIuXFgFwAhnRX5rr_pad-13"/><rect x="-750" y="-650" width="1500" height="1300" id="FKkOtIuXFgFwAhnRX5rr_pad-14"/><circle cx="0" cy="0" r="562.5" id="FKkOtIuXFgFwAhnRX5rr_pad-15"/><rect x="-381" y="-431.8" width="762" height="863.6" id="FKkOtIuXFgFwAhnRX5rr_pad-16"/><rect x="-225" y="-295" width="450" height="590" id="FKkOtIuXFgFwAhnRX5rr_pad-17"/><rect x="-900" y="-800" width="1800" height="1600" id="FKkOtIuXFgFwAhnRX5rr_pad-18"/><circle cx="0" cy="0" r="635" id="FKkOtIuXFgFwAhnRX5rr_pad-19"/><rect x="-1905" y="-1905" width="3810" height="3810" id="FKkOtIuXFgFwAhnRX5rr_pad-21"/><circle cx="0" cy="0" r="378.2" id="FKkOtIuXFgFwAhnRX5rr_pad-23"/></defs><g transform="translate(0,87395.25) scale(1,-1)" fill="currentColor" stroke="currentColor"><path d="M 52707 54534.2 52707 54534.2 52708.9 54534 52719.1 54536.2 52729.3 54537.9 52731 54538.8 52733 54539.2 52741.9 54544.5 52751 54549.4 52752.4 54550.8 52754.1 54551.8 52760.8 54559.7 52768 54567.2 52768.8 54569 52770.1 54570.5 52774 54580.1 52778.3 54589.5 52778.5 54591.5 52779.3 54593.3 52781.1 54610 52781.1 59690 52780.8 59692 52781 59693.9 52778.8 59704.1 52777.2 59714.3 52776.2 59716 52775.8 59718 52770.5 59726.9 52765.6 59736 52764.2 59737.4 52763.2 59739.1 52755.3 59745.8 52747.8 59753 52746 59753.8 52744.5 59755.1 52734.9 59759 52725.5 59763.3 52723.5 59763.5 52721.7 59764.3 52705 59766.1 46990 59766.1 46988 59765.8 46986.1 59766 46975.9 59763.8 46965.7 59762.2 46964 59761.2 46962 59760.8 46953.1 59755.5 46944 59750.6 46942.6 59749.2 46940.9 59748.2 46934.2 59740.3 46927.1 59732.8 46926.2 59731 46924.9 59729.5 46921 59719.9 46916.7 59710.5 46916.5 59708.5 46915.7 59706.7 46913.9 59690 46913.9 54610 46914.2 54608 46914 54606.1 46916.2 54595.9 46917.9 54585.7 46918.8 54584 46919.2 54582 46924.5 54573.1 46929.4 54564 46930.8 54562.6 46931.8 54560.9 46939.7 54554.2 46947.2 54547.1 46949 54546.2 46950.5 54544.9 46960.1 54541 46969.5 54536.7 46971.5 54536.5 46973.3 54535.7 46990 54533.9 52705 54533.9 52707 54534.2"/><path d="M 41912 54534.2 41912 54534.2 41913.9 54534 41924.1 54536.2 41934.3 54537.9 41936 54538.8 41938 54539.2 41946.9 54544.5 41956 54549.4 41957.4 54550.8 41959.1 54551.8 41965.8 54559.7 41973 54567.2 41973.8 54569 41975.1 54570.5 41979 54580.1 41983.3 54589.5 41983.5 54591.5 41984.3 54593.3 41986.1 54610 41986.1 59690 41985.8 59692 41986 59693.9 41983.8 59704.1 41982.2 59714.3 41981.2 59716 41980.8 59718 41975.5 59726.9 41970.6 59736 41969.2 59737.4 41968.2 59739.1 41960.3 59745.8 41952.8 59753 41951 59753.8 41949.5 59755.1 41939.9 59759 41930.5 59763.3 41928.5 59763.5 41926.7 59764.3 41910 59766.1 36195 59766.1 36193 59765.8 36191.1 59766 36180.9 59763.8 36170.7 59762.2 36169 59761.2 36167 59760.8 36158.1 59755.5 36149 59750.6 36147.6 59749.2 36145.9 59748.2 36139.2 59740.3 36132.1 59732.8 36131.2 59731 36129.9 59729.5 36126 59719.9 36121.7 59710.5 36121.5 59708.5 36120.7 59706.7 36118.9 59690 36118.9 54610 36119.2 54608 36119 54606.1 36121.2 54595.9 36122.9 54585.7 36123.8 54584 36124.2 54582 36129.5 54573.1 36134.4 54564 36135.8 54562.6 36136.8 54560.9 36144.7 54554.2 36152.2 54547.1 36154 54546.2 36155.5 54544.9 36165.1 54541 36174.5 54536.7 36176.5 54536.5 36178.3 54535.7 36195 54533.9 41910 54533.9 41912 54534.2"/><path d="M 27178.3 31356.5 27178.3 31356.5 27178.6 31356.4 27186.9 31360.1 30869.9 35043.1 30870.1 35043.4 30870.3 35043.5 30873.6 35052 30873.6 35941 30873.5 35941.2 30873.6 35941.4 30871.6 35945.7 30869.8 35950.1 30869.6 35950.1 30869.5 35950.3 30861 35953.6 26035 35953.6 26034.8 35953.5 26034.6 35953.6 26030.3 35951.6 26025.9 35949.8 26025.9 35949.6 26025.7 35949.5 26022.4 35941 26022.4 31750 26022.5 31749.7 26022.4 31749.4 26026.1 31741.1 26407.1 31360.1 26407.4 31360 26407.5 31359.7 26416 31356.4 27178 31356.4 27178.3 31356.5"/><path d="M 30861.3 36436.5 30861.3 36436.5 30861.6 36436.4 30869.9 36440.1 32393.9 37964.1 32394.1 37964.4 32394.3 37964.5 32397.6 37973 32397.6 38100 32397.5 38100.3 32397.6 38100.6 32393.9 38108.9 31758.9 38743.9 31758.6 38744.1 31758.5 38744.3 31750 38747.6 26035 38747.6 26034.8 38747.5 26034.6 38747.6 26030.3 38745.6 26025.9 38743.8 26025.9 38743.6 26025.7 38743.5 26022.4 38735 26022.4 36449 26022.5 36448.8 26022.4 36448.6 26024.4 36444.3 26026.2 36439.9 26026.4 36439.9 26026.5 36439.7 26035 36436.4 30861 36436.4 30861.3 36436.5"/><path d="M 15242.7 35611 15242.7 35611 15243.6 35610.9 15262.5 35613.1 15281.8 35615.2 15282.7 35615.5 15283.5 35615.6 15301.7 35621.5 15320.2 35627.4 15321 35627.8 15321.8 35628.1 15338.7 35637.6 15355.4 35646.9 15356.1 35647.4 15356.9 35647.9 15371.5 35660.5 15386.1 35672.9 15386.7 35673.6 15387.4 35674.2 15399.1 35689.3 15411.1 35704.5 15411.5 35705.3 15412 35706 15420.6 35723.2 15429.3 35740.4 15429.6 35741.2 15430 35742.1 15435 35760.7 15440.1 35779.2 15440.2 35780.1 15440.4 35780.9 15443.1 35814 15443.1 37465 15442.9 37466.8 15443.1 37468.6 15441 37486.8 15439.1 37505.1 15438.6 37506.8 15438.4 37508.5 15432.7 37526 15427.3 37543.6 15426.5 37545.1 15425.9 37546.8 15416.9 37562.8 15408.1 37579 15407 37580.3 15406.1 37581.9 15394.1 37595.8 15382.4 37609.9 15381 37611 15379.8 37612.4 15365.3 37623.6 15351 37635.1 15349.4 37635.9 15348 37637 15331.5 37645.2 15315.3 37653.7 15313.6 37654.2 15312 37655 15294.1 37659.7 15276.6 37664.8 15274.8 37665 15273.1 37665.4 15240 37668.1 14689.1 37668.1 14113.6 38243.6 14112.9 38244.2 14112.4 38244.9 14097.4 38256.9 14082.5 38269.1 14081.7 38269.6 14081 38270.1 14063.9 38279 14046.9 38288 14046.1 38288.3 14045.3 38288.7 14026.7 38294 14008.3 38299.5 14007.4 38299.6 14006.6 38299.8 13987.4 38301.4 13968.2 38303.1 13967.3 38303 13966.4 38303.1 13947.5 38300.9 13928.2 38298.8 13927.3 38298.5 13926.5 38298.4 13908.3 38292.5 13889.8 38286.6 13889 38286.2 13888.2 38285.9 13871.3 38276.4 13854.6 38267.1 13853.9 38266.6 13853.1 38266.1 13838.5 38253.5 13823.9 38241.1 13823.3 38240.4 13822.7 38239.8 13810.9 38224.7 13798.9 38209.5 13798.5 38208.7 13798 38208 13789.4 38190.7 13780.7 38173.6 13780.4 38172.8 13780 38172 13775 38153.3 13769.9 38134.8 13769.8 38133.9 13769.6 38133.1 13766.9 38100 13766.9 37084 13767.1 37081.3 13766.9 37078.7 13769.1 37061.3 13770.9 37043.9 13771.7 37041.4 13772 37038.7 13777.6 37022.2 13782.7 37005.4 13784 37003.1 13784.8 37000.6 13793.5 36985.4 13801.9 36970 13803.6 36968 13804.9 36965.7 13826.4 36940.4 15096.4 35670.4 15097.1 35669.8 15097.6 35669.1 15112.6 35657.1 15127.5 35644.9 15128.3 35644.4 15129 35643.9 15146.1 35635 15163.1 35626 15163.9 35625.7 15164.7 35625.3 15183.3 35620 15201.7 35614.5 15202.6 35614.4 15203.4 35614.2 15222.6 35612.6 15241.8 35610.9 15242.7 35611"/><path d="M 29435.5 56629.9 29435.5 56629.9 29435.5 56630 29435.5 57220 29435.1 57220.5 29435 57220.5 28985 57220.5 28984.5 57220.1 28984.5 57220 28984.5 56630 28984.9 56629.5 28985 56629.5 29435 56629.5 29435.5 56629.9"/><path d="M 29435.5 54539.9 29435.5 54539.9 29435.5 54540 29435.5 55130 29435.1 55130.5 29435 55130.5 28985 55130.5 28984.5 55130.1 28984.5 55130 28984.5 54540 28984.9 54539.5 28985 54539.5 29435 54539.5 29435.5 54539.9"/><path d="M 64876.1 60603.9 65451.8 60795.8 64876.1 60987.7 M 65451.8 61378.9 65451.8 61618.8 65451.6 61628.5 65451 61638.1 65450.1 61647.7 65448.7 61657.3 65447 61666.8 65444.8 61676.2 65442.3 61685.5 65439.5 61694.8 65436.2 61703.9 65432.6 61712.8 65428.6 61721.6 65424.3 61730.3 65419.7 61738.8 65414.7 61747 65409.3 61755.1 65403.7 61762.9 65397.7 61770.5 65391.5 61777.9 65384.9 61785 65378.1 61791.8 65371 61798.4 65363.6 61804.6 65356 61810.6 65348.2 61816.2 65340.1 61821.6 65331.9 61826.6 65323.4 61831.2 65314.7 61835.5 65305.9 61839.5 65297 61843.1 65287.9 61846.4 65278.6 61849.2 65269.3 61851.7 65259.9 61853.9 65250.4 61855.6 65240.8 61857 65231.2 61857.9 65221.6 61858.5 65211.9 61858.7 65202.2 61858.5 65192.6 61857.9 65183 61857 65173.4 61855.6 65163.9 61853.9 65154.5 61851.7 65145.2 61849.2 65135.9 61846.4 65126.8 61843.1 65117.9 61839.5 65109.1 61835.5 65100.4 61831.2 65092 61826.6 65083.7 61821.6 65075.6 61816.2 65067.8 61810.6 65060.2 61804.6 65052.8 61798.4 65045.7 61791.8 65038.9 61785 65032.3 61777.9 65026.1 61770.5 65020.1 61762.9 65014.5 61755.1 65009.1 61747 65004.1 61738.8 64999.5 61730.3 64995.2 61721.6 64991.2 61712.8 64987.6 61703.9 64984.3 61694.8 64981.5 61685.5 64979 61676.2 64976.8 61666.8 64975.1 61657.3 64973.7 61647.7 64972.8 61638.1 64972.2 61628.5 64972 61618.8 M 64588.2 61666.7 64588.2 61378.9 M 64588.2 61666.7 64588.4 61675.3 64589 61683.9 64589.9 61692.5 64591.3 61701 64593 61709.4 64595.1 61717.8 64597.6 61726 64600.4 61734.1 64603.6 61742.1 64607.2 61750 64611.1 61757.6 64615.4 61765.1 64619.9 61772.4 64624.8 61779.5 64630.1 61786.3 64635.6 61793 64641.4 61799.3 64647.5 61805.4 64653.8 61811.2 64660.5 61816.7 64667.3 61822 64674.4 61826.9 64681.7 61831.4 64689.2 61835.7 64696.8 61839.6 64704.7 61843.2 64712.7 61846.4 64720.8 61849.2 64729 61851.7 64737.4 61853.8 64745.8 61855.5 64754.3 61856.9 64762.9 61857.8 64771.5 61858.4 64780.1 61858.6 64788.7 61858.4 64797.3 61857.8 64805.9 61856.9 64814.4 61855.5 64822.8 61853.8 64831.2 61851.7 64839.4 61849.2 64847.5 61846.4 64855.5 61843.2 64863.4 61839.6 64871 61835.7 64878.5 61831.4 64885.8 61826.9 64892.9 61822 64899.7 61816.7 64906.4 61811.2 64912.7 61805.4 64918.8 61799.3 64924.6 61793 64930.1 61786.3 64935.4 61779.5 64940.3 61772.4 64944.8 61765.1 64949.1 61757.6 64953 61750 64956.6 61742.1 64959.8 61734.1 64962.6 61726 64965.1 61717.8 64967.2 61709.4 64968.9 61701 64970.3 61692.5 64971.2 61683.9 64971.8 61675.3 64972 61666.7 64972 61474.8 M 65403.8 62234.8 65451.8 62234.8 M 65403.8 62234.8 65403.8 62282.8 65451.8 62282.8 65451.8 62234.8 M 65020 62659 65003 62659.2 64986 62659.8 64969.1 62660.8 64952.1 62662.2 64935.2 62664.1 64918.4 62666.3 64901.6 62668.9 64884.9 62671.9 64868.3 62675.4 64851.7 62679.2 64835.2 62683.4 64818.9 62688 64802.7 62693 64786.5 62698.4 64770.6 62704.1 64754.7 62710.3 64739 62716.8 64723.5 62723.7 64708.1 62731 64700.5 62733.8 64693 62737 64685.6 62740.5 64678.4 62744.3 64671.4 62748.5 64664.6 62753 64658 62757.8 64651.6 62762.9 64645.5 62768.3 64639.6 62773.9 64634 62779.9 64628.7 62786 64623.7 62792.4 64618.9 62799.1 64614.5 62805.9 64610.4 62813 64606.6 62820.2 64603.2 62827.6 64600.1 62835.1 64597.3 62842.8 64594.9 62850.6 64592.9 62858.5 64591.2 62866.5 64589.9 62874.5 64588.9 62882.6 64588.4 62890.7 64588.2 62898.9 64588.4 62907.1 64588.9 62915.2 64589.9 62923.3 64591.2 62931.3 64592.9 62939.3 64594.9 62947.2 64597.3 62955 64600.1 62962.7 64603.2 62970.2 64606.6 62977.6 64610.4 62984.8 64614.5 62991.9 64618.9 62998.7 64623.7 63005.4 64628.7 63011.8 64634 63017.9 64639.6 63023.9 64645.5 63029.5 64651.6 63034.9 64658 63040 64664.6 63044.8 64671.4 63049.3 64678.4 63053.5 64685.6 63057.3 64693 63060.8 64700.5 63064 64708.1 63066.8 64723.5 63074.1 64739 63081 64754.7 63087.5 64770.6 63093.7 64786.5 63099.4 64802.7 63104.8 64818.9 63109.8 64835.2 63114.4 64851.7 63118.6 64868.3 63122.4 64884.9 63125.9 64901.6 63128.9 64918.4 63131.5 64935.2 63133.7 64952.1 63135.6 64969.1 63137 64986 63138 65003 63138.6 65020 63138.8 M 65020 62659 65037 62659.2 65054 62659.8 65070.9 62660.8 65087.9 62662.2 65104.8 62664.1 65121.6 62666.3 65138.4 62668.9 65155.1 62671.9 65171.7 62675.4 65188.3 62679.2 65204.8 62683.4 65221.1 62688 65237.3 62693 65253.5 62698.4 65269.4 62704.1 65285.3 62710.3 65301 62716.8 65316.5 62723.7 65331.9 62731 65339.5 62733.8 65347 62737 65354.4 62740.5 65361.6 62744.3 65368.6 62748.5 65375.4 62753 65382 62757.8 65388.4 62762.9 65394.5 62768.3 65400.4 62773.9 65406 62779.9 65411.3 62786 65416.3 62792.4 65421.1 62799.1 65425.5 62805.9 65429.6 62813 65433.4 62820.2 65436.8 62827.6 65439.9 62835.1 65442.7 62842.8 65445.1 62850.6 65447.1 62858.5 65448.8 62866.5 65450.1 62874.5 65451.1 62882.6 65451.6 62890.7 65451.8 62898.9 M 65331.9 63066.8 65316.5 63074.1 65301 63081 65285.3 63087.5 65269.4 63093.7 65253.5 63099.4 65237.3 63104.8 65221.1 63109.8 65204.8 63114.4 65188.3 63118.6 65171.7 63122.4 65155.1 63125.9 65138.4 63128.9 65121.6 63131.5 65104.8 63133.7 65087.9 63135.6 65070.9 63137 65054 63138 65037 63138.6 65020 63138.8 M 65331.9 63066.8 65339.5 63064 65347 63060.8 65354.4 63057.3 65361.6 63053.5 65368.6 63049.3 65375.4 63044.8 65382 63040 65388.4 63034.9 65394.5 63029.5 65400.4 63023.9 65406 63017.9 65411.3 63011.8 65416.3 63005.4 65421.1 62998.7 65425.5 62991.9 65429.6 62984.8 65433.4 62977.6 65436.8 62970.2 65439.9 62962.7 65442.7 62955 65445.1 62947.2 65447.1 62939.3 65448.8 62931.3 65450.1 62923.3 65451.1 62915.2 65451.6 62907.1 65451.8 62898.9 M 65259.9 62707 64780.1 63090.8" fill="none" stroke-width="152.4"/><use xlink:href="#FKkOtIuXFgFwAhnRX5rr_pad-11" x="43180" y="45085"/><use xlink:href="#FKkOtIuXFgFwAhnRX5rr_pad-11" x="45720" y="45085"/><use xlink:href="#FKkOtIuXFgFwAhnRX5rr_pad-12" x="33000" y="30080"/><use xlink:href="#FKkOtIuXFgFwAhnRX5rr_pad-12" x="33000" y="25000"/><use xlink:href="#FKkOtIuXFgFwAhnRX5rr_pad-12" x="61000" y="44920"/><use xlink:href="#FKkOtIuXFgFwAhnRX5rr_pad-12" x="61000" y="50000"/><use xlink:href="#FKkOtIuXFgFwAhnRX5rr_pad-12" x="61000" y="55080"/><use xlink:href="#FKkOtIuXFgFwAhnRX5rr_pad-12" x="61000" y="19920"/><use xlink:href="#FKkOtIuXFgFwAhnRX5rr_pad-12" x="61000" y="25000"/><use xlink:href="#FKkOtIuXFgFwAhnRX5rr_pad-12" x="61000" y="30080"/><use xlink:href="#FKkOtIuXFgFwAhnRX5rr_pad-13" x="21336" y="34290"/><use xlink:href="#FKkOtIuXFgFwAhnRX5rr_pad-13" x="21336" y="35560"/><use xlink:href="#FKkOtIuXFgFwAhnRX5rr_pad-13" x="21336" y="36830"/><use xlink:href="#FKkOtIuXFgFwAhnRX5rr_pad-13" x="21336" y="38100"/><use xlink:href="#FKkOtIuXFgFwAhnRX5rr_pad-13" x="26924" y="38100"/><use xlink:href="#FKkOtIuXFgFwAhnRX5rr_pad-13" x="26924" y="36830"/><use xlink:href="#FKkOtIuXFgFwAhnRX5rr_pad-13" x="26924" y="35560"/><use xlink:href="#FKkOtIuXFgFwAhnRX5rr_pad-13" x="26924" y="34290"/><use xlink:href="#FKkOtIuXFgFwAhnRX5rr_pad-14" x="17780" y="37150"/><use xlink:href="#FKkOtIuXFgFwAhnRX5rr_pad-14" x="17780" y="39050"/><use xlink:href="#FKkOtIuXFgFwAhnRX5rr_pad-14" x="15240" y="37150"/><use xlink:href="#FKkOtIuXFgFwAhnRX5rr_pad-14" x="15240" y="39050"/><use xlink:href="#FKkOtIuXFgFwAhnRX5rr_pad-15" x="25400" y="67770"/><use xlink:href="#FKkOtIuXFgFwAhnRX5rr_pad-15" x="25400" y="63770"/><use xlink:href="#FKkOtIuXFgFwAhnRX5rr_pad-15" x="25400" y="65770"/><use xlink:href="#FKkOtIuXFgFwAhnRX5rr_pad-16" x="30480" y="36906.2"/><use xlink:href="#FKkOtIuXFgFwAhnRX5rr_pad-16" x="30480" y="35483.8"/><use xlink:href="#FKkOtIuXFgFwAhnRX5rr_pad-17" x="29210" y="54825"/><use xlink:href="#FKkOtIuXFgFwAhnRX5rr_pad-17" x="29210" y="56935"/><use xlink:href="#FKkOtIuXFgFwAhnRX5rr_pad-14" x="26670" y="50480"/><use xlink:href="#FKkOtIuXFgFwAhnRX5rr_pad-14" x="26670" y="48580"/><use xlink:href="#FKkOtIuXFgFwAhnRX5rr_pad-14" x="21590" y="50480"/><use xlink:href="#FKkOtIuXFgFwAhnRX5rr_pad-14" x="21590" y="48580"/><use xlink:href="#FKkOtIuXFgFwAhnRX5rr_pad-14" x="19050" y="50480"/><use xlink:href="#FKkOtIuXFgFwAhnRX5rr_pad-14" x="19050" y="48580"/><use xlink:href="#FKkOtIuXFgFwAhnRX5rr_pad-14" x="24130" y="48580"/><use xlink:href="#FKkOtIuXFgFwAhnRX5rr_pad-14" x="24130" y="50480"/><use xlink:href="#FKkOtIuXFgFwAhnRX5rr_pad-14" x="26670" y="54930"/><use xlink:href="#FKkOtIuXFgFwAhnRX5rr_pad-14" x="26670" y="56830"/><use xlink:href="#FKkOtIuXFgFwAhnRX5rr_pad-18" x="23495" y="57280"/><use xlink:href="#FKkOtIuXFgFwAhnRX5rr_pad-18" x="23495" y="54480"/><use xlink:href="#FKkOtIuXFgFwAhnRX5rr_pad-19" x="33205" y="43815"/><use xlink:href="#FKkOtIuXFgFwAhnRX5rr_pad-19" x="30665" y="46355"/><use xlink:href="#FKkOtIuXFgFwAhnRX5rr_pad-19" x="33205" y="48895"/><use xlink:href="#FKkOtIuXFgFwAhnRX5rr_pad-13" x="26924" y="45085"/><use xlink:href="#FKkOtIuXFgFwAhnRX5rr_pad-13" x="26924" y="43815"/><use xlink:href="#FKkOtIuXFgFwAhnRX5rr_pad-13" x="26924" y="42545"/><use xlink:href="#FKkOtIuXFgFwAhnRX5rr_pad-13" x="26924" y="41275"/><use xlink:href="#FKkOtIuXFgFwAhnRX5rr_pad-13" x="21336" y="41275"/><use xlink:href="#FKkOtIuXFgFwAhnRX5rr_pad-13" x="21336" y="42545"/><use xlink:href="#FKkOtIuXFgFwAhnRX5rr_pad-13" x="21336" y="43815"/><use xlink:href="#FKkOtIuXFgFwAhnRX5rr_pad-13" x="21336" y="45085"/><path d="M 50800 55200 52000 55200 M 52000 59100 50800 59100 M 38100 59100 36900 59100 M 36900 55200 38100 55200" fill="none" stroke-width="1200"/><use xlink:href="#FKkOtIuXFgFwAhnRX5rr_pad-21" x="48895" y="57150"/><use xlink:href="#FKkOtIuXFgFwAhnRX5rr_pad-21" x="40005" y="57150"/><path d="M 26930 31070 33000 25000 M 26930 31070 26924 34290 M 55715 50000 61000 50000 M 55715 50000 50800 45085 45720 45085 M 65405 29405 61000 25000 M 65405 29405 65405 45595 61000 50000 M 52980 38100 61000 30080 M 52980 38100 26924 38100" fill="none" stroke-width="1270"/><use xlink:href="#FKkOtIuXFgFwAhnRX5rr_pad-23" x="22225" y="52705"/><path d="M 22225 52705 21590 52070 21590 50480" fill="none" stroke-width="406.4"/><use xlink:href="#FKkOtIuXFgFwAhnRX5rr_pad-23" x="22987" y="35560"/><path d="M 22987 35560 21336 35560 M 21336 36830 18100 36830 17780 37150 M 17780 39050 15240 39050 M 18989 39050 19939 38100 21336 38100 21330 41075 21336 41275 M 23495 54480 26220 54480 26670 54930 M 18989 39050 17780 39050" fill="none" stroke-width="406.4"/><use xlink:href="#FKkOtIuXFgFwAhnRX5rr_pad-23" x="22987" y="41275"/><use xlink:href="#FKkOtIuXFgFwAhnRX5rr_pad-23" x="19685" y="52705"/><path d="M 21336 41275 22987 41275 M 19050 50480 19050 52070 19685 52705 21460 54480 23495 54480 M 23495 57280 26220 57280 26670 56830 M 27515 56935 29210 56935 M 27515 56935 26880 56300 M 26880 56620 26670 56830 M 26880 56620 26880 56300" fill="none" stroke-width="406.4"/><use xlink:href="#FKkOtIuXFgFwAhnRX5rr_pad-23" x="29210" y="57785"/><path d="M 29210 57785 29210 56935 M 24130 50480 23876 50480 22860 49464 22860 45653 M 22292 45085 21336 45085 M 22292 45085 22860 45653 M 29210 53809 29210 54825 M 29210 53809 27405 52004 25654 52004 24130 50480 M 22225 42545 21336 42545 M 22225 42545 24130 44450 24130 48580 26670 48580 M 30665 46736 30665 46355 M 26921 50480 26670 50480 M 26921 50480 30665 46736 M 21336 43815 20447 43815 19050 45212 19050 48580 21590 48580 M 21336 34290 16764 34290 M 15240 35814 15240 37150 M 15240 35814 16764 34290 M 25400 62500 25400 63770 M 25400 62500 13970 51070 13970 37465 M 14285 37150 15240 37150 M 14285 37150 13970 37465 M 21336 34290 22987 34290 M 23876 42926 26035 45085 26924 45085 M 23876 35179 22987 34290 M 23876 35179 23876 42926 M 31935 45085 33205 43815 M 31935 45085 26924 45085" fill="none" stroke-width="406.4"/></g></svg>