<svg version="1.1" xmlns="http://www.w3.org/2000/svg" xmlns:xlink="http://www.w3.org/1999/xlink" stroke-linecap="round" stroke-linejoin="round" stroke-width="0" fill-rule="evenodd" width="52.1461mm" height="49.26975mm" viewBox="13893.9 19062.75 52146.1 49269.75" id="QcBdwoIbmhfI4GVIsM8i"><defs><mask id="QcBdwoIbmhfI4GVIsM8i_clear-1" fill="#000" stroke="#000"><g><rect x="13893.9" y="32943.9" width="21742.2" height="33934.2" fill="#fff"/><path d="M 22767.2 35029.3 22767.2 35029.3 22456.3 35340.2 22456.3 35556.1 22454.9 35565.2 22454.1 35574.2 22452.9 35577.2 22452.4 35580.4 22448.1 35588.5 22444.5 35596.9 22441.9 35600.1 22440.8 35602.2 22438.5 35604.4 22434 35610 21869.3 36174.7 21869.3 52278.7 21867.9 52287.7 21867.1 52296.8 21865.9 52299.7 21865.4 52302.9 21863.1 52307.1 21863 52307.6 21861.7 52309.8 21861.1 52311 21857.5 52319.4 21854.9 52322.6 21853.8 52324.7 21851.5 52326.9 21850.4 52328.7 21849.2 52329.7 21847 52332.5 21694.3 52485.2 21694.3 52924.8 22005.2 53235.7 22221.1 53235.7 22230.2 53237.1 22239.2 53237.9 22242.2 53239.1 22245.4 53239.6 22253.5 53243.9 22261.9 53247.5 22265.1 53250.1 22267.2 53251.2 22269.4 53253.5 22275 53258 23982.7 54965.7 24028.4 54965.7 24030.4 54966 24032.3 54965.8 24042.5 54968 24052.7 54969.6 24054.4 54970.6 24056.4 54971 24065.3 54976.3 24074.4 54981.2 24075.8 54982.6 24077.5 54983.6 24084.2 54991.5 24091.4 54999 24092.2 55000.8 24093.5 55002.3 24097.4 55011.9 24101.7 55021.3 24101.9 55023.3 24102.7 55025.1 24104.5 55041.8 24104.5 55054.2 24193.8 55143.5 25183.8 55143.5 25273.1 55054.2 25273.1 54165.8 25183.8 54076.5 24191.5 54076.5 24188.9 54078.2 24180.5 54084.2 24178.6 54084.8 24177 54085.9 24166.9 54088.4 24157 54091.4 24155 54091.4 24153.1 54091.9 24142.8 54091.1 24132.4 54090.8 24130.6 54090.1 24128.6 54090 24119.1 54085.9 24109.3 54082.4 24107.8 54081.1 24106 54080.3 24092.9 54069.9 22778 52755 22772.7 52747.6 22766.7 52740.6 22765.5 52737.6 22763.6 52735 22760.9 52726.3 22757.5 52717.8 22757.1 52713.7 22756.4 52711.5 22756.5 52708.3 22755.7 52701.1 22755.7 52485.2 22603 52332.5 22598.6 52326.5 22594.8 52322.4 22594.1 52321 22591.7 52318.1 22590.5 52315.1 22588.6 52312.5 22585.9 52303.8 22582.5 52295.3 22582.1 52291.2 22581.4 52289 22581.5 52285.8 22580.7 52278.7 22580.7 36500.9 22582.1 36491.8 22582.9 36482.8 22584.1 36479.8 22584.6 36476.6 22588.9 36468.5 22592.5 36460.1 22595.1 36456.9 22596.2 36454.8 22598.5 36452.6 22603 36447 22937 36113 22944.4 36107.7 22951.4 36101.7 22954.4 36100.5 22957 36098.6 22965.7 36095.9 22974.2 36092.5 22978.3 36092.1 22980.5 36091.4 22983.7 36091.5 22990.9 36090.7 23206.8 36090.7 23517.7 35779.8 23517.7 35340.2 23206.8 35029.3 22767.2 35029.3"/></g></mask><mask id="QcBdwoIbmhfI4GVIsM8i_clear-2" fill="#000" stroke="#000"><g><rect x="13893.9" y="32943.9" width="21742.2" height="33934.2" fill="#fff"/><path d="M 33048.4 43027.5 33048.4 43027.5 32758.9 43147.4 32537.4 43368.9 32417.5 43658.4 32417.5 43971.6 32537.4 44261.1 32758.9 44482.6 33048.4 44602.5 33361.6 44602.5 33651.1 44482.6 33872.6 44261.1 33992.5 43971.6 33992.5 43658.4 33872.6 43368.9 33651.1 43147.4 33361.6 43027.5 33048.4 43027.5"/></g></mask><mask id="QcBdwoIbmhfI4GVIsM8i_clear-3" fill="#000" stroke="#000"><g><rect x="13893.9" y="32943.9" width="21742.2" height="33934.2" fill="#fff"/><path d="M 30508.4 45567.5 30508.4 45567.5 30218.9 45687.4 29997.4 45908.9 29877.5 46198.4 29877.5 46511.6 29997.4 46801.1 30218.9 47022.6 30508.4 47142.5 30821.6 47142.5 31111.1 47022.6 31332.6 46801.1 31452.5 46511.6 31452.5 46198.4 31332.6 45908.9 31111.1 45687.4 30821.6 45567.5 30508.4 45567.5"/></g></mask><mask id="QcBdwoIbmhfI4GVIsM8i_clear-4" fill="#000" stroke="#000"><g><rect x="13893.9" y="32943.9" width="21742.2" height="33934.2" fill="#fff"/><path d="M 25257.8 63055 25257.8 63055 24995 63163.9 24793.9 63365 24685 63627.8 24685 63912.2 24793.9 64175 24995 64376.1 25257.8 64485 25542.2 64485 25805 64376.1 26006.1 64175 26115 63912.2 26115 63627.8 26006.1 63365 25805 63163.9 25542.2 63055 25257.8 63055"/></g></mask><mask id="QcBdwoIbmhfI4GVIsM8i_clear-5" fill="#000" stroke="#000"><g><rect x="13893.9" y="32943.9" width="21742.2" height="33934.2" fill="#fff"/><path d="M 33357.3 49047.3 33357.3 49047.3 33357.3 49771.2 33464.3 49749.9 33626.1 49682.9 33771.8 49585.6 33895.6 49461.8 33992.9 49316.1 34059.9 49154.3 34081.2 49047.3 33357.3 49047.3"/></g></mask><mask id="QcBdwoIbmhfI4GVIsM8i_clear-6" fill="#000" stroke="#000"><g><rect x="13893.9" y="32943.9" width="21742.2" height="33934.2" fill="#fff"/><path d="M 33357.3 48742.7 33357.3 48742.7 34081.2 48742.7 34059.9 48635.7 33992.9 48473.9 33895.6 48328.2 33771.8 48204.4 33626.1 48107.1 33464.3 48040.1 33357.3 48018.8 33357.3 48742.7"/></g></mask><mask id="QcBdwoIbmhfI4GVIsM8i_clear-7" fill="#000" stroke="#000"><g><rect x="13893.9" y="32943.9" width="21742.2" height="33934.2" fill="#fff"/><path d="M 32328.8 49047.3 32328.8 49047.3 32350.1 49154.3 32417.1 49316.1 32514.4 49461.8 32638.2 49585.6 32783.9 49682.9 32945.7 49749.9 33052.7 49771.2 33052.7 49047.3 32328.8 49047.3"/></g></mask><mask id="QcBdwoIbmhfI4GVIsM8i_clear-8" fill="#000" stroke="#000"><g><rect x="13893.9" y="32943.9" width="21742.2" height="33934.2" fill="#fff"/><path d="M 32945.7 48040.1 32945.7 48040.1 32783.9 48107.1 32638.2 48204.4 32514.4 48328.2 32417.1 48473.9 32350.1 48635.7 32328.8 48742.7 33052.7 48742.7 33052.7 48018.8 32945.7 48040.1"/></g></mask><mask id="QcBdwoIbmhfI4GVIsM8i_clear-9" fill="#000" stroke="#000"><g><rect x="13893.9" y="32943.9" width="21742.2" height="33934.2" fill="#fff"/><path d="M 25552.3 65922.3 25552.3 65922.3 25552.3 66572.3 25638.2 66555.2 25786.8 66493.6 25920.5 66404.3 26034.3 66290.5 26123.6 66156.8 26185.2 66008.2 26202.3 65922.3 25552.3 65922.3"/></g></mask><mask id="QcBdwoIbmhfI4GVIsM8i_clear-10" fill="#000" stroke="#000"><g><rect x="13893.9" y="32943.9" width="21742.2" height="33934.2" fill="#fff"/><path d="M 24597.7 65922.3 24597.7 65922.3 24614.8 66008.2 24676.4 66156.8 24765.7 66290.5 24879.5 66404.3 25013.2 66493.6 25161.8 66555.2 25247.7 66572.3 25247.7 65922.3 24597.7 65922.3"/></g></mask><mask id="QcBdwoIbmhfI4GVIsM8i_clear-11" fill="#000" stroke="#000"><g><rect x="13893.9" y="32943.9" width="21742.2" height="33934.2" fill="#fff"/><path d="M 25552.3 65617.7 25552.3 65617.7 26202.3 65617.7 26185.2 65531.8 26123.6 65383.2 26034.3 65249.5 25920.5 65135.7 25786.8 65046.4 25638.2 64984.8 25552.3 64967.7 25552.3 65617.7"/></g></mask><mask id="QcBdwoIbmhfI4GVIsM8i_clear-12" fill="#000" stroke="#000"><g><rect x="13893.9" y="32943.9" width="21742.2" height="33934.2" fill="#fff"/><path d="M 25161.8 64984.8 25161.8 64984.8 25013.2 65046.4 24879.5 65135.7 24765.7 65249.5 24676.4 65383.2 24614.8 65531.8 24597.7 65617.7 25247.7 65617.7 25247.7 64967.7 25161.8 64984.8"/></g></mask><mask id="QcBdwoIbmhfI4GVIsM8i_clear-13" fill="#000" stroke="#000"><g><rect x="13893.9" y="32943.9" width="21742.2" height="33934.2" fill="#fff"/><path d="M 25399.9 65769.9 25399.9 65769.9 25399.9 65770.1 25400.1 65770.1 25400.1 65769.9 25399.9 65769.9"/></g></mask><mask id="QcBdwoIbmhfI4GVIsM8i_clear-14" fill="#000" stroke="#000"><g><rect x="13893.9" y="32943.9" width="21742.2" height="33934.2" fill="#fff"/><path d="M 33204.9 48894.9 33204.9 48894.9 33204.9 48895.1 33205.1 48895.1 33205.1 48894.9 33204.9 48894.9"/></g></mask><circle cx="0" cy="0" r="637.5" id="QcBdwoIbmhfI4GVIsM8i_pad-10"/><circle cx="0" cy="0" r="857.25" id="QcBdwoIbmhfI4GVIsM8i_pad-11"/><circle cx="0" cy="0" r="562.5" id="QcBdwoIbmhfI4GVIsM8i_pad-12"/><circle cx="0" cy="0" r="635" id="QcBdwoIbmhfI4GVIsM8i_pad-13"/><rect x="-431.8" y="-381" width="863.6" height="762" id="QcBdwoIbmhfI4GVIsM8i_pad-14"/><circle cx="0" cy="0" r="378.2" id="QcBdwoIbmhfI4GVIsM8i_pad-17"/></defs><g transform="translate(0,87395.25) scale(1,-1)" fill="currentColor" stroke="currentColor"><g mask="url(#QcBdwoIbmhfI4GVIsM8i_clear-14)"><g mask="url(#QcBdwoIbmhfI4GVIsM8i_clear-13)"><g mask="url(#QcBdwoIbmhfI4GVIsM8i_clear-12)"><g mask="url(#QcBdwoIbmhfI4GVIsM8i_clear-11)"><g mask="url(#QcBdwoIbmhfI4GVIsM8i_clear-10)"><g mask="url(#QcBdwoIbmhfI4GVIsM8i_clear-9)"><g mask="url(#QcBdwoIbmhfI4GVIsM8i_clear-8)"><g mask="url(#QcBdwoIbmhfI4GVIsM8i_clear-7)"><g mask="url(#QcBdwoIbmhfI4GVIsM8i_clear-6)"><g mask="url(#QcBdwoIbmhfI4GVIsM8i_clear-5)"><g mask="url(#QcBdwoIbmhfI4GVIsM8i_clear-4)"><g mask="url(#QcBdwoIbmhfI4GVIsM8i_clear-3)"><g mask="url(#QcBdwoIbmhfI4GVIsM8i_clear-2)"><g mask="url(#QcBdwoIbmhfI4GVIsM8i_clear-1)"><path d="M 24132 32944.2 24132 32944.2 24133.9 32944 24144.1 32946.2 24154.3 32947.9 24156 32948.8 24158 32949.2 24166.9 32954.5 24176 32959.4 24177.4 32960.8 24179.1 32961.8 24185.8 32969.7 24193 32977.2 24193.8 32979 24195.1 32980.5 24199 32990.1 24203.3 32999.5 24203.5 33001.5 24204.3 33003.3 24206.1 33020 24206.1 40817.9 35560 40817.9 35562 40818.2 35563.9 40818 35574.1 40820.2 35584.3 40821.9 35586 40822.8 35588 40823.2 35596.9 40828.5 35606 40833.4 35607.4 40834.8 35609.1 40835.8 35615.8 40843.7 35623 40851.2 35623.8 40853 35625.1 40854.5 35629 40864.1 35633.3 40873.5 35633.5 40875.5 35634.3 40877.3 35636.1 40894 35636.1 51308 35635.8 51310 35636 51311.9 35633.8 51322.1 35632.2 51332.3 35631.2 51334 35630.8 51336 35625.5 51344.9 35620.6 51354 35619.2 51355.4 35618.2 51357.1 35610.3 51363.8 35602.8 51371 35601 51371.8 35599.5 51373.1 35589.9 51377 35580.5 51381.3 35578.5 51381.5 35576.7 51382.3 35560 51384.1 30556.1 51384.1 30556.1 62230 30554.7 62239 30553.9 62248.1 30552.7 62251.1 30552.2 62254.3 30547.9 62262.3 30544.3 62270.7 30541.7 62273.9 30540.6 62276 30538.3 62278.2 30533.8 62283.8 29695.6 63122 29689.8 63126.2 29684.6 63131.2 29679.9 63133.4 29675.7 63136.4 29668.8 63138.5 29662.3 63141.5 29657.1 63142.1 29652.1 63143.6 29645 63143.4 29637.9 63144.2 29632.8 63143.1 29627.6 63143 29620.8 63140.5 29613.8 63139 29609.3 63136.3 29604.5 63134.5 29598.9 63130.1 29592.7 63126.4 29589.3 63122.4 29585.3 63119.2 29581.4 63113.1 29576.7 63107.7 29574.8 63102.9 29572 63098.5 29570.2 63091.5 29567.5 63084.9 29566.7 63077.7 29565.9 63074.6 29566.1 63072.3 29565.7 63068.2 29565.7 58211.3 29567.1 58202.3 29567.9 58193.2 29569.1 58190.3 29569.6 58187.1 29573.9 58179 29577.5 58170.6 29580.1 58167.4 29581.2 58165.3 29583.5 58163.1 29588 58157.5 29740.7 58004.8 29740.7 57565.2 29429.8 57254.3 29213.9 57254.3 29204.8 57252.9 29195.8 57252.1 29192.8 57250.9 29189.6 57250.4 29181.5 57246.1 29173.1 57242.5 29169.9 57239.9 29167.8 57238.8 29165.6 57236.5 29160 57232 26717.8 54789.8 26712.5 54782.4 26706.5 54775.4 26705.3 54772.4 26703.4 54769.8 26700.7 54761.1 26697.3 54752.6 26696.9 54748.5 26696.2 54746.3 26696.3 54743.1 26695.5 54735.9 26695.5 54165.8 26606.2 54076.5 25616.2 54076.5 25526.9 54165.8 25526.9 55054.2 25616.2 55143.5 26033.9 55143.5 26043 55144.9 26052 55145.7 26055 55146.9 26058.2 55147.4 26066.3 55151.7 26074.7 55155.3 26077.9 55157.9 26080 55159 26082.2 55161.3 26087.8 55165.8 28657 57735 28662.3 57742.4 28668.3 57749.4 28669.5 57752.4 28671.4 57755 28674.1 57763.7 28677.5 57772.2 28677.9 57776.3 28678.6 57778.5 28678.5 57781.7 28679.3 57788.9 28679.3 58004.8 28832 58157.5 28837.3 58164.9 28843.3 58171.9 28844.5 58174.9 28846.4 58177.5 28849.1 58186.2 28852.5 58194.7 28852.9 58198.8 28853.6 58201 28853.5 58204.2 28854.3 58211.3 28854.3 63781.1 28852.9 63790.2 28852.1 63799.2 28850.9 63802.2 28850.4 63805.4 28846.1 63813.5 28842.5 63821.9 28839.9 63825.1 28838.8 63827.2 28836.5 63829.4 28832 63835 25811.2 66855.8 25803.8 66861.1 25796.8 66867.1 25793.8 66868.3 25791.2 66870.2 25782.5 66872.9 25774 66876.3 25769.9 66876.7 25767.7 66877.4 25764.5 66877.3 25757.3 66878.1 24892 66878.1 24883 66876.7 24873.9 66875.9 24870.9 66874.7 24867.7 66874.2 24859.7 66869.9 24851.3 66866.3 24848.1 66863.7 24846 66862.6 24843.8 66860.3 24838.2 66855.8 22806.2 64823.8 22800.9 64816.4 22794.9 64809.5 22793.7 64806.5 22791.8 64803.9 22789.1 64795.2 22785.7 64786.7 22785.3 64782.6 22784.6 64780.3 22784.7 64777.1 22783.9 64770 22783.9 59721.5 13916.2 50853.8 13910.9 50846.4 13904.9 50839.5 13903.7 50836.5 13901.8 50833.9 13899.1 50825.2 13895.7 50816.7 13895.3 50812.6 13894.6 50810.3 13894.7 50807.1 13893.9 50800 13893.9 33020 13894.2 33018 13894 33016.1 13896.2 33005.9 13897.9 32995.7 13898.8 32994 13899.2 32992 13904.5 32983.1 13909.4 32974 13910.8 32972.6 13911.8 32970.9 13919.7 32964.2 13927.2 32957.1 13929 32956.2 13930.5 32954.9 13940.1 32951 13949.5 32946.7 13951.5 32946.5 13953.3 32945.7 13970 32943.9 24130 32943.9 24132 32944.2"/></g></g></g></g></g></g></g></g></g></g></g></g></g></g><use xlink:href="#QcBdwoIbmhfI4GVIsM8i_pad-10" x="43180" y="45085"/><use xlink:href="#QcBdwoIbmhfI4GVIsM8i_pad-10" x="45720" y="45085"/><use xlink:href="#QcBdwoIbmhfI4GVIsM8i_pad-11" x="33000" y="30080"/><use xlink:href="#QcBdwoIbmhfI4GVIsM8i_pad-11" x="33000" y="25000"/><use xlink:href="#QcBdwoIbmhfI4GVIsM8i_pad-11" x="61000" y="44920"/><use xlink:href="#QcBdwoIbmhfI4GVIsM8i_pad-11" x="61000" y="50000"/><use xlink:href="#QcBdwoIbmhfI4GVIsM8i_pad-11" x="61000" y="55080"/><use xlink:href="#QcBdwoIbmhfI4GVIsM8i_pad-11" x="61000" y="19920"/><use xlink:href="#QcBdwoIbmhfI4GVIsM8i_pad-11" x="61000" y="25000"/><use xlink:href="#QcBdwoIbmhfI4GVIsM8i_pad-11" x="61000" y="30080"/><use xlink:href="#QcBdwoIbmhfI4GVIsM8i_pad-12" x="25400" y="67770"/><use xlink:href="#QcBdwoIbmhfI4GVIsM8i_pad-12" x="25400" y="63770"/><use xlink:href="#QcBdwoIbmhfI4GVIsM8i_pad-12" x="25400" y="65770"/><use xlink:href="#QcBdwoIbmhfI4GVIsM8i_pad-13" x="33205" y="43815"/><use xlink:href="#QcBdwoIbmhfI4GVIsM8i_pad-13" x="30665" y="46355"/><use xlink:href="#QcBdwoIbmhfI4GVIsM8i_pad-13" x="33205" y="48895"/><use xlink:href="#QcBdwoIbmhfI4GVIsM8i_pad-14" x="26111.2" y="54610"/><use xlink:href="#QcBdwoIbmhfI4GVIsM8i_pad-14" x="24688.8" y="54610"/><path d="M 50800 55200 52000 55200 M 52000 59100 50800 59100 M 38100 59100 36900 59100 M 36900 55200 38100 55200" fill="none" stroke-width="1200"/><path d="M 43180 45085 43180 40260 33000 30080 M 37500 55200 37500 59100 M 40040 55200 43180 52060 M 40040 55200 37500 55200 M 43180 52060 43180 45085 M 61000 44920 65405 40515 65405 24325 61000 19920" fill="none" stroke-width="1270"/><use xlink:href="#QcBdwoIbmhfI4GVIsM8i_pad-17" x="22225" y="52705"/><use xlink:href="#QcBdwoIbmhfI4GVIsM8i_pad-17" x="22987" y="35560"/><path d="M 22987 35560 22225 36322 22225 52705 M 24130 54610 24688.8 54610 M 24130 54610 22225 52705" fill="none" stroke-width="406.4"/><use xlink:href="#QcBdwoIbmhfI4GVIsM8i_pad-17" x="22987" y="41275"/><use xlink:href="#QcBdwoIbmhfI4GVIsM8i_pad-17" x="19685" y="52705"/><use xlink:href="#QcBdwoIbmhfI4GVIsM8i_pad-17" x="29210" y="57785"/><path d="M 29210 63960 25400 67770 M 29210 63960 29210 57785 M 26111.2 54686.2 26111.2 54610 M 26111.2 54686.2 29210 57785" fill="none" stroke-width="406.4"/><path d="M 51400 59100 51400 55200 60880 55200 61000 55080" fill="none" stroke-width="1270"/></g></svg>