<svg version="1.1" xmlns="http://www.w3.org/2000/svg" xmlns:xlink="http://www.w3.org/1999/xlink" stroke-linecap="round" stroke-linejoin="round" stroke-width="0" fill-rule="evenodd" width="73.048mm" height="57.285mm" viewBox="10476 10860 73048 57285" id="QJPdZkLU-TS9pWa0Dlvn"><defs><circle cx="0" cy="0" r="2000" id="QJPdZkLU-TS9pWa0Dlvn_pad-1"/><circle cx="0" cy="0" r="1524" id="QJPdZkLU-TS9pWa0Dlvn_pad-2"/><circle cx="0" cy="0" r="571.5" id="QJPdZkLU-TS9pWa0Dlvn_pad-3"/><circle cx="0" cy="0" r="425" id="QJPdZkLU-TS9pWa0Dlvn_pad-4"/><circle cx="0" cy="0" r="375" id="QJPdZkLU-TS9pWa0Dlvn_pad-5"/><circle cx="0" cy="0" r="305" id="QJPdZkLU-TS9pWa0Dlvn_pad-6"/><circle cx="0" cy="0" r="300" id="QJPdZkLU-TS9pWa0Dlvn_pad-7"/><circle cx="0" cy="0" r="175" id="QJPdZkLU-TS9pWa0Dlvn_pad-8"/></defs><g transform="translate(0,79005) scale(1,-1)" fill="currentColor" stroke="currentColor"><use xlink:href="#QJPdZkLU-TS9pWa0Dlvn_pad-1" x="50000" y="27000"/><use xlink:href="#QJPdZkLU-TS9pWa0Dlvn_pad-1" x="20000" y="61000"/><use xlink:href="#QJPdZkLU-TS9pWa0Dlvn_pad-1" x="80000" y="61000"/><use xlink:href="#QJPdZkLU-TS9pWa0Dlvn_pad-1" x="64140" y="12860"/><use xlink:href="#QJPdZkLU-TS9pWa0Dlvn_pad-2" x="12000" y="55000"/><use xlink:href="#QJPdZkLU-TS9pWa0Dlvn_pad-2" x="71000" y="66000"/><use xlink:href="#QJPdZkLU-TS9pWa0Dlvn_pad-2" x="71000" y="13000"/><use xlink:href="#QJPdZkLU-TS9pWa0Dlvn_pad-2" x="12000" y="13000"/><use xlink:href="#QJPdZkLU-TS9pWa0Dlvn_pad-2" x="82000" y="50000"/><use xlink:href="#QJPdZkLU-TS9pWa0Dlvn_pad-2" x="82000" y="25000"/><use xlink:href="#QJPdZkLU-TS9pWa0Dlvn_pad-3" x="33000" y="30080"/><use xlink:href="#QJPdZkLU-TS9pWa0Dlvn_pad-3" x="33000" y="25000"/><use xlink:href="#QJPdZkLU-TS9pWa0Dlvn_pad-3" x="61000" y="44920"/><use xlink:href="#QJPdZkLU-TS9pWa0Dlvn_pad-3" x="61000" y="50000"/><use xlink:href="#QJPdZkLU-TS9pWa0Dlvn_pad-3" x="61000" y="55080"/><use xlink:href="#QJPdZkLU-TS9pWa0Dlvn_pad-3" x="61000" y="19920"/><use xlink:href="#QJPdZkLU-TS9pWa0Dlvn_pad-3" x="61000" y="25000"/><use xlink:href="#QJPdZkLU-TS9pWa0Dlvn_pad-3" x="61000" y="30080"/><use xlink:href="#QJPdZkLU-TS9pWa0Dlvn_pad-4" x="43180" y="45085"/><use xlink:href="#QJPdZkLU-TS9pWa0Dlvn_pad-4" x="45720" y="45085"/><use xlink:href="#QJPdZkLU-TS9pWa0Dlvn_pad-5" x="25400" y="65770"/><use xlink:href="#QJPdZkLU-TS9pWa0Dlvn_pad-5" x="25400" y="63770"/><use xlink:href="#QJPdZkLU-TS9pWa0Dlvn_pad-5" x="25400" y="67770"/><use xlink:href="#QJPdZkLU-TS9pWa0Dlvn_pad-6" x="33205" y="48895"/><use xlink:href="#QJPdZkLU-TS9pWa0Dlvn_pad-6" x="30665" y="46355"/><use xlink:href="#QJPdZkLU-TS9pWa0Dlvn_pad-6" x="33205" y="43815"/><use xlink:href="#QJPdZkLU-TS9pWa0Dlvn_pad-7" x="37500" y="55200"/><use xlink:href="#QJPdZkLU-TS9pWa0Dlvn_pad-7" x="51400" y="55200"/><use xlink:href="#QJPdZkLU-TS9pWa0Dlvn_pad-7" x="51400" y="59100"/><use xlink:href="#QJPdZkLU-TS9pWa0Dlvn_pad-7" x="37500" y="59100"/><use xlink:href="#QJPdZkLU-TS9pWa0Dlvn_pad-8" x="29210" y="57785"/><use xlink:href="#QJPdZkLU-TS9pWa0Dlvn_pad-8" x="19685" y="52705"/><use xlink:href="#QJPdZkLU-TS9pWa0Dlvn_pad-8" x="22987" y="41275"/><use xlink:href="#QJPdZkLU-TS9pWa0Dlvn_pad-8" x="22987" y="35560"/><use xlink:href="#QJPdZkLU-TS9pWa0Dlvn_pad-8" x="22225" y="52705"/></g></svg>