<svg version="1.1" xmlns="http://www.w3.org/2000/svg" xmlns:xlink="http://www.w3.org/1999/xlink" stroke-linecap="round" stroke-linejoin="round" stroke-width="0" fill-rule="evenodd" width="80mm" height="62.5mm" viewBox="8000 9500 80000 62500" id="_R_7LCRY-z6yuccM8OQN"><g transform="translate(0,81500) scale(1,-1)" fill="currentColor" stroke="currentColor"><path d="M 8000 9500 15800 9500 23800 17500 46200 17500 54200 9500 75800 9500 83800 17500 87865 17500 87818.2 17573.5 87765.2 17642.7 87706.3 17707 87642.1 17765.9 87573 17819 87499.5 17865.9 87422.2 17906.2 87341.7 17939.6 87258.6 17965.8 87173.5 17984.7 87087.1 17996.2 87000 18000 86912.8 18003.8 86826.4 18015.2 86741.2 18034.1 86658 18060.3 86577.4 18093.7 86500 18134 86426.4 18180.8 86357.2 18234 86292.9 18292.9 86234 18357.2 86180.8 18426.4 86134 18500 86093.7 18577.4 86060.3 18658 86034.1 18741.2 86015.2 18826.4 86003.8 18912.8 86000 19000 86000 31000 86003.8 31087.2 86015.2 31173.6 86034.1 31258.8 86060.3 31342 86093.7 31422.6 86134 31500 86180.8 31573.6 86234 31642.8 86292.9 31707.1 86357.2 31766 86426.4 31819.2 86500 31866 86577.4 31906.3 86658 31939.7 86741.2 31965.9 86826.4 31984.8 86912.8 31996.2 87000 32000 87087.2 32003.8 87173.6 32015.2 87258.8 32034.1 87342 32060.3 87422.6 32093.7 87500 32134 87573.6 32180.8 87642.8 32234 87707.1 32292.9 87766 32357.2 87819.2 32426.4 87866 32500 87906.3 32577.4 87939.7 32658 87965.9 32741.2 87984.8 32826.4 87996.2 32912.8 88000 33000 88000 42000 87996.2 42087.2 87984.8 42173.6 87965.9 42258.8 87939.7 42342 87906.3 42422.6 87866 42500 87819.2 42573.6 87766 42642.8 87707.1 42707.1 87642.8 42766 87573.6 42819.2 87500 42866 87422.6 42906.3 87342 42939.7 87258.8 42965.9 87173.6 42984.8 87087.2 42996.2 87000 43000 86912.8 43003.8 86826.4 43015.2 86741.2 43034.1 86658 43060.3 86577.4 43093.7 86500 43134 86426.4 43180.8 86357.2 43234 86292.9 43292.9 86234 43357.2 86180.8 43426.4 86134 43500 86093.7 43577.4 86060.3 43658 86034.1 43741.2 86015.2 43826.4 86003.8 43912.8 86000 44000 86000 56000 86003.8 56087.2 86015.2 56173.6 86034.1 56258.8 86060.3 56342 86093.7 56422.6 86134 56500 86180.8 56573.6 86234 56642.8 86292.9 56707.1 86357.2 56766 86426.4 56819.2 86500 56866 86577.4 56906.3 86658 56939.7 86741.2 56965.9 86826.4 56984.8 86912.8 56996.2 87000 57000 87087.2 57003.8 87173.6 57015.2 87258.8 57034.1 87342 57060.3 87422.6 57093.7 87500 57134 87573.6 57180.8 87642.8 57234 87707.1 57292.9 87766 57357.2 87819.2 57426.4 87866 57500 87906.3 57577.4 87939.7 57658 87965.9 57741.2 87984.8 57826.4 87996.2 57912.8 88000 58000 88000 59692 87285.7 59856.8 86411.9 60132.2 85565.3 60482.6 84752.6 60905.6 83979.8 61397.7 83252.8 61955.4 82577.2 62574.2 81958.1 63249.6 81400.3 63976.4 80907.9 64749.1 80484.7 65561.7 80133.9 66408.1 79858.3 67281.9 79659.8 68176.3 79540.1 69084.7 79500 70000 79500 72000 20500 72000 20500 70000 20460 69084.9 20340.5 68176.7 20142.2 67282.4 19866.8 66408.8 19516.2 65562.5 19093.3 64750 18601.1 63977.4 18043.5 63250.7 17424.6 62575.4 16749.3 61956.5 16022.6 61398.9 15250 60906.7 14437.5 60483.8 13591.2 60133.2 12717.6 59857.8 11823.3 59659.5 10915.1 59540 10000 59500 8000 59500 8000 9500 M 36850 58800 38150 58800 38176.1 58801.1 38202.1 58804.6 38227.6 58810.2 38252.6 58818.1 38276.8 58828.1 38300 58840.2 38322.1 58854.3 38342.8 58870.2 38362.1 58887.9 38379.8 58907.2 38395.7 58927.9 38409.8 58950 38421.9 58973.2 38431.9 58997.4 38439.8 59022.4 38445.4 59047.9 38448.9 59073.9 38450 59100 38448.9 59126.1 38445.4 59152.1 38439.8 59177.6 38431.9 59202.6 38421.9 59226.8 38409.8 59250 38395.7 59272.1 38379.8 59292.8 38362.1 59312.1 38342.8 59329.8 38322.1 59345.7 38300 59359.8 38276.8 59371.9 38252.6 59381.9 38227.6 59389.8 38202.1 59395.4 38176.1 59398.9 38150 59400 36850 59400 36823.9 59398.9 36797.9 59395.4 36772.4 59389.8 36747.4 59381.9 36723.2 59371.9 36700 59359.8 36677.9 59345.7 36657.2 59329.8 36637.9 59312.1 36620.2 59292.8 36604.3 59272.1 36590.2 59250 36578.1 59226.8 36568.1 59202.6 36560.2 59177.6 36554.6 59152.1 36551.1 59126.1 36550 59100 36551.1 59073.9 36554.6 59047.9 36560.2 59022.4 36568.1 58997.4 36578.1 58973.2 36590.2 58950 36604.3 58927.9 36620.2 58907.2 36637.9 58887.9 36657.2 58870.2 36677.9 58854.3 36700 58840.2 36723.2 58828.1 36747.4 58818.1 36772.4 58810.2 36797.9 58804.6 36823.9 58801.1 36850 58800 M 36850 54900 38150 54900 38176.1 54901.1 38202.1 54904.6 38227.6 54910.2 38252.6 54918.1 38276.8 54928.1 38300 54940.2 38322.1 54954.3 38342.8 54970.2 38362.1 54987.9 38379.8 55007.2 38395.7 55027.9 38409.8 55050 38421.9 55073.2 38431.9 55097.4 38439.8 55122.4 38445.4 55147.9 38448.9 55173.9 38450 55200 38448.9 55226.1 38445.4 55252.1 38439.8 55277.6 38431.9 55302.6 38421.9 55326.8 38409.8 55350 38395.7 55372.1 38379.8 55392.8 38362.1 55412.1 38342.8 55429.8 38322.1 55445.7 38300 55459.8 38276.8 55471.9 38252.6 55481.9 38227.6 55489.8 38202.1 55495.4 38176.1 55498.9 38150 55500 36850 55500 36823.9 55498.9 36797.9 55495.4 36772.4 55489.8 36747.4 55481.9 36723.2 55471.9 36700 55459.8 36677.9 55445.7 36657.2 55429.8 36637.9 55412.1 36620.2 55392.8 36604.3 55372.1 36590.2 55350 36578.1 55326.8 36568.1 55302.6 36560.2 55277.6 36554.6 55252.1 36551.1 55226.1 36550 55200 36551.1 55173.9 36554.6 55147.9 36560.2 55122.4 36568.1 55097.4 36578.1 55073.2 36590.2 55050 36604.3 55027.9 36620.2 55007.2 36637.9 54987.9 36657.2 54970.2 36677.9 54954.3 36700 54940.2 36723.2 54928.1 36747.4 54918.1 36772.4 54910.2 36797.9 54904.6 36823.9 54901.1 36850 54900 M 50750 58800 52050 58800 52076.1 58801.1 52102.1 58804.6 52127.6 58810.2 52152.6 58818.1 52176.8 58828.1 52200 58840.2 52222.1 58854.3 52242.8 58870.2 52262.1 58887.9 52279.8 58907.2 52295.7 58927.9 52309.8 58950 52321.9 58973.2 52331.9 58997.4 52339.8 59022.4 52345.4 59047.9 52348.9 59073.9 52350 59100 52348.9 59126.1 52345.4 59152.1 52339.8 59177.6 52331.9 59202.6 52321.9 59226.8 52309.8 59250 52295.7 59272.1 52279.8 59292.8 52262.1 59312.1 52242.8 59329.8 52222.1 59345.7 52200 59359.8 52176.8 59371.9 52152.6 59381.9 52127.6 59389.8 52102.1 59395.4 52076.1 59398.9 52050 59400 50750 59400 50723.9 59398.9 50697.9 59395.4 50672.4 59389.8 50647.4 59381.9 50623.2 59371.9 50600 59359.8 50577.9 59345.7 50557.2 59329.8 50537.9 59312.1 50520.2 59292.8 50504.3 59272.1 50490.2 59250 50478.1 59226.8 50468.1 59202.6 50460.2 59177.6 50454.6 59152.1 50451.1 59126.1 50450 59100 50451.1 59073.9 50454.6 59047.9 50460.2 59022.4 50468.1 58997.4 50478.1 58973.2 50490.2 58950 50504.3 58927.9 50520.2 58907.2 50537.9 58887.9 50557.2 58870.2 50577.9 58854.3 50600 58840.2 50623.2 58828.1 50647.4 58818.1 50672.4 58810.2 50697.9 58804.6 50723.9 58801.1 50750 58800 M 50750 54900 52050 54900 52076.1 54901.1 52102.1 54904.6 52127.6 54910.2 52152.6 54918.1 52176.8 54928.1 52200 54940.2 52222.1 54954.3 52242.8 54970.2 52262.1 54987.9 52279.8 55007.2 52295.7 55027.9 52309.8 55050 52321.9 55073.2 52331.9 55097.4 52339.8 55122.4 52345.4 55147.9 52348.9 55173.9 52350 55200 52348.9 55226.1 52345.4 55252.1 52339.8 55277.6 52331.9 55302.6 52321.9 55326.8 52309.8 55350 52295.7 55372.1 52279.8 55392.8 52262.1 55412.1 52242.8 55429.8 52222.1 55445.7 52200 55459.8 52176.8 55471.9 52152.6 55481.9 52127.6 55489.8 52102.1 55495.4 52076.1 55498.9 52050 55500 50750 55500 50723.9 55498.9 50697.9 55495.4 50672.4 55489.8 50647.4 55481.9 50623.2 55471.9 50600 55459.8 50577.9 55445.7 50557.2 55429.8 50537.9 55412.1 50520.2 55392.8 50504.3 55372.1 50490.2 55350 50478.1 55326.8 50468.1 55302.6 50460.2 55277.6 50454.6 55252.1 50451.1 55226.1 50450 55200 50451.1 55173.9 50454.6 55147.9 50460.2 55122.4 50468.1 55097.4 50478.1 55073.2 50490.2 55050 50504.3 55027.9 50520.2 55007.2 50537.9 54987.9 50557.2 54970.2 50577.9 54954.3 50600 54940.2 50623.2 54928.1 50647.4 54918.1 50672.4 54910.2 50697.9 54904.6 50723.9 54901.1 50750 54900 M 24511 30480 24513.4 30424.7 24520.6 30369.7 24532.6 30315.7 24549.3 30262.8 24570.5 30211.6 24596.1 30162.5 24625.8 30115.8 24659.6 30071.8 24697 30031 24737.8 29993.6 24781.8 29959.8 24828.5 29930.1 24877.6 29904.5 24928.8 29883.3 24981.7 29866.6 25035.7 29854.6 25090.7 29847.4 25146 29845 25201.3 29847.4 25256.3 29854.6 25310.4 29866.6 25363.2 29883.3 25414.4 29904.5 25463.5 29930.1 25510.2 29959.8 25554.2 29993.6 25595 30031 25632.4 30071.8 25666.2 30115.8 25695.9 30162.5 25721.5 30211.6 25742.7 30262.8 25759.4 30315.7 25771.4 30369.7 25778.6 30424.7 25781 30480 25781 38862 25782 38884.1 25784.9 38906.1 25789.7 38927.7 25796.3 38948.9 25804.8 38969.3 25815 38989 25826.9 39007.7 25840.4 39025.3 25855.4 39041.6 25871.7 39056.6 25889.3 39070.1 25908 39082 25927.7 39092.2 25948.1 39100.7 25969.3 39107.3 25990.9 39112.1 26012.9 39115 26035 39116 39751 39116 39828.5 39119.4 39905.4 39129.5 39981.1 39146.3 40055.1 39169.6 40126.7 39199.3 40195.5 39235.1 40260.9 39276.8 40322.4 39324 40379.6 39376.4 40432 39433.6 40479.2 39495.1 40520.9 39560.5 40556.7 39629.3 40586.4 39700.9 40609.7 39774.9 40626.5 39850.6 40636.6 39927.5 40640 40005 40640 52451 40636.6 52528.5 40626.5 52605.4 40609.7 52681.1 40586.4 52755.1 40556.7 52826.7 40520.9 52895.5 40479.2 52960.9 40432 53022.4 40379.6 53079.6 40322.4 53132 40260.9 53179.2 40195.5 53220.9 40126.7 53256.7 40055.1 53286.4 39981.1 53309.7 39905.4 53326.5 39828.5 53336.6 39751 53340 34417 53340 34394.9 53341 34372.9 53343.9 34351.3 53348.7 34330.1 53355.3 34309.7 53363.8 34290 53374 34271.3 53385.9 34253.7 53399.4 34237.4 53414.4 34222.4 53430.7 34208.9 53448.3 34197 53467 34186.8 53486.7 34178.3 53507.1 34171.7 53528.3 34166.9 53549.9 34164 53571.9 34163 53594 34163 60706 34164 60728.1 34166.9 60750.1 34171.7 60771.7 34178.3 60792.9 34186.8 60813.3 34197 60833 34208.9 60851.7 34222.4 60869.3 34237.4 60885.6 34253.7 60900.6 34271.3 60914.1 34290 60926 34309.7 60936.2 34330.1 60944.7 34351.3 60951.3 34372.9 60956.1 34394.9 60959 34417 60960 39751 60960 39806.3 60962.4 39861.3 60969.6 39915.4 60981.6 39968.2 60998.3 40019.4 61019.5 40068.5 61045.1 40115.2 61074.8 40159.2 61108.6 40200 61146 40237.4 61186.8 40271.2 61230.8 40300.9 61277.5 40326.5 61326.6 40347.7 61377.8 40364.4 61430.7 40376.4 61484.7 40383.6 61539.7 40386 61595 40383.6 61650.3 40376.4 61705.3 40364.4 61759.4 40347.7 61812.2 40326.5 61863.4 40300.9 61912.5 40271.2 61959.2 40237.4 62003.2 40200 62044 40159.2 62081.4 40115.2 62115.2 40068.5 62144.9 40019.4 62170.5 39968.2 62191.7 39915.4 62208.4 39861.3 62220.4 39806.3 62227.6 39751 62230 33782 62230 33704.5 62226.6 33627.6 62216.5 33551.9 62199.7 33477.9 62176.4 33406.3 62146.7 33337.5 62110.9 33272.1 62069.2 33210.6 62022 33153.4 61969.6 33101 61912.4 33053.8 61850.9 33012.1 61785.5 32976.3 61716.7 32946.6 61645.1 32923.3 61571.1 32906.5 61495.4 32896.4 61418.5 32893 61341 32893 52959 32896.4 52881.5 32906.5 52804.6 32923.3 52728.9 32946.6 52654.9 32976.3 52583.3 33012.1 52514.5 33053.8 52449.1 33101 52387.6 33153.4 52330.4 33210.6 52278 33272.1 52230.8 33337.5 52189.1 33406.3 52153.3 33477.9 52123.6 33551.9 52100.3 33627.6 52083.5 33704.5 52073.4 33782 52070 39116 52070 39138.1 52069 39160.1 52066.1 39181.7 52061.3 39202.9 52054.7 39223.3 52046.2 39243 52036 39261.7 52024.1 39279.3 52010.6 39295.6 51995.6 39310.6 51979.3 39324.1 51961.7 39336 51943 39346.2 51923.3 39354.7 51902.9 39361.3 51881.7 39366.1 51860.1 39369 51838.1 39370 51816 39370 40640 39369 40617.9 39366.1 40595.9 39361.3 40574.3 39354.7 40553.1 39346.2 40532.7 39336 40513 39324.1 40494.3 39310.6 40476.7 39295.6 40460.4 39279.3 40445.4 39261.7 40431.9 39243 40420 39223.3 40409.8 39202.9 40401.3 39181.7 40394.7 39160.1 40389.9 39138.1 40387 39116 40386 25400 40386 25322.5 40382.6 25245.6 40372.5 25169.9 40355.7 25095.9 40332.4 25024.3 40302.7 24955.5 40266.9 24890.1 40225.2 24828.6 40178 24771.4 40125.6 24719 40068.4 24671.8 40006.9 24630.1 39941.5 24594.3 39872.7 24564.6 39801.1 24541.3 39727.1 24524.5 39651.4 24514.4 39574.5 24511 39497 24511 30480 M 13524 54945.6 13516.2 54837 13500.7 54729.2 13477.6 54622.9 13446.9 54518.4 13408.9 54416.4 13363.7 54317.4 13311.5 54221.9 13252.6 54130.3 13187.4 54043.1 13116.1 53960.9 13039.1 53883.9 12956.9 53812.6 12869.7 53747.4 12778.1 53688.5 12682.6 53636.3 12583.6 53591.1 12481.6 53553.1 12377.1 53522.4 12270.8 53499.3 12163 53483.8 12054.4 53476 11945.6 53476 11837 53483.8 11729.2 53499.3 11622.9 53522.4 11518.4 53553.1 11416.4 53591.1 11317.4 53636.3 11221.9 53688.5 11130.3 53747.4 11043.1 53812.6 10960.9 53883.9 10883.9 53960.9 10812.6 54043.1 10747.4 54130.3 10688.5 54221.9 10636.3 54317.4 10591.1 54416.4 10553.1 54518.4 10522.4 54622.9 10499.3 54729.2 10483.8 54837 10476 54945.6 10476 55054.4 10483.8 55163 10499.3 55270.8 10522.4 55377.1 10553.1 55481.6 10591.1 55583.6 10636.3 55682.6 10688.5 55778.1 10747.4 55869.7 10812.6 55956.9 10883.9 56039.1 10960.9 56116.1 11043.1 56187.4 11130.3 56252.6 11221.9 56311.5 11317.4 56363.7 11416.4 56408.9 11518.4 56446.9 11622.9 56477.6 11729.2 56500.7 11837 56516.2 11945.6 56524 12054.4 56524 12163 56516.2 12270.8 56500.7 12377.1 56477.6 12481.6 56446.9 12583.6 56408.9 12682.6 56363.7 12778.1 56311.5 12869.7 56252.6 12956.9 56187.4 13039.1 56116.1 13116.1 56039.1 13187.4 55956.9 13252.6 55869.7 13311.5 55778.1 13363.7 55682.6 13408.9 55583.6 13446.9 55481.6 13477.6 55377.1 13500.7 55270.8 13516.2 55163 13524 55054.4 13524 54945.6 M 72524 65945.6 72516.2 65837 72500.7 65729.2 72477.6 65622.9 72446.9 65518.4 72408.9 65416.4 72363.7 65317.4 72311.5 65221.9 72252.6 65130.3 72187.4 65043.1 72116.1 64960.9 72039.1 64883.9 71956.9 64812.6 71869.7 64747.4 71778.1 64688.5 71682.6 64636.3 71583.6 64591.1 71481.6 64553.1 71377.1 64522.4 71270.8 64499.3 71163 64483.8 71054.4 64476 70945.6 64476 70837 64483.8 70729.2 64499.3 70622.9 64522.4 70518.4 64553.1 70416.4 64591.1 70317.4 64636.3 70221.9 64688.5 70130.3 64747.4 70043.1 64812.6 69960.9 64883.9 69883.9 64960.9 69812.6 65043.1 69747.4 65130.3 69688.5 65221.9 69636.3 65317.4 69591.1 65416.4 69553.1 65518.4 69522.4 65622.9 69499.3 65729.2 69483.8 65837 69476 65945.6 69476 66054.4 69483.8 66163 69499.3 66270.8 69522.4 66377.1 69553.1 66481.6 69591.1 66583.6 69636.3 66682.6 69688.5 66778.1 69747.4 66869.7 69812.6 66956.9 69883.9 67039.1 69960.9 67116.1 70043.1 67187.4 70130.3 67252.6 70221.9 67311.5 70317.4 67363.7 70416.4 67408.9 70518.4 67446.9 70622.9 67477.6 70729.2 67500.7 70837 67516.2 70945.6 67524 71054.4 67524 71163 67516.2 71270.8 67500.7 71377.1 67477.6 71481.6 67446.9 71583.6 67408.9 71682.6 67363.7 71778.1 67311.5 71869.7 67252.6 71956.9 67187.4 72039.1 67116.1 72116.1 67039.1 72187.4 66956.9 72252.6 66869.7 72311.5 66778.1 72363.7 66682.6 72408.9 66583.6 72446.9 66481.6 72477.6 66377.1 72500.7 66270.8 72516.2 66163 72524 66054.4 72524 65945.6 M 72524 12945.6 72516.2 12837 72500.7 12729.2 72477.6 12622.9 72446.9 12518.4 72408.9 12416.4 72363.7 12317.4 72311.5 12221.9 72252.6 12130.3 72187.4 12043.1 72116.1 11960.9 72039.1 11883.9 71956.9 11812.6 71869.7 11747.4 71778.1 11688.5 71682.6 11636.3 71583.6 11591.1 71481.6 11553.1 71377.1 11522.4 71270.8 11499.3 71163 11483.8 71054.4 11476 70945.6 11476 70837 11483.8 70729.2 11499.3 70622.9 11522.4 70518.4 11553.1 70416.4 11591.1 70317.4 11636.3 70221.9 11688.5 70130.3 11747.4 70043.1 11812.6 69960.9 11883.9 69883.9 11960.9 69812.6 12043.1 69747.4 12130.3 69688.5 12221.9 69636.3 12317.4 69591.1 12416.4 69553.1 12518.4 69522.4 12622.9 69499.3 12729.2 69483.8 12837 69476 12945.6 69476 13054.4 69483.8 13163 69499.3 13270.8 69522.4 13377.1 69553.1 13481.6 69591.1 13583.6 69636.3 13682.6 69688.5 13778.1 69747.4 13869.7 69812.6 13956.9 69883.9 14039.1 69960.9 14116.1 70043.1 14187.4 70130.3 14252.6 70221.9 14311.5 70317.4 14363.7 70416.4 14408.9 70518.4 14446.9 70622.9 14477.6 70729.2 14500.7 70837 14516.2 70945.6 14524 71054.4 14524 71163 14516.2 71270.8 14500.7 71377.1 14477.6 71481.6 14446.9 71583.6 14408.9 71682.6 14363.7 71778.1 14311.5 71869.7 14252.6 71956.9 14187.4 72039.1 14116.1 72116.1 14039.1 72187.4 13956.9 72252.6 13869.7 72311.5 13778.1 72363.7 13682.6 72408.9 13583.6 72446.9 13481.6 72477.6 13377.1 72500.7 13270.8 72516.2 13163 72524 13054.4 72524 12945.6 M 13524 12945.6 13516.2 12837 13500.7 12729.2 13477.6 12622.9 13446.9 12518.4 13408.9 12416.4 13363.7 12317.4 13311.5 12221.9 13252.6 12130.3 13187.4 12043.1 13116.1 11960.9 13039.1 11883.9 12956.9 11812.6 12869.7 11747.4 12778.1 11688.5 12682.6 11636.3 12583.6 11591.1 12481.6 11553.1 12377.1 11522.4 12270.8 11499.3 12163 11483.8 12054.4 11476 11945.6 11476 11837 11483.8 11729.2 11499.3 11622.9 11522.4 11518.4 11553.1 11416.4 11591.1 11317.4 11636.3 11221.9 11688.5 11130.3 11747.4 11043.1 11812.6 10960.9 11883.9 10883.9 11960.9 10812.6 12043.1 10747.4 12130.3 10688.5 12221.9 10636.3 12317.4 10591.1 12416.4 10553.1 12518.4 10522.4 12622.9 10499.3 12729.2 10483.8 12837 10476 12945.6 10476 13054.4 10483.8 13163 10499.3 13270.8 10522.4 13377.1 10553.1 13481.6 10591.1 13583.6 10636.3 13682.6 10688.5 13778.1 10747.4 13869.7 10812.6 13956.9 10883.9 14039.1 10960.9 14116.1 11043.1 14187.4 11130.3 14252.6 11221.9 14311.5 11317.4 14363.7 11416.4 14408.9 11518.4 14446.9 11622.9 14477.6 11729.2 14500.7 11837 14516.2 11945.6 14524 12054.4 14524 12163 14516.2 12270.8 14500.7 12377.1 14477.6 12481.6 14446.9 12583.6 14408.9 12682.6 14363.7 12778.1 14311.5 12869.7 14252.6 12956.9 14187.4 13039.1 14116.1 13116.1 14039.1 13187.4 13956.9 13252.6 13869.7 13311.5 13778.1 13363.7 13682.6 13408.9 13583.6 13446.9 13481.6 13477.6 13377.1 13500.7 13270.8 13516.2 13163 13524 13054.4 13524 12945.6 M 52000 26939.6 51992.7 26818.9 51978.1 26698.9 51956.3 26580 51927.4 26462.7 51891.5 26347.3 51848.6 26234.3 51799 26124.1 51742.8 26017 51680.3 25913.6 51611.6 25814.1 51537.1 25719 51456.9 25628.5 51371.5 25543.1 51281 25462.9 51185.9 25388.4 51086.4 25319.7 50983 25257.2 50875.9 25201 50765.7 25151.4 50652.7 25108.5 50537.3 25072.6 50420 25043.7 50301.1 25021.9 50181.1 25007.3 50060.4 25000 49939.6 25000 49818.9 25007.3 49698.9 25021.9 49580 25043.7 49462.7 25072.6 49347.3 25108.5 49234.3 25151.4 49124.1 25201 49017 25257.2 48913.6 25319.7 48814.1 25388.4 48719 25462.9 48628.5 25543.1 48543.1 25628.5 48462.9 25719 48388.4 25814.1 48319.7 25913.6 48257.2 26017 48201 26124.1 48151.4 26234.3 48108.5 26347.3 48072.6 26462.7 48043.7 26580 48021.9 26698.9 48007.3 26818.9 48000 26939.6 48000 27060.4 48007.3 27181.1 48021.9 27301.1 48043.7 27420 48072.6 27537.3 48108.5 27652.7 48151.4 27765.7 48201 27875.9 48257.2 27983 48319.7 28086.4 48388.4 28185.9 48462.9 28281 48543.1 28371.5 48628.5 28456.9 48719 28537.1 48814.1 28611.6 48913.6 28680.3 49017 28742.8 49124.1 28799 49234.3 28848.6 49347.3 28891.5 49462.7 28927.4 49580 28956.3 49698.9 28978.1 49818.9 28992.7 49939.6 29000 50060.4 29000 50181.1 28992.7 50301.1 28978.1 50420 28956.3 50537.3 28927.4 50652.7 28891.5 50765.7 28848.6 50875.9 28799 50983 28742.8 51086.4 28680.3 51185.9 28611.6 51281 28537.1 51371.5 28456.9 51456.9 28371.5 51537.1 28281 51611.6 28185.9 51680.3 28086.4 51742.8 27983 51799 27875.9 51848.6 27765.7 51891.5 27652.7 51927.4 27537.3 51956.3 27420 51978.1 27301.1 51992.7 27181.1 52000 27060.4 52000 26939.6 M 22000 60939.6 21992.7 60818.9 21978.1 60698.9 21956.3 60580 21927.4 60462.7 21891.5 60347.3 21848.6 60234.3 21799 60124.1 21742.8 60017 21680.3 59913.6 21611.6 59814.1 21537.1 59719 21456.9 59628.5 21371.5 59543.1 21281 59462.9 21185.9 59388.4 21086.4 59319.7 20983 59257.2 20875.9 59201 20765.7 59151.4 20652.7 59108.5 20537.3 59072.6 20420 59043.7 20301.1 59021.9 20181.1 59007.3 20060.4 59000 19939.6 59000 19818.9 59007.3 19698.9 59021.9 19580 59043.7 19462.7 59072.6 19347.3 59108.5 19234.3 59151.4 19124.1 59201 19017 59257.2 18913.6 59319.7 18814.1 59388.4 18719 59462.9 18628.5 59543.1 18543.1 59628.5 18462.9 59719 18388.4 59814.1 18319.7 59913.6 18257.2 60017 18201 60124.1 18151.4 60234.3 18108.5 60347.3 18072.6 60462.7 18043.7 60580 18021.9 60698.9 18007.3 60818.9 18000 60939.6 18000 61060.4 18007.3 61181.1 18021.9 61301.1 18043.7 61420 18072.6 61537.3 18108.5 61652.7 18151.4 61765.7 18201 61875.9 18257.2 61983 18319.7 62086.4 18388.4 62185.9 18462.9 62281 18543.1 62371.5 18628.5 62456.9 18719 62537.1 18814.1 62611.6 18913.6 62680.3 19017 62742.8 19124.1 62799 19234.3 62848.6 19347.3 62891.5 19462.7 62927.4 19580 62956.3 19698.9 62978.1 19818.9 62992.7 19939.6 63000 20060.4 63000 20181.1 62992.7 20301.1 62978.1 20420 62956.3 20537.3 62927.4 20652.7 62891.5 20765.7 62848.6 20875.9 62799 20983 62742.8 21086.4 62680.3 21185.9 62611.6 21281 62537.1 21371.5 62456.9 21456.9 62371.5 21537.1 62281 21611.6 62185.9 21680.3 62086.4 21742.8 61983 21799 61875.9 21848.6 61765.7 21891.5 61652.7 21927.4 61537.3 21956.3 61420 21978.1 61301.1 21992.7 61181.1 22000 61060.4 22000 60939.6 M 82000 60939.6 81992.7 60818.9 81978.1 60698.9 81956.3 60580 81927.4 60462.7 81891.5 60347.3 81848.6 60234.3 81799 60124.1 81742.8 60017 81680.3 59913.6 81611.6 59814.1 81537.1 59719 81456.9 59628.5 81371.5 59543.1 81281 59462.9 81185.9 59388.4 81086.4 59319.7 80983 59257.2 80875.9 59201 80765.7 59151.4 80652.7 59108.5 80537.3 59072.6 80420 59043.7 80301.1 59021.9 80181.1 59007.3 80060.4 59000 79939.6 59000 79818.9 59007.3 79698.9 59021.9 79580 59043.7 79462.7 59072.6 79347.3 59108.5 79234.3 59151.4 79124.1 59201 79017 59257.2 78913.6 59319.7 78814.1 59388.4 78719 59462.9 78628.5 59543.1 78543.1 59628.5 78462.9 59719 78388.4 59814.1 78319.7 59913.6 78257.2 60017 78201 60124.1 78151.4 60234.3 78108.5 60347.3 78072.6 60462.7 78043.7 60580 78021.9 60698.9 78007.3 60818.9 78000 60939.6 78000 61060.4 78007.3 61181.1 78021.9 61301.1 78043.7 61420 78072.6 61537.3 78108.5 61652.7 78151.4 61765.7 78201 61875.9 78257.2 61983 78319.7 62086.4 78388.4 62185.9 78462.9 62281 78543.1 62371.5 78628.5 62456.9 78719 62537.1 78814.1 62611.6 78913.6 62680.3 79017 62742.8 79124.1 62799 79234.3 62848.6 79347.3 62891.5 79462.7 62927.4 79580 62956.3 79698.9 62978.1 79818.9 62992.7 79939.6 63000 80060.4 63000 80181.1 62992.7 80301.1 62978.1 80420 62956.3 80537.3 62927.4 80652.7 62891.5 80765.7 62848.6 80875.9 62799 80983 62742.8 81086.4 62680.3 81185.9 62611.6 81281 62537.1 81371.5 62456.9 81456.9 62371.5 81537.1 62281 81611.6 62185.9 81680.3 62086.4 81742.8 61983 81799 61875.9 81848.6 61765.7 81891.5 61652.7 81927.4 61537.3 81956.3 61420 81978.1 61301.1 81992.7 61181.1 82000 61060.4 82000 60939.6 M 66140 12799.6 66132.7 12678.9 66118.1 12558.9 66096.3 12440 66067.4 12322.7 66031.5 12207.3 65988.6 12094.3 65939 11984.1 65882.8 11877 65820.3 11773.6 65751.6 11674.1 65677.1 11579 65596.9 11488.5 65511.5 11403.1 65421 11322.9 65325.9 11248.4 65226.4 11179.7 65123 11117.2 65015.9 11061 64905.7 11011.4 64792.7 10968.5 64677.3 10932.6 64560 10903.7 64441.1 10881.9 64321.1 10867.3 64200.4 10860 64079.6 10860 63958.9 10867.3 63838.9 10881.9 63720 10903.7 63602.7 10932.6 63487.3 10968.5 63374.3 11011.4 63264.1 11061 63157 11117.2 63053.6 11179.7 62954.1 11248.4 62859 11322.9 62768.5 11403.1 62683.1 11488.5 62602.9 11579 62528.4 11674.1 62459.7 11773.6 62397.2 11877 62341 11984.1 62291.4 12094.3 62248.5 12207.3 62212.6 12322.7 62183.7 12440 62161.9 12558.9 62147.3 12678.9 62140 12799.6 62140 12920.4 62147.3 13041.1 62161.9 13161.1 62183.7 13280 62212.6 13397.3 62248.5 13512.7 62291.4 13625.7 62341 13735.9 62397.2 13843 62459.7 13946.4 62528.4 14045.9 62602.9 14141 62683.1 14231.5 62768.5 14316.9 62859 14397.1 62954.1 14471.6 63053.6 14540.3 63157 14602.8 63264.1 14659 63374.3 14708.6 63487.3 14751.5 63602.7 14787.4 63720 14816.3 63838.9 14838.1 63958.9 14852.7 64079.6 14860 64200.4 14860 64321.1 14852.7 64441.1 14838.1 64560 14816.3 64677.3 14787.4 64792.7 14751.5 64905.7 14708.6 65015.9 14659 65123 14602.8 65226.4 14540.3 65325.9 14471.6 65421 14397.1 65511.5 14316.9 65596.9 14231.5 65677.1 14141 65751.6 14045.9 65820.3 13946.4 65882.8 13843 65939 13735.9 65988.6 13625.7 66031.5 13512.7 66067.4 13397.3 66096.3 13280 66118.1 13161.1 66132.7 13041.1 66140 12920.4 66140 12799.6 M 82054.4 51524 82163 51516.2 82270.8 51500.7 82377.1 51477.6 82481.6 51446.9 82583.6 51408.9 82682.6 51363.7 82778.1 51311.5 82869.7 51252.6 82956.9 51187.4 83039.1 51116.1 83116.1 51039.1 83187.4 50956.9 83252.6 50869.7 83311.5 50778.1 83363.7 50682.6 83408.9 50583.6 83446.9 50481.6 83477.6 50377.1 83500.7 50270.8 83516.2 50163 83524 50054.4 83524 49945.6 83516.2 49837 83500.7 49729.2 83477.6 49622.9 83446.9 49518.4 83408.9 49416.4 83363.7 49317.4 83311.5 49221.9 83252.6 49130.3 83187.4 49043.1 83116.1 48960.9 83039.1 48883.9 82956.9 48812.6 82869.7 48747.4 82778.1 48688.5 82682.6 48636.3 82583.6 48591.1 82481.6 48553.1 82377.1 48522.4 82270.8 48499.3 82163 48483.8 82054.4 48476 81945.6 48476 81837 48483.8 81729.2 48499.3 81622.9 48522.4 81518.4 48553.1 81416.4 48591.1 81317.4 48636.3 81221.9 48688.5 81130.3 48747.4 81043.1 48812.6 80960.9 48883.9 80883.9 48960.9 80812.6 49043.1 80747.4 49130.3 80688.5 49221.9 80636.3 49317.4 80591.1 49416.4 80553.1 49518.4 80522.4 49622.9 80499.3 49729.2 80483.8 49837 80476 49945.6 80476 50054.4 80483.8 50163 80499.3 50270.8 80522.4 50377.1 80553.1 50481.6 80591.1 50583.6 80636.3 50682.6 80688.5 50778.1 80747.4 50869.7 80812.6 50956.9 80883.9 51039.1 80960.9 51116.1 81043.1 51187.4 81130.3 51252.6 81221.9 51311.5 81317.4 51363.7 81416.4 51408.9 81518.4 51446.9 81622.9 51477.6 81729.2 51500.7 81837 51516.2 81945.6 51524 82054.4 51524 M 82054.4 26524 82163 26516.2 82270.8 26500.7 82377.1 26477.6 82481.6 26446.9 82583.6 26408.9 82682.6 26363.7 82778.1 26311.5 82869.7 26252.6 82956.9 26187.4 83039.1 26116.1 83116.1 26039.1 83187.4 25956.9 83252.6 25869.7 83311.5 25778.1 83363.7 25682.6 83408.9 25583.6 83446.9 25481.6 83477.6 25377.1 83500.7 25270.8 83516.2 25163 83524 25054.4 83524 24945.6 83516.2 24837 83500.7 24729.2 83477.6 24622.9 83446.9 24518.4 83408.9 24416.4 83363.7 24317.4 83311.5 24221.9 83252.6 24130.3 83187.4 24043.1 83116.1 23960.9 83039.1 23883.9 82956.9 23812.6 82869.7 23747.4 82778.1 23688.5 82682.6 23636.3 82583.6 23591.1 82481.6 23553.1 82377.1 23522.4 82270.8 23499.3 82163 23483.8 82054.4 23476 81945.6 23476 81837 23483.8 81729.2 23499.3 81622.9 23522.4 81518.4 23553.1 81416.4 23591.1 81317.4 23636.3 81221.9 23688.5 81130.3 23747.4 81043.1 23812.6 80960.9 23883.9 80883.9 23960.9 80812.6 24043.1 80747.4 24130.3 80688.5 24221.9 80636.3 24317.4 80591.1 24416.4 80553.1 24518.4 80522.4 24622.9 80499.3 24729.2 80483.8 24837 80476 24945.6 80476 25054.4 80483.8 25163 80499.3 25270.8 80522.4 25377.1 80553.1 25481.6 80591.1 25583.6 80636.3 25682.6 80688.5 25778.1 80747.4 25869.7 80812.6 25956.9 80883.9 26039.1 80960.9 26116.1 81043.1 26187.4 81130.3 26252.6 81221.9 26311.5 81317.4 26363.7 81416.4 26408.9 81518.4 26446.9 81622.9 26477.6 81729.2 26500.7 81837 26516.2 81945.6 26524 82054.4 26524" fill="none" stroke-width="254"/></g></svg>