<svg version="1.1" xmlns="http://www.w3.org/2000/svg" xmlns:xlink="http://www.w3.org/1999/xlink" stroke-linecap="round" stroke-linejoin="round" stroke-width="0" fill-rule="evenodd" width="80mm" height="47.2356mm" viewBox="12000 9000 80000 47235.6" id="oO3o_4PVaOSuAOsUIeIK"><g transform="translate(0,65235.6) scale(1,-1)" fill="currentColor" stroke="currentColor"><path d="M 84000 17000 92000 17000 M 16000 9000 12000 9000 M 16000 9000 24000 17000 46000 17000 54000 9000 76000 9000 84000 17000 M 83790 17500 92000 17500 M 15790 9500 12000 9500 M 15790 9500 23790 17500 46210 17500 54210 9500 75790 9500 83790 17500 M 84000 17000 92000 17000 M 16000 9000 12000 9000 M 16000 9000 24000 17000 46000 17000 54000 9000 76000 9000 84000 17000 M 83790 17500 92000 17500 M 15800 9500 12000 9500 M 15800 9500 23800 17500 46200 17500 54210 9500 75790 9500 83790 17500" fill="none" stroke-width="0"/><path d="M 26700 55160 25700 55160 M 26700 55160 26700 54060 25700 54060 M 25100 55160 24100 55160 24100 54060 25100 54060" fill="none" stroke-width="76.2"/><path d="M 25826.2 55651.4 25819.2 55651.6 25812.3 55652.2 25805.4 55653.2 25798.6 55654.5 25791.8 55656.3 25785.2 55658.4 25778.7 55660.9 25772.3 55663.7 25766.1 55666.9 25760.1 55670.4 25754.3 55674.3 25748.8 55678.5 25743.4 55683 25738.4 55687.8 25733.6 55692.8 25729.1 55698.2 25724.9 55703.7 25721 55709.5 25717.5 55715.5 25714.3 55721.7 25711.5 55728.1 25709 55734.6 25706.9 55741.2 25705.1 55748 25703.8 55754.8 25702.8 55761.7 25702.2 55768.6 25702 55775.6 M 25826.1 55651.4 25836 55651.6 25845.8 55652.1 25855.6 55653.1 25865.4 55654.4 25875.1 55656 25884.8 55658 25894.3 55660.4 25903.8 55663.2 25913.2 55666.3 25922.4 55669.7 25931.5 55673.5 25940.5 55677.6 25949.3 55682.1 25957.9 55686.9 25966.3 55692 25974.5 55697.4 25982.6 55703.2 25990.4 55709.2 25997.9 55715.5 26005.3 55722.1 26012.3 55729 M 25996.9 56086 25996.7 56093 25996.1 56099.9 25995.1 56106.8 25993.8 56113.6 25992 56120.4 25989.9 56127 25987.4 56133.5 25984.6 56139.9 25981.4 56146.1 25977.9 56152.1 25974 56157.9 25969.8 56163.4 25965.3 56168.8 25960.5 56173.8 25955.5 56178.6 25950.1 56183.1 25944.6 56187.3 25938.8 56191.2 25932.8 56194.7 25926.6 56197.9 25920.2 56200.7 25913.7 56203.2 25907.1 56205.3 25900.3 56207.1 25893.5 56208.4 25886.6 56209.4 25879.7 56210 25872.7 56210.2 25863.3 56210 25854 56209.4 25844.7 56208.5 25835.4 56207.2 25826.2 56205.5 25817.1 56203.5 25808 56201 25799.1 56198.3 25790.3 56195.1 25781.6 56191.6 25773 56187.8 25764.7 56183.6 25756.4 56179.1 25748.4 56174.3 25740.6 56169.1 25733 56163.6 M 25934.8 55977.4 25940.7 55981 25946.3 55985 25951.7 55989.3 25956.9 55993.8 25961.8 55998.7 25966.4 56003.8 25970.7 56009.1 25974.8 56014.7 25978.5 56020.5 25982 56026.5 25985 56032.6 25987.8 56038.9 25990.2 56045.4 25992.2 56052 25993.9 56058.7 25995.2 56065.4 25996.1 56072.2 25996.7 56079.1 25996.9 56086 M 25764.1 55884.2 25758.2 55880.6 25752.6 55876.6 25747.2 55872.3 25742 55867.8 25737.1 55862.9 25732.5 55857.8 25728.2 55852.5 25724.1 55846.9 25720.4 55841.1 25716.9 55835.2 25713.9 55829 25711.1 55822.7 25708.7 55816.2 25706.7 55809.6 25705 55802.9 25703.7 55796.2 25702.8 55789.4 25702.2 55782.5 25702 55775.6 M 25764.1 55884.2 25934.8 55977.4 M 25352.2 55775.6 25352.2 56210.2 M 25352.2 55775.6 25352.4 55768.6 25353 55761.7 25354 55754.8 25355.3 55748 25357.1 55741.2 25359.2 55734.6 25361.7 55728.1 25364.5 55721.7 25367.7 55715.5 25371.2 55709.5 25375.1 55703.7 25379.3 55698.2 25383.8 55692.8 25388.6 55687.8 25393.6 55683 25399 55678.5 25404.5 55674.3 25410.3 55670.4 25416.3 55666.9 25422.5 55663.7 25428.9 55660.9 25435.4 55658.4 25442 55656.3 25448.8 55654.5 25455.6 55653.2 25462.5 55652.2 25469.4 55651.6 25476.4 55651.4 25538.5 55651.4 M 24927.3 56210.2 24920 56210 24912.7 56209.4 24905.4 56208.5 24898.3 56207.1 24891.1 56205.4 24884.1 56203.4 24877.2 56200.9 24870.5 56198.1 24863.9 56195 24857.5 56191.5 24851.2 56187.7 24845.2 56183.5 24839.4 56179.1 24833.8 56174.3 24828.5 56169.3 24823.5 56164 24818.7 56158.4 24814.3 56152.6 24810.1 56146.6 24806.3 56140.4 24802.8 56133.9 24799.7 56127.3 24796.9 56120.6 24794.4 56113.7 24792.4 56106.7 24790.7 56099.5 24789.3 56092.4 24788.4 56085.1 24787.8 56077.8 24787.6 56070.5 M 24927.3 56210.2 24935.7 56210 24944 56209.4 24952.3 56208.5 24960.5 56207.1 24968.7 56205.4 24976.8 56203.2 24984.8 56200.7 24992.6 56197.9 25000.4 56194.7 25007.9 56191.1 25015.3 56187.2 25022.5 56182.9 25029.5 56178.3 25036.2 56173.4 25042.8 56168.1 25049 56162.6 25055 56156.8 25060.8 56150.7 25066.2 56144.4 25071.4 56137.8 25076.2 56131 25080.7 56123.9 25084.9 56116.7 25088.7 56109.2 25092.2 56101.6 25095.3 56093.9 25098.1 56086 M 24834.2 55961.9 24828.8 55967.2 24823.7 55972.9 24818.9 55978.8 24814.4 55984.9 24810.3 55991.2 24806.4 55997.8 24802.9 56004.5 24799.7 56011.4 24796.9 56018.5 24794.5 56025.6 24792.4 56032.9 24790.7 56040.3 24789.3 56047.8 24788.4 56055.3 24787.8 56062.9 24787.6 56070.5 M 24834.2 55961.8 25098 55651.4 24787.6 55651.4 M 28418.7 53413.4 28418.7 53165 M 28418.6 53413.4 28418.4 53421.1 28417.8 53428.9 28416.9 53436.5 28415.5 53444.2 28413.8 53451.7 28411.7 53459.1 28409.2 53466.5 28406.4 53473.7 28403.2 53480.7 28399.7 53487.6 28395.8 53494.3 28391.6 53500.8 28387.1 53507.1 28382.3 53513.2 28377.2 53519 28371.8 53524.5 28366.1 53529.8 28360.2 53534.7 28354 53539.4 28347.6 53543.8 28341 53547.8 28334.2 53551.5 28327.2 53554.9 28320.1 53557.9 28312.8 53560.5 28305.4 53562.8 28297.9 53564.7 28290.4 53566.2 28282.7 53567.4 28275 53568.2 28267.3 53568.6 28259.5 53568.6 28251.8 53568.2 28244.1 53567.4 28236.4 53566.2 28228.9 53564.7 28221.4 53562.8 28214 53560.5 28206.7 53557.9 28199.6 53554.9 28192.6 53551.5 28185.8 53547.8 28179.2 53543.8 28172.8 53539.4 28166.6 53534.7 28160.7 53529.8 28155 53524.5 28149.6 53519 28144.5 53513.2 28139.7 53507.1 28135.2 53500.8 28131 53494.3 28127.1 53487.6 28123.6 53480.7 28120.4 53473.7 28117.6 53466.5 28115.1 53459.1 28113 53451.7 28111.3 53444.2 28109.9 53436.5 28109 53428.9 28108.4 53421.1 28108.2 53413.4 28108.2 53165 28108.4 53157.3 28109 53149.5 28109.9 53141.9 28111.3 53134.2 28113 53126.7 28115.1 53119.3 28117.6 53111.9 28120.4 53104.7 28123.6 53097.7 28127.1 53090.8 28131 53084.1 28135.2 53077.6 28139.7 53071.3 28144.5 53065.2 28149.6 53059.4 28155 53053.9 28160.7 53048.6 28166.6 53043.7 28172.8 53039 28179.2 53034.6 28185.8 53030.6 28192.6 53026.9 28199.6 53023.5 28206.7 53020.5 28214 53017.9 28221.4 53015.6 28228.9 53013.7 28236.4 53012.2 28244.1 53011 28251.8 53010.2 28259.5 53009.8 28267.3 53009.8 28275 53010.2 28282.7 53011 28290.4 53012.2 28297.9 53013.7 28305.4 53015.6 28312.8 53017.9 28320.1 53020.5 28327.2 53023.5 28334.2 53026.9 28341 53030.6 28347.6 53034.6 28354 53039 28360.2 53043.7 28366.1 53048.6 28371.8 53053.9 28377.2 53059.4 28382.3 53065.2 28387.1 53071.3 28391.6 53077.6 28395.8 53084.1 28399.7 53090.8 28403.2 53097.7 28406.4 53104.7 28409.2 53111.9 28411.7 53119.3 28413.8 53126.7 28415.5 53134.2 28416.9 53141.9 28417.8 53149.5 28418.4 53157.3 28418.6 53165 M 27854.4 53382.3 27854.4 52823.5 M 27854.4 53382.3 27699.2 53382.3 27693.4 53382.1 27687.5 53381.6 27681.8 53380.7 27676 53379.4 27670.4 53377.7 27664.9 53375.8 27659.6 53373.4 27654.3 53370.8 27649.3 53367.8 27644.5 53364.5 27639.9 53360.9 27635.5 53357.1 27631.3 53352.9 27627.5 53348.5 27623.9 53343.9 27620.6 53339.1 27617.6 53334.1 27615 53328.8 27612.6 53323.5 27610.7 53318 27609 53312.4 27607.7 53306.6 27606.8 53300.9 27606.3 53295 27606.1 53289.2 M 27606 53289.2 27606 53102.9 M 27606.1 53102.9 27606.3 53097.1 27606.8 53091.2 27607.7 53085.5 27609 53079.7 27610.7 53074.1 27612.6 53068.6 27615 53063.3 27617.6 53058 27620.6 53053 27623.9 53048.2 27627.5 53043.6 27631.3 53039.2 27635.5 53035 27639.9 53031.2 27644.5 53027.6 27649.3 53024.3 27654.3 53021.3 27659.6 53018.7 27664.9 53016.3 27670.4 53014.4 27676 53012.7 27681.8 53011.4 27687.5 53010.5 27693.4 53010 27699.2 53009.8 27854.4 53009.8 M 27114.7 53009.8 26928.4 53568.6 26742.2 53009.8 M 26788.7 53149.5 27068.1 53149.5 M 26511.2 53009.8 26511.2 53382.3 26231.8 53382.3 26226 53382.1 26220.1 53381.6 26214.4 53380.7 26208.6 53379.4 26203 53377.7 26197.5 53375.8 26192.2 53373.4 26186.9 53370.8 26181.9 53367.8 26177.1 53364.5 26172.5 53360.9 26168.1 53357.1 26163.9 53352.9 26160.1 53348.5 26156.5 53343.9 26153.2 53339.1 26150.2 53334.1 26147.6 53328.8 26145.2 53323.5 26143.3 53318 26141.6 53312.4 26140.3 53306.6 26139.4 53300.9 26138.9 53295 26138.7 53289.2 26138.7 53009.8 M 26324.9 53009.8 26324.9 53382.3 M 25861 53382.3 25861 52823.5 M 25861 53382.3 25705.8 53382.3 25700 53382.1 25694.1 53381.6 25688.4 53380.7 25682.6 53379.4 25677 53377.7 25671.5 53375.8 25666.2 53373.4 25660.9 53370.8 25655.9 53367.8 25651.1 53364.5 25646.5 53360.9 25642.1 53357.1 25637.9 53352.9 25634.1 53348.5 25630.5 53343.9 25627.2 53339.1 25624.2 53334.1 25621.6 53328.8 25619.2 53323.5 25617.3 53318 25615.6 53312.4 25614.3 53306.6 25613.4 53300.9 25612.9 53295 25612.7 53289.2 M 25612.6 53289.2 25612.6 53102.9 M 25612.7 53102.9 25612.9 53097.1 25613.4 53091.2 25614.3 53085.5 25615.6 53079.7 25617.3 53074.1 25619.2 53068.6 25621.6 53063.3 25624.2 53058 25627.2 53053 25630.5 53048.2 25634.1 53043.6 25637.9 53039.2 25642.1 53035 25646.5 53031.2 25651.1 53027.6 25655.9 53024.3 25660.9 53021.3 25666.2 53018.7 25671.5 53016.3 25677 53014.4 25682.6 53012.7 25688.4 53011.4 25694.1 53010.5 25700 53010 25705.8 53009.8 25861 53009.8 M 25063.7 53320.2 24908.5 53320.2 24900.8 53320 24893 53319.4 24885.4 53318.5 24877.7 53317.1 24870.2 53315.4 24862.8 53313.3 24855.4 53310.8 24848.2 53308 24841.2 53304.8 24834.3 53301.3 24827.6 53297.4 24821.1 53293.2 24814.8 53288.7 24808.7 53283.9 24802.9 53278.8 24797.4 53273.4 24792.1 53267.7 24787.2 53261.8 24782.5 53255.6 24778.1 53249.2 24774.1 53242.6 24770.4 53235.8 24767 53228.8 24764 53221.7 24761.4 53214.4 24759.1 53207 24757.2 53199.5 24755.7 53192 24754.5 53184.3 24753.7 53176.6 24753.3 53168.9 24753.3 53161.1 24753.7 53153.4 24754.5 53145.7 24755.7 53138 24757.2 53130.5 24759.1 53123 24761.4 53115.6 24764 53108.3 24767 53101.2 24770.4 53094.2 24774.1 53087.4 24778.1 53080.8 24782.5 53074.4 24787.2 53068.2 24792.1 53062.3 24797.4 53056.6 24802.9 53051.2 24808.7 53046.1 24814.8 53041.3 24821.1 53036.8 24827.6 53032.6 24834.3 53028.7 24841.2 53025.2 24848.2 53022 24855.4 53019.2 24862.8 53016.7 24870.2 53014.6 24877.7 53012.9 24885.4 53011.5 24893 53010.6 24900.8 53010 24908.5 53009.8 25063.7 53009.8 25063.7 53568.6 24908.5 53568.6 24901.5 53568.4 24894.6 53567.8 24887.7 53566.8 24880.9 53565.5 24874.1 53563.7 24867.5 53561.6 24861 53559.1 24854.6 53556.3 24848.4 53553.1 24842.4 53549.6 24836.6 53545.7 24831.1 53541.5 24825.7 53537 24820.7 53532.2 24815.9 53527.2 24811.4 53521.8 24807.2 53516.3 24803.3 53510.5 24799.8 53504.5 24796.6 53498.3 24793.8 53491.9 24791.3 53485.4 24789.2 53478.8 24787.4 53472 24786.1 53465.2 24785.1 53458.3 24784.5 53451.4 24784.3 53444.4 24784.5 53437.4 24785.1 53430.5 24786.1 53423.6 24787.4 53416.8 24789.2 53410 24791.3 53403.4 24793.8 53396.9 24796.6 53390.5 24799.8 53384.3 24803.3 53378.3 24807.2 53372.5 24811.4 53367 24815.9 53361.6 24820.7 53356.6 24825.7 53351.8 24831.1 53347.3 24836.6 53343.1 24842.4 53339.2 24848.4 53335.7 24854.6 53332.5 24861 53329.7 24867.5 53327.2 24874.1 53325.1 24880.9 53323.3 24887.7 53322 24894.6 53321 24901.5 53320.4 24908.5 53320.2 M 24565.4 52823.5 24503.4 52823.5 24317.1 53382.3 M 24565.4 53382.3 24441.3 53009.8 M 24087.1 52823.5 24087.1 53382.3 23931.9 53382.3 23926.1 53382.1 23920.2 53381.6 23914.5 53380.7 23908.7 53379.4 23903.1 53377.7 23897.6 53375.8 23892.3 53373.4 23887 53370.8 23882 53367.8 23877.2 53364.5 23872.6 53360.9 23868.2 53357.1 23864 53352.9 23860.2 53348.5 23856.6 53343.9 23853.3 53339.1 23850.3 53334.1 23847.7 53328.8 23845.3 53323.5 23843.4 53318 23841.7 53312.4 23840.4 53306.6 23839.5 53300.9 23839 53295 23838.8 53289.2 M 23838.7 53289.2 23838.7 53102.9 M 23838.8 53102.9 23839 53097.1 23839.5 53091.2 23840.4 53085.5 23841.7 53079.7 23843.4 53074.1 23845.3 53068.6 23847.7 53063.3 23850.3 53058 23853.3 53053 23856.6 53048.2 23860.2 53043.6 23864 53039.2 23868.2 53035 23872.6 53031.2 23877.2 53027.6 23882 53024.3 23887 53021.3 23892.3 53018.7 23897.6 53016.3 23903.1 53014.4 23908.7 53012.7 23914.5 53011.4 23920.2 53010.5 23926.1 53010 23931.9 53009.8 24087.1 53009.8 M 23508.7 53227.1 23369 53227.1 M 23508.7 53227.2 23515.1 53227 23521.6 53226.4 23527.9 53225.5 23534.2 53224.2 23540.4 53222.5 23546.5 53220.4 23552.5 53218 23558.3 53215.2 23564 53212.1 23569.4 53208.7 23574.7 53204.9 23579.7 53200.8 23584.4 53196.5 23588.9 53191.9 23593.1 53187 23597 53181.9 23600.6 53176.5 23603.9 53171 23606.8 53165.2 23609.4 53159.4 23611.7 53153.3 23613.6 53147.2 23615.1 53140.9 23616.2 53134.5 23617 53128.2 23617.4 53121.7 23617.4 53115.3 23617 53108.8 23616.2 53102.5 23615.1 53096.1 23613.6 53089.8 23611.7 53083.7 23609.4 53077.6 23606.8 53071.8 23603.9 53066 23600.6 53060.5 23597 53055.1 23593.1 53050 23588.9 53045.1 23584.4 53040.5 23579.7 53036.2 23574.7 53032.1 23569.4 53028.3 23564 53024.9 23558.3 53021.8 23552.5 53019 23546.5 53016.6 23540.4 53014.5 23534.2 53012.8 23527.9 53011.5 23521.6 53010.6 23515.1 53010 23508.7 53009.8 23369 53009.8 23369 53289.2 23369.2 53295 23369.7 53300.9 23370.6 53306.6 23371.9 53312.4 23373.6 53318 23375.5 53323.5 23377.9 53328.8 23380.5 53334.1 23383.5 53339.1 23386.8 53343.9 23390.4 53348.5 23394.2 53352.9 23398.4 53357.1 23402.8 53360.9 23407.4 53364.5 23412.2 53367.8 23417.2 53370.8 23422.5 53373.4 23427.8 53375.8 23433.3 53377.7 23438.9 53379.4 23444.7 53380.7 23450.4 53381.6 23456.3 53382.1 23462.1 53382.3 23586.3 53382.3 M 23074.1 53227.1 22918.9 53165 M 23074.1 53227.1 23079.2 53229.3 23084.1 53231.9 23088.9 53234.8 23093.4 53238.1 23097.7 53241.7 23101.8 53245.5 23105.5 53249.7 23109 53254 23112.2 53258.6 23115 53263.5 23117.5 53268.5 23119.6 53273.6 23121.4 53278.9 23122.8 53284.3 23123.8 53289.8 23124.4 53295.4 23124.7 53300.9 23124.6 53306.5 23124 53312.1 23123.1 53317.6 23121.9 53323 23120.2 53328.4 23118.2 53333.6 23115.8 53338.6 23113.1 53343.5 23110 53348.2 23106.6 53352.6 23103 53356.8 23099 53360.8 23094.8 53364.4 23090.3 53367.8 23085.6 53370.8 23080.8 53373.5 23075.7 53375.9 23070.5 53377.9 23065.1 53379.5 23059.7 53380.8 23054.2 53381.7 23048.6 53382.2 23043 53382.3 M 23043.1 53382.4 23032 53382 23020.9 53381.4 23009.9 53380.3 22998.9 53378.9 22987.9 53377.2 22977 53375.2 22966.2 53372.8 22955.5 53370 22944.8 53366.9 22934.3 53363.5 22923.8 53359.8 22913.5 53355.7 22903.3 53351.3 M 22918.9 53165 22913.8 53162.8 22908.9 53160.2 22904.1 53157.3 22899.6 53154 22895.3 53150.4 22891.2 53146.6 22887.5 53142.4 22884 53138.1 22880.8 53133.5 22878 53128.6 22875.5 53123.6 22873.4 53118.5 22871.6 53113.2 22870.2 53107.8 22869.2 53102.3 22868.6 53096.7 22868.3 53091.2 22868.4 53085.6 22869 53080 22869.9 53074.5 22871.1 53069.1 22872.8 53063.7 22874.8 53058.5 22877.2 53053.5 22879.9 53048.6 22883 53043.9 22886.4 53039.5 22890 53035.3 22894 53031.3 22898.2 53027.7 22902.7 53024.3 22907.4 53021.3 22912.2 53018.6 22917.3 53016.2 22922.5 53014.2 22927.9 53012.6 22933.3 53011.3 22938.8 53010.4 22944.4 53009.9 22950 53009.8 M 22949.9 53009.8 22963.3 53010.1 22976.7 53010.8 22990.1 53011.9 23003.4 53013.2 23016.7 53015 23030 53017 23043.2 53019.4 23056.3 53022.2 23069.4 53025.2 23082.3 53028.6 23095.2 53032.4 23108 53036.4 23120.7 53040.8 M 22598.7 53227.1 22443.4 53165 M 22598.7 53227.1 22603.8 53229.3 22608.7 53231.9 22613.5 53234.8 22618 53238.1 22622.3 53241.7 22626.4 53245.5 22630.1 53249.7 22633.6 53254 22636.8 53258.6 22639.6 53263.5 22642.1 53268.5 22644.2 53273.6 22646 53278.9 22647.4 53284.3 22648.4 53289.8 22649 53295.4 22649.3 53300.9 22649.2 53306.5 22648.6 53312.1 22647.7 53317.6 22646.5 53323 22644.8 53328.4 22642.8 53333.6 22640.4 53338.6 22637.7 53343.5 22634.6 53348.2 22631.2 53352.6 22627.6 53356.8 22623.6 53360.8 22619.4 53364.4 22614.9 53367.8 22610.2 53370.8 22605.4 53373.5 22600.3 53375.9 22595.1 53377.9 22589.7 53379.5 22584.3 53380.8 22578.8 53381.7 22573.2 53382.2 22567.6 53382.3 M 22567.6 53382.4 22556.5 53382 22545.4 53381.4 22534.4 53380.3 22523.4 53378.9 22512.4 53377.2 22501.5 53375.2 22490.7 53372.8 22480 53370 22469.3 53366.9 22458.8 53363.5 22448.3 53359.8 22438 53355.7 22427.8 53351.3 M 22443.4 53165 22438.3 53162.8 22433.4 53160.2 22428.6 53157.3 22424.1 53154 22419.8 53150.4 22415.7 53146.6 22412 53142.4 22408.5 53138.1 22405.3 53133.5 22402.5 53128.6 22400 53123.6 22397.9 53118.5 22396.1 53113.2 22394.7 53107.8 22393.7 53102.3 22393.1 53096.7 22392.8 53091.2 22392.9 53085.6 22393.5 53080 22394.4 53074.5 22395.6 53069.1 22397.3 53063.7 22399.3 53058.5 22401.7 53053.5 22404.4 53048.6 22407.5 53043.9 22410.9 53039.5 22414.5 53035.3 22418.5 53031.3 22422.7 53027.7 22427.2 53024.3 22431.9 53021.3 22436.7 53018.6 22441.8 53016.2 22447 53014.2 22452.4 53012.6 22457.8 53011.3 22463.3 53010.4 22468.9 53009.9 22474.5 53009.8 22487.9 53010.1 22501.3 53010.8 22514.7 53011.9 22528 53013.2 22541.3 53015 22554.6 53017 22567.8 53019.4 22580.9 53022.2 22594 53025.2 22606.9 53028.6 22619.8 53032.4 22632.6 53036.4 22645.3 53040.8" fill="none" stroke-width="50.8"/></g></svg>