<svg version="1.1" xmlns="http://www.w3.org/2000/svg" xmlns:xlink="http://www.w3.org/1999/xlink" stroke-linecap="round" stroke-linejoin="round" stroke-width="0" fill-rule="evenodd" width="36.31mm" height="25.0825mm" viewBox="14490 33972.5 36310 25082.5" id="B4woU7oEYSCN7EtBBGu6"><defs><rect x="-635" y="-317.5" width="1270" height="635" id="B4woU7oEYSCN7EtBBGu6_pad-10"/><rect x="-750" y="-650" width="1500" height="1300" id="B4woU7oEYSCN7EtBBGu6_pad-11"/><rect x="-381" y="-431.8" width="762" height="863.6" id="B4woU7oEYSCN7EtBBGu6_pad-12"/><rect x="-225" y="-295" width="450" height="590" id="B4woU7oEYSCN7EtBBGu6_pad-13"/><rect x="-900" y="-800" width="1800" height="1600" id="B4woU7oEYSCN7EtBBGu6_pad-14"/><rect x="-1905" y="-1905" width="3810" height="3810" id="B4woU7oEYSCN7EtBBGu6_pad-15"/></defs><g transform="translate(0,93027.5) scale(1,-1)" fill="currentColor" stroke="currentColor"><use xlink:href="#B4woU7oEYSCN7EtBBGu6_pad-10" x="21336" y="34290"/><use xlink:href="#B4woU7oEYSCN7EtBBGu6_pad-10" x="21336" y="35560"/><use xlink:href="#B4woU7oEYSCN7EtBBGu6_pad-10" x="21336" y="36830"/><use xlink:href="#B4woU7oEYSCN7EtBBGu6_pad-10" x="21336" y="38100"/><use xlink:href="#B4woU7oEYSCN7EtBBGu6_pad-10" x="26924" y="38100"/><use xlink:href="#B4woU7oEYSCN7EtBBGu6_pad-10" x="26924" y="36830"/><use xlink:href="#B4woU7oEYSCN7EtBBGu6_pad-10" x="26924" y="35560"/><use xlink:href="#B4woU7oEYSCN7EtBBGu6_pad-10" x="26924" y="34290"/><use xlink:href="#B4woU7oEYSCN7EtBBGu6_pad-11" x="17780" y="37150"/><use xlink:href="#B4woU7oEYSCN7EtBBGu6_pad-11" x="17780" y="39050"/><use xlink:href="#B4woU7oEYSCN7EtBBGu6_pad-11" x="15240" y="37150"/><use xlink:href="#B4woU7oEYSCN7EtBBGu6_pad-11" x="15240" y="39050"/><use xlink:href="#B4woU7oEYSCN7EtBBGu6_pad-12" x="30480" y="36906.2"/><use xlink:href="#B4woU7oEYSCN7EtBBGu6_pad-12" x="30480" y="35483.8"/><use xlink:href="#B4woU7oEYSCN7EtBBGu6_pad-13" x="29210" y="54825"/><use xlink:href="#B4woU7oEYSCN7EtBBGu6_pad-13" x="29210" y="56935"/><use xlink:href="#B4woU7oEYSCN7EtBBGu6_pad-11" x="26670" y="50480"/><use xlink:href="#B4woU7oEYSCN7EtBBGu6_pad-11" x="26670" y="48580"/><use xlink:href="#B4woU7oEYSCN7EtBBGu6_pad-11" x="21590" y="50480"/><use xlink:href="#B4woU7oEYSCN7EtBBGu6_pad-11" x="21590" y="48580"/><use xlink:href="#B4woU7oEYSCN7EtBBGu6_pad-11" x="19050" y="50480"/><use xlink:href="#B4woU7oEYSCN7EtBBGu6_pad-11" x="19050" y="48580"/><use xlink:href="#B4woU7oEYSCN7EtBBGu6_pad-11" x="24130" y="48580"/><use xlink:href="#B4woU7oEYSCN7EtBBGu6_pad-11" x="24130" y="50480"/><use xlink:href="#B4woU7oEYSCN7EtBBGu6_pad-11" x="26670" y="54930"/><use xlink:href="#B4woU7oEYSCN7EtBBGu6_pad-11" x="26670" y="56830"/><use xlink:href="#B4woU7oEYSCN7EtBBGu6_pad-14" x="23495" y="57280"/><use xlink:href="#B4woU7oEYSCN7EtBBGu6_pad-14" x="23495" y="54480"/><use xlink:href="#B4woU7oEYSCN7EtBBGu6_pad-10" x="26924" y="45085"/><use xlink:href="#B4woU7oEYSCN7EtBBGu6_pad-10" x="26924" y="43815"/><use xlink:href="#B4woU7oEYSCN7EtBBGu6_pad-10" x="26924" y="42545"/><use xlink:href="#B4woU7oEYSCN7EtBBGu6_pad-10" x="26924" y="41275"/><use xlink:href="#B4woU7oEYSCN7EtBBGu6_pad-10" x="21336" y="41275"/><use xlink:href="#B4woU7oEYSCN7EtBBGu6_pad-10" x="21336" y="42545"/><use xlink:href="#B4woU7oEYSCN7EtBBGu6_pad-10" x="21336" y="43815"/><use xlink:href="#B4woU7oEYSCN7EtBBGu6_pad-10" x="21336" y="45085"/><use xlink:href="#B4woU7oEYSCN7EtBBGu6_pad-15" x="48895" y="57150"/><use xlink:href="#B4woU7oEYSCN7EtBBGu6_pad-15" x="40005" y="57150"/></g></svg>