<svg version="1.1" xmlns="http://www.w3.org/2000/svg" xmlns:xlink="http://www.w3.org/1999/xlink" stroke-linecap="round" stroke-linejoin="round" stroke-width="0" fill-rule="evenodd" width="73.2512mm" height="57.6757mm" viewBox="10374.4 10758.4 73251.2 57675.7" id="LpUS6nBQZA8GI0Puxre4"><defs><circle cx="0" cy="0" r="739.1" id="LpUS6nBQZA8GI0Puxre4_pad-10"/><circle cx="0" cy="0" r="958.85" id="LpUS6nBQZA8GI0Puxre4_pad-11"/><circle cx="0" cy="0" r="1625.6" id="LpUS6nBQZA8GI0Puxre4_pad-12"/><circle cx="0" cy="0" r="2101.6" id="LpUS6nBQZA8GI0Puxre4_pad-13"/><rect x="-736.6" y="-419.1" width="1473.2" height="838.2" id="LpUS6nBQZA8GI0Puxre4_pad-14"/><rect x="-851.6" y="-751.6" width="1703.2" height="1503.2" id="LpUS6nBQZA8GI0Puxre4_pad-15"/><circle cx="0" cy="0" r="664.1" id="LpUS6nBQZA8GI0Puxre4_pad-16"/><rect x="-482.6" y="-533.4" width="965.2" height="1066.8" id="LpUS6nBQZA8GI0Puxre4_pad-17"/><rect x="-482.6" y="-177.8" width="965.2" height="355.6" id="LpUS6nBQZA8GI0Puxre4_pad-18"/><rect x="-326.6" y="-396.6" width="653.2" height="793.2" id="LpUS6nBQZA8GI0Puxre4_pad-19"/><rect x="-1001.6" y="-901.6" width="2003.2" height="1803.2" id="LpUS6nBQZA8GI0Puxre4_pad-20"/><circle cx="0" cy="0" r="736.6" id="LpUS6nBQZA8GI0Puxre4_pad-21"/><rect x="-2006.6" y="-2006.6" width="4013.2" height="4013.2" id="LpUS6nBQZA8GI0Puxre4_pad-23"/><circle cx="0" cy="0" r="479.8" id="LpUS6nBQZA8GI0Puxre4_pad-24"/></defs><g transform="translate(0,79192.5) scale(1,-1)" fill="currentColor" stroke="currentColor"><use xlink:href="#LpUS6nBQZA8GI0Puxre4_pad-10" x="43180" y="45085"/><use xlink:href="#LpUS6nBQZA8GI0Puxre4_pad-10" x="45720" y="45085"/><use xlink:href="#LpUS6nBQZA8GI0Puxre4_pad-11" x="33000" y="30080"/><use xlink:href="#LpUS6nBQZA8GI0Puxre4_pad-11" x="33000" y="25000"/><use xlink:href="#LpUS6nBQZA8GI0Puxre4_pad-11" x="61000" y="44920"/><use xlink:href="#LpUS6nBQZA8GI0Puxre4_pad-11" x="61000" y="50000"/><use xlink:href="#LpUS6nBQZA8GI0Puxre4_pad-11" x="61000" y="55080"/><use xlink:href="#LpUS6nBQZA8GI0Puxre4_pad-11" x="61000" y="19920"/><use xlink:href="#LpUS6nBQZA8GI0Puxre4_pad-11" x="61000" y="25000"/><use xlink:href="#LpUS6nBQZA8GI0Puxre4_pad-11" x="61000" y="30080"/><use xlink:href="#LpUS6nBQZA8GI0Puxre4_pad-12" x="12000" y="55000"/><use xlink:href="#LpUS6nBQZA8GI0Puxre4_pad-12" x="71000" y="66000"/><use xlink:href="#LpUS6nBQZA8GI0Puxre4_pad-12" x="71000" y="13000"/><use xlink:href="#LpUS6nBQZA8GI0Puxre4_pad-12" x="12000" y="13000"/><use xlink:href="#LpUS6nBQZA8GI0Puxre4_pad-13" x="50000" y="27000"/><use xlink:href="#LpUS6nBQZA8GI0Puxre4_pad-13" x="20000" y="61000"/><use xlink:href="#LpUS6nBQZA8GI0Puxre4_pad-13" x="80000" y="61000"/><use xlink:href="#LpUS6nBQZA8GI0Puxre4_pad-13" x="64140" y="12860"/><use xlink:href="#LpUS6nBQZA8GI0Puxre4_pad-14" x="21336" y="34290"/><use xlink:href="#LpUS6nBQZA8GI0Puxre4_pad-14" x="21336" y="35560"/><use xlink:href="#LpUS6nBQZA8GI0Puxre4_pad-14" x="21336" y="36830"/><use xlink:href="#LpUS6nBQZA8GI0Puxre4_pad-14" x="21336" y="38100"/><use xlink:href="#LpUS6nBQZA8GI0Puxre4_pad-14" x="26924" y="38100"/><use xlink:href="#LpUS6nBQZA8GI0Puxre4_pad-14" x="26924" y="36830"/><use xlink:href="#LpUS6nBQZA8GI0Puxre4_pad-14" x="26924" y="35560"/><use xlink:href="#LpUS6nBQZA8GI0Puxre4_pad-14" x="26924" y="34290"/><use xlink:href="#LpUS6nBQZA8GI0Puxre4_pad-15" x="17780" y="37150"/><use xlink:href="#LpUS6nBQZA8GI0Puxre4_pad-15" x="17780" y="39050"/><use xlink:href="#LpUS6nBQZA8GI0Puxre4_pad-15" x="15240" y="37150"/><use xlink:href="#LpUS6nBQZA8GI0Puxre4_pad-15" x="15240" y="39050"/><use xlink:href="#LpUS6nBQZA8GI0Puxre4_pad-16" x="25400" y="67770"/><use xlink:href="#LpUS6nBQZA8GI0Puxre4_pad-16" x="25400" y="63770"/><use xlink:href="#LpUS6nBQZA8GI0Puxre4_pad-16" x="25400" y="65770"/><use xlink:href="#LpUS6nBQZA8GI0Puxre4_pad-17" x="30480" y="36906.2"/><use xlink:href="#LpUS6nBQZA8GI0Puxre4_pad-17" x="30480" y="35483.8"/><use xlink:href="#LpUS6nBQZA8GI0Puxre4_pad-18" x="30480" y="36195"/><use xlink:href="#LpUS6nBQZA8GI0Puxre4_pad-19" x="29210" y="54825"/><use xlink:href="#LpUS6nBQZA8GI0Puxre4_pad-19" x="29210" y="56935"/><use xlink:href="#LpUS6nBQZA8GI0Puxre4_pad-15" x="26670" y="50480"/><use xlink:href="#LpUS6nBQZA8GI0Puxre4_pad-15" x="26670" y="48580"/><use xlink:href="#LpUS6nBQZA8GI0Puxre4_pad-15" x="21590" y="50480"/><use xlink:href="#LpUS6nBQZA8GI0Puxre4_pad-15" x="21590" y="48580"/><use xlink:href="#LpUS6nBQZA8GI0Puxre4_pad-15" x="19050" y="50480"/><use xlink:href="#LpUS6nBQZA8GI0Puxre4_pad-15" x="19050" y="48580"/><use xlink:href="#LpUS6nBQZA8GI0Puxre4_pad-15" x="24130" y="48580"/><use xlink:href="#LpUS6nBQZA8GI0Puxre4_pad-15" x="24130" y="50480"/><use xlink:href="#LpUS6nBQZA8GI0Puxre4_pad-15" x="26670" y="54930"/><use xlink:href="#LpUS6nBQZA8GI0Puxre4_pad-15" x="26670" y="56830"/><use xlink:href="#LpUS6nBQZA8GI0Puxre4_pad-20" x="23495" y="57280"/><use xlink:href="#LpUS6nBQZA8GI0Puxre4_pad-20" x="23495" y="54480"/><use xlink:href="#LpUS6nBQZA8GI0Puxre4_pad-21" x="33205" y="43815"/><use xlink:href="#LpUS6nBQZA8GI0Puxre4_pad-21" x="30665" y="46355"/><use xlink:href="#LpUS6nBQZA8GI0Puxre4_pad-21" x="33205" y="48895"/><use xlink:href="#LpUS6nBQZA8GI0Puxre4_pad-14" x="26924" y="45085"/><use xlink:href="#LpUS6nBQZA8GI0Puxre4_pad-14" x="26924" y="43815"/><use xlink:href="#LpUS6nBQZA8GI0Puxre4_pad-14" x="26924" y="42545"/><use xlink:href="#LpUS6nBQZA8GI0Puxre4_pad-14" x="26924" y="41275"/><use xlink:href="#LpUS6nBQZA8GI0Puxre4_pad-14" x="21336" y="41275"/><use xlink:href="#LpUS6nBQZA8GI0Puxre4_pad-14" x="21336" y="42545"/><use xlink:href="#LpUS6nBQZA8GI0Puxre4_pad-14" x="21336" y="43815"/><use xlink:href="#LpUS6nBQZA8GI0Puxre4_pad-14" x="21336" y="45085"/><use xlink:href="#LpUS6nBQZA8GI0Puxre4_pad-12" x="82000" y="50000"/><use xlink:href="#LpUS6nBQZA8GI0Puxre4_pad-12" x="82000" y="25000"/><path d="M 52000 55200 50800 55200 M 50800 59100 52000 59100 M 38100 59100 36900 59100 M 36900 55200 38100 55200" fill="none" stroke-width="1403.2"/><use xlink:href="#LpUS6nBQZA8GI0Puxre4_pad-23" x="48895" y="57150"/><use xlink:href="#LpUS6nBQZA8GI0Puxre4_pad-23" x="40005" y="57150"/><use xlink:href="#LpUS6nBQZA8GI0Puxre4_pad-24" x="22225" y="52705"/><use xlink:href="#LpUS6nBQZA8GI0Puxre4_pad-24" x="22987" y="35560"/><use xlink:href="#LpUS6nBQZA8GI0Puxre4_pad-24" x="22987" y="41275"/><use xlink:href="#LpUS6nBQZA8GI0Puxre4_pad-24" x="19685" y="52705"/><use xlink:href="#LpUS6nBQZA8GI0Puxre4_pad-24" x="29210" y="57785"/></g></svg>