<svg version="1.1" xmlns="http://www.w3.org/2000/svg" xmlns:xlink="http://www.w3.org/1999/xlink" stroke-linecap="round" stroke-linejoin="round" stroke-width="0" fill-rule="evenodd" width="73.2512mm" height="57.6757mm" viewBox="10374.4 10758.4 73251.2 57675.7" id="RR8P5plnurNQspZMIgwB"><defs><circle cx="0" cy="0" r="739.1" id="RR8P5plnurNQspZMIgwB_pad-10"/><circle cx="0" cy="0" r="958.85" id="RR8P5plnurNQspZMIgwB_pad-11"/><circle cx="0" cy="0" r="1625.6" id="RR8P5plnurNQspZMIgwB_pad-12"/><circle cx="0" cy="0" r="2101.6" id="RR8P5plnurNQspZMIgwB_pad-13"/><circle cx="0" cy="0" r="664.1" id="RR8P5plnurNQspZMIgwB_pad-14"/><circle cx="0" cy="0" r="736.6" id="RR8P5plnurNQspZMIgwB_pad-15"/><rect x="-533.4" y="-482.6" width="1066.8" height="965.2" id="RR8P5plnurNQspZMIgwB_pad-16"/><rect x="-177.8" y="-482.6" width="355.6" height="965.2" id="RR8P5plnurNQspZMIgwB_pad-17"/><circle cx="0" cy="0" r="479.8" id="RR8P5plnurNQspZMIgwB_pad-19"/></defs><g transform="translate(0,79192.5) scale(1,-1)" fill="currentColor" stroke="currentColor"><use xlink:href="#RR8P5plnurNQspZMIgwB_pad-10" x="43180" y="45085"/><use xlink:href="#RR8P5plnurNQspZMIgwB_pad-10" x="45720" y="45085"/><use xlink:href="#RR8P5plnurNQspZMIgwB_pad-11" x="33000" y="30080"/><use xlink:href="#RR8P5plnurNQspZMIgwB_pad-11" x="33000" y="25000"/><use xlink:href="#RR8P5plnurNQspZMIgwB_pad-11" x="61000" y="44920"/><use xlink:href="#RR8P5plnurNQspZMIgwB_pad-11" x="61000" y="50000"/><use xlink:href="#RR8P5plnurNQspZMIgwB_pad-11" x="61000" y="55080"/><use xlink:href="#RR8P5plnurNQspZMIgwB_pad-11" x="61000" y="19920"/><use xlink:href="#RR8P5plnurNQspZMIgwB_pad-11" x="61000" y="25000"/><use xlink:href="#RR8P5plnurNQspZMIgwB_pad-11" x="61000" y="30080"/><use xlink:href="#RR8P5plnurNQspZMIgwB_pad-12" x="12000" y="55000"/><use xlink:href="#RR8P5plnurNQspZMIgwB_pad-12" x="71000" y="66000"/><use xlink:href="#RR8P5plnurNQspZMIgwB_pad-12" x="71000" y="13000"/><use xlink:href="#RR8P5plnurNQspZMIgwB_pad-12" x="12000" y="13000"/><use xlink:href="#RR8P5plnurNQspZMIgwB_pad-13" x="50000" y="27000"/><use xlink:href="#RR8P5plnurNQspZMIgwB_pad-13" x="20000" y="61000"/><use xlink:href="#RR8P5plnurNQspZMIgwB_pad-13" x="80000" y="61000"/><use xlink:href="#RR8P5plnurNQspZMIgwB_pad-13" x="64140" y="12860"/><use xlink:href="#RR8P5plnurNQspZMIgwB_pad-14" x="25400" y="67770"/><use xlink:href="#RR8P5plnurNQspZMIgwB_pad-14" x="25400" y="63770"/><use xlink:href="#RR8P5plnurNQspZMIgwB_pad-14" x="25400" y="65770"/><use xlink:href="#RR8P5plnurNQspZMIgwB_pad-15" x="33205" y="43815"/><use xlink:href="#RR8P5plnurNQspZMIgwB_pad-15" x="30665" y="46355"/><use xlink:href="#RR8P5plnurNQspZMIgwB_pad-15" x="33205" y="48895"/><use xlink:href="#RR8P5plnurNQspZMIgwB_pad-16" x="26111.2" y="54610"/><use xlink:href="#RR8P5plnurNQspZMIgwB_pad-16" x="24688.8" y="54610"/><use xlink:href="#RR8P5plnurNQspZMIgwB_pad-17" x="25400" y="54610"/><use xlink:href="#RR8P5plnurNQspZMIgwB_pad-12" x="82000" y="50000"/><use xlink:href="#RR8P5plnurNQspZMIgwB_pad-12" x="82000" y="25000"/><path d="M 52000 55200 50800 55200 M 50800 59100 52000 59100 M 38100 59100 36900 59100 M 36900 55200 38100 55200" fill="none" stroke-width="1403.2"/><use xlink:href="#RR8P5plnurNQspZMIgwB_pad-19" x="22225" y="52705"/><use xlink:href="#RR8P5plnurNQspZMIgwB_pad-19" x="22987" y="35560"/><use xlink:href="#RR8P5plnurNQspZMIgwB_pad-19" x="22987" y="41275"/><use xlink:href="#RR8P5plnurNQspZMIgwB_pad-19" x="19685" y="52705"/><use xlink:href="#RR8P5plnurNQspZMIgwB_pad-19" x="29210" y="57785"/></g></svg>