<svg version="1.1" xmlns="http://www.w3.org/2000/svg" xmlns:xlink="http://www.w3.org/1999/xlink" stroke-linecap="round" stroke-linejoin="round" stroke-width="0" fill-rule="evenodd" clip-rule="evenodd" id="EguF-McsiPsJSY_Py38u_top" viewBox="2550 1552 88900 56896" width="88.9mm" height="56.896mm" class="w-100 h-100"><defs><style>.EguF-McsiPsJSY_Py38u_fr4 {color: #666666;}
.EguF-McsiPsJSY_Py38u_cu {color: #cccccc;}
.EguF-McsiPsJSY_Py38u_cf {color: #cc9933;}
.EguF-McsiPsJSY_Py38u_sm {color: #004200; opacity: 0.75;}
.EguF-McsiPsJSY_Py38u_ss {color: #ffffff;}
.EguF-McsiPsJSY_Py38u_sp {color: #999999;}
.EguF-McsiPsJSY_Py38u_out {color: #000000;}</style><clipPath id="EguF-McsiPsJSY_Py38u_top_outline"><path d="M 2550 11204 2552.9 11137.6 2561.6 11071.7 2576 11006.8 2596 10943.4 2621.4 10882 2652.1 10823 2687.8 10766.9 2728.3 10714.2 2773.2 10665.2 2822.2 10620.3 2874.9 10579.8 2931 10544.1 2990 10513.4 3051.4 10488 3114.8 10468 3179.7 10453.6 3245.6 10444.9 3312 10442 4020.4 10411.1 4723.4 10318.5 5415.7 10165 6091.9 9951.8 6747 9680.5 7376 9353.1 7974 8972.1 8536.6 8540.4 9059.4 8061.4 9538.4 7538.6 9970.1 6976 10351.1 6378 10678.5 5749 10949.8 5093.9 11163 4417.7 11316.5 3725.4 11409.1 3022.4 11440 2314 11442.9 2247.6 11451.6 2181.7 11466 2116.8 11486 2053.4 11511.4 1992 11542.1 1933 11577.8 1876.9 11618.3 1824.2 11663.2 1775.2 11712.2 1730.3 11764.9 1689.8 11821 1654.1 11880 1623.4 11941.4 1598 12004.8 1578 12069.7 1563.6 12135.6 1554.9 12202 1552 81798 1552 81864.4 1554.9 81930.3 1563.6 81995.2 1578 82058.6 1598 82120 1623.4 82179 1654.1 82235.1 1689.8 82287.8 1730.3 82336.8 1775.2 82381.7 1824.2 82422.2 1876.9 82457.9 1933 82488.6 1992 82514 2053.4 82534 2116.8 82548.4 2181.7 82557.1 2247.6 82560 2314 82590.9 3022.4 82683.5 3725.4 82837 4417.7 83050.2 5093.9 83321.5 5749 83648.9 6378 84029.9 6976 84461.6 7538.6 84940.6 8061.4 85463.4 8540.4 86026 8972.1 86624 9353.1 87253 9680.5 87908.1 9951.8 88584.3 10165 89276.6 10318.5 89979.6 10411.1 90688 10442 90754.4 10444.9 90820.3 10453.6 90885.2 10468 90948.6 10488 91010 10513.4 91069 10544.1 91125.1 10579.8 91177.8 10620.3 91226.8 10665.2 91271.7 10714.2 91312.2 10766.9 91347.9 10823 91378.6 10882 91404 10943.4 91424 11006.8 91438.4 11071.7 91447.1 11137.6 91450 11204 91450 48796 91447.1 48862.4 91438.4 48928.3 91424 48993.2 91404 49056.6 91378.6 49118 91347.9 49177 91312.2 49233.1 91271.7 49285.8 91226.8 49334.8 91177.8 49379.7 91125.1 49420.2 91069 49455.9 91010 49486.6 90948.6 49512 90885.2 49532 90820.3 49546.4 90754.4 49555.1 90688 49558 89979.6 49588.9 89276.6 49681.5 88584.3 49835 87908.1 50048.2 87253 50319.5 86624 50646.9 86026 51027.9 85463.4 51459.6 84940.6 51938.6 84461.6 52461.4 84029.9 53024 83648.9 53622 83321.5 54251 83050.2 54906.1 82837 55582.3 82683.5 56274.6 82590.9 56977.6 82560 57686 82557.1 57752.4 82548.4 57818.3 82534 57883.2 82514 57946.6 82488.6 58008 82457.9 58067 82422.2 58123.1 82381.7 58175.8 82336.8 58224.8 82287.8 58269.7 82235.1 58310.2 82179 58345.9 82120 58376.6 82058.6 58402 81995.2 58422 81930.3 58436.4 81864.4 58445.1 81798 58448 12202 58448 12135.6 58445.1 12069.7 58436.4 12004.8 58422 11941.4 58402 11880 58376.6 11821 58345.9 11764.9 58310.2 11712.2 58269.7 11663.2 58224.8 11618.3 58175.8 11577.8 58123.1 11542.1 58067 11511.4 58008 11486 57946.6 11466 57883.2 11451.6 57818.3 11442.9 57752.4 11440 57686 11409.1 56977.6 11316.5 56274.6 11163 55582.3 10949.8 54906.1 10678.5 54251 10351.1 53622 9970.1 53024 9538.4 52461.4 9059.4 51938.6 8536.6 51459.6 7974 51027.9 7376 50646.9 6747 50319.5 6091.9 50048.2 5415.7 49835 4723.4 49681.5 4020.4 49588.9 3312 49558 3245.6 49555.1 3179.7 49546.4 3114.8 49532 3051.4 49512 2990 49486.6 2931 49455.9 2874.9 49420.2 2822.2 49379.7 2773.2 49334.8 2728.3 49285.8 2687.8 49233.1 2652.1 49177 2621.4 49118 2596 49056.6 2576 48993.2 2561.6 48928.3 2552.9 48862.4 2550 48796 2550 11204 M 85304.7 29896.7 85315.8 29795.8 85335.4 29697.8 85355.4 29600.3 85384.7 29506.1 85422.6 29416.3 85460.8 29326.6 85507.3 29241.5 85561.1 29161.5 85614.8 29081.8 85676.8 29007.4 85744.3 28939.5 85812.2 28871.3 85886.6 28810.1 85966.2 28756.4 86046.1 28702.3 86131.6 28656 86221.5 28617.9 86311.4 28579.8 86405.5 28550.6 86503 28530.2 86600.8 28510.4 86702.1 28500.1 87109.3 28500.1 87209.9 28510.4 87307.7 28530.2 87405.2 28550.6 87499.3 28579.8 87589.2 28617.9 87678.8 28656 87764.2 28702.3 87843.8 28756.4 87923.7 28810.1 87998.1 28871.3 88066 28939.5 88133.5 29007.4 88195.2 29081.8 88248.9 29161.5 88303 29241.5 88349.5 29326.6 88387.4 29416.3 88425.7 29506.1 88454.9 29600.3 88475.3 29697.8 88494.9 29795.8 88505.2 29896.7 88505.2 30103.8 88494.9 30204.7 88475.3 30302.4 88454.9 30399.9 88425.7 30494.1 88387.4 30583.9 88349.5 30673.6 88303 30758.7 88248.9 30838.6 88195.2 30918.4 88133.5 30992.8 88066 31060.7 87998.1 31128.4 87923.7 31189.5 87843.8 31243.8 87764.2 31297.9 87678.8 31344.2 87589.2 31382.3 87499.3 31420.3 87405.2 31449.6 87307.7 31469.9 87209.9 31489.7 87109.3 31500.1 86702.1 31500.1 86600.8 31489.7 86503 31469.9 86405.5 31449.6 86311.4 31420.3 86221.5 31382.3 86131.6 31344.2 86046.1 31297.9 85966.2 31243.8 85886.6 31189.5 85812.2 31128.4 85744.3 31060.7 85676.8 30992.8 85614.8 30918.4 85561.1 30838.6 85507.3 30758.7 85460.8 30673.6 85422.6 30583.9 85384.7 30494.1 85355.4 30399.9 85335.4 30302.4 85315.8 30204.7 85304.7 30103.8 85304.7 29896.7 M 80679 49911.2 80689.4 49810.6 80709.7 49712.8 80729.7 49615.1 80758.9 49521.2 80796.8 49431.6 80835.1 49342.2 80880.9 49256.8 80935.3 49176.9 80989.1 49096.8 81050.4 49022.4 81118.6 48955 81186.8 48887.5 81260.9 48825.5 81340.5 48771.7 81420.4 48718 81505.2 48671 81595.8 48633.2 81685 48595.3 81779.7 48565.7 81877.2 48545.7 81974.4 48525.8 82075.7 48515.4 82282.4 48515.4 82383.7 48525.8 82480.8 48545.7 82578.3 48565.7 82673 48595.3 82762.3 48633.2 82852.9 48671 82937.6 48718 83017.5 48771.7 83097.1 48825.5 83171.2 48887.5 83239.4 48955 83307.6 49022.4 83368.9 49096.8 83422.7 49176.9 83477.1 49256.8 83522.9 49342.2 83561.2 49431.6 83599.1 49521.2 83628.4 49615.1 83648.3 49712.8 83668.7 49810.6 83679 49911.2 83679 50117.7 83668.7 50219 83648.3 50317 83628.4 50414.2 83599.1 50509.3 83561.2 50598.8 83522.9 50688.2 83477.1 50773.9 83422.7 50853.6 83368.9 50933.7 83307.6 51008.1 83239.4 51075.5 83171.2 51143 83097.1 51205 83017.5 51258.7 82937.6 51312.5 82852.9 51359.5 82762.3 51397.2 82673 51435.1 82578.3 51464.9 82480.8 51484.7 82383.7 51504.7 82282.4 51515.1 82075.7 51515.1 81974.4 51504.7 81877.2 51484.7 81779.7 51464.9 81685 51435.1 81595.8 51397.2 81505.2 51359.5 81420.4 51312.5 81340.5 51258.7 81260.9 51205 81186.8 51143 81118.6 51075.5 81050.4 51008.1 80989.1 50933.7 80935.3 50853.6 80880.9 50773.9 80835.1 50688.2 80796.8 50598.8 80758.9 50509.3 80729.7 50414.2 80709.7 50317 80689.4 50219 80679 50117.7 80679 49911.2 M 80679 9882.4 80689.4 9781.2 80709.7 9683.1 80729.7 9586 80758.9 9491.8 80796.8 9402 80835.1 9311.9 80880.9 9227.2 80935.3 9147.1 80989.1 9067.3 81050.4 8992.9 81118.6 8924.7 81186.8 8857.2 81260.9 8795.7 81340.5 8741.4 81420.4 8687.7 81505.2 8640.7 81595.8 8602.9 81685 8565 81779.7 8535.2 81877.2 8515.4 81974.4 8495.4 82075.7 8485.1 82282.4 8485.1 82383.7 8495.4 82480.8 8515.4 82578.3 8535.2 82673 8565 82762.3 8602.9 82852.9 8640.7 82937.6 8687.7 83017.5 8741.4 83097.1 8795.7 83171.2 8857.2 83239.4 8924.7 83307.6 8992.9 83368.9 9067.3 83422.7 9147.1 83477.1 9227.2 83522.9 9311.9 83561.2 9402 83599.1 9491.8 83628.4 9586 83648.3 9683.1 83668.7 9781.2 83679 9882.4 83679 10089 83668.7 10190.3 83648.3 10287.4 83628.4 10385.1 83599.1 10479.6 83561.2 10569 83522.9 10658.8 83477.1 10744.2 83422.7 10824 83368.9 10903.4 83307.6 10977.8 83239.4 11046 83171.2 11113.4 83097.1 11174.7 83017.5 11228.4 82937.6 11282.2 82852.9 11329.2 82762.3 11366.9 82673 11404.8 82578.3 11434.6 82480.8 11454.4 82383.7 11474.4 82282.4 11484.8 82075.7 11484.8 81974.4 11474.4 81877.2 11454.4 81779.7 11434.6 81685 11404.8 81595.8 11366.9 81505.2 11329.2 81420.4 11282.2 81340.5 11228.4 81260.9 11174.7 81186.8 11113.4 81118.6 11046 81050.4 10977.8 80989.1 10903.4 80935.3 10824 80880.9 10744.2 80835.1 10658.8 80796.8 10569 80758.9 10479.6 80729.7 10385.1 80709.7 10287.4 80689.4 10190.3 80679 10089 80679 9882.4 M 67204 7585.2 67214.7 7484 67234.5 7386.5 67254.3 7288.6 67284.1 7194.9 67321.9 7104.7 67359.8 7015.1 67406.1 6929.6 67460.3 6849.7 67514.1 6769.8 67575.1 6695.4 67643.3 6627.9 67666.9 6604.4 67691 6582 67715.8 6560.3 67719.4 6557.6 68518.9 5857.5 68519.5 5856.5 68565.7 5816.2 68614.6 5778.3 68665.8 5743.8 68745.5 5690.1 68830.8 5643.6 68920.6 5605.3 69010.1 5567.5 69104.5 5538.2 69201.7 5518.5 69299.9 5498.5 69400.8 5487.5 69607.5 5487.5 69708.8 5498.5 69806.3 5518.5 69904.5 5538.2 69998.5 5567.5 70088.4 5605.3 70178 5643.6 70262.8 5690.1 70342.7 5743.8 70422.3 5797.6 70496.7 5859.6 70564.6 5927.1 70632.4 5995 70694.1 6069.4 70748.2 6149 70801.9 6228.9 70848.8 6314.3 70886.7 6404.3 70924.2 6494.2 70954.2 6588.2 70973.8 6685.7 70993.8 6783.6 71004.5 6884.9 71004.5 7091.6 70993.8 7192.8 70973.8 7290.3 70954.2 7387.8 70924.2 7482.2 70886.7 7571.8 70848.8 7661.2 70801.9 7746.8 70748.2 7826.6 70694.1 7906 70632.4 7980.4 70564.6 8048.3 70541.1 8071.7 70517 8094.1 70492.2 8115.8 70491.9 8116 69691.2 8816.5 69691.9 8816.4 69644.7 8857.9 69594.4 8896.4 69542.4 8931.8 69462.5 8985.9 69377.7 9032.2 69288.1 9070.3 69198.2 9108.3 69104.2 9137.6 69006 9157.9 68908.5 9177.7 68807 9188.1 68600.3 9188.1 68499.4 9177.7 68401.2 9157.9 68304.1 9137.6 68209.7 9108.3 68120.1 9070.3 68030.3 9032.2 67945.1 8985.9 67865.3 8931.8 67785.6 8878 67711.5 8816.4 67643.3 8748.7 67575.1 8680.8 67514.1 8606.4 67460.3 8527 67406.1 8447.2 67359.8 8361.6 67321.9 8272.2 67284.1 8182.6 67254.3 8088.2 67234.5 7990.7 67214.7 7893.2 67204 7792 67204 7585.2 M 10321 9882.3 10331.3 9781 10351.1 9683.1 10371.1 9586 10400.7 9491.6 10438.8 9402 10476.5 9311.8 10523.6 9227 10577.3 9146.9 10631.6 9067.2 10693.1 8992.7 10760.6 8924.5 10828.8 8857 10903.2 8795.5 10982.4 8741.2 11062.4 8687.5 11147.8 8640.5 11237.2 8602.8 11327 8564.7 11421.2 8535.1 11519.2 8515.1 11617 8495.3 11717.6 8484.9 11925.2 8484.9 12026.5 8495.3 12123.6 8515.1 12221.3 8535.1 12315 8564.7 12405.3 8602.8 12494.8 8640.5 12580.5 8687.5 12660.2 8741.2 12739.6 8795.5 12814 8857 12882.2 8924.5 12949.6 8992.7 13010.9 9067.2 13064.7 9146.9 13118.4 9227 13165.4 9311.8 13203.2 9402 13241.2 9491.6 13270.9 9586 13290.8 9683.1 13310.6 9781 13321 9882.3 13321 10089.1 13310.6 10190.4 13290.8 10287.6 13270.9 10385.2 13241.2 10479.8 13203.2 10569.2 13165.4 10658.8 13118.4 10744.4 13064.7 10824.2 13010.9 10903.6 12949.6 10978 12882.2 11046.2 12814 11113.5 12739.6 11174.9 12660.2 11228.6 12580.5 11282.4 12494.8 11329.4 12405.3 11367.1 12315 11405.2 12221.3 11434.8 12123.6 11454.8 12026.5 11474.6 11925.2 11484.9 11717.6 11484.9 11617 11474.6 11519.2 11454.8 11421.2 11434.8 11327 11405.2 11237.2 11367.1 11147.8 11329.4 11062.4 11282.4 10982.4 11228.6 10903.2 11174.9 10828.8 11113.5 10760.6 11046.2 10693.1 10978 10631.6 10903.6 10577.3 10824.2 10523.6 10744.4 10476.5 10658.8 10438.8 10569.2 10400.7 10479.8 10371.1 10385.2 10351.1 10287.6 10331.3 10190.4 10321 10089.1 10321 9882.3 M 5494.9 29896.7 5505.6 29795.8 5525.4 29697.8 5545.4 29600.3 5574.7 29506.1 5612.7 29416.3 5650.8 29326.6 5697.5 29241.5 5751.2 29161.5 5805 29081.8 5866.7 29007.4 5934.3 28939.5 6002.2 28871.3 6076.6 28810.1 6156.4 28756.4 6236.1 28702.3 6321.7 28656 6411.5 28617.9 6501.2 28579.8 6595.5 28550.6 6693.1 28530.2 6790.6 28510.4 6891.9 28500.1 7299.3 28500.1 7399.9 28510.4 7497.7 28530.2 7595.2 28550.6 7689.3 28579.8 7779.2 28617.9 7868.8 28656 7954.2 28702.3 8033.8 28756.4 8113.7 28810.1 8188.1 28871.3 8256 28939.5 8323.5 29007.4 8385.2 29081.8 8438.9 29161.5 8493 29241.5 8539.5 29326.6 8577.4 29416.3 8615.7 29506.1 8645 29600.3 8665.3 29697.8 8684.9 29795.8 8695.2 29896.7 8695.2 30103.8 8684.9 30204.7 8665.3 30302.4 8645 30399.9 8615.7 30494.1 8577.4 30583.9 8539.5 30673.6 8493 30758.7 8438.9 30838.6 8385.2 30918.4 8323.5 30992.8 8256 31060.7 8188.1 31128.4 8113.7 31189.5 8033.8 31243.8 7954.2 31297.9 7868.8 31344.2 7779.2 31382.3 7689.3 31420.3 7595.2 31449.6 7497.7 31469.9 7399.9 31489.7 7299.3 31500.1 6891.9 31500.1 6790.6 31489.7 6693.1 31469.9 6595.5 31449.6 6501.2 31420.3 6411.5 31382.3 6321.7 31344.2 6236.1 31297.9 6156.4 31243.8 6076.6 31189.5 6002.2 31128.4 5934.3 31060.7 5866.7 30992.8 5805 30918.4 5751.2 30838.6 5697.5 30758.7 5650.8 30673.6 5574.7 30494.1 5545.4 30399.9 5525.4 30302.4 5505.6 30204.7 5494.9 30103.8 5494.9 29896.7 M 10321 49911 10331.3 49810.6 10351.1 49712.6 10371.1 49614.9 10400.7 49521.2 10438.8 49431.5 10476.5 49342.1 10523.6 49256.6 10577.3 49176.7 10631.6 49096.6 10693.1 49022.2 10760.6 48954.8 10828.8 48887.3 10903.2 48825.3 10982.4 48771.6 11062.4 48717.8 11147.8 48670.8 11237.2 48633.1 11327 48595 11421.2 48565.4 11519.2 48545.4 11617 48525.6 11717.6 48515.2 11925.2 48515.2 12026.5 48525.6 12123.6 48545.4 12221.3 48565.4 12315 48595 12405.3 48633.1 12494.8 48670.8 12580.5 48717.8 12660.2 48771.6 12739.6 48825.3 12814 48887.3 12882.2 48954.8 12949.6 49022.2 13010.9 49096.6 13064.7 49176.7 13118.4 49256.6 13165.4 49342.1 13203.2 49431.5 13241.2 49521.2 13270.9 49614.9 13290.8 49712.6 13310.6 49810.6 13321 49911 13321 50117.7 13310.6 50219.2 13290.8 50317 13270.9 50414.2 13241.2 50509.3 13203.2 50599 13165.4 50688.4 13118.4 50773.9 13064.7 50853.8 13010.9 50933.9 12949.6 51008.3 12882.2 51075.6 12814 51143.2 12739.6 51205.2 12660.2 51258.9 12580.5 51312.7 12494.8 51359.7 12405.3 51397.4 12315 51435.5 12221.3 51465.1 12123.6 51485.1 12026.5 51504.9 11925.2 51515.2 11717.6 51515.2 11617 51504.9 11519.2 51485.1 11421.2 51465.1 11327 51435.5 11237.2 51397.4 11147.8 51359.7 11062.4 51312.7 10982.4 51258.9 10903.2 51205.2 10828.8 51143.2 10760.6 51075.6 10693.1 51008.3 10631.6 50933.9 10577.3 50853.8 10523.6 50773.9 10476.5 50688.4 10438.8 50599 10400.7 50509.3 10371.1 50414.2 10351.1 50317 10331.3 50219.2 10321 50117.7 10321 49911 M 22995.8 6883.8 23006.5 6782.5 23046.1 6587.5 23075.9 6493.1 23113.7 6403.6 23151.6 6314.3 23197.9 6228.6 23252.2 6149 23305.9 6069.4 23366.9 5995 23435.1 5927.1 23503.3 5859.6 23577.4 5797.6 23657.1 5743.8 23736.9 5690.1 23822.2 5643.6 23911.9 5605.3 24001.5 5567.5 24095.9 5538.2 24193 5517.8 24291.2 5497.9 24392.1 5487.5 24598.9 5487.5 24700.3 5497.9 24797.8 5517.8 24896 5538.2 24990 5567.5 25080 5605.3 25169.5 5643.6 25254.3 5690.1 25334.2 5743.8 25386.2 5779.3 25436.5 5817.9 25483.7 5859.6 25483 5859.3 26283.7 6559.6 26284 6560 26308.8 6581.7 26332.9 6604.1 26356.4 6627.5 26424.2 6695.4 26485.9 6769.8 26540 6849 26593.7 6929 26640.6 7014.4 26678.5 7104 26716 7193.5 26746 7287.9 26765.6 7385.4 26785.6 7482.9 26796.3 7584.2 26796.3 7790.9 26785.6 7892.2 26765.6 7990 26746 8087.5 26716 8181.6 26678.5 8271.5 26640.6 8361.4 26593.7 8446.9 26540 8526.8 26485.9 8606.4 26424.2 8680.8 26356.4 8748.7 26288.5 8816.2 26214.1 8878.2 26134.5 8931.9 26054.6 8985.7 25969.8 9032.2 25880.3 9070.4 25790.3 9108.3 25696.3 9137.6 25598.1 9157.2 25500.6 9177.2 25399.3 9188.2 25192.6 9188.2 25091.7 9177.2 24993.5 9157.2 24896.3 9137.6 24801.9 9108.3 24712.4 9070.4 24622.6 9032.2 24537.4 8985.7 24457.6 8931.9 24406.4 8897.5 24357.5 8859.6 24311.4 8819.3 24310.7 8818.2 23511.2 8118.2 23507.6 8115.4 23482.8 8093.7 23458.7 8071.3 23435.1 8047.9 23366.9 7980.4 23305.9 7906 23252.2 7826.1 23197.9 7746.1 23151.6 7660.7 23113.7 7571.1 23075.9 7480.9 23046.1 7387.2 23026.3 7289.3 23006.5 7191.8 22995.8 7090.5 22995.8 6883.8 M 67203.9 52209.4 67214.5 52108.1 67234.5 52010.3 67254.2 51912.8 67284.1 51818.8 67321.7 51728.8 67359.6 51638.9 67406.4 51553.5 67460.2 51473.6 67514.3 51394 67575.9 51319.6 67643.8 51251.7 67711.7 51184.2 67786.1 51122.2 67865.7 51068.4 67945.6 51014.7 68030.3 50968.2 68119.9 50929.9 68209.8 50892 68303.9 50862.7 68402.1 50843.1 68499.6 50823.1 68600.8 50812.1 68807.6 50812.1 68908.5 50823.1 69006.7 50843.1 69103.8 50862.7 69198.2 50892 69287.8 50929.9 69377.4 50968.2 69462.8 51014.7 69542.7 51068.4 69593.7 51102.9 69642.6 51140.8 69688.8 51181.1 69689.5 51182.1 70488.8 51882.1 70492.6 51884.9 70517.4 51906.6 70541.5 51929 70565.2 51952.4 70633.5 52019.9 70694.1 52094.4 70747.8 52174.3 70802.3 52254.2 70848.4 52339.6 70886.3 52429.2 70924.2 52519.5 70953.8 52613.2 70973.8 52711 70993.8 52808.5 71004.1 52909.8 71004.1 53116.5 70993.8 53217.8 70973.8 53315.3 70953.8 53412.8 70924.2 53507.2 70886.3 53596.8 70848.4 53686.2 70802.3 53771.8 70747.8 53851.5 70694.1 53930.9 70633.5 54005.4 70565.2 54073.2 70497 54140.9 70422.6 54202.6 70343 54256.3 70263.5 54310.4 70178 54356.8 70088.4 54394.8 69998.9 54432.9 69904.5 54462.2 69807.3 54482.5 69708.8 54502.3 69608.2 54512.6 69401.5 54512.6 69299.9 54502.3 69202.4 54482.5 69104.2 54462.2 69010.1 54432.9 68920.2 54394.8 68830.6 54356.8 68745.9 54310.4 68666 54256.3 68613.9 54221 68563.6 54182.4 68516.4 54140.9 68517.1 54141.1 67716.5 53440.5 67716.1 53440.4 67691.3 53418.7 67667.2 53396.3 67643.8 53372.8 67575.9 53305 67514.3 53230.6 67460.2 53151.1 67406.4 53071.4 67359.6 52985.8 67321.7 52896.4 67284.1 52806.8 67254.2 52712.4 67234.5 52614.9 67214.5 52517.4 67203.9 52416.1 67203.9 52209.4 M 22995.7 52909.5 23006.4 52808.2 23026.2 52710.7 23046 52612.8 23075.8 52519.1 23113.5 52428.9 23151.4 52339.3 23197.7 52253.9 23252 52173.9 23305.7 52094 23366.7 52019.6 23434.9 51952.1 23458.5 51928.6 23482.6 51906.3 23507.4 51884.6 23511.1 51881.8 24310.5 51181.8 24311.2 51180.7 24357.4 51140.4 24406.3 51102.5 24457.4 51068.1 24537.2 51014.3 24622.5 50967.8 24712.2 50929.6 24801.8 50891.7 24896.2 50862.4 24993.3 50842.8 25091.5 50822.8 25192.4 50811.7 25399.2 50811.7 25500.4 50822.8 25597.9 50842.8 25696.1 50862.4 25790.2 50891.7 25880.1 50929.6 25969.7 50967.8 26054.4 51014.3 26134.3 51068.1 26213.9 51121.8 26288.3 51183.8 26356.2 51251.3 26424.1 51319.2 26485.7 51393.6 26539.8 51473.2 26593.6 51553.1 26640.4 51638.6 26678.3 51728.5 26715.9 51818.4 26745.8 51912.5 26765.5 52010 26785.5 52107.8 26796.1 52209.1 26796.1 52415.8 26785.5 52517.1 26765.5 52614.6 26745.8 52712.1 26715.9 52806.5 26678.3 52896 26640.4 52985.4 26593.6 53071 26539.8 53150.8 26485.7 53230.2 26424.1 53304.6 26332.8 53395.9 26308.7 53418.3 26283.9 53440 26283.5 53440.2 25482.9 54140.7 25483.6 54140.6 25436.4 54182.1 25386.1 54220.7 25334 54256 25254.1 54310.1 25169.4 54356.4 25079.8 54394.5 24989.9 54432.5 24895.8 54461.8 24797.6 54482.2 24700.1 54502 24598.7 54512.3 24392 54512.3 24291 54502 24192.8 54482.2 24095.7 54461.8 24001.3 54432.5 23911.7 54394.5 23822 54356.4 23736.7 54310.1 23657 54256 23577.2 54202.2 23503.1 54140.6 23434.9 54072.9 23366.7 54005 23305.7 53930.6 23252 53851.2 23197.7 53771.4 23151.4 53685.8 23113.5 53596.4 23075.8 53506.8 23046 53412.5 23026.2 53315 23006.4 53217.5 22995.7 53116.2 22995.7 52909.5" fill="none" stroke-width="254"/></clipPath><mask id="EguF-McsiPsJSY_Py38u_top_mech-mask"><g fill="#000" stroke="#000"><rect x="2550" y="1552" width="88900" height="56896" fill="#fff"/></g></mask></defs><g transform="translate(0,60000) scale(1,-1)"><g mask="url(#EguF-McsiPsJSY_Py38u_top_mech-mask)" clip-path="url(#EguF-McsiPsJSY_Py38u_top_outline)"><rect x="2550" y="1552" width="88900" height="56896" fill="currentColor" class="EguF-McsiPsJSY_Py38u_fr4"/></g></g></svg>