M48
;GenerationSoftware,Autodesk,EAGLE,9.6.1*%
;CreationDate,2020-06-06T06:45:38Z*%
FMAT,2
ICI,OFF
METRIC,TZ,000.000
T2C1.000
T1C2.000
%
G90
M71
T1
X13525Y50800
X85535Y50800
T2
X35560Y12700
X38100Y12700
X40640Y12700
X43180Y12700
X45720Y12700
X48260Y12700
X50800Y12700
X53340Y12700
X55880Y12700
X58420Y12700
X60960Y12700
X63500Y12700
X66040Y12700
X68580Y12700
X68580Y15240
X66040Y15240
X63500Y15240
X60960Y15240
X58420Y15240
X55880Y15240
X53340Y15240
X50800Y15240
X48260Y15240
X45720Y15240
X43180Y15240
X40640Y15240
X38100Y15240
X35560Y15240
X33020Y15240
X30480Y15240
X30480Y17780
X33020Y17780
X35560Y17780
X38100Y17780
X40640Y17780
X43180Y17780
X45720Y17780
X48260Y17780
X50800Y17780
X53340Y17780
X55880Y17780
X58420Y17780
X60960Y17780
X63500Y17780
X66040Y17780
X68580Y17780
X81280Y20320
X78740Y20320
X76200Y20320
X73660Y20320
X71120Y20320
X68580Y20320
X66040Y20320
X63500Y20320
X60960Y20320
X58420Y20320
X55880Y20320
X53340Y20320
X50800Y20320
X48260Y20320
X45720Y20320
X43180Y20320
X40640Y20320
X38100Y20320
X35560Y20320
X33020Y20320
X30480Y20320
X27940Y20320
X25400Y20320
X22860Y20320
X20320Y20320
X17780Y20320
X7620Y22860
X10160Y22860
X12700Y22860
X15240Y22860
X17780Y22860
X20320Y22860
X22860Y22860
X25400Y22860
X27940Y22860
X30480Y22860
X33020Y22860
X35560Y22860
X38100Y22860
X40640Y22860
X43180Y22860
X45720Y22860
X48260Y22860
X50800Y22860
X53340Y22860
X55880Y22860
X58420Y22860
X60960Y22860
X63500Y22860
X66040Y22860
X68580Y22860
X71120Y22860
X73660Y22860
X76200Y22860
X78740Y22860
X81280Y22860
X83820Y22860
X86360Y22860
X88900Y22860
X91440Y22860
X91440Y25400
X88900Y25400
X86360Y25400
X83820Y25400
X81280Y25400
X78740Y25400
X76200Y25400
X73660Y25400
X71120Y25400
X68580Y25400
X66040Y25400
X63500Y25400
X60960Y25400
X58420Y25400
X55880Y25400
X53340Y25400
X50800Y25400
X48260Y25400
X45720Y25400
X43180Y25400
X40640Y25400
X38100Y25400
X35560Y25400
X33020Y25400
X30480Y25400
X27940Y25400
X25400Y25400
X22860Y25400
X20320Y25400
X17780Y25400
X15240Y25400
X12700Y25400
X10160Y25400
X7620Y25400
X7620Y27940
X10160Y27940
X12700Y27940
X15240Y27940
X17780Y27940
X20320Y27940
X22860Y27940
X25400Y27940
X27940Y27940
X30480Y27940
X33020Y27940
X35560Y27940
X38100Y27940
X40640Y27940
X43180Y27940
X45720Y27940
X48260Y27940
X50800Y27940
X53340Y27940
X55880Y27940
X58420Y27940
X60960Y27940
X63500Y27940
X66040Y27940
X68580Y27940
X71120Y27940
X73660Y27940
X76200Y27940
X78740Y27940
X81280Y27940
X83820Y27940
X86360Y27940
X88900Y27940
X91440Y27940
X91440Y30480
X88900Y30480
X86360Y30480
X83820Y30480
X81280Y30480
X78740Y30480
X76200Y30480
X73660Y30480
X71120Y30480
X68580Y30480
X66040Y30480
X63500Y30480
X60960Y30480
X58420Y30480
X55880Y30480
X53340Y30480
X50800Y30480
X48260Y30480
X45720Y30480
X43180Y30480
X40640Y30480
X38100Y30480
X35560Y30480
X33020Y30480
X30480Y30480
X27940Y30480
X25400Y30480
X22860Y30480
X20320Y30480
X17780Y30480
X15240Y30480
X12700Y30480
X10160Y30480
X7620Y30480
X7620Y33020
X10160Y33020
X12700Y33020
X15240Y33020
X17780Y33020
X20320Y33020
X22860Y33020
X25400Y33020
X27940Y33020
X30480Y33020
X33020Y33020
X35560Y33020
X38100Y33020
X40640Y33020
X43180Y33020
X45720Y33020
X48260Y33020
X50800Y33020
X53340Y33020
X55880Y33020
X58420Y33020
X60960Y33020
X63500Y33020
X66040Y33020
X68580Y33020
X71120Y33020
X73660Y33020
X76200Y33020
X78740Y33020
X81280Y33020
X83820Y33020
X86360Y33020
X88900Y33020
X91440Y33020
X91440Y35560
X88900Y35560
X86360Y35560
X83820Y35560
X73660Y35560
X71120Y35560
X68580Y35560
X66040Y35560
X63500Y35560
X60960Y35560
X58420Y35560
X55880Y35560
X53340Y35560
X50800Y35560
X48260Y35560
X45720Y35560
X43180Y35560
X40640Y35560
X38100Y35560
X35560Y35560
X33020Y35560
X30480Y35560
X27940Y35560
X25400Y35560
X15240Y35560
X12700Y35560
X10160Y35560
X7620Y35560
X15240Y38100
X25400Y38100
X27940Y38100
X30480Y38100
X33020Y38100
X35560Y38100
X38100Y38100
X40640Y38100
X43180Y38100
X45720Y38100
X48260Y38100
X50800Y38100
X53340Y38100
X55880Y38100
X58420Y38100
X60960Y38100
X63500Y38100
X66040Y38100
X68580Y38100
X71120Y38100
X73660Y38100
X83820Y38100
X83820Y40640
X81280Y40640
X78740Y40640
X76200Y40640
X73660Y40640
X71120Y40640
X68580Y40640
X66040Y40640
X63500Y40640
X60960Y40640
X58420Y40640
X55880Y40640
X53340Y40640
X50800Y40640
X48260Y40640
X45720Y40640
X43180Y40640
X40640Y40640
X38100Y40640
X35560Y40640
X33020Y40640
X30480Y40640
X27940Y40640
X25400Y40640
X22860Y40640
X20320Y40640
X17780Y40640
X15240Y40640
X7620Y43180
X10160Y43180
X12700Y43180
X15240Y43180
X17780Y43180
X20320Y43180
X22860Y43180
X25400Y43180
X27940Y43180
X30480Y43180
X33020Y43180
X35560Y43180
X38100Y43180
X40640Y43180
X43180Y43180
X45720Y43180
X48260Y43180
X50800Y43180
X53340Y43180
X55880Y43180
X58420Y43180
X60960Y43180
X63500Y43180
X66040Y43180
X68580Y43180
X71120Y43180
X73660Y43180
X76200Y43180
X78740Y43180
X81280Y43180
X83820Y43180
X86360Y43180
X88900Y43180
X91440Y43180
X91440Y45720
X88900Y45720
X86360Y45720
X83820Y45720
X81280Y45720
X78740Y45720
X76200Y45720
X73660Y45720
X71120Y45720
X68580Y45720
X66040Y45720
X63500Y45720
X60960Y45720
X58420Y45720
X55880Y45720
X53340Y45720
X50800Y45720
X48260Y45720
X45720Y45720
X43180Y45720
X40640Y45720
X38100Y45720
X35560Y45720
X33020Y45720
X30480Y45720
X27940Y45720
X25400Y45720
X22860Y45720
X20320Y45720
X17780Y45720
X15240Y45720
X12700Y45720
X10160Y45720
X7620Y45720
X7620Y48260
X10160Y48260
X15240Y48260
X17780Y48260
X20320Y48260
X22860Y48260
X25400Y48260
X27940Y48260
X30480Y48260
X33020Y48260
X35560Y48260
X38100Y48260
X40640Y48260
X43180Y48260
X45720Y48260
X48260Y48260
X50800Y48260
X53340Y48260
X55880Y48260
X58420Y48260
X63500Y48260
X66040Y48260
X68580Y48260
X71120Y48260
X73660Y48260
X76200Y48260
X78740Y48260
X83820Y48260
X88900Y48260
X91440Y48260
X91440Y50800
X88900Y50800
X33020Y12700
X81280Y50800
X78740Y50800
X76200Y50800
X73660Y50800
X71120Y50800
X68580Y50800
X66040Y50800
X63500Y50800
X60960Y50800
X58420Y50800
X55880Y50800
X53340Y50800
X50800Y50800
X48260Y50800
X45720Y50800
X43180Y50800
X40640Y50800
X38100Y50800
X35560Y50800
X33020Y50800
X30480Y50800
X27940Y50800
X25400Y50800
X22860Y50800
X20320Y50800
X17780Y50800
X30480Y12700
X10160Y50800
X7620Y50800
X7620Y53340
X10160Y53340
X15240Y53340
X17780Y53340
X20320Y53340
X22860Y53340
X25400Y53340
X27940Y53340
X30480Y53340
X33020Y53340
X35560Y53340
X38100Y53340
X40640Y53340
X43180Y53340
X45720Y53340
X48260Y53340
X50800Y53340
X53340Y53340
X55880Y53340
X58420Y53340
X60960Y53340
X63500Y53340
X66040Y53340
X68580Y53340
X71120Y53340
X73660Y53340
X76200Y53340
X78740Y53340
X81280Y53340
X83820Y53340
X88900Y53340
X91440Y53340
X91440Y55880
X88900Y55880
X86360Y55880
X83820Y55880
X81280Y55880
X78740Y55880
X76200Y55880
X73660Y55880
X71120Y55880
X68580Y55880
X66040Y55880
X63500Y55880
X60960Y55880
X58420Y55880
X55880Y55880
X53340Y55880
X50800Y55880
X48260Y55880
X45720Y55880
X43180Y55880
X40640Y55880
X38100Y55880
X35560Y55880
X33020Y55880
X30480Y55880
X27940Y55880
X25400Y55880
X22860Y55880
X20320Y55880
X17780Y55880
X15240Y55880
X12700Y55880
X10160Y55880
X7620Y55880
X17780Y58420
X21590Y58420
X25400Y58420
X27940Y58420
X30480Y58420
X33020Y58420
X35560Y58420
X38100Y58420
X40640Y58420
X43180Y58420
X45720Y58420
X48260Y58420
X50800Y58420
X53340Y58420
X55880Y58420
X58420Y58420
X60960Y58420
X63500Y58420
X66040Y58420
X68580Y58420
X71120Y58420
X73660Y58420
X77470Y58420
X81280Y58420
X68580Y60960
X66040Y60960
X63500Y60960
X60960Y60960
X58420Y60960
X55880Y60960
X53340Y60960
X50800Y60960
X48260Y60960
X45720Y60960
X43180Y60960
X40640Y60960
X38100Y60960
X35560Y60960
X33020Y60960
X30480Y60960
X30480Y63500
X33020Y63500
X35560Y63500
X38100Y63500
X40640Y63500
X43180Y63500
X45720Y63500
X48260Y63500
X50800Y63500
X53340Y63500
X55880Y63500
X58420Y63500
X60960Y63500
X63500Y63500
X66040Y63500
X68580Y63500
X68580Y66040
X66040Y66040
X63500Y66040
X60960Y66040
X58420Y66040
X55880Y66040
X53340Y66040
X50800Y66040
X48260Y66040
X45720Y66040
X43180Y66040
X40640Y66040
X38100Y66040
X35560Y66040
X33020Y66040
X30480Y66040
X60960Y48260
X81280Y48260
X22860Y17780
X20320Y17780
X17780Y17780
X81280Y17780
X78740Y17780
X76200Y17780
M30