<?xml version="1.0" encoding="UTF-8" standalone="no"?>
<svg xmlns="http://www.w3.org/2000/svg" xmlns:svg="http://www.w3.org/2000/svg" xmlns:rdf="http://www.w3.org/1999/02/22-rdf-syntax-ns#" xmlns:cc="http://creativecommons.org/ns#" xmlns:dc="http://purl.org/dc/elements/1.1/" id="svg2" y="0in" version="1.2" height="2.2223697in" width="3.5in" x="0in" viewBox="0 0 3499.9998 2222.3695" xml:space="preserve">
  <defs id="defs22"/>
  <path id="rect1" style="fill:#cccccc;stroke-width:0" d="m 344.26228,0 h 2780.96102 c 30.582,244.36729 150.528,335.80962 374.7765,370.60357 v 1489.50813 c -216.8228,16.5314 -367.0879,167.0174 -374.7765,362.2578 h -2765.31273 c 3.04402,-182.6352 -120.7881,-317.5439 -359.91057,-362.2578 v -1489.50813 c 214.16641,-24.30892 348.31905,-145.17861 344.26228,-370.60357 z"/>
  <path id="path1" style="fill:#999999;stroke-width:1.32489" d="m 959.76152,213.02533 c 4.13991,50.53071 -20.15532,93.62641 -73.02534,93.8898 l -88.67362,-67.80924 c -0.84198,-48.5451 29.57362,-90.25668 78.24144,-88.67371 z"/>
  <path id="path2" style="fill:#999999;stroke-width:0" d="m 429.93829,333.96895 a 66.244412,66.244412 0 0 1 -66.24441,66.24441 66.244412,66.244412 0 0 1 -66.24442,-66.24441 66.244412,66.244412 0 0 1 66.24442,-66.24441 66.244412,66.244412 0 0 1 66.24441,66.24441 z"/>
  <path id="circle2" style="fill:#999999;stroke-width:0" d="m 246.17234,1113.2727 a 66.244412,66.244412 0 0 1 -66.24441,66.2444 66.244412,66.244412 0 0 1 -66.24441,-66.2444 66.244412,66.244412 0 0 1 66.24441,-66.2444 66.244412,66.244412 0 0 1 66.24441,66.2444 z"/>
  <path id="circle3" style="fill:#999999;stroke-width:0" d="m 440.14749,1906.1885 a 66.244412,66.244412 0 0 1 -66.24441,66.2444 66.244412,66.244412 0 0 1 -66.24441,-66.2444 66.244412,66.244412 0 0 1 66.24441,-66.2444 66.244412,66.244412 0 0 1 66.24441,66.2444 z"/>
  <path id="path3" style="fill:#999999;stroke-width:1.32489" d="m 866.90609,1934.6331 c 50.53071,-4.1399 93.62641,20.1554 93.88979,73.0253 l -67.80923,88.6737 c -48.5451,0.842 -90.25669,-29.5736 -88.67371,-78.2415 z"/>
  <path id="path4" style="fill:#999999;stroke-width:1.32489" d="m 2702.1349,1992.8325 c 4.1398,50.5307 -20.1554,93.6264 -73.0254,93.8898 l -88.6737,-67.8093 c -0.8419,-48.545 29.5737,-90.2566 78.2414,-88.6737 z"/>
  <path id="path5" style="fill:#999999;stroke-width:1.32489" d="m 2609.2794,148.01983 c 50.5307,-4.13988 93.6264,20.15539 93.8898,73.02532 l -67.8092,88.67371 c -48.5451,0.84196 -90.2567,-29.57363 -88.6737,-78.24154 z"/>
  <path id="circle5" style="fill:#999999;stroke-width:0" d="m 3204.9252,333.96895 a 66.244412,66.244412 0 0 1 -66.2444,66.24441 66.244412,66.244412 0 0 1 -66.2445,-66.24441 66.244412,66.244412 0 0 1 66.2445,-66.24441 66.244412,66.244412 0 0 1 66.2444,66.24441 z"/>
  <path id="circle6" style="fill:#999999;stroke-width:0" d="m 3386.2369,1113.2727 a 66.244412,66.244412 0 0 1 -66.2444,66.2444 66.244412,66.244412 0 0 1 -66.2444,-66.2444 66.244412,66.244412 0 0 1 66.2444,-66.2444 66.244412,66.244412 0 0 1 66.2444,66.2444 z"/>
  <path id="circle7" style="fill:#999999;stroke-width:0" d="m 3204.9252,1906.1885 a 66.244412,66.244412 0 0 1 -66.2444,66.2444 66.244412,66.244412 0 0 1 -66.2445,-66.2444 66.244412,66.244412 0 0 1 66.2445,-66.2444 66.244412,66.244412 0 0 1 66.2444,66.2444 z"/>
</svg>
