G04 EAGLE Gerber RS-274X export*
G75*
%MOMM*%
%FSLAX34Y34*%
%LPD*%
%IN*%
%IPPOS*%
%AMOC8*
5,1,8,0,0,1.08239X$1,22.5*%
G01*
%ADD10C,0.254000*%


D10*
X45301Y198353D02*
X45335Y198019D01*
X45400Y197692D01*
X45466Y197368D01*
X45566Y197051D01*
X45693Y196755D01*
X45817Y196455D01*
X45972Y196173D01*
X46151Y195907D01*
X46334Y195639D01*
X46537Y195394D01*
X46989Y194943D01*
X47237Y194736D01*
X47505Y194557D01*
X47771Y194378D01*
X48053Y194223D01*
X48353Y194099D01*
X48653Y193971D01*
X48966Y193871D01*
X49293Y193806D01*
X49617Y193740D01*
X49955Y193706D01*
X60828Y193706D01*
X66219Y193144D01*
X71428Y192080D01*
X76634Y191012D01*
X81657Y189441D01*
X86442Y187419D01*
X91227Y185393D01*
X95775Y182916D01*
X100033Y180039D01*
X104287Y177166D01*
X108253Y173890D01*
X111874Y170272D01*
X115491Y166652D01*
X118767Y162686D01*
X121640Y158432D01*
X124517Y154174D01*
X126994Y149626D01*
X129016Y144841D01*
X131042Y140056D01*
X132613Y135033D01*
X133678Y129827D01*
X134746Y124618D01*
X135304Y119226D01*
X135304Y108354D01*
X135338Y108020D01*
X135407Y107692D01*
X135472Y107368D01*
X135569Y107051D01*
X135696Y106755D01*
X135824Y106455D01*
X135979Y106170D01*
X136158Y105904D01*
X136337Y105639D01*
X136544Y105391D01*
X136768Y105164D01*
X136995Y104940D01*
X137243Y104733D01*
X137774Y104375D01*
X138060Y104220D01*
X138359Y104096D01*
X138659Y103968D01*
X138973Y103868D01*
X139297Y103803D01*
X139624Y103737D01*
X139958Y103703D01*
X850640Y103703D01*
X850978Y103737D01*
X851633Y103868D01*
X851946Y103968D01*
X852246Y104096D01*
X852545Y104220D01*
X852831Y104375D01*
X853097Y104554D01*
X853362Y104736D01*
X853610Y104940D01*
X853837Y105167D01*
X854065Y105391D01*
X854268Y105639D01*
X854447Y105908D01*
X854626Y106173D01*
X854781Y106455D01*
X854905Y106755D01*
X855033Y107055D01*
X855133Y107368D01*
X855198Y107696D01*
X855264Y108020D01*
X855298Y108357D01*
X855298Y119226D01*
X855856Y124618D01*
X856924Y129827D01*
X857989Y135036D01*
X859563Y140059D01*
X861585Y144844D01*
X863608Y149629D01*
X866088Y154177D01*
X868961Y158435D01*
X871838Y162690D01*
X875114Y166655D01*
X878732Y170272D01*
X882349Y173893D01*
X886314Y177166D01*
X890572Y180043D01*
X894827Y182916D01*
X899375Y185393D01*
X904160Y187419D01*
X908945Y189441D01*
X913972Y191012D01*
X919177Y192080D01*
X924386Y193144D01*
X929778Y193706D01*
X940647Y193706D01*
X940985Y193740D01*
X941312Y193806D01*
X941636Y193871D01*
X941949Y193971D01*
X942249Y194099D01*
X942549Y194223D01*
X942831Y194378D01*
X943100Y194560D01*
X943365Y194740D01*
X943610Y194943D01*
X943837Y195170D01*
X944065Y195398D01*
X944268Y195646D01*
X944447Y195911D01*
X944626Y196176D01*
X944781Y196462D01*
X944905Y196762D01*
X945033Y197058D01*
X945132Y197375D01*
X945198Y197699D01*
X945263Y198026D01*
X945298Y198360D01*
X945298Y589048D01*
X945263Y589386D01*
X945198Y589713D01*
X945132Y590037D01*
X945033Y590350D01*
X944905Y590650D01*
X944781Y590950D01*
X944626Y591232D01*
X944447Y591501D01*
X944268Y591766D01*
X944065Y592011D01*
X943837Y592238D01*
X943610Y592466D01*
X943365Y592669D01*
X943100Y592848D01*
X942831Y593027D01*
X942549Y593182D01*
X942249Y593306D01*
X941949Y593434D01*
X941636Y593534D01*
X941312Y593599D01*
X940985Y593665D01*
X940647Y593699D01*
X929778Y593699D01*
X924386Y594257D01*
X919177Y595325D01*
X913972Y596390D01*
X908945Y597964D01*
X904160Y599986D01*
X899375Y602009D01*
X894827Y604489D01*
X890572Y607362D01*
X886314Y610239D01*
X882349Y613515D01*
X875114Y620750D01*
X871838Y624715D01*
X868961Y628973D01*
X866088Y633228D01*
X863608Y637776D01*
X861585Y642561D01*
X859563Y647346D01*
X857989Y652373D01*
X856924Y657578D01*
X855856Y662787D01*
X855298Y668179D01*
X855298Y679048D01*
X855264Y679386D01*
X855198Y679713D01*
X855133Y680037D01*
X855033Y680350D01*
X854905Y680650D01*
X854781Y680950D01*
X854626Y681232D01*
X854447Y681501D01*
X854268Y681766D01*
X854065Y682011D01*
X853837Y682238D01*
X853610Y682466D01*
X853362Y682669D01*
X853097Y682848D01*
X852831Y683027D01*
X852545Y683182D01*
X852246Y683306D01*
X851946Y683434D01*
X851633Y683533D01*
X851305Y683599D01*
X850978Y683664D01*
X850640Y683699D01*
X139961Y683699D01*
X139624Y683664D01*
X139300Y683599D01*
X138973Y683533D01*
X138659Y683434D01*
X138359Y683306D01*
X138060Y683182D01*
X137777Y683027D01*
X137509Y682848D01*
X137243Y682669D01*
X136995Y682466D01*
X136768Y682238D01*
X136544Y682011D01*
X136337Y681766D01*
X136158Y681501D01*
X135979Y681232D01*
X135824Y680950D01*
X135569Y680350D01*
X135472Y680037D01*
X135407Y679713D01*
X135338Y679386D01*
X135304Y679048D01*
X135304Y668179D01*
X134746Y662787D01*
X133678Y657578D01*
X132613Y652373D01*
X131042Y647346D01*
X129016Y642561D01*
X126994Y637776D01*
X124517Y633228D01*
X121640Y628973D01*
X118767Y624715D01*
X115491Y620750D01*
X111874Y617133D01*
X108253Y613515D01*
X104287Y610239D01*
X100033Y607362D01*
X95775Y604489D01*
X91227Y602009D01*
X86442Y599986D01*
X81657Y597964D01*
X76634Y596390D01*
X71428Y595325D01*
X66219Y594257D01*
X60828Y593699D01*
X49955Y593699D01*
X49617Y593665D01*
X49293Y593599D01*
X48966Y593534D01*
X48653Y593434D01*
X48353Y593306D01*
X48053Y593182D01*
X47771Y593027D01*
X47505Y592848D01*
X47237Y592669D01*
X46989Y592466D01*
X46765Y592238D01*
X46537Y592011D01*
X46334Y591766D01*
X46151Y591501D01*
X45972Y591232D01*
X45817Y590950D01*
X45693Y590650D01*
X45566Y590350D01*
X45466Y590037D01*
X45400Y589713D01*
X45335Y589386D01*
X45301Y589048D01*
X45301Y198353D01*
X190699Y646836D02*
X190785Y645992D01*
X190951Y645179D01*
X191119Y644366D01*
X191364Y643581D01*
X191681Y642833D01*
X191994Y642086D01*
X192384Y641376D01*
X192832Y640711D01*
X193283Y640046D01*
X193793Y639429D01*
X194358Y638861D01*
X194923Y638292D01*
X195543Y637783D01*
X196208Y637335D01*
X196873Y636883D01*
X197586Y636498D01*
X198333Y636181D01*
X199081Y635867D01*
X199867Y635619D01*
X200680Y635454D01*
X201493Y635288D01*
X202337Y635199D01*
X204063Y635199D01*
X204903Y635288D01*
X205716Y635454D01*
X206533Y635619D01*
X207315Y635867D01*
X208066Y636181D01*
X208813Y636498D01*
X209523Y636883D01*
X210188Y637335D01*
X210853Y637783D01*
X211473Y638292D01*
X212038Y638861D01*
X212603Y639429D01*
X213116Y640046D01*
X213564Y640711D01*
X214016Y641376D01*
X214401Y642086D01*
X214718Y642833D01*
X215032Y643581D01*
X215280Y644366D01*
X215445Y645179D01*
X215611Y645992D01*
X215700Y646836D01*
X215700Y648559D01*
X215611Y649403D01*
X215445Y650216D01*
X215280Y651029D01*
X215032Y651814D01*
X214718Y652562D01*
X214401Y653310D01*
X214016Y654019D01*
X213564Y654684D01*
X213116Y655349D01*
X212603Y655966D01*
X212038Y656534D01*
X211473Y657103D01*
X210853Y657613D01*
X210188Y658060D01*
X209523Y658512D01*
X208813Y658898D01*
X208066Y659215D01*
X207315Y659528D01*
X206533Y659776D01*
X205716Y659941D01*
X204903Y660107D01*
X204063Y660196D01*
X202337Y660196D01*
X201493Y660107D01*
X200680Y659941D01*
X199867Y659776D01*
X199081Y659528D01*
X198333Y659215D01*
X197586Y658898D01*
X196873Y658512D01*
X196208Y658060D01*
X195543Y657613D01*
X194923Y657103D01*
X194358Y656534D01*
X193793Y655966D01*
X193283Y655349D01*
X192832Y654684D01*
X192384Y654019D01*
X191994Y653310D01*
X191681Y652562D01*
X191364Y651814D01*
X191119Y651029D01*
X190951Y650216D01*
X190785Y649403D01*
X190699Y648559D01*
X190699Y646836D01*
X774900Y646836D02*
X774986Y645992D01*
X775151Y645179D01*
X775320Y644366D01*
X775565Y643581D01*
X775882Y642833D01*
X776199Y642086D01*
X776585Y641376D01*
X777487Y640046D01*
X777997Y639429D01*
X778562Y638861D01*
X779127Y638292D01*
X779747Y637783D01*
X780412Y637335D01*
X781077Y636883D01*
X781787Y636498D01*
X782534Y636181D01*
X783282Y635867D01*
X784067Y635619D01*
X784880Y635454D01*
X785693Y635288D01*
X786534Y635199D01*
X788263Y635199D01*
X789104Y635288D01*
X789917Y635454D01*
X790730Y635619D01*
X791516Y635867D01*
X792263Y636181D01*
X793011Y636498D01*
X793720Y636883D01*
X794385Y637335D01*
X795050Y637783D01*
X795670Y638292D01*
X796235Y638861D01*
X796800Y639429D01*
X797310Y640046D01*
X798213Y641376D01*
X798599Y642086D01*
X798916Y642833D01*
X799233Y643581D01*
X799477Y644366D01*
X799646Y645179D01*
X799811Y645992D01*
X799897Y646836D01*
X799897Y648559D01*
X799811Y649403D01*
X799646Y650216D01*
X799477Y651029D01*
X799233Y651814D01*
X798916Y652562D01*
X798599Y653310D01*
X798213Y654019D01*
X797310Y655349D01*
X796800Y655966D01*
X796235Y656534D01*
X795670Y657103D01*
X795050Y657613D01*
X794385Y658060D01*
X793720Y658512D01*
X793011Y658898D01*
X792263Y659215D01*
X791516Y659528D01*
X790730Y659776D01*
X789917Y659941D01*
X789104Y660107D01*
X788263Y660196D01*
X786534Y660196D01*
X785693Y660107D01*
X784880Y659941D01*
X784067Y659776D01*
X783282Y659528D01*
X782534Y659215D01*
X781787Y658898D01*
X781077Y658512D01*
X780412Y658060D01*
X779747Y657613D01*
X779127Y657103D01*
X778562Y656534D01*
X777997Y655966D01*
X777487Y655349D01*
X776585Y654019D01*
X776199Y653310D01*
X775882Y652562D01*
X775565Y651814D01*
X775320Y651029D01*
X775151Y650216D01*
X774986Y649403D01*
X774900Y648559D01*
X774900Y646836D01*
X136008Y193036D02*
X136060Y192530D01*
X136160Y192040D01*
X136260Y191555D01*
X136408Y191083D01*
X136597Y190635D01*
X136787Y190183D01*
X137021Y189760D01*
X137290Y189360D01*
X137562Y188960D01*
X137869Y188588D01*
X138206Y188247D01*
X138547Y187910D01*
X138919Y187603D01*
X139316Y187331D01*
X139715Y187062D01*
X140142Y186828D01*
X140590Y186638D01*
X141038Y186449D01*
X141510Y186301D01*
X142488Y186101D01*
X142991Y186049D01*
X144028Y186049D01*
X144535Y186101D01*
X145021Y186201D01*
X145510Y186301D01*
X145978Y186449D01*
X146430Y186638D01*
X146877Y186828D01*
X147305Y187062D01*
X147704Y187331D01*
X148101Y187603D01*
X148473Y187910D01*
X148814Y188247D01*
X149151Y188588D01*
X149458Y188960D01*
X149727Y189360D01*
X149995Y189760D01*
X150230Y190183D01*
X150419Y190635D01*
X150609Y191083D01*
X150757Y191555D01*
X150857Y192040D01*
X150956Y192530D01*
X151008Y193036D01*
X151008Y194069D01*
X150956Y194576D01*
X150857Y195062D01*
X150757Y195551D01*
X150609Y196023D01*
X150419Y196471D01*
X150230Y196919D01*
X149995Y197346D01*
X149727Y197745D01*
X149458Y198142D01*
X149151Y198514D01*
X148814Y198855D01*
X148473Y199192D01*
X148101Y199499D01*
X147704Y199768D01*
X147305Y200036D01*
X146877Y200271D01*
X146430Y200460D01*
X145978Y200650D01*
X145510Y200798D01*
X145021Y200898D01*
X144535Y200998D01*
X144028Y201049D01*
X142991Y201049D01*
X142488Y200998D01*
X141510Y200798D01*
X141038Y200650D01*
X140590Y200460D01*
X140142Y200271D01*
X139715Y200036D01*
X139316Y199768D01*
X138919Y199499D01*
X138547Y199192D01*
X138206Y198855D01*
X137869Y198514D01*
X137562Y198142D01*
X137290Y197745D01*
X137021Y197346D01*
X136787Y196919D01*
X136408Y196023D01*
X136260Y195551D01*
X136160Y195062D01*
X136060Y194576D01*
X136008Y194069D01*
X136008Y193036D01*
X774900Y138838D02*
X774986Y137994D01*
X775151Y137181D01*
X775320Y136368D01*
X775565Y135582D01*
X775882Y134834D01*
X776199Y134087D01*
X776585Y133377D01*
X777487Y132047D01*
X777997Y131427D01*
X778562Y130862D01*
X779127Y130294D01*
X779747Y129784D01*
X780412Y129336D01*
X781077Y128885D01*
X781787Y128499D01*
X782534Y128182D01*
X783282Y127865D01*
X784067Y127620D01*
X784880Y127452D01*
X785693Y127286D01*
X786534Y127200D01*
X788263Y127200D01*
X789104Y127286D01*
X789917Y127452D01*
X790730Y127620D01*
X791516Y127865D01*
X792263Y128182D01*
X793011Y128499D01*
X793720Y128885D01*
X794385Y129336D01*
X795050Y129784D01*
X795670Y130294D01*
X796235Y130862D01*
X796800Y131427D01*
X797310Y132047D01*
X798213Y133377D01*
X798599Y134087D01*
X798916Y134834D01*
X799233Y135582D01*
X799477Y136368D01*
X799646Y137181D01*
X799811Y137994D01*
X799897Y138838D01*
X799897Y140564D01*
X799811Y141404D01*
X799646Y142217D01*
X799477Y143034D01*
X799233Y143816D01*
X798916Y144567D01*
X798599Y145314D01*
X798213Y146024D01*
X797762Y146689D01*
X797310Y147354D01*
X796800Y147974D01*
X795670Y149104D01*
X795050Y149617D01*
X794385Y150065D01*
X793720Y150517D01*
X793011Y150902D01*
X792263Y151219D01*
X791516Y151533D01*
X790730Y151781D01*
X789917Y151946D01*
X789104Y152112D01*
X788263Y152201D01*
X786534Y152201D01*
X785693Y152112D01*
X784880Y151946D01*
X784067Y151781D01*
X783282Y151533D01*
X782534Y151219D01*
X781787Y150902D01*
X781077Y150517D01*
X780412Y150065D01*
X779747Y149617D01*
X779127Y149104D01*
X777997Y147974D01*
X777487Y147354D01*
X777036Y146689D01*
X776585Y146024D01*
X776199Y145314D01*
X775882Y144567D01*
X775565Y143816D01*
X775320Y143034D01*
X775151Y142217D01*
X774986Y141404D01*
X774900Y140564D01*
X774900Y138838D01*
X707841Y622965D02*
X707931Y622125D01*
X708096Y621308D01*
X708261Y620495D01*
X708509Y619710D01*
X708823Y618962D01*
X709140Y618214D01*
X709526Y617505D01*
X709977Y616840D01*
X710425Y616175D01*
X710935Y615558D01*
X712072Y614421D01*
X712688Y613912D01*
X713353Y613464D01*
X714018Y613012D01*
X714728Y612626D01*
X715475Y612308D01*
X716223Y611994D01*
X717008Y611746D01*
X717821Y611581D01*
X718638Y611416D01*
X719479Y611326D01*
X721201Y611326D01*
X722045Y611416D01*
X722858Y611581D01*
X723675Y611746D01*
X724460Y611994D01*
X725208Y612308D01*
X725955Y612626D01*
X726665Y613012D01*
X727330Y613464D01*
X727995Y613912D01*
X728615Y614421D01*
X729745Y615558D01*
X730258Y616175D01*
X730710Y616840D01*
X731157Y617505D01*
X731547Y618214D01*
X731864Y618962D01*
X732177Y619710D01*
X732425Y620495D01*
X732591Y621308D01*
X732756Y622125D01*
X732846Y622965D01*
X732846Y624688D01*
X732756Y625532D01*
X732591Y626345D01*
X732425Y627158D01*
X732177Y627943D01*
X731864Y628691D01*
X731547Y629439D01*
X731157Y630152D01*
X730710Y630817D01*
X730258Y631481D01*
X729745Y632102D01*
X728615Y633232D01*
X727995Y633741D01*
X727330Y634193D01*
X726665Y634641D01*
X725955Y635030D01*
X725208Y635343D01*
X724460Y635657D01*
X723675Y635905D01*
X722858Y636070D01*
X722045Y636236D01*
X721201Y636325D01*
X719479Y636325D01*
X718638Y636236D01*
X717821Y636070D01*
X717008Y635905D01*
X716223Y635657D01*
X715475Y635343D01*
X714728Y635030D01*
X714018Y634641D01*
X713353Y634193D01*
X712688Y633741D01*
X712072Y633232D01*
X710935Y632102D01*
X710425Y631481D01*
X709977Y630817D01*
X709526Y630152D01*
X709140Y629439D01*
X708823Y628691D01*
X708509Y627943D01*
X708261Y627158D01*
X707931Y625532D01*
X707841Y624688D01*
X707841Y622965D01*
X774900Y367437D02*
X774986Y366593D01*
X775151Y365780D01*
X775320Y364967D01*
X775565Y364182D01*
X775882Y363434D01*
X776199Y362686D01*
X776585Y361977D01*
X777487Y360647D01*
X777997Y360027D01*
X778562Y359462D01*
X779127Y358893D01*
X779747Y358383D01*
X780412Y357936D01*
X781077Y357484D01*
X781787Y357098D01*
X782534Y356781D01*
X783282Y356465D01*
X784067Y356220D01*
X784880Y356051D01*
X785693Y355886D01*
X786534Y355800D01*
X788263Y355800D01*
X789104Y355886D01*
X789917Y356051D01*
X790730Y356220D01*
X791516Y356465D01*
X792263Y356781D01*
X793011Y357098D01*
X793720Y357484D01*
X794385Y357936D01*
X795050Y358383D01*
X795670Y358893D01*
X796235Y359462D01*
X796800Y360027D01*
X797310Y360647D01*
X798213Y361977D01*
X798599Y362686D01*
X798916Y363434D01*
X799233Y364182D01*
X799477Y364967D01*
X799646Y365780D01*
X799811Y366593D01*
X799897Y367437D01*
X799897Y369163D01*
X799811Y370004D01*
X799646Y370817D01*
X799477Y371633D01*
X799233Y372415D01*
X798916Y373166D01*
X798599Y373914D01*
X798213Y374624D01*
X797762Y375289D01*
X797310Y375953D01*
X796800Y376574D01*
X795670Y377704D01*
X795050Y378217D01*
X794385Y378665D01*
X793720Y379116D01*
X793011Y379502D01*
X792263Y379819D01*
X791516Y380132D01*
X790730Y380380D01*
X789917Y380546D01*
X789104Y380711D01*
X788263Y380801D01*
X786534Y380801D01*
X785693Y380711D01*
X784880Y380546D01*
X784067Y380380D01*
X783282Y380132D01*
X782534Y379819D01*
X781787Y379502D01*
X781077Y379116D01*
X780412Y378665D01*
X779747Y378217D01*
X779127Y377704D01*
X777997Y376574D01*
X777487Y375953D01*
X777036Y375289D01*
X776585Y374624D01*
X776199Y373914D01*
X775882Y373166D01*
X775565Y372415D01*
X775320Y371633D01*
X775151Y370817D01*
X774986Y370004D01*
X774900Y369163D01*
X774900Y367437D01*
X839588Y193036D02*
X839640Y192530D01*
X839740Y192040D01*
X839840Y191555D01*
X839988Y191083D01*
X840178Y190635D01*
X840367Y190183D01*
X840598Y189760D01*
X840870Y189360D01*
X841139Y188960D01*
X841445Y188588D01*
X841786Y188247D01*
X842128Y187910D01*
X842496Y187603D01*
X842896Y187331D01*
X843295Y187062D01*
X843719Y186828D01*
X844170Y186638D01*
X844618Y186449D01*
X845090Y186301D01*
X845579Y186201D01*
X846065Y186101D01*
X846572Y186049D01*
X847605Y186049D01*
X848112Y186101D01*
X848597Y186201D01*
X849087Y186301D01*
X849559Y186449D01*
X850006Y186638D01*
X850458Y186828D01*
X850881Y187062D01*
X851281Y187331D01*
X851681Y187603D01*
X852049Y187910D01*
X852390Y188247D01*
X852732Y188588D01*
X853038Y188960D01*
X853307Y189360D01*
X853579Y189760D01*
X853810Y190183D01*
X853999Y190635D01*
X854189Y191083D01*
X854337Y191555D01*
X854437Y192040D01*
X854537Y192530D01*
X854588Y193036D01*
X854588Y194069D01*
X854537Y194576D01*
X854437Y195062D01*
X854337Y195551D01*
X854189Y196023D01*
X853999Y196471D01*
X853810Y196919D01*
X853579Y197346D01*
X853307Y197745D01*
X853038Y198142D01*
X852732Y198514D01*
X852390Y198855D01*
X852049Y199192D01*
X851681Y199499D01*
X851281Y199768D01*
X850881Y200036D01*
X850458Y200271D01*
X850006Y200460D01*
X849559Y200650D01*
X849087Y200798D01*
X848597Y200898D01*
X848112Y200998D01*
X847605Y201049D01*
X846572Y201049D01*
X846065Y200998D01*
X845579Y200898D01*
X845090Y200798D01*
X844618Y200650D01*
X844170Y200460D01*
X843719Y200271D01*
X843295Y200036D01*
X842496Y199499D01*
X842128Y199192D01*
X841786Y198855D01*
X841445Y198514D01*
X841139Y198142D01*
X840870Y197745D01*
X840598Y197346D01*
X840367Y196919D01*
X839988Y196023D01*
X839840Y195551D01*
X839740Y195062D01*
X839640Y194576D01*
X839588Y194069D01*
X839588Y193036D01*
X257755Y162719D02*
X257841Y161875D01*
X258006Y161062D01*
X258175Y160249D01*
X258419Y159463D01*
X258736Y158716D01*
X259053Y157968D01*
X259439Y157255D01*
X259890Y156590D01*
X260338Y155925D01*
X260848Y155305D01*
X261417Y154740D01*
X261982Y154175D01*
X262602Y153662D01*
X263932Y152766D01*
X264641Y152377D01*
X265389Y152060D01*
X266136Y151743D01*
X266922Y151498D01*
X267735Y151333D01*
X268551Y151168D01*
X269392Y151078D01*
X271118Y151078D01*
X271959Y151168D01*
X272775Y151333D01*
X273588Y151498D01*
X274374Y151743D01*
X275121Y152060D01*
X275869Y152377D01*
X276579Y152766D01*
X277243Y153214D01*
X277908Y153662D01*
X278525Y154175D01*
X279093Y154740D01*
X279658Y155305D01*
X280168Y155925D01*
X280620Y156590D01*
X281067Y157255D01*
X281453Y157968D01*
X281770Y158716D01*
X282087Y159463D01*
X282335Y160249D01*
X282501Y161062D01*
X282666Y161875D01*
X282756Y162719D01*
X282756Y164442D01*
X282666Y165286D01*
X282501Y166099D01*
X282335Y166912D01*
X282087Y167697D01*
X281770Y168445D01*
X281453Y169189D01*
X281067Y169902D01*
X280620Y170567D01*
X280168Y171228D01*
X279658Y171849D01*
X279093Y172414D01*
X278525Y172979D01*
X277908Y173492D01*
X277243Y173940D01*
X276579Y174391D01*
X275869Y174777D01*
X275121Y175094D01*
X274374Y175411D01*
X273588Y175655D01*
X272775Y175824D01*
X271959Y175990D01*
X271118Y176076D01*
X269392Y176076D01*
X268551Y175990D01*
X267735Y175824D01*
X266922Y175655D01*
X266136Y175411D01*
X265389Y175094D01*
X264641Y174777D01*
X263932Y174391D01*
X263267Y173940D01*
X262602Y173492D01*
X261982Y172979D01*
X261417Y172414D01*
X260848Y171849D01*
X260338Y171228D01*
X259890Y170567D01*
X259439Y169902D01*
X259053Y169189D01*
X258736Y168445D01*
X258419Y167697D01*
X258175Y166912D01*
X258006Y166099D01*
X257841Y165286D01*
X257755Y164442D01*
X257755Y162719D01*
X190699Y138838D02*
X190785Y137994D01*
X190951Y137181D01*
X191119Y136368D01*
X191364Y135582D01*
X191681Y134834D01*
X191994Y134087D01*
X192384Y133377D01*
X192832Y132712D01*
X193283Y132047D01*
X193793Y131427D01*
X194358Y130862D01*
X194923Y130294D01*
X195543Y129784D01*
X196208Y129336D01*
X196873Y128885D01*
X197586Y128499D01*
X198333Y128182D01*
X199081Y127865D01*
X199867Y127620D01*
X200680Y127452D01*
X201493Y127286D01*
X202337Y127200D01*
X204063Y127200D01*
X204903Y127286D01*
X205716Y127452D01*
X206533Y127620D01*
X207315Y127865D01*
X208066Y128182D01*
X208813Y128499D01*
X209523Y128885D01*
X210188Y129336D01*
X210853Y129784D01*
X211473Y130294D01*
X212038Y130862D01*
X212603Y131427D01*
X213116Y132047D01*
X213564Y132712D01*
X214016Y133377D01*
X214401Y134087D01*
X214718Y134834D01*
X215032Y135582D01*
X215280Y136368D01*
X215445Y137181D01*
X215611Y137994D01*
X215700Y138838D01*
X215700Y140564D01*
X215611Y141404D01*
X215445Y142217D01*
X215280Y143034D01*
X215032Y143816D01*
X214718Y144567D01*
X214401Y145314D01*
X214016Y146024D01*
X213564Y146689D01*
X213116Y147354D01*
X212603Y147971D01*
X212038Y148539D01*
X211473Y149104D01*
X210853Y149614D01*
X210188Y150065D01*
X209523Y150513D01*
X208813Y150899D01*
X208066Y151216D01*
X207315Y151533D01*
X206533Y151781D01*
X205716Y151946D01*
X204903Y152112D01*
X204063Y152201D01*
X202337Y152201D01*
X201493Y152112D01*
X200680Y151946D01*
X199867Y151781D01*
X199081Y151533D01*
X198333Y151216D01*
X197586Y150899D01*
X196873Y150513D01*
X196208Y150065D01*
X195543Y149614D01*
X194923Y149104D01*
X194358Y148539D01*
X193793Y147971D01*
X193283Y147354D01*
X192832Y146689D01*
X192384Y146024D01*
X191994Y145314D01*
X191681Y144567D01*
X191364Y143816D01*
X191119Y143034D01*
X190951Y142217D01*
X190785Y141404D01*
X190699Y140564D01*
X190699Y138838D01*
X839588Y593332D02*
X839640Y592829D01*
X839740Y592340D01*
X839840Y591851D01*
X839988Y591382D01*
X840367Y590487D01*
X840598Y590059D01*
X840870Y589660D01*
X841139Y589260D01*
X841445Y588888D01*
X841786Y588550D01*
X842128Y588213D01*
X842496Y587903D01*
X843295Y587365D01*
X843719Y587131D01*
X844170Y586942D01*
X844618Y586752D01*
X845090Y586604D01*
X845579Y586504D01*
X846065Y586404D01*
X846572Y586352D01*
X847605Y586352D01*
X848112Y586404D01*
X848597Y586504D01*
X849087Y586604D01*
X849559Y586752D01*
X850006Y586942D01*
X850458Y587131D01*
X850881Y587365D01*
X851281Y587634D01*
X851681Y587903D01*
X852049Y588213D01*
X852732Y588888D01*
X853038Y589260D01*
X853307Y589660D01*
X853579Y590059D01*
X853810Y590487D01*
X853999Y590934D01*
X854189Y591382D01*
X854337Y591851D01*
X854437Y592340D01*
X854537Y592829D01*
X854588Y593332D01*
X854588Y594366D01*
X854537Y594872D01*
X854437Y595361D01*
X854337Y595847D01*
X854189Y596323D01*
X853999Y596770D01*
X853810Y597218D01*
X853579Y597645D01*
X853307Y598045D01*
X853038Y598445D01*
X852732Y598817D01*
X852049Y599492D01*
X851681Y599802D01*
X851281Y600071D01*
X850881Y600340D01*
X850458Y600574D01*
X850006Y600763D01*
X849559Y600953D01*
X849087Y601101D01*
X848597Y601201D01*
X848112Y601301D01*
X847605Y601352D01*
X846572Y601352D01*
X846065Y601301D01*
X845579Y601201D01*
X845090Y601101D01*
X844618Y600953D01*
X844170Y600763D01*
X843719Y600574D01*
X843295Y600340D01*
X842496Y599802D01*
X842128Y599492D01*
X841786Y599154D01*
X841445Y598817D01*
X841139Y598445D01*
X840870Y598045D01*
X840598Y597645D01*
X840367Y597218D01*
X840178Y596770D01*
X839988Y596323D01*
X839840Y595847D01*
X839740Y595361D01*
X839640Y594872D01*
X839588Y594366D01*
X839588Y593332D01*
X882849Y392840D02*
X882938Y391999D01*
X883103Y391182D01*
X883269Y390369D01*
X883517Y389584D01*
X883830Y388836D01*
X884147Y388089D01*
X884533Y387379D01*
X884985Y386714D01*
X885432Y386049D01*
X885942Y385429D01*
X886511Y384864D01*
X887079Y384296D01*
X887696Y383786D01*
X888361Y383338D01*
X889026Y382887D01*
X889735Y382501D01*
X890483Y382184D01*
X891230Y381867D01*
X892016Y381622D01*
X892829Y381454D01*
X893645Y381288D01*
X894486Y381202D01*
X896209Y381202D01*
X897053Y381288D01*
X897866Y381454D01*
X898682Y381622D01*
X899468Y381867D01*
X900963Y382501D01*
X901673Y382887D01*
X902337Y383338D01*
X903002Y383786D01*
X903622Y384296D01*
X904187Y384864D01*
X904752Y385429D01*
X905266Y386049D01*
X905717Y386714D01*
X906165Y387379D01*
X906554Y388089D01*
X906871Y388836D01*
X907185Y389584D01*
X907433Y390369D01*
X907598Y391182D01*
X907764Y391999D01*
X907853Y392840D01*
X907853Y394566D01*
X907764Y395406D01*
X907598Y396219D01*
X907433Y397032D01*
X907185Y397818D01*
X906871Y398565D01*
X906554Y399313D01*
X906165Y400023D01*
X905717Y400688D01*
X905266Y401352D01*
X904752Y401973D01*
X904187Y402538D01*
X903622Y403103D01*
X903002Y403612D01*
X901673Y404515D01*
X900963Y404901D01*
X900215Y405218D01*
X899468Y405535D01*
X898682Y405779D01*
X897866Y405948D01*
X897053Y406114D01*
X896209Y406200D01*
X894486Y406200D01*
X893645Y406114D01*
X892829Y405948D01*
X892016Y405779D01*
X891230Y405535D01*
X890483Y405218D01*
X889735Y404901D01*
X889026Y404515D01*
X888361Y404064D01*
X887696Y403612D01*
X887079Y403103D01*
X886511Y402538D01*
X885942Y401973D01*
X885432Y401352D01*
X884985Y400688D01*
X884533Y400023D01*
X884147Y399313D01*
X883830Y398565D01*
X883517Y397818D01*
X883269Y397032D01*
X883103Y396219D01*
X882938Y395406D01*
X882849Y394566D01*
X882849Y392840D01*
X190699Y367439D02*
X190789Y366598D01*
X190954Y365782D01*
X191119Y364969D01*
X191364Y364183D01*
X191998Y362688D01*
X192387Y361978D01*
X192835Y361313D01*
X193283Y360649D01*
X193796Y360028D01*
X194361Y359463D01*
X194926Y358895D01*
X195546Y358385D01*
X196211Y357937D01*
X196876Y357486D01*
X197589Y357100D01*
X198337Y356783D01*
X199085Y356466D01*
X199870Y356222D01*
X200683Y356053D01*
X201496Y355887D01*
X202340Y355801D01*
X204066Y355801D01*
X204907Y355887D01*
X205720Y356053D01*
X206533Y356222D01*
X207318Y356466D01*
X208066Y356783D01*
X208813Y357100D01*
X209523Y357486D01*
X210188Y357937D01*
X210853Y358385D01*
X211473Y358895D01*
X212038Y359463D01*
X212603Y360028D01*
X213116Y360649D01*
X213564Y361313D01*
X214016Y361978D01*
X214401Y362688D01*
X214718Y363436D01*
X215035Y364183D01*
X215280Y364969D01*
X215449Y365782D01*
X215614Y366598D01*
X215700Y367439D01*
X215700Y369165D01*
X215614Y370005D01*
X215449Y370819D01*
X215280Y371632D01*
X215035Y372417D01*
X214718Y373165D01*
X214401Y373912D01*
X214016Y374622D01*
X213564Y375287D01*
X213116Y375952D01*
X212603Y376572D01*
X211473Y377702D01*
X210853Y378212D01*
X210188Y378663D01*
X209523Y379114D01*
X208813Y379500D01*
X208066Y379817D01*
X207318Y380134D01*
X206533Y380379D01*
X205720Y380547D01*
X204907Y380713D01*
X204066Y380799D01*
X202340Y380799D01*
X201496Y380713D01*
X200683Y380547D01*
X199870Y380379D01*
X199085Y380134D01*
X198337Y379817D01*
X197589Y379500D01*
X196876Y379114D01*
X196211Y378663D01*
X195546Y378212D01*
X194926Y377702D01*
X193796Y376572D01*
X193283Y375952D01*
X192835Y375287D01*
X192387Y374622D01*
X191998Y373912D01*
X191681Y373165D01*
X191364Y372417D01*
X191119Y371632D01*
X190954Y370819D01*
X190789Y370005D01*
X190699Y369165D01*
X190699Y367439D01*
X707841Y162719D02*
X707931Y161875D01*
X708261Y160249D01*
X708509Y159463D01*
X708823Y158716D01*
X709140Y157968D01*
X709526Y157255D01*
X709977Y156590D01*
X710425Y155925D01*
X710935Y155305D01*
X712072Y154175D01*
X712688Y153662D01*
X714018Y152766D01*
X714728Y152377D01*
X715475Y152060D01*
X716223Y151743D01*
X717008Y151498D01*
X717821Y151333D01*
X718638Y151168D01*
X719479Y151078D01*
X721201Y151078D01*
X722045Y151168D01*
X722858Y151333D01*
X723675Y151498D01*
X724460Y151743D01*
X725208Y152060D01*
X725955Y152377D01*
X726665Y152766D01*
X727995Y153662D01*
X728615Y154175D01*
X729745Y155305D01*
X730258Y155925D01*
X730710Y156590D01*
X731157Y157255D01*
X731547Y157968D01*
X731864Y158716D01*
X732177Y159463D01*
X732425Y160249D01*
X732591Y161062D01*
X732756Y161875D01*
X732846Y162719D01*
X732846Y164442D01*
X732756Y165286D01*
X732591Y166099D01*
X732425Y166912D01*
X732177Y167697D01*
X731864Y168445D01*
X731547Y169189D01*
X731157Y169902D01*
X730710Y170567D01*
X730258Y171228D01*
X729745Y171849D01*
X728615Y172979D01*
X727995Y173492D01*
X727330Y173940D01*
X726665Y174391D01*
X725955Y174777D01*
X725208Y175094D01*
X724460Y175411D01*
X723675Y175655D01*
X722858Y175824D01*
X722045Y175990D01*
X721201Y176076D01*
X719479Y176076D01*
X718638Y175990D01*
X717821Y175824D01*
X717008Y175655D01*
X716223Y175411D01*
X715475Y175094D01*
X714728Y174777D01*
X714018Y174391D01*
X713353Y173940D01*
X712688Y173492D01*
X712072Y172979D01*
X710935Y171849D01*
X710425Y171228D01*
X709977Y170567D01*
X709526Y169902D01*
X709140Y169189D01*
X708823Y168445D01*
X708509Y167697D01*
X708261Y166912D01*
X708096Y166099D01*
X707931Y165286D01*
X707841Y164442D01*
X707841Y162719D01*
X82749Y392840D02*
X82838Y391999D01*
X83004Y391182D01*
X83169Y390369D01*
X83414Y389584D01*
X83731Y388836D01*
X84048Y388089D01*
X84437Y387379D01*
X84885Y386714D01*
X85333Y386049D01*
X85846Y385429D01*
X86411Y384864D01*
X86976Y384296D01*
X87596Y383786D01*
X88261Y383338D01*
X88926Y382887D01*
X89639Y382501D01*
X90387Y382184D01*
X91134Y381867D01*
X91920Y381622D01*
X92733Y381454D01*
X93546Y381288D01*
X94390Y381202D01*
X96116Y381202D01*
X96956Y381288D01*
X97769Y381454D01*
X98582Y381622D01*
X99368Y381867D01*
X100115Y382184D01*
X100863Y382501D01*
X101573Y382887D01*
X102238Y383338D01*
X102903Y383786D01*
X103523Y384296D01*
X104088Y384864D01*
X104653Y385429D01*
X105166Y386049D01*
X105614Y386714D01*
X106065Y387379D01*
X106451Y388089D01*
X106768Y388836D01*
X107085Y389584D01*
X107329Y390369D01*
X107498Y391182D01*
X107664Y391999D01*
X107750Y392840D01*
X107750Y394566D01*
X107664Y395406D01*
X107498Y396219D01*
X107329Y397032D01*
X107085Y397818D01*
X106768Y398565D01*
X106451Y399313D01*
X106065Y400023D01*
X105614Y400688D01*
X105166Y401352D01*
X104653Y401973D01*
X104088Y402538D01*
X103523Y403103D01*
X102903Y403612D01*
X101573Y404515D01*
X100863Y404901D01*
X100115Y405218D01*
X99368Y405535D01*
X98582Y405779D01*
X97769Y405948D01*
X96956Y406114D01*
X96116Y406200D01*
X94390Y406200D01*
X93546Y406114D01*
X92733Y405948D01*
X91920Y405779D01*
X91134Y405535D01*
X90387Y405218D01*
X89639Y404901D01*
X88926Y404515D01*
X87596Y403612D01*
X86976Y403103D01*
X86411Y402538D01*
X85846Y401973D01*
X85333Y401352D01*
X84885Y400688D01*
X84437Y400023D01*
X84048Y399313D01*
X83414Y397818D01*
X83169Y397032D01*
X83004Y396219D01*
X82838Y395406D01*
X82749Y394566D01*
X82749Y392840D01*
X136008Y593332D02*
X136060Y592829D01*
X136160Y592340D01*
X136260Y591851D01*
X136408Y591382D01*
X136787Y590487D01*
X137021Y590059D01*
X137290Y589660D01*
X137562Y589260D01*
X137869Y588888D01*
X138206Y588550D01*
X138547Y588213D01*
X138919Y587903D01*
X139316Y587634D01*
X139715Y587365D01*
X140142Y587131D01*
X140590Y586942D01*
X141038Y586752D01*
X141510Y586604D01*
X142488Y586404D01*
X142991Y586352D01*
X144028Y586352D01*
X144535Y586404D01*
X145021Y586504D01*
X145510Y586604D01*
X145978Y586752D01*
X146430Y586942D01*
X146877Y587131D01*
X147305Y587365D01*
X147704Y587634D01*
X148101Y587903D01*
X148473Y588213D01*
X148814Y588550D01*
X149151Y588888D01*
X149458Y589260D01*
X149727Y589660D01*
X149995Y590059D01*
X150230Y590487D01*
X150419Y590934D01*
X150609Y591382D01*
X150757Y591851D01*
X150857Y592340D01*
X150956Y592829D01*
X151008Y593332D01*
X151008Y594366D01*
X150956Y594872D01*
X150857Y595361D01*
X150757Y595847D01*
X150609Y596323D01*
X150419Y596770D01*
X150230Y597218D01*
X149995Y597645D01*
X149727Y598045D01*
X149458Y598445D01*
X149151Y598817D01*
X148814Y599154D01*
X148473Y599492D01*
X148101Y599802D01*
X147704Y600071D01*
X147305Y600340D01*
X146877Y600574D01*
X146430Y600763D01*
X145978Y600953D01*
X145510Y601101D01*
X145021Y601201D01*
X144535Y601301D01*
X144028Y601352D01*
X142991Y601352D01*
X142488Y601301D01*
X141999Y601201D01*
X141510Y601101D01*
X141038Y600953D01*
X140590Y600763D01*
X140142Y600574D01*
X139715Y600340D01*
X139316Y600071D01*
X138919Y599802D01*
X138547Y599492D01*
X138206Y599154D01*
X137869Y598817D01*
X137562Y598445D01*
X137290Y598045D01*
X137021Y597645D01*
X136787Y597218D01*
X136597Y596770D01*
X136408Y596323D01*
X136260Y595847D01*
X136160Y595361D01*
X136060Y594872D01*
X136008Y594366D01*
X136008Y593332D01*
X257755Y622965D02*
X257841Y622125D01*
X258006Y621308D01*
X258175Y620495D01*
X258419Y619710D01*
X258736Y618962D01*
X259053Y618214D01*
X259439Y617505D01*
X259890Y616840D01*
X260338Y616175D01*
X260848Y615558D01*
X261417Y614990D01*
X261982Y614421D01*
X262602Y613912D01*
X263267Y613464D01*
X263932Y613012D01*
X264641Y612626D01*
X265389Y612308D01*
X266136Y611994D01*
X266922Y611746D01*
X267735Y611581D01*
X268551Y611416D01*
X269392Y611326D01*
X271118Y611326D01*
X271959Y611416D01*
X272775Y611581D01*
X273588Y611746D01*
X274374Y611994D01*
X275121Y612308D01*
X275869Y612626D01*
X276579Y613012D01*
X277243Y613464D01*
X277908Y613912D01*
X278525Y614421D01*
X279093Y614990D01*
X279658Y615558D01*
X280168Y616175D01*
X280620Y616840D01*
X281067Y617505D01*
X281453Y618214D01*
X282087Y619710D01*
X282335Y620495D01*
X282501Y621308D01*
X282666Y622125D01*
X282756Y622965D01*
X282756Y624688D01*
X282666Y625532D01*
X282501Y626345D01*
X282335Y627158D01*
X282087Y627943D01*
X281770Y628691D01*
X281453Y629439D01*
X281067Y630152D01*
X280620Y630817D01*
X280168Y631481D01*
X279658Y632102D01*
X279093Y632667D01*
X278525Y633232D01*
X277908Y633741D01*
X277243Y634193D01*
X276579Y634641D01*
X275869Y635030D01*
X274374Y635657D01*
X273588Y635905D01*
X272775Y636070D01*
X271959Y636236D01*
X271118Y636325D01*
X269392Y636325D01*
X268551Y636236D01*
X267735Y636070D01*
X266922Y635905D01*
X266136Y635657D01*
X264641Y635030D01*
X263932Y634641D01*
X263267Y634193D01*
X262602Y633741D01*
X261982Y633232D01*
X261417Y632667D01*
X260848Y632102D01*
X260338Y631481D01*
X259890Y630817D01*
X259439Y630152D01*
X259053Y629439D01*
X258736Y628691D01*
X258419Y627943D01*
X258175Y627158D01*
X258006Y626345D01*
X257841Y625532D01*
X257755Y624688D01*
X257755Y622965D01*
M02*
