G04 EAGLE Gerber RS-274X export*
G75*
%MOMM*%
%FSLAX34Y34*%
%LPD*%
%INSilkscreen Top*%
%IPPOS*%
%AMOC8*
5,1,8,0,0,1.08239X$1,22.5*%
G01*
%ADD10C,0.000000*%
%ADD11C,0.152400*%

G36*
X173445Y132842D02*
X173445Y132842D01*
X173447Y132840D01*
X173974Y132890D01*
X173978Y132894D01*
X173981Y132892D01*
X174495Y133016D01*
X174499Y133020D01*
X174502Y133018D01*
X174994Y133213D01*
X174997Y133218D01*
X175000Y133216D01*
X175459Y133480D01*
X175461Y133484D01*
X175465Y133483D01*
X175883Y133808D01*
X175884Y133813D01*
X175888Y133813D01*
X176257Y134192D01*
X176257Y134197D01*
X176261Y134198D01*
X176574Y134625D01*
X176573Y134630D01*
X176577Y134630D01*
X176827Y135097D01*
X176826Y135102D01*
X176830Y135103D01*
X177012Y135600D01*
X177010Y135605D01*
X177014Y135607D01*
X177124Y136125D01*
X177123Y136126D01*
X177122Y136128D01*
X177122Y136129D01*
X177125Y136131D01*
X177162Y136659D01*
X177160Y136662D01*
X177162Y136663D01*
X177162Y159010D01*
X177161Y159011D01*
X177162Y159012D01*
X177136Y159541D01*
X177133Y159545D01*
X177135Y159548D01*
X177037Y160068D01*
X177033Y160071D01*
X177035Y160075D01*
X176863Y160575D01*
X176859Y160578D01*
X176861Y160582D01*
X176620Y161053D01*
X176616Y161055D01*
X176617Y161059D01*
X176320Y161482D01*
X176308Y161486D01*
X176310Y161492D01*
X176298Y161495D01*
X176300Y161507D01*
X175947Y161884D01*
X175942Y161885D01*
X175942Y161889D01*
X175531Y162222D01*
X175525Y162222D01*
X175525Y162226D01*
X175071Y162498D01*
X175066Y162497D01*
X175065Y162501D01*
X174577Y162707D01*
X174572Y162706D01*
X174571Y162709D01*
X174071Y162841D01*
X174049Y162832D01*
X174041Y162847D01*
X173555Y162911D01*
X173551Y162909D01*
X173549Y162912D01*
X150772Y162909D01*
X150769Y162907D01*
X150767Y162909D01*
X150240Y162854D01*
X150236Y162850D01*
X150233Y162852D01*
X149720Y162724D01*
X149717Y162719D01*
X149713Y162721D01*
X149223Y162522D01*
X149221Y162517D01*
X149217Y162519D01*
X148760Y162252D01*
X148758Y162247D01*
X148754Y162248D01*
X148339Y161921D01*
X148337Y161915D01*
X148334Y161916D01*
X147968Y161533D01*
X147967Y161528D01*
X147963Y161528D01*
X147655Y161098D01*
X147655Y161093D01*
X147651Y161092D01*
X147406Y160623D01*
X147407Y160618D01*
X147403Y160617D01*
X147227Y160118D01*
X147229Y160113D01*
X147225Y160111D01*
X147121Y159592D01*
X147123Y159587D01*
X147120Y159585D01*
X147089Y159057D01*
X147090Y159055D01*
X147089Y159054D01*
X147089Y136807D01*
X147090Y136805D01*
X147089Y136805D01*
X147108Y136276D01*
X147112Y136272D01*
X147109Y136269D01*
X147200Y135748D01*
X147204Y135744D01*
X147201Y135741D01*
X147364Y135237D01*
X147368Y135234D01*
X147367Y135231D01*
X147599Y134755D01*
X147603Y134753D01*
X147602Y134749D01*
X147898Y134311D01*
X147903Y134309D01*
X147902Y134305D01*
X148257Y133912D01*
X148262Y133911D01*
X148262Y133907D01*
X148667Y133567D01*
X148673Y133567D01*
X148673Y133563D01*
X149122Y133283D01*
X149127Y133284D01*
X149128Y133280D01*
X149612Y133065D01*
X149617Y133067D01*
X149618Y133063D01*
X150128Y132919D01*
X150132Y132921D01*
X150134Y132918D01*
X150659Y132847D01*
X150663Y132850D01*
X150665Y132847D01*
X173442Y132840D01*
X173445Y132842D01*
G37*
%LPC*%
G36*
X150777Y133875D02*
X150777Y133875D01*
X150261Y133948D01*
X149769Y134116D01*
X149318Y134373D01*
X148921Y134709D01*
X148593Y135112D01*
X148345Y135568D01*
X148187Y136063D01*
X148123Y136580D01*
X148122Y158824D01*
X148133Y159349D01*
X148227Y159861D01*
X148416Y160345D01*
X148692Y160785D01*
X149044Y161167D01*
X149461Y161477D01*
X149929Y161703D01*
X150431Y161838D01*
X150952Y161879D01*
X173196Y161879D01*
X173719Y161854D01*
X174226Y161737D01*
X174701Y161528D01*
X175129Y161233D01*
X175490Y160871D01*
X175496Y160870D01*
X175495Y160868D01*
X175503Y160866D01*
X175500Y160859D01*
X175788Y160435D01*
X175995Y159959D01*
X176110Y159452D01*
X176132Y158928D01*
X176132Y136684D01*
X176087Y136164D01*
X175947Y135664D01*
X175716Y135198D01*
X175403Y134783D01*
X175019Y134433D01*
X174577Y134159D01*
X174092Y133973D01*
X173580Y133881D01*
X151338Y133872D01*
X150777Y133875D01*
G37*
%LPD*%
G36*
X171219Y136191D02*
X171219Y136191D01*
X171232Y136189D01*
X171637Y136563D01*
X171641Y136586D01*
X171652Y136593D01*
X171719Y137170D01*
X171717Y137174D01*
X171719Y137176D01*
X171719Y141843D01*
X171752Y142407D01*
X172055Y142823D01*
X172611Y142859D01*
X173193Y142861D01*
X173205Y142870D01*
X173214Y142866D01*
X173718Y143106D01*
X173731Y143132D01*
X173744Y143137D01*
X173905Y143688D01*
X173902Y143696D01*
X173905Y143698D01*
X173903Y143700D01*
X173907Y143702D01*
X173902Y145452D01*
X173899Y145456D01*
X173902Y145458D01*
X173831Y146035D01*
X173815Y146051D01*
X173816Y146064D01*
X173409Y146458D01*
X173384Y146461D01*
X173380Y146466D01*
X173376Y146472D01*
X172793Y146482D01*
X172792Y146482D01*
X169875Y146472D01*
X169866Y146465D01*
X169858Y146459D01*
X169847Y146462D01*
X169392Y146132D01*
X169386Y146110D01*
X169374Y146105D01*
X169216Y145548D01*
X169216Y145547D01*
X169217Y145545D01*
X169219Y145539D01*
X169214Y145535D01*
X169208Y144369D01*
X169209Y144367D01*
X169208Y144367D01*
X169226Y143784D01*
X169233Y143776D01*
X169229Y143770D01*
X169407Y143220D01*
X169426Y143207D01*
X169427Y143194D01*
X169898Y142889D01*
X170293Y142543D01*
X170326Y141984D01*
X170326Y140820D01*
X170296Y140259D01*
X169934Y139898D01*
X169372Y139882D01*
X164122Y139870D01*
X164103Y139855D01*
X164090Y139858D01*
X163672Y139507D01*
X163668Y139493D01*
X163664Y139489D01*
X163667Y139485D01*
X163666Y139483D01*
X163655Y139477D01*
X163567Y138906D01*
X163569Y138901D01*
X163566Y138898D01*
X163570Y137148D01*
X163575Y137141D01*
X163571Y137136D01*
X163712Y136575D01*
X163730Y136561D01*
X163729Y136548D01*
X164169Y136209D01*
X164191Y136209D01*
X164199Y136199D01*
X171199Y136176D01*
X171219Y136191D01*
G37*
G36*
X158103Y149281D02*
X158103Y149281D01*
X158117Y149279D01*
X158515Y149661D01*
X158519Y149685D01*
X158530Y149692D01*
X158584Y150271D01*
X158583Y150274D01*
X158585Y150275D01*
X158585Y154939D01*
X158623Y155502D01*
X158933Y155914D01*
X159488Y155953D01*
X160070Y155955D01*
X160080Y155963D01*
X160083Y155963D01*
X160090Y155959D01*
X160596Y156192D01*
X160611Y156219D01*
X160623Y156224D01*
X160776Y156778D01*
X160773Y156785D01*
X160776Y156787D01*
X160774Y156789D01*
X160777Y156791D01*
X160773Y158541D01*
X160770Y158544D01*
X160773Y158547D01*
X160699Y159122D01*
X160682Y159139D01*
X160683Y159152D01*
X160267Y159530D01*
X160243Y159532D01*
X160235Y159542D01*
X159653Y159556D01*
X159652Y159555D01*
X159651Y159556D01*
X156736Y159543D01*
X156719Y159530D01*
X156707Y159533D01*
X156256Y159196D01*
X156252Y159180D01*
X156248Y159177D01*
X156250Y159175D01*
X156238Y159170D01*
X156089Y158610D01*
X156093Y158602D01*
X156087Y158598D01*
X156082Y157432D01*
X156083Y157431D01*
X156082Y157430D01*
X156102Y156848D01*
X156109Y156840D01*
X156105Y156834D01*
X156285Y156286D01*
X156304Y156272D01*
X156306Y156259D01*
X156785Y155965D01*
X157172Y155614D01*
X157203Y155054D01*
X157203Y153891D01*
X157173Y153331D01*
X156804Y152977D01*
X156242Y152961D01*
X150994Y152953D01*
X150974Y152938D01*
X150961Y152941D01*
X150547Y152584D01*
X150541Y152561D01*
X150530Y152554D01*
X150446Y151983D01*
X150448Y151978D01*
X150445Y151976D01*
X150449Y150226D01*
X150455Y150219D01*
X150451Y150214D01*
X150592Y149655D01*
X150610Y149640D01*
X150610Y149627D01*
X151057Y149300D01*
X151079Y149300D01*
X151086Y149290D01*
X157501Y149280D01*
X158081Y149265D01*
X158103Y149281D01*
G37*
G36*
X158103Y136207D02*
X158103Y136207D01*
X158116Y136205D01*
X158515Y136583D01*
X158519Y136608D01*
X158531Y136615D01*
X158584Y137193D01*
X158583Y137196D01*
X158585Y137198D01*
X158585Y141861D01*
X158624Y142424D01*
X158935Y142836D01*
X159491Y142871D01*
X160072Y142872D01*
X160085Y142882D01*
X160094Y142877D01*
X160596Y143118D01*
X160609Y143144D01*
X160622Y143149D01*
X160778Y143702D01*
X160775Y143711D01*
X160778Y143713D01*
X160777Y143714D01*
X160780Y143716D01*
X160776Y145465D01*
X160773Y145468D01*
X160776Y145471D01*
X160705Y146046D01*
X160688Y146064D01*
X160689Y146077D01*
X160271Y146451D01*
X160247Y146453D01*
X160239Y146464D01*
X159656Y146474D01*
X159656Y146473D01*
X159655Y146474D01*
X156741Y146461D01*
X156724Y146448D01*
X156712Y146452D01*
X156259Y146118D01*
X156252Y146095D01*
X156241Y146091D01*
X156092Y145531D01*
X156096Y145523D01*
X156090Y145519D01*
X156085Y144353D01*
X156086Y144352D01*
X156085Y144351D01*
X156103Y143769D01*
X156109Y143761D01*
X156105Y143755D01*
X156284Y143206D01*
X156303Y143193D01*
X156304Y143180D01*
X156780Y142880D01*
X157173Y142530D01*
X157203Y141971D01*
X157203Y140807D01*
X157174Y140247D01*
X156807Y139892D01*
X156245Y139876D01*
X150998Y139867D01*
X150979Y139852D01*
X150966Y139855D01*
X150549Y139504D01*
X150544Y139480D01*
X150532Y139474D01*
X150446Y138903D01*
X150448Y138898D01*
X150445Y138896D01*
X150449Y137147D01*
X150455Y137140D01*
X150451Y137135D01*
X150592Y136575D01*
X150610Y136560D01*
X150610Y136547D01*
X151058Y136220D01*
X151080Y136220D01*
X151087Y136210D01*
X158082Y136192D01*
X158103Y136207D01*
G37*
G36*
X168883Y149236D02*
X168883Y149236D01*
X168890Y149235D01*
X169251Y149675D01*
X169252Y149689D01*
X169261Y149696D01*
X169261Y149697D01*
X169374Y150267D01*
X169371Y150274D01*
X169375Y150277D01*
X169376Y153198D01*
X169411Y153766D01*
X169697Y154204D01*
X170254Y154222D01*
X171423Y154222D01*
X171993Y154218D01*
X172428Y153940D01*
X172562Y153402D01*
X172570Y150485D01*
X172571Y150484D01*
X172570Y150483D01*
X172601Y149900D01*
X172610Y149890D01*
X172606Y149882D01*
X172855Y149361D01*
X172885Y149345D01*
X172892Y149334D01*
X173420Y149245D01*
X173461Y149267D01*
X173469Y149267D01*
X173775Y149753D01*
X173773Y149770D01*
X173782Y149775D01*
X173832Y150355D01*
X173830Y150358D01*
X173832Y150360D01*
X173825Y156790D01*
X173821Y156795D01*
X173824Y156798D01*
X173728Y157373D01*
X173714Y157387D01*
X173716Y157398D01*
X173339Y157822D01*
X173313Y157828D01*
X173306Y157839D01*
X172725Y157877D01*
X172722Y157875D01*
X172721Y157877D01*
X169214Y157865D01*
X169194Y157850D01*
X169182Y157852D01*
X168767Y157481D01*
X168763Y157464D01*
X168758Y157460D01*
X168752Y157458D01*
X168589Y156899D01*
X168403Y156372D01*
X167922Y156189D01*
X164423Y156188D01*
X164416Y156183D01*
X164411Y156187D01*
X163856Y156053D01*
X163837Y156029D01*
X163824Y156027D01*
X163566Y155516D01*
X163569Y155502D01*
X163561Y155496D01*
X163540Y154912D01*
X163541Y154911D01*
X163540Y154910D01*
X163545Y150234D01*
X163550Y150226D01*
X163546Y150221D01*
X163695Y149660D01*
X163714Y149646D01*
X163714Y149633D01*
X164161Y149307D01*
X164218Y149308D01*
X164220Y149307D01*
X164660Y149638D01*
X164666Y149658D01*
X164678Y149662D01*
X164860Y150211D01*
X164856Y150222D01*
X164862Y150227D01*
X164871Y153148D01*
X164895Y153720D01*
X165140Y154188D01*
X165689Y154227D01*
X167430Y154227D01*
X167896Y154009D01*
X168023Y153474D01*
X168035Y150557D01*
X168036Y150555D01*
X168035Y150554D01*
X168069Y149972D01*
X168077Y149963D01*
X168073Y149955D01*
X168298Y149422D01*
X168323Y149407D01*
X168327Y149394D01*
X168836Y149220D01*
X168883Y149236D01*
G37*
G36*
X161993Y642798D02*
X161993Y642798D01*
X161995Y642797D01*
X162525Y642833D01*
X162528Y642835D01*
X162530Y642833D01*
X163054Y642921D01*
X163057Y642924D01*
X163060Y642922D01*
X163568Y643077D01*
X163572Y643082D01*
X163576Y643080D01*
X164050Y643318D01*
X164054Y643326D01*
X164060Y643324D01*
X164462Y643669D01*
X164464Y643679D01*
X164472Y643680D01*
X164757Y644125D01*
X164757Y644136D01*
X164763Y644138D01*
X164912Y644647D01*
X164910Y644653D01*
X164913Y644655D01*
X164911Y644657D01*
X164914Y644658D01*
X164937Y645175D01*
X164937Y645176D01*
X164927Y645190D01*
X164932Y645196D01*
X164933Y645197D01*
X164932Y645197D01*
X164936Y645200D01*
X164929Y645205D01*
X164935Y645211D01*
X164848Y645722D01*
X164841Y645728D01*
X164844Y645734D01*
X164617Y646213D01*
X164608Y646218D01*
X164610Y646225D01*
X164261Y646624D01*
X164252Y646625D01*
X164252Y646632D01*
X163813Y646930D01*
X163806Y646930D01*
X163805Y646935D01*
X163318Y647147D01*
X163312Y647145D01*
X163311Y647149D01*
X162796Y647280D01*
X162793Y647279D01*
X162792Y647279D01*
X162791Y647281D01*
X162264Y647352D01*
X162261Y647351D01*
X162260Y647353D01*
X161729Y647376D01*
X161726Y647374D01*
X161725Y647376D01*
X161200Y647359D01*
X161197Y647357D01*
X161196Y647359D01*
X160668Y647299D01*
X160665Y647296D01*
X160662Y647298D01*
X160145Y647178D01*
X160141Y647174D01*
X160138Y647176D01*
X159644Y646981D01*
X159640Y646975D01*
X159636Y646977D01*
X159190Y646689D01*
X159186Y646680D01*
X159180Y646681D01*
X158825Y646288D01*
X158824Y646277D01*
X158817Y646275D01*
X158600Y645792D01*
X158602Y645783D01*
X158596Y645779D01*
X158514Y645256D01*
X158518Y645249D01*
X158514Y645245D01*
X158545Y644728D01*
X158554Y644717D01*
X158550Y644713D01*
X158560Y644703D01*
X158552Y644692D01*
X158704Y644197D01*
X158712Y644191D01*
X158710Y644185D01*
X159000Y643742D01*
X159009Y643739D01*
X159009Y643732D01*
X159406Y643381D01*
X159414Y643380D01*
X159415Y643374D01*
X159882Y643122D01*
X159888Y643123D01*
X159890Y643118D01*
X160394Y642952D01*
X160399Y642954D01*
X160400Y642950D01*
X160922Y642850D01*
X160925Y642851D01*
X160926Y642849D01*
X161456Y642800D01*
X161458Y642801D01*
X161460Y642799D01*
X161991Y642797D01*
X161993Y642798D01*
G37*
G36*
X61209Y400815D02*
X61209Y400815D01*
X61236Y400836D01*
X61250Y400836D01*
X61524Y401231D01*
X61521Y401290D01*
X61513Y401290D01*
X61513Y401298D01*
X61127Y401594D01*
X61105Y401594D01*
X61098Y401604D01*
X60038Y401608D01*
X59797Y401678D01*
X60083Y402033D01*
X60083Y402049D01*
X60093Y402053D01*
X60207Y402568D01*
X60201Y402581D01*
X60208Y402587D01*
X60117Y403108D01*
X60105Y403119D01*
X60108Y403128D01*
X59801Y403561D01*
X59797Y403562D01*
X59798Y403564D01*
X59446Y403965D01*
X59438Y403967D01*
X59438Y403972D01*
X59017Y404287D01*
X58999Y404287D01*
X58994Y404297D01*
X58470Y404368D01*
X58466Y404366D01*
X58463Y404369D01*
X57396Y404365D01*
X57386Y404357D01*
X57379Y404362D01*
X56886Y404172D01*
X56878Y404160D01*
X56869Y404161D01*
X56496Y403781D01*
X56496Y403779D01*
X56494Y403779D01*
X56146Y403375D01*
X56145Y403365D01*
X56139Y403364D01*
X55910Y402890D01*
X55910Y402887D01*
X55909Y402886D01*
X55911Y402883D01*
X55913Y402874D01*
X55905Y402868D01*
X55909Y402350D01*
X55920Y402336D01*
X55915Y402331D01*
X55927Y402320D01*
X55919Y402305D01*
X56141Y401841D01*
X56144Y401840D01*
X56143Y401838D01*
X56290Y401577D01*
X55918Y401337D01*
X55912Y401320D01*
X55899Y401310D01*
X55905Y401302D01*
X55904Y401298D01*
X55896Y401290D01*
X55920Y401074D01*
X55944Y401048D01*
X55947Y401035D01*
X56386Y400810D01*
X56402Y400812D01*
X56409Y400804D01*
X61209Y400815D01*
G37*
G36*
X58658Y338386D02*
X58658Y338386D01*
X58663Y338390D01*
X58666Y338387D01*
X59180Y338473D01*
X59192Y338486D01*
X59202Y338483D01*
X59612Y338804D01*
X59614Y338813D01*
X59621Y338813D01*
X59934Y339233D01*
X59934Y339248D01*
X59943Y339252D01*
X60047Y339764D01*
X60044Y339771D01*
X60048Y339774D01*
X60044Y340300D01*
X60037Y340309D01*
X60042Y340315D01*
X59886Y340812D01*
X59877Y340818D01*
X59879Y340825D01*
X59643Y341163D01*
X60009Y341392D01*
X60020Y341419D01*
X60028Y341425D01*
X60024Y341430D01*
X60030Y341447D01*
X60024Y341450D01*
X60027Y341456D01*
X59811Y341884D01*
X59775Y341901D01*
X59768Y341911D01*
X59244Y341928D01*
X59243Y341927D01*
X59243Y341928D01*
X55032Y341927D01*
X55017Y341915D01*
X55006Y341919D01*
X54603Y341662D01*
X54587Y341619D01*
X54580Y341613D01*
X54620Y341368D01*
X54647Y341343D01*
X54650Y341330D01*
X55106Y341144D01*
X55115Y341146D01*
X55118Y341143D01*
X55122Y341143D01*
X55125Y341140D01*
X56169Y341136D01*
X56397Y341053D01*
X56135Y340677D01*
X56136Y340669D01*
X56129Y340664D01*
X56133Y340660D01*
X56127Y340657D01*
X56050Y340152D01*
X56058Y340138D01*
X56048Y340129D01*
X56053Y340125D01*
X56049Y340122D01*
X56050Y340121D01*
X56048Y340120D01*
X56053Y339606D01*
X56061Y339596D01*
X56056Y339589D01*
X56238Y339102D01*
X56249Y339095D01*
X56247Y339087D01*
X56590Y338688D01*
X56602Y338685D01*
X56603Y338677D01*
X57058Y338424D01*
X57073Y338427D01*
X57079Y338418D01*
X57602Y338385D01*
X57604Y338387D01*
X57605Y338385D01*
X58658Y338386D01*
G37*
G36*
X159536Y634890D02*
X159536Y634890D01*
X159542Y634887D01*
X160025Y635096D01*
X160042Y635126D01*
X160054Y635131D01*
X160128Y635483D01*
X160117Y635504D01*
X160123Y635516D01*
X159662Y636370D01*
X163851Y636370D01*
X163872Y636274D01*
X163872Y635226D01*
X163908Y635179D01*
X163909Y635180D01*
X163910Y635178D01*
X164337Y635078D01*
X164340Y635080D01*
X164353Y635080D01*
X164362Y635087D01*
X164371Y635083D01*
X164713Y635268D01*
X164729Y635304D01*
X164739Y635311D01*
X164739Y638997D01*
X164703Y639044D01*
X164695Y639039D01*
X164690Y639046D01*
X164166Y639049D01*
X164143Y639032D01*
X164129Y639033D01*
X163879Y638757D01*
X163878Y638745D01*
X163868Y638738D01*
X163874Y638730D01*
X163866Y638724D01*
X163866Y637715D01*
X163434Y637673D01*
X158697Y637673D01*
X158669Y637651D01*
X158656Y637651D01*
X158446Y637334D01*
X158447Y637314D01*
X158441Y637309D01*
X158443Y637306D01*
X158438Y637302D01*
X158492Y636788D01*
X158501Y636779D01*
X158498Y636770D01*
X159479Y634909D01*
X159533Y634884D01*
X159536Y634890D01*
G37*
G36*
X58150Y348791D02*
X58150Y348791D01*
X58151Y348792D01*
X58152Y348791D01*
X58681Y348818D01*
X58693Y348827D01*
X58701Y348823D01*
X59167Y349067D01*
X59172Y349079D01*
X59181Y349079D01*
X59524Y349483D01*
X59525Y349495D01*
X59533Y349497D01*
X59730Y349984D01*
X59726Y349996D01*
X59733Y350001D01*
X59746Y350531D01*
X59742Y350537D01*
X59745Y350540D01*
X59660Y351060D01*
X59649Y351071D01*
X59652Y351080D01*
X59386Y351459D01*
X59612Y351539D01*
X60122Y351540D01*
X60534Y351311D01*
X60710Y350864D01*
X60714Y349812D01*
X60717Y349807D01*
X60714Y349804D01*
X60795Y349293D01*
X60838Y349252D01*
X60838Y349253D01*
X60839Y349252D01*
X61316Y349206D01*
X61366Y349237D01*
X61365Y349240D01*
X61368Y349242D01*
X61504Y349729D01*
X61501Y349738D01*
X61506Y349743D01*
X61507Y350804D01*
X61504Y350807D01*
X61507Y350810D01*
X61450Y351334D01*
X61439Y351345D01*
X61443Y351355D01*
X61163Y351801D01*
X61155Y351804D01*
X61156Y351810D01*
X60775Y352177D01*
X60758Y352179D01*
X60755Y352188D01*
X60251Y352334D01*
X60243Y352331D01*
X60240Y352335D01*
X60238Y352335D01*
X60237Y352336D01*
X56521Y352337D01*
X56520Y352335D01*
X56519Y352335D01*
X56507Y352326D01*
X56497Y352331D01*
X56070Y352091D01*
X56055Y352057D01*
X56050Y352053D01*
X56052Y352051D01*
X56046Y352036D01*
X56053Y352033D01*
X56049Y352026D01*
X56259Y351599D01*
X56317Y351374D01*
X56076Y350929D01*
X56077Y350924D01*
X56073Y350920D01*
X56078Y350914D01*
X56071Y350909D01*
X56035Y350381D01*
X56063Y350339D01*
X56064Y350333D01*
X56766Y350024D01*
X56770Y350025D01*
X56773Y350022D01*
X56780Y350027D01*
X56785Y350021D01*
X56786Y350021D01*
X56802Y350033D01*
X56824Y350038D01*
X56821Y350048D01*
X56833Y350057D01*
X56827Y350064D01*
X56835Y350070D01*
X56828Y350589D01*
X57052Y351027D01*
X57384Y351414D01*
X57847Y351539D01*
X58332Y351473D01*
X58671Y351093D01*
X58949Y350673D01*
X58951Y350170D01*
X58718Y349750D01*
X58273Y349586D01*
X57242Y349599D01*
X56889Y349960D01*
X56866Y349963D01*
X56859Y349974D01*
X56094Y350058D01*
X56088Y350055D01*
X56083Y350058D01*
X56077Y350048D01*
X56043Y350027D01*
X56054Y350009D01*
X56042Y349990D01*
X56238Y349502D01*
X56248Y349496D01*
X56246Y349488D01*
X56592Y349086D01*
X56604Y349083D01*
X56606Y349075D01*
X57068Y348826D01*
X57083Y348828D01*
X57088Y348820D01*
X57616Y348789D01*
X57618Y348791D01*
X57619Y348789D01*
X58150Y348791D01*
G37*
G36*
X59163Y364419D02*
X59163Y364419D01*
X59174Y364429D01*
X59183Y364424D01*
X59651Y364665D01*
X59658Y364680D01*
X59669Y364681D01*
X59959Y365106D01*
X59958Y365125D01*
X59967Y365127D01*
X59962Y365143D01*
X59976Y365151D01*
X60036Y365662D01*
X60035Y365665D01*
X60034Y365666D01*
X60037Y365668D01*
X60036Y366201D01*
X60033Y366204D01*
X60036Y366206D01*
X59976Y366726D01*
X59966Y366737D01*
X59970Y366745D01*
X59725Y367176D01*
X60032Y367497D01*
X60038Y367556D01*
X60032Y367557D01*
X60033Y367563D01*
X59717Y367922D01*
X59687Y367929D01*
X59679Y367939D01*
X57018Y367843D01*
X57009Y367836D01*
X57002Y367840D01*
X56510Y367652D01*
X56500Y367637D01*
X56489Y367638D01*
X56149Y367236D01*
X56148Y367225D01*
X56140Y367219D01*
X56142Y367216D01*
X56138Y367214D01*
X56036Y366697D01*
X56040Y366691D01*
X56036Y366688D01*
X56035Y366155D01*
X56034Y365704D01*
X56039Y365697D01*
X56035Y365692D01*
X56159Y365203D01*
X56206Y365166D01*
X56209Y365171D01*
X56213Y365167D01*
X56691Y365230D01*
X56732Y365270D01*
X56733Y365271D01*
X56813Y365783D01*
X56810Y365788D01*
X56813Y365790D01*
X56824Y366827D01*
X57195Y367062D01*
X57502Y366962D01*
X57484Y366469D01*
X57485Y366468D01*
X57484Y366467D01*
X57484Y365402D01*
X57492Y365392D01*
X57488Y365385D01*
X57674Y364891D01*
X57689Y364882D01*
X57688Y364872D01*
X58083Y364522D01*
X58101Y364521D01*
X58105Y364511D01*
X58619Y364399D01*
X58628Y364403D01*
X58632Y364398D01*
X59163Y364419D01*
G37*
G36*
X59156Y442471D02*
X59156Y442471D01*
X59167Y442481D01*
X59176Y442476D01*
X59648Y442712D01*
X59656Y442727D01*
X59667Y442728D01*
X59959Y443152D01*
X59958Y443171D01*
X59966Y443173D01*
X59962Y443189D01*
X59976Y443197D01*
X60036Y443710D01*
X60034Y443713D01*
X60037Y443715D01*
X60036Y444249D01*
X60033Y444252D01*
X60035Y444254D01*
X59976Y444776D01*
X59966Y444786D01*
X59969Y444795D01*
X59723Y445225D01*
X60030Y445537D01*
X60038Y445596D01*
X60031Y445597D01*
X60033Y445603D01*
X59727Y445973D01*
X59695Y445981D01*
X59687Y445991D01*
X58088Y445938D01*
X58087Y445937D01*
X58087Y445938D01*
X57022Y445883D01*
X57013Y445876D01*
X57007Y445880D01*
X56512Y445699D01*
X56502Y445684D01*
X56491Y445685D01*
X56149Y445284D01*
X56148Y445274D01*
X56144Y445271D01*
X56148Y445266D01*
X56138Y445261D01*
X56036Y444744D01*
X56040Y444738D01*
X56036Y444735D01*
X56035Y444201D01*
X56034Y443755D01*
X56039Y443748D01*
X56035Y443743D01*
X56157Y443252D01*
X56203Y443214D01*
X56207Y443219D01*
X56210Y443215D01*
X56687Y443270D01*
X56730Y443311D01*
X56813Y443825D01*
X56810Y443830D01*
X56813Y443833D01*
X56821Y444873D01*
X57190Y445115D01*
X57506Y445024D01*
X57490Y443463D01*
X57498Y443453D01*
X57493Y443446D01*
X57667Y442948D01*
X57682Y442938D01*
X57681Y442927D01*
X58074Y442575D01*
X58091Y442574D01*
X58096Y442564D01*
X58611Y442452D01*
X58620Y442456D01*
X58624Y442451D01*
X59156Y442471D01*
G37*
G36*
X58837Y395604D02*
X58837Y395604D01*
X58843Y395599D01*
X59342Y395771D01*
X59351Y395784D01*
X59362Y395783D01*
X59732Y396164D01*
X59733Y396173D01*
X59739Y396174D01*
X59997Y396634D01*
X59995Y396649D01*
X60003Y396654D01*
X60047Y397183D01*
X60045Y397185D01*
X60047Y397187D01*
X60043Y398786D01*
X60025Y398811D01*
X60025Y398824D01*
X59655Y399132D01*
X59632Y399133D01*
X59625Y399143D01*
X59622Y399143D01*
X59612Y399134D01*
X59596Y399135D01*
X59595Y399126D01*
X59587Y399127D01*
X59269Y398766D01*
X59268Y398742D01*
X59257Y398734D01*
X59252Y397141D01*
X59109Y396678D01*
X58746Y396426D01*
X58584Y396702D01*
X58578Y398821D01*
X58558Y398848D01*
X58558Y398861D01*
X58170Y399143D01*
X58149Y399143D01*
X58141Y399153D01*
X57608Y399157D01*
X57606Y399155D01*
X57605Y399157D01*
X57075Y399122D01*
X57063Y399112D01*
X57054Y399116D01*
X56594Y398859D01*
X56589Y398848D01*
X56580Y398848D01*
X56234Y398443D01*
X56234Y398430D01*
X56226Y398427D01*
X56045Y397931D01*
X56047Y397927D01*
X56044Y397925D01*
X56048Y397919D01*
X56042Y397915D01*
X56035Y397382D01*
X56041Y397374D01*
X56038Y397364D01*
X56051Y397360D01*
X56070Y397334D01*
X56090Y397348D01*
X56113Y397341D01*
X56809Y397842D01*
X56812Y397852D01*
X56819Y397852D01*
X57129Y398261D01*
X57580Y398369D01*
X57813Y398137D01*
X57813Y396587D01*
X57514Y396422D01*
X57078Y396575D01*
X56831Y396992D01*
X56829Y397512D01*
X56827Y397515D01*
X56829Y397518D01*
X56821Y397523D01*
X56793Y397559D01*
X56778Y397548D01*
X56761Y397557D01*
X56066Y397263D01*
X56052Y397239D01*
X56047Y397235D01*
X56048Y397233D01*
X56040Y397218D01*
X56036Y397214D01*
X56074Y396684D01*
X56083Y396673D01*
X56079Y396665D01*
X56324Y396198D01*
X56333Y396194D01*
X56332Y396187D01*
X56701Y395804D01*
X56716Y395802D01*
X56719Y395792D01*
X57210Y395600D01*
X57223Y395604D01*
X57228Y395597D01*
X58827Y395597D01*
X58837Y395604D01*
G37*
G36*
X58837Y426823D02*
X58837Y426823D01*
X58843Y426819D01*
X59343Y426983D01*
X59352Y426997D01*
X59363Y426995D01*
X59734Y427371D01*
X59735Y427380D01*
X59742Y427381D01*
X59998Y427840D01*
X59996Y427855D01*
X60004Y427860D01*
X60047Y428388D01*
X60045Y428391D01*
X60047Y428392D01*
X60043Y429988D01*
X60025Y430013D01*
X60025Y430026D01*
X59655Y430332D01*
X59595Y430335D01*
X59595Y430326D01*
X59587Y430327D01*
X59270Y429971D01*
X59268Y429946D01*
X59257Y429939D01*
X59252Y428350D01*
X59106Y427889D01*
X58745Y427641D01*
X58584Y427919D01*
X58577Y430034D01*
X58556Y430061D01*
X58556Y430074D01*
X58162Y430349D01*
X58141Y430348D01*
X58134Y430358D01*
X57602Y430359D01*
X57600Y430358D01*
X57599Y430359D01*
X57070Y430331D01*
X57057Y430321D01*
X57048Y430325D01*
X56591Y430065D01*
X56586Y430053D01*
X56577Y430054D01*
X56233Y429649D01*
X56232Y429640D01*
X56228Y429637D01*
X56229Y429636D01*
X56224Y429634D01*
X56045Y429138D01*
X56048Y429127D01*
X56042Y429122D01*
X56035Y428590D01*
X56041Y428582D01*
X56038Y428573D01*
X56051Y428569D01*
X56070Y428542D01*
X56090Y428557D01*
X56113Y428550D01*
X56808Y429044D01*
X56812Y429055D01*
X56819Y429055D01*
X57130Y429462D01*
X57580Y429574D01*
X57813Y429343D01*
X57813Y427796D01*
X57516Y427631D01*
X57079Y427778D01*
X56831Y428195D01*
X56829Y428713D01*
X56827Y428716D01*
X56829Y428719D01*
X56822Y428723D01*
X56793Y428761D01*
X56778Y428749D01*
X56761Y428759D01*
X56066Y428474D01*
X56039Y428428D01*
X56036Y428425D01*
X56076Y427896D01*
X56086Y427886D01*
X56082Y427877D01*
X56329Y427413D01*
X56338Y427409D01*
X56337Y427402D01*
X56704Y427019D01*
X56719Y427017D01*
X56722Y427007D01*
X57214Y426821D01*
X57226Y426824D01*
X57232Y426817D01*
X58828Y426816D01*
X58837Y426823D01*
G37*
G36*
X159953Y629252D02*
X159953Y629252D01*
X159969Y629242D01*
X164422Y630982D01*
X164431Y630996D01*
X164442Y630996D01*
X164727Y631332D01*
X164727Y631341D01*
X164730Y631343D01*
X164728Y631347D01*
X164728Y631356D01*
X164739Y631364D01*
X164739Y631895D01*
X164722Y631917D01*
X164724Y631930D01*
X164403Y632243D01*
X164390Y632245D01*
X164387Y632254D01*
X160432Y633808D01*
X160430Y633808D01*
X160429Y633809D01*
X159966Y633958D01*
X159965Y633957D01*
X159965Y633958D01*
X159962Y633956D01*
X159910Y633938D01*
X159916Y633921D01*
X159902Y633911D01*
X159902Y633380D01*
X159911Y633368D01*
X159906Y633359D01*
X160091Y632956D01*
X160115Y632943D01*
X160118Y632930D01*
X163106Y631822D01*
X163108Y631822D01*
X163108Y631821D01*
X163563Y631672D01*
X163526Y631577D01*
X163044Y631417D01*
X163043Y631416D01*
X163042Y631417D01*
X160052Y630315D01*
X160033Y630286D01*
X160021Y630281D01*
X159904Y629832D01*
X159907Y629823D01*
X159902Y629819D01*
X159902Y629288D01*
X159904Y629286D01*
X159902Y629283D01*
X159909Y629279D01*
X159938Y629240D01*
X159953Y629252D01*
G37*
G36*
X58462Y379993D02*
X58462Y379993D01*
X58463Y379992D01*
X58985Y380009D01*
X58997Y380018D01*
X59005Y380014D01*
X59475Y380236D01*
X59481Y380248D01*
X59490Y380247D01*
X59837Y380638D01*
X59838Y380650D01*
X59846Y380651D01*
X60052Y381128D01*
X60048Y381142D01*
X60056Y381147D01*
X60072Y382193D01*
X60066Y382201D01*
X60070Y382206D01*
X59946Y382709D01*
X59934Y382719D01*
X59936Y382728D01*
X59608Y383135D01*
X59599Y383137D01*
X59599Y383143D01*
X59183Y383452D01*
X59165Y383452D01*
X59160Y383461D01*
X58646Y383535D01*
X58641Y383532D01*
X58639Y383535D01*
X57591Y383536D01*
X57589Y383534D01*
X57588Y383536D01*
X57067Y383498D01*
X57056Y383488D01*
X57054Y383488D01*
X57046Y383491D01*
X56600Y383229D01*
X56595Y383218D01*
X56588Y383219D01*
X56243Y382826D01*
X56243Y382816D01*
X56238Y382813D01*
X56235Y382812D01*
X56042Y382329D01*
X56044Y382322D01*
X56040Y382320D01*
X56044Y382315D01*
X56039Y382311D01*
X56035Y381788D01*
X56071Y381740D01*
X56078Y381746D01*
X56084Y381738D01*
X56780Y381735D01*
X56827Y381771D01*
X56822Y381778D01*
X56829Y381783D01*
X56846Y382286D01*
X57158Y382660D01*
X57646Y382721D01*
X58678Y382722D01*
X59090Y382506D01*
X59274Y382071D01*
X59274Y381564D01*
X59152Y381104D01*
X58782Y380811D01*
X57752Y380806D01*
X57253Y380827D01*
X56910Y381162D01*
X56829Y381648D01*
X56785Y381688D01*
X56776Y381678D01*
X56764Y381686D01*
X56072Y381455D01*
X56039Y381406D01*
X56044Y381402D01*
X56040Y381397D01*
X56156Y380891D01*
X56167Y380882D01*
X56164Y380873D01*
X56469Y380451D01*
X56477Y380448D01*
X56477Y380442D01*
X56874Y380108D01*
X56891Y380107D01*
X56896Y380097D01*
X57404Y379994D01*
X57411Y379997D01*
X57414Y379993D01*
X58461Y379992D01*
X58462Y379993D01*
G37*
G36*
X59166Y411298D02*
X59166Y411298D01*
X59172Y411292D01*
X59639Y411371D01*
X59659Y411393D01*
X59673Y411394D01*
X59942Y411844D01*
X59941Y411857D01*
X59949Y411861D01*
X60043Y412376D01*
X60040Y412382D01*
X60044Y412385D01*
X60045Y413440D01*
X60042Y413443D01*
X60044Y413445D01*
X59990Y413967D01*
X59980Y413978D01*
X59983Y413987D01*
X59710Y414433D01*
X59694Y414439D01*
X59693Y414449D01*
X59242Y414713D01*
X59225Y414710D01*
X59219Y414719D01*
X58697Y414731D01*
X58682Y414721D01*
X58672Y414725D01*
X58212Y414480D01*
X58205Y414466D01*
X58195Y414465D01*
X57891Y414040D01*
X57891Y414033D01*
X57886Y414031D01*
X57246Y412585D01*
X57045Y412172D01*
X56815Y412366D01*
X56815Y413396D01*
X56876Y413897D01*
X57099Y414336D01*
X57088Y414395D01*
X57084Y414394D01*
X57084Y414399D01*
X56696Y414676D01*
X56636Y414674D01*
X56636Y414673D01*
X56241Y414343D01*
X56237Y414326D01*
X56226Y414323D01*
X56038Y413834D01*
X56042Y413822D01*
X56035Y413816D01*
X56033Y412234D01*
X56040Y412225D01*
X56035Y412219D01*
X56193Y411725D01*
X56209Y411713D01*
X56209Y411701D01*
X56619Y411382D01*
X56639Y411381D01*
X56646Y411371D01*
X57163Y411337D01*
X57170Y411341D01*
X57174Y411341D01*
X57182Y411347D01*
X57192Y411344D01*
X57639Y411609D01*
X57646Y411625D01*
X57657Y411627D01*
X57914Y412084D01*
X57914Y412087D01*
X57916Y412088D01*
X58559Y413530D01*
X58818Y413925D01*
X59211Y413801D01*
X59260Y413320D01*
X59255Y412279D01*
X59022Y411826D01*
X59026Y411803D01*
X59017Y411794D01*
X59116Y411331D01*
X59161Y411292D01*
X59166Y411298D01*
G37*
G36*
X59459Y421619D02*
X59459Y421619D01*
X59467Y421625D01*
X59473Y421621D01*
X59958Y421762D01*
X59983Y421796D01*
X59991Y421802D01*
X59990Y421804D01*
X59994Y421810D01*
X59990Y421813D01*
X59994Y421816D01*
X59935Y422290D01*
X59896Y422330D01*
X59894Y422333D01*
X59385Y422425D01*
X59379Y422422D01*
X59376Y422426D01*
X57788Y422428D01*
X57398Y422635D01*
X56849Y423518D01*
X56838Y424012D01*
X57192Y424281D01*
X59308Y424359D01*
X59311Y424361D01*
X59312Y424359D01*
X59836Y424418D01*
X59869Y424449D01*
X59878Y424453D01*
X60021Y424916D01*
X60000Y424972D01*
X59994Y424970D01*
X59992Y424976D01*
X59533Y425165D01*
X59526Y425163D01*
X59525Y425164D01*
X59516Y425164D01*
X59512Y425169D01*
X57380Y425099D01*
X57378Y425098D01*
X57377Y425099D01*
X56848Y425050D01*
X56836Y425040D01*
X56827Y425044D01*
X56373Y424775D01*
X56367Y424759D01*
X56356Y424758D01*
X56087Y424304D01*
X56088Y424296D01*
X56082Y424291D01*
X56085Y424286D01*
X56080Y424283D01*
X56036Y423754D01*
X56040Y423747D01*
X56036Y423743D01*
X56106Y423218D01*
X56116Y423208D01*
X56112Y423200D01*
X56379Y422742D01*
X56528Y422406D01*
X56110Y422238D01*
X56079Y422187D01*
X56085Y422184D01*
X56081Y422178D01*
X56224Y421710D01*
X56261Y421684D01*
X56266Y421676D01*
X56787Y421618D01*
X56791Y421621D01*
X56793Y421618D01*
X59459Y421619D01*
G37*
G36*
X59461Y385210D02*
X59461Y385210D01*
X59469Y385216D01*
X59474Y385211D01*
X59960Y385352D01*
X59987Y385388D01*
X59992Y385393D01*
X59991Y385394D01*
X59995Y385399D01*
X59992Y385402D01*
X59995Y385405D01*
X59937Y385879D01*
X59899Y385918D01*
X59897Y385921D01*
X59389Y386015D01*
X59383Y386012D01*
X59380Y386016D01*
X57793Y386019D01*
X57401Y386223D01*
X56850Y387104D01*
X56838Y387598D01*
X57189Y387872D01*
X59303Y387946D01*
X59306Y387948D01*
X59307Y387946D01*
X59830Y388005D01*
X59862Y388035D01*
X59872Y388038D01*
X60022Y388498D01*
X60003Y388554D01*
X59996Y388552D01*
X59995Y388558D01*
X59537Y388750D01*
X59523Y388746D01*
X59517Y388754D01*
X57386Y388683D01*
X57384Y388682D01*
X57383Y388683D01*
X56854Y388637D01*
X56843Y388627D01*
X56834Y388631D01*
X56376Y388369D01*
X56369Y388352D01*
X56358Y388351D01*
X56089Y387897D01*
X56090Y387887D01*
X56084Y387882D01*
X56086Y387879D01*
X56082Y387876D01*
X56036Y387348D01*
X56040Y387341D01*
X56036Y387337D01*
X56105Y386812D01*
X56115Y386802D01*
X56111Y386794D01*
X56375Y386334D01*
X56531Y385996D01*
X56110Y385829D01*
X56079Y385778D01*
X56085Y385774D01*
X56081Y385769D01*
X56227Y385301D01*
X56264Y385275D01*
X56269Y385267D01*
X56790Y385209D01*
X56794Y385211D01*
X56795Y385209D01*
X59461Y385210D01*
G37*
G36*
X56865Y447650D02*
X56865Y447650D01*
X56865Y447649D01*
X58998Y447720D01*
X59005Y447726D01*
X59011Y447722D01*
X59515Y447875D01*
X59526Y447890D01*
X59537Y447888D01*
X59900Y448272D01*
X59902Y448289D01*
X59911Y448293D01*
X60047Y448803D01*
X60043Y448812D01*
X60049Y448816D01*
X60041Y449349D01*
X60033Y449360D01*
X60038Y449367D01*
X59836Y449856D01*
X59830Y449860D01*
X59832Y449864D01*
X59570Y450274D01*
X59795Y450429D01*
X59800Y450445D01*
X59811Y450446D01*
X60039Y450878D01*
X60038Y450883D01*
X60042Y450886D01*
X60036Y450893D01*
X60029Y450937D01*
X60021Y450935D01*
X60019Y450944D01*
X59594Y451183D01*
X59577Y451181D01*
X59570Y451190D01*
X56369Y451186D01*
X56343Y451166D01*
X56330Y451166D01*
X56046Y450770D01*
X56047Y450765D01*
X56046Y450765D01*
X56047Y450764D01*
X56048Y450711D01*
X56056Y450711D01*
X56056Y450703D01*
X56440Y450398D01*
X56463Y450398D01*
X56470Y450388D01*
X58572Y450374D01*
X59127Y449502D01*
X59261Y449027D01*
X59130Y448586D01*
X58644Y448515D01*
X56514Y448430D01*
X56500Y448419D01*
X56490Y448422D01*
X56073Y448163D01*
X56052Y448108D01*
X56059Y448105D01*
X56056Y448097D01*
X56290Y447681D01*
X56325Y447665D01*
X56332Y447656D01*
X56863Y447649D01*
X56865Y447650D01*
G37*
G36*
X56690Y359296D02*
X56690Y359296D01*
X56737Y359333D01*
X56736Y359333D01*
X56737Y359334D01*
X56844Y359796D01*
X57241Y359884D01*
X58802Y359885D01*
X58805Y359887D01*
X58807Y359885D01*
X59324Y359935D01*
X59336Y359946D01*
X59345Y359943D01*
X59780Y360222D01*
X59786Y360238D01*
X59797Y360240D01*
X60043Y360695D01*
X60042Y360699D01*
X60045Y360702D01*
X60041Y360707D01*
X60041Y360710D01*
X60049Y360715D01*
X60083Y361234D01*
X60081Y361236D01*
X60083Y361237D01*
X60077Y361759D01*
X60069Y361769D01*
X60074Y361776D01*
X59893Y362260D01*
X59879Y362269D01*
X59879Y362280D01*
X59488Y362618D01*
X59470Y362619D01*
X59464Y362629D01*
X58966Y362714D01*
X58913Y362686D01*
X58715Y362252D01*
X58728Y362193D01*
X58731Y362194D01*
X58731Y362191D01*
X59125Y361915D01*
X59277Y361471D01*
X59277Y360978D01*
X58966Y360684D01*
X56935Y360684D01*
X56832Y361049D01*
X56822Y362085D01*
X56800Y362114D01*
X56799Y362127D01*
X56394Y362380D01*
X56335Y362375D01*
X56335Y362367D01*
X56328Y362367D01*
X56045Y361983D01*
X56045Y361966D01*
X56037Y361959D01*
X56039Y361957D01*
X56035Y361954D01*
X56035Y360928D01*
X55818Y360681D01*
X55318Y360680D01*
X55302Y360667D01*
X55291Y360671D01*
X54890Y360405D01*
X54884Y360387D01*
X54880Y360383D01*
X54882Y360381D01*
X54870Y360348D01*
X54878Y360346D01*
X54875Y360338D01*
X55125Y359924D01*
X55158Y359911D01*
X55165Y359900D01*
X55680Y359881D01*
X56066Y359788D01*
X56169Y359325D01*
X56214Y359287D01*
X56216Y359289D01*
X56218Y359287D01*
X56690Y359296D01*
G37*
G36*
X56286Y406098D02*
X56286Y406098D01*
X56291Y406094D01*
X56765Y406198D01*
X56799Y406238D01*
X56803Y406240D01*
X56860Y406721D01*
X58961Y406723D01*
X58967Y406728D01*
X58972Y406724D01*
X59489Y406843D01*
X59500Y406857D01*
X59511Y406855D01*
X59901Y407214D01*
X59904Y407231D01*
X59915Y407235D01*
X60082Y407738D01*
X60078Y407749D01*
X60084Y407753D01*
X60091Y408289D01*
X60089Y408293D01*
X60091Y408295D01*
X60034Y408825D01*
X60022Y408837D01*
X60026Y408847D01*
X59733Y409289D01*
X59717Y409294D01*
X59715Y409305D01*
X59241Y409546D01*
X59211Y409541D01*
X59199Y409547D01*
X58755Y409348D01*
X58734Y409310D01*
X58732Y409308D01*
X58732Y409306D01*
X58727Y409296D01*
X58734Y409292D01*
X58730Y409284D01*
X58912Y408840D01*
X58925Y408832D01*
X58925Y408821D01*
X59279Y408508D01*
X59283Y408002D01*
X59136Y407564D01*
X58645Y407515D01*
X57061Y407513D01*
X56838Y407768D01*
X56838Y408822D01*
X56822Y408843D01*
X56824Y408856D01*
X56492Y409208D01*
X56433Y409217D01*
X56432Y409210D01*
X56424Y409211D01*
X56053Y408899D01*
X56047Y408872D01*
X56037Y408864D01*
X56038Y408863D01*
X56035Y408861D01*
X56035Y407803D01*
X55844Y407514D01*
X55334Y407511D01*
X55319Y407499D01*
X55308Y407503D01*
X54891Y407237D01*
X54870Y407181D01*
X54880Y407177D01*
X54877Y407167D01*
X55156Y406759D01*
X55187Y406749D01*
X55195Y406738D01*
X55722Y406721D01*
X56083Y406587D01*
X56234Y406127D01*
X56282Y406093D01*
X56286Y406098D01*
G37*
G36*
X56276Y432097D02*
X56276Y432097D01*
X56281Y432092D01*
X56756Y432191D01*
X56773Y432211D01*
X56793Y432226D01*
X56790Y432230D01*
X56791Y432231D01*
X56795Y432233D01*
X56853Y432714D01*
X58952Y432717D01*
X58958Y432722D01*
X58963Y432718D01*
X59479Y432840D01*
X59491Y432853D01*
X59501Y432851D01*
X59894Y433207D01*
X59897Y433225D01*
X59907Y433228D01*
X60075Y433731D01*
X60072Y433742D01*
X60078Y433746D01*
X60083Y434282D01*
X60080Y434286D01*
X60082Y434288D01*
X60024Y434817D01*
X60013Y434829D01*
X60016Y434839D01*
X59726Y435281D01*
X59709Y435287D01*
X59707Y435298D01*
X59236Y435541D01*
X59225Y435539D01*
X59198Y435539D01*
X59193Y435542D01*
X58748Y435340D01*
X58735Y435316D01*
X58722Y435306D01*
X58726Y435300D01*
X58720Y435288D01*
X58727Y435283D01*
X58723Y435276D01*
X58909Y434837D01*
X58922Y434830D01*
X58921Y434820D01*
X59271Y434501D01*
X59274Y433995D01*
X59126Y433560D01*
X58637Y433508D01*
X57055Y433508D01*
X56838Y433769D01*
X56838Y434823D01*
X56822Y434843D01*
X56824Y434856D01*
X56490Y435209D01*
X56431Y435219D01*
X56430Y435211D01*
X56422Y435213D01*
X56052Y434895D01*
X56047Y434870D01*
X56037Y434863D01*
X56039Y434860D01*
X56035Y434858D01*
X56035Y433801D01*
X55846Y433509D01*
X55337Y433507D01*
X55322Y433496D01*
X55311Y433500D01*
X54891Y433242D01*
X54870Y433186D01*
X54879Y433183D01*
X54876Y433173D01*
X55144Y432757D01*
X55176Y432745D01*
X55183Y432734D01*
X55711Y432714D01*
X56077Y432585D01*
X56224Y432126D01*
X56273Y432091D01*
X56276Y432097D01*
G37*
G36*
X54958Y369952D02*
X54958Y369952D01*
X54965Y369950D01*
X55348Y370237D01*
X55356Y370264D01*
X55366Y370272D01*
X55365Y370274D01*
X55368Y370277D01*
X55369Y370775D01*
X55649Y370964D01*
X59256Y370964D01*
X59271Y370501D01*
X59278Y370492D01*
X59274Y370486D01*
X59438Y370022D01*
X59482Y369993D01*
X59484Y369990D01*
X59487Y369990D01*
X59488Y369989D01*
X59488Y369990D01*
X59492Y369992D01*
X59495Y369990D01*
X59959Y370092D01*
X59992Y370131D01*
X59997Y370134D01*
X60062Y370643D01*
X60060Y370647D01*
X60063Y370649D01*
X60063Y372222D01*
X60055Y372232D01*
X60060Y372238D01*
X59896Y372704D01*
X59846Y372737D01*
X59844Y372733D01*
X59840Y372736D01*
X59375Y372646D01*
X59339Y372606D01*
X59335Y372604D01*
X59270Y372101D01*
X59129Y371766D01*
X54968Y371763D01*
X54948Y371747D01*
X54934Y371750D01*
X54589Y371428D01*
X54584Y371400D01*
X54573Y371392D01*
X54568Y370868D01*
X54568Y370867D01*
X54568Y370343D01*
X54583Y370323D01*
X54581Y370310D01*
X54899Y369957D01*
X54957Y369945D01*
X54958Y369952D01*
G37*
G36*
X58546Y390406D02*
X58546Y390406D01*
X58552Y390401D01*
X59058Y390557D01*
X59068Y390571D01*
X59078Y390569D01*
X59462Y390940D01*
X59463Y390944D01*
X59466Y390943D01*
X59812Y391353D01*
X59812Y391362D01*
X59818Y391363D01*
X60055Y391837D01*
X60053Y391852D01*
X60060Y391857D01*
X60085Y392392D01*
X60084Y392393D01*
X60085Y392394D01*
X60086Y392930D01*
X60083Y393467D01*
X60071Y393482D01*
X60075Y393494D01*
X59807Y393901D01*
X59751Y393921D01*
X59748Y393913D01*
X59741Y393916D01*
X59325Y393665D01*
X59312Y393631D01*
X59301Y393624D01*
X59283Y392031D01*
X58971Y391627D01*
X58618Y391257D01*
X58112Y391211D01*
X57597Y391213D01*
X57217Y391548D01*
X56880Y391941D01*
X56825Y392445D01*
X56821Y393515D01*
X56807Y393533D01*
X56811Y393545D01*
X56519Y393929D01*
X56488Y393938D01*
X56482Y393945D01*
X56475Y393945D01*
X56471Y393943D01*
X56461Y393945D01*
X56459Y393937D01*
X56451Y393939D01*
X56056Y393655D01*
X56046Y393623D01*
X56035Y393615D01*
X56040Y392542D01*
X56041Y392541D01*
X56040Y392540D01*
X56066Y392005D01*
X56073Y391997D01*
X56069Y391991D01*
X56241Y391489D01*
X56253Y391481D01*
X56251Y391472D01*
X56952Y390662D01*
X56966Y390659D01*
X56968Y390650D01*
X57445Y390418D01*
X57460Y390421D01*
X57466Y390414D01*
X58537Y390399D01*
X58546Y390406D01*
G37*
G36*
X58548Y374806D02*
X58548Y374806D01*
X58554Y374801D01*
X59057Y374965D01*
X59066Y374978D01*
X59076Y374976D01*
X59462Y375346D01*
X59462Y375349D01*
X59465Y375349D01*
X59812Y375759D01*
X59812Y375767D01*
X59818Y375768D01*
X60057Y376242D01*
X60054Y376257D01*
X60062Y376262D01*
X60088Y376796D01*
X60087Y376798D01*
X60088Y376799D01*
X60089Y377335D01*
X60086Y377872D01*
X60074Y377887D01*
X60078Y377899D01*
X59809Y378305D01*
X59752Y378324D01*
X59750Y378316D01*
X59742Y378320D01*
X59329Y378067D01*
X59315Y378033D01*
X59305Y378026D01*
X59285Y376433D01*
X58975Y376027D01*
X58626Y375652D01*
X58118Y375611D01*
X57602Y375612D01*
X57220Y375937D01*
X56885Y376331D01*
X56825Y376834D01*
X56821Y377904D01*
X56807Y377921D01*
X56811Y377933D01*
X56524Y378317D01*
X56467Y378334D01*
X56464Y378326D01*
X56456Y378328D01*
X56056Y378050D01*
X56047Y378021D01*
X56037Y378014D01*
X56038Y378012D01*
X56035Y378009D01*
X56040Y376937D01*
X56041Y376935D01*
X56040Y376935D01*
X56066Y376399D01*
X56073Y376391D01*
X56069Y376385D01*
X56242Y375884D01*
X56253Y375876D01*
X56251Y375867D01*
X56952Y375057D01*
X56966Y375054D01*
X56968Y375044D01*
X57446Y374815D01*
X57461Y374818D01*
X57467Y374810D01*
X58538Y374799D01*
X58548Y374806D01*
G37*
G36*
X59588Y354352D02*
X59588Y354352D01*
X59595Y354349D01*
X60018Y354574D01*
X60034Y354609D01*
X60044Y354616D01*
X60060Y355140D01*
X60059Y355141D01*
X60060Y355141D01*
X60060Y356719D01*
X60048Y356734D01*
X60052Y356745D01*
X59803Y357156D01*
X59747Y357178D01*
X59745Y357171D01*
X59738Y357174D01*
X59311Y356959D01*
X59294Y356924D01*
X59284Y356917D01*
X59263Y356412D01*
X59042Y356164D01*
X56434Y356159D01*
X56414Y356144D01*
X56401Y356146D01*
X56053Y355824D01*
X56049Y355796D01*
X56038Y355788D01*
X56035Y355262D01*
X56034Y355046D01*
X56037Y355042D01*
X56035Y355040D01*
X56090Y354529D01*
X56126Y354491D01*
X56128Y354486D01*
X56592Y354380D01*
X56647Y354405D01*
X56644Y354410D01*
X56649Y354411D01*
X56822Y354874D01*
X56818Y354886D01*
X56825Y354891D01*
X56829Y355368D01*
X58877Y355370D01*
X59266Y355285D01*
X59269Y354799D01*
X59280Y354784D01*
X59276Y354773D01*
X59530Y354366D01*
X59586Y354345D01*
X59588Y354352D01*
G37*
G36*
X59587Y343946D02*
X59587Y343946D01*
X59594Y343942D01*
X60008Y344179D01*
X60022Y344211D01*
X60031Y344218D01*
X60031Y344219D01*
X60033Y344220D01*
X60051Y344742D01*
X60050Y344744D01*
X60051Y344744D01*
X60051Y346319D01*
X60040Y346334D01*
X60044Y346345D01*
X59803Y346752D01*
X59748Y346775D01*
X59745Y346768D01*
X59738Y346771D01*
X59313Y346551D01*
X59297Y346517D01*
X59288Y346510D01*
X59286Y346509D01*
X59266Y346006D01*
X59041Y345759D01*
X56437Y345754D01*
X56417Y345739D01*
X56404Y345742D01*
X56054Y345424D01*
X56049Y345396D01*
X56038Y345388D01*
X56035Y344863D01*
X56034Y344654D01*
X56037Y344651D01*
X56035Y344649D01*
X56085Y344137D01*
X56120Y344100D01*
X56123Y344094D01*
X56585Y343980D01*
X56598Y343985D01*
X56600Y343985D01*
X56602Y343987D01*
X56640Y344003D01*
X56638Y344008D01*
X56643Y344010D01*
X56822Y344468D01*
X56818Y344481D01*
X56825Y344486D01*
X56829Y344962D01*
X58875Y344962D01*
X59258Y344873D01*
X59260Y344386D01*
X59272Y344371D01*
X59268Y344360D01*
X59528Y343958D01*
X59584Y343938D01*
X59587Y343946D01*
G37*
%LPC*%
G36*
X162885Y644181D02*
X162885Y644181D01*
X161327Y646275D01*
X161459Y646437D01*
X161755Y646442D01*
X162282Y646424D01*
X162801Y646348D01*
X163298Y646191D01*
X163742Y645931D01*
X164052Y645531D01*
X164140Y645037D01*
X164142Y645035D01*
X164140Y645034D01*
X164011Y644550D01*
X163671Y644174D01*
X163230Y643956D01*
X162885Y644181D01*
G37*
%LPD*%
%LPC*%
G36*
X57217Y401873D02*
X57217Y401873D01*
X56848Y402243D01*
X56694Y402474D01*
X56821Y402929D01*
X57160Y403316D01*
X57577Y403553D01*
X58614Y403554D01*
X59006Y403262D01*
X59333Y402869D01*
X59372Y402393D01*
X59023Y402022D01*
X58652Y401665D01*
X58151Y401610D01*
X57634Y401610D01*
X57217Y401873D01*
G37*
%LPD*%
%LPC*%
G36*
X161492Y643730D02*
X161492Y643730D01*
X160967Y643772D01*
X160454Y643879D01*
X159971Y644069D01*
X159566Y644380D01*
X159338Y644828D01*
X159337Y644829D01*
X159338Y644830D01*
X159335Y645333D01*
X159557Y645784D01*
X159957Y646092D01*
X160377Y646175D01*
X161938Y644065D01*
X162149Y643739D01*
X161706Y643726D01*
X161492Y643730D01*
G37*
%LPD*%
%LPC*%
G36*
X57348Y339190D02*
X57348Y339190D01*
X56961Y339467D01*
X56835Y339679D01*
X56823Y340179D01*
X56823Y340180D01*
X57038Y340614D01*
X57366Y340997D01*
X57828Y341123D01*
X58336Y341123D01*
X58763Y340922D01*
X59091Y340537D01*
X59247Y340077D01*
X59211Y339586D01*
X58879Y339228D01*
X58382Y339187D01*
X57348Y339190D01*
G37*
%LPD*%
G36*
X164451Y640346D02*
X164451Y640346D01*
X164467Y640363D01*
X164480Y640362D01*
X164827Y640771D01*
X164827Y640780D01*
X164830Y640783D01*
X164827Y640786D01*
X164828Y640795D01*
X164838Y640803D01*
X164838Y641342D01*
X164824Y641361D01*
X164827Y641373D01*
X164482Y641783D01*
X164459Y641789D01*
X164453Y641800D01*
X163925Y641895D01*
X163904Y641884D01*
X163892Y641889D01*
X163425Y641622D01*
X163417Y641602D01*
X163413Y641599D01*
X163404Y641596D01*
X163220Y641092D01*
X163227Y641069D01*
X163220Y641058D01*
X163402Y640554D01*
X163422Y640541D01*
X163423Y640528D01*
X163889Y640261D01*
X163913Y640264D01*
X163922Y640255D01*
X164451Y640346D01*
G37*
G36*
X58880Y438273D02*
X58880Y438273D01*
X58907Y438295D01*
X58920Y438297D01*
X59172Y438708D01*
X59170Y438727D01*
X59180Y438734D01*
X59177Y439259D01*
X59166Y439274D01*
X59170Y439284D01*
X58925Y439704D01*
X58891Y439718D01*
X58884Y439729D01*
X58361Y439748D01*
X58349Y439740D01*
X58342Y439745D01*
X57878Y439568D01*
X57856Y439533D01*
X57847Y439528D01*
X57793Y439014D01*
X57796Y439009D01*
X57797Y439007D01*
X57793Y439004D01*
X57848Y438488D01*
X57875Y438459D01*
X57878Y438447D01*
X58336Y438260D01*
X58350Y438264D01*
X58356Y438257D01*
X58880Y438273D01*
G37*
G36*
X58880Y417470D02*
X58880Y417470D01*
X58908Y417492D01*
X58920Y417494D01*
X59172Y417903D01*
X59171Y417922D01*
X59180Y417929D01*
X59177Y418454D01*
X59166Y418468D01*
X59170Y418478D01*
X58925Y418898D01*
X58891Y418912D01*
X58884Y418922D01*
X58360Y418935D01*
X58357Y418933D01*
X58353Y418933D01*
X58347Y418929D01*
X58342Y418932D01*
X57880Y418761D01*
X57857Y418726D01*
X57848Y418720D01*
X57793Y418208D01*
X57797Y418201D01*
X57793Y418197D01*
X57847Y417682D01*
X57875Y417653D01*
X57878Y417642D01*
X58337Y417459D01*
X58351Y417463D01*
X58356Y417456D01*
X58880Y417470D01*
G37*
%LPC*%
G36*
X58405Y443312D02*
X58405Y443312D01*
X58295Y443772D01*
X58296Y444833D01*
X58296Y444895D01*
X58647Y445143D01*
X58995Y444922D01*
X59250Y444482D01*
X59263Y443967D01*
X59253Y443463D01*
X58868Y443242D01*
X58405Y443312D01*
G37*
%LPD*%
%LPC*%
G36*
X58401Y365269D02*
X58401Y365269D01*
X58295Y365731D01*
X58296Y366790D01*
X58296Y366846D01*
X58650Y367090D01*
X58995Y366865D01*
X59249Y366425D01*
X59263Y365911D01*
X59251Y365409D01*
X58863Y365197D01*
X58401Y365269D01*
G37*
%LPD*%
G36*
X55014Y344638D02*
X55014Y344638D01*
X55027Y344636D01*
X55352Y344983D01*
X55353Y344995D01*
X55361Y345001D01*
X55355Y345010D01*
X55355Y345012D01*
X55365Y345021D01*
X55322Y345538D01*
X55293Y345570D01*
X55290Y345580D01*
X54827Y345756D01*
X54819Y345754D01*
X54797Y345754D01*
X54795Y345752D01*
X54789Y345755D01*
X54341Y345555D01*
X54328Y345532D01*
X54313Y345521D01*
X54315Y345518D01*
X54312Y345516D01*
X54275Y345206D01*
X54282Y345193D01*
X54277Y345185D01*
X54433Y344713D01*
X54469Y344688D01*
X54474Y344679D01*
X54986Y344621D01*
X55014Y344638D01*
G37*
G36*
X55029Y355042D02*
X55029Y355042D01*
X55042Y355040D01*
X55359Y355395D01*
X55360Y355404D01*
X55361Y355405D01*
X55360Y355406D01*
X55361Y355424D01*
X55371Y355433D01*
X55314Y355947D01*
X55285Y355977D01*
X55282Y355988D01*
X54814Y356155D01*
X54804Y356152D01*
X54801Y356157D01*
X54795Y356157D01*
X54785Y356149D01*
X54777Y356153D01*
X54334Y355946D01*
X54317Y355913D01*
X54306Y355906D01*
X54274Y355602D01*
X54283Y355588D01*
X54277Y355580D01*
X54444Y355109D01*
X54480Y355085D01*
X54485Y355076D01*
X55001Y355024D01*
X55029Y355042D01*
G37*
D10*
X140864Y683024D02*
X140526Y682989D01*
D11*
X292100Y673100D02*
X495300Y673100D01*
X698500Y673100D01*
X698500Y622300D01*
X495300Y622300D01*
X292100Y622300D01*
X292100Y673100D01*
X927100Y571500D02*
X927100Y215900D01*
X901700Y215900D01*
X901700Y416560D01*
X876300Y416560D01*
X876300Y488950D01*
X495300Y622300D02*
X495300Y673100D01*
X317500Y673100D02*
X317500Y622300D01*
X342900Y622300D02*
X342900Y673100D01*
X368300Y673100D02*
X368300Y622300D01*
X393700Y622300D02*
X393700Y673100D01*
X419100Y673100D02*
X419100Y622300D01*
X444500Y622300D02*
X444500Y673100D01*
X469900Y673100D02*
X469900Y622300D01*
X520700Y622300D02*
X520700Y673100D01*
X546100Y673100D02*
X546100Y622300D01*
X571500Y622300D02*
X571500Y673100D01*
X596900Y673100D02*
X596900Y622300D01*
X622300Y622300D02*
X622300Y673100D01*
X647700Y673100D02*
X647700Y622300D01*
X673100Y622300D02*
X673100Y673100D01*
X876300Y571500D02*
X876300Y527050D01*
X755650Y571500D02*
X755650Y609600D01*
X755650Y571500D02*
X793750Y571500D01*
X793750Y596900D01*
X831850Y596900D01*
X831850Y571500D01*
X876300Y571500D01*
X863600Y609600D02*
X755650Y609600D01*
X863600Y609600D02*
X927100Y571500D01*
X857250Y527050D02*
X856785Y527085D01*
X856319Y527109D01*
X855853Y527121D01*
X855387Y527122D01*
X854921Y527112D01*
X854455Y527090D01*
X853990Y527057D01*
X853526Y527012D01*
X853063Y526956D01*
X852601Y526889D01*
X852142Y526811D01*
X851684Y526721D01*
X851229Y526621D01*
X850776Y526509D01*
X850326Y526386D01*
X849879Y526253D01*
X849436Y526108D01*
X848996Y525953D01*
X848561Y525787D01*
X848129Y525610D01*
X847702Y525424D01*
X847280Y525226D01*
X846862Y525019D01*
X846450Y524801D01*
X846043Y524573D01*
X845642Y524336D01*
X845246Y524088D01*
X844857Y523832D01*
X844474Y523565D01*
X844098Y523290D01*
X843729Y523005D01*
X843366Y522712D01*
X843011Y522410D01*
X842664Y522099D01*
X842324Y521780D01*
X841992Y521452D01*
X841668Y521117D01*
X841352Y520774D01*
X841045Y520423D01*
X840746Y520065D01*
X840457Y519700D01*
X840176Y519327D01*
X839904Y518948D01*
X839642Y518563D01*
X839389Y518171D01*
X839146Y517773D01*
X838913Y517370D01*
X838689Y516960D01*
X838476Y516546D01*
X838272Y516126D01*
X838079Y515702D01*
X837897Y515273D01*
X837725Y514839D01*
X837563Y514402D01*
X837413Y513961D01*
X837273Y513516D01*
X837144Y513068D01*
X837026Y512617D01*
X836919Y512163D01*
X836823Y511707D01*
X836738Y511248D01*
X836664Y510788D01*
X836602Y510326D01*
X836551Y509862D01*
X836511Y509398D01*
X836483Y508932D01*
X836466Y508466D01*
X836460Y508000D01*
X836466Y507534D01*
X836483Y507068D01*
X836511Y506602D01*
X836551Y506138D01*
X836602Y505674D01*
X836664Y505212D01*
X836738Y504752D01*
X836823Y504293D01*
X836919Y503837D01*
X837026Y503383D01*
X837144Y502932D01*
X837273Y502484D01*
X837413Y502039D01*
X837563Y501598D01*
X837725Y501161D01*
X837897Y500727D01*
X838079Y500298D01*
X838272Y499874D01*
X838476Y499454D01*
X838689Y499040D01*
X838913Y498630D01*
X839146Y498227D01*
X839389Y497829D01*
X839642Y497437D01*
X839904Y497052D01*
X840176Y496673D01*
X840457Y496300D01*
X840746Y495935D01*
X841045Y495577D01*
X841352Y495226D01*
X841668Y494883D01*
X841992Y494548D01*
X842324Y494220D01*
X842664Y493901D01*
X843011Y493590D01*
X843366Y493288D01*
X843729Y492995D01*
X844098Y492710D01*
X844474Y492435D01*
X844857Y492168D01*
X845246Y491912D01*
X845642Y491664D01*
X846043Y491427D01*
X846450Y491199D01*
X846862Y490981D01*
X847280Y490774D01*
X847702Y490576D01*
X848129Y490390D01*
X848561Y490213D01*
X848996Y490047D01*
X849436Y489892D01*
X849879Y489747D01*
X850326Y489614D01*
X850776Y489491D01*
X851229Y489379D01*
X851684Y489279D01*
X852142Y489189D01*
X852601Y489111D01*
X853063Y489044D01*
X853526Y488988D01*
X853990Y488943D01*
X854455Y488910D01*
X854921Y488888D01*
X855387Y488878D01*
X855853Y488879D01*
X856319Y488891D01*
X856785Y488915D01*
X857250Y488950D01*
X857250Y527050D02*
X876300Y527050D01*
X876300Y488950D02*
X857250Y488950D01*
M02*
