G04 EAGLE Gerber RS-274X export*
G75*
%MOMM*%
%FSLAX34Y34*%
%LPD*%
%INSoldermask Bottom*%
%IPPOS*%
%AMOC8*
5,1,8,0,0,1.08239X$1,22.5*%
G01*
%ADD10C,1.711200*%
%ADD11C,3.203200*%


D10*
X304800Y127000D03*
X330200Y127000D03*
X355600Y127000D03*
X381000Y127000D03*
X406400Y127000D03*
X431800Y127000D03*
X457200Y127000D03*
X482600Y127000D03*
X508000Y127000D03*
X533400Y127000D03*
X558800Y127000D03*
X584200Y127000D03*
X609600Y127000D03*
X635000Y127000D03*
X660400Y127000D03*
X685800Y127000D03*
X685800Y152400D03*
X660400Y152400D03*
X635000Y152400D03*
X609600Y152400D03*
X584200Y152400D03*
X558800Y152400D03*
X533400Y152400D03*
X508000Y152400D03*
X482600Y152400D03*
X457200Y152400D03*
X431800Y152400D03*
X406400Y152400D03*
X381000Y152400D03*
X355600Y152400D03*
X330200Y152400D03*
X304800Y152400D03*
X304800Y177800D03*
X330200Y177800D03*
X355600Y177800D03*
X381000Y177800D03*
X406400Y177800D03*
X431800Y177800D03*
X457200Y177800D03*
X482600Y177800D03*
X508000Y177800D03*
X533400Y177800D03*
X558800Y177800D03*
X584200Y177800D03*
X609600Y177800D03*
X635000Y177800D03*
X660400Y177800D03*
X685800Y177800D03*
X812800Y203200D03*
X787400Y203200D03*
X762000Y203200D03*
X736600Y203200D03*
X711200Y203200D03*
X685800Y203200D03*
X660400Y203200D03*
X635000Y203200D03*
X609600Y203200D03*
X584200Y203200D03*
X558800Y203200D03*
X533400Y203200D03*
X508000Y203200D03*
X482600Y203200D03*
X457200Y203200D03*
X431800Y203200D03*
X406400Y203200D03*
X381000Y203200D03*
X355600Y203200D03*
X330200Y203200D03*
X304800Y203200D03*
X279400Y203200D03*
X254000Y203200D03*
X228600Y203200D03*
X203200Y203200D03*
X177800Y203200D03*
X76200Y228600D03*
X101600Y228600D03*
X127000Y228600D03*
X152400Y228600D03*
X177800Y228600D03*
X203200Y228600D03*
X228600Y228600D03*
X254000Y228600D03*
X279400Y228600D03*
X304800Y228600D03*
X330200Y228600D03*
X355600Y228600D03*
X381000Y228600D03*
X406400Y228600D03*
X431800Y228600D03*
X457200Y228600D03*
X482600Y228600D03*
X508000Y228600D03*
X533400Y228600D03*
X558800Y228600D03*
X584200Y228600D03*
X609600Y228600D03*
X635000Y228600D03*
X660400Y228600D03*
X685800Y228600D03*
X711200Y228600D03*
X736600Y228600D03*
X762000Y228600D03*
X787400Y228600D03*
X812800Y228600D03*
X838200Y228600D03*
X863600Y228600D03*
X889000Y228600D03*
X914400Y228600D03*
X914400Y254000D03*
X889000Y254000D03*
X863600Y254000D03*
X838200Y254000D03*
X812800Y254000D03*
X787400Y254000D03*
X762000Y254000D03*
X736600Y254000D03*
X711200Y254000D03*
X685800Y254000D03*
X660400Y254000D03*
X635000Y254000D03*
X609600Y254000D03*
X584200Y254000D03*
X558800Y254000D03*
X533400Y254000D03*
X508000Y254000D03*
X482600Y254000D03*
X457200Y254000D03*
X431800Y254000D03*
X406400Y254000D03*
X381000Y254000D03*
X355600Y254000D03*
X330200Y254000D03*
X304800Y254000D03*
X279400Y254000D03*
X254000Y254000D03*
X228600Y254000D03*
X203200Y254000D03*
X177800Y254000D03*
X152400Y254000D03*
X127000Y254000D03*
X101600Y254000D03*
X76200Y254000D03*
X76200Y279400D03*
X101600Y279400D03*
X127000Y279400D03*
X152400Y279400D03*
X177800Y279400D03*
X203200Y279400D03*
X228600Y279400D03*
X254000Y279400D03*
X279400Y279400D03*
X304800Y279400D03*
X330200Y279400D03*
X355600Y279400D03*
X381000Y279400D03*
X406400Y279400D03*
X431800Y279400D03*
X457200Y279400D03*
X482600Y279400D03*
X508000Y279400D03*
X533400Y279400D03*
X558800Y279400D03*
X584200Y279400D03*
X609600Y279400D03*
X635000Y279400D03*
X660400Y279400D03*
X685800Y279400D03*
X711200Y279400D03*
X736600Y279400D03*
X762000Y279400D03*
X787400Y279400D03*
X812800Y279400D03*
X838200Y279400D03*
X863600Y279400D03*
X889000Y279400D03*
X914400Y279400D03*
X914400Y304800D03*
X889000Y304800D03*
X863600Y304800D03*
X838200Y304800D03*
X812800Y304800D03*
X787400Y304800D03*
X762000Y304800D03*
X736600Y304800D03*
X711200Y304800D03*
X685800Y304800D03*
X660400Y304800D03*
X635000Y304800D03*
X609600Y304800D03*
X584200Y304800D03*
X558800Y304800D03*
X533400Y304800D03*
X508000Y304800D03*
X482600Y304800D03*
X457200Y304800D03*
X431800Y304800D03*
X406400Y304800D03*
X381000Y304800D03*
X355600Y304800D03*
X330200Y304800D03*
X304800Y304800D03*
X279400Y304800D03*
X254000Y304800D03*
X228600Y304800D03*
X203200Y304800D03*
X177800Y304800D03*
X152400Y304800D03*
X127000Y304800D03*
X101600Y304800D03*
X76200Y304800D03*
X76200Y330200D03*
X101600Y330200D03*
X127000Y330200D03*
X152400Y330200D03*
X177800Y330200D03*
X203200Y330200D03*
X228600Y330200D03*
X254000Y330200D03*
X279400Y330200D03*
X304800Y330200D03*
X330200Y330200D03*
X355600Y330200D03*
X381000Y330200D03*
X406400Y330200D03*
X431800Y330200D03*
X457200Y330200D03*
X482600Y330200D03*
X508000Y330200D03*
X533400Y330200D03*
X558800Y330200D03*
X584200Y330200D03*
X609600Y330200D03*
X635000Y330200D03*
X660400Y330200D03*
X685800Y330200D03*
X711200Y330200D03*
X736600Y330200D03*
X762000Y330200D03*
X787400Y330200D03*
X812800Y330200D03*
X838200Y330200D03*
X863600Y330200D03*
X889000Y330200D03*
X914400Y330200D03*
X914400Y355600D03*
X889000Y355600D03*
X863600Y355600D03*
X838200Y355600D03*
X736600Y355600D03*
X711200Y355600D03*
X685800Y355600D03*
X660400Y355600D03*
X635000Y355600D03*
X609600Y355600D03*
X584200Y355600D03*
X558800Y355600D03*
X533400Y355600D03*
X508000Y355600D03*
X482600Y355600D03*
X457200Y355600D03*
X431800Y355600D03*
X406400Y355600D03*
X381000Y355600D03*
X355600Y355600D03*
X330200Y355600D03*
X304800Y355600D03*
X279400Y355600D03*
X254000Y355600D03*
X152400Y355600D03*
X127000Y355600D03*
X101600Y355600D03*
X76200Y355600D03*
X152400Y381000D03*
X254000Y381000D03*
X279400Y381000D03*
X304800Y381000D03*
X330200Y381000D03*
X355600Y381000D03*
X381000Y381000D03*
X406400Y381000D03*
X431800Y381000D03*
X457200Y381000D03*
X482600Y381000D03*
X508000Y381000D03*
X533400Y381000D03*
X558800Y381000D03*
X584200Y381000D03*
X609600Y381000D03*
X635000Y381000D03*
X660400Y381000D03*
X685800Y381000D03*
X711200Y381000D03*
X736600Y381000D03*
X838200Y381000D03*
X838200Y406400D03*
X812800Y406400D03*
X787400Y406400D03*
X762000Y406400D03*
X736600Y406400D03*
X711200Y406400D03*
X685800Y406400D03*
X660400Y406400D03*
X635000Y406400D03*
X609600Y406400D03*
X584200Y406400D03*
X558800Y406400D03*
X533400Y406400D03*
X508000Y406400D03*
X482600Y406400D03*
X457200Y406400D03*
X431800Y406400D03*
X406400Y406400D03*
X381000Y406400D03*
X355600Y406400D03*
X330200Y406400D03*
X304800Y406400D03*
X279400Y406400D03*
X254000Y406400D03*
X228600Y406400D03*
X203200Y406400D03*
X177800Y406400D03*
X152400Y406400D03*
X76200Y431800D03*
X101600Y431800D03*
X127000Y431800D03*
X152400Y431800D03*
X177800Y431800D03*
X203200Y431800D03*
X228600Y431800D03*
X254000Y431800D03*
X279400Y431800D03*
X304800Y431800D03*
X330200Y431800D03*
X355600Y431800D03*
X381000Y431800D03*
X406400Y431800D03*
X431800Y431800D03*
X457200Y431800D03*
X482600Y431800D03*
X508000Y431800D03*
X533400Y431800D03*
X558800Y431800D03*
X584200Y431800D03*
X609600Y431800D03*
X635000Y431800D03*
X660400Y431800D03*
X685800Y431800D03*
X711200Y431800D03*
X736600Y431800D03*
X762000Y431800D03*
X787400Y431800D03*
X812800Y431800D03*
X838200Y431800D03*
X863600Y431800D03*
X889000Y431800D03*
X914400Y431800D03*
X914400Y457200D03*
X889000Y457200D03*
X863600Y457200D03*
X838200Y457200D03*
X812800Y457200D03*
X787400Y457200D03*
X762000Y457200D03*
X736600Y457200D03*
X711200Y457200D03*
X685800Y457200D03*
X660400Y457200D03*
X635000Y457200D03*
X609600Y457200D03*
X584200Y457200D03*
X558800Y457200D03*
X533400Y457200D03*
X508000Y457200D03*
X482600Y457200D03*
X457200Y457200D03*
X431800Y457200D03*
X406400Y457200D03*
X381000Y457200D03*
X355600Y457200D03*
X330200Y457200D03*
X304800Y457200D03*
X279400Y457200D03*
X254000Y457200D03*
X228600Y457200D03*
X203200Y457200D03*
X177800Y457200D03*
X152400Y457200D03*
X127000Y457200D03*
X101600Y457200D03*
X76200Y457200D03*
X76200Y482600D03*
X101600Y482600D03*
X152400Y482600D03*
X177800Y482600D03*
X203200Y482600D03*
X228600Y482600D03*
X254000Y482600D03*
X279400Y482600D03*
X304800Y482600D03*
X330200Y482600D03*
X355600Y482600D03*
X381000Y482600D03*
X406400Y482600D03*
X431800Y482600D03*
X457200Y482600D03*
X482600Y482600D03*
X508000Y482600D03*
X533400Y482600D03*
X558800Y482600D03*
X584200Y482600D03*
X635000Y482600D03*
X660400Y482600D03*
X685800Y482600D03*
X711200Y482600D03*
X736600Y482600D03*
X762000Y482600D03*
X787400Y482600D03*
X838200Y482600D03*
X889000Y482600D03*
X914400Y482600D03*
X914400Y508000D03*
X889000Y508000D03*
D11*
X855345Y508000D03*
D10*
X812800Y508000D03*
X787400Y508000D03*
X762000Y508000D03*
X736600Y508000D03*
X711200Y508000D03*
X685800Y508000D03*
X660400Y508000D03*
X635000Y508000D03*
X609600Y508000D03*
X584200Y508000D03*
X558800Y508000D03*
X533400Y508000D03*
X508000Y508000D03*
X482600Y508000D03*
X457200Y508000D03*
X431800Y508000D03*
X406400Y508000D03*
X381000Y508000D03*
X355600Y508000D03*
X330200Y508000D03*
X304800Y508000D03*
X279400Y508000D03*
X254000Y508000D03*
X228600Y508000D03*
X203200Y508000D03*
X177800Y508000D03*
D11*
X135255Y508000D03*
D10*
X101600Y508000D03*
X76200Y508000D03*
X76200Y533400D03*
X101600Y533400D03*
X152400Y533400D03*
X177800Y533400D03*
X203200Y533400D03*
X228600Y533400D03*
X254000Y533400D03*
X279400Y533400D03*
X304800Y533400D03*
X330200Y533400D03*
X355600Y533400D03*
X381000Y533400D03*
X406400Y533400D03*
X431800Y533400D03*
X457200Y533400D03*
X482600Y533400D03*
X508000Y533400D03*
X533400Y533400D03*
X558800Y533400D03*
X584200Y533400D03*
X609600Y533400D03*
X635000Y533400D03*
X660400Y533400D03*
X685800Y533400D03*
X711200Y533400D03*
X736600Y533400D03*
X762000Y533400D03*
X787400Y533400D03*
X812800Y533400D03*
X838200Y533400D03*
X889000Y533400D03*
X914400Y533400D03*
X914400Y558800D03*
X889000Y558800D03*
X863600Y558800D03*
X838200Y558800D03*
X812800Y558800D03*
X787400Y558800D03*
X762000Y558800D03*
X736600Y558800D03*
X711200Y558800D03*
X685800Y558800D03*
X660400Y558800D03*
X635000Y558800D03*
X609600Y558800D03*
X584200Y558800D03*
X558800Y558800D03*
X533400Y558800D03*
X508000Y558800D03*
X482600Y558800D03*
X457200Y558800D03*
X431800Y558800D03*
X406400Y558800D03*
X381000Y558800D03*
X355600Y558800D03*
X330200Y558800D03*
X304800Y558800D03*
X279400Y558800D03*
X254000Y558800D03*
X228600Y558800D03*
X203200Y558800D03*
X177800Y558800D03*
X152400Y558800D03*
X127000Y558800D03*
X101600Y558800D03*
X76200Y558800D03*
X177800Y584200D03*
X215900Y584200D03*
X254000Y584200D03*
X279400Y584200D03*
X304800Y584200D03*
X330200Y584200D03*
X355600Y584200D03*
X381000Y584200D03*
X406400Y584200D03*
X431800Y584200D03*
X457200Y584200D03*
X482600Y584200D03*
X508000Y584200D03*
X533400Y584200D03*
X558800Y584200D03*
X584200Y584200D03*
X609600Y584200D03*
X635000Y584200D03*
X660400Y584200D03*
X685800Y584200D03*
X711200Y584200D03*
X736600Y584200D03*
X774700Y584200D03*
X812800Y584200D03*
X685800Y609600D03*
X660400Y609600D03*
X635000Y609600D03*
X609600Y609600D03*
X584200Y609600D03*
X558800Y609600D03*
X533400Y609600D03*
X508000Y609600D03*
X482600Y609600D03*
X457200Y609600D03*
X431800Y609600D03*
X406400Y609600D03*
X381000Y609600D03*
X355600Y609600D03*
X330200Y609600D03*
X304800Y609600D03*
X304800Y635000D03*
X330200Y635000D03*
X355600Y635000D03*
X381000Y635000D03*
X406400Y635000D03*
X431800Y635000D03*
X457200Y635000D03*
X482600Y635000D03*
X508000Y635000D03*
X533400Y635000D03*
X558800Y635000D03*
X584200Y635000D03*
X609600Y635000D03*
X635000Y635000D03*
X660400Y635000D03*
X685800Y635000D03*
X685800Y660400D03*
X660400Y660400D03*
X635000Y660400D03*
X609600Y660400D03*
X584200Y660400D03*
X558800Y660400D03*
X533400Y660400D03*
X508000Y660400D03*
X482600Y660400D03*
X457200Y660400D03*
X431800Y660400D03*
X406400Y660400D03*
X381000Y660400D03*
X355600Y660400D03*
X330200Y660400D03*
X304800Y660400D03*
X609600Y482600D03*
X812800Y482600D03*
X228600Y177800D03*
X203200Y177800D03*
X177800Y177800D03*
X812800Y177800D03*
X787400Y177800D03*
X762000Y177800D03*
M02*
